<svg xmlns="http://www.w3.org/2000/svg" xmlns:xlink="http://www.w3.org/1999/xlink" width="500" zoomAndPan="magnify" viewBox="0 0 375 374.999991" height="500" preserveAspectRatio="xMidYMid meet" version="1.0"><defs><clipPath id="1299187977"><path d="M 9.074219 9.074219 L 366.074219 9.074219 L 366.074219 366.074219 L 9.074219 366.074219 Z M 9.074219 9.074219 " clip-rule="nonzero"/></clipPath></defs><g clip-path="url(#1299187977)"><path fill="#000000" d="M 153.5 366.074219 C 152.523438 366.070312 151.546875 366.019531 150.574219 365.921875 C 149.601562 365.824219 148.636719 365.675781 147.675781 365.484375 C 146.71875 365.292969 145.769531 365.050781 144.835938 364.765625 C 143.902344 364.480469 142.980469 364.148438 142.078125 363.773438 C 141.175781 363.398438 140.292969 362.980469 139.433594 362.515625 C 138.570312 362.054688 137.734375 361.550781 136.921875 361.007812 C 136.109375 360.464844 135.324219 359.878906 134.570312 359.257812 C 133.816406 358.636719 133.09375 357.980469 132.402344 357.289062 C 131.710938 356.597656 131.054688 355.875 130.433594 355.117188 C 129.816406 354.359375 129.234375 353.578125 128.691406 352.761719 C 128.148438 351.949219 127.644531 351.113281 127.183594 350.25 C 126.726562 349.386719 126.308594 348.503906 125.933594 347.601562 C 125.558594 346.699219 125.230469 345.777344 124.945312 344.84375 C 124.660156 343.90625 124.421875 342.960938 124.230469 342 C 124.039062 341.042969 123.898438 340.078125 123.800781 339.101562 C 123.703125 338.128906 123.65625 337.15625 123.652344 336.175781 L 123.652344 251.519531 L 38.949219 251.519531 C 37.96875 251.519531 36.992188 251.472656 36.019531 251.375 C 35.046875 251.277344 34.078125 251.132812 33.121094 250.941406 C 32.160156 250.75 31.210938 250.511719 30.277344 250.226562 C 29.339844 249.941406 28.417969 249.613281 27.515625 249.238281 C 26.613281 248.863281 25.730469 248.445312 24.867188 247.984375 C 24.003906 247.523438 23.164062 247.019531 22.351562 246.476562 C 21.539062 245.929688 20.753906 245.347656 19.996094 244.726562 C 19.242188 244.109375 18.515625 243.449219 17.824219 242.757812 C 17.132812 242.066406 16.476562 241.34375 15.855469 240.585938 C 15.234375 239.832031 14.652344 239.046875 14.109375 238.230469 C 13.566406 237.417969 13.0625 236.582031 12.601562 235.71875 C 12.136719 234.855469 11.71875 233.972656 11.34375 233.066406 C 10.96875 232.164062 10.640625 231.242188 10.355469 230.308594 C 10.070312 229.371094 9.832031 228.421875 9.640625 227.464844 C 9.449219 226.503906 9.304688 225.539062 9.210938 224.5625 C 9.113281 223.589844 9.0625 222.613281 9.0625 221.636719 L 9.0625 153.46875 C 9.0625 152.492188 9.113281 151.515625 9.210938 150.539062 C 9.304688 149.566406 9.449219 148.601562 9.640625 147.640625 C 9.832031 146.679688 10.070312 145.734375 10.355469 144.796875 C 10.640625 143.859375 10.96875 142.941406 11.34375 142.035156 C 11.71875 141.132812 12.136719 140.25 12.601562 139.386719 C 13.0625 138.523438 13.5625 137.683594 14.109375 136.871094 C 14.652344 136.058594 15.234375 135.273438 15.855469 134.515625 C 16.476562 133.757812 17.132812 133.035156 17.824219 132.34375 C 18.515625 131.648438 19.238281 130.992188 19.996094 130.371094 C 20.753906 129.75 21.539062 129.167969 22.351562 128.625 C 23.164062 128.082031 24.003906 127.578125 24.867188 127.117188 C 25.726562 126.652344 26.613281 126.234375 27.515625 125.859375 C 28.417969 125.484375 29.339844 125.15625 30.277344 124.871094 C 31.210938 124.585938 32.160156 124.347656 33.121094 124.15625 C 34.078125 123.960938 35.046875 123.820312 36.019531 123.722656 C 36.992188 123.625 37.96875 123.574219 38.949219 123.574219 L 123.652344 123.574219 L 123.652344 38.917969 C 123.65625 37.9375 123.703125 36.964844 123.800781 35.988281 C 123.898438 35.015625 124.042969 34.046875 124.234375 33.089844 C 124.425781 32.128906 124.664062 31.179688 124.949219 30.246094 C 125.234375 29.308594 125.566406 28.390625 125.941406 27.484375 C 126.316406 26.582031 126.734375 25.699219 127.195312 24.835938 C 127.65625 23.972656 128.160156 23.132812 128.707031 22.320312 C 129.25 21.507812 129.832031 20.722656 130.453125 19.964844 C 131.074219 19.210938 131.730469 18.484375 132.421875 17.792969 C 133.113281 17.101562 133.839844 16.445312 134.59375 15.824219 C 135.351562 15.203125 136.136719 14.621094 136.949219 14.078125 C 137.765625 13.535156 138.601562 13.03125 139.464844 12.570312 C 140.328125 12.109375 141.210938 11.691406 142.117188 11.316406 C 143.019531 10.941406 143.941406 10.609375 144.875 10.324219 C 145.8125 10.042969 146.761719 9.804688 147.71875 9.613281 C 148.679688 9.421875 149.648438 9.277344 150.621094 9.179688 C 151.59375 9.082031 152.570312 9.035156 153.550781 9.03125 L 221.664062 9.03125 C 222.644531 9.035156 223.621094 9.082031 224.59375 9.179688 C 225.566406 9.277344 226.535156 9.421875 227.492188 9.613281 C 228.453125 9.804688 229.402344 10.042969 230.335938 10.324219 C 231.273438 10.609375 232.195312 10.941406 233.097656 11.316406 C 234 11.691406 234.886719 12.109375 235.746094 12.570312 C 236.609375 13.03125 237.449219 13.535156 238.261719 14.078125 C 239.074219 14.621094 239.859375 15.203125 240.617188 15.824219 C 241.375 16.445312 242.097656 17.101562 242.789062 17.792969 C 243.480469 18.488281 244.136719 19.210938 244.757812 19.96875 C 245.378906 20.722656 245.960938 21.507812 246.503906 22.320312 C 247.050781 23.136719 247.550781 23.972656 248.011719 24.835938 C 248.476562 25.699219 248.894531 26.582031 249.269531 27.484375 C 249.644531 28.390625 249.972656 29.308594 250.257812 30.246094 C 250.542969 31.183594 250.78125 32.128906 250.972656 33.089844 C 251.164062 34.050781 251.308594 35.015625 251.40625 35.988281 C 251.5 36.964844 251.550781 37.9375 251.550781 38.917969 L 251.550781 123.574219 L 336.207031 123.574219 C 337.1875 123.574219 338.164062 123.625 339.136719 123.722656 C 340.109375 123.816406 341.078125 123.960938 342.035156 124.15625 C 342.996094 124.347656 343.945312 124.585938 344.882812 124.871094 C 345.816406 125.15625 346.738281 125.484375 347.640625 125.859375 C 348.546875 126.234375 349.429688 126.652344 350.292969 127.117188 C 351.15625 127.578125 351.992188 128.082031 352.808594 128.625 C 353.621094 129.167969 354.40625 129.75 355.160156 130.371094 C 355.917969 130.992188 356.644531 131.648438 357.335938 132.339844 C 358.027344 133.035156 358.683594 133.757812 359.304688 134.515625 C 359.925781 135.269531 360.507812 136.054688 361.050781 136.871094 C 361.597656 137.683594 362.097656 138.523438 362.5625 139.382812 C 363.023438 140.246094 363.441406 141.132812 363.816406 142.035156 C 364.191406 142.9375 364.523438 143.859375 364.804688 144.796875 C 365.089844 145.730469 365.328125 146.679688 365.523438 147.640625 C 365.714844 148.597656 365.859375 149.566406 365.957031 150.539062 C 366.050781 151.515625 366.101562 152.492188 366.101562 153.46875 L 366.101562 221.636719 C 366.101562 222.613281 366.050781 223.589844 365.957031 224.5625 C 365.859375 225.539062 365.714844 226.503906 365.523438 227.464844 C 365.328125 228.425781 365.089844 229.371094 364.804688 230.308594 C 364.519531 231.246094 364.191406 232.164062 363.816406 233.070312 C 363.441406 233.972656 363.023438 234.855469 362.5625 235.71875 C 362.097656 236.582031 361.597656 237.417969 361.050781 238.234375 C 360.507812 239.046875 359.925781 239.832031 359.304688 240.585938 C 358.683594 241.34375 358.027344 242.066406 357.335938 242.761719 C 356.640625 243.453125 355.917969 244.109375 355.160156 244.730469 C 354.40625 245.351562 353.621094 245.933594 352.804688 246.476562 C 351.992188 247.019531 351.152344 247.523438 350.292969 247.984375 C 349.429688 248.445312 348.542969 248.863281 347.640625 249.238281 C 346.738281 249.613281 345.816406 249.941406 344.878906 250.226562 C 343.945312 250.511719 342.996094 250.75 342.035156 250.941406 C 341.078125 251.132812 340.109375 251.277344 339.136719 251.375 C 338.160156 251.472656 337.1875 251.519531 336.207031 251.519531 L 251.550781 251.519531 L 251.550781 336.175781 C 251.550781 337.15625 251.5 338.132812 251.40625 339.105469 C 251.308594 340.078125 251.164062 341.046875 250.972656 342.007812 C 250.78125 342.964844 250.542969 343.914062 250.257812 344.851562 C 249.972656 345.785156 249.644531 346.707031 249.269531 347.609375 C 248.894531 348.515625 248.476562 349.398438 248.015625 350.261719 C 247.550781 351.125 247.050781 351.960938 246.507812 352.777344 C 245.960938 353.589844 245.378906 354.375 244.757812 355.132812 C 244.136719 355.886719 243.480469 356.613281 242.789062 357.304688 C 242.097656 357.996094 241.375 358.652344 240.617188 359.273438 C 239.863281 359.894531 239.078125 360.476562 238.261719 361.023438 C 237.449219 361.566406 236.613281 362.070312 235.75 362.53125 C 234.886719 362.992188 234.003906 363.410156 233.097656 363.785156 C 232.195312 364.160156 231.273438 364.492188 230.339844 364.777344 C 229.402344 365.0625 228.453125 365.300781 227.496094 365.492188 C 226.535156 365.683594 225.566406 365.828125 224.59375 365.925781 C 223.621094 366.023438 222.644531 366.070312 221.664062 366.074219 Z M 153.5 366.074219 " fill-opacity="1" fill-rule="nonzero"/></g><path fill="#ffffff" d="M 336.207031 131.609375 L 243.519531 131.609375 L 243.519531 38.917969 C 243.519531 38.203125 243.484375 37.488281 243.414062 36.777344 C 243.34375 36.0625 243.238281 35.355469 243.097656 34.65625 C 242.957031 33.953125 242.785156 33.257812 242.578125 32.574219 C 242.367188 31.890625 242.128906 31.21875 241.855469 30.554688 C 241.582031 29.894531 241.273438 29.25 240.9375 28.617188 C 240.601562 27.984375 240.234375 27.371094 239.835938 26.777344 C 239.4375 26.183594 239.011719 25.609375 238.558594 25.054688 C 238.101562 24.503906 237.625 23.972656 237.117188 23.464844 C 236.609375 22.960938 236.082031 22.480469 235.527344 22.027344 C 234.976562 21.574219 234.402344 21.144531 233.804688 20.75 C 233.210938 20.351562 232.597656 19.984375 231.964844 19.644531 C 231.335938 19.308594 230.6875 19.003906 230.027344 18.730469 C 229.367188 18.457031 228.695312 18.214844 228.007812 18.007812 C 227.324219 17.800781 226.628906 17.625 225.929688 17.484375 C 225.226562 17.347656 224.519531 17.242188 223.808594 17.171875 C 223.09375 17.101562 222.382812 17.066406 221.664062 17.066406 L 153.5 17.066406 C 152.785156 17.066406 152.070312 17.105469 151.359375 17.175781 C 150.648438 17.246094 149.945312 17.355469 149.242188 17.496094 C 148.542969 17.636719 147.851562 17.808594 147.167969 18.019531 C 146.484375 18.226562 145.8125 18.46875 145.152344 18.742188 C 144.492188 19.019531 143.847656 19.324219 143.214844 19.664062 C 142.585938 20 141.972656 20.367188 141.378906 20.765625 C 140.785156 21.164062 140.214844 21.589844 139.664062 22.042969 C 139.109375 22.496094 138.582031 22.976562 138.078125 23.484375 C 137.570312 23.988281 137.09375 24.519531 136.640625 25.070312 C 136.1875 25.625 135.761719 26.199219 135.363281 26.792969 C 134.96875 27.386719 134.601562 28 134.265625 28.628906 C 133.929688 29.261719 133.625 29.90625 133.351562 30.566406 C 133.078125 31.226562 132.835938 31.898438 132.628906 32.582031 C 132.421875 33.265625 132.246094 33.960938 132.109375 34.660156 C 131.96875 35.363281 131.863281 36.066406 131.792969 36.777344 C 131.722656 37.488281 131.6875 38.203125 131.6875 38.917969 L 131.6875 131.609375 L 38.949219 131.609375 C 38.230469 131.609375 37.519531 131.644531 36.804688 131.714844 C 36.09375 131.785156 35.386719 131.890625 34.683594 132.027344 C 33.984375 132.167969 33.289062 132.34375 32.605469 132.550781 C 31.917969 132.757812 31.246094 133 30.585938 133.273438 C 29.921875 133.546875 29.277344 133.855469 28.644531 134.191406 C 28.015625 134.53125 27.402344 134.898438 26.808594 135.296875 C 26.210938 135.691406 25.636719 136.121094 25.085938 136.574219 C 24.53125 137.027344 24.003906 137.507812 23.496094 138.015625 C 22.988281 138.519531 22.511719 139.050781 22.054688 139.605469 C 21.601562 140.15625 21.175781 140.730469 20.777344 141.328125 C 20.382812 141.921875 20.011719 142.535156 19.675781 143.167969 C 19.339844 143.796875 19.035156 144.445312 18.757812 145.105469 C 18.484375 145.765625 18.246094 146.441406 18.039062 147.125 C 17.828125 147.808594 17.65625 148.503906 17.515625 149.207031 C 17.375 149.90625 17.273438 150.613281 17.203125 151.328125 C 17.132812 152.039062 17.097656 152.753906 17.097656 153.46875 L 17.097656 221.636719 C 17.097656 222.351562 17.132812 223.066406 17.203125 223.777344 C 17.273438 224.488281 17.375 225.195312 17.515625 225.898438 C 17.65625 226.601562 17.828125 227.292969 18.039062 227.980469 C 18.246094 228.664062 18.484375 229.335938 18.757812 229.996094 C 19.035156 230.660156 19.339844 231.304688 19.675781 231.9375 C 20.015625 232.566406 20.382812 233.179688 20.777344 233.777344 C 21.175781 234.371094 21.601562 234.945312 22.054688 235.5 C 22.511719 236.050781 22.992188 236.582031 23.496094 237.085938 C 24.003906 237.59375 24.53125 238.074219 25.085938 238.527344 C 25.640625 238.980469 26.210938 239.40625 26.808594 239.804688 C 27.402344 240.203125 28.015625 240.570312 28.648438 240.90625 C 29.277344 241.246094 29.925781 241.550781 30.585938 241.824219 C 31.246094 242.097656 31.921875 242.339844 32.605469 242.546875 C 33.289062 242.753906 33.984375 242.929688 34.683594 243.066406 C 35.386719 243.207031 36.09375 243.3125 36.804688 243.382812 C 37.519531 243.453125 38.234375 243.488281 38.949219 243.488281 L 131.6875 243.488281 L 131.6875 336.175781 C 131.6875 336.890625 131.722656 337.605469 131.792969 338.316406 C 131.863281 339.027344 131.96875 339.734375 132.105469 340.4375 C 132.246094 341.136719 132.417969 341.828125 132.625 342.515625 C 132.832031 343.199219 133.074219 343.871094 133.347656 344.53125 C 133.621094 345.191406 133.925781 345.839844 134.261719 346.46875 C 134.597656 347.097656 134.964844 347.710938 135.363281 348.308594 C 135.757812 348.902344 136.183594 349.476562 136.636719 350.027344 C 137.089844 350.582031 137.566406 351.113281 138.074219 351.617188 C 138.578125 352.125 139.105469 352.605469 139.660156 353.058594 C 140.210938 353.511719 140.785156 353.9375 141.378906 354.335938 C 141.972656 354.734375 142.582031 355.101562 143.214844 355.441406 C 143.84375 355.777344 144.488281 356.085938 145.148438 356.359375 C 145.808594 356.636719 146.480469 356.875 147.164062 357.085938 C 147.847656 357.292969 148.539062 357.46875 149.242188 357.609375 C 149.941406 357.75 150.648438 357.855469 151.359375 357.929688 C 152.070312 358 152.785156 358.039062 153.5 358.039062 L 221.664062 358.039062 C 222.382812 358.039062 223.09375 358.003906 223.808594 357.933594 C 224.519531 357.863281 225.226562 357.757812 225.929688 357.617188 C 226.632812 357.476562 227.324219 357.304688 228.007812 357.09375 C 228.695312 356.886719 229.367188 356.644531 230.027344 356.371094 C 230.691406 356.097656 231.335938 355.792969 231.96875 355.453125 C 232.597656 355.117188 233.210938 354.75 233.808594 354.351562 C 234.402344 353.953125 234.976562 353.527344 235.527344 353.074219 C 236.082031 352.617188 236.613281 352.136719 237.117188 351.632812 C 237.625 351.125 238.105469 350.597656 238.558594 350.042969 C 239.011719 349.488281 239.4375 348.914062 239.835938 348.320312 C 240.234375 347.722656 240.601562 347.109375 240.9375 346.480469 C 241.273438 345.847656 241.582031 345.203125 241.855469 344.539062 C 242.128906 343.878906 242.367188 343.207031 242.578125 342.519531 C 242.785156 341.835938 242.957031 341.144531 243.097656 340.441406 C 243.238281 339.738281 243.34375 339.03125 243.414062 338.320312 C 243.484375 337.605469 243.519531 336.894531 243.519531 336.175781 L 243.519531 243.488281 L 336.207031 243.488281 C 336.921875 243.488281 337.636719 243.453125 338.347656 243.382812 C 339.0625 243.3125 339.769531 243.207031 340.472656 243.066406 C 341.171875 242.929688 341.867188 242.753906 342.550781 242.546875 C 343.238281 242.339844 343.910156 242.097656 344.570312 241.824219 C 345.230469 241.550781 345.878906 241.246094 346.511719 240.90625 C 347.140625 240.570312 347.753906 240.203125 348.351562 239.804688 C 348.945312 239.40625 349.519531 238.980469 350.074219 238.527344 C 350.625 238.074219 351.15625 237.59375 351.664062 237.085938 C 352.167969 236.582031 352.648438 236.050781 353.101562 235.5 C 353.558594 234.945312 353.984375 234.371094 354.382812 233.777344 C 354.777344 233.179688 355.148438 232.570312 355.484375 231.9375 C 355.820312 231.304688 356.128906 230.660156 356.402344 230 C 356.675781 229.335938 356.917969 228.664062 357.125 227.980469 C 357.332031 227.292969 357.507812 226.601562 357.648438 225.898438 C 357.785156 225.199219 357.890625 224.488281 357.960938 223.777344 C 358.035156 223.066406 358.070312 222.351562 358.070312 221.636719 L 358.070312 153.46875 C 358.070312 152.753906 358.035156 152.039062 357.964844 151.328125 C 357.894531 150.613281 357.789062 149.90625 357.648438 149.203125 C 357.507812 148.503906 357.335938 147.808594 357.128906 147.125 C 356.917969 146.4375 356.679688 145.765625 356.40625 145.101562 C 356.128906 144.441406 355.824219 143.796875 355.488281 143.164062 C 355.148438 142.53125 354.78125 141.917969 354.382812 141.324219 C 353.988281 140.726562 353.5625 140.152344 353.105469 139.601562 C 352.652344 139.046875 352.171875 138.515625 351.664062 138.011719 C 351.160156 137.503906 350.628906 137.023438 350.074219 136.570312 C 349.523438 136.117188 348.949219 135.691406 348.351562 135.292969 C 347.757812 134.894531 347.144531 134.527344 346.511719 134.1875 C 345.882812 133.851562 345.234375 133.546875 344.574219 133.273438 C 343.910156 132.996094 343.238281 132.757812 342.554688 132.546875 C 341.867188 132.339844 341.175781 132.167969 340.472656 132.027344 C 339.769531 131.886719 339.0625 131.78125 338.351562 131.710938 C 337.636719 131.640625 336.921875 131.609375 336.207031 131.609375 Z M 336.207031 131.609375 " fill-opacity="1" fill-rule="nonzero"/></svg>