<svg xmlns="http://www.w3.org/2000/svg" xmlns:xlink="http://www.w3.org/1999/xlink" width="500" zoomAndPan="magnify" viewBox="0 0 375 374.999991" height="500" preserveAspectRatio="xMidYMid meet" version="1.0"><defs><clipPath id="a49392651f"><path d="M 73 160 L 139 160 L 139 355.171875 L 73 355.171875 Z M 73 160 " clip-rule="nonzero"/></clipPath></defs><path fill="#ffffff" d="M 208.496094 318.570312 C 205.453125 283.734375 206.054688 248.304688 215.664062 214.460938 C 225.542969 179.667969 245.496094 149.097656 270.851562 123.589844 C 273.351562 121.078125 277.234375 124.960938 274.734375 127.472656 C 249.925781 152.429688 230.832031 181.988281 220.957031 215.917969 C 211.285156 249.167969 210.992188 284.324219 213.988281 318.570312 C 214.292969 322.101562 208.800781 322.070312 208.496094 318.570312 " fill-opacity="1" fill-rule="nonzero"/><path fill="#000000" d="M 208.496094 318.570312 L 210.773438 318.371094 C 209.757812 306.757812 209.152344 295.089844 209.152344 283.449219 C 209.152344 260.332031 211.542969 237.339844 217.867188 215.085938 C 227.617188 180.738281 247.339844 150.492188 272.476562 125.203125 C 272.570312 125.105469 272.625 125.085938 272.648438 125.074219 L 272.6875 125.0625 L 272.820312 125.097656 C 272.921875 125.140625 273.066406 125.261719 273.148438 125.382812 C 273.234375 125.507812 273.253906 125.609375 273.25 125.640625 L 273.242188 125.6875 C 273.230469 125.714844 273.203125 125.765625 273.113281 125.859375 C 248.085938 151.039062 228.757812 180.925781 218.761719 215.277344 C 212.347656 237.320312 210.023438 260.128906 210.023438 282.90625 C 210.023438 294.90625 210.667969 306.902344 211.707031 318.769531 L 211.707031 318.761719 L 211.710938 318.851562 L 211.703125 318.933594 L 211.703125 318.9375 L 211.859375 318.988281 L 211.730469 318.886719 L 211.703125 318.9375 L 211.859375 318.988281 L 211.730469 318.886719 L 211.835938 318.972656 L 211.753906 318.863281 L 211.730469 318.886719 L 211.835938 318.972656 L 211.753906 318.863281 L 211.742188 318.871094 C 211.710938 318.886719 211.605469 318.917969 211.476562 318.917969 C 211.273438 318.921875 211.042969 318.839844 210.949219 318.753906 L 210.839844 318.628906 C 210.816406 318.578125 210.785156 318.515625 210.773438 318.375 L 210.773438 318.371094 L 208.496094 318.570312 L 206.214844 318.765625 C 206.273438 319.503906 206.484375 320.207031 206.820312 320.816406 C 207.324219 321.738281 208.078125 322.425781 208.890625 322.855469 C 209.714844 323.289062 210.59375 323.496094 211.476562 323.496094 C 212.578125 323.492188 213.726562 323.171875 214.691406 322.371094 C 215.167969 321.976562 215.585938 321.449219 215.863281 320.835938 C 216.144531 320.226562 216.285156 319.542969 216.285156 318.851562 C 216.285156 318.703125 216.277344 318.542969 216.265625 318.378906 L 216.265625 318.371094 C 215.234375 306.605469 214.597656 294.742188 214.597656 282.90625 C 214.597656 260.441406 216.894531 238.070312 223.152344 216.558594 C 232.90625 183.050781 251.773438 153.828125 276.359375 129.085938 C 276.832031 128.609375 277.207031 128.058594 277.457031 127.464844 C 277.710938 126.871094 277.828125 126.238281 277.828125 125.640625 C 277.828125 124.914062 277.660156 124.230469 277.390625 123.625 C 276.980469 122.722656 276.34375 121.96875 275.550781 121.414062 C 274.757812 120.859375 273.777344 120.488281 272.6875 120.484375 C 272.078125 120.484375 271.445312 120.609375 270.851562 120.863281 C 270.253906 121.117188 269.699219 121.5 269.230469 121.976562 C 243.660156 147.703125 223.472656 178.59375 213.460938 213.832031 C 206.996094 236.59375 204.578125 260.023438 204.578125 283.449219 C 204.578125 295.246094 205.191406 307.046875 206.214844 318.769531 L 206.214844 318.765625 L 208.496094 318.570312 " fill-opacity="1" fill-rule="nonzero"/><path fill="#ffffff" d="M 147.34375 83.203125 C 163.570312 122.742188 176.621094 163.472656 184.921875 205.425781 C 193.160156 247.066406 196.542969 289.488281 197.347656 331.882812 C 197.414062 335.429688 191.925781 335.417969 191.855469 331.882812 C 191.050781 289.4375 187.582031 247.085938 179.332031 205.398438 C 171.136719 163.964844 158.066406 123.703125 142.046875 84.664062 C 140.703125 81.386719 146.015625 79.972656 147.34375 83.203125 " fill-opacity="1" fill-rule="nonzero"/><path fill="#000000" d="M 147.34375 83.203125 L 145.226562 84.070312 C 161.40625 123.496094 174.410156 164.085938 182.675781 205.871094 C 190.882812 247.335938 194.257812 289.625 195.058594 331.925781 L 197.347656 331.882812 L 195.058594 331.882812 L 195.058594 331.949219 C 195.058594 332.085938 195.039062 332.125 195.035156 332.136719 L 194.984375 332.175781 C 194.929688 332.210938 194.800781 332.253906 194.652344 332.25 C 194.453125 332.253906 194.273438 332.171875 194.230469 332.125 L 194.183594 332.066406 C 194.171875 332.042969 194.148438 331.988281 194.144531 331.839844 C 193.335938 289.300781 189.859375 246.808594 181.574219 204.953125 C 173.339844 163.34375 160.230469 122.9375 144.164062 83.796875 L 144.164062 83.792969 L 144.121094 83.667969 L 144.117188 83.640625 L 144.097656 83.644531 L 144.117188 83.644531 L 144.117188 83.640625 L 144.097656 83.644531 L 144.117188 83.644531 L 143.84375 83.644531 L 144.082031 83.773438 L 144.117188 83.644531 L 143.84375 83.644531 L 144.082031 83.773438 L 143.886719 83.667969 L 144.066406 83.804688 L 144.082031 83.773438 L 143.886719 83.667969 L 144.066406 83.804688 L 144.019531 83.769531 L 144.058594 83.808594 L 144.066406 83.804688 L 144.019531 83.769531 L 144.058594 83.808594 C 144.0625 83.804688 144.113281 83.761719 144.210938 83.726562 C 144.304688 83.691406 144.441406 83.667969 144.566406 83.667969 C 144.746094 83.667969 144.898438 83.714844 144.988281 83.769531 C 145.078125 83.832031 145.136719 83.875 145.226562 84.070312 L 149.460938 82.332031 C 149.023438 81.257812 148.25 80.386719 147.359375 79.855469 C 146.46875 79.316406 145.5 79.089844 144.566406 79.089844 C 143.394531 79.097656 142.253906 79.433594 141.28125 80.171875 C 140.796875 80.542969 140.355469 81.03125 140.042969 81.628906 C 139.722656 82.222656 139.539062 82.929688 139.542969 83.644531 C 139.542969 84.292969 139.683594 84.933594 139.933594 85.535156 C 155.910156 124.464844 168.925781 164.585938 177.085938 205.839844 C 185.304688 247.355469 188.769531 289.578125 189.570312 331.925781 C 189.582031 332.664062 189.742188 333.382812 190.042969 334.019531 C 190.496094 334.980469 191.246094 335.714844 192.058594 336.164062 C 192.882812 336.617188 193.773438 336.828125 194.652344 336.828125 C 195.8125 336.824219 197.003906 336.472656 197.996094 335.628906 C 198.488281 335.210938 198.914062 334.664062 199.203125 334.027344 C 199.488281 333.390625 199.636719 332.675781 199.636719 331.949219 L 199.636719 331.839844 C 198.832031 289.355469 195.4375 246.792969 187.167969 204.984375 C 178.828125 162.851562 165.734375 121.984375 149.460938 82.332031 L 147.34375 83.203125 " fill-opacity="1" fill-rule="nonzero"/><path fill="#ffffff" d="M 80.089844 163.53125 C 124.792969 215.269531 137.359375 283.589844 135.792969 350.191406 C 135.710938 353.722656 130.21875 353.734375 130.300781 350.191406 C 131.832031 285.140625 119.925781 218.015625 76.210938 167.414062 C 73.90625 164.746094 77.773438 160.847656 80.089844 163.53125 " fill-opacity="1" fill-rule="nonzero"/><g clip-path="url(#a49392651f)"><path fill="#000000" d="M 80.089844 163.53125 L 78.359375 165.027344 C 99.269531 189.230469 113.078125 217.109375 121.671875 246.824219 C 130.269531 276.53125 133.632812 308.0625 133.632812 339.480469 C 133.632812 343.035156 133.589844 346.585938 133.507812 350.136719 C 133.5 350.285156 133.476562 350.335938 133.464844 350.367188 L 133.355469 350.46875 C 133.277344 350.511719 133.132812 350.558594 132.984375 350.554688 C 132.785156 350.558594 132.636719 350.480469 132.621094 350.460938 L 132.613281 350.453125 C 132.609375 350.441406 132.589844 350.402344 132.589844 350.269531 L 131.453125 350.269531 L 132.585938 350.34375 L 132.589844 350.269531 L 131.453125 350.269531 L 132.585938 350.34375 L 132.589844 350.242188 C 132.675781 346.65625 132.71875 343.066406 132.71875 339.472656 C 132.71875 308.492188 129.476562 277.226562 121.011719 247.632812 C 112.550781 218.042969 98.847656 190.117188 77.9375 165.917969 C 77.785156 165.722656 77.800781 165.679688 77.789062 165.59375 C 77.78125 165.492188 77.859375 165.261719 78.023438 165.097656 L 78.234375 164.9375 L 78.285156 164.914062 L 78.289062 164.914062 L 78.28125 164.847656 L 78.28125 164.914062 L 78.289062 164.914062 L 78.28125 164.847656 L 78.28125 164.914062 L 78.28125 164.785156 L 78.226562 164.90625 L 78.28125 164.914062 L 78.28125 164.785156 L 78.226562 164.90625 C 78.226562 164.90625 78.265625 164.917969 78.359375 165.027344 L 81.820312 162.035156 C 81.363281 161.503906 80.8125 161.066406 80.199219 160.773438 C 79.585938 160.480469 78.917969 160.339844 78.28125 160.339844 C 77.546875 160.339844 76.855469 160.519531 76.253906 160.808594 C 75.351562 161.246094 74.625 161.910156 74.089844 162.714844 C 73.558594 163.527344 73.214844 164.511719 73.214844 165.59375 C 73.207031 166.730469 73.636719 167.953125 74.480469 168.910156 C 94.890625 192.539062 108.296875 219.820312 116.613281 248.890625 C 124.929688 277.960938 128.140625 308.8125 128.140625 339.472656 C 128.140625 343.03125 128.097656 346.585938 128.015625 350.136719 L 130.300781 350.191406 L 128.019531 350.03125 L 128.011719 350.269531 C 128.007812 350.992188 128.15625 351.707031 128.445312 352.339844 C 128.875 353.296875 129.613281 354.035156 130.425781 354.476562 C 131.238281 354.933594 132.117188 355.132812 132.984375 355.132812 C 134.15625 355.128906 135.359375 354.769531 136.359375 353.929688 C 136.855469 353.511719 137.292969 352.96875 137.59375 352.335938 C 137.898438 351.699219 138.066406 350.980469 138.078125 350.242188 C 138.160156 346.660156 138.207031 343.070312 138.207031 339.480469 C 138.207031 307.738281 134.8125 275.78125 126.070312 245.550781 C 117.328125 215.316406 103.222656 186.800781 81.820312 162.035156 L 80.089844 163.53125 " fill-opacity="1" fill-rule="nonzero"/></g><path fill="#ffffff" d="M 191.984375 115.273438 C 171.605469 143.085938 165.925781 178.714844 163.828125 212.335938 C 161.652344 247.175781 164.042969 282.042969 164.078125 316.90625 C 164.082031 320.449219 158.589844 320.449219 158.585938 316.90625 C 158.550781 281.578125 156.214844 246.28125 158.421875 210.96875 C 160.550781 176.921875 166.628906 140.644531 187.242188 112.5 C 189.316406 109.675781 194.082031 112.410156 191.984375 115.273438 " fill-opacity="1" fill-rule="nonzero"/><path fill="#000000" d="M 191.984375 115.273438 L 190.136719 113.917969 C 179.734375 128.125 173.117188 144.269531 168.835938 161.0625 C 164.554688 177.855469 162.597656 195.300781 161.542969 212.191406 C 160.859375 223.121094 160.625 234.042969 160.625 244.945312 C 160.625 269.003906 161.765625 292.992188 161.789062 316.90625 L 164.066406 316.90625 L 161.832031 316.46875 C 161.835938 316.46875 161.792969 316.605469 161.789062 316.90625 L 164.066406 316.90625 L 161.832031 316.46875 C 161.835938 316.46875 161.792969 316.605469 161.789062 316.910156 C 161.789062 317.058594 161.765625 317.105469 161.757812 317.125 L 161.683594 317.195312 C 161.617188 317.234375 161.484375 317.277344 161.332031 317.273438 C 161.132812 317.277344 160.964844 317.195312 160.933594 317.160156 L 160.90625 317.125 C 160.898438 317.105469 160.875 317.054688 160.875 316.902344 C 160.851562 292.8125 159.761719 268.800781 159.761719 244.859375 C 159.761719 233.59375 160.003906 222.347656 160.707031 211.113281 C 161.761719 194.171875 163.804688 176.730469 168.113281 160.089844 C 172.421875 143.453125 178.992188 127.628906 189.089844 113.851562 C 189.191406 113.71875 189.25 113.679688 189.3125 113.648438 C 189.371094 113.621094 189.445312 113.601562 189.550781 113.601562 C 189.738281 113.589844 190.011719 113.695312 190.136719 113.808594 L 190.234375 113.910156 L 190.332031 113.855469 L 190.222656 113.886719 L 190.234375 113.910156 L 190.332031 113.855469 L 190.222656 113.886719 L 190.472656 113.820312 L 190.214844 113.820312 L 190.222656 113.886719 L 190.472656 113.820312 L 190.214844 113.820312 L 190.425781 113.820312 L 190.21875 113.785156 L 190.214844 113.820312 L 190.425781 113.820312 L 190.21875 113.785156 L 190.28125 113.796875 L 190.21875 113.777344 L 190.21875 113.785156 L 190.28125 113.796875 L 190.21875 113.777344 C 190.21875 113.777344 190.203125 113.824219 190.136719 113.921875 L 190.136719 113.917969 L 191.984375 115.273438 L 193.828125 116.621094 C 194.4375 115.800781 194.796875 114.808594 194.792969 113.820312 C 194.792969 113.070312 194.589844 112.359375 194.273438 111.761719 C 193.789062 110.859375 193.070312 110.199219 192.269531 109.738281 C 191.457031 109.285156 190.539062 109.023438 189.550781 109.023438 C 188.816406 109.019531 188.042969 109.179688 187.3125 109.53125 C 186.582031 109.882812 185.910156 110.441406 185.394531 111.144531 C 174.875 125.515625 168.097656 141.898438 163.683594 158.945312 C 159.269531 175.996094 157.207031 193.71875 156.136719 210.824219 C 155.425781 222.1875 155.1875 233.53125 155.1875 244.859375 C 155.1875 268.9375 156.277344 292.949219 156.296875 316.90625 C 156.296875 317.644531 156.445312 318.371094 156.738281 319.015625 C 157.175781 319.984375 157.921875 320.730469 158.742188 321.183594 C 159.5625 321.644531 160.453125 321.851562 161.332031 321.851562 C 162.503906 321.851562 163.710938 321.488281 164.710938 320.632812 C 165.207031 320.210938 165.636719 319.65625 165.925781 319.015625 C 166.21875 318.371094 166.367188 317.648438 166.367188 316.910156 L 164.085938 316.910156 L 166.324219 317.347656 C 166.320312 317.347656 166.363281 317.214844 166.367188 316.910156 L 164.085938 316.910156 L 166.324219 317.347656 C 166.320312 317.347656 166.363281 317.203125 166.367188 316.90625 L 166.367188 316.902344 C 166.339844 292.847656 165.199219 268.859375 165.199219 244.945312 C 165.199219 234.105469 165.4375 223.285156 166.113281 212.476562 C 167.15625 195.746094 169.089844 178.574219 173.269531 162.191406 C 177.445312 145.808594 183.859375 130.234375 193.828125 116.625 L 193.828125 116.621094 L 191.984375 115.273438 " fill-opacity="1" fill-rule="nonzero"/><path fill="#ffffff" d="M 258.097656 227.324219 C 233.476562 257.484375 238.882812 300.65625 238.941406 336.871094 C 238.945312 340.417969 233.453125 340.417969 233.449219 336.871094 C 233.386719 298.832031 228.414062 255.042969 254.21875 223.4375 C 256.457031 220.691406 260.320312 224.605469 258.097656 227.324219 " fill-opacity="1" fill-rule="nonzero"/><path fill="#000000" d="M 258.097656 227.324219 L 256.328125 225.875 C 247.527344 236.648438 242.46875 249.023438 239.621094 262.003906 C 236.769531 274.988281 236.113281 288.609375 236.109375 302.046875 C 236.109375 313.992188 236.636719 325.800781 236.652344 336.875 L 236.652344 336.871094 L 238.917969 336.871094 L 236.671875 336.578125 C 236.675781 336.578125 236.652344 336.671875 236.652344 336.871094 L 238.917969 336.871094 L 236.671875 336.578125 C 236.675781 336.578125 236.652344 336.679688 236.652344 336.878906 C 236.652344 337.027344 236.628906 337.074219 236.621094 337.09375 L 236.546875 337.164062 C 236.484375 337.199219 236.34375 337.242188 236.199219 337.242188 C 236 337.246094 235.832031 337.164062 235.800781 337.128906 L 235.769531 337.089844 C 235.761719 337.070312 235.738281 337.019531 235.738281 336.871094 C 235.71875 326.109375 235.3125 314.953125 235.3125 303.789062 C 235.3125 289.539062 235.976562 275.289062 238.902344 261.878906 C 241.828125 248.464844 246.988281 235.914062 255.988281 224.886719 L 256.085938 224.785156 L 256.105469 224.769531 L 256.003906 224.589844 L 256.003906 224.792969 L 256.105469 224.769531 L 256.003906 224.589844 L 256.003906 224.792969 L 256.003906 224.695312 L 255.980469 224.789062 L 256.003906 224.792969 L 256.003906 224.695312 L 255.980469 224.789062 C 255.992188 224.785156 256.160156 224.867188 256.289062 225.039062 C 256.414062 225.203125 256.476562 225.40625 256.472656 225.519531 C 256.464844 225.628906 256.464844 225.6875 256.324219 225.878906 L 256.328125 225.875 L 258.097656 227.324219 L 259.871094 228.769531 C 260.664062 227.8125 261.054688 226.621094 261.050781 225.519531 C 261.042969 224.070312 260.460938 222.8125 259.597656 221.867188 C 259.15625 221.398438 258.640625 220.996094 258.039062 220.699219 C 257.4375 220.402344 256.75 220.214844 256.003906 220.214844 C 255.355469 220.214844 254.675781 220.367188 254.054688 220.679688 C 253.433594 220.984375 252.886719 221.441406 252.445312 221.992188 C 242.898438 233.675781 237.464844 246.980469 234.433594 260.902344 C 231.398438 274.832031 230.738281 289.398438 230.734375 303.789062 C 230.734375 315.0625 231.144531 326.226562 231.160156 336.875 C 231.160156 337.613281 231.3125 338.339844 231.605469 338.980469 C 232.039062 339.953125 232.789062 340.695312 233.601562 341.148438 C 234.425781 341.609375 235.316406 341.816406 236.199219 341.820312 C 237.367188 341.816406 238.574219 341.453125 239.574219 340.601562 C 240.070312 340.175781 240.5 339.625 240.789062 338.984375 C 241.082031 338.339844 241.230469 337.617188 241.230469 336.878906 L 238.957031 336.878906 L 241.210938 337.171875 C 241.207031 337.171875 241.226562 337.074219 241.230469 336.878906 L 238.957031 336.878906 L 241.210938 337.171875 C 241.207031 337.171875 241.230469 337.074219 241.230469 336.871094 C 241.207031 325.660156 240.683594 313.859375 240.683594 302.046875 C 240.683594 288.761719 241.351562 275.457031 244.089844 262.984375 C 246.832031 250.507812 251.621094 238.875 259.871094 228.769531 L 258.097656 227.324219 " fill-opacity="1" fill-rule="nonzero"/><path fill="#ffffff" d="M 296.984375 48.109375 C 296.984375 48.109375 226.199219 63.960938 256.183594 110.554688 C 256.183594 110.554688 252.5 138.796875 278.078125 148.21875 C 288.492188 152.0625 303.222656 151.703125 313.507812 147.902344 C 325.773438 143.371094 334.707031 133.394531 340.199219 121.769531 C 343.449219 114.894531 346.042969 107.308594 347.773438 99.898438 C 348.945312 94.921875 349.808594 89.886719 350.511719 84.816406 C 351.480469 77.773438 351.585938 70.050781 355.296875 63.757812 C 356.894531 61.042969 358.894531 58.429688 361.125 56.214844 C 362.519531 54.824219 370.070312 47.585938 371.847656 48.109375 C 371.847656 48.109375 340.792969 39.003906 296.984375 48.109375 " fill-opacity="1" fill-rule="nonzero"/><path fill="#000000" d="M 296.984375 48.109375 L 296.484375 45.878906 C 296.371094 45.90625 284.175781 48.625 271.804688 55.234375 C 265.617188 58.542969 259.367188 62.828125 254.582031 68.355469 C 252.191406 71.125 250.167969 74.207031 248.738281 77.628906 C 247.308594 81.050781 246.492188 84.8125 246.492188 88.863281 C 246.492188 95.734375 248.84375 103.386719 254.261719 111.796875 L 256.183594 110.554688 L 253.914062 110.257812 C 253.902344 110.335938 253.710938 111.847656 253.710938 114.265625 C 253.714844 118.460938 254.277344 125.429688 257.511719 132.449219 C 259.132812 135.957031 261.433594 139.472656 264.660156 142.59375 C 267.886719 145.71875 272.039062 148.4375 277.289062 150.367188 C 282.597656 152.324219 288.792969 153.21875 295.007812 153.222656 C 301.796875 153.21875 308.605469 152.148438 314.300781 150.046875 C 320.777344 147.652344 326.363281 143.828125 331.019531 139.101562 C 335.683594 134.378906 339.421875 128.765625 342.269531 122.746094 C 345.59375 115.707031 348.230469 107.984375 350.003906 100.417969 L 350 100.421875 C 351.191406 95.351562 352.070312 90.246094 352.777344 85.132812 C 353.277344 81.507812 353.542969 77.839844 354.128906 74.390625 C 354.71875 70.933594 355.613281 67.71875 357.265625 64.921875 C 358.769531 62.367188 360.660156 59.898438 362.734375 57.835938 L 362.730469 57.835938 C 363.367188 57.207031 365.460938 55.191406 367.582031 53.390625 C 368.644531 52.492188 369.722656 51.644531 370.582031 51.0625 C 371.007812 50.777344 371.382812 50.558594 371.628906 50.445312 C 371.75 50.386719 371.835938 50.359375 371.851562 50.351562 L 371.640625 49.484375 L 371.640625 50.375 C 371.777344 50.371094 371.839844 50.355469 371.851562 50.351562 L 371.640625 49.484375 L 371.640625 50.375 L 371.640625 48.820312 L 371.210938 50.308594 C 371.386719 50.359375 371.542969 50.375 371.640625 50.375 L 371.640625 48.820312 L 371.210938 50.308594 C 372.425781 50.660156 373.695312 49.960938 374.042969 48.75 C 374.398438 47.539062 373.703125 46.269531 372.492188 45.914062 C 372.335938 45.867188 358.324219 41.777344 335.863281 41.773438 C 324.632812 41.773438 311.289062 42.800781 296.519531 45.871094 L 296.484375 45.878906 L 296.984375 48.109375 L 297.449219 50.351562 C 311.878906 47.351562 324.910156 46.351562 335.863281 46.351562 C 346.816406 46.351562 355.6875 47.351562 361.804688 48.34375 C 364.867188 48.84375 367.234375 49.339844 368.828125 49.707031 C 369.625 49.890625 370.230469 50.042969 370.628906 50.148438 C 370.828125 50.203125 370.980469 50.246094 371.078125 50.269531 L 371.179688 50.296875 L 371.203125 50.304688 L 371.207031 50.304688 C 371.792969 50.476562 372.410156 50.414062 372.945312 50.117188 C 373.484375 49.824219 373.871094 49.335938 374.042969 48.75 C 374.214844 48.164062 374.148438 47.542969 373.855469 47.007812 C 373.558594 46.472656 373.070312 46.082031 372.484375 45.910156 C 372.179688 45.824219 371.894531 45.796875 371.640625 45.796875 C 371.203125 45.796875 370.855469 45.875 370.535156 45.96875 C 369.949219 46.144531 369.460938 46.398438 368.949219 46.6875 C 368.066406 47.199219 367.15625 47.863281 366.210938 48.601562 C 363.402344 50.8125 360.394531 53.71875 359.511719 54.585938 C 357.125 56.960938 355.019531 59.71875 353.328125 62.59375 C 351.261719 66.089844 350.253906 69.882812 349.617188 73.621094 C 348.984375 77.367188 348.71875 81.085938 348.242188 84.507812 L 348.242188 84.503906 C 347.550781 89.519531 346.699219 94.484375 345.546875 99.371094 L 345.546875 99.375 C 343.851562 106.632812 341.304688 114.078125 338.128906 120.792969 C 335.480469 126.402344 332.011719 131.585938 327.765625 135.886719 C 323.515625 140.191406 318.5 143.613281 312.714844 145.753906 C 307.664062 147.621094 301.308594 148.648438 295.007812 148.644531 C 289.238281 148.648438 283.511719 147.789062 278.867188 146.074219 C 274.1875 144.347656 270.617188 141.984375 267.84375 139.304688 C 263.683594 135.28125 261.296875 130.488281 259.941406 125.933594 C 258.585938 121.382812 258.285156 117.097656 258.285156 114.265625 C 258.285156 113.175781 258.328125 112.304688 258.375 111.714844 C 258.394531 111.417969 258.414062 111.191406 258.429688 111.046875 L 258.445312 110.886719 L 258.453125 110.855469 L 258.453125 110.851562 C 258.523438 110.320312 258.398438 109.769531 258.105469 109.316406 C 253.039062 101.441406 251.066406 94.675781 251.066406 88.863281 C 251.066406 85.425781 251.753906 82.292969 252.960938 79.390625 C 255.074219 74.316406 258.839844 69.917969 263.398438 66.195312 C 270.226562 60.605469 278.792969 56.59375 285.625 54.035156 C 289.042969 52.75 292.023438 51.824219 294.144531 51.21875 C 295.203125 50.917969 296.050781 50.695312 296.621094 50.550781 C 296.910156 50.480469 297.128906 50.425781 297.277344 50.390625 L 297.4375 50.351562 L 297.484375 50.34375 L 296.984375 48.109375 L 297.449219 50.351562 L 296.984375 48.109375 " fill-opacity="1" fill-rule="nonzero"/><path fill="#ffffff" d="M 256.226562 111.804688 C 269.546875 87.988281 292.144531 63.351562 354.355469 50.859375 " fill-opacity="1" fill-rule="nonzero"/><path fill="#000000" d="M 258.226562 112.921875 C 264.785156 101.203125 273.511719 89.429688 288.28125 78.953125 C 303.050781 68.484375 323.929688 59.300781 354.804688 53.105469 C 356.042969 52.855469 356.847656 51.648438 356.597656 50.410156 C 356.351562 49.171875 355.144531 48.367188 353.90625 48.617188 C 322.574219 54.902344 301.046875 64.292969 285.636719 75.214844 C 270.21875 86.136719 260.988281 98.59375 254.226562 110.6875 C 253.613281 111.789062 254.007812 113.183594 255.105469 113.800781 C 256.210938 114.417969 257.605469 114.023438 258.226562 112.921875 " fill-opacity="1" fill-rule="nonzero"/><path fill="#ffffff" d="M 316.742188 222.269531 C 316.742188 222.269531 294.09375 179.382812 269.320312 206.910156 C 269.320312 206.910156 250.457031 209.488281 248.871094 227.648438 C 248.230469 235.039062 251.042969 244.476562 255.300781 250.449219 C 260.375 257.5625 268.371094 261.578125 276.835938 263.078125 C 281.84375 263.96875 287.1875 264.308594 292.269531 264.128906 C 295.683594 264.007812 299.082031 263.675781 302.46875 263.242188 C 307.191406 262.636719 312.183594 261.34375 316.890625 262.632812 C 318.921875 263.1875 320.964844 264.015625 322.78125 265.070312 C 323.925781 265.730469 329.914062 269.328125 329.886719 270.566406 C 329.886719 270.566406 330.308594 248.929688 316.742188 222.269531 " fill-opacity="1" fill-rule="nonzero"/><path fill="#000000" d="M 316.742188 222.269531 L 318.765625 221.199219 C 318.710938 221.105469 315.410156 214.84375 309.84375 208.472656 C 307.054688 205.285156 303.695312 202.066406 299.824219 199.601562 C 295.957031 197.132812 291.53125 195.402344 286.703125 195.398438 C 283.617188 195.398438 280.390625 196.125 277.183594 197.75 C 273.972656 199.367188 270.777344 201.863281 267.617188 205.378906 L 269.320312 206.910156 L 269.007812 204.640625 C 268.832031 204.671875 263.863281 205.34375 258.523438 208.496094 C 255.855469 210.082031 253.085938 212.304688 250.871094 215.417969 C 248.65625 218.523438 247.015625 222.519531 246.589844 227.449219 C 246.523438 228.226562 246.492188 229.019531 246.492188 229.820312 C 246.496094 233.609375 247.207031 237.621094 248.417969 241.429688 C 249.628906 245.234375 251.34375 248.832031 253.4375 251.777344 C 256.1875 255.632812 259.726562 258.636719 263.671875 260.863281 C 267.625 263.085938 271.980469 264.542969 276.4375 265.332031 C 280.714844 266.089844 285.207031 266.464844 289.59375 266.464844 C 290.519531 266.464844 291.4375 266.449219 292.351562 266.414062 C 295.855469 266.292969 299.328125 265.957031 302.761719 265.511719 C 306.148438 265.066406 309.441406 264.359375 312.433594 264.367188 C 313.785156 264.367188 315.066406 264.507812 316.289062 264.839844 C 318.140625 265.34375 320.007812 266.105469 321.632812 267.050781 L 321.640625 267.054688 C 322.15625 267.351562 323.914062 268.402344 325.457031 269.472656 C 326.226562 270.007812 326.953125 270.558594 327.402344 270.964844 C 327.625 271.160156 327.777344 271.332031 327.804688 271.371094 L 327.808594 271.375 L 328.519531 270.882812 L 327.726562 271.214844 C 327.773438 271.332031 327.804688 271.371094 327.808594 271.375 L 328.519531 270.882812 L 327.726562 271.214844 L 329.296875 270.558594 L 327.601562 270.558594 C 327.601562 270.890625 327.679688 271.097656 327.726562 271.214844 L 329.296875 270.558594 L 327.601562 270.558594 L 329.863281 270.558594 L 327.605469 270.359375 C 327.605469 270.359375 327.601562 270.425781 327.601562 270.558594 L 329.863281 270.558594 L 327.605469 270.359375 C 327.609375 270.363281 327.582031 270.515625 327.609375 270.808594 C 327.636719 271.09375 327.765625 271.523438 327.988281 271.84375 C 328.550781 272.675781 329.585938 273.042969 330.542969 272.757812 C 331.503906 272.472656 332.160156 271.59375 332.175781 270.59375 C 332.175781 270.582031 332.175781 270.5 332.175781 270.347656 C 332.171875 267.773438 331.773438 246.773438 318.78125 221.230469 L 318.765625 221.199219 L 316.742188 222.269531 L 314.703125 223.304688 C 327.253906 247.964844 327.601562 268.253906 327.601562 270.347656 L 327.601562 270.535156 L 329.886719 270.566406 L 331.785156 269.289062 L 329.890625 270.5625 L 332.105469 269.996094 C 332.042969 269.761719 331.933594 269.5 331.785156 269.289062 L 329.890625 270.5625 L 332.105469 269.996094 L 329.894531 270.5625 L 332.167969 270.707031 C 332.175781 270.613281 332.195312 270.355469 332.105469 269.996094 L 329.894531 270.5625 L 332.167969 270.707031 L 329.921875 270.5625 L 332.164062 270.753906 L 332.167969 270.707031 L 329.921875 270.5625 L 332.164062 270.753906 L 332.164062 270.75 C 332.167969 270.734375 332.175781 270.667969 332.175781 270.558594 C 332.171875 270.019531 332.03125 269.632812 331.898438 269.335938 C 331.628906 268.785156 331.34375 268.453125 331.042969 268.125 C 330.511719 267.5625 329.90625 267.066406 329.234375 266.554688 C 327.230469 265.042969 324.691406 263.53125 323.921875 263.085938 L 323.929688 263.089844 C 321.917969 261.925781 319.710938 261.027344 317.492188 260.421875 C 315.789062 259.957031 314.089844 259.789062 312.433594 259.789062 C 308.765625 259.800781 305.292969 260.582031 302.175781 260.96875 C 298.839844 261.402344 295.507812 261.722656 292.1875 261.839844 C 291.332031 261.871094 290.464844 261.886719 289.59375 261.886719 C 285.46875 261.886719 281.226562 261.535156 277.234375 260.824219 C 273.226562 260.117188 269.355469 258.808594 265.921875 256.875 C 262.488281 254.9375 259.492188 252.375 257.167969 249.117188 C 255.410156 246.660156 253.859375 243.445312 252.777344 240.039062 C 251.691406 236.632812 251.0625 233.03125 251.066406 229.820312 C 251.066406 229.144531 251.097656 228.484375 251.148438 227.847656 C 251.519531 223.691406 252.832031 220.554688 254.601562 218.074219 C 257.238281 214.359375 260.996094 212.097656 264.140625 210.796875 C 265.710938 210.144531 267.117188 209.734375 268.109375 209.488281 C 268.605469 209.367188 269.003906 209.289062 269.265625 209.238281 C 269.398438 209.214844 269.496094 209.199219 269.558594 209.1875 L 269.621094 209.175781 L 269.632812 209.175781 L 269.515625 208.359375 L 269.625 209.175781 L 269.632812 209.175781 L 269.515625 208.359375 L 269.625 209.175781 C 270.160156 209.101562 270.65625 208.839844 271.015625 208.441406 C 273.875 205.265625 276.636719 203.152344 279.246094 201.835938 C 281.859375 200.519531 284.320312 199.980469 286.703125 199.976562 C 290.40625 199.976562 293.996094 201.3125 297.363281 203.460938 C 302.40625 206.664062 306.8125 211.65625 309.890625 215.847656 C 311.433594 217.941406 312.652344 219.832031 313.476562 221.1875 C 313.890625 221.867188 314.203125 222.414062 314.414062 222.785156 C 314.519531 222.96875 314.597656 223.113281 314.648438 223.207031 L 314.703125 223.308594 L 314.714844 223.335938 L 314.71875 223.335938 L 316.742188 222.269531 L 314.703125 223.304688 L 316.742188 222.269531 " fill-opacity="1" fill-rule="nonzero"/><path fill="#ffffff" d="M 268.519531 207.152344 C 286.210938 211.566406 306.070312 221.824219 325.046875 259.761719 " fill-opacity="1" fill-rule="nonzero"/><path fill="#000000" d="M 267.964844 209.375 C 276.605469 211.535156 285.597656 215.046875 294.847656 222.652344 C 304.09375 230.257812 313.613281 242.023438 323.003906 260.785156 C 323.566406 261.917969 324.941406 262.375 326.070312 261.808594 C 327.199219 261.242188 327.65625 259.867188 327.09375 258.738281 C 317.5 239.558594 307.609375 227.226562 297.753906 219.117188 C 287.910156 211.003906 278.125 207.183594 269.066406 204.933594 C 267.84375 204.628906 266.601562 205.371094 266.292969 206.597656 C 265.988281 207.824219 266.738281 209.070312 267.964844 209.375 " fill-opacity="1" fill-rule="nonzero"/><path fill="#ffffff" d="M 250.972656 70.882812 C 250.972656 70.882812 215.421875 19.910156 188.242188 58.816406 C 188.242188 58.816406 164.667969 65.0625 165.507812 88.402344 C 165.847656 97.90625 170.914062 109.476562 177.269531 116.386719 C 184.847656 124.636719 195.644531 128.484375 206.644531 129.066406 C 213.148438 129.40625 220 128.996094 226.433594 127.972656 C 230.757812 127.277344 235.03125 126.324219 239.273438 125.234375 C 245.167969 123.722656 251.320312 121.292969 257.511719 122.1875 C 260.179688 122.582031 262.90625 123.3125 265.394531 124.359375 C 266.941406 125.019531 275.128906 128.652344 275.289062 130.230469 C 275.289062 130.230469 272.421875 102.652344 250.972656 70.882812 " fill-opacity="1" fill-rule="nonzero"/><path fill="#000000" d="M 250.972656 70.882812 L 252.851562 69.570312 C 252.789062 69.488281 248.0625 62.707031 240.640625 55.847656 C 236.925781 52.417969 232.535156 48.96875 227.65625 46.335938 C 222.789062 43.710938 217.40625 41.894531 211.753906 41.890625 C 207.453125 41.886719 203.007812 42.972656 198.710938 45.492188 C 194.414062 48.007812 190.265625 51.921875 186.367188 57.507812 L 188.242188 58.816406 L 187.65625 56.601562 C 187.488281 56.65625 181.558594 58.21875 175.484375 62.800781 C 172.449219 65.09375 169.378906 68.15625 167.058594 72.191406 C 164.734375 76.21875 163.195312 81.21875 163.199219 87.1875 C 163.199219 87.613281 163.207031 88.046875 163.21875 88.488281 L 163.21875 88.484375 C 163.410156 93.605469 164.835938 99.101562 167.027344 104.261719 C 169.226562 109.421875 172.1875 114.234375 175.585938 117.9375 C 179.617188 122.332031 184.511719 125.542969 189.804688 127.722656 C 195.097656 129.894531 200.796875 131.046875 206.523438 131.351562 C 208.078125 131.433594 209.648438 131.472656 211.226562 131.472656 C 216.4375 131.472656 221.738281 131.039062 226.796875 130.230469 C 231.210938 129.519531 235.554688 128.554688 239.839844 127.453125 C 242.433594 126.785156 244.984375 125.980469 247.480469 125.351562 C 249.976562 124.722656 252.40625 124.285156 254.753906 124.285156 C 255.570312 124.285156 256.378906 124.335938 257.183594 124.457031 L 257.179688 124.453125 C 259.664062 124.816406 262.214844 125.503906 264.503906 126.46875 L 264.492188 126.464844 C 265.222656 126.777344 267.632812 127.839844 269.792969 128.980469 C 270.875 129.542969 271.902344 130.136719 272.574219 130.613281 C 272.90625 130.847656 273.15625 131.058594 273.234375 131.144531 L 273.253906 131.164062 L 273.257812 131.171875 L 273.863281 130.679688 L 273.171875 131.027344 C 273.226562 131.132812 273.257812 131.167969 273.257812 131.171875 L 273.863281 130.679688 L 273.171875 131.027344 L 274.601562 130.300781 L 273.011719 130.46875 C 273.042969 130.75 273.121094 130.929688 273.171875 131.027344 L 274.601562 130.300781 L 273.011719 130.46875 C 273.074219 131.074219 273.371094 131.621094 273.84375 132.007812 C 274.320312 132.394531 274.917969 132.570312 275.523438 132.507812 C 276.132812 132.445312 276.679688 132.148438 277.066406 131.671875 C 277.453125 131.199219 277.628906 130.601562 277.566406 129.996094 C 277.535156 129.753906 274.605469 101.8125 252.871094 69.597656 L 252.851562 69.570312 L 250.972656 70.882812 L 249.078125 72.164062 C 259.65625 87.832031 265.648438 102.460938 268.988281 113.15625 C 270.664062 118.496094 271.671875 122.855469 272.261719 125.863281 C 272.554688 127.371094 272.742188 128.535156 272.863281 129.320312 C 272.917969 129.710938 272.957031 130.007812 272.980469 130.199219 C 272.992188 130.296875 273 130.367188 273.007812 130.410156 L 273.011719 130.460938 L 273.011719 130.46875 C 273.144531 131.726562 274.265625 132.636719 275.523438 132.507812 C 276.78125 132.375 277.695312 131.253906 277.566406 129.996094 C 277.5 129.429688 277.304688 129.03125 277.121094 128.71875 C 276.761719 128.144531 276.382812 127.804688 275.980469 127.457031 C 275.269531 126.867188 274.4375 126.339844 273.519531 125.804688 C 270.785156 124.222656 267.300781 122.6875 266.289062 122.253906 L 266.28125 122.25 C 263.589844 121.121094 260.699219 120.34375 257.847656 119.925781 L 257.839844 119.925781 C 256.796875 119.773438 255.769531 119.707031 254.753906 119.707031 C 251.839844 119.710938 249.039062 120.242188 246.367188 120.910156 C 243.691406 121.585938 241.128906 122.394531 238.703125 123.019531 C 234.511719 124.09375 230.308594 125.03125 226.074219 125.710938 C 221.253906 126.480469 216.183594 126.894531 211.226562 126.894531 C 209.726562 126.894531 208.234375 126.855469 206.761719 126.78125 C 201.492188 126.5 196.292969 125.4375 191.546875 123.488281 C 186.792969 121.53125 182.496094 118.695312 178.953125 114.839844 L 178.953125 114.835938 C 175.996094 111.628906 173.25 107.199219 171.238281 102.46875 C 169.222656 97.742188 167.945312 92.699219 167.792969 88.320312 L 167.792969 88.3125 C 167.78125 87.9375 167.773438 87.5625 167.773438 87.1875 C 167.777344 81.992188 169.078125 77.859375 171.023438 74.472656 C 173.933594 69.402344 178.390625 66.007812 182.15625 63.902344 C 184.039062 62.847656 185.738281 62.121094 186.953125 61.664062 C 187.558594 61.429688 188.042969 61.269531 188.367188 61.164062 C 188.53125 61.117188 188.652344 61.078125 188.730469 61.054688 L 188.8125 61.035156 L 188.832031 61.03125 L 188.6875 60.507812 L 188.828125 61.03125 L 188.832031 61.03125 L 188.6875 60.507812 L 188.828125 61.03125 C 189.347656 60.890625 189.808594 60.570312 190.117188 60.128906 C 193.726562 54.964844 197.410156 51.558594 201.023438 49.441406 C 204.640625 47.328125 208.203125 46.476562 211.753906 46.46875 C 216.402344 46.46875 221.074219 47.984375 225.488281 50.367188 C 232.105469 53.929688 238.070312 59.40625 242.320312 63.992188 C 244.445312 66.285156 246.15625 68.347656 247.320312 69.832031 C 247.902344 70.574219 248.355469 71.171875 248.65625 71.578125 C 248.804688 71.785156 248.917969 71.941406 248.992188 72.042969 L 249.078125 72.160156 L 249.09375 72.183594 L 249.097656 72.191406 L 250.972656 70.882812 L 249.078125 72.164062 L 250.972656 70.882812 " fill-opacity="1" fill-rule="nonzero"/><path fill="#ffffff" d="M 187.265625 59.257812 C 210.464844 62.078125 237.328125 71.996094 267.425781 117.257812 " fill-opacity="1" fill-rule="nonzero"/><path fill="#000000" d="M 186.992188 61.527344 C 198.378906 62.917969 210.484375 65.996094 223.53125 74.273438 C 236.578125 82.550781 250.601562 96.085938 265.523438 118.523438 C 266.222656 119.574219 267.644531 119.859375 268.695312 119.160156 C 269.746094 118.460938 270.035156 117.042969 269.332031 115.988281 C 254.15625 93.164062 239.695312 79.105469 225.984375 70.40625 C 212.28125 61.703125 199.355469 58.414062 187.546875 56.980469 C 186.289062 56.832031 185.148438 57.726562 184.996094 58.976562 C 184.84375 60.234375 185.734375 61.375 186.992188 61.527344 " fill-opacity="1" fill-rule="nonzero"/><path fill="#ffffff" d="M 187.777344 156.195312 C 187.777344 156.195312 223.335938 105.214844 250.515625 144.128906 C 250.515625 144.128906 274.085938 150.375 273.246094 173.714844 C 272.90625 183.21875 267.84375 194.78125 261.488281 201.699219 C 253.914062 209.953125 243.105469 213.796875 232.117188 214.375 C 225.605469 214.71875 218.757812 214.308594 212.320312 213.28125 C 207.996094 212.589844 203.71875 211.632812 199.480469 210.546875 C 193.582031 209.035156 187.4375 206.605469 181.242188 207.5 C 178.570312 207.894531 175.855469 208.625 173.371094 209.671875 C 171.816406 210.328125 163.632812 213.96875 163.46875 215.542969 C 163.46875 215.542969 166.335938 187.964844 187.777344 156.195312 " fill-opacity="1" fill-rule="nonzero"/><path fill="#000000" d="M 187.777344 156.195312 L 189.65625 157.503906 L 189.664062 157.492188 C 189.886719 157.171875 194.546875 150.605469 201.546875 144.21875 C 205.046875 141.023438 209.125 137.878906 213.476562 135.566406 C 217.828125 133.25 222.421875 131.777344 227 131.78125 C 230.554688 131.78125 234.113281 132.640625 237.730469 134.753906 C 241.351562 136.867188 245.03125 140.277344 248.640625 145.441406 C 248.949219 145.878906 249.410156 146.203125 249.929688 146.339844 C 250.105469 146.382812 255.546875 147.914062 260.761719 151.953125 C 263.371094 153.96875 265.925781 156.589844 267.820312 159.945312 C 269.714844 163.300781 270.976562 167.386719 270.980469 172.503906 C 270.980469 172.867188 270.972656 173.25 270.960938 173.636719 L 270.960938 173.628906 C 270.808594 178.015625 269.53125 183.050781 267.515625 187.777344 C 265.507812 192.507812 262.757812 196.9375 259.800781 200.152344 C 256.261719 204.007812 251.964844 206.84375 247.214844 208.796875 C 242.460938 210.75 237.265625 211.8125 231.996094 212.09375 C 230.519531 212.167969 229.027344 212.207031 227.523438 212.207031 C 222.566406 212.207031 217.5 211.792969 212.679688 211.023438 C 208.449219 210.34375 204.242188 209.40625 200.050781 208.328125 C 197.625 207.707031 195.0625 206.894531 192.390625 206.222656 C 189.714844 205.554688 186.914062 205.023438 184.003906 205.019531 C 182.988281 205.019531 181.953125 205.085938 180.917969 205.238281 L 180.914062 205.238281 C 178.054688 205.65625 175.164062 206.433594 172.480469 207.5625 L 172.476562 207.566406 C 171.648438 207.914062 169.191406 209 166.835938 210.234375 C 165.65625 210.859375 164.507812 211.507812 163.550781 212.179688 C 163.070312 212.519531 162.636719 212.859375 162.230469 213.277344 C 162.03125 213.488281 161.828125 213.722656 161.640625 214.03125 C 161.453125 214.339844 161.257812 214.738281 161.191406 215.308594 C 161.0625 216.566406 161.976562 217.6875 163.234375 217.820312 C 164.492188 217.949219 165.617188 217.039062 165.746094 215.777344 L 165.746094 215.773438 C 165.808594 215.167969 168.855469 188.3125 189.675781 157.472656 L 187.777344 156.195312 L 189.65625 157.503906 L 187.777344 156.195312 L 185.882812 154.914062 C 164.148438 187.125 161.222656 215.066406 161.191406 215.308594 C 161.132812 215.914062 161.308594 216.511719 161.695312 216.988281 C 162.078125 217.460938 162.625 217.757812 163.234375 217.820312 C 163.84375 217.882812 164.4375 217.707031 164.914062 217.320312 C 165.386719 216.933594 165.683594 216.386719 165.746094 215.777344 L 164.242188 215.621094 L 165.542969 216.417969 C 165.589844 216.335938 165.703125 216.152344 165.746094 215.777344 L 164.242188 215.621094 L 165.542969 216.417969 L 165.007812 216.089844 L 165.5 216.484375 L 165.542969 216.417969 L 165.007812 216.089844 L 165.5 216.484375 L 165.453125 216.445312 L 165.5 216.484375 L 165.453125 216.445312 L 165.5 216.484375 C 165.503906 216.472656 165.660156 216.316406 165.902344 216.128906 C 166.332031 215.800781 167.027344 215.355469 167.816406 214.914062 C 170.1875 213.570312 173.410156 212.136719 174.261719 211.777344 L 174.257812 211.78125 C 176.539062 210.820312 179.085938 210.128906 181.574219 209.765625 L 181.570312 209.765625 C 182.371094 209.648438 183.183594 209.59375 184.003906 209.59375 C 186.347656 209.59375 188.777344 210.035156 191.273438 210.664062 C 193.769531 211.289062 196.316406 212.09375 198.914062 212.765625 C 203.195312 213.863281 207.539062 214.835938 211.957031 215.542969 C 217.019531 216.347656 222.308594 216.785156 227.523438 216.785156 C 229.101562 216.785156 230.679688 216.746094 232.238281 216.660156 C 237.957031 216.359375 243.65625 215.210938 248.949219 213.03125 C 254.246094 210.855469 259.136719 207.644531 263.171875 203.25 C 266.570312 199.542969 269.53125 194.726562 271.726562 189.574219 C 273.917969 184.414062 275.347656 178.917969 275.535156 173.796875 L 275.535156 173.789062 C 275.550781 173.359375 275.558594 172.933594 275.558594 172.503906 C 275.5625 166.527344 274.019531 161.527344 271.695312 157.503906 C 268.210938 151.449219 263.0625 147.589844 258.832031 145.21875 C 254.597656 142.847656 251.226562 141.949219 251.101562 141.917969 L 250.515625 144.128906 L 252.394531 142.816406 C 248.488281 137.234375 244.347656 133.316406 240.046875 130.804688 C 235.75 128.28125 231.308594 127.195312 227 127.203125 C 221.347656 127.203125 215.96875 129.023438 211.097656 131.648438 C 203.785156 135.59375 197.546875 141.382812 193.082031 146.183594 C 188.621094 150.992188 185.945312 154.820312 185.902344 154.882812 L 185.882812 154.914062 L 187.777344 156.195312 " fill-opacity="1" fill-rule="nonzero"/><path fill="#ffffff" d="M 251.488281 144.566406 C 228.289062 147.390625 201.429688 157.304688 171.328125 202.570312 " fill-opacity="1" fill-rule="nonzero"/><path fill="#000000" d="M 251.214844 142.292969 C 239.402344 143.722656 226.472656 147.015625 212.769531 155.71875 C 199.058594 164.417969 184.597656 178.476562 169.421875 201.300781 C 168.722656 202.351562 169.007812 203.773438 170.058594 204.476562 C 171.109375 205.171875 172.53125 204.890625 173.230469 203.835938 C 188.15625 181.398438 202.179688 167.863281 215.222656 159.582031 C 228.273438 151.308594 240.378906 148.230469 251.769531 146.839844 C 253.019531 146.683594 253.914062 145.542969 253.761719 144.289062 C 253.609375 143.039062 252.46875 142.144531 251.214844 142.292969 " fill-opacity="1" fill-rule="nonzero"/><path fill="#ffffff" d="M 188.101562 231.023438 C 188.101562 231.023438 152.546875 180.054688 125.367188 218.957031 C 125.367188 218.957031 101.796875 225.207031 102.636719 248.542969 C 102.972656 258.050781 108.042969 269.613281 114.390625 276.535156 C 121.96875 284.78125 132.773438 288.628906 143.765625 289.210938 C 150.277344 289.546875 157.125 289.140625 163.5625 288.113281 C 167.890625 287.417969 172.160156 286.464844 176.398438 285.378906 C 182.300781 283.863281 188.445312 281.4375 194.636719 282.332031 C 197.308594 282.722656 200.03125 283.453125 202.515625 284.507812 C 204.0625 285.164062 212.253906 288.796875 212.410156 290.371094 C 212.410156 290.371094 209.542969 262.792969 188.101562 231.023438 " fill-opacity="1" fill-rule="nonzero"/><path fill="#000000" d="M 188.101562 231.023438 L 189.980469 229.714844 C 189.917969 229.628906 185.191406 222.847656 177.765625 215.988281 C 174.050781 212.558594 169.660156 209.109375 164.78125 206.476562 C 159.914062 203.855469 154.53125 202.035156 148.878906 202.03125 C 144.570312 202.027344 140.132812 203.117188 135.835938 205.632812 C 131.535156 208.152344 127.390625 212.0625 123.488281 217.644531 L 125.367188 218.957031 L 124.777344 216.746094 C 124.613281 216.796875 118.679688 218.359375 112.609375 222.941406 C 109.578125 225.234375 106.503906 228.296875 104.183594 232.332031 C 101.863281 236.359375 100.320312 241.359375 100.328125 247.335938 C 100.328125 247.757812 100.332031 248.1875 100.347656 248.628906 L 100.347656 248.625 C 100.535156 253.75 101.960938 259.246094 104.152344 264.40625 C 106.351562 269.5625 109.3125 274.375 112.707031 278.078125 C 116.742188 282.472656 121.632812 285.683594 126.929688 287.863281 C 132.222656 290.039062 137.921875 291.191406 143.644531 291.496094 C 145.195312 291.574219 146.753906 291.613281 148.324219 291.613281 C 153.546875 291.613281 158.851562 291.179688 163.925781 290.371094 C 168.339844 289.664062 172.683594 288.691406 176.96875 287.59375 C 179.5625 286.925781 182.105469 286.121094 184.601562 285.496094 C 187.09375 284.871094 189.527344 284.425781 191.867188 284.429688 C 192.691406 284.429688 193.5 284.484375 194.308594 284.597656 C 196.796875 284.957031 199.339844 285.644531 201.621094 286.613281 C 202.34375 286.917969 204.753906 287.984375 206.921875 289.121094 C 208 289.6875 209.027344 290.28125 209.699219 290.753906 C 210.03125 290.988281 210.277344 291.195312 210.359375 291.28125 L 210.375 291.300781 L 210.382812 291.308594 L 210.996094 290.8125 L 210.292969 291.167969 C 210.347656 291.269531 210.378906 291.304688 210.382812 291.308594 L 210.996094 290.8125 L 210.292969 291.167969 L 211.726562 290.441406 L 210.136719 290.597656 C 210.164062 290.882812 210.242188 291.0625 210.292969 291.167969 L 211.726562 290.441406 L 210.136719 290.597656 C 210.191406 291.207031 210.488281 291.757812 210.964844 292.144531 C 211.4375 292.527344 212.035156 292.710938 212.640625 292.648438 C 213.25 292.585938 213.800781 292.289062 214.1875 291.816406 C 214.574219 291.34375 214.75 290.742188 214.6875 290.136719 C 214.660156 289.894531 211.730469 261.953125 189.996094 229.738281 L 189.980469 229.714844 L 188.101562 231.023438 L 186.203125 232.304688 C 196.78125 247.972656 202.769531 262.605469 206.113281 273.292969 C 207.785156 278.640625 208.792969 283 209.382812 286.007812 C 209.679688 287.511719 209.867188 288.675781 209.980469 289.457031 C 210.039062 289.851562 210.078125 290.144531 210.105469 290.335938 C 210.113281 290.433594 210.125 290.503906 210.128906 290.550781 L 210.136719 290.601562 L 210.136719 290.609375 C 210.265625 291.863281 211.386719 292.777344 212.640625 292.648438 C 213.902344 292.519531 214.8125 291.402344 214.6875 290.144531 C 214.625 289.574219 214.429688 289.171875 214.242188 288.863281 C 213.886719 288.289062 213.507812 287.945312 213.101562 287.597656 C 212.394531 287.007812 211.5625 286.480469 210.644531 285.945312 C 207.90625 284.363281 204.425781 282.835938 203.402344 282.398438 L 203.40625 282.402344 C 200.71875 281.261719 197.824219 280.484375 194.96875 280.070312 C 193.921875 279.917969 192.890625 279.851562 191.867188 279.851562 C 188.957031 279.851562 186.160156 280.382812 183.492188 281.058594 C 180.816406 281.730469 178.257812 282.539062 175.832031 283.160156 C 171.640625 284.234375 167.433594 285.171875 163.203125 285.851562 C 158.371094 286.621094 153.292969 287.035156 148.324219 287.035156 C 146.832031 287.035156 145.347656 287 143.886719 286.921875 C 138.617188 286.644531 133.417969 285.582031 128.671875 283.628906 C 123.917969 281.671875 119.617188 278.835938 116.078125 274.980469 C 113.121094 271.769531 110.371094 267.34375 108.363281 262.613281 C 106.347656 257.882812 105.074219 252.84375 104.925781 248.460938 L 104.925781 248.457031 C 104.90625 248.078125 104.902344 247.707031 104.902344 247.335938 C 104.90625 242.132812 106.207031 238 108.152344 234.613281 C 111.0625 229.542969 115.515625 226.148438 119.28125 224.042969 C 121.164062 222.988281 122.859375 222.261719 124.074219 221.800781 C 124.679688 221.570312 125.167969 221.410156 125.492188 221.308594 C 125.652344 221.257812 125.777344 221.222656 125.855469 221.195312 L 125.9375 221.175781 L 125.953125 221.171875 L 125.832031 220.714844 L 125.949219 221.171875 L 125.953125 221.171875 L 125.832031 220.714844 L 125.949219 221.171875 C 126.472656 221.03125 126.933594 220.710938 127.238281 220.269531 C 130.847656 215.105469 134.53125 211.703125 138.144531 209.585938 C 141.765625 207.472656 145.328125 206.617188 148.878906 206.609375 C 153.527344 206.605469 158.199219 208.125 162.613281 210.507812 C 169.230469 214.070312 175.191406 219.546875 179.449219 224.132812 C 181.574219 226.425781 183.28125 228.488281 184.449219 229.972656 C 185.03125 230.714844 185.480469 231.3125 185.78125 231.722656 C 185.933594 231.925781 186.046875 232.082031 186.121094 232.1875 L 186.203125 232.300781 L 186.222656 232.324219 L 186.226562 232.332031 L 188.101562 231.023438 L 186.203125 232.304688 L 188.101562 231.023438 " fill-opacity="1" fill-rule="nonzero"/><path fill="#ffffff" d="M 124.390625 219.394531 C 147.59375 222.21875 174.453125 232.136719 204.554688 277.398438 " fill-opacity="1" fill-rule="nonzero"/><path fill="#000000" d="M 124.117188 221.667969 C 135.503906 223.058594 147.609375 226.140625 160.660156 234.414062 C 173.707031 242.691406 187.726562 256.226562 202.648438 278.664062 C 203.351562 279.714844 204.769531 280.003906 205.820312 279.304688 C 206.875 278.605469 207.160156 277.179688 206.460938 276.128906 C 191.28125 253.304688 176.820312 239.25 163.113281 230.546875 C 149.40625 221.84375 136.476562 218.554688 124.667969 217.125 C 123.410156 216.96875 122.269531 217.863281 122.121094 219.117188 C 121.96875 220.375 122.859375 221.515625 124.117188 221.667969 " fill-opacity="1" fill-rule="nonzero"/><path fill="#ffffff" d="M 121.8125 36.367188 C 121.8125 36.367188 183.492188 43.878906 161.878906 86.132812 C 161.878906 86.132812 167.414062 109.898438 146.417969 120.097656 C 137.863281 124.25 125.273438 125.195312 116.1875 122.828125 C 105.351562 120 96.890625 112.265625 91.222656 102.824219 C 87.871094 97.230469 85.015625 90.988281 82.90625 84.816406 C 81.492188 80.671875 80.328125 76.449219 79.296875 72.199219 C 77.871094 66.277344 77.136719 59.699219 73.441406 54.648438 C 71.84375 52.472656 69.917969 50.417969 67.828125 48.710938 C 66.519531 47.652344 59.472656 42.125 58.003906 42.714844 C 58.003906 42.714844 83.703125 32.320312 121.8125 36.367188 " fill-opacity="1" fill-rule="nonzero"/><path fill="#000000" d="M 121.8125 36.367188 L 121.535156 38.640625 L 121.554688 38.644531 C 122.109375 38.707031 133.113281 40.167969 143.742188 44.867188 C 149.054688 47.207031 154.25 50.351562 158.019531 54.394531 C 159.902344 56.414062 161.441406 58.648438 162.503906 61.132812 C 163.574219 63.621094 164.183594 66.363281 164.183594 69.460938 C 164.183594 73.871094 162.9375 79.035156 159.839844 85.09375 C 159.59375 85.574219 159.527344 86.128906 159.652344 86.652344 L 160.265625 86.507812 L 159.648438 86.648438 L 159.652344 86.652344 L 160.265625 86.507812 L 159.648438 86.648438 C 159.664062 86.703125 160.253906 89.332031 160.253906 93.09375 C 160.253906 96.785156 159.683594 101.535156 157.5625 106.058594 C 156.5 108.320312 155.058594 110.535156 153.089844 112.574219 C 151.117188 114.605469 148.621094 116.476562 145.414062 118.035156 C 140.363281 120.5 133.496094 121.820312 126.988281 121.8125 C 123.339844 121.8125 119.796875 121.40625 116.761719 120.613281 C 111.699219 119.292969 107.179688 116.824219 103.226562 113.546875 C 99.277344 110.265625 95.902344 106.171875 93.183594 101.644531 L 93.183594 101.648438 C 89.921875 96.203125 87.128906 90.097656 85.070312 84.078125 C 83.683594 80.019531 82.539062 75.863281 81.523438 71.65625 L 81.523438 71.660156 C 80.832031 68.800781 80.289062 65.648438 79.429688 62.492188 C 78.566406 59.339844 77.375 56.152344 75.285156 53.296875 C 73.578125 50.964844 71.527344 48.777344 69.277344 46.941406 L 69.265625 46.929688 C 68.605469 46.398438 66.671875 44.871094 64.597656 43.433594 C 63.558594 42.714844 62.492188 42.019531 61.492188 41.46875 C 60.984375 41.191406 60.5 40.949219 60 40.757812 C 59.75 40.660156 59.496094 40.574219 59.214844 40.503906 C 58.9375 40.4375 58.636719 40.386719 58.265625 40.382812 C 57.953125 40.386719 57.578125 40.421875 57.140625 40.597656 C 55.96875 41.074219 55.410156 42.40625 55.882812 43.578125 C 56.359375 44.746094 57.691406 45.308594 58.863281 44.835938 L 58.867188 44.835938 C 59.226562 44.691406 76.84375 37.71875 104.226562 37.722656 C 109.644531 37.722656 115.441406 37.992188 121.570312 38.644531 L 121.8125 36.367188 L 121.535156 38.640625 L 121.8125 36.367188 L 122.050781 34.089844 C 115.761719 33.421875 109.796875 33.144531 104.226562 33.144531 C 75.617188 33.148438 57.335938 40.515625 57.148438 40.59375 C 56.578125 40.820312 56.136719 41.261719 55.894531 41.824219 C 55.660156 42.386719 55.65625 43.011719 55.882812 43.578125 C 56.113281 44.144531 56.554688 44.585938 57.117188 44.828125 C 57.679688 45.0625 58.304688 45.066406 58.871094 44.832031 L 58.265625 43.355469 L 58.265625 44.957031 C 58.378906 44.957031 58.574219 44.953125 58.871094 44.832031 L 58.265625 43.355469 L 58.265625 44.957031 L 58.265625 44.042969 L 58.140625 44.953125 L 58.265625 44.957031 L 58.265625 44.042969 L 58.140625 44.953125 L 58.183594 44.640625 L 58.121094 44.949219 L 58.140625 44.953125 L 58.183594 44.640625 L 58.121094 44.949219 L 58.15625 44.957031 C 58.246094 44.984375 58.488281 45.074219 58.789062 45.21875 C 59.316406 45.476562 60.027344 45.894531 60.777344 46.382812 C 63.042969 47.84375 65.683594 49.917969 66.390625 50.492188 L 66.382812 50.484375 C 68.308594 52.054688 70.113281 53.980469 71.59375 56 C 73.207031 58.199219 74.226562 60.824219 75.015625 63.703125 C 75.800781 66.574219 76.339844 69.671875 77.074219 72.734375 C 78.113281 77.035156 79.292969 81.324219 80.742188 85.558594 C 82.902344 91.878906 85.820312 98.253906 89.257812 104 C 92.210938 108.917969 95.902344 113.410156 100.304688 117.066406 C 104.707031 120.722656 109.832031 123.535156 115.605469 125.046875 C 119.101562 125.953125 123 126.390625 126.988281 126.390625 C 134.101562 126.382812 141.503906 125.011719 147.414062 122.15625 C 151.078125 120.375 154.039062 118.179688 156.378906 115.75 C 159.898438 112.109375 162.023438 107.964844 163.25 103.992188 C 164.476562 100.015625 164.824219 96.203125 164.824219 93.09375 C 164.824219 88.722656 164.136719 85.738281 164.105469 85.617188 L 161.878906 86.132812 L 163.917969 87.179688 C 167.261719 80.632812 168.757812 74.746094 168.757812 69.460938 C 168.761719 65.695312 167.992188 62.257812 166.648438 59.183594 C 164.292969 53.800781 160.230469 49.578125 155.59375 46.273438 C 148.625 41.316406 140.296875 38.320312 133.683594 36.507812 C 127.070312 34.703125 122.164062 34.105469 122.089844 34.09375 L 122.050781 34.089844 L 121.8125 36.367188 " fill-opacity="1" fill-rule="nonzero"/><path fill="#ffffff" d="M 161.953125 87.203125 C 148.578125 68.03125 127.230469 48.949219 73.148438 43.574219 " fill-opacity="1" fill-rule="nonzero"/><path fill="#000000" d="M 163.832031 85.894531 C 157.023438 76.132812 148.058594 66.25 133.945312 58.226562 C 119.835938 50.191406 100.644531 44.007812 73.375 41.296875 C 72.121094 41.171875 70.996094 42.089844 70.871094 43.351562 C 70.746094 44.609375 71.664062 45.726562 72.921875 45.851562 C 99.734375 48.515625 118.257812 54.5625 131.683594 62.203125 C 145.109375 69.855469 153.507812 79.105469 160.078125 88.511719 C 160.800781 89.550781 162.226562 89.804688 163.261719 89.082031 C 164.300781 88.359375 164.554688 86.933594 163.832031 85.894531 " fill-opacity="1" fill-rule="nonzero"/><path fill="#ffffff" d="M 60.066406 139.996094 C 60.066406 139.996094 120.1875 124.304688 115.617188 171.554688 C 115.617188 171.554688 129.492188 191.613281 113.710938 208.820312 C 107.289062 215.824219 95.929688 221.335938 86.601562 222.472656 C 75.488281 223.828125 64.773438 219.746094 56.035156 213.042969 C 50.863281 209.078125 45.917969 204.320312 41.6875 199.359375 C 38.847656 196.019531 36.214844 192.523438 33.695312 188.945312 C 30.195312 183.960938 27.09375 178.121094 21.800781 174.785156 C 19.511719 173.347656 16.96875 172.140625 14.394531 171.324219 C 12.789062 170.816406 4.210938 168.265625 3.0625 169.359375 C 3.0625 169.359375 23.136719 150.242188 60.066406 139.996094 " fill-opacity="1" fill-rule="nonzero"/><path fill="#000000" d="M 60.066406 139.996094 L 60.648438 142.210938 L 60.664062 142.207031 C 61.125 142.085938 70.320312 139.78125 80.863281 139.785156 C 84.710938 139.785156 88.730469 140.089844 92.554688 140.894531 C 95.421875 141.5 98.183594 142.378906 100.679688 143.605469 C 104.433594 145.449219 107.601562 148.03125 109.878906 151.695312 C 112.148438 155.355469 113.574219 160.164062 113.574219 166.613281 C 113.574219 168.097656 113.5 169.671875 113.339844 171.332031 C 113.289062 171.867188 113.429688 172.410156 113.738281 172.855469 L 114.34375 172.4375 L 113.738281 172.851562 L 113.738281 172.855469 L 114.34375 172.4375 L 113.738281 172.851562 C 113.757812 172.878906 115.089844 174.835938 116.394531 177.960938 C 117.703125 181.089844 118.972656 185.378906 118.96875 190.070312 C 118.96875 192.785156 118.550781 195.632812 117.484375 198.523438 C 116.414062 201.414062 114.695312 204.355469 112.023438 207.269531 C 109.066406 210.503906 104.828125 213.511719 100.222656 215.796875 C 95.625 218.09375 90.664062 219.671875 86.328125 220.199219 C 84.984375 220.363281 83.652344 220.441406 82.324219 220.441406 C 73.382812 220.449219 64.730469 216.832031 57.425781 211.226562 C 52.398438 207.371094 47.550781 202.714844 43.425781 197.875 L 43.429688 197.875 C 40.652344 194.609375 38.058594 191.167969 35.566406 187.628906 C 33.871094 185.222656 32.210938 182.492188 30.246094 179.875 C 28.289062 177.261719 26.007812 174.734375 23.019531 172.847656 L 23.015625 172.847656 C 20.574219 171.308594 17.867188 170.023438 15.085938 169.144531 L 15.082031 169.140625 C 14.375 168.917969 12.496094 168.351562 10.402344 167.828125 C 9.355469 167.566406 8.253906 167.320312 7.210938 167.128906 C 6.160156 166.941406 5.183594 166.804688 4.253906 166.800781 C 3.859375 166.800781 3.472656 166.820312 3.035156 166.914062 C 2.8125 166.964844 2.578125 167.03125 2.316406 167.148438 C 2.058594 167.265625 1.765625 167.433594 1.476562 167.707031 C 0.5625 168.585938 0.53125 170.027344 1.40625 170.941406 C 2.28125 171.851562 3.722656 171.890625 4.640625 171.015625 L 4.441406 170.808594 L 4.636719 171.015625 L 4.640625 171.015625 L 4.441406 170.808594 L 4.636719 171.015625 C 4.769531 170.886719 24.539062 152.222656 60.683594 142.203125 L 60.066406 139.996094 L 60.648438 142.210938 L 60.066406 139.996094 L 59.457031 137.792969 C 22.019531 148.183594 1.660156 167.539062 1.480469 167.703125 C 1.039062 168.125 0.789062 168.695312 0.773438 169.308594 C 0.761719 169.917969 0.984375 170.5 1.40625 170.941406 C 1.828125 171.382812 2.402344 171.636719 3.011719 171.644531 C 3.621094 171.660156 4.203125 171.433594 4.644531 171.011719 L 3.519531 169.835938 L 4.183594 171.328125 C 4.292969 171.277344 4.457031 171.191406 4.644531 171.011719 L 3.519531 169.835938 L 4.183594 171.328125 L 3.757812 170.371094 L 4.019531 171.386719 L 4.183594 171.328125 L 3.757812 170.371094 L 4.019531 171.386719 L 3.941406 171.082031 L 3.996094 171.390625 L 4.019531 171.386719 L 3.941406 171.082031 L 3.996094 171.390625 C 4.003906 171.386719 4.101562 171.378906 4.253906 171.378906 C 4.6875 171.375 5.492188 171.46875 6.394531 171.632812 C 9.113281 172.121094 12.78125 173.210938 13.710938 173.503906 L 13.707031 173.503906 C 16.070312 174.253906 18.453125 175.382812 20.582031 176.71875 C 22.882812 178.171875 24.800781 180.234375 26.585938 182.621094 C 28.378906 185.003906 30.015625 187.683594 31.824219 190.257812 L 31.824219 190.261719 C 34.375 193.882812 37.046875 197.433594 39.941406 200.839844 L 39.941406 200.84375 C 44.277344 205.925781 49.332031 210.78125 54.640625 214.855469 C 62.558594 220.929688 72.128906 225.015625 82.324219 225.019531 C 83.835938 225.019531 85.355469 224.929688 86.878906 224.742188 C 91.867188 224.132812 97.246094 222.390625 102.265625 219.894531 C 107.28125 217.390625 111.929688 214.140625 115.398438 210.363281 C 118.449219 207.039062 120.503906 203.558594 121.777344 200.109375 C 123.050781 196.660156 123.546875 193.253906 123.542969 190.070312 C 123.542969 184.464844 122.035156 179.558594 120.542969 176.03125 C 119.054688 172.503906 117.566406 170.34375 117.5 170.25 L 115.617188 171.554688 L 117.898438 171.769531 C 118.070312 169.972656 118.152344 168.257812 118.152344 166.613281 C 118.15625 160.285156 116.890625 155.054688 114.648438 150.820312 C 112.972656 147.644531 110.75 145.046875 108.191406 142.976562 C 104.351562 139.867188 99.789062 137.941406 95.074219 136.777344 C 90.351562 135.613281 85.460938 135.210938 80.863281 135.210938 C 69.3125 135.214844 59.601562 137.757812 59.492188 137.785156 L 59.457031 137.792969 L 60.066406 139.996094 " fill-opacity="1" fill-rule="nonzero"/><path fill="#ffffff" d="M 116.074219 172.519531 C 96.589844 159.601562 69.726562 149.707031 17.457031 164.59375 " fill-opacity="1" fill-rule="nonzero"/><path fill="#000000" d="M 117.339844 170.609375 C 110.953125 166.375 103.71875 162.417969 95.082031 159.539062 C 86.441406 156.652344 76.40625 154.84375 64.433594 154.84375 C 51.199219 154.84375 35.597656 157.046875 16.832031 162.390625 C 15.613281 162.738281 14.910156 164.003906 15.253906 165.21875 C 15.601562 166.4375 16.867188 167.140625 18.082031 166.792969 C 36.527344 161.539062 51.707031 159.421875 64.433594 159.421875 C 75.949219 159.425781 85.457031 161.148438 93.632812 163.878906 C 101.808594 166.605469 108.652344 170.34375 114.8125 174.425781 C 115.867188 175.121094 117.285156 174.835938 117.984375 173.78125 C 118.679688 172.730469 118.394531 171.304688 117.339844 170.609375 " fill-opacity="1" fill-rule="nonzero"/></svg>