<svg xmlns="http://www.w3.org/2000/svg" xmlns:xlink="http://www.w3.org/1999/xlink" width="500" zoomAndPan="magnify" viewBox="0 0 375 374.999991" height="500" preserveAspectRatio="xMidYMid meet" version="1.0"><path fill="#ffffff" d="M 370.988281 4.214844 C 325.121094 9.246094 295.886719 26.277344 295.886719 26.277344 L 84.804688 237.339844 L 111.34375 263.859375 L 137.859375 290.394531 L 348.921875 79.332031 C 348.921875 79.332031 365.953125 50.078125 370.988281 4.214844 " fill-opacity="1" fill-rule="nonzero"/><path fill="#000000" d="M 370.988281 4.214844 L 370.566406 0.238281 C 323.882812 5.371094 294.1875 22.644531 293.871094 22.824219 C 293.570312 22.984375 293.289062 23.222656 293.050781 23.460938 L 81.988281 234.523438 C 80.429688 236.082031 80.429688 238.617188 81.988281 240.175781 L 108.507812 266.691406 L 135.023438 293.210938 C 135.761719 293.949219 136.800781 294.390625 137.859375 294.390625 C 138.898438 294.390625 139.9375 293.949219 140.675781 293.210938 L 351.738281 82.148438 C 351.976562 81.910156 352.195312 81.609375 352.375 81.328125 C 352.554688 81.011719 369.828125 51.296875 374.960938 4.652344 C 375.101562 3.433594 374.660156 2.238281 373.820312 1.378906 C 372.964844 0.519531 371.765625 0.101562 370.566406 0.238281 L 370.984375 4.214844 L 367.011719 3.773438 C 364.554688 26.316406 359.125 44.769531 354.332031 57.566406 C 351.9375 63.957031 349.699219 68.929688 348.0625 72.304688 C 347.265625 73.980469 346.605469 75.238281 346.144531 76.097656 C 345.925781 76.515625 345.746094 76.835938 345.625 77.035156 L 345.507812 77.257812 L 345.46875 77.296875 L 345.46875 77.316406 L 348.921875 79.332031 L 346.105469 76.496094 L 137.859375 284.746094 L 114.15625 261.042969 L 90.457031 237.339844 L 298.703125 29.09375 L 295.886719 26.277344 L 297.882812 29.730469 L 297.902344 29.730469 C 298.460938 29.371094 327.058594 13.039062 371.425781 8.1875 L 370.988281 4.214844 L 367.011719 3.773438 L 370.988281 4.214844 " fill-opacity="1" fill-rule="nonzero"/><path fill="#ffffff" d="M 348.683594 79.574219 L 348.921875 79.332031 C 348.921875 79.332031 365.953125 50.078125 370.984375 4.214844 C 325.121094 9.246094 295.886719 26.277344 295.886719 26.277344 L 295.648438 26.515625 L 348.683594 79.574219 " fill-opacity="1" fill-rule="nonzero"/><path fill="#000000" d="M 348.683594 79.574219 L 351.515625 82.367188 L 351.757812 82.128906 C 351.996094 81.890625 352.195312 81.609375 352.375 81.328125 C 352.554688 81.011719 369.828125 51.296875 374.960938 4.652344 C 375.101562 3.433594 374.660156 2.238281 373.820312 1.378906 C 372.964844 0.519531 371.765625 0.101562 370.566406 0.238281 C 323.882812 5.371094 294.1875 22.644531 293.871094 22.824219 C 293.570312 22.984375 293.289062 23.203125 293.070312 23.441406 L 292.832031 23.683594 C 292.074219 24.441406 291.652344 25.4375 291.652344 26.515625 C 291.632812 27.574219 292.050781 28.59375 292.8125 29.332031 L 345.867188 82.386719 C 346.605469 83.148438 347.625 83.566406 348.703125 83.566406 C 349.761719 83.546875 350.777344 83.125 351.515625 82.367188 L 348.683594 79.574219 L 351.515625 76.738281 L 298.460938 23.703125 L 295.648438 26.515625 L 298.441406 29.351562 L 298.683594 29.113281 L 295.886719 26.277344 L 297.882812 29.730469 L 297.902344 29.730469 C 298.460938 29.371094 327.058594 13.039062 371.425781 8.1875 L 370.988281 4.214844 L 367.011719 3.773438 C 364.558594 26.316406 359.125 44.769531 354.332031 57.566406 C 351.9375 63.957031 349.699219 68.929688 348.0625 72.304688 C 347.265625 73.980469 346.605469 75.238281 346.144531 76.097656 C 345.925781 76.515625 345.746094 76.835938 345.625 77.035156 L 345.507812 77.257812 L 345.46875 77.296875 L 345.46875 77.316406 L 348.921875 79.332031 L 346.085938 76.515625 L 345.847656 76.757812 L 348.683594 79.574219 L 351.519531 76.738281 L 348.683594 79.574219 " fill-opacity="1" fill-rule="nonzero"/><path fill="#ffffff" d="M 84.804688 237.339844 L 24.300781 228.035156 L 9.386719 242.972656 L 4.414062 237.980469 L 57.726562 184.664062 L 149.5 172.664062 L 84.804688 237.339844 " fill-opacity="1" fill-rule="nonzero"/><path fill="#000000" d="M 84.804688 237.339844 L 85.421875 233.40625 L 24.921875 224.082031 C 23.664062 223.882812 22.382812 224.320312 21.484375 225.199219 L 9.386719 237.320312 L 7.226562 235.164062 L 4.414062 237.980469 L 7.226562 240.816406 L 59.585938 188.4375 L 138.359375 178.136719 L 81.988281 234.523438 L 84.804688 237.339844 L 85.421875 233.40625 L 84.804688 237.339844 L 87.640625 240.175781 L 152.316406 175.480469 C 153.535156 174.261719 153.832031 172.425781 153.074219 170.886719 C 152.316406 169.347656 150.679688 168.46875 148.980469 168.691406 L 57.207031 180.710938 C 56.351562 180.8125 55.511719 181.230469 54.890625 181.847656 L 1.578125 235.164062 C 0.0195312 236.722656 0.0195312 239.257812 1.578125 240.816406 L 6.570312 245.785156 C 7.308594 246.527344 8.328125 246.964844 9.386719 246.964844 C 10.421875 246.964844 11.460938 246.527344 12.199219 245.785156 L 25.699219 232.289062 L 84.207031 241.292969 C 85.441406 241.492188 86.742188 241.074219 87.640625 240.175781 L 84.804688 237.339844 " fill-opacity="1" fill-rule="nonzero"/><path fill="#ffffff" d="M 137.859375 290.394531 L 147.164062 350.898438 L 132.25 365.816406 L 137.21875 370.785156 L 190.535156 317.472656 L 202.554688 225.699219 L 137.859375 290.394531 " fill-opacity="1" fill-rule="nonzero"/><path fill="#000000" d="M 137.859375 290.394531 L 133.90625 290.996094 L 142.910156 349.5 L 129.414062 363 C 127.855469 364.554688 127.855469 367.09375 129.414062 368.648438 L 134.40625 373.621094 C 135.144531 374.359375 136.164062 374.78125 137.21875 374.78125 C 138.277344 374.78125 139.296875 374.359375 140.035156 373.621094 L 193.351562 320.308594 C 193.988281 319.667969 194.367188 318.871094 194.488281 317.992188 L 206.507812 226.21875 C 206.730469 224.519531 205.851562 222.882812 204.3125 222.125 C 202.777344 221.367188 200.9375 221.664062 199.71875 222.882812 L 135.023438 287.558594 C 134.125 288.457031 133.707031 289.734375 133.90625 290.996094 L 137.859375 290.394531 L 140.675781 293.210938 L 197.066406 236.839844 L 186.742188 315.613281 L 137.21875 365.15625 L 135.0625 363 L 132.25 365.816406 L 135.0625 368.648438 L 150 353.714844 C 150.898438 352.816406 151.316406 351.539062 151.117188 350.28125 L 141.792969 289.777344 L 137.859375 290.394531 L 140.675781 293.210938 L 137.859375 290.394531 " fill-opacity="1" fill-rule="nonzero"/><path fill="#ffffff" d="M 179.832031 202.996094 L 172.203125 195.367188 L 67.011719 300.578125 L 74.621094 308.1875 L 179.832031 202.996094 " fill-opacity="1" fill-rule="nonzero"/><path fill="#000000" d="M 179.832031 202.996094 L 182.648438 200.160156 L 175.039062 192.550781 C 174.300781 191.8125 173.261719 191.375 172.203125 191.375 C 171.167969 191.375 170.128906 191.8125 169.390625 192.550781 L 64.175781 297.761719 C 62.621094 299.320312 62.621094 301.835938 64.175781 303.394531 L 71.785156 311.023438 C 72.542969 311.761719 73.5625 312.179688 74.621094 312.179688 C 75.679688 312.179688 76.695312 311.761719 77.4375 311.023438 L 182.648438 205.8125 C 183.40625 205.050781 183.824219 204.054688 183.824219 202.996094 C 183.824219 201.917969 183.40625 200.917969 182.648438 200.160156 L 179.832031 202.996094 L 176.996094 200.160156 L 74.621094 302.535156 L 72.644531 300.578125 L 172.203125 201.019531 L 176.996094 205.8125 L 179.832031 202.996094 L 176.996094 200.160156 L 179.832031 202.996094 " fill-opacity="1" fill-rule="nonzero"/><path fill="#000000" d="M 266.09375 137.660156 L 168.648438 235.105469 C 167.09375 236.660156 167.09375 239.195312 168.648438 240.753906 C 170.207031 242.3125 172.742188 242.3125 174.300781 240.753906 L 271.746094 143.3125 C 273.300781 141.753906 273.300781 139.21875 271.746094 137.660156 C 270.1875 136.101562 267.652344 136.101562 266.09375 137.660156 " fill-opacity="1" fill-rule="nonzero"/><path fill="#000000" d="M 294.90625 108.867188 L 284.765625 118.988281 C 283.207031 120.546875 283.207031 123.082031 284.765625 124.640625 C 286.320312 126.199219 288.859375 126.199219 290.414062 124.640625 L 300.539062 114.515625 C 302.097656 112.960938 302.097656 110.421875 300.539062 108.867188 C 298.980469 107.308594 296.464844 107.308594 294.90625 108.867188 " fill-opacity="1" fill-rule="nonzero"/></svg>