<svg xmlns="http://www.w3.org/2000/svg" xmlns:xlink="http://www.w3.org/1999/xlink" width="200" zoomAndPan="magnify" viewBox="0 0 150 56.249996" height="75" preserveAspectRatio="xMidYMid meet" version="1.0"><defs><g/><clipPath id="b3e6237be5"><path d="M 11 21 L 34.457031 21 L 34.457031 44 L 11 44 Z M 11 21 " clip-rule="nonzero"/></clipPath><clipPath id="99b5c9b3f7"><path d="M 2.628906 24 L 22 24 L 22 44 L 2.628906 44 Z M 2.628906 24 " clip-rule="nonzero"/></clipPath><clipPath id="32ef7bd26c"><path d="M 7 31 L 32 31 L 32 47.542969 L 7 47.542969 Z M 7 31 " clip-rule="nonzero"/></clipPath><clipPath id="5893c54895"><path d="M 10 8.316406 L 33 8.316406 L 33 31 L 10 31 Z M 10 8.316406 " clip-rule="nonzero"/></clipPath></defs><g fill="#000000" fill-opacity="1"><g transform="translate(36.452382, 34.212816)"><g><path d="M 24.4375 -7.25 C 23.957031 -7.375 22.921875 -7.4375 21.328125 -7.4375 C 20.023438 -4.738281 19.113281 -2.328125 18.59375 -0.203125 C 18.289062 0.941406 17.171875 1.515625 15.234375 1.515625 C 13.628906 1.515625 12.609375 1.140625 12.171875 0.390625 C 12.015625 0.140625 11.953125 -0.101562 11.984375 -0.34375 C 12.023438 -0.582031 12.140625 -0.894531 12.328125 -1.28125 C 12.523438 -1.675781 12.789062 -2.160156 13.125 -2.734375 L 14.265625 -4.6875 L 15.671875 -7 L 10.421875 -6.5625 C 9.203125 -4.457031 7.847656 -2.472656 6.359375 -0.609375 C 5.640625 0.265625 4.578125 0.703125 3.171875 0.703125 C 2.109375 0.703125 1.175781 0.476562 0.375 0.03125 C -0.113281 -0.238281 -0.347656 -0.484375 -0.328125 -0.703125 C -0.328125 -1.003906 -0.15625 -1.3125 0.1875 -1.625 C 1.582031 -2.84375 2.972656 -4.332031 4.359375 -6.09375 L 2.359375 -5.9375 C 1.359375 -5.90625 0.726562 -6.117188 0.46875 -6.578125 C 0.269531 -6.953125 0.171875 -7.378906 0.171875 -7.859375 C 0.171875 -8.191406 0.25 -8.46875 0.40625 -8.6875 C 0.5625 -8.90625 0.734375 -9.039062 0.921875 -9.09375 C 1.117188 -9.144531 1.34375 -9.175781 1.59375 -9.1875 L 7.03125 -9.84375 C 9.1875 -13.3125 10.398438 -15.253906 10.671875 -15.671875 C 10.953125 -16.097656 11.226562 -16.457031 11.5 -16.75 C 12.164062 -17.425781 12.847656 -17.765625 13.546875 -17.765625 C 14.035156 -17.765625 14.492188 -17.566406 14.921875 -17.171875 C 15.109375 -17.003906 15.203125 -16.804688 15.203125 -16.578125 C 15.203125 -16.128906 14.960938 -15.40625 14.484375 -14.40625 L 12.578125 -10.53125 L 18.421875 -11.265625 C 20.054688 -13.628906 21.1875 -15.207031 21.8125 -16 C 23.070312 -17.613281 23.945312 -18.539062 24.4375 -18.78125 C 25.382812 -19.25 26.070312 -19.484375 26.5 -19.484375 C 26.925781 -19.484375 27.191406 -19.363281 27.296875 -19.125 C 27.398438 -18.894531 27.429688 -18.65625 27.390625 -18.40625 C 27.347656 -18.15625 27.21875 -17.832031 27 -17.4375 C 26.789062 -17.050781 26.519531 -16.578125 26.1875 -16.015625 C 26.1875 -16.015625 25.316406 -14.566406 23.578125 -11.671875 C 24.148438 -11.617188 24.546875 -11.472656 24.765625 -11.234375 C 25.148438 -10.816406 25.34375 -10.15625 25.34375 -9.25 C 25.34375 -8.59375 25.257812 -7.984375 25.09375 -7.421875 C 25.019531 -7.304688 24.800781 -7.25 24.4375 -7.25 Z M 24.4375 -7.25 "/></g></g></g><g fill="#000000" fill-opacity="1"><g transform="translate(63.052374, 34.212816)"><g><path d="M 22.6875 -9.8125 C 22.96875 -9.8125 23.109375 -9.578125 23.109375 -9.109375 C 23.109375 -8.296875 22.539062 -7.242188 21.40625 -5.953125 L 20.65625 -5.203125 C 18.40625 -2.941406 16.285156 -1.4375 14.296875 -0.6875 C 13.054688 -0.226562 12.164062 -0.25 11.625 -0.75 C 11.175781 -1.175781 10.820312 -1.867188 10.5625 -2.828125 L 10.25 -3.953125 L 7.46875 -2.25 L 5.859375 -1.328125 C 3.941406 -0.285156 2.503906 0.234375 1.546875 0.234375 C 0.328125 0.234375 -0.691406 -0.238281 -1.515625 -1.1875 C -2.296875 -2.082031 -2.6875 -3.125 -2.6875 -4.3125 C -2.6875 -5.476562 -2.222656 -6.519531 -1.296875 -7.4375 C 0.0351562 -8.738281 2.140625 -9.9375 5.015625 -11.03125 C 7.734375 -12.039062 9.925781 -12.546875 11.59375 -12.546875 C 12.164062 -12.546875 12.453125 -12.269531 12.453125 -11.71875 C 12.453125 -11.332031 12.375 -11.039062 12.21875 -10.84375 C 12.070312 -10.65625 11.769531 -10.460938 11.3125 -10.265625 L 9.671875 -9.5625 C 7.234375 -8.539062 5.445312 -7.484375 4.3125 -6.390625 C 3.988281 -6.085938 3.828125 -5.789062 3.828125 -5.5 C 3.828125 -5.207031 4.054688 -5.0625 4.515625 -5.0625 C 4.972656 -5.0625 6.03125 -5.550781 7.6875 -6.53125 L 8.765625 -7.171875 C 10.441406 -8.179688 11.847656 -8.6875 12.984375 -8.6875 C 13.941406 -8.6875 14.578125 -8.265625 14.890625 -7.421875 C 14.960938 -7.191406 15.035156 -6.960938 15.109375 -6.734375 C 15.179688 -6.503906 15.253906 -6.296875 15.328125 -6.109375 C 15.484375 -5.679688 15.625 -5.46875 15.75 -5.46875 C 15.875 -5.46875 16.050781 -5.53125 16.28125 -5.65625 C 16.519531 -5.789062 16.78125 -5.953125 17.0625 -6.140625 C 17.34375 -6.335938 17.640625 -6.554688 17.953125 -6.796875 L 19.53125 -8.0625 C 20.925781 -9.226562 21.976562 -9.8125 22.6875 -9.8125 Z M 22.6875 -9.8125 "/></g></g></g><g fill="#000000" fill-opacity="1"><g transform="translate(83.021945, 34.212816)"><g><path d="M 12.359375 -7.9375 C 12.359375 -8.195312 12.175781 -8.328125 11.8125 -8.328125 C 11.445312 -8.328125 11.046875 -8.257812 10.609375 -8.125 C 10.171875 -7.988281 9.691406 -7.804688 9.171875 -7.578125 C 8.648438 -7.347656 8.101562 -7.085938 7.53125 -6.796875 C 6.96875 -6.515625 6.425781 -6.226562 5.90625 -5.9375 C 4.78125 -5.289062 4.015625 -4.800781 3.609375 -4.46875 C 3.203125 -4.132812 2.867188 -3.84375 2.609375 -3.59375 C 2.359375 -3.34375 2.109375 -3.113281 1.859375 -2.90625 C 1.265625 -2.414062 0.8125 -2.171875 0.5 -2.171875 C 0.195312 -2.171875 -0.0703125 -2.21875 -0.3125 -2.3125 C -0.550781 -2.414062 -0.773438 -2.5625 -0.984375 -2.75 C -1.453125 -3.1875 -1.6875 -3.710938 -1.6875 -4.328125 C -1.6875 -5.398438 -0.734375 -7.519531 1.171875 -10.6875 C 1.992188 -12.039062 2.785156 -13.234375 3.546875 -14.265625 C 4.316406 -15.296875 5.050781 -16.175781 5.75 -16.90625 C 6.457031 -17.632812 7.132812 -18.25 7.78125 -18.75 C 9.101562 -19.789062 10.160156 -20.3125 10.953125 -20.3125 C 11.171875 -20.3125 11.351562 -20.226562 11.5 -20.0625 C 11.65625 -19.894531 11.734375 -19.71875 11.734375 -19.53125 C 11.734375 -19.09375 11.59375 -18.640625 11.3125 -18.171875 C 11.039062 -17.703125 10.679688 -17.117188 10.234375 -16.421875 L 7.4375 -12.203125 C 6.570312 -10.859375 6.117188 -10.101562 6.078125 -9.9375 C 6.035156 -9.78125 6.015625 -9.664062 6.015625 -9.59375 C 6.015625 -9.53125 6.0625 -9.5 6.15625 -9.5 C 6.257812 -9.5 6.53125 -9.597656 6.96875 -9.796875 C 6.96875 -9.796875 7.523438 -10.046875 8.640625 -10.546875 C 11.160156 -11.648438 13.195312 -12.203125 14.75 -12.203125 C 15.625 -12.203125 16.359375 -11.796875 16.953125 -10.984375 C 17.503906 -10.222656 17.78125 -9.398438 17.78125 -8.515625 C 17.78125 -7.640625 17.644531 -6.882812 17.375 -6.25 C 17.101562 -5.613281 16.703125 -5.113281 16.171875 -4.75 C 15.648438 -4.382812 15.128906 -4.046875 14.609375 -3.734375 L 12.9375 -2.75 C 9.769531 -0.976562 7.472656 -0.09375 6.046875 -0.09375 C 4.066406 -0.09375 3.078125 -0.601562 3.078125 -1.625 C 3.078125 -2.1875 3.347656 -2.601562 3.890625 -2.875 C 8.859375 -5.5625 11.453125 -6.976562 11.671875 -7.125 C 12.128906 -7.40625 12.359375 -7.675781 12.359375 -7.9375 Z M 12.359375 -7.9375 "/></g></g></g><g fill="#000000" fill-opacity="1"><g transform="translate(100.772676, 34.212816)"><g><path d="M 11.34375 -15.09375 C 11.09375 -14.882812 10.816406 -14.710938 10.515625 -14.578125 C 10.222656 -14.441406 9.894531 -14.375 9.53125 -14.375 C 9.164062 -14.375 8.8125 -14.4375 8.46875 -14.5625 C 8.132812 -14.6875 7.84375 -14.859375 7.59375 -15.078125 C 7.039062 -15.546875 6.765625 -16.144531 6.765625 -16.875 C 6.765625 -18 7.707031 -18.835938 9.59375 -19.390625 C 10.226562 -19.578125 10.75 -19.671875 11.15625 -19.671875 C 11.5625 -19.671875 11.863281 -19.625 12.0625 -19.53125 C 12.269531 -19.4375 12.441406 -19.316406 12.578125 -19.171875 C 12.835938 -18.878906 12.96875 -18.578125 12.96875 -18.265625 C 12.96875 -17.953125 12.929688 -17.671875 12.859375 -17.421875 C 12.785156 -17.171875 12.675781 -16.910156 12.53125 -16.640625 C 12.394531 -16.367188 12.226562 -16.097656 12.03125 -15.828125 C 11.832031 -15.554688 11.601562 -15.3125 11.34375 -15.09375 Z M 8.046875 -0.71875 C 7.390625 -0.375 6.75 -0.101562 6.125 0.09375 C 5.5 0.300781 4.882812 0.40625 4.28125 0.40625 C 3.675781 0.40625 3.046875 0.257812 2.390625 -0.03125 C 1.742188 -0.320312 1.171875 -0.710938 0.671875 -1.203125 C -0.453125 -2.285156 -1.015625 -3.492188 -1.015625 -4.828125 C -1.015625 -6.054688 -0.648438 -7.300781 0.078125 -8.5625 C 0.742188 -9.707031 1.597656 -10.664062 2.640625 -11.4375 C 3.671875 -12.21875 4.632812 -12.609375 5.53125 -12.609375 C 6.800781 -12.609375 7.476562 -12.25 7.5625 -11.53125 C 7.59375 -11.3125 7.609375 -11.054688 7.609375 -10.765625 C 7.609375 -10.484375 7.539062 -10.15625 7.40625 -9.78125 C 7.269531 -9.414062 7.09375 -9.046875 6.875 -8.671875 C 6.664062 -8.304688 6.429688 -7.945312 6.171875 -7.59375 C 5.910156 -7.238281 5.664062 -6.921875 5.4375 -6.640625 C 4.976562 -6.085938 4.613281 -5.691406 4.34375 -5.453125 C 4.34375 -5.148438 4.566406 -4.84375 5.015625 -4.53125 C 5.429688 -4.238281 5.785156 -4.09375 6.078125 -4.09375 C 6.367188 -4.09375 6.710938 -4.160156 7.109375 -4.296875 C 7.503906 -4.429688 7.910156 -4.617188 8.328125 -4.859375 C 8.753906 -5.097656 9.1875 -5.367188 9.625 -5.671875 C 10.070312 -5.972656 10.507812 -6.285156 10.9375 -6.609375 L 13.328125 -8.484375 C 14.273438 -9.171875 15.046875 -9.515625 15.640625 -9.515625 C 15.867188 -9.515625 16.046875 -9.425781 16.171875 -9.25 C 16.296875 -9.082031 16.359375 -8.882812 16.359375 -8.65625 C 16.359375 -8.425781 16.242188 -8.113281 16.015625 -7.71875 C 15.796875 -7.320312 15.488281 -6.882812 15.09375 -6.40625 C 14.695312 -5.925781 14.234375 -5.425781 13.703125 -4.90625 C 13.171875 -4.382812 12.59375 -3.867188 11.96875 -3.359375 C 11.351562 -2.859375 10.710938 -2.378906 10.046875 -1.921875 C 9.378906 -1.460938 8.710938 -1.0625 8.046875 -0.71875 Z M 8.046875 -0.71875 "/></g></g></g><g fill="#000000" fill-opacity="1"><g transform="translate(114.098784, 34.212816)"><g><path d="M 14.4375 -8.953125 C 15.289062 -8.953125 15.71875 -8.65625 15.71875 -8.0625 C 15.71875 -7.488281 15.316406 -6.753906 14.515625 -5.859375 L 13.875 -5.203125 C 13.09375 -4.410156 12.1875 -3.628906 11.15625 -2.859375 C 10.125 -2.097656 9.21875 -1.492188 8.4375 -1.046875 C 6.613281 -0.0351562 4.960938 0.46875 3.484375 0.46875 C 2.085938 0.46875 0.953125 0.0507812 0.078125 -0.78125 C -0.679688 -1.507812 -1.0625 -2.269531 -1.0625 -3.0625 C -1.0625 -3.863281 -0.984375 -4.660156 -0.828125 -5.453125 C -0.671875 -6.242188 -0.460938 -7.019531 -0.203125 -7.78125 C 0.296875 -9.320312 0.847656 -10.632812 1.453125 -11.71875 C 1.609375 -12.007812 1.6875 -12.203125 1.6875 -12.296875 L 0 -12.296875 C -0.632812 -12.296875 -1.125 -12.441406 -1.46875 -12.734375 C -1.820312 -13.023438 -2 -13.359375 -2 -13.734375 C -2 -14.109375 -1.925781 -14.382812 -1.78125 -14.5625 C -1.644531 -14.738281 -1.472656 -14.863281 -1.265625 -14.9375 C -0.972656 -15.0625 -0.535156 -15.125 0.046875 -15.125 L 3.234375 -15.109375 C 3.304688 -15.140625 3.445312 -15.328125 3.65625 -15.671875 L 4.453125 -17.046875 C 4.796875 -17.648438 5.140625 -18.097656 5.484375 -18.390625 C 5.828125 -18.679688 6.226562 -18.828125 6.6875 -18.828125 C 7.15625 -18.828125 7.546875 -18.78125 7.859375 -18.6875 C 8.179688 -18.601562 8.453125 -18.492188 8.671875 -18.359375 C 9.097656 -18.085938 9.3125 -17.785156 9.3125 -17.453125 C 9.3125 -17.304688 9.265625 -17.117188 9.171875 -16.890625 L 8.4375 -15.109375 L 14.640625 -15.125 C 15.179688 -15.125 15.453125 -14.847656 15.453125 -14.296875 C 15.453125 -12.960938 14.269531 -12.296875 11.90625 -12.296875 L 7.125 -12.296875 C 7.019531 -12.242188 6.84375 -11.988281 6.59375 -11.53125 L 6.015625 -10.453125 C 5.859375 -10.179688 5.75 -9.972656 5.6875 -9.828125 L 5.40625 -9.203125 C 4.820312 -7.878906 4.53125 -6.925781 4.53125 -6.34375 C 4.53125 -5.757812 4.679688 -5.269531 4.984375 -4.875 C 5.296875 -4.488281 5.707031 -4.296875 6.21875 -4.296875 C 6.738281 -4.296875 7.242188 -4.394531 7.734375 -4.59375 C 8.234375 -4.789062 8.71875 -5.035156 9.1875 -5.328125 C 10.039062 -5.859375 10.707031 -6.347656 11.1875 -6.796875 C 11.675781 -7.253906 12.082031 -7.601562 12.40625 -7.84375 C 12.40625 -7.84375 12.710938 -8.054688 13.328125 -8.484375 C 13.796875 -8.796875 14.164062 -8.953125 14.4375 -8.953125 Z M 14.4375 -8.953125 "/></g></g></g><g fill="#000000" fill-opacity="1"><g transform="translate(127.411832, 34.212816)"><g><path d="M 13.84375 -8.046875 C 13.84375 -7.578125 14.242188 -7.34375 15.046875 -7.34375 C 15.640625 -7.34375 16.414062 -7.628906 17.375 -8.203125 L 18.421875 -8.78125 C 18.742188 -8.957031 19.023438 -9.046875 19.265625 -9.046875 C 19.503906 -9.046875 19.691406 -8.972656 19.828125 -8.828125 C 19.960938 -8.679688 20.03125 -8.476562 20.03125 -8.21875 C 20.03125 -7.957031 19.941406 -7.65625 19.765625 -7.3125 C 19.597656 -6.96875 19.359375 -6.601562 19.046875 -6.21875 C 18.742188 -5.84375 18.390625 -5.46875 17.984375 -5.09375 C 17.578125 -4.726562 17.140625 -4.394531 16.671875 -4.09375 C 15.617188 -3.445312 14.644531 -3.125 13.75 -3.125 C 12.800781 -3.125 12.046875 -3.285156 11.484375 -3.609375 C 11.304688 -3.710938 11.132812 -3.820312 10.96875 -3.9375 C 10.039062 -2.875 8.691406 -1.894531 6.921875 -1 C 5.035156 -0.0625 3.394531 0.40625 2 0.40625 C 0.53125 0.40625 -0.628906 -0.171875 -1.484375 -1.328125 C -2.171875 -2.273438 -2.515625 -3.226562 -2.515625 -4.1875 C -2.515625 -5.582031 -1.769531 -6.910156 -0.28125 -8.171875 C 0.8125 -9.097656 1.867188 -9.800781 2.890625 -10.28125 C 3.910156 -10.757812 4.835938 -11.128906 5.671875 -11.390625 C 7.421875 -11.941406 8.992188 -12.21875 10.390625 -12.21875 C 11.023438 -12.21875 11.585938 -12.097656 12.078125 -11.859375 C 12.566406 -11.617188 12.929688 -11.375 13.171875 -11.125 C 13.722656 -10.582031 14 -9.882812 14 -9.03125 C 14 -8.769531 13.972656 -8.570312 13.921875 -8.4375 C 13.867188 -8.300781 13.84375 -8.171875 13.84375 -8.046875 Z M 3.15625 -5.578125 L 3.140625 -5.53125 C 3.140625 -5.15625 3.222656 -4.910156 3.390625 -4.796875 C 3.796875 -4.546875 4.21875 -4.476562 4.65625 -4.59375 C 5.101562 -4.71875 5.53125 -4.867188 5.9375 -5.046875 C 6.925781 -5.472656 7.820312 -6.007812 8.625 -6.65625 C 8.476562 -6.9375 8.40625 -7.226562 8.40625 -7.53125 C 8.40625 -8.15625 8.679688 -8.78125 9.234375 -9.40625 C 8.535156 -9.40625 7.59375 -9.078125 6.40625 -8.421875 C 5.101562 -7.703125 4.125 -6.957031 3.46875 -6.1875 C 3.257812 -5.925781 3.15625 -5.722656 3.15625 -5.578125 Z M 3.15625 -5.578125 "/></g></g></g><g clip-path="url(#b3e6237be5)"><path fill="#8fd6c1" d="M 34.054688 29.28125 C 33.65625 28.882812 33.011719 28.882812 32.613281 29.28125 L 28.65625 33.25 L 30.183594 31.714844 C 29.785156 32.113281 29.140625 32.113281 28.746094 31.714844 C 28.347656 31.316406 28.347656 30.671875 28.746094 30.273438 L 27.214844 31.804688 L 29.554688 29.460938 C 29.953125 29.0625 29.953125 28.417969 29.554688 28.019531 C 29.15625 27.621094 28.511719 27.621094 28.113281 28.019531 L 26 30.136719 C 25.601562 30.535156 24.960938 30.535156 24.5625 30.136719 C 24.164062 29.738281 24.164062 29.09375 24.5625 28.695312 L 24.785156 28.46875 L 30.183594 23.054688 C 30.582031 22.65625 30.582031 22.011719 30.183594 21.613281 C 29.785156 21.214844 29.140625 21.214844 28.746094 21.613281 L 12.28125 38.121094 C 11.882812 38.519531 11.882812 39.164062 12.28125 39.5625 C 12.679688 39.960938 13.324219 39.960938 13.722656 39.5625 L 17.859375 35.414062 C 18.257812 35.015625 18.902344 35.015625 19.296875 35.414062 C 19.695312 35.8125 19.695312 36.460938 19.296875 36.859375 L 16.960938 39.203125 C 16.5625 39.601562 16.5625 40.25 16.960938 40.648438 C 17.355469 41.046875 18 41.046875 18.398438 40.648438 L 19.882812 39.15625 C 20.28125 38.761719 20.925781 38.761719 21.324219 39.15625 C 21.71875 39.558594 21.71875 40.203125 21.324219 40.601562 L 28.429688 33.476562 L 19.839844 42.089844 C 19.441406 42.488281 19.441406 43.136719 19.839844 43.535156 C 20.234375 43.933594 20.878906 43.933594 21.277344 43.535156 L 34.054688 30.722656 C 34.449219 30.324219 34.449219 29.679688 34.054688 29.28125 " fill-opacity="1" fill-rule="nonzero"/></g><g clip-path="url(#99b5c9b3f7)"><path fill="#ff7f50" d="M 10.050781 39.023438 C 10.445312 39.421875 10.445312 40.066406 10.050781 40.464844 L 16.75 33.746094 C 16.355469 34.144531 15.710938 34.144531 15.3125 33.746094 C 14.914062 33.347656 14.914062 32.699219 15.3125 32.300781 L 9.597656 38.027344 L 15.535156 32.074219 L 20.933594 26.664062 C 21.332031 26.265625 21.332031 25.617188 20.933594 25.21875 C 20.539062 24.820312 19.894531 24.820312 19.496094 25.21875 L 14.097656 30.632812 L 13.289062 31.445312 L 3.03125 41.726562 C 2.632812 42.125 2.632812 42.773438 3.03125 43.171875 C 3.429688 43.570312 4.074219 43.570312 4.472656 43.171875 L 8.609375 39.023438 C 9.007812 38.621094 9.652344 38.621094 10.050781 39.023438 " fill-opacity="1" fill-rule="nonzero"/></g><g clip-path="url(#32ef7bd26c)"><path fill="#ff7f50" d="M 30.832031 32.617188 C 30.433594 32.21875 29.789062 32.21875 29.390625 32.617188 L 24.824219 37.195312 C 24.429688 37.59375 23.785156 37.59375 23.386719 37.195312 C 22.988281 36.796875 22.988281 36.148438 23.386719 35.75 L 24.804688 34.332031 C 25.199219 33.933594 25.199219 33.285156 24.804688 32.886719 C 24.40625 32.488281 23.761719 32.488281 23.363281 32.886719 L 19.40625 36.855469 L 20.933594 35.324219 C 20.539062 35.722656 19.894531 35.722656 19.496094 35.324219 C 19.097656 34.925781 19.097656 34.277344 19.496094 33.878906 L 17.964844 35.414062 L 20.304688 33.066406 C 20.703125 32.667969 20.703125 32.023438 20.304688 31.625 C 19.90625 31.226562 19.261719 31.226562 18.867188 31.625 L 7.710938 42.808594 C 7.3125 43.207031 7.3125 43.855469 7.710938 44.253906 C 8.105469 44.652344 8.753906 44.652344 9.148438 44.253906 L 17.742188 35.640625 L 10.632812 42.765625 C 11.03125 42.367188 11.675781 42.367188 12.074219 42.765625 C 12.472656 43.164062 12.472656 43.808594 12.074219 44.207031 L 19.179688 37.082031 L 10.589844 45.695312 C 10.191406 46.09375 10.191406 46.742188 10.589844 47.140625 C 10.988281 47.539062 11.632812 47.539062 12.027344 47.140625 L 16.683594 42.472656 C 17.082031 42.074219 17.726562 42.074219 18.125 42.472656 C 18.519531 42.871094 18.519531 43.515625 18.125 43.914062 L 18.234375 43.800781 C 17.839844 44.199219 17.839844 44.847656 18.234375 45.246094 C 18.632812 45.644531 19.277344 45.644531 19.675781 45.246094 L 30.832031 34.058594 C 31.226562 33.660156 31.226562 33.015625 30.832031 32.617188 " fill-opacity="1" fill-rule="nonzero"/></g><g clip-path="url(#5893c54895)"><path fill="#03257b" d="M 32.519531 16.378906 C 32.121094 15.980469 31.476562 15.980469 31.082031 16.378906 L 27.121094 20.347656 L 28.652344 18.8125 C 28.253906 19.210938 27.609375 19.210938 27.210938 18.8125 C 26.8125 18.414062 26.8125 17.769531 27.210938 17.371094 L 25.683594 18.90625 L 28.019531 16.558594 C 28.417969 16.160156 28.417969 15.515625 28.019531 15.117188 C 27.625 14.71875 26.980469 14.71875 26.582031 15.117188 L 24.46875 17.234375 C 24.070312 17.632812 23.425781 17.632812 23.027344 17.234375 C 22.632812 16.835938 22.632812 16.191406 23.027344 15.792969 L 28.652344 10.15625 C 29.046875 9.753906 29.046875 9.109375 28.652344 8.710938 C 28.253906 8.3125 27.609375 8.3125 27.210938 8.710938 L 21.8125 14.125 L 21.003906 14.933594 L 10.75 25.21875 C 10.351562 25.617188 10.351562 26.261719 10.75 26.664062 C 11.144531 27.0625 11.789062 27.0625 12.1875 26.664062 L 16.324219 22.511719 C 16.722656 22.113281 17.367188 22.113281 17.765625 22.511719 C 18.164062 22.910156 18.164062 23.558594 17.765625 23.957031 L 15.425781 26.300781 C 15.027344 26.699219 15.027344 27.347656 15.425781 27.746094 C 15.824219 28.144531 16.46875 28.144531 16.867188 27.746094 L 18.351562 26.257812 C 18.746094 25.859375 19.390625 25.859375 19.789062 26.257812 C 20.1875 26.65625 20.1875 27.300781 19.789062 27.699219 L 26.898438 20.574219 L 18.304688 29.1875 C 17.90625 29.585938 17.90625 30.234375 18.304688 30.632812 C 18.703125 31.03125 19.347656 31.03125 19.746094 30.632812 L 32.519531 17.820312 C 32.917969 17.421875 32.917969 16.777344 32.519531 16.378906 " fill-opacity="1" fill-rule="nonzero"/></g></svg>