<svg xmlns="http://www.w3.org/2000/svg" xmlns:xlink="http://www.w3.org/1999/xlink" width="500" zoomAndPan="magnify" viewBox="0 0 375 374.999991" height="500" preserveAspectRatio="xMidYMid meet" version="1.0"><defs><clipPath id="2dac8d148b"><path d="M 245.664062 70 L 276 70 L 276 104 L 245.664062 104 Z M 245.664062 70 " clip-rule="nonzero"/></clipPath><clipPath id="6f79cf553a"><path d="M 282 48.175781 L 310.914062 48.175781 L 310.914062 82 L 282 82 Z M 282 48.175781 " clip-rule="nonzero"/></clipPath><clipPath id="d4b1c7ef2f"><path d="M 44.164062 230 L 117 230 L 117 347.480469 L 44.164062 347.480469 Z M 44.164062 230 " clip-rule="nonzero"/></clipPath><clipPath id="d3560b681a"><path d="M 135 27.230469 L 197 27.230469 L 197 89 L 135 89 Z M 135 27.230469 " clip-rule="nonzero"/></clipPath></defs><g clip-path="url(#2dac8d148b)"><path fill="#eee7cc" d="M 271.378906 82.011719 C 270.085938 81.679688 268.003906 82.167969 267.09375 80.980469 C 266.253906 79.898438 266.203125 78.132812 265.941406 76.832031 C 265.265625 73.464844 262.390625 69.492188 258.492188 70.785156 C 257.421875 71.140625 256.902344 72.007812 256.941406 72.972656 C 256.894531 73.132812 256.855469 73.300781 256.84375 73.488281 C 256.703125 75.292969 256.753906 77.191406 256.4375 78.976562 C 256.164062 80.515625 255.261719 81.054688 253.816406 81.429688 C 250.851562 82.199219 247.199219 82.675781 246.15625 86.121094 C 245.726562 87.535156 245.867188 89.136719 246.710938 90.371094 C 247.894531 92.09375 249.660156 92.0625 251.53125 92.03125 C 254.6875 91.972656 255.117188 96.871094 255.941406 99.0625 C 256.527344 100.621094 257.351562 102.296875 259.035156 102.882812 C 261.195312 103.636719 262.761719 102.214844 263.984375 100.605469 C 264.96875 99.300781 265.835938 97.914062 266.550781 96.445312 C 266.953125 95.609375 267.320312 94.746094 267.648438 93.878906 C 267.90625 93.1875 268.03125 92.25 268.496094 91.660156 C 268.972656 91.050781 270.03125 90.90625 270.796875 90.699219 C 272.03125 90.359375 273.367188 89.964844 274.257812 88.980469 C 276.699219 86.292969 274.378906 82.78125 271.378906 82.011719 " fill-opacity="1" fill-rule="nonzero"/></g><path fill="#eee7cc" d="M 307.605469 108.582031 C 306.40625 106.703125 303.976562 105.8125 301.921875 105.289062 C 300.296875 104.875 298.660156 104.746094 297.019531 104.808594 C 296.84375 102.898438 296.664062 100.988281 296.488281 99.078125 C 296.375 97.851562 296.421875 96.46875 295.71875 95.40625 C 295.0625 94.410156 293.917969 93.964844 292.765625 94.085938 C 290.128906 94.363281 289.484375 97.039062 288.847656 99.171875 C 288.058594 101.828125 287.277344 104.484375 286.503906 107.148438 C 286.457031 107.296875 286.433594 107.445312 286.417969 107.585938 C 286.34375 107.578125 286.269531 107.574219 286.195312 107.570312 C 285.484375 107.546875 284.78125 107.605469 284.074219 107.699219 C 282.710938 107.886719 281.433594 108.269531 280.183594 108.855469 C 277.855469 109.941406 275.796875 112.015625 276.746094 114.785156 C 277.570312 117.179688 280.046875 118.449219 282.3125 119.109375 C 283.628906 119.492188 284.988281 119.71875 286.351562 119.847656 C 287.050781 119.917969 287.753906 119.941406 288.457031 119.929688 C 288.703125 119.925781 288.949219 119.910156 289.191406 119.898438 C 289.222656 120.171875 289.242188 120.449219 289.273438 120.667969 C 289.382812 121.414062 289.492188 122.15625 289.601562 122.902344 C 289.796875 124.210938 289.886719 125.59375 290.246094 126.871094 C 290.949219 129.347656 293.246094 131.429688 295.902344 130.203125 C 298.332031 129.082031 299.023438 126.070312 299.664062 123.710938 C 300.289062 121.402344 300.722656 119.054688 301.023438 116.683594 C 302.847656 116.386719 304.617188 115.730469 306.105469 114.617188 C 308.015625 113.1875 308.988281 110.746094 307.605469 108.582031 " fill-opacity="1" fill-rule="nonzero"/><g clip-path="url(#6f79cf553a)"><path fill="#eee7cc" d="M 308.054688 60.414062 C 306.765625 59.5 305.175781 58.960938 303.625 58.734375 C 303.25 58.679688 302.683594 58.546875 302.28125 58.597656 C 302.191406 57.839844 301.992188 56.261719 301.972656 56.085938 C 301.851562 54.910156 301.738281 53.730469 301.613281 52.554688 C 301.519531 51.691406 301.480469 50.824219 300.996094 50.066406 C 299.785156 48.183594 297.429688 48.515625 295.960938 49.832031 C 294.546875 51.101562 293.816406 53.242188 293.15625 54.980469 C 292.363281 57.050781 291.914062 59.175781 291.628906 61.367188 C 291.597656 61.597656 291.621094 61.800781 291.667969 61.996094 C 290.621094 62.078125 289.5625 62.082031 288.515625 62.125 C 286.910156 62.195312 284.902344 61.992188 283.660156 63.242188 C 282.3125 64.59375 282.480469 66.839844 283.46875 68.339844 C 284.417969 69.777344 285.953125 70.644531 287.550781 71.164062 C 288.851562 71.585938 290.566406 71.628906 291.535156 72.714844 C 292.289062 73.554688 292.53125 74.832031 292.84375 75.878906 C 293.289062 77.363281 293.777344 79.027344 294.832031 80.207031 C 295.964844 81.476562 297.757812 81.710938 299.15625 80.761719 C 300.796875 79.65625 301.148438 77.535156 301.621094 75.757812 C 302.089844 73.984375 302.8125 72.128906 303.058594 70.3125 C 303.140625 69.722656 302.953125 70.066406 303.382812 69.824219 C 303.6875 69.648438 304.097656 69.558594 304.425781 69.4375 C 305.3125 69.109375 306.203125 68.792969 307.085938 68.449219 C 308.640625 67.84375 310.046875 67 310.421875 65.242188 C 310.839844 63.296875 309.5625 61.488281 308.054688 60.414062 " fill-opacity="1" fill-rule="nonzero"/></g><g clip-path="url(#d4b1c7ef2f)"><path fill="#000000" d="M 111.121094 312.582031 C 102.238281 312.925781 92.761719 320.328125 88.199219 324.933594 C 84.46875 328.660156 74.601562 341.109375 74.601562 341.109375 C 69.839844 347.480469 59.535156 347.089844 44.070312 346.941406 L 71.953125 277.785156 L 102.433594 259.207031 L 82.40625 251.5625 L 90.847656 230.289062 L 116.863281 240.386719 " fill-opacity="1" fill-rule="nonzero"/></g><path fill="#ffffff" d="M 169.433594 320.71875 C 169.382812 321.40625 110.828125 317.777344 110.828125 317.777344 C 110.648438 317.765625 110.484375 317.71875 110.324219 317.640625 C 110.167969 317.5625 110.03125 317.457031 109.917969 317.324219 C 109.800781 317.1875 109.714844 317.039062 109.660156 316.871094 C 109.605469 316.703125 109.585938 316.53125 109.597656 316.355469 L 115.539062 242.152344 C 115.574219 241.800781 115.722656 241.507812 115.980469 241.269531 C 116.257812 241.007812 116.585938 240.910156 116.960938 240.976562 L 126.238281 241.710938 C 126.976562 241.757812 208.652344 252.296875 208.550781 252.984375 C 209.335938 253.03125 169.433594 320.71875 169.433594 320.71875 Z M 169.433594 320.71875 " fill-opacity="1" fill-rule="nonzero"/><path fill="#222433" d="M 168.183594 322.277344 C 168.421875 322.277344 168.625 322.277344 168.804688 322.269531 C 169.28125 322.257812 170.445312 322.226562 170.800781 321.296875 C 171.863281 319.492188 181.214844 303.621094 190.410156 287.863281 C 196.121094 278.078125 200.65625 270.253906 203.886719 264.601562 C 210.371094 253.261719 210.367188 253.242188 209.863281 252.300781 C 209.820312 252.222656 209.773438 252.152344 209.71875 252.082031 C 209.710938 252.074219 209.703125 252.058594 209.691406 252.050781 C 209.203125 251.445312 209.113281 251.335938 195.734375 249.441406 C 188.847656 248.464844 179.394531 247.179688 167.628906 245.617188 C 147.78125 242.976562 126.816406 240.277344 126.335938 240.246094 L 117.105469 239.511719 C 116.296875 239.402344 115.59375 239.625 114.996094 240.175781 C 114.46875 240.652344 114.164062 241.242188 114.078125 241.945312 C 114.074219 241.972656 114.074219 242.003906 114.070312 242.035156 L 108.132812 316.242188 C 108.101562 316.613281 108.148438 316.972656 108.265625 317.328125 C 108.382812 317.679688 108.5625 318 108.804688 318.28125 C 109.046875 318.5625 109.335938 318.789062 109.671875 318.953125 C 110.003906 319.121094 110.355469 319.21875 110.726562 319.246094 C 110.882812 319.257812 125.546875 320.164062 140.03125 320.976562 C 148.539062 321.453125 155.324219 321.804688 160.191406 322.019531 C 163.089844 322.148438 165.335938 322.230469 166.871094 322.261719 C 167.386719 322.269531 167.820312 322.277344 168.183594 322.277344 Z M 167.964844 320.613281 Z M 167.964844 320.609375 Z M 168.113281 320.066406 C 168.03125 320.234375 167.980469 320.414062 167.964844 320.605469 C 167.980469 320.414062 168.027344 320.234375 168.109375 320.066406 Z M 168.539062 319.339844 C 163.574219 319.421875 132.144531 317.625 111.078125 316.320312 L 116.992188 242.453125 L 126.121094 243.175781 C 130.746094 243.636719 195.328125 252.121094 206.449219 254.019531 C 202.421875 261.589844 182.40625 295.808594 168.539062 319.339844 Z M 117.019531 242.308594 Z M 117.019531 242.308594 " fill-opacity="1" fill-rule="nonzero"/><path fill="#000000" d="M 241.832031 311.40625 C 243.648438 319.101562 247.671875 325.667969 252.480469 327.925781 C 266.519531 325.523438 280.214844 334.492188 279.625 345.421875 L 214.492188 346.007812 L 185.53125 316.308594 L 178.953125 333.070312 L 157.652344 324.394531 L 174.09375 288.273438 " fill-opacity="1" fill-rule="nonzero"/><path fill="#ffffff" d="M 296.019531 259.402344 L 243.792969 314.886719 C 243.535156 315.144531 243.226562 315.273438 242.863281 315.277344 C 242.710938 315.269531 242.5625 315.238281 242.421875 315.179688 L 172.476562 290.136719 C 172.035156 289.988281 207.128906 254.207031 207.128906 254.207031 L 150.4375 253.277344 C 149.199219 253.277344 147.964844 253.214844 146.734375 253.089844 C 145.503906 252.96875 144.28125 252.785156 143.066406 252.542969 C 141.855469 252.300781 140.65625 252 139.472656 251.640625 C 138.289062 251.28125 137.125 250.863281 135.980469 250.390625 C 134.839844 249.917969 133.722656 249.390625 132.628906 248.808594 C 131.539062 248.222656 130.480469 247.589844 129.449219 246.902344 C 128.421875 246.214844 127.429688 245.480469 126.472656 244.695312 C 125.515625 243.910156 124.601562 243.082031 123.726562 242.210938 C 122.851562 241.335938 122.023438 240.421875 121.238281 239.464844 C 120.453125 238.511719 119.714844 237.519531 119.027344 236.492188 C 118.339844 235.464844 117.703125 234.40625 117.121094 233.316406 C 116.535156 232.230469 116.007812 231.113281 115.53125 229.972656 C 115.058594 228.832031 114.640625 227.667969 114.28125 226.488281 C 113.921875 225.304688 113.621094 224.109375 113.375 222.898438 C 113.132812 221.683594 112.953125 220.464844 112.828125 219.234375 C 112.707031 218.003906 112.644531 216.773438 112.640625 215.539062 C 112.625 211.421875 113.273438 207.414062 114.582031 203.511719 C 115.894531 199.605469 117.800781 196.019531 120.300781 192.746094 C 120.578125 192.402344 120.9375 192.222656 121.378906 192.207031 L 247.179688 194.117188 L 268.53125 194.460938 C 270.394531 194.492188 272.242188 194.652344 274.078125 194.949219 C 275.917969 195.242188 277.722656 195.667969 279.5 196.226562 C 281.273438 196.78125 283 197.464844 284.675781 198.269531 C 286.355469 199.074219 287.964844 200 289.507812 201.035156 C 291.050781 202.074219 292.511719 203.21875 293.886719 204.46875 C 295.265625 205.71875 296.546875 207.0625 297.730469 208.496094 C 298.910156 209.929688 299.984375 211.441406 300.949219 213.03125 C 301.910156 214.621094 302.757812 216.273438 303.480469 217.984375 C 304.203125 219.695312 304.800781 221.449219 305.273438 223.25 C 305.742188 225.046875 306.082031 226.867188 306.285156 228.714844 C 306.492188 230.5625 306.566406 232.414062 306.503906 234.273438 C 306.441406 236.128906 306.246094 237.972656 305.914062 239.800781 C 305.585938 241.628906 305.125 243.425781 304.535156 245.1875 C 303.945312 246.949219 303.234375 248.660156 302.394531 250.320312 C 301.558594 251.980469 300.605469 253.570312 299.535156 255.09375 C 298.46875 256.613281 297.296875 258.050781 296.019531 259.402344 Z M 296.019531 259.402344 " fill-opacity="1" fill-rule="nonzero"/><path fill="#222433" d="M 242.863281 316.75 C 243.632812 316.746094 244.289062 316.472656 244.835938 315.925781 L 297.09375 260.410156 L 297.097656 260.40625 C 298.421875 259.003906 299.636719 257.511719 300.746094 255.933594 C 301.855469 254.351562 302.84375 252.699219 303.710938 250.976562 C 304.582031 249.253906 305.324219 247.480469 305.933594 245.648438 C 306.546875 243.820312 307.023438 241.957031 307.363281 240.058594 C 307.707031 238.160156 307.910156 236.246094 307.972656 234.316406 C 308.039062 232.390625 307.964844 230.464844 307.75 228.550781 C 307.535156 226.632812 307.183594 224.742188 306.695312 222.875 C 306.207031 221.007812 305.589844 219.1875 304.835938 217.410156 C 304.082031 215.632812 303.207031 213.917969 302.207031 212.269531 C 301.207031 210.617188 300.09375 209.046875 298.863281 207.558594 C 297.636719 206.070312 296.308594 204.675781 294.878906 203.378906 C 293.449219 202.082031 291.933594 200.894531 290.328125 199.816406 C 288.726562 198.738281 287.058594 197.78125 285.316406 196.945312 C 283.574219 196.109375 281.785156 195.402344 279.941406 194.824219 C 278.097656 194.246094 276.222656 193.804688 274.316406 193.496094 C 272.40625 193.1875 270.488281 193.019531 268.554688 192.992188 L 247.203125 192.648438 L 121.402344 190.738281 C 121.339844 190.734375 121.28125 190.738281 121.21875 190.746094 C 120.335938 190.800781 119.628906 191.183594 119.101562 191.890625 C 116.511719 195.289062 114.535156 199.011719 113.179688 203.058594 C 111.820312 207.109375 111.152344 211.269531 111.167969 215.539062 C 111.171875 216.820312 111.234375 218.101562 111.363281 219.378906 C 111.492188 220.65625 111.679688 221.925781 111.933594 223.183594 C 112.183594 224.441406 112.496094 225.6875 112.871094 226.914062 C 113.246094 228.144531 113.679688 229.351562 114.171875 230.535156 C 114.664062 231.722656 115.214844 232.878906 115.820312 234.011719 C 116.425781 235.144531 117.085938 236.242188 117.800781 237.3125 C 118.515625 238.378906 119.28125 239.40625 120.097656 240.398438 C 120.914062 241.390625 121.773438 242.34375 122.683594 243.25 C 123.59375 244.15625 124.542969 245.019531 125.539062 245.832031 C 126.53125 246.648438 127.5625 247.414062 128.632812 248.125 C 129.699219 248.839844 130.800781 249.5 131.933594 250.105469 C 133.070312 250.710938 134.230469 251.257812 135.417969 251.75 C 136.605469 252.242188 137.8125 252.675781 139.042969 253.050781 C 140.273438 253.421875 141.519531 253.734375 142.78125 253.988281 C 144.039062 254.238281 145.308594 254.429688 146.589844 254.554688 C 147.867188 254.683594 149.152344 254.746094 150.4375 254.746094 L 203.683594 255.621094 C 200.492188 258.878906 194.566406 264.933594 188.703125 270.96875 C 183.660156 276.152344 179.648438 280.300781 176.773438 283.304688 C 170.8125 289.53125 170.8125 289.53125 171.039062 290.476562 C 171.167969 291.007812 171.492188 291.359375 172.011719 291.53125 L 241.921875 316.566406 C 242.226562 316.679688 242.539062 316.742188 242.863281 316.75 Z M 294.945312 258.398438 L 242.828125 313.765625 L 174.984375 289.472656 C 179.765625 284.3125 196.589844 267.050781 208.179688 255.238281 C 208.386719 255.027344 208.515625 254.777344 208.574219 254.492188 C 208.628906 254.203125 208.601562 253.921875 208.488281 253.648438 C 208.378906 253.378906 208.199219 253.160156 207.957031 252.992188 C 207.714844 252.828125 207.445312 252.742188 207.152344 252.738281 L 150.460938 251.808594 C 149.269531 251.804688 148.082031 251.746094 146.898438 251.628906 C 145.714844 251.511719 144.539062 251.339844 143.375 251.105469 C 142.207031 250.875 141.054688 250.585938 139.914062 250.242188 C 138.777344 249.894531 137.660156 249.496094 136.558594 249.039062 C 135.460938 248.585938 134.386719 248.078125 133.335938 247.519531 C 132.289062 246.957031 131.269531 246.347656 130.28125 245.6875 C 129.289062 245.027344 128.335938 244.320312 127.414062 243.570312 C 126.496094 242.816406 125.617188 242.019531 124.773438 241.179688 C 123.933594 240.339844 123.132812 239.460938 122.378906 238.542969 C 121.625 237.625 120.914062 236.671875 120.253906 235.683594 C 119.59375 234.695312 118.980469 233.679688 118.417969 232.632812 C 117.859375 231.585938 117.347656 230.511719 116.894531 229.414062 C 116.4375 228.320312 116.035156 227.203125 115.6875 226.066406 C 115.34375 224.929688 115.054688 223.777344 114.820312 222.613281 C 114.585938 221.449219 114.410156 220.273438 114.292969 219.09375 C 114.175781 217.910156 114.113281 216.726562 114.113281 215.539062 C 114.097656 211.59375 114.714844 207.75 115.96875 204.007812 C 117.21875 200.269531 119.042969 196.828125 121.433594 193.6875 L 121.464844 193.679688 L 247.15625 195.589844 L 268.507812 195.933594 C 270.300781 195.960938 272.078125 196.117188 273.84375 196.402344 C 275.613281 196.6875 277.347656 197.097656 279.058594 197.632812 C 280.765625 198.167969 282.425781 198.820312 284.039062 199.597656 C 285.648438 200.371094 287.199219 201.257812 288.683594 202.257812 C 290.167969 203.257812 291.570312 204.359375 292.894531 205.558594 C 294.222656 206.761719 295.453125 208.054688 296.589844 209.433594 C 297.726562 210.8125 298.757812 212.269531 299.6875 213.796875 C 300.613281 215.324219 301.425781 216.914062 302.121094 218.558594 C 302.820312 220.207031 303.394531 221.894531 303.84375 223.625 C 304.296875 225.351562 304.621094 227.105469 304.820312 228.882812 C 305.019531 230.660156 305.085938 232.441406 305.027344 234.226562 C 304.96875 236.011719 304.777344 237.785156 304.460938 239.542969 C 304.144531 241.304688 303.703125 243.03125 303.136719 244.726562 C 302.570312 246.421875 301.882812 248.066406 301.078125 249.664062 C 300.269531 251.257812 299.355469 252.789062 298.328125 254.253906 C 297.300781 255.714844 296.171875 257.097656 294.945312 258.398438 Z M 121.386719 193.699219 Z M 121.386719 193.699219 " fill-opacity="1" fill-rule="nonzero"/><path fill="#ff7f50" d="M 102.1875 257.296875 L 93.941406 247.886719 C 92.621094 246.363281 91.886719 244.601562 91.734375 242.59375 L 86.53125 193.382812 C 84.761719 182.601562 86.136719 171.71875 95.511719 165.496094 L 141.160156 131.089844 C 145.871094 127.707031 151.957031 125.695312 157.457031 127.609375 L 177.582031 134.960938 C 178.808594 135.5 180.722656 137.3125 181.457031 138.441406 L 203.546875 169.417969 L 230.296875 147.753906 C 233.683594 145.253906 240.652344 143.046875 243.449219 146.183594 L 258.960938 168.238281 C 260.484375 170.9375 260.140625 176.671875 257.785156 178.679688 L 237.414062 194.707031 L 212.625 194.460938 L 190.929688 193.53125 L 129.527344 194.511719 L 133.40625 240.140625 L 114.800781 228.132812 C 104.886719 229.210938 99.878906 235.289062 98.507812 245.140625 Z M 102.1875 257.296875 " fill-opacity="1" fill-rule="nonzero"/><path fill="#222433" d="M 192.796875 195.34375 C 192.984375 195.34375 193.167969 195.308594 193.339844 195.238281 C 193.515625 195.171875 193.671875 195.070312 193.808594 194.941406 C 193.945312 194.8125 194.050781 194.664062 194.132812 194.492188 C 194.210938 194.324219 194.253906 194.144531 194.265625 193.957031 C 194.566406 188.742188 194.226562 186.523438 192.363281 181.460938 C 191.273438 178.425781 190.585938 175.300781 190.296875 172.089844 C 190.007812 168.878906 190.132812 165.683594 190.664062 162.503906 C 190.691406 162.316406 190.683594 162.125 190.640625 161.9375 C 190.59375 161.753906 190.511719 161.582031 190.402344 161.425781 C 190.289062 161.269531 190.148438 161.140625 189.984375 161.039062 C 189.820312 160.9375 189.644531 160.871094 189.453125 160.839844 C 189.261719 160.804688 189.074219 160.8125 188.886719 160.851562 C 188.699219 160.894531 188.523438 160.972656 188.367188 161.082031 C 188.207031 161.191406 188.078125 161.328125 187.972656 161.488281 C 187.867188 161.652344 187.796875 161.828125 187.761719 162.015625 C 187.1875 165.445312 187.054688 168.890625 187.363281 172.355469 C 187.675781 175.816406 188.417969 179.1875 189.59375 182.460938 C 191.328125 187.171875 191.601562 188.972656 191.328125 193.792969 C 191.316406 193.988281 191.339844 194.175781 191.40625 194.359375 C 191.46875 194.542969 191.566406 194.710938 191.695312 194.855469 C 191.828125 195 191.980469 195.117188 192.15625 195.199219 C 192.332031 195.285156 192.515625 195.332031 192.710938 195.34375 C 192.742188 195.34375 192.769531 195.34375 192.796875 195.34375 Z M 192.796875 195.34375 " fill-opacity="1" fill-rule="nonzero"/><path fill="#222433" d="M 253.121094 195.6875 C 253.316406 195.6875 253.503906 195.652344 253.683594 195.578125 C 253.863281 195.503906 254.023438 195.398438 254.164062 195.257812 C 254.300781 195.121094 254.40625 194.960938 254.484375 194.78125 C 254.558594 194.601562 254.597656 194.414062 254.597656 194.222656 C 254.597656 194.027344 254.558594 193.839844 254.484375 193.65625 C 254.410156 193.476562 254.304688 193.320312 254.167969 193.179688 C 254.03125 193.042969 253.871094 192.933594 253.691406 192.859375 C 253.511719 192.785156 253.324219 192.746094 253.128906 192.746094 L 133.621094 192.078125 L 150.652344 174.859375 C 150.789062 174.722656 150.894531 174.5625 150.96875 174.382812 C 151.042969 174.203125 151.078125 174.011719 151.078125 173.816406 C 151.074219 173.621094 151.039062 173.433594 150.960938 173.253906 C 150.886719 173.074219 150.777344 172.917969 150.640625 172.78125 C 150.5 172.644531 150.339844 172.539062 150.160156 172.464844 C 149.976562 172.390625 149.789062 172.355469 149.59375 172.355469 C 149.398438 172.355469 149.210938 172.394531 149.03125 172.472656 C 148.851562 172.546875 148.691406 172.65625 148.554688 172.792969 L 129.066406 192.496094 C 128.859375 192.707031 128.726562 192.957031 128.671875 193.25 C 128.613281 193.539062 128.640625 193.820312 128.753906 194.09375 C 128.871094 194.367188 129.050781 194.585938 129.292969 194.75 C 129.539062 194.917969 129.8125 195 130.109375 195 L 253.113281 195.6875 Z M 253.121094 195.6875 " fill-opacity="1" fill-rule="nonzero"/><path fill="#ffffff" d="M 136.839844 57.617188 C 136.839844 58.566406 136.886719 59.511719 136.980469 60.453125 C 137.074219 61.394531 137.210938 62.332031 137.398438 63.257812 C 137.582031 64.1875 137.8125 65.105469 138.085938 66.011719 C 138.363281 66.917969 138.683594 67.808594 139.046875 68.683594 C 139.40625 69.558594 139.8125 70.414062 140.261719 71.25 C 140.707031 72.085938 141.195312 72.894531 141.722656 73.683594 C 142.25 74.472656 142.8125 75.230469 143.414062 75.964844 C 144.015625 76.695312 144.652344 77.394531 145.324219 78.066406 C 145.992188 78.734375 146.695312 79.371094 147.429688 79.972656 C 148.160156 80.574219 148.921875 81.136719 149.710938 81.664062 C 150.5 82.1875 151.3125 82.675781 152.148438 83.121094 C 152.984375 83.566406 153.839844 83.972656 154.71875 84.335938 C 155.59375 84.695312 156.484375 85.015625 157.394531 85.289062 C 158.300781 85.566406 159.21875 85.796875 160.152344 85.980469 C 161.082031 86.164062 162.019531 86.304688 162.960938 86.394531 C 163.90625 86.488281 164.851562 86.535156 165.800781 86.535156 C 166.75 86.535156 167.695312 86.488281 168.640625 86.394531 C 169.582031 86.304688 170.519531 86.164062 171.449219 85.980469 C 172.378906 85.796875 173.300781 85.566406 174.207031 85.289062 C 175.113281 85.015625 176.007812 84.695312 176.882812 84.335938 C 177.757812 83.972656 178.613281 83.566406 179.453125 83.121094 C 180.289062 82.675781 181.101562 82.1875 181.890625 81.664062 C 182.679688 81.136719 183.4375 80.574219 184.171875 79.972656 C 184.90625 79.371094 185.605469 78.734375 186.277344 78.066406 C 186.949219 77.394531 187.585938 76.695312 188.1875 75.964844 C 188.789062 75.230469 189.351562 74.472656 189.878906 73.683594 C 190.40625 72.894531 190.894531 72.085938 191.339844 71.25 C 191.789062 70.414062 192.191406 69.558594 192.554688 68.683594 C 192.917969 67.808594 193.238281 66.917969 193.511719 66.011719 C 193.789062 65.105469 194.019531 64.1875 194.203125 63.257812 C 194.386719 62.332031 194.527344 61.394531 194.621094 60.453125 C 194.714844 59.511719 194.757812 58.566406 194.757812 57.617188 C 194.757812 56.671875 194.714844 55.726562 194.621094 54.785156 C 194.527344 53.839844 194.386719 52.90625 194.203125 51.976562 C 194.019531 51.046875 193.789062 50.128906 193.511719 49.222656 C 193.238281 48.316406 192.917969 47.425781 192.554688 46.550781 C 192.191406 45.675781 191.789062 44.820312 191.339844 43.988281 C 190.894531 43.152344 190.40625 42.339844 189.878906 41.550781 C 189.351562 40.765625 188.789062 40.003906 188.1875 39.273438 C 187.585938 38.539062 186.949219 37.839844 186.277344 37.171875 C 185.605469 36.5 184.90625 35.867188 184.171875 35.265625 C 183.4375 34.664062 182.679688 34.101562 181.890625 33.574219 C 181.101562 33.046875 180.289062 32.5625 179.453125 32.113281 C 178.613281 31.667969 177.757812 31.265625 176.882812 30.902344 C 176.007812 30.539062 175.113281 30.21875 174.207031 29.945312 C 173.300781 29.671875 172.378906 29.441406 171.449219 29.257812 C 170.519531 29.070312 169.582031 28.933594 168.640625 28.839844 C 167.695312 28.746094 166.75 28.699219 165.800781 28.699219 C 164.851562 28.699219 163.90625 28.746094 162.960938 28.839844 C 162.019531 28.933594 161.082031 29.070312 160.152344 29.257812 C 159.21875 29.441406 158.300781 29.671875 157.394531 29.945312 C 156.484375 30.21875 155.59375 30.539062 154.71875 30.902344 C 153.839844 31.265625 152.984375 31.667969 152.148438 32.113281 C 151.3125 32.5625 150.5 33.046875 149.710938 33.574219 C 148.921875 34.101562 148.160156 34.664062 147.429688 35.265625 C 146.695312 35.867188 145.992188 36.5 145.324219 37.171875 C 144.652344 37.839844 144.015625 38.539062 143.414062 39.273438 C 142.8125 40.003906 142.25 40.765625 141.722656 41.550781 C 141.195312 42.339844 140.707031 43.152344 140.261719 43.988281 C 139.8125 44.820312 139.40625 45.675781 139.046875 46.550781 C 138.683594 47.425781 138.363281 48.316406 138.085938 49.222656 C 137.8125 50.128906 137.582031 51.046875 137.398438 51.976562 C 137.210938 52.90625 137.074219 53.839844 136.980469 54.785156 C 136.886719 55.726562 136.839844 56.671875 136.839844 57.617188 Z M 136.839844 57.617188 " fill-opacity="1" fill-rule="nonzero"/><g clip-path="url(#d3560b681a)"><path fill="#222433" d="M 165.800781 88.007812 C 166.796875 88.007812 167.792969 87.957031 168.78125 87.859375 C 169.773438 87.761719 170.757812 87.617188 171.738281 87.421875 C 172.714844 87.226562 173.679688 86.988281 174.632812 86.699219 C 175.589844 86.410156 176.523438 86.074219 177.445312 85.691406 C 178.367188 85.3125 179.265625 84.886719 180.144531 84.417969 C 181.023438 83.949219 181.878906 83.4375 182.707031 82.886719 C 183.535156 82.332031 184.335938 81.738281 185.105469 81.109375 C 185.875 80.476562 186.613281 79.808594 187.320312 79.105469 C 188.023438 78.402344 188.691406 77.664062 189.324219 76.894531 C 189.957031 76.125 190.550781 75.328125 191.105469 74.5 C 191.65625 73.671875 192.167969 72.820312 192.640625 71.941406 C 193.109375 71.066406 193.535156 70.167969 193.914062 69.246094 C 194.296875 68.328125 194.632812 67.390625 194.921875 66.4375 C 195.210938 65.488281 195.453125 64.523438 195.648438 63.546875 C 195.84375 62.570312 195.988281 61.585938 196.085938 60.597656 C 196.183594 59.605469 196.230469 58.613281 196.230469 57.617188 C 196.230469 56.621094 196.183594 55.628906 196.085938 54.640625 C 195.988281 53.648438 195.84375 52.664062 195.648438 51.691406 C 195.453125 50.714844 195.210938 49.75 194.921875 48.796875 C 194.632812 47.84375 194.296875 46.910156 193.914062 45.988281 C 193.535156 45.070312 193.109375 44.171875 192.640625 43.292969 C 192.167969 42.414062 191.65625 41.5625 191.105469 40.734375 C 190.550781 39.90625 189.957031 39.109375 189.324219 38.339844 C 188.691406 37.570312 188.023438 36.835938 187.320312 36.128906 C 186.613281 35.425781 185.875 34.757812 185.105469 34.128906 C 184.335938 33.496094 183.535156 32.90625 182.707031 32.351562 C 181.878906 31.796875 181.023438 31.289062 180.144531 30.816406 C 179.265625 30.347656 178.367188 29.925781 177.445312 29.542969 C 176.523438 29.164062 175.589844 28.828125 174.632812 28.539062 C 173.679688 28.25 172.714844 28.007812 171.738281 27.8125 C 170.757812 27.621094 169.773438 27.472656 168.78125 27.375 C 167.792969 27.277344 166.796875 27.230469 165.800781 27.230469 C 164.804688 27.230469 163.808594 27.277344 162.816406 27.375 C 161.824219 27.472656 160.839844 27.621094 159.863281 27.8125 C 158.886719 28.007812 157.921875 28.25 156.964844 28.539062 C 156.011719 28.828125 155.074219 29.164062 154.15625 29.542969 C 153.234375 29.925781 152.332031 30.347656 151.453125 30.816406 C 150.574219 31.289062 149.722656 31.796875 148.894531 32.351562 C 148.0625 32.90625 147.265625 33.496094 146.496094 34.128906 C 145.722656 34.757812 144.984375 35.425781 144.28125 36.128906 C 143.578125 36.835938 142.910156 37.570312 142.277344 38.339844 C 141.644531 39.109375 141.050781 39.90625 140.496094 40.734375 C 139.941406 41.5625 139.429688 42.414062 138.960938 43.292969 C 138.492188 44.171875 138.066406 45.070312 137.683594 45.988281 C 137.304688 46.910156 136.96875 47.84375 136.679688 48.796875 C 136.390625 49.75 136.148438 50.714844 135.953125 51.691406 C 135.757812 52.664062 135.613281 53.648438 135.515625 54.640625 C 135.417969 55.628906 135.367188 56.621094 135.367188 57.617188 C 135.371094 58.613281 135.417969 59.605469 135.519531 60.59375 C 135.617188 61.585938 135.761719 62.570312 135.957031 63.542969 C 136.152344 64.519531 136.394531 65.484375 136.6875 66.433594 C 136.976562 67.386719 137.3125 68.324219 137.695312 69.242188 C 138.074219 70.160156 138.5 71.058594 138.972656 71.9375 C 139.441406 72.8125 139.953125 73.664062 140.507812 74.492188 C 141.0625 75.320312 141.65625 76.117188 142.285156 76.886719 C 142.917969 77.65625 143.585938 78.390625 144.292969 79.09375 C 144.996094 79.800781 145.734375 80.464844 146.503906 81.097656 C 147.273438 81.730469 148.074219 82.320312 148.902344 82.875 C 149.730469 83.425781 150.582031 83.9375 151.460938 84.40625 C 152.339844 84.878906 153.238281 85.300781 154.160156 85.683594 C 155.082031 86.066406 156.015625 86.398438 156.96875 86.691406 C 157.921875 86.980469 158.886719 87.222656 159.867188 87.417969 C 160.84375 87.613281 161.828125 87.757812 162.820312 87.855469 C 163.808594 87.957031 164.804688 88.003906 165.800781 88.007812 Z M 165.800781 30.171875 C 166.699219 30.171875 167.597656 30.214844 168.496094 30.304688 C 169.390625 30.390625 170.28125 30.523438 171.164062 30.699219 C 172.046875 30.875 172.917969 31.09375 173.777344 31.351562 C 174.640625 31.613281 175.488281 31.917969 176.320312 32.261719 C 177.152344 32.605469 177.964844 32.988281 178.757812 33.410156 C 179.550781 33.835938 180.324219 34.296875 181.070312 34.796875 C 181.820312 35.296875 182.542969 35.832031 183.238281 36.402344 C 183.933594 36.972656 184.601562 37.574219 185.238281 38.210938 C 185.871094 38.84375 186.476562 39.511719 187.046875 40.207031 C 187.617188 40.902344 188.15625 41.621094 188.65625 42.371094 C 189.15625 43.117188 189.617188 43.886719 190.042969 44.679688 C 190.464844 45.472656 190.851562 46.285156 191.195312 47.113281 C 191.539062 47.945312 191.84375 48.789062 192.105469 49.652344 C 192.363281 50.511719 192.582031 51.382812 192.757812 52.261719 C 192.933594 53.144531 193.066406 54.035156 193.15625 54.929688 C 193.242188 55.824219 193.289062 56.71875 193.289062 57.617188 C 193.289062 58.515625 193.242188 59.414062 193.15625 60.308594 C 193.066406 61.203125 192.933594 62.089844 192.757812 62.972656 C 192.582031 63.855469 192.363281 64.726562 192.105469 65.585938 C 191.84375 66.445312 191.539062 67.292969 191.195312 68.121094 C 190.851562 68.953125 190.464844 69.765625 190.042969 70.554688 C 189.617188 71.347656 189.15625 72.121094 188.65625 72.867188 C 188.15625 73.613281 187.617188 74.335938 187.046875 75.03125 C 186.476562 75.726562 185.871094 76.390625 185.238281 77.027344 C 184.601562 77.660156 183.933594 78.265625 183.238281 78.835938 C 182.542969 79.40625 181.820312 79.941406 181.070312 80.441406 C 180.324219 80.9375 179.550781 81.402344 178.757812 81.824219 C 177.964844 82.25 177.152344 82.632812 176.320312 82.976562 C 175.488281 83.320312 174.640625 83.621094 173.777344 83.882812 C 172.917969 84.144531 172.046875 84.363281 171.164062 84.539062 C 170.28125 84.714844 169.390625 84.84375 168.496094 84.933594 C 167.597656 85.019531 166.699219 85.066406 165.800781 85.066406 C 164.898438 85.066406 164 85.019531 163.105469 84.933594 C 162.210938 84.84375 161.320312 84.714844 160.4375 84.539062 C 159.554688 84.363281 158.683594 84.144531 157.820312 83.882812 C 156.960938 83.621094 156.113281 83.320312 155.28125 82.976562 C 154.449219 82.632812 153.636719 82.25 152.84375 81.824219 C 152.050781 81.402344 151.277344 80.9375 150.527344 80.441406 C 149.78125 79.941406 149.058594 79.40625 148.363281 78.835938 C 147.667969 78.265625 147 77.660156 146.363281 77.027344 C 145.726562 76.390625 145.125 75.726562 144.550781 75.03125 C 143.980469 74.335938 143.445312 73.613281 142.945312 72.867188 C 142.445312 72.121094 141.984375 71.347656 141.558594 70.554688 C 141.132812 69.765625 140.75 68.953125 140.40625 68.121094 C 140.0625 67.292969 139.757812 66.445312 139.496094 65.585938 C 139.234375 64.726562 139.015625 63.855469 138.839844 62.972656 C 138.664062 62.089844 138.535156 61.203125 138.445312 60.308594 C 138.355469 59.414062 138.3125 58.515625 138.3125 57.617188 C 138.3125 56.71875 138.359375 55.824219 138.449219 54.929688 C 138.539062 54.035156 138.671875 53.148438 138.847656 52.265625 C 139.023438 51.382812 139.242188 50.515625 139.503906 49.652344 C 139.765625 48.792969 140.070312 47.949219 140.414062 47.121094 C 140.757812 46.289062 141.144531 45.476562 141.566406 44.6875 C 141.992188 43.894531 142.453125 43.125 142.957031 42.375 C 143.457031 41.628906 143.992188 40.910156 144.5625 40.214844 C 145.132812 39.519531 145.738281 38.855469 146.371094 38.21875 C 147.007812 37.582031 147.675781 36.980469 148.371094 36.410156 C 149.066406 35.839844 149.789062 35.304688 150.535156 34.804688 C 151.285156 34.304688 152.054688 33.84375 152.847656 33.421875 C 153.640625 32.996094 154.453125 32.613281 155.285156 32.269531 C 156.117188 31.925781 156.964844 31.621094 157.824219 31.359375 C 158.6875 31.097656 159.558594 30.878906 160.441406 30.703125 C 161.324219 30.527344 162.210938 30.394531 163.105469 30.304688 C 164.003906 30.21875 164.898438 30.171875 165.800781 30.171875 Z M 165.800781 30.171875 " fill-opacity="1" fill-rule="nonzero"/></g><path fill="#ffffff" d="M 158.878906 104.621094 C 158.730469 105.699219 158.632812 106.777344 158.585938 107.855469 C 158.550781 109.371094 158.664062 110.875 158.929688 112.367188 L 152.695312 127.414062 C 152.695312 127.414062 151.761719 129.617188 150.632812 132.410156 C 150.3125 133.179688 150.074219 133.972656 149.910156 134.789062 C 149.746094 135.605469 149.664062 136.429688 149.664062 137.265625 C 149.664062 138.097656 149.746094 138.921875 149.90625 139.738281 C 150.070312 140.554688 150.3125 141.347656 150.628906 142.117188 C 150.949219 142.886719 151.339844 143.617188 151.804688 144.308594 C 152.265625 145.003906 152.792969 145.640625 153.382812 146.230469 C 153.972656 146.820312 154.613281 147.34375 155.308594 147.808594 C 156.003906 148.269531 156.734375 148.660156 157.503906 148.976562 C 158.273438 149.296875 159.070312 149.539062 159.886719 149.699219 C 160.703125 149.863281 161.53125 149.945312 162.363281 149.945312 C 163.199219 149.945312 164.023438 149.863281 164.84375 149.703125 C 165.660156 149.539062 166.453125 149.300781 167.226562 148.980469 C 167.996094 148.664062 168.726562 148.273438 169.421875 147.808594 C 170.113281 147.347656 170.753906 146.820312 171.34375 146.230469 C 171.933594 145.644531 172.460938 145.003906 172.921875 144.308594 C 173.386719 143.617188 173.777344 142.886719 174.09375 142.117188 L 178.167969 132.3125 C 179.625 132.628906 181.097656 132.792969 182.585938 132.804688 C 183.386719 132.820312 184.1875 132.800781 184.988281 132.738281 C 185.789062 132.675781 186.582031 132.578125 187.371094 132.4375 C 188.160156 132.296875 188.941406 132.121094 189.714844 131.902344 C 190.484375 131.6875 191.246094 131.433594 191.992188 131.144531 C 192.738281 130.855469 193.46875 130.527344 194.183594 130.164062 C 194.898438 129.804688 195.59375 129.40625 196.269531 128.976562 C 196.945312 128.546875 197.597656 128.082031 198.230469 127.589844 C 198.859375 127.09375 199.464844 126.570312 200.042969 126.015625 C 200.621094 125.460938 201.171875 124.878906 201.695312 124.273438 C 202.214844 123.664062 202.707031 123.03125 203.164062 122.375 C 203.625 121.71875 204.050781 121.042969 204.441406 120.34375 C 204.835938 119.648438 205.191406 118.929688 205.515625 118.199219 C 205.835938 117.464844 206.121094 116.71875 206.371094 115.957031 C 206.617188 115.195312 206.828125 114.425781 207.003906 113.644531 C 207.175781 112.863281 207.308594 112.074219 207.402344 111.277344 C 207.5 110.484375 207.554688 109.6875 207.570312 108.886719 C 207.613281 105.929688 207.15625 103.054688 206.195312 100.257812 C 207.3125 97.507812 207.902344 94.648438 207.964844 91.683594 C 207.988281 90.632812 207.9375 89.585938 207.816406 88.546875 L 198.230469 71.570312 " fill-opacity="1" fill-rule="nonzero"/><path fill="#222433" d="M 162.367188 151.429688 C 163.769531 151.425781 165.140625 151.21875 166.480469 150.808594 C 167.820312 150.402344 169.070312 149.808594 170.234375 149.03125 C 171.398438 148.253906 172.425781 147.324219 173.316406 146.242188 C 174.203125 145.160156 174.917969 143.972656 175.453125 142.683594 L 179.074219 133.976562 C 180.234375 134.171875 181.40625 134.269531 182.585938 134.273438 C 183.433594 134.292969 184.285156 134.269531 185.128906 134.203125 C 185.976562 134.136719 186.816406 134.027344 187.652344 133.882812 C 188.488281 133.734375 189.316406 133.542969 190.132812 133.3125 C 190.953125 133.085938 191.757812 132.816406 192.546875 132.507812 C 193.339844 132.199219 194.113281 131.851562 194.871094 131.46875 C 195.625 131.082031 196.363281 130.664062 197.078125 130.207031 C 197.792969 129.75 198.484375 129.257812 199.152344 128.734375 C 199.820312 128.210938 200.460938 127.65625 201.074219 127.066406 C 201.683594 126.480469 202.269531 125.863281 202.820312 125.21875 C 203.371094 124.574219 203.890625 123.90625 204.378906 123.210938 C 204.863281 122.515625 205.316406 121.796875 205.730469 121.058594 C 206.144531 120.320312 206.523438 119.5625 206.863281 118.785156 C 207.207031 118.007812 207.507812 117.214844 207.769531 116.410156 C 208.035156 115.605469 208.257812 114.785156 208.441406 113.957031 C 208.625 113.128906 208.765625 112.296875 208.867188 111.453125 C 208.964844 110.613281 209.023438 109.765625 209.042969 108.917969 C 209.085938 105.976562 208.660156 103.105469 207.757812 100.300781 C 208.820312 97.535156 209.378906 94.667969 209.433594 91.707031 C 209.460938 90.582031 209.40625 89.464844 209.273438 88.347656 C 209.25 88.160156 209.191406 87.988281 209.097656 87.824219 L 199.515625 70.851562 C 199.417969 70.683594 199.292969 70.535156 199.140625 70.417969 C 198.988281 70.296875 198.816406 70.210938 198.628906 70.15625 C 198.441406 70.105469 198.25 70.089844 198.054688 70.113281 C 197.863281 70.136719 197.679688 70.199219 197.511719 70.292969 C 197.339844 70.390625 197.195312 70.515625 197.074219 70.667969 C 196.953125 70.820312 196.867188 70.992188 196.816406 71.179688 C 196.761719 71.367188 196.746094 71.558594 196.769531 71.75 C 196.792969 71.945312 196.855469 72.125 196.949219 72.296875 L 206.390625 89.015625 C 206.472656 89.902344 206.507812 90.792969 206.488281 91.683594 C 206.429688 94.460938 205.875 97.140625 204.828125 99.714844 C 204.691406 100.050781 204.683594 100.390625 204.800781 100.734375 C 205.703125 103.367188 206.136719 106.078125 206.097656 108.863281 C 206.082031 109.613281 206.027344 110.363281 205.9375 111.109375 C 205.847656 111.859375 205.722656 112.597656 205.5625 113.332031 C 205.398438 114.066406 205.199219 114.792969 204.96875 115.507812 C 204.734375 116.222656 204.464844 116.925781 204.160156 117.613281 C 203.859375 118.300781 203.523438 118.972656 203.15625 119.628906 C 202.785156 120.285156 202.386719 120.921875 201.953125 121.539062 C 201.523438 122.15625 201.0625 122.75 200.570312 123.320312 C 200.082031 123.890625 199.5625 124.4375 199.019531 124.957031 C 198.476562 125.476562 197.90625 125.96875 197.316406 126.433594 C 196.722656 126.898438 196.109375 127.335938 195.476562 127.738281 C 194.839844 128.144531 194.1875 128.515625 193.515625 128.855469 C 192.84375 129.195312 192.15625 129.503906 191.453125 129.777344 C 190.753906 130.050781 190.039062 130.285156 189.3125 130.488281 C 188.585938 130.691406 187.855469 130.859375 187.113281 130.992188 C 186.371094 131.121094 185.625 131.214844 184.875 131.273438 C 184.121094 131.332031 183.371094 131.351562 182.617188 131.335938 C 181.21875 131.324219 179.832031 131.171875 178.464844 130.875 C 178.121094 130.804688 177.789062 130.851562 177.480469 131.015625 C 177.167969 131.179688 176.941406 131.425781 176.808594 131.753906 L 172.734375 141.554688 C 172.164062 142.929688 171.351562 144.144531 170.300781 145.195312 C 169.246094 146.25 168.027344 147.058594 166.652344 147.628906 C 165.277344 148.203125 163.847656 148.488281 162.359375 148.488281 C 160.871094 148.484375 159.441406 148.199219 158.070312 147.621094 C 157.390625 147.339844 156.742188 146.996094 156.128906 146.585938 C 155.519531 146.175781 154.953125 145.710938 154.429688 145.191406 C 153.910156 144.671875 153.445312 144.105469 153.035156 143.492188 C 152.625 142.882812 152.28125 142.234375 152 141.554688 C 151.714844 140.875 151.503906 140.175781 151.359375 139.453125 C 151.214844 138.734375 151.144531 138.003906 151.140625 137.269531 C 151.140625 136.53125 151.210938 135.804688 151.355469 135.082031 C 151.496094 134.359375 151.710938 133.660156 151.992188 132.980469 C 153.109375 130.214844 154.039062 128.007812 154.050781 127.984375 L 160.289062 112.929688 C 160.394531 112.667969 160.425781 112.402344 160.378906 112.125 C 160.128906 110.730469 160.023438 109.324219 160.054688 107.90625 C 160.101562 106.894531 160.195312 105.851562 160.335938 104.820312 C 160.363281 104.628906 160.351562 104.4375 160.304688 104.246094 C 160.253906 104.058594 160.171875 103.882812 160.054688 103.730469 C 159.933594 103.574219 159.792969 103.445312 159.621094 103.347656 C 159.453125 103.246094 159.273438 103.183594 159.078125 103.160156 C 158.882812 103.132812 158.691406 103.144531 158.503906 103.195312 C 158.3125 103.242188 158.140625 103.328125 157.984375 103.449219 C 157.828125 103.566406 157.703125 103.710938 157.605469 103.878906 C 157.507812 104.046875 157.445312 104.230469 157.417969 104.425781 C 157.265625 105.539062 157.164062 106.671875 157.113281 107.789062 C 157.074219 109.265625 157.171875 110.730469 157.40625 112.1875 L 151.332031 126.851562 C 151.328125 126.863281 150.386719 129.089844 149.265625 131.863281 C 149.046875 132.398438 148.859375 132.945312 148.703125 133.503906 C 148.550781 134.0625 148.433594 134.628906 148.351562 135.203125 C 148.265625 135.773438 148.21875 136.351562 148.203125 136.929688 C 148.191406 137.507812 148.214844 138.085938 148.273438 138.664062 C 148.328125 139.238281 148.421875 139.808594 148.550781 140.375 C 148.679688 140.941406 148.839844 141.496094 149.035156 142.039062 C 149.230469 142.585938 149.460938 143.117188 149.722656 143.632812 C 149.984375 144.152344 150.273438 144.648438 150.597656 145.132812 C 150.917969 145.613281 151.269531 146.074219 151.648438 146.511719 C 152.027344 146.949219 152.433594 147.363281 152.863281 147.753906 C 153.292969 148.140625 153.742188 148.503906 154.21875 148.835938 C 154.691406 149.171875 155.183594 149.472656 155.695312 149.746094 C 156.207031 150.023438 156.730469 150.261719 157.273438 150.472656 C 157.8125 150.679688 158.367188 150.855469 158.929688 151 C 159.492188 151.140625 160.058594 151.246094 160.636719 151.320312 C 161.210938 151.390625 161.789062 151.425781 162.367188 151.429688 Z M 162.367188 151.429688 " fill-opacity="1" fill-rule="nonzero"/><path fill="#ffffff" d="M 208.992188 88.347656 C 208.207031 80.996094 206.148438 76.097656 202.21875 72.320312 C 201.585938 71.714844 200.925781 71.140625 200.234375 70.597656 C 199.546875 70.054688 198.832031 69.546875 198.09375 69.078125 C 197.351562 68.605469 196.589844 68.167969 195.808594 67.773438 C 195.027344 67.375 194.226562 67.015625 193.410156 66.699219 C 192.589844 66.378906 191.757812 66.101562 190.914062 65.863281 C 190.070312 65.628906 189.214844 65.433594 188.351562 65.277344 C 187.484375 65.125 186.617188 65.015625 185.742188 64.945312 C 184.867188 64.878906 183.988281 64.855469 183.109375 64.871094 C 182.234375 64.890625 181.359375 64.953125 180.488281 65.054688 C 179.617188 65.160156 178.75 65.304688 177.894531 65.496094 C 177.035156 65.683594 176.191406 65.914062 175.355469 66.1875 C 174.523438 66.457031 173.703125 66.769531 172.898438 67.121094 C 172.09375 67.476562 171.3125 67.867188 170.546875 68.296875 C 169.78125 68.726562 169.039062 69.191406 168.316406 69.691406 C 167.597656 70.195312 166.90625 70.730469 166.238281 71.300781 C 165.570312 71.871094 164.933594 72.472656 164.328125 73.105469 C 162.414062 75.097656 160.84375 77.332031 159.621094 79.808594 C 158.398438 82.28125 157.578125 84.886719 157.160156 87.613281 L 156.964844 88.9375 C 156.867188 89.574219 163.296875 85.847656 165.554688 85.949219 C 176.550781 86.4375 175.421875 95.847656 176.007812 95.847656 L 176.109375 95.847656 C 189.980469 93.335938 201.433594 81.683594 201.433594 81.683594 L 206.980469 89.132812 C 207.136719 89.351562 207.34375 89.496094 207.601562 89.570312 C 207.855469 89.644531 208.109375 89.628906 208.355469 89.527344 C 208.570312 89.410156 208.734375 89.246094 208.847656 89.03125 C 208.964844 88.820312 209.011719 88.589844 208.992188 88.347656 Z M 208.992188 88.347656 " fill-opacity="1" fill-rule="nonzero"/><path fill="#222433" d="M 176.007812 97.320312 L 176.109375 97.320312 C 176.195312 97.320312 176.285156 97.3125 176.371094 97.296875 C 188.035156 95.183594 197.871094 86.996094 201.25 83.894531 L 205.78125 89.988281 C 205.953125 90.226562 206.160156 90.433594 206.402344 90.601562 C 206.640625 90.773438 206.902344 90.898438 207.1875 90.980469 C 207.46875 91.0625 207.757812 91.09375 208.050781 91.078125 C 208.347656 91.066406 208.628906 91 208.902344 90.890625 C 208.941406 90.875 208.976562 90.859375 209.015625 90.839844 C 209.5 90.589844 209.875 90.222656 210.136719 89.742188 C 210.402344 89.261719 210.507812 88.75 210.460938 88.203125 L 210.460938 88.195312 C 209.636719 80.492188 207.410156 75.269531 203.246094 71.265625 C 202.578125 70.625 201.878906 70.015625 201.152344 69.445312 C 200.421875 68.871094 199.667969 68.335938 198.890625 67.839844 C 198.109375 67.339844 197.304688 66.882812 196.480469 66.464844 C 195.65625 66.042969 194.8125 65.667969 193.949219 65.332031 C 193.085938 64.992188 192.207031 64.699219 191.316406 64.449219 C 190.425781 64.199219 189.523438 63.992188 188.613281 63.832031 C 187.699219 63.671875 186.78125 63.554688 185.859375 63.480469 C 184.9375 63.410156 184.011719 63.382812 183.085938 63.402344 C 182.160156 63.421875 181.238281 63.488281 180.316406 63.597656 C 179.398438 63.707031 178.484375 63.859375 177.582031 64.058594 C 176.675781 64.257812 175.785156 64.5 174.90625 64.789062 C 174.023438 65.074219 173.160156 65.402344 172.3125 65.777344 C 171.464844 66.148438 170.636719 66.558594 169.828125 67.011719 C 169.019531 67.464844 168.238281 67.957031 167.480469 68.488281 C 166.71875 69.015625 165.988281 69.582031 165.285156 70.183594 C 164.582031 70.785156 163.910156 71.417969 163.269531 72.085938 C 161.25 74.1875 159.59375 76.546875 158.304688 79.15625 C 157.015625 81.769531 156.152344 84.515625 155.710938 87.394531 L 155.515625 88.722656 C 155.472656 89 155.503906 89.265625 155.609375 89.523438 C 155.710938 89.78125 155.875 89.996094 156.097656 90.164062 C 156.949219 90.8125 157.6875 90.476562 160.128906 89.375 C 161.671875 88.675781 164.535156 87.386719 165.496094 87.417969 C 173.207031 87.761719 173.957031 92.777344 174.316406 95.1875 C 174.421875 95.929688 174.628906 97.320312 176.007812 97.320312 Z M 201.433594 80.214844 C 201.023438 80.214844 200.671875 80.359375 200.386719 80.652344 C 200.277344 80.761719 189.792969 91.289062 177.128906 94.140625 C 176.648438 91.273438 175.011719 84.898438 165.621094 84.480469 C 164.074219 84.429688 161.769531 85.398438 158.910156 86.695312 L 158.808594 86.738281 C 159.089844 85.335938 159.484375 83.960938 159.996094 82.625 C 160.507812 81.285156 161.128906 80 161.859375 78.769531 C 162.589844 77.535156 163.417969 76.371094 164.347656 75.28125 C 165.273438 74.1875 166.289062 73.179688 167.386719 72.261719 C 168.488281 71.339844 169.65625 70.519531 170.894531 69.796875 C 172.132812 69.074219 173.421875 68.460938 174.765625 67.957031 C 176.109375 67.453125 177.484375 67.066406 178.894531 66.792969 C 180.300781 66.523438 181.722656 66.371094 183.15625 66.34375 C 184.820312 66.304688 186.46875 66.425781 188.105469 66.714844 C 189.746094 67.003906 191.335938 67.449219 192.886719 68.054688 C 194.433594 68.660156 195.910156 69.410156 197.308594 70.304688 C 198.707031 71.203125 200.003906 72.226562 201.199219 73.382812 C 204.648438 76.699219 206.527344 80.875 207.371094 87.195312 L 202.617188 80.804688 C 202.347656 80.445312 201.988281 80.25 201.539062 80.21875 C 201.503906 80.214844 201.46875 80.214844 201.433594 80.214844 Z M 158.421875 89.144531 L 158.421875 89.160156 Z M 158.421875 89.144531 " fill-opacity="1" fill-rule="nonzero"/><path fill="#ffffff" d="M 161.824219 106.289062 C 161.003906 105.972656 160.230469 105.5625 159.511719 105.054688 C 158.789062 104.546875 158.144531 103.960938 157.570312 103.292969 C 156.996094 102.625 156.511719 101.898438 156.117188 101.113281 C 155.726562 100.324219 155.433594 99.5 155.246094 98.640625 C 155.105469 97.96875 155.03125 97.289062 155.023438 96.601562 C 155.015625 95.914062 155.074219 95.234375 155.203125 94.558594 C 155.328125 93.882812 155.519531 93.226562 155.777344 92.585938 C 156.03125 91.949219 156.347656 91.34375 156.726562 90.765625 C 157.101562 90.191406 157.53125 89.65625 158.011719 89.167969 C 158.492188 88.675781 159.015625 88.234375 159.585938 87.847656 C 160.152344 87.457031 160.753906 87.128906 161.386719 86.859375 C 162.019531 86.589844 162.671875 86.382812 163.347656 86.242188 C 164.019531 86.101562 164.699219 86.023438 165.390625 86.019531 C 166.078125 86.011719 166.757812 86.070312 167.4375 86.195312 C 168.113281 86.324219 168.769531 86.515625 169.410156 86.769531 C 170.046875 87.027344 170.65625 87.339844 171.234375 87.71875 C 171.808594 88.09375 172.34375 88.519531 172.835938 89 C 173.328125 89.480469 173.769531 90.003906 174.15625 90.574219 C 174.546875 91.140625 174.875 91.738281 175.144531 92.371094 C 175.417969 93.003906 175.621094 93.65625 175.765625 94.328125 C 176.050781 95.699219 176.070312 97.070312 175.8125 98.445312 " fill-opacity="1" fill-rule="nonzero"/><path fill="#222433" d="M 161.824219 107.757812 C 162.179688 107.757812 162.492188 107.644531 162.765625 107.421875 C 163.035156 107.195312 163.207031 106.910156 163.273438 106.5625 C 163.335938 106.214844 163.285156 105.886719 163.113281 105.578125 C 162.941406 105.269531 162.691406 105.046875 162.363281 104.917969 C 161.65625 104.648438 160.992188 104.292969 160.371094 103.855469 C 159.75 103.417969 159.191406 102.910156 158.695312 102.335938 C 158.199219 101.761719 157.78125 101.136719 157.441406 100.457031 C 157.101562 99.78125 156.851562 99.070312 156.6875 98.332031 C 156.566406 97.753906 156.507812 97.171875 156.503906 96.582031 C 156.5 95.996094 156.554688 95.410156 156.667969 94.832031 C 156.777344 94.253906 156.945312 93.695312 157.167969 93.148438 C 157.386719 92.605469 157.660156 92.085938 157.984375 91.59375 C 158.308594 91.101562 158.675781 90.644531 159.089844 90.226562 C 159.503906 89.808594 159.953125 89.429688 160.441406 89.101562 C 160.925781 88.769531 161.441406 88.488281 161.984375 88.257812 C 162.527344 88.027344 163.085938 87.851562 163.664062 87.730469 C 164.238281 87.609375 164.820312 87.542969 165.410156 87.539062 C 166 87.53125 166.585938 87.582031 167.164062 87.6875 C 167.742188 87.796875 168.308594 87.960938 168.855469 88.175781 C 169.402344 88.394531 169.921875 88.664062 170.417969 88.984375 C 170.910156 89.304688 171.371094 89.667969 171.792969 90.078125 C 172.214844 90.488281 172.59375 90.9375 172.929688 91.421875 C 173.265625 91.902344 173.550781 92.417969 173.785156 92.957031 C 174.019531 93.496094 174.199219 94.054688 174.324219 94.628906 C 174.570312 95.808594 174.582031 96.992188 174.363281 98.179688 C 174.328125 98.371094 174.332031 98.5625 174.371094 98.75 C 174.414062 98.941406 174.488281 99.117188 174.601562 99.277344 C 174.710938 99.441406 174.847656 99.574219 175.011719 99.679688 C 175.175781 99.785156 175.351562 99.855469 175.546875 99.890625 C 175.738281 99.925781 175.929688 99.925781 176.121094 99.882812 C 176.3125 99.84375 176.488281 99.765625 176.648438 99.65625 C 176.808594 99.546875 176.941406 99.410156 177.046875 99.246094 C 177.15625 99.082031 177.226562 98.90625 177.261719 98.714844 C 177.550781 97.148438 177.53125 95.585938 177.207031 94.03125 C 177.042969 93.261719 176.808594 92.519531 176.5 91.796875 C 176.195312 91.078125 175.816406 90.394531 175.375 89.746094 C 174.929688 89.097656 174.429688 88.5 173.867188 87.953125 C 173.308594 87.40625 172.699219 86.917969 172.039062 86.488281 C 171.382812 86.058594 170.691406 85.699219 169.960938 85.40625 C 169.234375 85.113281 168.484375 84.894531 167.710938 84.75 C 166.941406 84.605469 166.164062 84.539062 165.378906 84.546875 C 164.59375 84.554688 163.816406 84.640625 163.046875 84.800781 C 162.28125 84.960938 161.535156 85.195312 160.8125 85.503906 C 160.089844 85.8125 159.40625 86.1875 158.757812 86.628906 C 158.109375 87.070312 157.511719 87.574219 156.960938 88.132812 C 156.414062 88.695312 155.921875 89.300781 155.492188 89.957031 C 155.066406 90.613281 154.703125 91.308594 154.410156 92.035156 C 154.117188 92.761719 153.898438 93.511719 153.753906 94.28125 C 153.609375 95.050781 153.542969 95.828125 153.550781 96.613281 C 153.558594 97.394531 153.644531 98.171875 153.804688 98.9375 C 154.019531 99.917969 154.351562 100.855469 154.796875 101.75 C 155.246094 102.648438 155.792969 103.476562 156.445312 104.234375 C 157.101562 104.996094 157.835938 105.667969 158.652344 106.246094 C 159.472656 106.824219 160.347656 107.292969 161.285156 107.65625 C 161.457031 107.722656 161.636719 107.757812 161.824219 107.757812 Z M 161.824219 107.757812 " fill-opacity="1" fill-rule="nonzero"/><path fill="#222433" d="M 199.179688 114.71875 C 199.402344 114.71875 199.613281 114.667969 199.8125 114.574219 L 205.359375 111.925781 C 205.53125 111.84375 205.683594 111.734375 205.8125 111.59375 C 205.941406 111.453125 206.039062 111.292969 206.105469 111.113281 C 206.171875 110.933594 206.203125 110.75 206.195312 110.558594 C 206.191406 110.367188 206.148438 110.183594 206.074219 110.011719 L 201.703125 100.0625 C 201.625 99.882812 201.515625 99.726562 201.375 99.589844 C 201.234375 99.457031 201.074219 99.351562 200.890625 99.28125 C 200.707031 99.210938 200.519531 99.175781 200.324219 99.179688 C 200.128906 99.183594 199.941406 99.226562 199.761719 99.304688 C 199.585938 99.382812 199.425781 99.492188 199.292969 99.632812 C 199.15625 99.773438 199.054688 99.933594 198.980469 100.117188 C 198.910156 100.296875 198.878906 100.484375 198.882812 100.679688 C 198.886719 100.875 198.925781 101.0625 199.003906 101.242188 L 202.800781 109.886719 L 198.539062 111.921875 C 198.230469 112.070312 198 112.296875 197.847656 112.605469 C 197.699219 112.917969 197.660156 113.238281 197.738281 113.574219 C 197.816406 113.910156 197.988281 114.183594 198.257812 114.398438 C 198.527344 114.613281 198.832031 114.71875 199.179688 114.71875 Z M 199.179688 114.71875 " fill-opacity="1" fill-rule="nonzero"/><path fill="#222433" d="M 190.34375 102.171875 C 190.34375 102.410156 190.386719 102.644531 190.480469 102.863281 C 190.574219 103.085938 190.703125 103.28125 190.875 103.453125 C 191.042969 103.625 191.242188 103.753906 191.464844 103.847656 C 191.6875 103.9375 191.917969 103.984375 192.160156 103.984375 C 192.398438 103.984375 192.628906 103.9375 192.851562 103.847656 C 193.074219 103.753906 193.273438 103.625 193.441406 103.453125 C 193.613281 103.28125 193.742188 103.085938 193.835938 102.863281 C 193.929688 102.644531 193.972656 102.410156 193.972656 102.171875 C 193.972656 101.929688 193.929688 101.699219 193.835938 101.476562 C 193.742188 101.253906 193.613281 101.058594 193.441406 100.886719 C 193.273438 100.71875 193.074219 100.585938 192.851562 100.496094 C 192.628906 100.402344 192.398438 100.355469 192.160156 100.355469 C 191.917969 100.355469 191.6875 100.402344 191.464844 100.496094 C 191.242188 100.585938 191.042969 100.71875 190.875 100.886719 C 190.703125 101.058594 190.574219 101.253906 190.480469 101.476562 C 190.386719 101.699219 190.34375 101.929688 190.34375 102.171875 Z M 190.34375 102.171875 " fill-opacity="1" fill-rule="nonzero"/><path fill="#222433" d="M 203.59375 103.640625 C 203.59375 103.882812 203.640625 104.113281 203.734375 104.335938 C 203.824219 104.558594 203.957031 104.753906 204.125 104.921875 C 204.296875 105.09375 204.492188 105.222656 204.714844 105.316406 C 204.9375 105.410156 205.171875 105.453125 205.410156 105.453125 C 205.652344 105.453125 205.882812 105.410156 206.105469 105.316406 C 206.328125 105.222656 206.523438 105.09375 206.695312 104.921875 C 206.867188 104.753906 206.996094 104.558594 207.089844 104.335938 C 207.179688 104.113281 207.226562 103.882812 207.226562 103.640625 C 207.226562 103.402344 207.179688 103.167969 207.089844 102.945312 C 206.996094 102.726562 206.867188 102.527344 206.695312 102.359375 C 206.523438 102.1875 206.328125 102.058594 206.105469 101.964844 C 205.882812 101.875 205.652344 101.828125 205.410156 101.828125 C 205.171875 101.828125 204.9375 101.875 204.714844 101.964844 C 204.492188 102.058594 204.296875 102.1875 204.125 102.359375 C 203.957031 102.527344 203.824219 102.726562 203.734375 102.945312 C 203.640625 103.167969 203.59375 103.402344 203.59375 103.640625 Z M 203.59375 103.640625 " fill-opacity="1" fill-rule="nonzero"/><path fill="#222433" d="M 195.304688 121.480469 C 196.65625 121.484375 197.898438 121.105469 199.019531 120.351562 L 199.832031 119.824219 C 200 119.722656 200.140625 119.589844 200.253906 119.429688 C 200.371094 119.265625 200.449219 119.089844 200.492188 118.898438 C 200.535156 118.707031 200.539062 118.511719 200.503906 118.316406 C 200.472656 118.121094 200.398438 117.941406 200.292969 117.777344 C 200.183594 117.609375 200.050781 117.472656 199.886719 117.359375 C 199.722656 117.25 199.542969 117.175781 199.351562 117.136719 C 199.15625 117.09375 198.960938 117.09375 198.769531 117.132812 C 198.574219 117.171875 198.394531 117.246094 198.230469 117.355469 L 197.398438 117.894531 C 196.976562 118.175781 196.519531 118.367188 196.019531 118.464844 C 195.523438 118.5625 195.027344 118.5625 194.53125 118.464844 C 194.035156 118.363281 193.578125 118.175781 193.15625 117.890625 C 192.734375 117.609375 192.386719 117.257812 192.105469 116.839844 C 192.03125 116.734375 191.96875 116.625 191.910156 116.515625 L 191.808594 116.316406 C 191.722656 116.140625 191.605469 115.992188 191.457031 115.863281 C 191.308594 115.734375 191.144531 115.640625 190.957031 115.582031 C 190.773438 115.519531 190.582031 115.496094 190.386719 115.507812 C 190.195312 115.523438 190.007812 115.574219 189.835938 115.660156 C 189.660156 115.75 189.507812 115.867188 189.382812 116.011719 C 189.253906 116.160156 189.160156 116.328125 189.097656 116.511719 C 189.035156 116.695312 189.011719 116.886719 189.027344 117.082031 C 189.039062 117.273438 189.089844 117.460938 189.175781 117.632812 L 189.277344 117.828125 C 189.390625 118.050781 189.515625 118.265625 189.660156 118.472656 C 190.289062 119.410156 191.105469 120.148438 192.105469 120.679688 C 193.105469 121.214844 194.171875 121.480469 195.304688 121.480469 Z M 195.304688 121.480469 " fill-opacity="1" fill-rule="nonzero"/><path fill="#222433" d="M 178.074219 133.734375 C 178.253906 133.734375 178.429688 133.703125 178.601562 133.636719 C 178.769531 133.570312 178.925781 133.476562 179.058594 133.355469 C 179.195312 133.234375 179.304688 133.089844 179.386719 132.929688 C 179.46875 132.765625 179.519531 132.59375 179.535156 132.414062 C 179.554688 132.234375 179.539062 132.054688 179.492188 131.878906 C 179.445312 131.703125 179.367188 131.542969 179.257812 131.394531 C 179.152344 131.25 179.019531 131.125 178.867188 131.027344 C 178.714844 130.929688 178.546875 130.863281 178.371094 130.824219 C 174.292969 129.992188 170.710938 128.179688 167.625 125.394531 C 167.480469 125.257812 167.316406 125.15625 167.132812 125.089844 C 166.949219 125.019531 166.757812 124.992188 166.558594 125 C 166.363281 125.007812 166.175781 125.054688 165.996094 125.136719 C 165.820312 125.21875 165.664062 125.332031 165.53125 125.480469 C 165.398438 125.625 165.300781 125.789062 165.234375 125.976562 C 165.167969 126.160156 165.140625 126.351562 165.148438 126.546875 C 165.160156 126.742188 165.210938 126.929688 165.292969 127.109375 C 165.378906 127.285156 165.496094 127.4375 165.644531 127.570312 C 167.355469 129.113281 169.238281 130.40625 171.296875 131.449219 C 173.355469 132.488281 175.511719 133.242188 177.773438 133.703125 C 177.871094 133.726562 177.972656 133.734375 178.074219 133.734375 Z M 178.074219 133.734375 " fill-opacity="1" fill-rule="nonzero"/><path fill="#222433" d="M 169.285156 99.964844 C 169.578125 99.964844 169.84375 99.886719 170.089844 99.726562 C 170.332031 99.566406 170.515625 99.355469 170.632812 99.089844 C 170.75 98.820312 170.785156 98.546875 170.738281 98.257812 C 170.691406 97.96875 170.570312 97.71875 170.375 97.503906 L 164.285156 90.839844 C 164.15625 90.695312 164 90.582031 163.824219 90.5 C 163.648438 90.414062 163.460938 90.371094 163.265625 90.359375 C 163.070312 90.351562 162.882812 90.378906 162.699219 90.445312 C 162.515625 90.511719 162.351562 90.609375 162.207031 90.742188 C 162.0625 90.875 161.949219 91.027344 161.867188 91.203125 C 161.78125 91.382812 161.738281 91.566406 161.726562 91.761719 C 161.71875 91.957031 161.746094 92.144531 161.8125 92.328125 C 161.878906 92.511719 161.980469 92.675781 162.109375 92.820312 L 165.59375 96.632812 L 160.945312 96.148438 C 160.753906 96.128906 160.5625 96.148438 160.375 96.203125 C 160.1875 96.257812 160.015625 96.347656 159.867188 96.472656 C 159.714844 96.59375 159.59375 96.742188 159.5 96.914062 C 159.40625 97.082031 159.347656 97.265625 159.328125 97.460938 C 159.308594 97.65625 159.328125 97.84375 159.382812 98.03125 C 159.4375 98.21875 159.527344 98.386719 159.648438 98.539062 C 159.773438 98.691406 159.921875 98.8125 160.09375 98.90625 C 160.265625 99 160.445312 99.054688 160.640625 99.074219 L 169.132812 99.957031 C 169.183594 99.964844 169.234375 99.964844 169.285156 99.964844 Z M 169.285156 99.964844 " fill-opacity="1" fill-rule="nonzero"/><path fill="#ffffff" d="M 113.28125 228.230469 C 101.007812 229.164062 92.417969 244.308594 101.253906 254.109375 C 101.351562 254.257812 101.5 254.355469 101.597656 254.503906 C 105.671875 258.71875 109.011719 263.667969 107.144531 272 C 105.820312 277.882812 102.921875 286.507812 108.519531 287.539062 C 112.398438 288.273438 116.226562 278.371094 119.269531 271.117188 C 119.613281 282.390625 120.101562 297.144531 125.207031 297.289062 C 130.3125 297.4375 131.636719 289.890625 131.046875 275.285156 C 134.484375 291.214844 133.453125 296.851562 138.363281 296.410156 C 146.511719 295.671875 141.355469 262.6875 136.546875 251.757812 C 136.546875 251.757812 135.464844 249.113281 132.03125 239.457031 C 128.644531 229.605469 119.710938 227.742188 113.28125 228.230469 Z M 113.28125 228.230469 " fill-opacity="1" fill-rule="nonzero"/><path fill="#222433" d="M 125.355469 298.761719 C 126.089844 298.773438 126.800781 298.640625 127.480469 298.359375 C 128.160156 298.078125 128.753906 297.671875 129.265625 297.144531 C 130.695312 295.699219 131.648438 293.273438 132.167969 289.558594 C 132.589844 291.921875 132.972656 293.652344 133.550781 294.945312 C 134.523438 297.125 136.140625 298.082031 138.496094 297.871094 C 139.546875 297.777344 141.039062 297.253906 142.183594 295.316406 C 146.847656 287.429688 142.164062 260.867188 137.894531 251.164062 C 137.894531 251.164062 136.785156 248.421875 133.417969 238.960938 C 129.148438 226.535156 116.839844 226.480469 113.167969 226.761719 C 106.371094 227.277344 100.03125 232.035156 97.398438 238.597656 C 95.039062 244.480469 96.027344 250.460938 100.105469 255.03125 C 100.191406 255.140625 100.285156 255.246094 100.386719 255.34375 L 100.410156 255.367188 C 100.449219 255.421875 100.492188 255.472656 100.539062 255.519531 C 104.820312 259.949219 107.339844 264.390625 105.707031 271.675781 C 105.550781 272.367188 105.371094 273.101562 105.1875 273.859375 C 104.066406 278.46875 102.792969 283.695312 104.777344 286.757812 C 105.171875 287.359375 105.671875 287.851562 106.277344 288.238281 C 106.882812 288.628906 107.542969 288.875 108.253906 288.980469 C 112.132812 289.71875 115.199219 284.261719 118.046875 277.789062 C 118.636719 289.953125 120.011719 298.609375 125.164062 298.757812 C 125.230469 298.761719 125.292969 298.761719 125.355469 298.761719 Z M 131.050781 273.8125 C 130.988281 273.8125 130.925781 273.816406 130.863281 273.824219 C 130.679688 273.847656 130.507812 273.902344 130.34375 273.992188 C 130.183594 274.078125 130.042969 274.195312 129.921875 274.335938 C 129.804688 274.476562 129.714844 274.632812 129.65625 274.808594 C 129.59375 274.980469 129.570312 275.160156 129.578125 275.34375 C 129.863281 282.484375 129.929688 292.296875 127.171875 295.082031 C 126.648438 295.625 126.007812 295.875 125.25 295.820312 C 124.746094 295.804688 123.015625 295.210938 121.90625 288.148438 C 121.105469 283.042969 120.902344 276.40625 120.742188 271.074219 C 120.730469 270.726562 120.613281 270.421875 120.386719 270.160156 C 120.160156 269.898438 119.878906 269.734375 119.535156 269.671875 C 119.195312 269.609375 118.875 269.660156 118.570312 269.824219 C 118.265625 269.988281 118.042969 270.230469 117.910156 270.550781 L 117.296875 272.023438 C 115.863281 275.464844 114.238281 279.363281 112.570312 282.222656 C 110.339844 286.054688 109.113281 286.152344 108.792969 286.09375 C 108.132812 286.027344 107.617188 285.714844 107.25 285.164062 C 105.953125 283.164062 107.117188 278.394531 108.050781 274.558594 C 108.238281 273.785156 108.421875 273.035156 108.582031 272.324219 C 110.605469 263.277344 106.773438 257.757812 102.726562 253.550781 C 102.644531 253.449219 102.558594 253.355469 102.46875 253.265625 L 102.441406 253.242188 C 102.414062 253.203125 102.382812 253.164062 102.347656 253.125 C 99.003906 249.414062 98.195312 244.519531 100.132812 239.695312 C 102.355469 234.148438 107.6875 230.132812 113.390625 229.699219 C 117.414062 229.390625 127.144531 229.777344 130.636719 239.933594 C 134.050781 249.527344 135.136719 252.203125 135.183594 252.3125 C 139.496094 262.117188 143.367188 287.53125 139.648438 293.828125 C 139.09375 294.765625 138.574219 294.914062 138.230469 294.945312 C 136.316406 295.128906 135.90625 294.136719 134.585938 286.203125 C 134.089844 283.226562 133.46875 279.523438 132.488281 274.976562 C 132.417969 274.636719 132.246094 274.359375 131.976562 274.140625 C 131.707031 273.921875 131.398438 273.8125 131.050781 273.8125 Z M 100.371094 255.316406 L 100.375 255.324219 Z M 102.476562 253.292969 Z M 102.476562 253.292969 " fill-opacity="1" fill-rule="nonzero"/><path fill="#ffffff" d="M 259.144531 160.839844 C 261.207031 161.425781 263.058594 159.410156 263.605469 159.160156 C 272.523438 154.578125 281.191406 153.90625 281.90625 148.90625 C 281.972656 148.523438 281.964844 148.140625 281.886719 147.757812 C 281.808594 147.375 281.664062 147.019531 281.457031 146.6875 C 281.246094 146.359375 280.984375 146.078125 280.671875 145.84375 C 280.355469 145.613281 280.011719 145.441406 279.636719 145.335938 C 276.859375 144.582031 272.523438 145.800781 266.046875 147.015625 C 259.863281 148.152344 253.464844 144.496094 246.441406 146.007812 " fill-opacity="1" fill-rule="nonzero"/><path fill="#222433" d="M 259.917969 162.417969 C 261.71875 162.417969 263.191406 161.289062 263.972656 160.695312 C 264.09375 160.601562 264.195312 160.519531 264.273438 160.46875 L 264.28125 160.46875 C 267.089844 159.082031 269.980469 157.878906 272.945312 156.855469 C 278.433594 154.847656 282.773438 153.261719 283.363281 149.117188 C 283.457031 148.554688 283.445312 147.992188 283.328125 147.433594 C 283.210938 146.875 283 146.355469 282.691406 145.878906 C 282.382812 145.398438 281.996094 144.988281 281.535156 144.652344 C 281.078125 144.3125 280.570312 144.070312 280.019531 143.917969 C 277.484375 143.230469 274.140625 143.902344 269.507812 144.839844 C 268.351562 145.070312 267.109375 145.324219 265.773438 145.574219 C 263.117188 146.058594 260.308594 145.554688 257.335938 145.019531 C 253.785156 144.378906 250.113281 143.714844 246.128906 144.574219 C 245.941406 144.617188 245.765625 144.691406 245.605469 144.804688 C 245.445312 144.914062 245.316406 145.050781 245.210938 145.214844 C 245.105469 145.378906 245.035156 145.554688 245 145.746094 C 244.964844 145.9375 244.96875 146.128906 245.011719 146.320312 C 245.050781 146.507812 245.125 146.683594 245.238281 146.84375 C 245.347656 147.003906 245.484375 147.136719 245.648438 147.242188 C 245.808594 147.347656 245.988281 147.417969 246.179688 147.453125 C 246.371094 147.488281 246.558594 147.488281 246.75 147.449219 C 250.164062 146.710938 253.542969 147.324219 256.8125 147.910156 C 259.914062 148.472656 263.121094 149.050781 266.3125 148.464844 C 267.667969 148.210938 268.925781 147.957031 270.09375 147.722656 C 274.328125 146.867188 277.386719 146.25 279.25 146.757812 C 279.453125 146.8125 279.636719 146.90625 279.804688 147.03125 C 279.972656 147.15625 280.113281 147.308594 280.222656 147.488281 C 280.335938 147.664062 280.410156 147.855469 280.449219 148.0625 C 280.488281 148.269531 280.492188 148.472656 280.457031 148.679688 C 280.125 150.992188 277.15625 152.183594 271.933594 154.09375 C 268.859375 155.15625 265.867188 156.40625 262.953125 157.84375 C 262.679688 157.988281 262.421875 158.164062 262.183594 158.363281 C 261.535156 158.855469 260.457031 159.683594 259.554688 159.425781 C 259.367188 159.371094 259.175781 159.355469 258.980469 159.378906 C 258.785156 159.402344 258.605469 159.460938 258.433594 159.554688 C 258.261719 159.648438 258.117188 159.773438 257.996094 159.925781 C 257.875 160.078125 257.785156 160.25 257.734375 160.4375 C 257.679688 160.625 257.664062 160.8125 257.6875 161.007812 C 257.707031 161.203125 257.765625 161.382812 257.863281 161.554688 C 257.957031 161.726562 258.082031 161.871094 258.234375 161.992188 C 258.386719 162.113281 258.554688 162.199219 258.742188 162.253906 C 259.128906 162.363281 259.519531 162.417969 259.917969 162.417969 Z M 264.253906 160.480469 L 264.222656 160.492188 Z M 264.253906 160.480469 " fill-opacity="1" fill-rule="nonzero"/><path fill="#ffffff" d="M 258.050781 150.042969 C 256.117188 147.898438 253.929688 146.765625 253.046875 146.554688 C 241.433594 142.941406 231.210938 153.527344 235.164062 164.117188 C 237.226562 169.703125 242.234375 175.542969 251.824219 174.660156 C 261.25 173.820312 265.960938 171.804688 265.960938 171.804688 C 284.011719 166.847656 298.820312 161.554688 302.3125 157.058594 C 303.910156 155.039062 302.144531 151.933594 299.703125 151.21875 C 294.613281 149.746094 276.101562 158.402344 267.898438 159.324219 " fill-opacity="1" fill-rule="nonzero"/><path fill="#222433" d="M 249.886719 176.222656 C 250.550781 176.222656 251.242188 176.191406 251.960938 176.125 C 260.871094 175.328125 265.679688 173.507812 266.441406 173.195312 C 288 167.269531 300.113281 162.285156 303.476562 157.957031 C 303.9375 157.363281 304.226562 156.695312 304.347656 155.953125 C 304.46875 155.207031 304.40625 154.484375 304.15625 153.773438 C 303.84375 152.824219 303.332031 152 302.621094 151.300781 C 301.90625 150.601562 301.074219 150.101562 300.121094 149.804688 C 297.003906 148.90625 291.160156 150.734375 281.910156 153.847656 C 276.605469 155.636719 271.121094 157.484375 267.734375 157.863281 C 267.539062 157.886719 267.359375 157.945312 267.1875 158.039062 C 267.015625 158.132812 266.871094 158.257812 266.75 158.410156 C 266.628906 158.5625 266.539062 158.730469 266.484375 158.917969 C 266.433594 159.105469 266.417969 159.296875 266.4375 159.492188 C 266.460938 159.683594 266.519531 159.867188 266.613281 160.035156 C 266.707031 160.207031 266.828125 160.351562 266.984375 160.476562 C 267.136719 160.597656 267.304688 160.683594 267.492188 160.738281 C 267.679688 160.792969 267.871094 160.808594 268.066406 160.789062 C 271.761719 160.371094 277.148438 158.554688 282.851562 156.636719 C 289.085938 154.535156 296.84375 151.921875 299.292969 152.628906 C 299.777344 152.789062 300.199219 153.046875 300.5625 153.40625 C 300.921875 153.761719 301.183594 154.183594 301.347656 154.664062 C 301.5625 155.191406 301.5 155.6875 301.160156 156.144531 C 299.503906 158.273438 292.699219 162.933594 265.574219 170.386719 C 265.507812 170.402344 265.445312 170.425781 265.382812 170.449219 C 265.339844 170.46875 260.71875 172.390625 251.695312 173.195312 C 241.925781 174.097656 238.011719 167.574219 236.546875 163.609375 C 236.148438 162.566406 235.902344 161.492188 235.808594 160.378906 C 235.71875 159.269531 235.785156 158.167969 236.007812 157.074219 C 236.234375 155.980469 236.605469 154.945312 237.128906 153.957031 C 237.652344 152.972656 238.304688 152.082031 239.082031 151.28125 C 239.9375 150.398438 240.902344 149.648438 241.96875 149.035156 C 243.039062 148.421875 244.167969 147.96875 245.367188 147.675781 C 246.5625 147.378906 247.777344 147.257812 249.007812 147.304688 C 250.238281 147.355469 251.4375 147.570312 252.609375 147.957031 C 252.640625 147.96875 252.671875 147.976562 252.707031 147.984375 C 254.375 148.652344 255.792969 149.664062 256.960938 151.023438 C 257.089844 151.167969 257.242188 151.285156 257.421875 151.367188 C 257.597656 151.453125 257.78125 151.5 257.976562 151.507812 C 258.171875 151.519531 258.363281 151.492188 258.546875 151.425781 C 258.730469 151.359375 258.894531 151.261719 259.039062 151.132812 C 259.183594 151 259.300781 150.847656 259.382812 150.671875 C 259.46875 150.496094 259.515625 150.308594 259.523438 150.117188 C 259.535156 149.921875 259.507812 149.730469 259.441406 149.546875 C 259.375 149.363281 259.277344 149.199219 259.148438 149.054688 C 257.019531 146.699219 254.597656 145.429688 253.441406 145.132812 C 247.433594 143.28125 241.113281 144.859375 236.945312 149.257812 C 235.984375 150.257812 235.179688 151.375 234.535156 152.605469 C 233.886719 153.832031 233.425781 155.128906 233.144531 156.488281 C 232.867188 157.847656 232.78125 159.21875 232.890625 160.601562 C 233 161.984375 233.296875 163.328125 233.785156 164.625 C 235.109375 168.226562 239.265625 176.222656 249.886719 176.222656 Z M 249.886719 176.222656 " fill-opacity="1" fill-rule="nonzero"/><path fill="#ffffff" d="M 264.824219 172.265625 C 281.78125 164.324219 292.550781 158.402344 295.246094 153.402344 C 295.386719 153.136719 295.496094 152.855469 295.578125 152.5625 C 295.65625 152.273438 295.703125 151.976562 295.714844 151.671875 C 295.730469 151.371094 295.707031 151.070312 295.652344 150.773438 C 295.597656 150.476562 295.511719 150.1875 295.394531 149.910156 C 295.273438 149.632812 295.125 149.371094 294.949219 149.125 C 294.769531 148.882812 294.566406 148.660156 294.339844 148.460938 C 294.113281 148.261719 293.863281 148.089844 293.597656 147.945312 C 293.332031 147.800781 293.054688 147.6875 292.761719 147.605469 C 289.859375 146.851562 272.902344 156.21875 265.078125 157.058594 " fill-opacity="1" fill-rule="nonzero"/><path fill="#222433" d="M 264.828125 173.738281 C 265.046875 173.738281 265.253906 173.691406 265.453125 173.597656 C 282.449219 165.636719 293.578125 159.597656 296.542969 154.097656 C 296.738281 153.734375 296.890625 153.351562 296.996094 152.953125 C 297.105469 152.554688 297.171875 152.148438 297.1875 151.738281 C 297.207031 151.324219 297.179688 150.914062 297.101562 150.507812 C 297.027344 150.101562 296.910156 149.707031 296.746094 149.328125 C 296.585938 148.949219 296.382812 148.589844 296.136719 148.257812 C 295.894531 147.921875 295.617188 147.621094 295.304688 147.347656 C 294.996094 147.074219 294.65625 146.839844 294.292969 146.644531 C 293.929688 146.449219 293.546875 146.296875 293.148438 146.183594 C 291.359375 145.71875 287.785156 147.171875 281.097656 149.996094 C 275.347656 152.425781 268.832031 155.175781 264.921875 155.59375 C 264.722656 155.613281 264.539062 155.667969 264.367188 155.761719 C 264.191406 155.855469 264.042969 155.976562 263.917969 156.128906 C 263.792969 156.28125 263.703125 156.453125 263.648438 156.640625 C 263.589844 156.828125 263.574219 157.019531 263.59375 157.214844 C 263.613281 157.410156 263.671875 157.597656 263.769531 157.769531 C 263.863281 157.941406 263.988281 158.085938 264.140625 158.210938 C 264.296875 158.332031 264.46875 158.421875 264.65625 158.472656 C 264.847656 158.527344 265.039062 158.542969 265.234375 158.519531 C 269.578125 158.054688 276.308594 155.210938 282.242188 152.703125 C 286.273438 151.003906 291.292969 148.898438 292.421875 149.03125 C 293.1875 149.257812 293.726562 149.738281 294.035156 150.476562 C 294.367188 151.234375 294.339844 151.976562 293.945312 152.707031 C 291.226562 157.753906 278.042969 164.453125 264.203125 170.933594 C 263.890625 171.078125 263.65625 171.308594 263.503906 171.617188 C 263.351562 171.925781 263.3125 172.25 263.390625 172.585938 C 263.464844 172.921875 263.636719 173.199219 263.90625 173.414062 C 264.175781 173.628906 264.484375 173.738281 264.828125 173.734375 Z M 264.828125 173.738281 " fill-opacity="1" fill-rule="nonzero"/></svg>