<svg xmlns="http://www.w3.org/2000/svg" xmlns:xlink="http://www.w3.org/1999/xlink" width="500" zoomAndPan="magnify" viewBox="0 0 375 299.999988" height="400" preserveAspectRatio="xMidYMid meet" version="1.0"><defs><clipPath id="09bc1e68fa"><path d="M 0 200.628906 L 371 200.628906 L 371 270 L 0 270 Z M 0 200.628906 " clip-rule="nonzero"/></clipPath><clipPath id="bd68c6a0d6"><path d="M 205 195 L 287 195 L 287 228 L 205 228 Z M 205 195 " clip-rule="nonzero"/></clipPath><clipPath id="36192687f4"><path d="M 52.640625 176 L 137 176 L 137 228 L 52.640625 228 Z M 52.640625 176 " clip-rule="nonzero"/></clipPath><clipPath id="c9d1efd1e0"><path d="M 291.050781 192.007812 L 337.550781 192.007812 L 337.550781 239.257812 L 291.050781 239.257812 Z M 291.050781 192.007812 " clip-rule="nonzero"/></clipPath></defs><g clip-path="url(#09bc1e68fa)"><path fill="#f7f4f2" d="M 370.414062 251.792969 C 342.042969 278.585938 1.65625 267.761719 0.292969 265.90625 C -17.566406 241.191406 101.128906 209.683594 118.347656 206.6875 C 133.871094 204.144531 149.53125 202.355469 165.222656 201.371094 C 180.695312 200.613281 196.207031 201.023438 211.621094 201.234375 C 234.800781 201.640625 257.96875 203.476562 280.792969 207.578125 C 354.429688 220.824219 374.257812 248.164062 370.414062 251.792969 Z M 370.414062 251.792969 " fill-opacity="1" fill-rule="nonzero"/></g><g clip-path="url(#bd68c6a0d6)"><path fill="#ff7f50" d="M 274.730469 212.042969 C 274.730469 212.042969 256.753906 207.550781 248.753906 195.867188 C 248.609375 195.914062 248.464844 195.9375 248.3125 195.941406 C 245.542969 195.988281 242.773438 195.980469 240.003906 195.960938 C 239.996094 196.242188 239.902344 196.496094 239.730469 196.722656 C 239.554688 196.945312 239.332031 197.097656 239.0625 197.175781 C 238.476562 197.335938 237.898438 197.519531 237.320312 197.707031 C 236.695312 198.039062 236.070312 198.441406 235.429688 198.597656 C 234.304688 198.871094 233.261719 198.808594 232.363281 199.648438 C 230.746094 201.15625 229.648438 202.703125 227.304688 203.113281 C 222.402344 203.96875 218.449219 200.128906 215.40625 196.828125 C 215.273438 196.6875 215.171875 196.523438 215.105469 196.34375 C 211.953125 196.453125 208.800781 196.550781 205.648438 196.570312 L 205.628906 228.007812 L 221.335938 228.007812 L 221.234375 213.859375 L 243.695312 228.007812 L 286.085938 228.007812 C 286.160156 227.121094 286.15625 226.234375 286.078125 225.351562 C 285.996094 224.464844 285.835938 223.59375 285.601562 222.734375 C 285.367188 221.878906 285.058594 221.046875 284.679688 220.242188 C 284.296875 219.4375 283.847656 218.675781 283.332031 217.949219 C 282.816406 217.226562 282.242188 216.550781 281.609375 215.925781 C 280.972656 215.300781 280.289062 214.738281 279.554688 214.234375 C 278.824219 213.730469 278.050781 213.296875 277.242188 212.925781 C 276.429688 212.558594 275.59375 212.265625 274.730469 212.042969 Z M 274.730469 212.042969 " fill-opacity="1" fill-rule="nonzero"/></g><path fill="#ffffff" d="M 250.707031 114.453125 L 250.722656 196.105469 L 240.761719 196.148438 L 215.035156 196.21875 L 200.734375 196.269531 L 200.417969 122.824219 " fill-opacity="1" fill-rule="nonzero"/><path fill="#000000" d="M 200.734375 197.078125 C 200.511719 197.078125 200.320312 197 200.160156 196.84375 C 200.003906 196.683594 199.921875 196.496094 199.921875 196.273438 L 199.605469 122.828125 C 199.605469 122.605469 199.683594 122.414062 199.84375 122.253906 C 200 122.097656 200.191406 122.015625 200.414062 122.015625 C 200.640625 122.011719 200.832031 122.089844 200.992188 122.25 C 201.152344 122.40625 201.230469 122.597656 201.230469 122.824219 L 201.542969 195.457031 L 215.03125 195.40625 L 240.757812 195.335938 L 249.914062 195.300781 L 249.894531 114.453125 C 249.894531 114.226562 249.972656 114.039062 250.132812 113.878906 C 250.289062 113.722656 250.480469 113.640625 250.707031 113.640625 C 250.929688 113.640625 251.121094 113.722656 251.28125 113.878906 C 251.4375 114.039062 251.515625 114.226562 251.515625 114.453125 L 251.535156 196.105469 C 251.535156 196.328125 251.457031 196.519531 251.296875 196.679688 C 251.140625 196.835938 250.949219 196.917969 250.726562 196.917969 L 240.761719 196.957031 L 215.035156 197.027344 L 200.738281 197.078125 Z M 200.734375 197.078125 " fill-opacity="1" fill-rule="nonzero"/><g clip-path="url(#36192687f4)"><path fill="#ff7f50" d="M 124.976562 212.042969 L 124.300781 212.042969 C 123.710938 212.058594 123.125 212.015625 122.542969 211.914062 C 121.960938 211.8125 121.394531 211.652344 120.84375 211.441406 C 120.292969 211.226562 119.769531 210.960938 119.269531 210.644531 C 118.769531 210.328125 118.308594 209.964844 117.882812 209.558594 C 117.453125 209.148438 117.070312 208.703125 116.734375 208.21875 C 116.394531 207.734375 116.105469 207.222656 115.871094 206.683594 C 115.632812 206.140625 115.449219 205.582031 115.324219 205.007812 C 115.195312 204.429688 115.125 203.847656 115.113281 203.257812 C 114.816406 203.191406 76.972656 176.160156 76.886719 176.085938 L 52.738281 211.828125 L 65.769531 220.605469 L 75.242188 206.023438 L 93.941406 228.007812 L 136.332031 228.007812 C 136.40625 227.121094 136.40625 226.234375 136.324219 225.351562 C 136.242188 224.464844 136.082031 223.59375 135.847656 222.734375 C 135.613281 221.878906 135.304688 221.046875 134.925781 220.242188 C 134.542969 219.4375 134.097656 218.675781 133.582031 217.949219 C 133.066406 217.226562 132.488281 216.550781 131.855469 215.925781 C 131.222656 215.300781 130.535156 214.738281 129.804688 214.234375 C 129.070312 213.730469 128.296875 213.296875 127.488281 212.925781 C 126.675781 212.558594 125.839844 212.265625 124.976562 212.042969 Z M 124.976562 212.042969 " fill-opacity="1" fill-rule="nonzero"/></g><path fill="#ffffff" d="M 228.148438 64.636719 L 206.707031 48.972656 C 203.714844 46.78125 200.566406 44.84375 197.265625 43.152344 C 193.964844 41.460938 190.550781 40.042969 187.023438 38.890625 C 183.5 37.738281 179.902344 36.871094 176.242188 36.289062 C 172.578125 35.703125 168.890625 35.410156 165.179688 35.410156 L 139.820312 35.410156 C 138.960938 35.410156 138.105469 35.453125 137.25 35.539062 C 136.394531 35.621094 135.542969 35.75 134.699219 35.917969 C 133.855469 36.082031 133.023438 36.292969 132.203125 36.542969 C 131.378906 36.792969 130.570312 37.082031 129.777344 37.410156 C 128.980469 37.738281 128.207031 38.105469 127.449219 38.511719 C 126.691406 38.914062 125.953125 39.355469 125.238281 39.832031 C 124.523438 40.3125 123.832031 40.820312 123.167969 41.367188 C 122.503906 41.910156 121.867188 42.488281 121.261719 43.09375 C 120.652344 43.703125 120.074219 44.339844 119.53125 45.003906 C 118.984375 45.667969 118.472656 46.355469 117.996094 47.070312 C 117.519531 47.785156 117.078125 48.519531 116.671875 49.277344 C 116.265625 50.035156 115.898438 50.808594 115.570312 51.605469 C 115.242188 52.398438 114.949219 53.203125 114.703125 54.027344 C 114.453125 54.847656 114.242188 55.679688 114.074219 56.523438 C 113.90625 57.367188 113.78125 58.214844 113.695312 59.070312 C 113.613281 59.921875 113.570312 60.78125 113.570312 61.640625 C 113.570312 61.648438 113.570312 61.65625 113.570312 61.664062 L 113.542969 61.667969 L 111.8125 123.847656 L 75.230469 174.902344 L 117.003906 204.777344 L 158.042969 147.484375 " fill-opacity="1" fill-rule="nonzero"/><path fill="#000000" d="M 117.003906 205.585938 C 116.828125 205.589844 116.671875 205.539062 116.53125 205.4375 L 74.757812 175.5625 C 74.578125 175.429688 74.46875 175.253906 74.429688 175.035156 C 74.394531 174.8125 74.441406 174.613281 74.570312 174.429688 L 111.007812 123.578125 L 112.730469 61.644531 C 112.730469 61.578125 112.742188 61.515625 112.757812 61.453125 C 112.765625 60.574219 112.816406 59.695312 112.90625 58.816406 C 113 57.941406 113.136719 57.070312 113.316406 56.207031 C 113.492188 55.34375 113.710938 54.492188 113.972656 53.652344 C 114.234375 52.808594 114.539062 51.980469 114.878906 51.167969 C 115.222656 50.355469 115.601562 49.5625 116.023438 48.789062 C 116.441406 48.011719 116.898438 47.261719 117.394531 46.53125 C 117.886719 45.800781 118.414062 45.09375 118.976562 44.414062 C 119.539062 43.734375 120.132812 43.085938 120.757812 42.464844 C 121.386719 41.84375 122.039062 41.253906 122.722656 40.695312 C 123.40625 40.140625 124.117188 39.617188 124.851562 39.128906 C 125.585938 38.640625 126.34375 38.191406 127.121094 37.777344 C 127.898438 37.363281 128.695312 36.984375 129.511719 36.648438 C 130.328125 36.3125 131.15625 36.015625 132 35.761719 C 132.847656 35.507812 133.699219 35.292969 134.566406 35.121094 C 135.429688 34.949219 136.304688 34.820312 137.179688 34.730469 C 138.058594 34.644531 138.9375 34.601562 139.820312 34.601562 L 165.179688 34.601562 C 168.933594 34.59375 172.664062 34.882812 176.371094 35.46875 C 180.078125 36.054688 183.714844 36.929688 187.285156 38.097656 C 190.851562 39.261719 194.304688 40.699219 197.640625 42.414062 C 200.980469 44.128906 204.164062 46.097656 207.1875 48.316406 L 228.625 63.984375 C 228.808594 64.117188 228.917969 64.292969 228.949219 64.515625 C 228.984375 64.734375 228.9375 64.9375 228.804688 65.117188 C 228.671875 65.296875 228.496094 65.40625 228.273438 65.441406 C 228.050781 65.472656 227.851562 65.425781 227.667969 65.292969 L 206.230469 49.625 C 203.273438 47.457031 200.164062 45.53125 196.902344 43.859375 C 193.640625 42.183594 190.265625 40.777344 186.78125 39.636719 C 183.292969 38.5 179.738281 37.644531 176.117188 37.070312 C 172.492188 36.496094 168.847656 36.214844 165.179688 36.222656 L 139.820312 36.222656 C 138.988281 36.222656 138.15625 36.261719 137.328125 36.347656 C 136.5 36.429688 135.675781 36.550781 134.859375 36.714844 C 134.042969 36.878906 133.234375 37.078125 132.4375 37.320312 C 131.640625 37.5625 130.859375 37.84375 130.089844 38.164062 C 129.320312 38.480469 128.566406 38.839844 127.832031 39.230469 C 127.097656 39.625 126.386719 40.050781 125.695312 40.511719 C 125 40.976562 124.332031 41.472656 123.6875 42 C 123.046875 42.527344 122.429688 43.085938 121.839844 43.675781 C 121.25 44.261719 120.691406 44.878906 120.164062 45.523438 C 119.636719 46.164062 119.140625 46.832031 118.675781 47.523438 C 118.214844 48.214844 117.785156 48.929688 117.390625 49.664062 C 117 50.398438 116.644531 51.148438 116.324219 51.917969 C 116.003906 52.683594 115.722656 53.46875 115.480469 54.265625 C 115.238281 55.058594 115.035156 55.867188 114.875 56.683594 C 114.710938 57.5 114.585938 58.320312 114.503906 59.148438 C 114.421875 59.976562 114.382812 60.808594 114.378906 61.640625 C 114.378906 61.71875 114.367188 61.792969 114.347656 61.867188 L 112.621094 123.871094 C 112.617188 124.035156 112.566406 124.1875 112.472656 124.320312 L 76.363281 174.714844 L 116.816406 203.648438 L 157.382812 147.011719 C 157.511719 146.828125 157.6875 146.714844 157.910156 146.679688 C 158.132812 146.640625 158.335938 146.6875 158.519531 146.820312 C 158.703125 146.949219 158.8125 147.125 158.847656 147.347656 C 158.886719 147.570312 158.835938 147.773438 158.703125 147.957031 L 117.660156 205.25 C 117.5 205.476562 117.28125 205.589844 117.003906 205.589844 Z M 117.003906 205.585938 " fill-opacity="1" fill-rule="nonzero"/><path fill="#ff7f50" d="M 247.367188 102.335938 C 249.699219 102.832031 251.953125 103.609375 254.285156 104.09375 C 256.050781 104.457031 257.84375 105.4375 259.660156 105.527344 C 259.789062 105.519531 259.914062 105.523438 260.039062 105.535156 C 260.09375 105.539062 260.136719 105.550781 260.1875 105.558594 C 260.371094 105.003906 260.585938 104.453125 260.824219 103.917969 C 261.40625 102.714844 262.230469 101.707031 263.292969 100.894531 C 265.1875 99.382812 267.660156 97.75 270.1875 98.015625 C 271.382812 98.144531 272.550781 98.523438 273.726562 98.769531 C 274.664062 98.914062 275.527344 99.25 276.320312 99.765625 L 260.375 44.945312 C 260.117188 44.175781 259.816406 43.421875 259.472656 42.6875 C 259.125 41.953125 258.734375 41.242188 258.300781 40.550781 C 257.871094 39.863281 257.398438 39.203125 256.886719 38.574219 C 256.375 37.941406 255.828125 37.34375 255.242188 36.777344 C 254.660156 36.210938 254.042969 35.683594 253.398438 35.191406 C 252.75 34.699219 252.074219 34.246094 251.375 33.835938 C 250.671875 33.425781 249.949219 33.058594 249.203125 32.734375 C 248.457031 32.410156 247.695312 32.132812 246.914062 31.898438 C 246.136719 31.667969 245.347656 31.484375 244.542969 31.34375 C 243.742188 31.207031 242.9375 31.117188 242.125 31.078125 C 241.3125 31.039062 240.5 31.046875 239.6875 31.101562 C 238.878906 31.160156 238.074219 31.265625 237.273438 31.417969 C 236.476562 31.570312 235.6875 31.769531 234.914062 32.019531 C 234.140625 32.265625 233.382812 32.558594 232.644531 32.898438 C 231.90625 33.238281 231.1875 33.617188 230.496094 34.042969 C 229.800781 34.46875 229.136719 34.933594 228.5 35.4375 L 197.515625 65.230469 L 219.308594 94.460938 L 230.988281 85.195312 L 234.765625 99.761719 C 239.035156 100.207031 243.175781 101.445312 247.367188 102.335938 Z M 247.367188 102.335938 " fill-opacity="1" fill-rule="nonzero"/><path fill="#ff7f50" d="M 219.789062 116.683594 C 218.378906 112.878906 219.585938 108.007812 222.214844 105.023438 C 223.761719 103.265625 226.117188 101.992188 228.214844 101.019531 C 230.40625 100.003906 232.742188 99.253906 235.179688 99.257812 C 237.757812 99.261719 240.339844 99.988281 242.8125 100.648438 C 245.5625 101.382812 248.289062 102.15625 251.058594 102.808594 C 253.644531 103.417969 256.121094 104.261719 258.664062 104.992188 C 259.152344 105.140625 259.648438 105.253906 260.15625 105.324219 C 260.1875 105.230469 260.230469 105.140625 260.277344 105.054688 C 260.382812 104.867188 260.503906 104.695312 260.644531 104.539062 C 262.496094 101.9375 264.394531 99.277344 267.628906 98.332031 C 269.988281 97.640625 272.109375 98.214844 274.0625 99.289062 C 273.589844 98.835938 273.09375 98.417969 272.566406 98.027344 L 210.441406 52.265625 C 207.449219 50.671875 204.257812 49.871094 200.867188 49.863281 L 152.3125 49.863281 C 137.523438 49.863281 127.683594 65.125 133.792969 78.574219 L 147.878906 109.558594 C 148.433594 110.769531 149.070312 111.9375 149.789062 113.058594 C 150.511719 114.179688 151.308594 115.242188 152.183594 116.25 C 153.054688 117.257812 153.996094 118.199219 155.003906 119.070312 C 156.011719 119.941406 157.078125 120.738281 158.199219 121.460938 C 159.320312 122.179688 160.488281 122.816406 161.699219 123.371094 C 162.914062 123.925781 164.160156 124.390625 165.4375 124.765625 C 166.71875 125.140625 168.019531 125.425781 169.339844 125.617188 C 170.660156 125.804688 171.984375 125.902344 173.320312 125.902344 L 234.914062 125.902344 C 233.789062 125.515625 223.261719 126.023438 219.789062 116.683594 Z M 219.789062 116.683594 " fill-opacity="1" fill-rule="nonzero"/><path fill="#000000" d="M 147.878906 110.371094 C 147.527344 110.371094 147.28125 110.210938 147.140625 109.894531 L 133.054688 78.910156 C 132.523438 77.742188 132.101562 76.535156 131.792969 75.289062 C 131.480469 74.042969 131.285156 72.777344 131.207031 71.496094 C 131.125 70.214844 131.164062 68.9375 131.316406 67.664062 C 131.46875 66.386719 131.734375 65.136719 132.113281 63.910156 C 132.496094 62.683594 132.984375 61.503906 133.578125 60.363281 C 134.175781 59.226562 134.867188 58.152344 135.660156 57.140625 C 136.449219 56.128906 137.328125 55.199219 138.289062 54.34375 C 139.25 53.492188 140.277344 52.734375 141.378906 52.070312 C 141.570312 51.953125 141.773438 51.921875 141.992188 51.976562 C 142.210938 52.027344 142.375 52.152344 142.492188 52.34375 C 142.609375 52.535156 142.640625 52.738281 142.585938 52.957031 C 142.53125 53.171875 142.410156 53.339844 142.21875 53.457031 C 141.203125 54.070312 140.253906 54.769531 139.363281 55.558594 C 138.476562 56.34375 137.667969 57.203125 136.9375 58.140625 C 136.207031 59.074219 135.566406 60.066406 135.015625 61.117188 C 134.464844 62.167969 134.015625 63.257812 133.664062 64.390625 C 133.3125 65.523438 133.066406 66.675781 132.925781 67.855469 C 132.785156 69.03125 132.75 70.210938 132.824219 71.394531 C 132.898438 72.578125 133.082031 73.746094 133.367188 74.894531 C 133.652344 76.046875 134.042969 77.160156 134.53125 78.242188 L 148.617188 109.222656 C 148.671875 109.351562 148.695312 109.480469 148.6875 109.617188 C 148.675781 109.757812 148.632812 109.882812 148.558594 110 C 148.484375 110.113281 148.386719 110.207031 148.265625 110.269531 C 148.144531 110.335938 148.015625 110.371094 147.878906 110.371094 Z M 147.878906 110.371094 " fill-opacity="1" fill-rule="nonzero"/><path fill="#000000" d="M 199.230469 51.484375 L 147.789062 51.484375 C 147.5625 51.484375 147.375 51.402344 147.214844 51.246094 C 147.054688 51.085938 146.976562 50.894531 146.976562 50.671875 C 146.976562 50.449219 147.054688 50.257812 147.214844 50.097656 C 147.375 49.941406 147.5625 49.863281 147.789062 49.863281 L 199.230469 49.863281 C 199.457031 49.863281 199.648438 49.941406 199.804688 50.097656 C 199.964844 50.257812 200.042969 50.449219 200.042969 50.671875 C 200.042969 50.894531 199.964844 51.085938 199.804688 51.246094 C 199.648438 51.402344 199.457031 51.484375 199.230469 51.484375 Z M 199.230469 51.484375 " fill-opacity="1" fill-rule="nonzero"/><path fill="#000000" d="M 263.785156 100.855469 C 263.613281 100.855469 263.457031 100.804688 263.320312 100.707031 C 263.179688 100.609375 263.078125 100.480469 263.023438 100.316406 C 260.386719 92.953125 255.804688 86.816406 249.390625 82.082031 L 208.871094 51.554688 C 208.691406 51.421875 208.585938 51.242188 208.554688 51.019531 C 208.523438 50.800781 208.578125 50.597656 208.710938 50.421875 C 208.847656 50.242188 209.023438 50.136719 209.246094 50.105469 C 209.46875 50.074219 209.667969 50.125 209.847656 50.261719 L 250.359375 80.78125 C 253.621094 83.171875 256.457031 85.984375 258.875 89.21875 C 261.292969 92.453125 263.183594 95.972656 264.550781 99.773438 C 264.59375 99.898438 264.609375 100.023438 264.589844 100.15625 C 264.570312 100.285156 264.523438 100.40625 264.449219 100.511719 C 264.375 100.621094 264.277344 100.703125 264.160156 100.765625 C 264.042969 100.824219 263.917969 100.855469 263.785156 100.855469 Z M 263.785156 100.855469 " fill-opacity="1" fill-rule="nonzero"/><path fill="#000000" d="M 259.835938 106.433594 C 259.648438 106.433594 259.480469 106.375 259.332031 106.257812 C 259.1875 106.144531 259.089844 105.996094 259.046875 105.8125 C 258.578125 103.886719 257.945312 102.015625 257.152344 100.195312 C 256.355469 98.378906 255.410156 96.644531 254.3125 94.992188 C 253.214844 93.339844 251.980469 91.792969 250.617188 90.355469 C 249.25 88.914062 247.769531 87.605469 246.171875 86.425781 L 198.75 51.324219 C 198.566406 51.191406 198.457031 51.015625 198.421875 50.789062 C 198.386719 50.566406 198.4375 50.363281 198.570312 50.183594 C 198.707031 50 198.886719 49.894531 199.109375 49.863281 C 199.332031 49.832031 199.535156 49.882812 199.714844 50.023438 L 247.140625 85.121094 C 248.808594 86.359375 250.359375 87.730469 251.792969 89.238281 C 253.222656 90.746094 254.511719 92.363281 255.664062 94.09375 C 256.8125 95.824219 257.804688 97.644531 258.636719 99.546875 C 259.46875 101.449219 260.132812 103.410156 260.625 105.429688 C 260.652344 105.550781 260.65625 105.671875 260.628906 105.792969 C 260.601562 105.914062 260.550781 106.023438 260.472656 106.121094 C 260.394531 106.222656 260.300781 106.296875 260.191406 106.351562 C 260.078125 106.40625 259.960938 106.433594 259.835938 106.433594 Z M 259.835938 106.433594 " fill-opacity="1" fill-rule="nonzero"/><path fill="#ffffff" d="M 260.125 105.265625 L 235.933594 99.617188 C 232.71875 98.863281 228.628906 99.363281 226.09375 101.484375 C 217.976562 108.265625 217.332031 115.691406 222.066406 120.714844 C 223.558594 122.285156 225.355469 123.355469 227.445312 123.929688 L 244.148438 128.371094 C 244.339844 129.460938 244.628906 130.527344 245.007812 131.570312 C 245.386719 132.613281 245.855469 133.613281 246.410156 134.574219 C 246.964844 135.535156 247.597656 136.441406 248.3125 137.289062 C 249.027344 138.136719 249.808594 138.917969 250.660156 139.632812 C 251.507812 140.34375 252.414062 140.980469 253.375 141.53125 C 254.335938 142.085938 255.339844 142.554688 256.382812 142.933594 C 257.425781 143.3125 258.492188 143.597656 259.585938 143.792969 C 260.679688 143.984375 261.78125 144.082031 262.890625 144.082031 C 263.167969 144.082031 263.449219 144.074219 263.726562 144.0625 L 293.152344 134.171875 C 293.625 133.882812 294.0625 133.546875 294.46875 133.167969 C 295.269531 132.460938 296.007812 131.695312 296.679688 130.863281 C 297.351562 130.035156 297.953125 129.152344 298.476562 128.222656 C 299 127.292969 299.441406 126.324219 299.804688 125.316406 C 300.164062 124.3125 300.4375 123.285156 300.625 122.230469 C 300.8125 121.179688 300.910156 120.121094 300.917969 119.050781 C 300.929688 117.984375 300.847656 116.921875 300.675781 115.867188 C 300.507812 114.8125 300.25 113.78125 299.902344 112.769531 C 299.558594 111.757812 299.132812 110.785156 298.621094 109.84375 C 298.113281 108.90625 297.527344 108.015625 296.871094 107.175781 C 296.210938 106.332031 295.484375 105.554688 294.695312 104.835938 C 293.902344 104.117188 293.058594 103.46875 292.15625 102.894531 C 291.257812 102.316406 290.316406 101.820312 289.332031 101.402344 C 288.347656 100.984375 287.335938 100.652344 286.292969 100.40625 C 285.253906 100.15625 284.203125 100 283.132812 99.929688 C 282.066406 99.859375 281.003906 99.878906 279.9375 99.988281 C 278.875 100.097656 277.828125 100.296875 276.796875 100.582031 " fill-opacity="1" fill-rule="nonzero"/><path fill="#000000" d="M 262.890625 144.890625 C 261.753906 144.894531 260.625 144.796875 259.507812 144.605469 C 258.386719 144.414062 257.292969 144.128906 256.222656 143.75 C 255.152344 143.367188 254.121094 142.898438 253.132812 142.34375 C 252.144531 141.785156 251.207031 141.148438 250.328125 140.429688 C 249.449219 139.710938 248.636719 138.921875 247.894531 138.066406 C 247.148438 137.207031 246.484375 136.292969 245.898438 135.320312 C 245.3125 134.351562 244.8125 133.335938 244.402344 132.277344 C 243.988281 131.21875 243.671875 130.132812 243.445312 129.023438 L 227.238281 124.714844 C 224.996094 124.101562 223.078125 122.953125 221.476562 121.273438 C 219.21875 118.878906 218.125 115.992188 218.308594 112.921875 C 218.554688 108.796875 221.066406 104.625 225.574219 100.859375 C 228.484375 98.429688 232.96875 98.089844 236.121094 98.828125 L 260.3125 104.476562 C 260.527344 104.53125 260.691406 104.652344 260.808594 104.839844 C 260.925781 105.03125 260.957031 105.234375 260.90625 105.449219 C 260.855469 105.664062 260.738281 105.832031 260.546875 105.949219 C 260.359375 106.070312 260.160156 106.101562 259.941406 106.054688 L 235.75 100.40625 C 232.988281 99.757812 229.09375 100.03125 226.613281 102.105469 C 222.460938 105.578125 220.148438 109.351562 219.929688 113.015625 C 219.773438 115.628906 220.714844 118.097656 222.65625 120.160156 C 224.046875 121.621094 225.714844 122.617188 227.660156 123.148438 L 244.359375 127.585938 C 244.691406 127.675781 244.886719 127.890625 244.949219 128.230469 C 245.128906 129.277344 245.402344 130.296875 245.765625 131.296875 C 246.128906 132.296875 246.574219 133.253906 247.105469 134.175781 C 247.636719 135.09375 248.242188 135.960938 248.925781 136.777344 C 249.609375 137.589844 250.355469 138.339844 251.171875 139.023438 C 251.984375 139.703125 252.855469 140.3125 253.773438 140.839844 C 254.695312 141.371094 255.65625 141.820312 256.65625 142.179688 C 257.652344 142.542969 258.675781 142.816406 259.722656 143 C 260.773438 143.183594 261.828125 143.273438 262.890625 143.269531 C 263.121094 143.269531 263.347656 143.265625 263.578125 143.257812 L 292.792969 133.4375 L 292.820312 133.417969 C 293.222656 133.167969 293.589844 132.882812 293.933594 132.558594 C 294.699219 131.882812 295.40625 131.148438 296.050781 130.351562 C 296.695312 129.558594 297.269531 128.714844 297.769531 127.824219 C 298.269531 126.933594 298.695312 126.007812 299.039062 125.042969 C 299.386719 124.082031 299.648438 123.097656 299.828125 122.089844 C 300.007812 121.082031 300.101562 120.066406 300.109375 119.046875 C 300.117188 118.023438 300.039062 117.007812 299.875 115.996094 C 299.710938 114.988281 299.464844 114 299.136719 113.03125 C 298.804688 112.0625 298.398438 111.128906 297.910156 110.230469 C 297.421875 109.332031 296.863281 108.480469 296.230469 107.671875 C 295.601562 106.867188 294.90625 106.121094 294.148438 105.433594 C 293.390625 104.746094 292.582031 104.125 291.71875 103.574219 C 290.859375 103.023438 289.957031 102.546875 289.015625 102.148438 C 288.070312 101.746094 287.101562 101.429688 286.105469 101.191406 C 285.109375 100.957031 284.101562 100.804688 283.082031 100.738281 C 282.058594 100.671875 281.039062 100.691406 280.023438 100.796875 C 279.003906 100.898438 278 101.089844 277.015625 101.363281 C 276.800781 101.421875 276.597656 101.394531 276.402344 101.285156 C 276.210938 101.171875 276.085938 101.011719 276.023438 100.796875 C 275.964844 100.582031 275.988281 100.378906 276.097656 100.183594 C 276.207031 99.992188 276.367188 99.863281 276.582031 99.800781 C 277.65625 99.5 278.75 99.292969 279.859375 99.175781 C 280.96875 99.058594 282.082031 99.035156 283.195312 99.105469 C 284.308594 99.175781 285.410156 99.339844 286.496094 99.59375 C 287.582031 99.851562 288.640625 100.195312 289.667969 100.632812 C 290.695312 101.066406 291.679688 101.582031 292.621094 102.183594 C 293.558594 102.785156 294.445312 103.460938 295.269531 104.210938 C 296.097656 104.960938 296.855469 105.773438 297.542969 106.652344 C 298.230469 107.527344 298.839844 108.457031 299.375 109.4375 C 299.90625 110.417969 300.351562 111.4375 300.710938 112.492188 C 301.070312 113.550781 301.339844 114.628906 301.515625 115.730469 C 301.691406 116.832031 301.777344 117.9375 301.765625 119.054688 C 301.757812 120.167969 301.652344 121.273438 301.457031 122.371094 C 301.257812 123.472656 300.96875 124.542969 300.59375 125.59375 C 300.214844 126.640625 299.75 127.652344 299.199219 128.625 C 298.652344 129.59375 298.023438 130.511719 297.320312 131.378906 C 296.613281 132.242188 295.84375 133.042969 295.003906 133.777344 C 294.609375 134.148438 294.179688 134.480469 293.71875 134.765625 L 293.601562 134.847656 C 293.542969 134.886719 293.476562 134.917969 293.410156 134.9375 L 263.984375 144.832031 C 263.910156 144.855469 263.835938 144.871094 263.761719 144.871094 C 263.46875 144.886719 263.179688 144.890625 262.890625 144.890625 Z M 262.890625 144.890625 " fill-opacity="1" fill-rule="nonzero"/><path fill="#ffffff" d="M 268.054688 118.878906 L 268.054688 122.417969 L 287.519531 121.417969 C 287.875 121.398438 288.230469 121.414062 288.582031 121.460938 C 288.933594 121.507812 289.28125 121.589844 289.617188 121.699219 C 289.957031 121.8125 290.28125 121.953125 290.59375 122.128906 C 290.902344 122.300781 291.195312 122.5 291.472656 122.726562 C 291.746094 122.953125 291.996094 123.203125 292.222656 123.476562 C 292.453125 123.75 292.652344 124.042969 292.824219 124.351562 C 293 124.664062 293.140625 124.988281 293.253906 125.324219 C 293.367188 125.664062 293.445312 126.007812 293.496094 126.359375 L 294.441406 133.167969 " fill-opacity="1" fill-rule="nonzero"/><path fill="#000000" d="M 294.441406 133.980469 C 294.238281 133.976562 294.0625 133.910156 293.910156 133.777344 C 293.757812 133.644531 293.667969 133.480469 293.636719 133.28125 L 292.691406 126.472656 C 292.605469 125.863281 292.414062 125.289062 292.113281 124.753906 C 291.8125 124.214844 291.425781 123.75 290.953125 123.359375 C 290.476562 122.964844 289.949219 122.671875 289.363281 122.476562 C 288.78125 122.28125 288.179688 122.199219 287.566406 122.226562 L 268.097656 123.226562 C 267.863281 123.238281 267.664062 123.167969 267.496094 123.003906 C 267.328125 122.84375 267.242188 122.648438 267.242188 122.417969 L 267.242188 118.878906 C 267.242188 118.65625 267.324219 118.464844 267.480469 118.304688 C 267.640625 118.148438 267.832031 118.070312 268.054688 118.070312 C 268.277344 118.070312 268.46875 118.148438 268.628906 118.304688 C 268.785156 118.464844 268.867188 118.65625 268.867188 118.878906 L 268.867188 121.5625 L 287.480469 120.609375 C 287.882812 120.589844 288.289062 120.609375 288.691406 120.664062 C 289.09375 120.71875 289.484375 120.8125 289.871094 120.9375 C 290.257812 121.066406 290.625 121.230469 290.980469 121.425781 C 291.335938 121.625 291.667969 121.851562 291.984375 122.109375 C 292.296875 122.367188 292.582031 122.652344 292.839844 122.964844 C 293.101562 123.277344 293.328125 123.609375 293.527344 123.964844 C 293.726562 124.316406 293.890625 124.6875 294.019531 125.070312 C 294.148438 125.457031 294.242188 125.847656 294.300781 126.25 L 295.246094 133.058594 C 295.277344 133.28125 295.222656 133.480469 295.089844 133.65625 C 294.953125 133.835938 294.773438 133.941406 294.550781 133.96875 C 294.515625 133.976562 294.476562 133.976562 294.441406 133.980469 Z M 294.441406 133.980469 " fill-opacity="1" fill-rule="nonzero"/><path fill="#ffffff" d="M 259.617188 108.480469 C 259.617188 107.769531 259.691406 107.066406 259.835938 106.371094 C 259.980469 105.675781 260.195312 105.003906 260.476562 104.355469 C 260.761719 103.703125 261.105469 103.085938 261.515625 102.507812 C 261.925781 101.925781 262.386719 101.394531 262.90625 100.910156 C 263.425781 100.425781 263.988281 99.996094 264.59375 99.625 C 265.199219 99.257812 265.835938 98.953125 266.503906 98.710938 C 267.171875 98.472656 267.859375 98.304688 268.5625 98.203125 C 269.265625 98.105469 269.972656 98.078125 270.679688 98.121094 C 271.390625 98.167969 272.085938 98.285156 272.773438 98.472656 C 273.457031 98.660156 274.113281 98.917969 274.746094 99.238281 C 275.378906 99.5625 275.972656 99.945312 276.527344 100.390625 C 277.082031 100.835938 277.582031 101.332031 278.035156 101.878906 C 278.488281 102.425781 278.878906 103.011719 279.210938 103.640625 C 279.542969 104.269531 279.808594 104.921875 280.003906 105.605469 C 280.203125 106.285156 280.328125 106.980469 280.382812 107.6875 C 280.4375 108.394531 280.417969 109.101562 280.328125 109.804688 C 280.238281 110.507812 280.078125 111.195312 279.847656 111.867188 C 279.617188 112.539062 279.320312 113.179688 278.957031 113.789062 C 278.597656 114.398438 278.175781 114.96875 277.695312 115.492188 C 277.21875 116.015625 276.691406 116.484375 276.117188 116.902344 C 275.542969 117.320312 274.929688 117.671875 274.28125 117.964844 C 273.632812 118.253906 272.964844 118.476562 272.269531 118.632812 C 271.578125 118.785156 270.875 118.867188 270.164062 118.878906 C 269.453125 118.886719 268.75 118.824219 268.054688 118.691406 " fill-opacity="1" fill-rule="nonzero"/><path fill="#000000" d="M 270.027344 119.6875 C 269.3125 119.6875 268.601562 119.621094 267.902344 119.488281 C 267.679688 119.445312 267.503906 119.332031 267.378906 119.148438 C 267.25 118.960938 267.207031 118.757812 267.25 118.539062 C 267.292969 118.316406 267.40625 118.144531 267.59375 118.019531 C 267.78125 117.890625 267.984375 117.851562 268.207031 117.894531 C 268.851562 118.019531 269.5 118.078125 270.15625 118.070312 C 270.8125 118.058594 271.460938 117.984375 272.101562 117.84375 C 272.742188 117.703125 273.359375 117.496094 273.957031 117.230469 C 274.558594 116.960938 275.121094 116.632812 275.652344 116.25 C 276.183594 115.867188 276.671875 115.433594 277.113281 114.949219 C 277.554688 114.464844 277.945312 113.941406 278.28125 113.378906 C 278.613281 112.8125 278.890625 112.222656 279.101562 111.601562 C 279.316406 110.984375 279.464844 110.347656 279.546875 109.699219 C 279.628906 109.046875 279.648438 108.398438 279.597656 107.742188 C 279.546875 107.089844 279.429688 106.449219 279.246094 105.820312 C 279.066406 105.1875 278.820312 104.585938 278.515625 104.003906 C 278.210938 103.425781 277.847656 102.882812 277.429688 102.378906 C 277.011719 101.871094 276.546875 101.414062 276.039062 101.003906 C 275.527344 100.59375 274.976562 100.238281 274.394531 99.941406 C 273.808594 99.644531 273.203125 99.40625 272.570312 99.234375 C 271.9375 99.058594 271.292969 98.953125 270.640625 98.910156 C 269.984375 98.871094 269.332031 98.894531 268.683594 98.984375 C 268.035156 99.078125 267.398438 99.234375 266.78125 99.457031 C 266.164062 99.675781 265.578125 99.960938 265.019531 100.300781 C 264.457031 100.644531 263.9375 101.039062 263.460938 101.488281 C 262.984375 101.933594 262.554688 102.425781 262.175781 102.964844 C 261.800781 103.5 261.480469 104.066406 261.21875 104.667969 C 260.960938 105.269531 260.761719 105.890625 260.628906 106.535156 C 260.496094 107.175781 260.429688 107.824219 260.429688 108.480469 C 260.429688 108.703125 260.351562 108.894531 260.191406 109.050781 C 260.035156 109.210938 259.84375 109.289062 259.617188 109.289062 C 259.394531 109.289062 259.203125 109.210938 259.042969 109.050781 C 258.886719 108.894531 258.808594 108.703125 258.808594 108.480469 C 258.808594 107.742188 258.878906 107.015625 259.023438 106.292969 C 259.167969 105.570312 259.378906 104.867188 259.660156 104.1875 C 259.941406 103.507812 260.289062 102.863281 260.699219 102.25 C 261.105469 101.640625 261.574219 101.074219 262.09375 100.550781 C 262.613281 100.03125 263.179688 99.566406 263.792969 99.15625 C 264.40625 98.75 265.054688 98.402344 265.734375 98.121094 C 266.414062 97.839844 267.117188 97.628906 267.839844 97.484375 C 268.5625 97.339844 269.289062 97.269531 270.027344 97.269531 C 270.765625 97.269531 271.492188 97.339844 272.214844 97.484375 C 272.9375 97.628906 273.640625 97.839844 274.320312 98.121094 C 275 98.402344 275.648438 98.75 276.261719 99.15625 C 276.875 99.566406 277.441406 100.03125 277.960938 100.550781 C 278.480469 101.074219 278.945312 101.640625 279.355469 102.25 C 279.765625 102.863281 280.109375 103.507812 280.394531 104.1875 C 280.675781 104.867188 280.886719 105.570312 281.03125 106.292969 C 281.175781 107.015625 281.246094 107.742188 281.246094 108.480469 C 281.246094 109.214844 281.175781 109.945312 281.03125 110.664062 C 280.886719 111.386719 280.675781 112.089844 280.394531 112.769531 C 280.109375 113.449219 279.765625 114.09375 279.355469 114.707031 C 278.945312 115.320312 278.480469 115.886719 277.960938 116.40625 C 277.441406 116.925781 276.875 117.390625 276.261719 117.800781 C 275.648438 118.207031 275 118.554688 274.320312 118.835938 C 273.640625 119.117188 272.9375 119.328125 272.214844 119.472656 C 271.492188 119.617188 270.765625 119.6875 270.027344 119.6875 Z M 270.027344 119.6875 " fill-opacity="1" fill-rule="nonzero"/><path fill="#000000" d="M 259.808594 137.246094 C 259.460938 137.246094 259.214844 137.089844 259.070312 136.777344 L 258.746094 136.074219 C 258.367188 135.238281 258.101562 134.367188 257.9375 133.464844 C 257.777344 132.5625 257.730469 131.65625 257.796875 130.738281 C 257.863281 129.824219 258.039062 128.933594 258.328125 128.0625 C 258.617188 127.191406 259.007812 126.371094 259.503906 125.597656 L 260.589844 123.945312 C 260.710938 123.757812 260.882812 123.644531 261.101562 123.597656 C 261.320312 123.554688 261.523438 123.589844 261.710938 123.714844 C 261.894531 123.835938 262.011719 124.007812 262.058594 124.226562 C 262.105469 124.445312 262.066406 124.648438 261.945312 124.832031 L 260.863281 126.480469 C 260.445312 127.140625 260.109375 127.839844 259.863281 128.578125 C 259.621094 129.320312 259.46875 130.078125 259.414062 130.859375 C 259.355469 131.636719 259.398438 132.410156 259.53125 133.179688 C 259.667969 133.945312 259.898438 134.6875 260.21875 135.398438 L 260.542969 136.097656 C 260.601562 136.222656 260.625 136.355469 260.617188 136.492188 C 260.609375 136.628906 260.566406 136.757812 260.492188 136.875 C 260.417969 136.988281 260.320312 137.082031 260.199219 137.148438 C 260.078125 137.214844 259.945312 137.246094 259.808594 137.246094 Z M 259.808594 137.246094 " fill-opacity="1" fill-rule="nonzero"/><path fill="#000000" d="M 270 111.449219 C 269.984375 111.449219 269.972656 111.449219 269.957031 111.449219 C 269.605469 111.429688 269.371094 111.257812 269.242188 110.933594 L 267.296875 105.910156 C 267.214844 105.699219 267.21875 105.492188 267.308594 105.289062 C 267.402344 105.082031 267.550781 104.941406 267.761719 104.859375 C 267.96875 104.777344 268.175781 104.78125 268.382812 104.875 C 268.585938 104.964844 268.730469 105.113281 268.8125 105.324219 L 270.109375 108.671875 L 272.308594 104.433594 C 272.414062 104.238281 272.574219 104.109375 272.785156 104.042969 C 272.996094 103.980469 273.199219 103.996094 273.394531 104.097656 C 273.59375 104.199219 273.726562 104.355469 273.792969 104.566406 C 273.863281 104.777344 273.847656 104.980469 273.75 105.179688 L 270.722656 111.011719 C 270.570312 111.304688 270.328125 111.449219 270 111.449219 Z M 270 111.449219 " fill-opacity="1" fill-rule="nonzero"/><path fill="#000000" d="M 245.238281 176.667969 C 245.0625 176.667969 244.902344 176.613281 244.757812 176.507812 C 244.613281 176.402344 244.515625 176.265625 244.464844 176.09375 C 244.410156 175.925781 244.414062 175.753906 244.472656 175.585938 C 244.53125 175.417969 244.636719 175.285156 244.785156 175.183594 L 264.71875 161.652344 C 264.90625 161.527344 265.109375 161.484375 265.328125 161.527344 C 265.546875 161.566406 265.722656 161.679688 265.847656 161.867188 C 265.972656 162.050781 266.015625 162.253906 265.972656 162.472656 C 265.929688 162.695312 265.816406 162.867188 265.632812 162.992188 L 245.695312 176.527344 C 245.558594 176.621094 245.40625 176.667969 245.238281 176.667969 Z M 245.238281 176.667969 " fill-opacity="1" fill-rule="nonzero"/><path fill="#ffffff" d="M 301.28125 150.96875 C 301.28125 151.601562 301.25 152.234375 301.1875 152.863281 C 301.125 153.496094 301.03125 154.121094 300.910156 154.742188 C 300.785156 155.363281 300.632812 155.976562 300.449219 156.582031 C 300.261719 157.191406 300.050781 157.785156 299.808594 158.371094 C 299.566406 158.957031 299.292969 159.527344 298.996094 160.085938 C 298.695312 160.644531 298.371094 161.1875 298.019531 161.714844 C 297.667969 162.242188 297.289062 162.75 296.886719 163.238281 C 296.484375 163.726562 296.058594 164.195312 295.609375 164.644531 C 295.164062 165.09375 294.695312 165.519531 294.203125 165.917969 C 293.714844 166.320312 293.203125 166.699219 292.679688 167.050781 C 292.152344 167.402344 291.609375 167.726562 291.046875 168.027344 C 290.488281 168.324219 289.917969 168.59375 289.332031 168.835938 C 288.746094 169.078125 288.148438 169.292969 287.542969 169.476562 C 286.9375 169.660156 286.320312 169.816406 285.699219 169.9375 C 285.078125 170.0625 284.453125 170.15625 283.820312 170.214844 C 283.191406 170.277344 282.558594 170.308594 281.921875 170.308594 C 281.289062 170.308594 280.65625 170.277344 280.027344 170.214844 C 279.394531 170.15625 278.769531 170.0625 278.148438 169.9375 C 277.523438 169.816406 276.910156 169.660156 276.304688 169.476562 C 275.695312 169.292969 275.101562 169.078125 274.515625 168.835938 C 273.929688 168.59375 273.355469 168.324219 272.796875 168.027344 C 272.238281 167.726562 271.695312 167.402344 271.167969 167.050781 C 270.640625 166.699219 270.132812 166.320312 269.644531 165.917969 C 269.152344 165.519531 268.683594 165.09375 268.234375 164.644531 C 267.785156 164.195312 267.363281 163.726562 266.960938 163.238281 C 266.558594 162.75 266.179688 162.242188 265.828125 161.714844 C 265.476562 161.1875 265.148438 160.644531 264.851562 160.085938 C 264.550781 159.527344 264.28125 158.957031 264.039062 158.371094 C 263.796875 157.785156 263.582031 157.191406 263.398438 156.582031 C 263.214844 155.976562 263.0625 155.363281 262.9375 154.742188 C 262.8125 154.121094 262.71875 153.496094 262.660156 152.863281 C 262.597656 152.234375 262.566406 151.601562 262.566406 150.96875 C 262.566406 150.335938 262.597656 149.703125 262.660156 149.074219 C 262.71875 148.441406 262.8125 147.816406 262.9375 147.195312 C 263.0625 146.574219 263.214844 145.960938 263.398438 145.355469 C 263.582031 144.75 263.796875 144.152344 264.039062 143.566406 C 264.28125 142.984375 264.550781 142.410156 264.851562 141.851562 C 265.148438 141.292969 265.476562 140.75 265.828125 140.222656 C 266.179688 139.695312 266.558594 139.1875 266.960938 138.699219 C 267.363281 138.210938 267.785156 137.742188 268.234375 137.292969 C 268.683594 136.84375 269.152344 136.421875 269.644531 136.019531 C 270.132812 135.617188 270.640625 135.238281 271.167969 134.886719 C 271.695312 134.535156 272.238281 134.210938 272.796875 133.910156 C 273.355469 133.613281 273.929688 133.34375 274.515625 133.101562 C 275.101562 132.859375 275.695312 132.644531 276.304688 132.460938 C 276.910156 132.277344 277.523438 132.125 278.148438 132 C 278.769531 131.875 279.394531 131.785156 280.027344 131.722656 C 280.65625 131.660156 281.289062 131.628906 281.921875 131.628906 C 282.558594 131.628906 283.191406 131.660156 283.820312 131.722656 C 284.453125 131.785156 285.078125 131.875 285.699219 132 C 286.320312 132.125 286.9375 132.277344 287.542969 132.460938 C 288.148438 132.644531 288.746094 132.859375 289.332031 133.101562 C 289.917969 133.34375 290.488281 133.613281 291.046875 133.910156 C 291.609375 134.210938 292.152344 134.535156 292.679688 134.886719 C 293.203125 135.238281 293.714844 135.617188 294.203125 136.019531 C 294.695312 136.421875 295.164062 136.84375 295.609375 137.292969 C 296.058594 137.742188 296.484375 138.210938 296.886719 138.699219 C 297.289062 139.1875 297.667969 139.695312 298.019531 140.222656 C 298.371094 140.75 298.695312 141.292969 298.996094 141.851562 C 299.292969 142.410156 299.566406 142.984375 299.808594 143.566406 C 300.050781 144.152344 300.261719 144.75 300.449219 145.355469 C 300.632812 145.960938 300.785156 146.574219 300.910156 147.195312 C 301.03125 147.816406 301.125 148.441406 301.1875 149.074219 C 301.25 149.703125 301.28125 150.335938 301.28125 150.96875 Z M 301.28125 150.96875 " fill-opacity="1" fill-rule="nonzero"/><path fill="#000000" d="M 281.921875 171.121094 C 281.261719 171.121094 280.605469 171.089844 279.945312 171.023438 C 279.289062 170.957031 278.636719 170.863281 277.988281 170.734375 C 277.339844 170.605469 276.699219 170.445312 276.070312 170.253906 C 275.4375 170.0625 274.816406 169.839844 274.203125 169.585938 C 273.59375 169.335938 273 169.050781 272.414062 168.742188 C 271.832031 168.429688 271.265625 168.089844 270.71875 167.722656 C 270.167969 167.359375 269.640625 166.964844 269.128906 166.546875 C 268.617188 166.128906 268.128906 165.683594 267.660156 165.21875 C 267.195312 164.75 266.75 164.261719 266.332031 163.753906 C 265.914062 163.242188 265.519531 162.714844 265.152344 162.164062 C 264.785156 161.617188 264.445312 161.050781 264.136719 160.46875 C 263.824219 159.886719 263.542969 159.289062 263.289062 158.679688 C 263.035156 158.070312 262.8125 157.449219 262.621094 156.820312 C 262.429688 156.1875 262.269531 155.546875 262.140625 154.902344 C 262.011719 154.253906 261.917969 153.601562 261.851562 152.945312 C 261.785156 152.289062 261.753906 151.628906 261.753906 150.96875 C 261.753906 150.308594 261.785156 149.652344 261.851562 148.996094 C 261.917969 148.335938 262.011719 147.683594 262.140625 147.039062 C 262.269531 146.390625 262.429688 145.75 262.621094 145.121094 C 262.8125 144.488281 263.035156 143.867188 263.289062 143.257812 C 263.542969 142.648438 263.824219 142.050781 264.136719 141.46875 C 264.445312 140.886719 264.785156 140.324219 265.152344 139.773438 C 265.519531 139.226562 265.914062 138.695312 266.332031 138.1875 C 266.75 137.675781 267.195312 137.1875 267.660156 136.71875 C 268.128906 136.253906 268.617188 135.8125 269.128906 135.390625 C 269.640625 134.972656 270.167969 134.582031 270.71875 134.214844 C 271.265625 133.847656 271.832031 133.507812 272.414062 133.199219 C 273 132.886719 273.59375 132.605469 274.203125 132.351562 C 274.816406 132.097656 275.4375 131.878906 276.070312 131.6875 C 276.699219 131.496094 277.339844 131.335938 277.988281 131.207031 C 278.636719 131.078125 279.289062 130.980469 279.945312 130.914062 C 280.605469 130.851562 281.261719 130.816406 281.921875 130.816406 C 282.582031 130.816406 283.242188 130.851562 283.898438 130.914062 C 284.558594 130.980469 285.210938 131.078125 285.859375 131.207031 C 286.503906 131.335938 287.144531 131.496094 287.777344 131.6875 C 288.410156 131.878906 289.03125 132.097656 289.640625 132.351562 C 290.25 132.605469 290.847656 132.886719 291.429688 133.199219 C 292.011719 133.507812 292.578125 133.847656 293.128906 134.214844 C 293.675781 134.582031 294.207031 134.972656 294.71875 135.390625 C 295.230469 135.8125 295.71875 136.253906 296.183594 136.71875 C 296.652344 137.1875 297.09375 137.675781 297.515625 138.1875 C 297.933594 138.695312 298.324219 139.226562 298.691406 139.773438 C 299.058594 140.324219 299.398438 140.886719 299.710938 141.46875 C 300.023438 142.050781 300.304688 142.648438 300.558594 143.257812 C 300.808594 143.867188 301.03125 144.488281 301.222656 145.121094 C 301.414062 145.75 301.574219 146.390625 301.703125 147.039062 C 301.832031 147.683594 301.929688 148.335938 301.996094 148.996094 C 302.058594 149.652344 302.09375 150.308594 302.09375 150.96875 C 302.089844 151.628906 302.058594 152.289062 301.992188 152.945312 C 301.925781 153.601562 301.832031 154.253906 301.699219 154.898438 C 301.570312 155.546875 301.410156 156.183594 301.21875 156.816406 C 301.027344 157.449219 300.804688 158.066406 300.550781 158.675781 C 300.296875 159.285156 300.015625 159.882812 299.703125 160.464844 C 299.390625 161.046875 299.054688 161.609375 298.6875 162.160156 C 298.320312 162.707031 297.925781 163.238281 297.507812 163.746094 C 297.089844 164.257812 296.644531 164.746094 296.179688 165.210938 C 295.710938 165.679688 295.222656 166.121094 294.710938 166.539062 C 294.203125 166.957031 293.671875 167.351562 293.121094 167.71875 C 292.574219 168.085938 292.007812 168.421875 291.425781 168.734375 C 290.84375 169.046875 290.246094 169.328125 289.636719 169.582031 C 289.027344 169.832031 288.40625 170.054688 287.773438 170.246094 C 287.144531 170.441406 286.503906 170.601562 285.855469 170.730469 C 285.207031 170.859375 284.554688 170.957031 283.898438 171.019531 C 283.242188 171.085938 282.582031 171.121094 281.921875 171.121094 Z M 281.921875 132.4375 C 281.316406 132.4375 280.710938 132.46875 280.105469 132.527344 C 279.5 132.585938 278.902344 132.675781 278.304688 132.796875 C 277.710938 132.914062 277.121094 133.0625 276.539062 133.238281 C 275.957031 133.414062 275.386719 133.617188 274.824219 133.847656 C 274.265625 134.082031 273.714844 134.339844 273.179688 134.628906 C 272.644531 134.914062 272.125 135.226562 271.617188 135.5625 C 271.113281 135.898438 270.625 136.261719 270.15625 136.644531 C 269.6875 137.03125 269.238281 137.4375 268.808594 137.867188 C 268.378906 138.296875 267.972656 138.746094 267.585938 139.214844 C 267.199219 139.683594 266.839844 140.167969 266.503906 140.675781 C 266.164062 141.179688 265.851562 141.699219 265.566406 142.234375 C 265.28125 142.769531 265.019531 143.316406 264.789062 143.878906 C 264.554688 144.4375 264.351562 145.007812 264.175781 145.589844 C 264 146.171875 263.851562 146.757812 263.734375 147.355469 C 263.613281 147.949219 263.523438 148.550781 263.464844 149.152344 C 263.40625 149.757812 263.375 150.363281 263.375 150.96875 C 263.375 151.578125 263.40625 152.183594 263.464844 152.785156 C 263.523438 153.390625 263.613281 153.988281 263.734375 154.585938 C 263.851562 155.179688 264 155.769531 264.175781 156.347656 C 264.351562 156.929688 264.554688 157.5 264.789062 158.0625 C 265.019531 158.621094 265.28125 159.167969 265.566406 159.703125 C 265.851562 160.238281 266.164062 160.757812 266.503906 161.265625 C 266.839844 161.769531 267.199219 162.253906 267.585938 162.726562 C 267.972656 163.195312 268.378906 163.644531 268.808594 164.074219 C 269.238281 164.5 269.6875 164.910156 270.15625 165.292969 C 270.625 165.679688 271.113281 166.039062 271.617188 166.375 C 272.125 166.714844 272.644531 167.027344 273.179688 167.3125 C 273.714844 167.597656 274.265625 167.855469 274.824219 168.089844 C 275.386719 168.320312 275.957031 168.527344 276.539062 168.703125 C 277.121094 168.878906 277.710938 169.023438 278.304688 169.144531 C 278.902344 169.261719 279.5 169.351562 280.105469 169.410156 C 280.710938 169.46875 281.316406 169.5 281.921875 169.5 C 282.53125 169.5 283.136719 169.46875 283.742188 169.410156 C 284.34375 169.351562 284.945312 169.261719 285.542969 169.144531 C 286.136719 169.023438 286.726562 168.878906 287.308594 168.703125 C 287.886719 168.527344 288.460938 168.320312 289.019531 168.089844 C 289.582031 167.855469 290.128906 167.597656 290.667969 167.3125 C 291.203125 167.027344 291.722656 166.714844 292.226562 166.375 C 292.730469 166.039062 293.21875 165.679688 293.6875 165.292969 C 294.160156 164.910156 294.609375 164.5 295.039062 164.074219 C 295.46875 163.644531 295.875 163.195312 296.261719 162.726562 C 296.644531 162.253906 297.007812 161.769531 297.34375 161.265625 C 297.683594 160.757812 297.992188 160.238281 298.28125 159.703125 C 298.566406 159.167969 298.824219 158.621094 299.058594 158.0625 C 299.289062 157.5 299.496094 156.929688 299.671875 156.347656 C 299.847656 155.769531 299.996094 155.179688 300.113281 154.585938 C 300.230469 153.988281 300.320312 153.390625 300.378906 152.785156 C 300.441406 152.183594 300.46875 151.578125 300.46875 150.96875 C 300.46875 150.363281 300.4375 149.757812 300.378906 149.152344 C 300.320312 148.550781 300.230469 147.949219 300.109375 147.355469 C 299.992188 146.761719 299.84375 146.171875 299.667969 145.59375 C 299.488281 145.011719 299.285156 144.441406 299.050781 143.882812 C 298.820312 143.320312 298.558594 142.773438 298.273438 142.238281 C 297.988281 141.703125 297.675781 141.183594 297.339844 140.679688 C 297 140.175781 296.640625 139.6875 296.253906 139.21875 C 295.867188 138.75 295.460938 138.300781 295.03125 137.871094 C 294.601562 137.441406 294.152344 137.035156 293.683594 136.652344 C 293.214844 136.265625 292.726562 135.90625 292.222656 135.566406 C 291.71875 135.230469 291.199219 134.917969 290.660156 134.632812 C 290.125 134.347656 289.578125 134.085938 289.015625 133.855469 C 288.457031 133.621094 287.886719 133.417969 287.304688 133.242188 C 286.722656 133.066406 286.136719 132.917969 285.539062 132.796875 C 284.945312 132.679688 284.34375 132.589844 283.742188 132.53125 C 283.136719 132.46875 282.53125 132.4375 281.921875 132.4375 Z M 281.921875 132.4375 " fill-opacity="1" fill-rule="nonzero"/><path fill="#000000" d="M 269.324219 143.890625 C 269.1875 143.890625 269.054688 143.855469 268.933594 143.789062 C 268.8125 143.722656 268.714844 143.632812 268.640625 143.515625 C 268.566406 143.398438 268.527344 143.273438 268.515625 143.136719 C 268.507812 142.996094 268.53125 142.867188 268.589844 142.742188 C 269.292969 141.417969 270.234375 140.296875 271.414062 139.371094 C 272.59375 138.449219 273.910156 137.800781 275.363281 137.433594 C 275.582031 137.378906 275.785156 137.40625 275.980469 137.519531 C 276.171875 137.632812 276.296875 137.796875 276.355469 138.015625 C 276.410156 138.230469 276.382812 138.433594 276.269531 138.628906 C 276.15625 138.820312 275.992188 138.945312 275.777344 139.003906 C 274.554688 139.308594 273.449219 139.84375 272.453125 140.613281 C 271.457031 141.382812 270.660156 142.320312 270.058594 143.425781 C 269.914062 143.734375 269.667969 143.890625 269.324219 143.890625 Z M 269.324219 143.890625 " fill-opacity="1" fill-rule="nonzero"/><path fill="#ffffff" d="M 250.453125 186.191406 L 249.074219 181.980469 L 249.019531 181.964844 L 249.046875 181.953125 C 246.425781 177.199219 243.046875 172.496094 240.179688 169.824219 C 239.367188 169.066406 238.476562 168.175781 237.503906 167.203125 C 236.128906 165.8125 234.660156 164.527344 233.097656 163.347656 C 231.535156 162.171875 229.898438 161.109375 228.183594 160.167969 C 226.46875 159.222656 224.695312 158.410156 222.863281 157.722656 C 221.03125 157.035156 219.160156 156.480469 217.25 156.066406 C 215.335938 155.648438 213.40625 155.371094 211.453125 155.230469 C 209.5 155.09375 207.550781 155.09375 205.597656 155.234375 C 203.644531 155.378906 201.714844 155.660156 199.804688 156.082031 C 197.890625 156.503906 196.023438 157.058594 194.191406 157.75 L 204.925781 167.070312 C 203.246094 171.660156 200.246094 185.167969 204.085938 187.273438 C 206.175781 188.429688 209.183594 188.238281 212.3125 187.925781 C 213.703125 191.632812 214.992188 194.589844 215.847656 196.566406 C 216.558594 198.226562 217.710938 199.476562 219.308594 200.320312 L 222.769531 202.15625 C 223.21875 202.394531 223.691406 202.585938 224.179688 202.730469 C 224.671875 202.871094 225.171875 202.964844 225.679688 203.011719 C 226.1875 203.054688 226.695312 203.046875 227.203125 202.988281 C 227.710938 202.929688 228.207031 202.824219 228.695312 202.664062 C 229.179688 202.507812 229.644531 202.304688 230.089844 202.054688 C 230.535156 201.800781 230.953125 201.511719 231.335938 201.175781 C 231.722656 200.84375 232.074219 200.472656 232.386719 200.070312 C 232.699219 199.667969 232.96875 199.234375 233.195312 198.777344 C 234.238281 198.957031 235.269531 198.921875 236.296875 198.667969 C 237.324219 198.414062 238.257812 197.964844 239.097656 197.320312 C 239.785156 196.800781 240.371094 196.179688 240.847656 195.457031 C 241.949219 195.710938 243.050781 195.714844 244.15625 195.472656 C 245.257812 195.230469 246.257812 194.769531 247.15625 194.082031 C 249.507812 192.296875 251.046875 189.054688 250.453125 186.191406 Z M 250.453125 186.191406 " fill-opacity="1" fill-rule="nonzero"/><path fill="#000000" d="M 226.339844 203.863281 C 224.9375 203.863281 223.621094 203.53125 222.382812 202.871094 L 218.925781 201.035156 C 217.164062 200.101562 215.886719 198.714844 215.101562 196.882812 L 214.976562 196.601562 C 214.191406 194.78125 213.023438 192.082031 211.773438 188.792969 C 208.71875 189.078125 205.835938 189.167969 203.691406 187.980469 C 199.011719 185.414062 202.71875 171.15625 203.980469 167.320312 L 193.660156 158.363281 C 193.550781 158.269531 193.472656 158.15625 193.425781 158.019531 C 193.378906 157.886719 193.367188 157.75 193.390625 157.609375 C 193.417969 157.46875 193.476562 157.34375 193.566406 157.234375 C 193.660156 157.121094 193.769531 157.042969 193.902344 156.992188 C 195.773438 156.289062 197.679688 155.722656 199.628906 155.292969 C 201.578125 154.867188 203.546875 154.578125 205.539062 154.433594 C 207.527344 154.289062 209.519531 154.289062 211.511719 154.429688 C 213.5 154.570312 215.472656 154.855469 217.421875 155.28125 C 219.371094 155.707031 221.28125 156.269531 223.148438 156.96875 C 225.015625 157.671875 226.824219 158.5 228.574219 159.460938 C 230.324219 160.425781 231.992188 161.503906 233.585938 162.707031 C 235.179688 163.910156 236.675781 165.21875 238.078125 166.636719 C 239.03125 167.585938 239.929688 168.484375 240.734375 169.234375 C 243.542969 171.855469 246.976562 176.542969 249.710938 181.480469 C 249.769531 181.554688 249.816406 181.636719 249.84375 181.730469 L 251.222656 185.941406 C 251.234375 185.972656 251.242188 186 251.246094 186.03125 C 251.878906 189.066406 250.398438 192.640625 247.644531 194.726562 C 246.730469 195.433594 245.714844 195.925781 244.59375 196.207031 C 243.476562 196.492188 242.347656 196.539062 241.207031 196.351562 C 240.769531 196.925781 240.265625 197.4375 239.699219 197.882812 C 239.132812 198.332031 238.515625 198.699219 237.855469 198.988281 C 237.191406 199.277344 236.503906 199.476562 235.789062 199.589844 C 235.078125 199.703125 234.359375 199.726562 233.640625 199.65625 C 233.074219 200.625 232.34375 201.449219 231.449219 202.128906 C 229.941406 203.285156 228.238281 203.863281 226.339844 203.863281 Z M 212.3125 187.113281 C 212.484375 187.113281 212.636719 187.164062 212.777344 187.257812 C 212.914062 187.355469 213.015625 187.484375 213.074219 187.640625 C 214.390625 191.15625 215.640625 194.042969 216.46875 195.957031 L 216.589844 196.242188 C 217.230469 197.726562 218.261719 198.847656 219.691406 199.605469 L 223.148438 201.441406 C 223.550781 201.65625 223.972656 201.824219 224.410156 201.953125 C 224.851562 202.082031 225.296875 202.164062 225.75 202.203125 C 226.207031 202.242188 226.660156 202.234375 227.113281 202.183594 C 227.566406 202.132812 228.011719 202.035156 228.445312 201.894531 C 228.878906 201.753906 229.296875 201.570312 229.695312 201.347656 C 230.089844 201.121094 230.460938 200.859375 230.808594 200.5625 C 231.152344 200.265625 231.464844 199.933594 231.746094 199.574219 C 232.023438 199.214844 232.265625 198.828125 232.464844 198.417969 C 232.546875 198.257812 232.667969 198.136719 232.828125 198.054688 C 232.984375 197.972656 233.15625 197.949219 233.332031 197.980469 C 233.984375 198.089844 234.640625 198.101562 235.296875 198.023438 C 235.953125 197.941406 236.585938 197.769531 237.191406 197.503906 C 237.800781 197.242188 238.359375 196.898438 238.863281 196.472656 C 239.371094 196.046875 239.808594 195.558594 240.175781 195.007812 C 240.269531 194.867188 240.394531 194.765625 240.550781 194.703125 C 240.707031 194.640625 240.867188 194.628906 241.03125 194.667969 C 242.011719 194.894531 242.996094 194.898438 243.984375 194.683594 C 244.96875 194.46875 245.859375 194.054688 246.660156 193.4375 C 248.886719 191.75 250.144531 188.800781 249.667969 186.398438 L 248.378906 182.457031 C 248.308594 182.367188 248.261719 182.265625 248.234375 182.15625 C 245.589844 177.398438 242.300781 172.914062 239.625 170.417969 C 238.804688 169.648438 237.894531 168.738281 236.929688 167.777344 C 235.621094 166.457031 234.226562 165.230469 232.746094 164.105469 C 231.269531 162.976562 229.71875 161.960938 228.09375 161.050781 C 226.472656 160.140625 224.792969 159.347656 223.0625 158.671875 C 221.328125 157.996094 219.554688 157.445312 217.746094 157.015625 C 215.933594 156.585938 214.105469 156.289062 212.25 156.113281 C 210.398438 155.941406 208.542969 155.902344 206.683594 155.988281 C 204.828125 156.074219 202.984375 156.289062 201.15625 156.636719 C 199.328125 156.980469 197.53125 157.449219 195.769531 158.046875 L 205.457031 166.457031 C 205.582031 166.566406 205.667969 166.703125 205.710938 166.867188 C 205.753906 167.027344 205.746094 167.1875 205.6875 167.347656 C 203.609375 173.035156 201.523438 184.941406 204.476562 186.5625 C 206.355469 187.605469 209.21875 187.421875 212.234375 187.121094 C 212.261719 187.117188 212.289062 187.117188 212.3125 187.117188 Z M 212.3125 187.113281 " fill-opacity="1" fill-rule="nonzero"/><path fill="#000000" d="M 224.5 193.648438 C 224.136719 193.648438 223.882812 193.480469 223.746094 193.144531 C 220.75 185.816406 216.878906 182.902344 214.546875 183.292969 C 213.902344 183.441406 213.425781 183.808594 213.117188 184.394531 C 212.855469 184.839844 212.699219 185.316406 212.648438 185.832031 C 212.597656 186.34375 212.65625 186.84375 212.828125 187.332031 C 212.902344 187.542969 212.890625 187.75 212.792969 187.953125 C 212.695312 188.152344 212.539062 188.292969 212.328125 188.367188 C 212.117188 188.4375 211.910156 188.425781 211.707031 188.328125 C 211.503906 188.230469 211.367188 188.078125 211.292969 187.863281 C 211.046875 187.152344 210.960938 186.417969 211.035156 185.664062 C 211.109375 184.914062 211.339844 184.210938 211.726562 183.558594 C 211.992188 183.074219 212.351562 182.667969 212.800781 182.339844 C 213.25 182.015625 213.746094 181.796875 214.289062 181.691406 C 217.097656 181.21875 221.664062 183.769531 225.25 192.53125 C 225.300781 192.65625 225.316406 192.785156 225.304688 192.921875 C 225.289062 193.054688 225.246094 193.179688 225.171875 193.289062 C 225.09375 193.402344 225 193.488281 224.878906 193.554688 C 224.761719 193.617188 224.632812 193.648438 224.496094 193.648438 Z M 224.5 193.648438 " fill-opacity="1" fill-rule="nonzero"/><path fill="#ff7f50" d="M 204.058594 192.054688 L 134.523438 174.039062 C 133.730469 173.832031 132.957031 173.582031 132.195312 173.285156 C 131.4375 172.988281 130.699219 172.644531 129.980469 172.257812 C 129.261719 171.871094 128.570312 171.441406 127.902344 170.972656 C 127.234375 170.5 126.597656 169.992188 125.996094 169.445312 C 125.390625 168.898438 124.820312 168.316406 124.285156 167.699219 C 123.75 167.085938 123.253906 166.4375 122.796875 165.761719 C 122.339844 165.085938 121.925781 164.386719 121.554688 163.660156 C 121.179688 162.933594 120.855469 162.1875 120.574219 161.425781 C 120.289062 160.660156 120.054688 159.878906 119.867188 159.085938 C 119.679688 158.292969 119.539062 157.492188 119.449219 156.679688 C 119.359375 155.871094 119.316406 155.058594 119.324219 154.242188 C 119.332031 153.425781 119.386719 152.613281 119.492188 151.804688 C 119.597656 150.996094 119.753906 150.199219 119.957031 149.40625 C 120.15625 148.617188 120.40625 147.84375 120.703125 147.082031 C 120.996094 146.324219 121.339844 145.582031 121.722656 144.863281 C 122.109375 144.144531 122.535156 143.453125 123.003906 142.785156 L 158.449219 92.21875 L 191.675781 115.5 L 172.996094 142.164062 L 214.25 152.859375 Z M 204.058594 192.054688 " fill-opacity="1" fill-rule="nonzero"/><path fill="#000000" d="M 111.839844 131.953125 C 111.613281 131.953125 111.421875 131.875 111.265625 131.714844 C 111.105469 131.558594 111.027344 131.367188 111.027344 131.140625 L 111.027344 123.847656 C 111.027344 123.625 111.105469 123.433594 111.265625 123.277344 C 111.421875 123.117188 111.613281 123.039062 111.839844 123.039062 C 112.0625 123.039062 112.253906 123.117188 112.414062 123.277344 C 112.570312 123.433594 112.648438 123.625 112.648438 123.847656 L 112.648438 131.140625 C 112.648438 131.367188 112.570312 131.558594 112.414062 131.714844 C 112.253906 131.875 112.0625 131.953125 111.839844 131.953125 Z M 111.839844 131.953125 " fill-opacity="1" fill-rule="nonzero"/><path fill="#000000" d="M 205.898438 126.710938 L 200.488281 126.710938 C 200.265625 126.710938 200.074219 126.632812 199.917969 126.476562 C 199.757812 126.316406 199.679688 126.125 199.679688 125.902344 L 199.679688 119.527344 C 199.679688 117.074219 199.421875 114.644531 198.898438 112.246094 C 198.378906 109.851562 197.605469 107.535156 196.582031 105.300781 C 195.5625 103.070312 194.3125 100.972656 192.839844 99.011719 C 191.367188 97.046875 189.699219 95.265625 187.839844 93.660156 L 141.265625 53.375 C 141.09375 53.230469 141 53.042969 140.984375 52.820312 C 140.964844 52.59375 141.03125 52.394531 141.179688 52.226562 C 141.324219 52.054688 141.511719 51.960938 141.738281 51.949219 C 141.964844 51.933594 142.160156 52 142.328125 52.148438 L 188.898438 92.433594 C 190.847656 94.113281 192.59375 95.980469 194.136719 98.039062 C 195.683594 100.09375 196.988281 102.292969 198.058594 104.628906 C 199.128906 106.964844 199.9375 109.390625 200.484375 111.902344 C 201.03125 114.414062 201.304688 116.957031 201.300781 119.527344 L 201.300781 125.09375 L 205.085938 125.09375 L 205.085938 119.527344 C 205.089844 116.683594 204.789062 113.875 204.183594 111.097656 C 203.578125 108.320312 202.683594 105.640625 201.5 103.054688 C 200.320312 100.472656 198.875 98.042969 197.167969 95.769531 C 195.457031 93.496094 193.527344 91.429688 191.375 89.574219 L 147.257812 51.285156 C 147.082031 51.140625 146.984375 50.953125 146.96875 50.726562 C 146.949219 50.503906 147.015625 50.304688 147.164062 50.132812 C 147.3125 49.960938 147.5 49.871094 147.726562 49.855469 C 147.953125 49.839844 148.152344 49.910156 148.320312 50.0625 L 192.4375 88.347656 C 194.679688 90.28125 196.6875 92.429688 198.464844 94.796875 C 200.242188 97.164062 201.746094 99.691406 202.976562 102.382812 C 204.210938 105.070312 205.140625 107.863281 205.769531 110.753906 C 206.398438 113.644531 206.710938 116.570312 206.707031 119.527344 L 206.707031 125.902344 C 206.707031 126.125 206.628906 126.316406 206.472656 126.476562 C 206.3125 126.632812 206.121094 126.710938 205.898438 126.710938 Z M 205.898438 126.710938 " fill-opacity="1" fill-rule="nonzero"/><path fill="#000000" d="M 147.28125 109.019531 C 147.046875 109.019531 146.851562 108.933594 146.691406 108.761719 C 146.53125 108.589844 146.457031 108.386719 146.472656 108.15625 L 147.175781 97.59375 C 147.1875 97.367188 147.277344 97.179688 147.449219 97.027344 C 147.617188 96.878906 147.816406 96.8125 148.039062 96.828125 C 148.265625 96.839844 148.453125 96.933594 148.601562 97.105469 C 148.75 97.277344 148.8125 97.476562 148.796875 97.699219 L 148.285156 105.371094 L 151.269531 101.125 C 151.398438 100.941406 151.574219 100.832031 151.792969 100.792969 C 152.011719 100.753906 152.214844 100.800781 152.398438 100.929688 C 152.582031 101.058594 152.691406 101.230469 152.730469 101.449219 C 152.769531 101.671875 152.726562 101.871094 152.597656 102.054688 L 147.945312 108.671875 C 147.785156 108.902344 147.5625 109.019531 147.28125 109.019531 Z M 147.28125 109.019531 " fill-opacity="1" fill-rule="nonzero"/><path fill="#000000" d="M 184.375 126.710938 C 184.046875 126.710938 183.808594 126.566406 183.65625 126.273438 C 183.507812 125.984375 183.523438 125.703125 183.714844 125.4375 L 186.902344 120.898438 C 187.03125 120.714844 187.207031 120.601562 187.429688 120.566406 C 187.648438 120.527344 187.851562 120.570312 188.035156 120.699219 C 188.21875 120.828125 188.328125 121.003906 188.367188 121.222656 C 188.40625 121.445312 188.359375 121.644531 188.230469 121.828125 L 185.042969 126.367188 C 184.878906 126.597656 184.65625 126.710938 184.375 126.710938 Z M 184.375 126.710938 " fill-opacity="1" fill-rule="nonzero"/><path fill="#000000" d="M 172.996094 148.296875 C 172.769531 148.296875 172.578125 148.214844 172.421875 148.058594 C 172.261719 147.898438 172.183594 147.707031 172.183594 147.484375 L 172.183594 144.199219 L 169.3125 147.230469 C 169.160156 147.398438 168.96875 147.484375 168.742188 147.492188 C 168.515625 147.5 168.320312 147.425781 168.15625 147.273438 C 167.992188 147.117188 167.90625 146.925781 167.902344 146.699219 C 167.898438 146.472656 167.976562 146.28125 168.132812 146.117188 L 172.40625 141.605469 C 172.65625 141.339844 172.953125 141.273438 173.292969 141.410156 C 173.636719 141.546875 173.804688 141.796875 173.804688 142.164062 L 173.804688 147.484375 C 173.804688 147.707031 173.726562 147.898438 173.566406 148.058594 C 173.410156 148.214844 173.21875 148.296875 172.996094 148.296875 Z M 172.996094 148.296875 " fill-opacity="1" fill-rule="nonzero"/><path fill="#000000" d="M 277.238281 162.535156 C 277.207031 162.535156 277.179688 162.53125 277.152344 162.53125 C 276.890625 162.5 276.691406 162.375 276.550781 162.15625 L 269.753906 151.351562 C 269.632812 151.160156 269.59375 150.953125 269.640625 150.734375 C 269.691406 150.511719 269.8125 150.339844 270.003906 150.21875 C 270.195312 150.101562 270.402344 150.066406 270.621094 150.117188 C 270.84375 150.171875 271.011719 150.292969 271.128906 150.488281 L 277.375 160.421875 L 289.328125 148.191406 C 289.484375 148.027344 289.675781 147.945312 289.898438 147.941406 C 290.125 147.9375 290.320312 148.011719 290.480469 148.171875 C 290.644531 148.328125 290.722656 148.519531 290.726562 148.746094 C 290.726562 148.972656 290.648438 149.164062 290.488281 149.324219 L 277.816406 162.289062 C 277.65625 162.453125 277.464844 162.535156 277.238281 162.535156 Z M 277.238281 162.535156 " fill-opacity="1" fill-rule="nonzero"/><path fill="#000000" d="M 265.609375 161.722656 C 265.398438 161.722656 265.214844 161.652344 265.0625 161.507812 C 264.90625 161.367188 264.820312 161.191406 264.804688 160.980469 C 264.785156 160.769531 264.84375 160.582031 264.972656 160.414062 C 265.101562 160.25 265.269531 160.148438 265.476562 160.113281 L 265.746094 160.070312 C 268.683594 159.578125 271.351562 158.449219 273.75 156.6875 L 273.851562 156.613281 C 274.03125 156.480469 274.234375 156.429688 274.457031 156.460938 C 274.675781 156.496094 274.855469 156.601562 274.988281 156.785156 C 275.121094 156.964844 275.171875 157.164062 275.136719 157.386719 C 275.101562 157.609375 274.996094 157.785156 274.8125 157.917969 L 274.714844 157.992188 C 272.105469 159.90625 269.203125 161.132812 266.011719 161.667969 L 265.746094 161.710938 C 265.699219 161.71875 265.65625 161.722656 265.609375 161.722656 Z M 265.609375 161.722656 " fill-opacity="1" fill-rule="nonzero"/><path fill="#000000" d="M 287.351562 153.953125 C 286.765625 153.964844 286.183594 153.921875 285.601562 153.824219 C 285.386719 153.777344 285.214844 153.660156 285.09375 153.476562 C 284.972656 153.289062 284.933594 153.089844 284.976562 152.871094 C 285.019531 152.652344 285.136719 152.484375 285.320312 152.359375 C 285.503906 152.234375 285.703125 152.195312 285.921875 152.234375 C 285.972656 152.246094 289.925781 152.964844 296.59375 150.210938 C 298.042969 149.609375 299.316406 148.753906 300.417969 147.644531 C 300.578125 147.488281 300.769531 147.410156 300.992188 147.410156 C 301.214844 147.410156 301.402344 147.492188 301.5625 147.648438 C 301.71875 147.804688 301.796875 147.996094 301.800781 148.21875 C 301.800781 148.441406 301.722656 148.632812 301.566406 148.789062 C 300.3125 150.050781 298.859375 151.023438 297.214844 151.707031 C 292.640625 153.597656 289.253906 153.953125 287.351562 153.953125 Z M 287.351562 153.953125 " fill-opacity="1" fill-rule="nonzero"/><path fill="#000000" d="M 288.015625 138.628906 C 288.015625 139.003906 287.941406 139.367188 287.800781 139.714844 C 287.65625 140.0625 287.449219 140.367188 287.183594 140.632812 C 286.917969 140.898438 286.609375 141.105469 286.261719 141.25 C 285.914062 141.390625 285.554688 141.464844 285.175781 141.464844 C 284.800781 141.464844 284.4375 141.390625 284.089844 141.25 C 283.742188 141.105469 283.433594 140.898438 283.167969 140.632812 C 282.902344 140.367188 282.699219 140.0625 282.554688 139.714844 C 282.410156 139.367188 282.335938 139.003906 282.335938 138.628906 C 282.335938 138.253906 282.410156 137.890625 282.554688 137.542969 C 282.699219 137.195312 282.902344 136.886719 283.167969 136.621094 C 283.433594 136.355469 283.742188 136.152344 284.089844 136.007812 C 284.4375 135.863281 284.800781 135.792969 285.175781 135.792969 C 285.554688 135.792969 285.914062 135.863281 286.261719 136.007812 C 286.609375 136.152344 286.917969 136.355469 287.183594 136.621094 C 287.449219 136.886719 287.65625 137.195312 287.800781 137.542969 C 287.941406 137.890625 288.015625 138.253906 288.015625 138.628906 Z M 288.015625 138.628906 " fill-opacity="1" fill-rule="nonzero"/><g clip-path="url(#c9d1efd1e0)"><path fill="#c8c869" d="M 334.722656 216.183594 C 334.371094 215.632812 333.574219 215.871094 333.535156 216.503906 C 333.417969 218.21875 333.601562 219.949219 333.382812 221.65625 C 333.171875 223.308594 332.441406 224.757812 331.285156 225.949219 C 329.171875 228.125 326.242188 229.078125 323.378906 229.863281 C 323.921875 228.039062 325.371094 226.542969 326.492188 225.0625 C 327.867188 223.246094 328.746094 221.375 328.558594 219.050781 C 328.453125 217.6875 328.054688 216.25 328.351562 214.890625 C 328.644531 213.566406 329.824219 212.765625 330.492188 211.648438 C 331.757812 209.539062 331.804688 206.914062 330.765625 204.714844 C 330.578125 204.3125 329.851562 204.285156 329.671875 204.714844 C 328.960938 206.390625 328.238281 208.113281 327.121094 209.5625 C 326.050781 210.953125 324.511719 211.875 323.871094 213.578125 C 323.234375 215.257812 323.296875 217.097656 322.570312 218.765625 C 322.03125 220.007812 321.242188 221.125 320.265625 222.054688 C 320.296875 221.132812 320.253906 220.214844 320.125 219.292969 C 320.023438 218.578125 319.878906 217.867188 319.679688 217.171875 C 319.480469 216.460938 319.113281 215.679688 319.160156 214.925781 C 319.210938 214.175781 319.769531 213.636719 320.074219 212.988281 C 320.320312 212.476562 320.429688 211.929688 320.472656 211.367188 C 320.578125 209.984375 320.25 208.652344 320.820312 207.332031 C 321.328125 206.15625 321.710938 205.132812 321.511719 203.824219 C 321.3125 202.519531 320.722656 201.300781 320.15625 200.121094 C 319.203125 198.140625 318.023438 196.105469 315.941406 195.160156 C 315.410156 194.917969 314.933594 195.3125 315.015625 195.871094 C 315.644531 200.253906 316.324219 205.175781 314.253906 209.292969 C 313.820312 210.160156 313.183594 210.960938 313.007812 211.9375 C 312.804688 213.046875 313.273438 214.121094 313.398438 215.210938 C 313.59375 216.949219 313.339844 218.691406 312.691406 220.289062 C 312.449219 219.417969 312.140625 218.570312 311.765625 217.738281 C 311.191406 216.46875 310.128906 215.25 309.90625 213.847656 C 309.683594 212.449219 310.199219 211.050781 310.210938 209.65625 C 310.21875 208.441406 309.816406 207.386719 309.179688 206.375 C 308.578125 205.421875 307.734375 204.484375 307.453125 203.367188 C 307.105469 202 307.953125 200.804688 308.441406 199.585938 C 309.375 197.25 309.007812 194.546875 307.523438 192.523438 C 307.148438 192.015625 306.410156 192.199219 306.351562 192.839844 C 305.898438 197.832031 300.894531 201.378906 301.378906 206.621094 C 301.480469 207.707031 301.84375 208.707031 302.4375 209.617188 C 303.058594 210.574219 303.875 211.414062 304.378906 212.449219 C 305.476562 214.707031 304.347656 217.390625 305.277344 219.71875 C 305.757812 220.917969 306.664062 221.863281 307.21875 223.019531 C 307.710938 224.03125 307.882812 225.148438 307.78125 226.25 C 306.589844 225.316406 304.839844 225.1875 303.53125 224.394531 C 301.296875 223.042969 302.125 219.691406 301.746094 217.523438 C 300.90625 212.753906 296.613281 208.996094 291.839844 208.621094 C 291.285156 208.574219 291.054688 209.3125 291.40625 209.675781 C 295.222656 213.617188 297.3125 218.765625 297.5625 224.226562 C 297.617188 225.449219 297.808594 226.582031 298.613281 227.539062 C 299.269531 228.324219 300.167969 228.859375 301.035156 229.367188 C 302.015625 229.945312 303.054688 230.507812 303.730469 231.449219 C 304.519531 232.550781 304.789062 233.9375 304.507812 235.253906 C 304.484375 235.375 304.492188 235.484375 304.523438 235.578125 C 304.53125 235.976562 304.539062 236.378906 304.546875 236.777344 C 304.554688 237.160156 304.839844 237.371094 305.1875 237.417969 C 309.027344 237.929688 312.867188 238.445312 316.707031 238.957031 C 317.460938 239.058594 318.277344 239.265625 319.027344 239.050781 C 319.746094 238.847656 320.140625 238.253906 320.683594 237.792969 C 321.828125 236.824219 323.414062 236.613281 324.855469 236.457031 C 326.332031 236.300781 327.832031 236.199219 329.246094 235.703125 C 330.5 235.257812 331.648438 234.59375 332.675781 233.753906 C 334.882812 231.949219 336.421875 229.332031 336.917969 226.523438 C 337.554688 222.9375 336.679688 219.226562 334.722656 216.183594 " fill-opacity="1" fill-rule="nonzero"/></g><path fill="#000000" d="M 318.257812 237.4375 C 318.257812 237.429688 318.257812 237.417969 318.257812 237.410156 C 318.257812 237.332031 318.242188 237.261719 318.207031 237.191406 C 318.183594 237.121094 318.148438 237.0625 318.09375 237.011719 C 318.039062 236.957031 317.980469 236.917969 317.910156 236.894531 C 317.84375 236.859375 317.769531 236.84375 317.691406 236.847656 C 317.546875 236.851562 317.394531 236.898438 317.292969 237.011719 C 317.265625 237.050781 317.234375 237.085938 317.207031 237.125 C 317.15625 237.214844 317.128906 237.308594 317.128906 237.410156 C 317.128906 237.429688 317.125 237.449219 317.125 237.46875 C 317.121094 237.5 317.117188 237.53125 317.113281 237.5625 C 317.117188 237.617188 317.125 237.671875 317.136719 237.726562 L 317.191406 237.867188 C 317.230469 237.933594 317.28125 237.988281 317.34375 238.03125 C 317.378906 238.066406 317.421875 238.089844 317.46875 238.105469 C 317.539062 238.140625 317.613281 238.15625 317.691406 238.152344 L 317.847656 238.132812 L 317.984375 238.074219 C 318.054688 238.039062 318.105469 237.988281 318.148438 237.925781 C 318.199219 237.871094 318.234375 237.804688 318.25 237.726562 C 318.257812 237.699219 318.261719 237.667969 318.265625 237.640625 C 318.277344 237.570312 318.273438 237.503906 318.257812 237.4375 " fill-opacity="1" fill-rule="nonzero"/><path fill="#000000" d="M 316.714844 234.875 C 315.972656 234.875 315.972656 236.027344 316.714844 236.027344 C 317.453125 236.027344 317.457031 234.875 316.714844 234.875 " fill-opacity="1" fill-rule="nonzero"/><path fill="#000000" d="M 319.558594 235.613281 C 319.554688 235.46875 319.496094 235.320312 319.394531 235.21875 C 319.34375 235.164062 319.28125 235.125 319.214844 235.101562 C 319.148438 235.066406 319.074219 235.050781 319 235.054688 C 318.855469 235.058594 318.703125 235.105469 318.605469 235.21875 C 318.503906 235.328125 318.441406 235.460938 318.441406 235.613281 C 318.4375 235.667969 318.4375 235.722656 318.4375 235.777344 C 318.433594 235.855469 318.449219 235.925781 318.484375 235.992188 C 318.507812 236.0625 318.546875 236.121094 318.601562 236.171875 C 318.652344 236.230469 318.710938 236.265625 318.78125 236.289062 C 318.847656 236.324219 318.921875 236.339844 319 236.339844 C 319.144531 236.332031 319.292969 236.285156 319.394531 236.171875 C 319.496094 236.066406 319.5625 235.925781 319.558594 235.777344 C 319.558594 235.722656 319.558594 235.667969 319.558594 235.613281 " fill-opacity="1" fill-rule="nonzero"/><path fill="#000000" d="M 318.347656 232.949219 C 317.65625 232.949219 317.652344 234.027344 318.347656 234.027344 C 319.039062 234.027344 319.039062 232.949219 318.347656 232.949219 " fill-opacity="1" fill-rule="nonzero"/><path fill="#000000" d="M 320.304688 233.085938 C 319.578125 233.085938 319.578125 234.214844 320.304688 234.214844 C 321.027344 234.214844 321.03125 233.085938 320.304688 233.085938 " fill-opacity="1" fill-rule="nonzero"/><path fill="#000000" d="M 319.324219 230.8125 C 318.617188 230.8125 318.617188 231.914062 319.324219 231.914062 C 320.03125 231.914062 320.03125 230.8125 319.324219 230.8125 " fill-opacity="1" fill-rule="nonzero"/><path fill="#000000" d="M 316.386719 232.277344 C 315.675781 232.277344 315.671875 233.390625 316.386719 233.390625 C 317.101562 233.390625 317.105469 232.277344 316.386719 232.277344 " fill-opacity="1" fill-rule="nonzero"/><path fill="#000000" d="M 315.320312 236.769531 C 314.585938 236.769531 314.585938 237.90625 315.320312 237.90625 C 316.050781 237.90625 316.050781 236.769531 315.320312 236.769531 " fill-opacity="1" fill-rule="nonzero"/><path fill="#000000" d="M 314.304688 234.878906 C 313.574219 234.878906 313.574219 236.019531 314.304688 236.019531 C 315.035156 236.019531 315.035156 234.878906 314.304688 234.878906 " fill-opacity="1" fill-rule="nonzero"/><path fill="#000000" d="M 312.925781 237.058594 C 312.195312 237.058594 312.191406 238.199219 312.925781 238.199219 C 313.660156 238.199219 313.660156 237.058594 312.925781 237.058594 " fill-opacity="1" fill-rule="nonzero"/><path fill="#000000" d="M 320.972656 235.023438 C 320.238281 235.023438 320.238281 236.167969 320.972656 236.167969 C 321.710938 236.167969 321.710938 235.023438 320.972656 235.023438 " fill-opacity="1" fill-rule="nonzero"/><path fill="#000000" d="M 319.523438 237.085938 C 318.828125 237.085938 318.828125 238.167969 319.523438 238.167969 C 320.21875 238.167969 320.21875 237.085938 319.523438 237.085938 " fill-opacity="1" fill-rule="nonzero"/><path fill="#000000" d="M 321.410156 230.914062 C 320.714844 230.914062 320.714844 231.996094 321.410156 231.996094 C 322.101562 231.996094 322.105469 230.914062 321.410156 230.914062 " fill-opacity="1" fill-rule="nonzero"/><path fill="#000000" d="M 316.042969 219.160156 C 315.367188 219.160156 315.363281 220.214844 316.042969 220.214844 C 316.722656 220.214844 316.722656 219.160156 316.042969 219.160156 " fill-opacity="1" fill-rule="nonzero"/><path fill="#000000" d="M 314.230469 219.96875 C 313.566406 219.96875 313.566406 221.003906 314.230469 221.003906 C 314.894531 221.003906 314.898438 219.96875 314.230469 219.96875 " fill-opacity="1" fill-rule="nonzero"/><path fill="#000000" d="M 315.609375 221.101562 C 314.90625 221.101562 314.90625 222.195312 315.609375 222.195312 C 316.308594 222.195312 316.3125 221.101562 315.609375 221.101562 " fill-opacity="1" fill-rule="nonzero"/><path fill="#000000" d="M 313.507812 222.199219 C 312.8125 222.199219 312.8125 223.277344 313.507812 223.277344 C 314.199219 223.277344 314.199219 222.199219 313.507812 222.199219 " fill-opacity="1" fill-rule="nonzero"/><path fill="#000000" d="M 315.175781 222.992188 C 314.472656 222.992188 314.472656 224.082031 315.175781 224.082031 C 315.875 224.082031 315.875 222.992188 315.175781 222.992188 " fill-opacity="1" fill-rule="nonzero"/><path fill="#000000" d="M 313.796875 224.289062 C 313.085938 224.289062 313.082031 225.398438 313.796875 225.398438 C 314.507812 225.398438 314.507812 224.289062 313.796875 224.289062 " fill-opacity="1" fill-rule="nonzero"/><path fill="#000000" d="M 314.957031 217.605469 C 314.242188 217.605469 314.242188 218.71875 314.957031 218.71875 C 315.671875 218.71875 315.671875 217.605469 314.957031 217.605469 " fill-opacity="1" fill-rule="nonzero"/><path fill="#000000" d="M 316.550781 216.878906 C 315.835938 216.878906 315.835938 217.992188 316.550781 217.992188 C 317.265625 217.992188 317.265625 216.878906 316.550781 216.878906 " fill-opacity="1" fill-rule="nonzero"/><path fill="#000000" d="M 315.464844 215.234375 C 314.785156 215.234375 314.785156 216.292969 315.464844 216.292969 C 316.144531 216.292969 316.144531 215.234375 315.464844 215.234375 " fill-opacity="1" fill-rule="nonzero"/><path fill="#000000" d="M 314.230469 213.679688 C 313.511719 213.679688 313.511719 214.796875 314.230469 214.796875 C 314.949219 214.796875 314.949219 213.679688 314.230469 213.679688 " fill-opacity="1" fill-rule="nonzero"/><path fill="#000000" d="M 314.015625 216.019531 C 313.3125 216.019531 313.3125 217.109375 314.015625 217.109375 C 314.714844 217.109375 314.714844 216.019531 314.015625 216.019531 " fill-opacity="1" fill-rule="nonzero"/><path fill="#000000" d="M 312.347656 220.507812 C 311.625 220.507812 311.625 221.628906 312.347656 221.628906 C 313.066406 221.628906 313.066406 220.507812 312.347656 220.507812 " fill-opacity="1" fill-rule="nonzero"/><path fill="#000000" d="M 311.695312 218.390625 C 310.960938 218.390625 310.960938 219.53125 311.695312 219.53125 C 312.425781 219.53125 312.425781 218.390625 311.695312 218.390625 " fill-opacity="1" fill-rule="nonzero"/><path fill="#000000" d="M 311.984375 222.761719 C 311.269531 222.761719 311.269531 223.875 311.984375 223.875 C 312.695312 223.875 312.699219 222.761719 311.984375 222.761719 " fill-opacity="1" fill-rule="nonzero"/><path fill="#000000" d="M 310.75 220.441406 C 310.039062 220.441406 310.039062 221.550781 310.75 221.550781 C 311.464844 221.550781 311.464844 220.441406 310.75 220.441406 " fill-opacity="1" fill-rule="nonzero"/><path fill="#000000" d="M 329.746094 208.808594 C 329.019531 208.808594 329.019531 209.9375 329.746094 209.9375 C 330.472656 209.9375 330.476562 208.808594 329.746094 208.808594 " fill-opacity="1" fill-rule="nonzero"/><path fill="#000000" d="M 328.296875 210.269531 C 327.585938 210.269531 327.585938 211.378906 328.296875 211.378906 C 329.007812 211.378906 329.007812 210.269531 328.296875 210.269531 " fill-opacity="1" fill-rule="nonzero"/><path fill="#000000" d="M 329.746094 210.792969 C 329.050781 210.792969 329.050781 211.875 329.746094 211.875 C 330.441406 211.875 330.445312 210.792969 329.746094 210.792969 " fill-opacity="1" fill-rule="nonzero"/><path fill="#000000" d="M 328.515625 212.328125 C 327.832031 212.328125 327.832031 213.390625 328.515625 213.390625 C 329.195312 213.390625 329.199219 212.328125 328.515625 212.328125 " fill-opacity="1" fill-rule="nonzero"/><path fill="#000000" d="M 326.628906 213.828125 C 325.917969 213.828125 325.914062 214.9375 326.628906 214.9375 C 327.34375 214.9375 327.34375 213.828125 326.628906 213.828125 " fill-opacity="1" fill-rule="nonzero"/><path fill="#000000" d="M 327.863281 215.082031 C 327.167969 215.082031 327.167969 216.15625 327.863281 216.15625 C 328.554688 216.15625 328.554688 215.082031 327.863281 215.082031 " fill-opacity="1" fill-rule="nonzero"/><path fill="#000000" d="M 326.339844 216.15625 C 325.628906 216.15625 325.625 217.261719 326.339844 217.261719 C 327.050781 217.261719 327.054688 216.15625 326.339844 216.15625 " fill-opacity="1" fill-rule="nonzero"/><path fill="#000000" d="M 326.992188 217.902344 C 326.285156 217.902344 326.285156 219 326.992188 219 C 327.695312 219 327.699219 217.902344 326.992188 217.902344 " fill-opacity="1" fill-rule="nonzero"/><path fill="#000000" d="M 334.476562 225.207031 C 334.457031 225.164062 334.4375 225.121094 334.421875 225.078125 C 334.386719 225.015625 334.339844 224.964844 334.28125 224.925781 C 334.230469 224.878906 334.167969 224.84375 334.097656 224.828125 C 334.089844 224.828125 334.085938 224.824219 334.078125 224.824219 C 334.0625 224.820312 334.050781 224.8125 334.035156 224.808594 C 333.984375 224.789062 333.933594 224.78125 333.878906 224.789062 C 333.800781 224.785156 333.730469 224.800781 333.664062 224.835938 C 333.59375 224.859375 333.53125 224.898438 333.480469 224.953125 C 333.425781 225.003906 333.386719 225.066406 333.363281 225.136719 C 333.328125 225.203125 333.3125 225.273438 333.316406 225.351562 L 333.335938 225.503906 C 333.363281 225.597656 333.410156 225.683594 333.480469 225.753906 L 333.59375 225.839844 C 333.683594 225.890625 333.777344 225.917969 333.878906 225.917969 C 333.90625 225.921875 333.933594 225.917969 333.960938 225.910156 C 334.007812 225.90625 334.050781 225.894531 334.09375 225.878906 L 334.097656 225.875 C 334.140625 225.859375 334.183594 225.839844 334.226562 225.820312 C 334.289062 225.789062 334.339844 225.742188 334.378906 225.683594 C 334.414062 225.648438 334.433594 225.609375 334.449219 225.5625 C 334.484375 225.496094 334.5 225.425781 334.496094 225.351562 L 334.476562 225.207031 " fill-opacity="1" fill-rule="nonzero"/><path fill="#000000" d="M 332.066406 225.886719 C 331.351562 225.886719 331.351562 227 332.066406 227 C 332.78125 227 332.785156 225.886719 332.066406 225.886719 " fill-opacity="1" fill-rule="nonzero"/><path fill="#000000" d="M 333.371094 226.597656 C 332.636719 226.597656 332.636719 227.742188 333.371094 227.742188 C 334.109375 227.742188 334.109375 226.597656 333.371094 226.597656 " fill-opacity="1" fill-rule="nonzero"/><path fill="#000000" d="M 331.488281 227.835938 C 330.761719 227.835938 330.757812 228.96875 331.488281 228.96875 C 332.214844 228.96875 332.214844 227.835938 331.488281 227.835938 " fill-opacity="1" fill-rule="nonzero"/><path fill="#000000" d="M 333.011719 228.558594 C 332.277344 228.558594 332.277344 229.699219 333.011719 229.699219 C 333.742188 229.699219 333.746094 228.558594 333.011719 228.558594 " fill-opacity="1" fill-rule="nonzero"/><path fill="#000000" d="M 331.488281 229.730469 C 330.765625 229.730469 330.761719 230.855469 331.488281 230.855469 C 332.210938 230.855469 332.210938 229.730469 331.488281 229.730469 " fill-opacity="1" fill-rule="nonzero"/><path fill="#000000" d="M 329.746094 228.941406 C 329.039062 228.941406 329.039062 230.042969 329.746094 230.042969 C 330.453125 230.042969 330.457031 228.941406 329.746094 228.941406 " fill-opacity="1" fill-rule="nonzero"/><path fill="#000000" d="M 329.820312 230.976562 C 329.113281 230.976562 329.113281 232.074219 329.820312 232.074219 C 330.523438 232.074219 330.527344 230.976562 329.820312 230.976562 " fill-opacity="1" fill-rule="nonzero"/><path fill="#000000" d="M 296.324219 214.558594 C 295.613281 214.558594 295.609375 215.664062 296.324219 215.664062 C 297.03125 215.664062 297.035156 214.558594 296.324219 214.558594 " fill-opacity="1" fill-rule="nonzero"/><path fill="#000000" d="M 297.917969 215.058594 C 297.199219 215.058594 297.195312 216.179688 297.917969 216.179688 C 298.636719 216.179688 298.640625 215.058594 297.917969 215.058594 " fill-opacity="1" fill-rule="nonzero"/><path fill="#000000" d="M 296.902344 216.382812 C 296.203125 216.382812 296.203125 217.46875 296.902344 217.46875 C 297.601562 217.46875 297.601562 216.382812 296.902344 216.382812 " fill-opacity="1" fill-rule="nonzero"/><path fill="#000000" d="M 298.570312 217.039062 C 297.875 217.039062 297.875 218.121094 298.570312 218.121094 C 299.265625 218.121094 299.265625 217.039062 298.570312 217.039062 " fill-opacity="1" fill-rule="nonzero"/><path fill="#000000" d="M 297.628906 218.492188 C 296.929688 218.492188 296.929688 219.574219 297.628906 219.574219 C 298.324219 219.574219 298.324219 218.492188 297.628906 218.492188 " fill-opacity="1" fill-rule="nonzero"/><path fill="#000000" d="M 299.367188 218.847656 C 298.664062 218.847656 298.664062 219.945312 299.367188 219.945312 C 300.070312 219.945312 300.074219 218.847656 299.367188 218.847656 " fill-opacity="1" fill-rule="nonzero"/><path fill="#000000" d="M 298.425781 220.507812 C 297.703125 220.507812 297.703125 221.628906 298.425781 221.628906 C 299.144531 221.628906 299.144531 220.507812 298.425781 220.507812 " fill-opacity="1" fill-rule="nonzero"/><path fill="#000000" d="M 299.949219 225.730469 C 299.222656 225.730469 299.222656 226.863281 299.949219 226.863281 C 300.671875 226.863281 300.675781 225.730469 299.949219 225.730469 " fill-opacity="1" fill-rule="nonzero"/><path fill="#000000" d="M 300.746094 224.089844 C 300.054688 224.089844 300.054688 225.164062 300.746094 225.164062 C 301.4375 225.164062 301.4375 224.089844 300.746094 224.089844 " fill-opacity="1" fill-rule="nonzero"/><path fill="#000000" d="M 302.148438 225.933594 C 302.128906 225.886719 302.109375 225.84375 302.089844 225.800781 C 302.054688 225.734375 302.007812 225.683594 301.949219 225.644531 C 301.894531 225.597656 301.832031 225.5625 301.761719 225.546875 C 301.6875 225.523438 301.617188 225.519531 301.542969 225.523438 C 301.464844 225.519531 301.394531 225.535156 301.328125 225.570312 C 301.261719 225.59375 301.203125 225.632812 301.152344 225.6875 C 301.097656 225.738281 301.058594 225.796875 301.035156 225.863281 C 301 225.929688 300.984375 226.003906 300.988281 226.078125 C 300.996094 226.128906 301 226.175781 301.007812 226.226562 C 301.035156 226.320312 301.082031 226.402344 301.152344 226.472656 C 301.1875 226.5 301.226562 226.53125 301.261719 226.558594 C 301.347656 226.609375 301.441406 226.632812 301.542969 226.632812 C 301.617188 226.636719 301.6875 226.632812 301.761719 226.613281 C 301.804688 226.59375 301.851562 226.574219 301.894531 226.554688 C 301.957031 226.519531 302.007812 226.472656 302.046875 226.414062 C 302.082031 226.378906 302.105469 226.339844 302.121094 226.292969 C 302.152344 226.226562 302.167969 226.15625 302.167969 226.078125 C 302.160156 226.03125 302.152344 225.980469 302.148438 225.933594 " fill-opacity="1" fill-rule="nonzero"/><path fill="#000000" d="M 301.90625 227.183594 C 301.179688 227.183594 301.175781 228.316406 301.90625 228.316406 C 302.632812 228.316406 302.632812 227.183594 301.90625 227.183594 " fill-opacity="1" fill-rule="nonzero"/><path fill="#000000" d="M 307.054688 197.410156 C 306.335938 197.410156 306.335938 198.527344 307.054688 198.527344 C 307.769531 198.527344 307.773438 197.410156 307.054688 197.410156 " fill-opacity="1" fill-rule="nonzero"/><path fill="#000000" d="M 305.894531 198.882812 C 305.203125 198.882812 305.203125 199.957031 305.894531 199.957031 C 306.582031 199.957031 306.582031 198.882812 305.894531 198.882812 " fill-opacity="1" fill-rule="nonzero"/><path fill="#000000" d="M 307.414062 199.097656 C 306.71875 199.097656 306.71875 200.179688 307.414062 200.179688 C 308.113281 200.179688 308.113281 199.097656 307.414062 199.097656 " fill-opacity="1" fill-rule="nonzero"/><path fill="#000000" d="M 306.546875 200.46875 C 305.835938 200.46875 305.835938 201.570312 306.546875 201.570312 C 307.253906 201.570312 307.253906 200.46875 306.546875 200.46875 " fill-opacity="1" fill-rule="nonzero"/><path fill="#000000" d="M 306.253906 202.488281 C 305.53125 202.488281 305.527344 203.617188 306.253906 203.617188 C 306.980469 203.617188 306.980469 202.488281 306.253906 202.488281 " fill-opacity="1" fill-rule="nonzero"/><path fill="#000000" d="M 319.179688 198.695312 C 319.152344 198.601562 319.105469 198.523438 319.039062 198.453125 C 319 198.417969 318.96875 198.390625 318.917969 198.359375 C 318.839844 198.3125 318.71875 198.273438 318.625 198.28125 C 318.609375 198.285156 318.597656 198.285156 318.582031 198.285156 C 318.503906 198.28125 318.433594 198.300781 318.367188 198.332031 C 318.300781 198.355469 318.242188 198.394531 318.191406 198.449219 C 318.136719 198.5 318.097656 198.558594 318.078125 198.625 C 318.042969 198.691406 318.027344 198.765625 318.027344 198.839844 C 318.035156 198.890625 318.042969 198.9375 318.046875 198.988281 C 318.074219 199.082031 318.121094 199.164062 318.191406 199.230469 C 318.226562 199.261719 318.265625 199.289062 318.300781 199.316406 C 318.386719 199.367188 318.480469 199.394531 318.582031 199.394531 C 318.597656 199.394531 318.609375 199.394531 318.625 199.398438 C 318.71875 199.40625 318.839844 199.367188 318.917969 199.320312 C 318.96875 199.289062 319 199.261719 319.039062 199.226562 C 319.09375 199.175781 319.128906 199.117188 319.152344 199.050781 C 319.183594 198.984375 319.199219 198.914062 319.199219 198.839844 C 319.191406 198.792969 319.183594 198.742188 319.179688 198.695312 " fill-opacity="1" fill-rule="nonzero"/><path fill="#000000" d="M 317.855469 199.679688 C 317.164062 199.679688 317.160156 200.761719 317.855469 200.761719 C 318.550781 200.761719 318.550781 199.679688 317.855469 199.679688 " fill-opacity="1" fill-rule="nonzero"/><path fill="#000000" d="M 319.304688 200.246094 C 318.597656 200.246094 318.59375 201.355469 319.304688 201.355469 C 320.015625 201.355469 320.019531 200.246094 319.304688 200.246094 " fill-opacity="1" fill-rule="nonzero"/><path fill="#000000" d="M 318.21875 201.691406 C 317.5 201.691406 317.496094 202.816406 318.21875 202.816406 C 318.9375 202.816406 318.941406 201.691406 318.21875 201.691406 " fill-opacity="1" fill-rule="nonzero"/></svg>