<svg xmlns="http://www.w3.org/2000/svg" xmlns:xlink="http://www.w3.org/1999/xlink" width="40" zoomAndPan="magnify" viewBox="0 0 30 30.000001" height="40" preserveAspectRatio="xMidYMid meet" version="1.0"><defs><clipPath id="af94671f86"><path d="M 0.484375 0 L 29.515625 0 L 29.515625 29.03125 L 0.484375 29.03125 Z M 0.484375 0 " clip-rule="nonzero"/></clipPath></defs><g clip-path="url(#af94671f86)"><path fill="#088f8f" d="M 29.515625 24.667969 C 29.515625 27.078125 27.5625 29.03125 25.152344 29.03125 L 4.847656 29.03125 C 2.4375 29.03125 0.484375 27.078125 0.484375 24.667969 L 0.484375 4.367188 C 0.484375 1.953125 2.4375 0 4.847656 0 L 25.148438 0 C 27.5625 0 29.515625 1.953125 29.515625 4.367188 Z M 29.515625 24.667969 " fill-opacity="1" fill-rule="nonzero"/></g><path fill="#ffffff" d="M 11.144531 24.296875 L 2.671875 15.820312 L 6.046875 12.445312 L 11.144531 17.542969 L 23.953125 4.734375 L 27.328125 8.113281 Z M 11.144531 24.296875 " fill-opacity="1" fill-rule="nonzero"/></svg>