<svg xmlns="http://www.w3.org/2000/svg" xmlns:xlink="http://www.w3.org/1999/xlink" width="500" zoomAndPan="magnify" viewBox="0 0 375 374.999991" height="500" preserveAspectRatio="xMidYMid meet" version="1.0"><defs><clipPath id="92ec829edc"><path d="M 86.136719 93 L 368 93 L 368 311 L 86.136719 311 Z M 86.136719 93 " clip-rule="nonzero"/></clipPath></defs><path fill="#809cd7" d="M 251.191406 272.789062 C 251.160156 272.75 251.054688 272.917969 251.027344 273.328125 L 251.027344 273.324219 C 251.054688 273.136719 251.109375 272.957031 251.191406 272.789062 Z M 251.191406 272.789062 " fill-opacity="1" fill-rule="nonzero"/><path fill="#809cd7" d="M 240.367188 279.171875 C 240.285156 279 240.191406 278.832031 240.085938 278.671875 L 240.085938 278.679688 C 240.1875 278.839844 240.277344 279.003906 240.367188 279.171875 Z M 240.367188 279.171875 " fill-opacity="1" fill-rule="nonzero"/><path fill="#809cd7" d="M 252 160.328125 C 252.019531 160.320312 252.03125 160.308594 252.039062 160.289062 C 252.03125 160.304688 252.015625 160.320312 252 160.328125 Z M 252 160.328125 " fill-opacity="1" fill-rule="nonzero"/><path fill="#809cd7" d="M 238.214844 271.84375 C 238.269531 272.070312 238.328125 272.140625 238.144531 271.351562 C 238.148438 271.382812 238.152344 271.414062 238.152344 271.441406 C 238.175781 271.578125 238.195312 271.710938 238.214844 271.84375 Z M 238.214844 271.84375 " fill-opacity="1" fill-rule="nonzero"/><path fill="#809cd7" d="M 250.1875 167.175781 C 250.203125 167.085938 250.191406 166.996094 250.152344 166.910156 L 250.152344 166.914062 C 250.179688 167 250.195312 167.085938 250.1875 167.175781 Z M 250.1875 167.175781 " fill-opacity="1" fill-rule="nonzero"/><path fill="#809cd7" d="M 210.246094 257.003906 C 210.242188 256.976562 210.238281 256.9375 210.234375 256.898438 C 210.238281 256.941406 210.242188 256.980469 210.246094 257 Z M 210.246094 257.003906 " fill-opacity="1" fill-rule="nonzero"/><g clip-path="url(#92ec829edc)"><path fill="#809cd7" d="M 364.492188 130.269531 C 361.4375 126.054688 357.105469 123.613281 351.894531 123.28125 C 347.425781 122.992188 342.617188 124.605469 339.039062 127.242188 C 331.695312 132.652344 327.714844 141.109375 323.425781 148.910156 C 321.414062 152.5625 319.371094 156.203125 317.113281 159.710938 C 316.011719 161.421875 314.859375 163.097656 313.640625 164.722656 C 313.585938 164.792969 313.535156 164.867188 313.480469 164.945312 C 313.441406 164.984375 313.402344 165.027344 313.375 165.0625 C 313.046875 165.46875 312.71875 165.875 312.386719 166.277344 C 311.71875 167.078125 311.027344 167.859375 310.316406 168.621094 C 308.929688 170.109375 307.453125 171.503906 305.886719 172.808594 C 305.667969 172.992188 305.445312 173.171875 305.222656 173.351562 C 305.164062 173.398438 304.96875 173.550781 304.839844 173.652344 C 304.792969 173.6875 304.757812 173.714844 304.746094 173.726562 C 304.515625 173.898438 304.285156 174.070312 304.054688 174.242188 C 303.136719 174.929688 302.207031 175.605469 301.289062 176.292969 C 297.386719 179.222656 293.980469 182.289062 291.121094 186.261719 C 286.226562 193.0625 284.007812 201.347656 282.953125 209.546875 C 282.472656 213.386719 282.265625 217.238281 282.332031 221.109375 C 282.359375 223.300781 282.460938 225.488281 282.464844 227.675781 C 282.46875 228.753906 282.449219 229.832031 282.386719 230.910156 C 282.351562 231.476562 282.296875 232.046875 282.246094 232.613281 C 282.242188 232.6875 282.242188 232.761719 282.246094 232.835938 C 282.210938 233.011719 282.160156 233.191406 282.132812 233.332031 C 281.933594 234.441406 281.648438 235.53125 281.277344 236.597656 C 281.222656 236.753906 281.164062 236.90625 281.105469 237.0625 C 281.101562 237.066406 281.101562 237.070312 281.097656 237.078125 C 280.863281 237.5 280.667969 237.941406 280.429688 238.359375 C 280.105469 238.929688 279.734375 239.457031 279.367188 239.992188 C 279.261719 240.109375 279.109375 240.332031 279.050781 240.402344 C 278.742188 240.761719 278.425781 241.113281 278.097656 241.457031 C 277.011719 242.570312 275.859375 243.609375 274.644531 244.578125 C 274.472656 244.691406 274.3125 244.820312 274.160156 244.957031 C 273.855469 245.1875 273.546875 245.414062 273.238281 245.640625 C 272.480469 246.1875 271.714844 246.726562 270.949219 247.265625 C 264.539062 251.761719 258.289062 256.320312 254.910156 263.644531 C 253.851562 265.941406 252.960938 268.3125 252.066406 270.675781 C 251.894531 271.132812 251.722656 271.585938 251.546875 272.039062 C 251.46875 272.242188 251.3125 272.515625 251.191406 272.789062 C 251.214844 272.816406 251.203125 272.925781 251.121094 273.117188 C 251.089844 273.183594 251.058594 273.253906 251.027344 273.324219 C 251.027344 273.328125 251.027344 273.335938 251.027344 273.34375 C 251.027344 273.339844 251.027344 273.332031 251.027344 273.328125 C 250.957031 273.480469 250.890625 273.636719 250.820312 273.789062 C 250.59375 274.296875 250.359375 274.796875 250.113281 275.292969 C 249.273438 277.015625 248.328125 278.679688 247.28125 280.285156 C 247.046875 280.644531 246.804688 281.003906 246.554688 281.355469 C 246.5 281.433594 246.210938 281.828125 246.023438 282.089844 C 245.875 282.273438 245.5625 282.667969 245.46875 282.78125 C 245.117188 283.199219 244.757812 283.609375 244.386719 284.011719 C 244.140625 284.277344 243.890625 284.535156 243.636719 284.792969 C 243.519531 284.613281 243.398438 284.4375 243.273438 284.261719 C 242.695312 283.433594 242.136719 282.597656 241.628906 281.722656 C 241.160156 280.910156 240.8125 280 240.367188 279.171875 C 240.453125 279.363281 240.277344 279.164062 240.179688 278.917969 C 240.148438 278.835938 240.117188 278.757812 240.085938 278.679688 C 240.078125 278.664062 240.070312 278.648438 240.058594 278.632812 C 240.070312 278.644531 240.074219 278.660156 240.085938 278.671875 C 240.03125 278.539062 239.980469 278.40625 239.929688 278.269531 C 239.722656 277.730469 239.535156 277.183594 239.359375 276.632812 C 239.027344 275.585938 238.746094 274.527344 238.515625 273.449219 C 238.40625 272.941406 238.308594 272.429688 238.222656 271.914062 C 238.21875 271.890625 238.21875 271.867188 238.214844 271.84375 C 238.191406 271.753906 238.175781 271.667969 238.167969 271.578125 C 238.164062 271.53125 238.160156 271.488281 238.152344 271.441406 C 238.144531 271.371094 238.132812 271.296875 238.117188 271.230469 C 238.128906 271.273438 238.136719 271.3125 238.144531 271.351562 C 238.039062 270.269531 237.953125 269.195312 237.933594 268.105469 C 237.914062 267.0625 237.941406 266.019531 238.015625 264.976562 C 238.046875 264.511719 238.085938 264.050781 238.136719 263.585938 C 238.144531 263.515625 238.152344 263.441406 238.160156 263.371094 C 238.167969 263.332031 238.171875 263.292969 238.179688 263.246094 C 238.207031 263.074219 238.234375 262.902344 238.265625 262.730469 C 238.628906 260.613281 239.179688 258.542969 239.925781 256.527344 C 240.003906 256.308594 240.09375 256.097656 240.171875 255.878906 C 240.179688 255.863281 240.183594 255.847656 240.1875 255.832031 C 240.378906 255.414062 240.566406 254.996094 240.765625 254.585938 C 241.25 253.597656 241.785156 252.640625 242.367188 251.710938 C 242.644531 251.269531 242.929688 250.835938 243.226562 250.410156 C 243.359375 250.21875 243.5 250.035156 243.628906 249.84375 C 244.164062 249.082031 243.484375 249.984375 243.449219 250.066406 C 243.628906 249.628906 244.246094 249.085938 244.5625 248.730469 C 244.988281 248.246094 245.433594 247.773438 245.886719 247.3125 C 247.617188 245.550781 249.484375 243.9375 251.273438 242.242188 C 255.257812 238.464844 258.4375 234.160156 260.140625 228.886719 C 263.277344 219.183594 261.074219 208.332031 257.773438 198.976562 C 255.964844 193.847656 253.863281 188.816406 252.246094 183.617188 C 251.425781 181.050781 250.78125 178.441406 250.308594 175.789062 C 250.261719 175.507812 250.21875 175.222656 250.171875 174.9375 C 250.171875 174.921875 250.167969 174.910156 250.164062 174.894531 C 250.164062 174.871094 250.164062 174.851562 250.160156 174.824219 C 250.109375 174.179688 250.027344 173.539062 249.988281 172.894531 C 249.898438 171.527344 249.894531 170.160156 249.972656 168.792969 C 249.984375 168.570312 250.183594 167.667969 250.1875 167.175781 C 250.160156 167.4375 250.015625 167.660156 250.113281 167.128906 C 250.128906 167.058594 250.140625 166.984375 250.152344 166.914062 C 250.148438 166.90625 250.144531 166.898438 250.140625 166.886719 C 250.144531 166.894531 250.148438 166.902344 250.152344 166.910156 C 250.195312 166.667969 250.234375 166.425781 250.28125 166.183594 C 250.511719 164.996094 250.808594 163.824219 251.171875 162.667969 C 251.339844 162.121094 251.527344 161.578125 251.726562 161.039062 C 251.816406 160.800781 251.910156 160.566406 252 160.328125 C 252 160.332031 251.996094 160.332031 251.992188 160.332031 C 251.996094 160.332031 252 160.332031 252 160.328125 C 252.023438 160.269531 252.046875 160.210938 252.070312 160.148438 C 252.324219 159.492188 252.15625 160.113281 252.039062 160.289062 C 252.316406 159.925781 253.464844 157.355469 253.621094 157.074219 C 254.1875 156.0625 254.796875 155.078125 255.445312 154.121094 C 255.769531 153.640625 256.105469 153.164062 256.449219 152.695312 C 256.574219 152.527344 256.699219 152.351562 256.832031 152.183594 C 256.929688 152.066406 257.023438 151.957031 257.0625 151.910156 C 258.578125 150.054688 260.21875 148.316406 261.980469 146.695312 C 262.890625 145.855469 263.824219 145.046875 264.789062 144.269531 C 265.042969 144.0625 265.296875 143.859375 265.550781 143.65625 C 265.566406 143.648438 265.578125 143.636719 265.59375 143.628906 C 266.164062 143.199219 266.738281 142.773438 267.320312 142.359375 C 269.476562 140.828125 271.710938 139.402344 273.988281 138.058594 C 278.574219 135.347656 283.34375 133.003906 288.058594 130.539062 C 290.269531 129.382812 292.484375 128.023438 294.230469 126.222656 C 295.351562 125.078125 296.25 123.777344 296.925781 122.324219 C 297.601562 120.871094 298.019531 119.34375 298.171875 117.75 C 298.714844 112.71875 296.1875 107.242188 292.269531 104.117188 C 283.152344 96.84375 270.257812 99.441406 260.703125 104.429688 C 251.792969 109.082031 244.648438 116.539062 238.777344 124.582031 C 226.65625 141.195312 219.699219 162.628906 223.765625 183.164062 C 225.863281 193.757812 231.78125 203.128906 233.878906 213.710938 C 233.988281 214.261719 234.074219 214.8125 234.171875 215.363281 C 234.179688 215.402344 234.183594 215.433594 234.191406 215.464844 C 234.222656 215.800781 234.265625 216.136719 234.296875 216.46875 C 234.410156 217.710938 234.457031 218.953125 234.429688 220.199219 C 234.410156 220.886719 234.347656 221.566406 234.304688 222.253906 C 234.300781 222.324219 234.300781 222.394531 234.308594 222.460938 C 234.277344 222.621094 234.234375 222.785156 234.214844 222.894531 C 233.960938 224.234375 233.605469 225.546875 233.148438 226.828125 C 233.125 226.890625 233.109375 226.953125 233.097656 227.019531 C 233.019531 227.179688 232.917969 227.347656 232.855469 227.472656 C 232.558594 228.082031 232.226562 228.675781 231.875 229.257812 C 231.59375 229.71875 231.296875 230.171875 230.988281 230.617188 C 230.796875 230.898438 230.597656 231.175781 230.398438 231.445312 C 230.316406 231.558594 230.234375 231.667969 230.152344 231.777344 C 228.390625 233.953125 226.578125 236.082031 224.882812 238.308594 C 216.6875 249.074219 215.179688 264.105469 219.71875 276.796875 C 218.980469 276.152344 218.273438 275.472656 217.601562 274.757812 C 217.292969 274.425781 216.996094 274.089844 216.703125 273.742188 C 216.578125 273.59375 216.460938 273.441406 216.335938 273.292969 C 215.9375 272.832031 216.5625 273.585938 216.554688 273.585938 C 216.160156 273.542969 215.144531 271.53125 214.941406 271.191406 C 214.507812 270.476562 214.101562 269.746094 213.726562 268.996094 C 213.554688 268.652344 213.386719 268.304688 213.222656 267.953125 C 213.175781 267.851562 213.113281 267.734375 213.054688 267.613281 C 213.039062 267.566406 213.015625 267.5 212.980469 267.410156 C 212.316406 265.707031 211.753906 263.972656 211.296875 262.203125 C 210.855469 260.488281 210.511719 258.75 210.246094 257.003906 C 210.253906 257.117188 210.242188 257.089844 210.1875 256.632812 C 210.179688 256.566406 210.171875 256.5 210.164062 256.433594 C 210.199219 256.585938 210.222656 256.738281 210.234375 256.898438 C 210.234375 256.738281 210.210938 256.582031 210.164062 256.429688 C 210.125 256.109375 210.089844 255.785156 210.054688 255.464844 C 209.945312 254.421875 209.859375 253.378906 209.789062 252.332031 C 209.503906 248 209.515625 243.65625 209.476562 239.316406 C 209.390625 230.492188 208.707031 221.71875 206.378906 213.171875 C 205.199219 208.859375 203.597656 204.714844 201.835938 200.609375 C 201.453125 199.714844 201.058594 198.820312 200.667969 197.925781 C 200.457031 197.445312 200.25 196.964844 200.039062 196.484375 C 199.949219 196.277344 199.859375 196.070312 199.769531 195.863281 C 199.75 195.816406 199.640625 195.566406 199.574219 195.40625 C 199.542969 195.332031 199.511719 195.261719 199.503906 195.242188 C 199.390625 194.964844 199.277344 194.691406 199.164062 194.410156 C 198.996094 193.996094 198.832031 193.578125 198.667969 193.160156 C 198.265625 192.113281 197.886719 191.054688 197.542969 189.988281 C 196.9375 188.101562 196.457031 186.1875 196.101562 184.242188 C 196.011719 183.746094 195.941406 183.246094 195.855469 182.753906 C 195.847656 182.710938 195.839844 182.675781 195.835938 182.648438 C 195.828125 182.574219 195.820312 182.5 195.8125 182.429688 C 195.691406 181.363281 195.601562 180.292969 195.542969 179.222656 C 195.363281 175.332031 195.511719 171.457031 195.984375 167.59375 C 196.019531 167.304688 196.054688 167.015625 196.089844 166.726562 C 196.09375 166.699219 196.101562 166.621094 196.113281 166.542969 C 196.121094 166.46875 196.132812 166.402344 196.136719 166.375 C 196.175781 166.085938 196.21875 165.796875 196.261719 165.507812 C 196.414062 164.492188 196.578125 163.480469 196.757812 162.46875 C 197.101562 160.503906 197.488281 158.542969 197.894531 156.589844 C 198.730469 152.578125 199.660156 148.585938 200.53125 144.582031 C 202.261719 136.609375 204.03125 128.332031 203.835938 120.132812 C 203.648438 112.28125 201.371094 103.761719 195.101562 98.554688 C 189.0625 93.539062 180.722656 91.363281 173.503906 95.273438 C 166.859375 98.867188 163.828125 106.65625 163.632812 113.875 C 163.40625 122.023438 167.121094 129.457031 169.433594 137.066406 C 169.992188 138.902344 170.453125 140.761719 170.820312 142.644531 C 170.992188 143.539062 171.144531 144.4375 171.277344 145.335938 C 171.292969 145.441406 171.3125 145.546875 171.332031 145.65625 C 171.335938 145.71875 171.339844 145.785156 171.34375 145.832031 C 171.40625 146.390625 171.472656 146.945312 171.527344 147.507812 C 171.871094 151.3125 172.023438 155.125 171.980469 158.945312 C 171.949219 166.75 171.441406 174.554688 171.808594 182.359375 C 172.203125 190.742188 173.691406 198.871094 177.171875 206.539062 C 178.808594 210.148438 180.816406 213.570312 182.570312 217.121094 C 182.984375 217.957031 183.375 218.804688 183.761719 219.65625 C 183.789062 219.71875 183.8125 219.769531 183.828125 219.808594 C 183.847656 219.859375 183.871094 219.921875 183.902344 220.003906 C 184.109375 220.539062 184.316406 221.078125 184.503906 221.621094 C 185.152344 223.503906 185.667969 225.425781 186.054688 227.382812 C 186.234375 228.289062 186.390625 229.199219 186.527344 230.113281 C 186.535156 230.179688 186.546875 230.246094 186.558594 230.3125 C 186.5625 230.34375 186.566406 230.378906 186.570312 230.425781 C 186.628906 230.992188 186.703125 231.558594 186.761719 232.128906 C 186.953125 234.054688 187.082031 235.988281 187.179688 237.921875 C 187.382812 241.882812 187.46875 245.847656 187.753906 249.804688 C 188.347656 258.042969 189.933594 265.964844 193.835938 273.3125 C 199.691406 284.339844 209.445312 292.5625 220.589844 297.828125 C 220.5625 297.828125 220.53125 297.824219 220.5 297.820312 C 220.019531 297.78125 219.539062 297.734375 219.058594 297.679688 C 218.820312 297.652344 218.578125 297.625 218.339844 297.597656 C 218.1875 297.582031 218.035156 297.582031 217.882812 297.601562 C 217.183594 297.53125 216.414062 297.300781 215.777344 297.183594 C 214.769531 297 213.761719 296.789062 212.761719 296.558594 C 210.878906 296.125 209.015625 295.605469 207.175781 295.003906 C 206.3125 294.722656 205.457031 294.421875 204.609375 294.105469 C 204.214844 293.957031 203.820312 293.808594 203.425781 293.652344 C 203.203125 293.5625 202.976562 293.472656 202.753906 293.382812 C 202.726562 293.371094 202.703125 293.363281 202.679688 293.351562 L 202.660156 293.34375 C 199.167969 291.816406 195.835938 290 192.664062 287.890625 C 191.914062 287.386719 191.171875 286.867188 190.445312 286.332031 C 190.304688 286.226562 190.164062 286.121094 190.023438 286.015625 C 189.632812 285.664062 189.21875 285.332031 188.789062 285.027344 C 187.296875 283.789062 185.867188 282.476562 184.5 281.097656 C 183.796875 280.382812 183.109375 279.648438 182.445312 278.894531 C 182.089844 278.492188 181.742188 278.082031 181.402344 277.667969 C 181.304688 277.546875 181.167969 277.40625 181.054688 277.269531 C 180.996094 277.167969 180.929688 277.066406 180.859375 276.972656 C 179.585938 275.230469 178.589844 273.390625 177.601562 271.480469 C 177.570312 271.417969 177.546875 271.375 177.53125 271.347656 C 177.5 271.246094 177.46875 271.148438 177.4375 271.066406 C 177.25 270.566406 177.078125 270.0625 176.925781 269.554688 C 176.558594 268.339844 176.355469 267.105469 176.097656 265.867188 C 176.089844 265.828125 176.082031 265.796875 176.074219 265.769531 C 176.054688 265.601562 176.039062 265.433594 176.019531 265.269531 C 175.957031 264.675781 175.90625 264.085938 175.863281 263.492188 C 175.773438 262.300781 175.71875 261.109375 175.667969 259.914062 C 175.464844 254.976562 175.144531 250.058594 173.96875 245.238281 C 172.816406 240.585938 171.074219 236.160156 168.75 231.972656 C 164.601562 224.476562 158.402344 218.617188 152.730469 212.324219 C 152.109375 211.636719 151.5 210.941406 150.898438 210.238281 C 150.582031 209.863281 150.269531 209.488281 149.957031 209.105469 C 149.84375 208.964844 149.726562 208.820312 149.613281 208.679688 C 149.585938 208.644531 149.546875 208.601562 149.503906 208.554688 L 149.527344 208.578125 C 149.511719 208.5625 149.496094 208.542969 149.480469 208.53125 C 149.417969 208.464844 149.351562 208.394531 149.289062 208.332031 C 148.097656 207.050781 147.15625 205.214844 146.332031 203.726562 C 145.894531 202.941406 145.519531 202.132812 145.128906 201.324219 C 145.085938 201.222656 145.042969 201.117188 145.003906 201.011719 C 144.757812 200.367188 144.539062 199.710938 144.339844 199.050781 C 144.027344 197.988281 143.765625 196.914062 143.5625 195.824219 C 143.464844 195.316406 143.382812 194.808594 143.300781 194.296875 C 143.265625 194.078125 143.246094 193.949219 143.234375 193.882812 C 143.214844 193.671875 143.207031 193.453125 143.1875 193.257812 C 142.714844 188.5 142.839844 183.710938 142.496094 178.945312 C 142.152344 173.921875 141.289062 168.992188 139.914062 164.152344 C 138.550781 159.355469 136.679688 154.765625 134.289062 150.382812 C 131.695312 145.703125 127.726562 142.742188 122.753906 140.960938 C 113.476562 137.636719 102.585938 138.71875 94.859375 145.042969 C 93.128906 146.472656 91.648438 148.125 90.410156 150 C 89.175781 151.871094 88.238281 153.886719 87.601562 156.039062 C 86.15625 161.011719 86.945312 166.117188 88.960938 170.785156 C 90.804688 175.054688 93.757812 178.71875 96.855469 182.140625 C 98.308594 183.742188 99.808594 185.308594 101.25 186.921875 C 101.945312 187.703125 102.617188 188.5 103.28125 189.304688 C 103.367188 189.410156 103.429688 189.484375 103.476562 189.539062 C 103.566406 189.660156 103.652344 189.785156 103.738281 189.90625 C 104.105469 190.410156 104.460938 190.929688 104.800781 191.453125 C 105.332031 192.273438 105.824219 193.117188 106.273438 193.984375 C 106.511719 194.441406 106.742188 194.902344 106.957031 195.371094 C 107.066406 195.597656 107.164062 195.828125 107.269531 196.054688 L 107.277344 196.070312 C 107.988281 198.011719 108.65625 199.945312 109.183594 201.949219 C 110.246094 206.011719 110.917969 210.160156 111.644531 214.292969 C 112.359375 218.367188 113.121094 222.449219 114.351562 226.40625 C 115.816406 231.023438 117.84375 235.378906 120.433594 239.46875 C 122.984375 243.554688 125.875 247.421875 128.679688 251.328125 C 131.683594 255.511719 134.6875 259.695312 137.695312 263.878906 C 140.683594 268.042969 143.671875 272.207031 146.664062 276.371094 C 149.589844 280.433594 152.566406 284.546875 156.191406 288.023438 C 162.910156 294.464844 171.238281 298.6875 179.835938 302.019531 C 188.679688 305.449219 197.910156 308.03125 207.308594 309.378906 C 224.707031 311.867188 244.785156 311.222656 259.011719 299.550781 C 260.082031 298.667969 261.085938 297.714844 262.027344 296.691406 C 265.40625 293.398438 268.417969 289.632812 271.417969 286.207031 C 274.160156 283.078125 276.976562 279.992188 280.132812 277.273438 C 280.535156 276.925781 280.945312 276.582031 281.363281 276.246094 C 281.4375 276.183594 281.515625 276.113281 281.597656 276.046875 C 281.648438 276.015625 281.699219 275.984375 281.738281 275.957031 C 282.59375 275.335938 283.460938 274.726562 284.355469 274.164062 C 286.113281 273.058594 287.945312 272.078125 289.792969 271.128906 C 293.347656 269.300781 296.992188 267.582031 300.285156 265.296875 C 303.875 262.804688 306.910156 259.855469 309.316406 256.191406 C 313.277344 250.171875 314.910156 242.929688 316.066406 235.914062 C 317.210938 228.976562 317.953125 221.871094 320.335938 215.210938 C 320.484375 214.796875 320.636719 214.382812 320.796875 213.976562 C 320.820312 213.921875 320.84375 213.867188 320.863281 213.8125 C 321.230469 213.03125 321.585938 212.253906 321.996094 211.496094 C 322.386719 210.773438 322.804688 210.066406 323.253906 209.378906 C 323.496094 209.007812 323.75 208.648438 324.003906 208.285156 C 324.042969 208.230469 324.078125 208.171875 324.109375 208.109375 C 324.21875 207.980469 324.339844 207.859375 324.4375 207.742188 C 327.175781 204.460938 330.546875 201.796875 333.867188 199.136719 C 337.21875 196.453125 340.457031 193.675781 343.375 190.507812 C 346.429688 187.160156 349.222656 183.605469 351.753906 179.84375 C 356.582031 172.738281 360.5625 165.007812 364.019531 157.152344 C 366.082031 152.464844 367.839844 147.675781 367.984375 142.492188 C 368.105469 138.300781 366.976562 133.695312 364.492188 130.269531 Z M 364.492188 130.269531 " fill-opacity="1" fill-rule="nonzero"/></g><path fill="#faf0cc" d="M 283.433594 114.417969 C 283.300781 111.46875 281.042969 108.976562 277.996094 108.976562 C 275.152344 108.976562 272.429688 111.480469 272.5625 114.417969 C 272.691406 117.367188 274.949219 119.863281 277.996094 119.863281 C 280.839844 119.863281 283.566406 117.359375 283.433594 114.417969 Z M 283.433594 114.417969 " fill-opacity="1" fill-rule="nonzero"/><path fill="#faf0cc" d="M 261.71875 128.257812 C 261.589844 125.308594 259.332031 122.8125 256.285156 122.8125 C 253.441406 122.8125 250.714844 125.316406 250.847656 128.257812 C 250.980469 131.207031 253.234375 133.699219 256.285156 133.699219 C 259.128906 133.699219 261.851562 131.195312 261.71875 128.257812 Z M 261.71875 128.257812 " fill-opacity="1" fill-rule="nonzero"/><path fill="#faf0cc" d="M 245.929688 150 C 245.796875 147.050781 243.539062 144.554688 240.492188 144.554688 C 237.648438 144.554688 234.925781 147.058594 235.054688 150 C 235.1875 152.949219 237.445312 155.441406 240.492188 155.441406 C 243.335938 155.441406 246.058594 152.941406 245.929688 150 Z M 245.929688 150 " fill-opacity="1" fill-rule="nonzero"/><path fill="#faf0cc" d="M 242.96875 178.167969 C 242.835938 175.21875 240.578125 172.722656 237.53125 172.722656 C 234.6875 172.722656 231.964844 175.226562 232.09375 178.167969 C 232.226562 181.117188 234.484375 183.609375 237.53125 183.609375 C 240.375 183.609375 243.097656 181.105469 242.96875 178.167969 Z M 242.96875 178.167969 " fill-opacity="1" fill-rule="nonzero"/><path fill="#faf0cc" d="M 250.863281 203.121094 C 250.730469 200.171875 248.476562 197.679688 245.425781 197.679688 C 242.582031 197.679688 239.859375 200.183594 239.992188 203.121094 C 240.121094 206.070312 242.378906 208.566406 245.425781 208.566406 C 248.269531 208.566406 250.996094 206.0625 250.863281 203.121094 Z M 250.863281 203.121094 " fill-opacity="1" fill-rule="nonzero"/><path fill="#faf0cc" d="M 250.371094 228.324219 C 250.238281 225.375 247.980469 222.882812 244.933594 222.882812 C 242.089844 222.882812 239.367188 225.386719 239.496094 228.324219 C 239.628906 231.273438 241.886719 233.769531 244.933594 233.769531 C 247.777344 233.769531 250.5 231.265625 250.371094 228.324219 Z M 250.371094 228.324219 " fill-opacity="1" fill-rule="nonzero"/><path fill="#faf0cc" d="M 234.578125 251.550781 C 234.445312 248.601562 232.191406 246.105469 229.140625 246.105469 C 226.296875 246.105469 223.574219 248.609375 223.707031 251.550781 C 223.835938 254.5 226.09375 256.996094 229.140625 256.996094 C 231.984375 256.996094 234.710938 254.492188 234.578125 251.550781 Z M 234.578125 251.550781 " fill-opacity="1" fill-rule="nonzero"/><path fill="#faf0cc" d="M 235.070312 279.71875 C 234.941406 276.769531 232.683594 274.273438 229.636719 274.273438 C 226.792969 274.273438 224.066406 276.777344 224.199219 279.71875 C 224.332031 282.667969 226.589844 285.160156 229.636719 285.160156 C 232.480469 285.160156 235.203125 282.65625 235.070312 279.71875 Z M 235.070312 279.71875 " fill-opacity="1" fill-rule="nonzero"/><path fill="#faf0cc" d="M 354.25 142.09375 C 354.117188 139.144531 351.859375 136.648438 348.8125 136.648438 C 345.96875 136.648438 343.246094 139.152344 343.375 142.09375 C 343.507812 145.042969 345.765625 147.535156 348.8125 147.535156 C 351.65625 147.535156 354.378906 145.03125 354.25 142.09375 Z M 354.25 142.09375 " fill-opacity="1" fill-rule="nonzero"/><path fill="#faf0cc" d="M 341.910156 164.824219 C 341.78125 161.875 339.523438 159.382812 336.476562 159.382812 C 333.632812 159.382812 330.90625 161.886719 331.039062 164.824219 C 331.171875 167.773438 333.429688 170.269531 336.476562 170.269531 C 339.320312 170.269531 342.042969 167.765625 341.910156 164.824219 Z M 341.910156 164.824219 " fill-opacity="1" fill-rule="nonzero"/><path fill="#faf0cc" d="M 320.9375 187.308594 C 320.804688 184.359375 318.550781 181.867188 315.503906 181.867188 C 312.660156 181.867188 309.933594 184.371094 310.066406 187.308594 C 310.199219 190.257812 312.453125 192.753906 315.503906 192.753906 C 318.34375 192.753906 321.070312 190.25 320.9375 187.308594 Z M 320.9375 187.308594 " fill-opacity="1" fill-rule="nonzero"/><path fill="#faf0cc" d="M 304.160156 211.769531 C 304.027344 208.820312 301.769531 206.328125 298.722656 206.328125 C 295.878906 206.328125 293.15625 208.832031 293.289062 211.769531 C 293.417969 214.71875 295.675781 217.214844 298.722656 217.214844 C 301.566406 217.214844 304.292969 214.710938 304.160156 211.769531 Z M 304.160156 211.769531 " fill-opacity="1" fill-rule="nonzero"/><path fill="#faf0cc" d="M 299.964844 243.148438 C 299.832031 240.199219 297.578125 237.707031 294.527344 237.707031 C 291.6875 237.707031 288.960938 240.210938 289.09375 243.148438 C 289.226562 246.097656 291.480469 248.59375 294.527344 248.59375 C 297.371094 248.59375 300.097656 246.089844 299.964844 243.148438 Z M 299.964844 243.148438 " fill-opacity="1" fill-rule="nonzero"/><path fill="#faf0cc" d="M 281.953125 259.953125 C 281.820312 257.003906 279.5625 254.507812 276.515625 254.507812 C 273.671875 254.507812 270.949219 257.011719 271.082031 259.953125 C 271.210938 262.902344 273.46875 265.394531 276.515625 265.394531 C 279.359375 265.394531 282.085938 262.890625 281.953125 259.953125 Z M 281.953125 259.953125 " fill-opacity="1" fill-rule="nonzero"/><path fill="#faf0cc" d="M 263.695312 282.4375 C 263.5625 279.488281 261.304688 276.992188 258.257812 276.992188 C 255.414062 276.992188 252.691406 279.496094 252.820312 282.4375 C 252.953125 285.386719 255.210938 287.878906 258.257812 287.878906 C 261.101562 287.878906 263.824219 285.375 263.695312 282.4375 Z M 263.695312 282.4375 " fill-opacity="1" fill-rule="nonzero"/><path fill="#faf0cc" d="M 188.683594 111.453125 C 188.550781 108.503906 186.296875 106.011719 183.246094 106.011719 C 180.40625 106.011719 177.679688 108.515625 177.8125 111.453125 C 177.945312 114.402344 180.199219 116.898438 183.246094 116.898438 C 186.089844 116.898438 188.816406 114.394531 188.683594 111.453125 Z M 188.683594 111.453125 " fill-opacity="1" fill-rule="nonzero"/><path fill="#faf0cc" d="M 191.398438 134.1875 C 191.265625 131.238281 189.007812 128.742188 185.960938 128.742188 C 183.117188 128.742188 180.394531 131.246094 180.527344 134.1875 C 180.65625 137.136719 182.914062 139.628906 185.960938 139.628906 C 188.804688 139.628906 191.53125 137.125 191.398438 134.1875 Z M 191.398438 134.1875 " fill-opacity="1" fill-rule="nonzero"/><path fill="#faf0cc" d="M 189.671875 160.378906 C 189.539062 157.429688 187.28125 154.933594 184.234375 154.933594 C 181.390625 154.933594 178.667969 157.4375 178.796875 160.378906 C 178.929688 163.328125 181.1875 165.820312 184.234375 165.820312 C 187.078125 165.820312 189.800781 163.316406 189.671875 160.378906 Z M 189.671875 160.378906 " fill-opacity="1" fill-rule="nonzero"/><path fill="#faf0cc" d="M 191.398438 187.308594 C 191.265625 184.359375 189.007812 181.867188 185.960938 181.867188 C 183.117188 181.867188 180.394531 184.371094 180.527344 187.308594 C 180.65625 190.257812 182.914062 192.753906 185.960938 192.753906 C 188.804688 192.753906 191.53125 190.25 191.398438 187.308594 Z M 191.398438 187.308594 " fill-opacity="1" fill-rule="nonzero"/><path fill="#faf0cc" d="M 199.292969 211.769531 C 199.160156 208.820312 196.90625 206.328125 193.859375 206.328125 C 191.015625 206.328125 188.289062 208.832031 188.421875 211.769531 C 188.554688 214.71875 190.808594 217.214844 193.859375 217.214844 C 196.703125 217.214844 199.425781 214.710938 199.292969 211.769531 Z M 199.292969 211.769531 " fill-opacity="1" fill-rule="nonzero"/><path fill="#faf0cc" d="M 204.476562 238.949219 C 204.34375 236 202.085938 233.507812 199.039062 233.507812 C 196.195312 233.507812 193.472656 236.011719 193.601562 238.949219 C 193.734375 241.898438 195.992188 244.394531 199.039062 244.394531 C 201.882812 244.394531 204.605469 241.890625 204.476562 238.949219 Z M 204.476562 238.949219 " fill-opacity="1" fill-rule="nonzero"/><path fill="#faf0cc" d="M 206.941406 265.386719 C 206.8125 262.4375 204.554688 259.945312 201.507812 259.945312 C 198.664062 259.945312 195.9375 262.449219 196.070312 265.386719 C 196.203125 268.335938 198.460938 270.832031 201.507812 270.832031 C 204.351562 270.832031 207.074219 268.328125 206.941406 265.386719 Z M 206.941406 265.386719 " fill-opacity="1" fill-rule="nonzero"/><path fill="#faf0cc" d="M 116.386719 158.894531 C 116.257812 155.945312 114 153.449219 110.953125 153.449219 C 108.109375 153.449219 105.382812 155.953125 105.515625 158.894531 C 105.648438 161.84375 107.90625 164.339844 110.953125 164.339844 C 113.796875 164.339844 116.519531 161.835938 116.386719 158.894531 Z M 116.386719 158.894531 " fill-opacity="1" fill-rule="nonzero"/><path fill="#faf0cc" d="M 127.246094 179.648438 C 127.113281 176.699219 124.855469 174.207031 121.808594 174.207031 C 118.964844 174.207031 116.242188 176.710938 116.371094 179.648438 C 116.503906 182.597656 118.761719 185.09375 121.808594 185.09375 C 124.652344 185.09375 127.375 182.589844 127.246094 179.648438 Z M 127.246094 179.648438 " fill-opacity="1" fill-rule="nonzero"/><path fill="#faf0cc" d="M 135.878906 207.816406 C 135.75 204.867188 133.492188 202.375 130.445312 202.375 C 127.601562 202.375 124.878906 204.878906 125.007812 207.816406 C 125.140625 210.765625 127.398438 213.261719 130.445312 213.261719 C 133.289062 213.261719 136.011719 210.757812 135.878906 207.816406 Z M 135.878906 207.816406 " fill-opacity="1" fill-rule="nonzero"/><path fill="#faf0cc" d="M 145.011719 229.066406 C 144.878906 226.117188 142.621094 223.621094 139.574219 223.621094 C 136.730469 223.621094 134.007812 226.125 134.136719 229.066406 C 134.269531 232.015625 136.527344 234.511719 139.574219 234.511719 C 142.417969 234.511719 145.140625 232.007812 145.011719 229.066406 Z M 145.011719 229.066406 " fill-opacity="1" fill-rule="nonzero"/><path fill="#faf0cc" d="M 158.605469 246.984375 C 158.359375 246.316406 157.984375 245.734375 157.484375 245.230469 C 156.980469 244.730469 156.398438 244.351562 155.734375 244.105469 C 155.078125 243.757812 154.378906 243.601562 153.636719 243.636719 C 153.15625 243.703125 152.675781 243.765625 152.195312 243.832031 C 151.269531 244.085938 150.472656 244.550781 149.792969 245.230469 C 149.511719 245.597656 149.226562 245.964844 148.945312 246.332031 C 148.449219 247.179688 148.199219 248.097656 148.203125 249.078125 L 148.203125 249.574219 C 148.195312 250.109375 148.265625 250.632812 148.417969 251.148438 C 148.570312 251.660156 148.796875 252.140625 149.09375 252.585938 C 149.394531 253.03125 149.753906 253.417969 150.167969 253.753906 C 150.585938 254.089844 151.046875 254.355469 151.542969 254.550781 C 152.199219 254.894531 152.898438 255.050781 153.636719 255.019531 C 154.121094 254.953125 154.601562 254.886719 155.082031 254.824219 C 156.007812 254.566406 156.804688 254.101562 157.484375 253.421875 C 157.765625 253.054688 158.050781 252.6875 158.332031 252.320312 C 158.828125 251.472656 159.078125 250.558594 159.074219 249.574219 L 159.074219 249.078125 C 159.109375 248.339844 158.953125 247.640625 158.605469 246.984375 Z M 158.605469 246.984375 " fill-opacity="1" fill-rule="nonzero"/><path fill="#faf0cc" d="M 168.945312 273.292969 C 168.8125 270.34375 166.554688 267.851562 163.507812 267.851562 C 160.664062 267.851562 157.941406 270.355469 158.074219 273.292969 C 158.203125 276.242188 160.460938 278.738281 163.507812 278.738281 C 166.351562 278.738281 169.074219 276.234375 168.945312 273.292969 Z M 168.945312 273.292969 " fill-opacity="1" fill-rule="nonzero"/><path fill="#faf0cc" d="M 185.722656 290.097656 C 185.589844 287.144531 183.335938 284.652344 180.285156 284.652344 C 177.445312 284.652344 174.71875 287.15625 174.851562 290.097656 C 174.984375 293.046875 177.238281 295.539062 180.285156 295.539062 C 183.128906 295.539062 185.855469 293.035156 185.722656 290.097656 Z M 185.722656 290.097656 " fill-opacity="1" fill-rule="nonzero"/><path fill="#faf0cc" d="M 241.734375 298.003906 C 241.601562 295.054688 239.34375 292.558594 236.296875 292.558594 C 233.453125 292.558594 230.730469 295.0625 230.863281 298.003906 C 230.992188 300.953125 233.25 303.445312 236.296875 303.445312 C 239.140625 303.445312 241.863281 300.941406 241.734375 298.003906 Z M 241.734375 298.003906 " fill-opacity="1" fill-rule="nonzero"/><path fill="#faf0cc" d="M 202 297.339844 C 200.105469 297.339844 198.289062 299.007812 198.375 300.96875 C 198.464844 302.933594 199.96875 304.597656 202 304.597656 C 203.894531 304.597656 205.710938 302.925781 205.625 300.96875 C 205.535156 299 204.03125 297.339844 202 297.339844 Z M 202 297.339844 " fill-opacity="1" fill-rule="nonzero"/><path fill="#faf0cc" d="M 213.84375 279.054688 C 211.949219 279.054688 210.132812 280.722656 210.21875 282.683594 C 210.308594 284.648438 211.8125 286.3125 213.84375 286.3125 C 215.738281 286.3125 217.554688 284.644531 217.46875 282.683594 C 217.378906 280.71875 215.875 279.054688 213.84375 279.054688 Z M 213.84375 279.054688 " fill-opacity="1" fill-rule="nonzero"/></svg>