<svg xmlns="http://www.w3.org/2000/svg" xmlns:xlink="http://www.w3.org/1999/xlink" width="400" zoomAndPan="magnify" viewBox="0 0 300 299.999988" height="400" preserveAspectRatio="xMidYMid meet" version="1.0"><defs><clipPath id="848b11c9f4"><path d="M 156 176 L 185 176 L 185 299.734375 L 156 299.734375 Z M 156 176 " clip-rule="nonzero"/></clipPath><clipPath id="3fe1491efe"><path d="M 81.117188 92 L 167 92 L 167 172 L 81.117188 172 Z M 81.117188 92 " clip-rule="nonzero"/></clipPath><clipPath id="42895debc9"><path d="M 154 22.234375 L 184 22.234375 L 184 181 L 154 181 Z M 154 22.234375 " clip-rule="nonzero"/></clipPath><clipPath id="e423cdf425"><path d="M 213 128 L 291.867188 128 L 291.867188 168 L 213 168 Z M 213 128 " clip-rule="nonzero"/></clipPath></defs><rect x="-30" width="360" fill="#ffffff" y="-29.999999" height="359.999986" fill-opacity="1"/><rect x="-30" width="360" fill="#ffffff" y="-29.999999" height="359.999986" fill-opacity="1"/><rect x="-30" width="360" fill="#ffffff" y="-29.999999" height="359.999986" fill-opacity="1"/><path fill="#ed835c" d="M 0 0 L 303.75 0 L 303.75 299.53125 L 0 299.53125 Z M 0 0 " fill-opacity="1" fill-rule="nonzero"/><g clip-path="url(#848b11c9f4)"><path fill="#010101" d="M 184.019531 184.175781 C 184.816406 182.472656 184.476562 180.484375 183.394531 179.011719 C 182.089844 177.363281 179.988281 176.738281 177.941406 176.738281 C 173.851562 176.738281 170.15625 179.011719 167.542969 182.019531 C 164.53125 185.539062 162.996094 190.023438 161.917969 194.449219 C 160.839844 199.21875 159.929688 204.042969 159.191406 208.871094 C 157.65625 218.519531 156.691406 228.339844 156.464844 238.105469 C 156.234375 247.8125 156.746094 257.632812 158.167969 267.226562 C 159.589844 276.820312 161.859375 286.300781 165.15625 295.441406 C 165.554688 296.632812 166.007812 297.710938 166.519531 298.90625 C 166.804688 299.699219 167.941406 299.53125 167.996094 298.734375 C 168.394531 290.789062 167.316406 282.839844 167.03125 274.835938 C 166.746094 266.832031 167.769531 258.941406 168.738281 250.9375 C 170.667969 234.984375 172.601562 218.976562 174.476562 203.078125 C 174.757812 200.867188 174.988281 198.652344 175.269531 196.4375 C 175.5 194.394531 175.78125 192.292969 176.40625 190.308594 C 177.429688 186.957031 179.703125 183.722656 183.339844 183.039062 C 184.25 182.871094 183.851562 181.449219 182.941406 181.621094 C 179.929688 182.1875 177.542969 184.515625 176.066406 187.183594 C 174.363281 190.421875 174.019531 194.167969 173.625 197.6875 C 172.65625 205.917969 171.632812 214.148438 170.667969 222.382812 C 169.703125 230.554688 168.679688 238.730469 167.714844 246.90625 C 166.746094 254.964844 165.441406 263.140625 165.441406 271.257812 C 165.441406 280.457031 167.03125 289.59375 166.519531 298.792969 C 166.976562 298.734375 167.429688 298.679688 167.996094 298.621094 C 164.644531 289.992188 162.144531 281.136719 160.496094 271.996094 C 158.847656 262.914062 158.109375 253.660156 157.996094 244.40625 C 157.882812 235.097656 158.507812 225.789062 159.703125 216.535156 C 160.269531 211.878906 161.066406 207.28125 161.859375 202.683594 C 162.65625 198.253906 163.507812 193.65625 165.101562 189.398438 C 166.578125 185.480469 169.019531 181.90625 172.601562 179.804688 C 174.25 178.839844 176.125 178.214844 178.054688 178.214844 C 179.988281 178.214844 182.144531 178.953125 182.941406 180.941406 C 183.28125 181.792969 183.28125 182.699219 182.941406 183.496094 C 182.316406 184.234375 183.625 185.027344 184.019531 184.175781 Z M 184.019531 184.175781 " fill-opacity="1" fill-rule="nonzero"/></g><path fill="#010101" d="M 169.589844 180.144531 C 168.226562 177.421875 166.746094 174.582031 163.792969 173.558594 C 162.429688 173.105469 161.007812 173.105469 159.703125 173.671875 C 158.28125 174.296875 157.371094 175.71875 156.464844 176.964844 C 151.859375 182.984375 147.257812 189 142.65625 194.960938 C 138.054688 200.921875 133.449219 206.996094 128.847656 212.957031 C 124.472656 218.632812 119.984375 224.199219 116.175781 230.273438 C 111.972656 236.914062 108.847656 244.238281 107.027344 251.957031 C 107.484375 252.070312 107.9375 252.183594 108.449219 252.355469 C 109.015625 247.984375 109.699219 243.613281 110.265625 239.242188 C 110.835938 234.984375 111.347656 230.726562 112.371094 226.582031 C 114.359375 218.691406 118.847656 212.050781 123.449219 205.464844 C 128.507812 198.199219 133.5625 190.988281 138.621094 183.722656 C 142.484375 178.214844 146.519531 171.347656 153.394531 169.644531 C 161.121094 167.714844 168.621094 173.332031 173.113281 179.179688 C 173.679688 179.917969 174.929688 179.179688 174.417969 178.386719 C 170.214844 172.820312 163.964844 167.828125 156.804688 167.714844 C 149.417969 167.597656 144.304688 173.277344 140.269531 178.839844 C 135.042969 186.105469 130.042969 193.429688 124.984375 200.753906 C 120.210938 207.566406 114.984375 214.375 112.199219 222.324219 C 110.550781 226.867188 109.925781 231.691406 109.246094 236.460938 C 108.5625 241.570312 107.824219 246.734375 107.140625 251.902344 C 107.027344 252.808594 108.277344 253.261719 108.5625 252.296875 C 110.097656 245.769531 112.597656 239.46875 115.894531 233.679688 C 119.300781 227.71875 123.5625 222.324219 127.769531 216.875 C 136.574219 205.464844 145.324219 193.941406 154.132812 182.53125 C 155.382812 180.941406 156.578125 179.351562 157.828125 177.761719 C 158.792969 176.457031 159.816406 174.808594 161.632812 174.695312 C 165.214844 174.355469 167.203125 178.160156 168.566406 180.882812 C 168.792969 181.734375 169.988281 180.996094 169.589844 180.144531 Z M 169.589844 180.144531 " fill-opacity="1" fill-rule="nonzero"/><g clip-path="url(#3fe1491efe)"><path fill="#010101" d="M 155.554688 167.941406 C 144.304688 161.296875 135.042969 152.042969 126.234375 142.394531 C 121.746094 137.511719 117.425781 132.515625 113.050781 127.578125 C 108.449219 122.46875 103.5625 117.699219 98.675781 112.761719 C 95.722656 109.753906 92.878906 106.628906 90.265625 103.335938 C 87.652344 100.046875 85.152344 96.582031 82.652344 93.121094 C 82.425781 93.460938 82.253906 93.855469 82.027344 94.253906 C 96.6875 96.128906 109.699219 104.585938 120.210938 114.746094 C 125.722656 120.199219 130.722656 126.101562 135.4375 132.234375 C 137.824219 135.296875 140.097656 138.421875 142.429688 141.484375 C 144.816406 144.550781 147.257812 147.558594 149.703125 150.570312 C 155.15625 157.269531 160.726562 164.078125 165.042969 171.628906 C 165.496094 172.480469 166.804688 171.6875 166.351562 170.890625 C 162.429688 164.136719 157.542969 157.949219 152.597656 151.875 C 150.097656 148.808594 147.597656 145.742188 145.15625 142.621094 C 142.769531 139.554688 140.441406 136.433594 138.109375 133.367188 C 128.734375 121.050781 118.394531 109.070312 105.039062 101.066406 C 97.992188 96.808594 90.210938 93.800781 82.027344 92.777344 C 81.515625 92.722656 81.117188 93.460938 81.402344 93.914062 C 85.835938 100.046875 90.265625 106.121094 95.492188 111.511719 C 98.164062 114.292969 100.890625 116.847656 103.621094 119.574219 C 105.949219 121.957031 108.222656 124.285156 110.4375 126.726562 C 119.359375 136.433594 127.710938 146.707031 137.371094 155.679688 C 142.769531 160.671875 148.566406 165.273438 154.871094 169.074219 C 155.609375 169.699219 156.40625 168.394531 155.554688 167.941406 Z M 155.554688 167.941406 " fill-opacity="1" fill-rule="nonzero"/></g><path fill="#010101" d="M 169.53125 173.277344 C 160.894531 159.480469 152.257812 145.628906 144.644531 131.269531 C 140.835938 124.171875 137.371094 116.960938 134.304688 109.523438 C 131.121094 101.976562 128.507812 94.199219 126.175781 86.308594 C 123.5625 77.449219 121.121094 68.480469 117.085938 60.195312 C 116.6875 60.476562 116.347656 60.761719 115.949219 61.101562 C 124.699219 69.21875 131.460938 79.152344 137.371094 89.484375 C 143.566406 100.441406 149.019531 111.851562 154.246094 123.261719 C 157.484375 130.359375 160.726562 137.457031 164.132812 144.496094 C 164.53125 145.347656 165.839844 144.609375 165.441406 143.757812 C 159.472656 131.4375 153.964844 118.835938 147.941406 106.515625 C 142.65625 95.730469 137.144531 85 130.15625 75.238281 C 126.121094 69.671875 121.800781 64.507812 116.914062 59.964844 C 116.289062 59.398438 115.382812 60.078125 115.777344 60.875 C 119.359375 68.367188 121.6875 76.371094 123.960938 84.261719 C 126.289062 92.152344 128.792969 99.929688 131.800781 107.539062 C 137.824219 122.523438 145.609375 136.773438 153.792969 150.625 C 158.453125 158.460938 163.28125 166.238281 168.167969 173.957031 C 168.792969 174.808594 170.042969 174.070312 169.53125 173.277344 Z M 169.53125 173.277344 " fill-opacity="1" fill-rule="nonzero"/><g clip-path="url(#42895debc9)"><path fill="#010101" d="M 175.214844 177.535156 C 172.03125 167.882812 169.078125 158.0625 166.519531 148.183594 C 163.964844 138.308594 161.691406 128.316406 159.757812 118.324219 C 157.769531 108.050781 156.347656 97.832031 156.179688 87.328125 C 156.066406 76.828125 156.519531 66.324219 156.746094 55.9375 C 156.859375 50.769531 156.972656 45.492188 157.144531 40.324219 C 157.257812 35.78125 157.257812 31.070312 158.792969 26.699219 C 159.132812 25.621094 159.644531 24.65625 160.269531 23.691406 C 159.816406 23.578125 159.359375 23.464844 158.90625 23.351562 C 159.304688 33.683594 159.984375 44.015625 161.007812 54.289062 C 162.03125 64.566406 163.394531 74.78125 165.042969 84.945312 C 166.746094 95.164062 168.738281 105.269531 170.953125 115.371094 C 173.226562 125.421875 176.007812 135.296875 178.226562 145.234375 C 180.441406 155.109375 182.203125 165.214844 182.089844 175.375 C 182.089844 176.683594 182.03125 177.988281 181.976562 179.292969 C 181.917969 180.257812 183.394531 180.257812 183.453125 179.292969 C 183.964844 169.132812 182.65625 159.027344 180.613281 149.09375 C 178.507812 139.046875 175.726562 129.167969 173.394531 119.234375 C 171.007812 109.128906 168.90625 99.023438 167.144531 88.863281 C 165.382812 78.644531 163.964844 68.367188 162.828125 58.035156 C 161.746094 47.761719 160.953125 37.542969 160.496094 27.269531 C 160.441406 25.960938 160.382812 24.65625 160.328125 23.292969 C 160.328125 22.613281 159.359375 22.273438 158.964844 22.953125 C 156.632812 26.871094 156.066406 31.355469 155.839844 35.839844 C 155.609375 40.890625 155.554688 46.058594 155.441406 51.167969 C 155.214844 61.78125 154.816406 72.457031 154.703125 83.070312 C 154.644531 88.292969 154.816406 93.574219 155.328125 98.738281 C 155.839844 103.90625 156.632812 109.128906 157.542969 114.238281 C 159.359375 124.457031 161.578125 134.503906 164.078125 144.550781 C 166.578125 154.597656 169.417969 164.476562 172.601562 174.242188 C 172.996094 175.492188 173.394531 176.738281 173.851562 177.929688 C 174.132812 178.78125 175.554688 178.386719 175.214844 177.535156 Z M 175.214844 177.535156 " fill-opacity="1" fill-rule="nonzero"/></g><path fill="#010101" d="M 177.542969 133.820312 C 176.75 122.46875 176.179688 111.058594 175.953125 99.648438 C 175.839844 93.914062 175.78125 88.238281 175.78125 82.503906 C 175.78125 77.054688 175.726562 71.660156 176.007812 66.210938 C 176.292969 60.648438 177.03125 55.085938 179.875 50.257812 C 179.417969 50.203125 179.019531 50.144531 178.507812 50.089844 C 182.601562 67.402344 185.613281 85.058594 187.542969 102.769531 C 189.476562 120.367188 190.273438 138.078125 190.042969 155.792969 C 189.988281 160.671875 189.875 165.554688 189.589844 170.496094 C 189.363281 174.867188 188.851562 179.351562 186.464844 183.097656 C 185.953125 183.890625 187.203125 184.628906 187.773438 183.890625 C 189.929688 180.597656 190.667969 176.625 190.953125 172.820312 C 191.292969 168.507812 191.351562 164.195312 191.464844 159.9375 C 191.691406 150.964844 191.578125 141.996094 191.238281 133.140625 C 190.554688 115.144531 188.738281 97.320312 185.839844 79.550781 C 184.191406 69.617188 182.261719 59.683594 179.988281 49.863281 C 179.816406 49.238281 178.964844 49.179688 178.625 49.691406 C 176.179688 53.949219 175.214844 58.773438 174.757812 63.65625 C 174.304688 68.992188 174.363281 74.386719 174.363281 79.722656 C 174.304688 91.359375 174.53125 102.941406 175.042969 114.519531 C 175.328125 120.992188 175.667969 127.519531 176.125 134.050781 C 176.179688 134.789062 177.601562 134.789062 177.542969 133.820312 Z M 177.542969 133.820312 " fill-opacity="1" fill-rule="nonzero"/><path fill="#010101" d="M 189.136719 106.855469 C 190.839844 97.433594 191.75 87.898438 191.976562 78.300781 C 192.203125 68.765625 191.75 59.226562 190.5 49.691406 C 189.816406 44.355469 188.90625 39.019531 187.773438 33.796875 C 187.316406 33.964844 186.917969 34.136719 186.40625 34.363281 C 193.625 44.921875 198.054688 57.183594 200.554688 69.671875 C 203.113281 82.617188 203.625 96.070312 203.171875 109.296875 C 202.886719 116.90625 202.316406 124.511719 201.691406 132.0625 C 201.636719 133.027344 203.113281 133.027344 203.171875 132.0625 C 204.191406 118.550781 205.214844 105.039062 204.535156 91.53125 C 203.910156 78.359375 201.921875 65.246094 197.375 52.8125 C 194.929688 46.058594 191.75 39.53125 187.65625 33.683594 C 187.203125 33 186.125 33.398438 186.292969 34.25 C 188.28125 43.503906 189.53125 52.871094 190.15625 62.238281 C 190.726562 71.660156 190.613281 81.140625 189.761719 90.566406 C 189.304688 95.84375 188.625 101.179688 187.65625 106.460938 C 187.542969 107.367188 189.023438 107.707031 189.136719 106.855469 Z M 189.136719 106.855469 " fill-opacity="1" fill-rule="nonzero"/><path fill="#010101" d="M 191.066406 169.472656 C 196.011719 153.464844 201.523438 137.570312 207.375 121.902344 C 210.160156 114.40625 212.714844 106.628906 216.808594 99.761719 C 220.160156 93.972656 224.707031 88.917969 229.988281 84.886719 C 235.84375 80.402344 242.605469 77.167969 249.820312 75.464844 C 249.59375 75.066406 249.367188 74.613281 249.136719 74.214844 C 243.171875 80.234375 237.660156 86.761719 233 93.914062 C 228.398438 100.953125 224.707031 108.390625 221.75 116.28125 C 220.046875 120.820312 218.738281 125.535156 217.601562 130.246094 C 217.375 131.210938 218.738281 131.550781 219.023438 130.644531 C 220.898438 122.46875 223.625 114.40625 227.261719 106.855469 C 230.84375 99.421875 235.332031 92.382812 240.445312 85.910156 C 243.398438 82.21875 246.636719 78.644531 249.992188 75.238281 C 250.503906 74.726562 249.992188 73.816406 249.308594 73.988281 C 236.355469 76.996094 224.648438 85.113281 217.089844 96.242188 C 212.660156 102.769531 209.988281 110.320312 207.261719 117.757812 C 204.25 125.703125 201.351562 133.765625 198.511719 141.828125 C 195.386719 150.851562 192.316406 159.9375 189.53125 169.074219 C 189.363281 169.984375 190.78125 170.324219 191.066406 169.472656 Z M 191.066406 169.472656 " fill-opacity="1" fill-rule="nonzero"/><path fill="#010101" d="M 187.886719 184.855469 C 195.785156 169.757812 204.25 154.996094 213.058594 140.464844 C 215.273438 136.886719 217.433594 133.3125 219.707031 129.734375 C 221.75 126.554688 223.796875 123.375 226.125 120.367188 C 228.398438 117.417969 230.898438 114.632812 233.738281 112.25 C 236.808594 109.640625 240.273438 107.707031 243.683594 105.664062 C 251.410156 101.066406 258.683594 95.789062 265.503906 89.828125 C 265.105469 89.597656 264.707031 89.371094 264.308594 89.144531 C 259.992188 99.648438 253.171875 108.789062 246.183594 117.417969 C 238.398438 127.011719 230.558594 136.492188 222.660156 146.085938 C 218.113281 151.589844 213.625 157.039062 209.078125 162.605469 C 208.511719 163.285156 209.476562 164.363281 210.101562 163.683594 C 218.171875 153.863281 226.351562 143.984375 234.421875 134.105469 C 238.34375 129.335938 242.261719 124.570312 246.183594 119.800781 C 249.707031 115.429688 253.285156 110.945312 256.46875 106.289062 C 260.046875 101.066406 263.285156 95.503906 265.730469 89.597656 C 266.015625 88.804688 264.992188 88.464844 264.480469 88.917969 C 258.34375 94.367188 251.753906 99.195312 244.820312 103.394531 C 241.410156 105.4375 237.886719 107.425781 234.707031 109.753906 C 231.75 111.964844 229.082031 114.578125 226.695312 117.472656 C 221.75 123.492188 217.714844 130.246094 213.683594 136.886719 C 209.191406 144.152344 204.875 151.421875 200.671875 158.800781 C 195.898438 167.144531 191.238281 175.605469 186.75 184.117188 C 186.179688 184.914062 187.375 185.652344 187.886719 184.855469 Z M 187.886719 184.855469 " fill-opacity="1" fill-rule="nonzero"/><path fill="#010101" d="M 190.953125 184.515625 C 194.191406 180.144531 196.636719 175.207031 200.160156 171.003906 C 203.285156 167.257812 207.714844 163.851562 212.714844 163.570312 C 217.546875 163.285156 221.464844 166.238281 224.421875 169.757812 C 227.148438 172.992188 229.363281 176.738281 231.46875 180.371094 C 236.070312 188.492188 239.136719 197.402344 241.695312 206.371094 C 243.96875 214.261719 245.617188 222.324219 247.378906 230.386719 C 249.535156 240.148438 251.867188 249.914062 254.253906 259.5625 C 254.421875 260.414062 254.648438 261.210938 254.820312 262.003906 C 255.160156 261.722656 255.503906 261.496094 255.84375 261.152344 C 252.832031 259.167969 250.84375 255.988281 249.253906 252.753906 C 247.433594 249.003906 246.011719 245.03125 244.59375 241.113281 C 241.695312 232.996094 239.195312 224.652344 235.957031 216.648438 C 232.832031 208.757812 228.96875 201.207031 224.648438 193.828125 C 222.488281 190.136719 220.214844 186.445312 217.945312 182.871094 C 216.921875 181.167969 215.839844 179.519531 214.703125 177.875 C 213.796875 176.511719 212.714844 175.148438 211.464844 174.183594 C 209.933594 172.992188 208.171875 172.425781 206.296875 172.59375 C 204.304688 172.820312 202.546875 173.84375 201.125 175.148438 C 197.828125 178.042969 196.464844 182.472656 193.625 185.765625 C 193 186.445312 194.023438 187.523438 194.648438 186.84375 C 197.148438 183.949219 198.511719 180.257812 201.011719 177.421875 C 203.398438 174.753906 206.976562 172.9375 210.273438 175.207031 C 211.636719 176.171875 212.660156 177.421875 213.511719 178.78125 C 214.589844 180.429688 215.671875 182.132812 216.75 183.777344 C 219.023438 187.296875 221.238281 190.929688 223.339844 194.507812 C 227.546875 201.71875 231.410156 209.152344 234.535156 216.929688 C 237.660156 224.765625 240.105469 232.882812 242.945312 240.886719 C 244.480469 245.144531 245.957031 249.402344 247.886719 253.433594 C 249.59375 256.953125 251.808594 260.414062 255.046875 262.574219 C 255.558594 262.914062 256.296875 262.347656 256.070312 261.722656 C 253.742188 252.296875 251.46875 242.875 249.308594 233.449219 C 247.378906 224.820312 245.617188 216.191406 243.230469 207.679688 C 240.671875 198.480469 237.605469 189.34375 233 180.941406 C 230.957031 177.191406 228.683594 173.445312 226.070312 170.097656 C 223.285156 166.464844 219.589844 163.058594 214.933594 162.375 C 209.875 161.640625 204.988281 164.023438 201.296875 167.316406 C 197.203125 170.949219 194.535156 175.945312 191.636719 180.484375 C 190.898438 181.679688 190.101562 182.757812 189.304688 183.890625 C 189.136719 184.515625 190.441406 185.3125 190.953125 184.515625 Z M 190.953125 184.515625 " fill-opacity="1" fill-rule="nonzero"/><path fill="#010101" d="M 202.375 186.671875 C 204.535156 182.417969 207.828125 178.839844 211.921875 176.398438 C 212.714844 175.945312 211.976562 174.640625 211.183594 175.09375 C 206.921875 177.648438 203.398438 181.394531 201.125 185.878906 C 200.671875 186.730469 201.921875 187.46875 202.375 186.671875 Z M 202.375 186.671875 " fill-opacity="1" fill-rule="nonzero"/><g clip-path="url(#e423cdf425)"><path fill="#010101" d="M 214.761719 162.945312 C 219.078125 158.6875 223.457031 154.542969 227.886719 150.457031 C 232.261719 146.480469 236.695312 142.566406 241.296875 138.816406 C 245.617188 135.355469 250.332031 132.402344 255.730469 131.097656 C 261.183594 129.792969 266.867188 130.132812 272.320312 131.269531 C 278.628906 132.574219 284.707031 134.730469 290.730469 137.058594 C 290.789062 136.605469 290.84375 136.09375 290.902344 135.582031 C 280.789062 135.296875 270.617188 136.773438 261.015625 139.953125 C 251.355469 143.074219 242.207031 147.84375 234.136719 154.03125 C 229.59375 157.496094 225.332031 161.410156 221.523438 165.78125 C 220.898438 166.464844 221.921875 167.542969 222.546875 166.863281 C 229.25 159.3125 237.207031 153.011719 246.011719 148.128906 C 254.765625 143.300781 264.308594 139.953125 274.140625 138.308594 C 279.652344 137.34375 285.332031 137 290.957031 137.113281 C 291.8125 137.113281 291.867188 135.921875 291.128906 135.640625 C 280.5625 131.609375 269.140625 127.464844 257.605469 129.28125 C 251.980469 130.1875 246.980469 132.742188 242.433594 136.09375 C 237.71875 139.613281 233.230469 143.644531 228.796875 147.671875 C 223.625 152.328125 218.625 157.039062 213.683594 161.921875 C 213.058594 162.605469 214.023438 163.683594 214.761719 162.945312 Z M 214.761719 162.945312 " fill-opacity="1" fill-rule="nonzero"/></g><path fill="#010101" d="M 147.882812 170.550781 C 145.15625 171.914062 142.03125 171.914062 139.019531 171.914062 C 135.78125 171.96875 132.484375 172.199219 129.300781 172.765625 C 127.769531 172.992188 126.234375 173.21875 124.699219 173.671875 C 123.621094 173.957031 122.425781 174.582031 122.03125 175.71875 C 121.632812 176.910156 122.085938 178.214844 122.882812 179.066406 C 123.789062 180.089844 125.15625 180.484375 126.347656 180.828125 C 130.042969 181.90625 133.734375 182.8125 137.484375 183.664062 C 138.394531 183.835938 138.792969 182.417969 137.882812 182.246094 C 134.929688 181.621094 132.03125 180.882812 129.074219 180.144531 C 127.710938 179.804688 126.289062 179.519531 125.039062 178.894531 C 124.132812 178.441406 122.769531 177.308594 123.449219 176.113281 C 123.960938 175.148438 125.609375 174.980469 126.574219 174.808594 C 128.050781 174.523438 129.53125 174.242188 131.0625 174.070312 C 133.960938 173.671875 136.859375 173.558594 139.871094 173.503906 C 142.824219 173.445312 145.835938 173.332031 148.621094 171.914062 C 149.472656 171.402344 148.679688 170.152344 147.882812 170.550781 Z M 147.882812 170.550781 " fill-opacity="1" fill-rule="nonzero"/><path fill="#010101" d="M 149.984375 187.296875 C 154.472656 188.320312 159.019531 188.773438 163.621094 189.171875 C 164.53125 189.285156 164.53125 187.808594 163.621094 187.695312 C 159.191406 187.296875 154.757812 186.789062 150.441406 185.820312 C 149.472656 185.652344 149.078125 187.070312 149.984375 187.296875 Z M 149.984375 187.296875 " fill-opacity="1" fill-rule="nonzero"/><path fill="#010101" d="M 175.328125 191.613281 C 187.488281 193.257812 199.875 193.429688 212.089844 192.238281 C 215.445312 191.894531 218.851562 191.5 222.207031 190.929688 C 223.113281 190.761719 222.714844 189.34375 221.808594 189.511719 C 209.816406 191.441406 197.660156 191.953125 185.554688 191.101562 C 182.144531 190.875 178.738281 190.535156 175.382812 190.023438 C 174.417969 189.964844 174.417969 191.441406 175.328125 191.613281 Z M 175.328125 191.613281 " fill-opacity="1" fill-rule="nonzero"/><path fill="#010101" d="M 226.808594 171.914062 C 232.71875 172.765625 238.683594 173.445312 244.59375 174.410156 C 245.785156 174.582031 247.148438 174.808594 248.058594 175.773438 C 248.910156 176.683594 249.136719 177.816406 248.34375 178.839844 C 247.605469 179.746094 246.46875 180.203125 245.558594 180.769531 C 244.648438 181.335938 243.683594 181.960938 242.71875 182.53125 C 240.445312 183.890625 238.058594 184.96875 235.5 185.652344 C 234.59375 185.878906 234.988281 187.296875 235.898438 187.070312 C 238.398438 186.445312 240.785156 185.367188 243.058594 184.0625 C 244.136719 183.4375 245.21875 182.699219 246.296875 182.074219 C 247.320312 181.449219 248.511719 180.882812 249.308594 179.976562 C 251.242188 177.929688 250.160156 175.035156 247.832031 173.84375 C 246.46875 173.21875 244.992188 172.992188 243.457031 172.820312 C 241.808594 172.59375 240.21875 172.367188 238.570312 172.199219 C 234.707031 171.6875 230.957031 171.117188 227.09375 170.609375 C 226.238281 170.382812 225.839844 171.800781 226.808594 171.914062 Z M 226.808594 171.914062 " fill-opacity="1" fill-rule="nonzero"/><path fill="#010101" d="M 121.972656 177.078125 C 122.199219 186.277344 122.371094 195.417969 122.597656 204.613281 C 122.597656 205.578125 124.074219 205.578125 124.074219 204.613281 C 123.847656 195.417969 123.675781 186.277344 123.449219 177.078125 C 123.449219 176.113281 121.972656 176.113281 121.972656 177.078125 Z M 121.972656 177.078125 " fill-opacity="1" fill-rule="nonzero"/><path fill="#010101" d="M 126.234375 217.554688 C 126.175781 230.273438 126.800781 243.101562 128.109375 255.761719 C 128.394531 258.769531 128.734375 261.722656 129.132812 264.671875 C 129.472656 267.171875 129.925781 269.554688 130.894531 271.882812 C 131.800781 274.152344 133.28125 276.199219 135.269531 277.617188 C 137.371094 279.09375 139.8125 280 142.199219 280.683594 C 148.847656 282.667969 155.609375 284.257812 162.371094 285.507812 C 163.28125 285.679688 163.679688 284.257812 162.769531 284.089844 C 156.859375 283.011719 151.007812 281.703125 145.210938 280.058594 C 142.710938 279.375 140.097656 278.640625 137.769531 277.445312 C 135.554688 276.253906 133.792969 274.609375 132.65625 272.335938 C 131.574219 270.238281 131.007812 267.796875 130.667969 265.46875 C 130.210938 262.628906 129.984375 259.792969 129.699219 256.953125 C 129.074219 250.820312 128.621094 244.632812 128.222656 238.445312 C 127.882812 231.464844 127.710938 224.539062 127.710938 217.554688 C 127.710938 216.589844 126.234375 216.589844 126.234375 217.554688 Z M 126.234375 217.554688 " fill-opacity="1" fill-rule="nonzero"/><path fill="#010101" d="M 167.371094 287.265625 C 182.601562 289.425781 198.226562 288.96875 213.285156 285.847656 C 219.707031 284.542969 226.125 282.894531 232.035156 279.945312 C 237.148438 277.332031 241.808594 273.53125 243.96875 268.023438 C 246.695312 261.152344 246.636719 253.660156 246.636719 246.335938 C 246.636719 245.371094 245.160156 245.371094 245.160156 246.335938 C 245.160156 252.695312 245.273438 259.109375 243.34375 265.242188 C 242.492188 268.078125 241.242188 270.578125 239.25 272.792969 C 237.375 274.835938 235.105469 276.480469 232.71875 277.789062 C 227.261719 280.851562 221.011719 282.441406 214.988281 283.863281 C 207.714844 285.507812 200.273438 286.53125 192.828125 286.871094 C 184.476562 287.265625 176.007812 286.925781 167.714844 285.734375 C 166.863281 285.679688 166.464844 287.097656 167.371094 287.265625 Z M 167.371094 287.265625 " fill-opacity="1" fill-rule="nonzero"/><path fill="#010101" d="M 249.136719 179.066406 C 249.308594 191.554688 248.742188 204.042969 247.71875 216.476562 C 247.433594 220.109375 247.09375 223.800781 246.808594 227.488281 C 246.753906 228.457031 248.230469 228.457031 248.285156 227.488281 C 249.367188 215.058594 250.445312 202.625 250.617188 190.078125 C 250.671875 186.445312 250.671875 182.699219 250.617188 179.066406 C 250.558594 178.101562 249.136719 178.101562 249.136719 179.066406 Z M 249.136719 179.066406 " fill-opacity="1" fill-rule="nonzero"/><path fill="#010101" d="M 180.78125 177.761719 C 177.542969 178.5 175.554688 181.679688 173.964844 184.347656 C 172.089844 187.640625 170.613281 191.042969 169.304688 194.621094 C 166.746094 201.71875 165.214844 209.097656 164.304688 216.589844 C 163.394531 224.253906 163.054688 231.976562 162.882812 239.695312 C 162.714844 248.265625 162.714844 256.839844 162.601562 265.410156 C 162.542969 270.125 162.371094 274.890625 162.542969 279.605469 C 162.65625 283.863281 163.28125 288.175781 165.328125 291.980469 C 165.554688 292.375 166.179688 292.035156 165.953125 291.636719 C 164.132812 288.175781 163.507812 284.257812 163.339844 280.457031 C 163.167969 276.425781 163.28125 272.449219 163.339844 268.421875 C 163.394531 260.019531 163.507812 251.503906 163.566406 243.101562 C 163.734375 228.171875 164.246094 212.957031 168.679688 198.652344 C 169.929688 194.621094 171.464844 190.761719 173.394531 186.957031 C 175.042969 183.722656 177.089844 179.351562 180.894531 178.441406 C 181.40625 178.328125 181.238281 177.648438 180.78125 177.761719 Z M 180.78125 177.761719 " fill-opacity="1" fill-rule="nonzero"/><path fill="#010101" d="M 182.261719 183.496094 C 182.828125 183.210938 183.394531 184.175781 183.738281 184.574219 C 184.136719 184.96875 184.53125 185.480469 185.15625 185.652344 C 186.75 186.050781 187.261719 184.0625 188.511719 183.722656 C 188.398438 183.664062 188.28125 183.664062 188.167969 183.609375 C 189.191406 184.96875 191.238281 185.027344 192.488281 183.835938 C 192.316406 183.835938 192.089844 183.777344 191.917969 183.777344 C 192.714844 184.96875 194.023438 185.59375 195.441406 185.480469 C 195.328125 185.3125 195.214844 185.199219 195.101562 185.027344 C 194.929688 186.390625 196.066406 187.410156 197.375 187.410156 C 199.25 187.46875 200.898438 185.59375 202.773438 186.332031 C 203.171875 186.503906 203.398438 185.820312 202.941406 185.652344 C 201.804688 185.199219 200.554688 185.59375 199.476562 186.050781 C 198.792969 186.332031 198.054688 186.671875 197.316406 186.617188 C 196.578125 186.617188 195.613281 186.050781 195.726562 185.199219 C 195.785156 184.96875 195.613281 184.742188 195.386719 184.742188 C 194.25 184.855469 193.113281 184.402344 192.488281 183.4375 C 192.375 183.269531 192.089844 183.210938 191.917969 183.382812 C 191.011719 184.347656 189.476562 184.117188 188.679688 183.152344 C 188.625 183.039062 188.453125 183.039062 188.339844 183.039062 C 187.65625 183.210938 187.203125 183.722656 186.636719 184.289062 C 186.011719 184.914062 185.441406 185.3125 184.644531 184.574219 C 183.90625 183.890625 183.113281 182.359375 181.863281 182.984375 C 181.519531 183.039062 181.863281 183.722656 182.261719 183.496094 Z M 182.261719 183.496094 " fill-opacity="1" fill-rule="nonzero"/><path fill="#010101" d="M 192.601562 183.664062 C 195.386719 179.632812 198.398438 175.71875 202.148438 172.59375 C 204.25 170.835938 206.636719 169.246094 209.363281 168.679688 C 212.601562 168.109375 215.5 169.757812 217.488281 172.199219 C 218.964844 174.015625 220.214844 176 221.464844 177.988281 C 222.773438 180.03125 223.964844 182.1875 224.988281 184.402344 C 226.070312 186.84375 226.921875 189.398438 227.773438 191.894531 C 231.808594 202.964844 236.011719 213.980469 240.21875 225.105469 C 244.421875 236.117188 248.570312 247.132812 252.605469 258.257812 C 253.058594 259.621094 253.570312 260.984375 254.082031 262.347656 C 254.253906 262.800781 254.933594 262.574219 254.765625 262.175781 C 250.671875 250.820312 246.46875 239.523438 242.148438 228.285156 C 237.773438 216.929688 233.398438 205.464844 229.25 194.054688 C 228.285156 191.328125 227.320312 188.605469 226.351562 185.9375 C 225.558594 183.722656 224.363281 181.621094 223.171875 179.578125 C 221.695312 177.023438 220.101562 174.582031 218.339844 172.253906 C 216.410156 169.699219 213.683594 167.769531 210.441406 167.941406 C 207.941406 168.054688 205.671875 169.246094 203.625 170.664062 C 200.101562 173.21875 197.148438 176.570312 194.476562 179.976562 C 193.625 181.109375 192.773438 182.1875 191.976562 183.382812 C 191.636719 183.722656 192.261719 184.0625 192.601562 183.664062 Z M 192.601562 183.664062 " fill-opacity="1" fill-rule="nonzero"/><path fill="#010101" d="M 219.195312 165.101562 C 226.125 157.835938 233.855469 151.308594 242.546875 146.199219 C 251.523438 140.917969 261.410156 137.171875 271.753906 135.980469 C 277.664062 135.296875 283.6875 135.46875 289.480469 136.546875 C 289.9375 136.605469 290.105469 135.921875 289.652344 135.867188 C 279.195312 133.878906 268.34375 134.902344 258.230469 138.136719 C 248.457031 141.257812 239.480469 146.480469 231.410156 152.839844 C 226.863281 156.417969 222.601562 160.332031 218.625 164.535156 C 218.339844 164.929688 218.796875 165.386719 219.195312 165.101562 Z M 219.195312 165.101562 " fill-opacity="1" fill-rule="nonzero"/><path fill="#010101" d="M 193.054688 179.238281 C 197.886719 174.355469 201.351562 168.28125 204.535156 162.207031 C 207.886719 155.792969 211.125 149.375 215.328125 143.53125 C 219.820312 137.285156 224.820312 131.324219 229.707031 125.363281 C 234.480469 119.628906 239.367188 114.125 244.59375 108.84375 C 250.503906 102.941406 256.867188 97.546875 263.855469 92.890625 C 264.253906 92.664062 263.855469 91.984375 263.515625 92.269531 C 251.183594 100.441406 240.785156 111.171875 231.238281 122.46875 C 226.351562 128.257812 221.523438 134.105469 216.976562 140.125 C 214.589844 143.246094 212.316406 146.480469 210.328125 149.886719 C 208.566406 152.894531 207.035156 155.960938 205.386719 159.027344 C 201.804688 166.011719 198.113281 173.105469 192.601562 178.726562 C 192.203125 179.066406 192.773438 179.578125 193.054688 179.238281 Z M 193.054688 179.238281 " fill-opacity="1" fill-rule="nonzero"/><path fill="#010101" d="M 249.535156 75.066406 C 243.625 79.664062 237.660156 84.320312 232.320312 89.542969 C 226.921875 94.820312 222.433594 100.839844 218.738281 107.480469 C 215.046875 114.066406 212.203125 121.105469 209.308594 128.089844 C 206.125 135.921875 202.886719 143.757812 199.703125 151.589844 C 196.125 160.445312 192.488281 169.246094 188.90625 178.160156 C 188.738281 178.554688 189.417969 178.78125 189.589844 178.328125 C 195.953125 162.773438 202.261719 147.277344 208.625 131.722656 C 211.523438 124.570312 214.363281 117.472656 217.886719 110.605469 C 221.296875 103.90625 225.5 97.660156 230.726562 92.152344 C 236.523438 86.023438 243.230469 80.855469 249.878906 75.632812 C 250.273438 75.464844 249.878906 74.839844 249.535156 75.066406 Z M 249.535156 75.066406 " fill-opacity="1" fill-rule="nonzero"/><path fill="#010101" d="M 187.773438 37.089844 C 194.929688 49.238281 197.941406 63.257812 199.023438 77.222656 C 200.101562 91.472656 199.417969 105.777344 199.136719 120.027344 C 198.964844 127.863281 198.851562 135.753906 198.625 143.585938 C 198.625 144.039062 199.304688 144.039062 199.304688 143.585938 C 199.648438 129.28125 199.988281 114.917969 200.214844 100.613281 C 200.441406 86.535156 200.160156 72.226562 196.917969 58.433594 C 195.101562 50.828125 192.316406 43.445312 188.339844 36.75 C 188.113281 36.238281 187.429688 36.632812 187.773438 37.089844 Z M 187.773438 37.089844 " fill-opacity="1" fill-rule="nonzero"/><path fill="#010101" d="M 178.394531 51.792969 C 180.5 68.3125 182.542969 84.832031 183.226562 101.464844 C 183.566406 109.808594 183.453125 118.210938 183.511719 126.554688 C 183.625 134.84375 183.90625 143.1875 184.417969 151.476562 C 184.988281 160.789062 185.839844 170.097656 186.917969 179.351562 C 186.976562 179.804688 187.65625 179.804688 187.601562 179.351562 C 185.613281 162.832031 184.53125 146.3125 184.25 129.679688 C 184.078125 121.332031 184.25 112.929688 184.019531 104.644531 C 183.792969 96.355469 183.167969 88.011719 182.316406 79.722656 C 181.40625 70.410156 180.214844 61.160156 179.078125 51.847656 C 179.078125 51.335938 178.339844 51.335938 178.394531 51.792969 Z M 178.394531 51.792969 " fill-opacity="1" fill-rule="nonzero"/><path fill="#010101" d="M 160.328125 25.792969 C 158.394531 35.613281 157.371094 45.660156 157.257812 55.707031 C 157.144531 65.871094 157.941406 75.976562 159.078125 86.078125 C 160.101562 95.902344 161.464844 105.777344 163.109375 115.542969 C 164.703125 125.363281 166.519531 135.183594 168.621094 144.949219 C 170.726562 154.714844 173.113281 164.421875 175.726562 174.015625 C 176.066406 175.207031 176.351562 176.398438 176.691406 177.535156 C 176.804688 177.988281 177.488281 177.761719 177.375 177.363281 C 174.757812 167.882812 172.316406 158.289062 170.15625 148.640625 C 167.996094 139.046875 166.066406 129.28125 164.476562 119.574219 C 162.769531 109.808594 161.40625 99.929688 160.269531 90.054688 C 159.132812 80.003906 158.167969 69.957031 157.996094 59.796875 C 157.882812 49.691406 158.621094 39.644531 160.382812 29.652344 C 160.609375 28.402344 160.839844 27.210938 161.066406 26.019531 C 161.121094 25.566406 160.382812 25.335938 160.328125 25.792969 Z M 160.328125 25.792969 " fill-opacity="1" fill-rule="nonzero"/><path fill="#010101" d="M 118.335938 66.269531 C 127.199219 78.074219 133.792969 91.300781 139.8125 104.699219 C 146.292969 119.121094 152.316406 133.820312 158.28125 148.46875 C 161.632812 156.8125 164.929688 165.214844 168.113281 173.558594 C 168.28125 173.957031 168.964844 173.789062 168.792969 173.390625 C 163.109375 158.402344 157.144531 143.585938 150.953125 128.828125 C 145.097656 114.746094 139.1875 100.554688 132.085938 87.046875 C 128.222656 79.664062 123.960938 72.570312 118.960938 65.871094 C 118.675781 65.53125 118.050781 65.871094 118.335938 66.269531 Z M 118.335938 66.269531 " fill-opacity="1" fill-rule="nonzero"/><path fill="#010101" d="M 82.9375 95.332031 C 93.335938 104.1875 103.675781 113.214844 113.675781 122.582031 C 123.675781 131.949219 133.335938 141.597656 142.597656 151.703125 C 147.769531 157.382812 152.828125 163.171875 157.65625 169.1875 C 157.941406 169.53125 158.453125 169.019531 158.167969 168.679688 C 149.53125 158.003906 140.382812 147.84375 130.78125 138.136719 C 121.175781 128.371094 111.175781 119.0625 100.949219 109.921875 C 95.210938 104.8125 89.355469 99.761719 83.503906 94.765625 C 83.105469 94.539062 82.59375 95.050781 82.9375 95.332031 Z M 82.9375 95.332031 " fill-opacity="1" fill-rule="nonzero"/><path fill="#010101" d="M 111.007812 241.398438 C 112.027344 235.496094 115.4375 230.386719 118.507812 225.390625 C 121.40625 220.679688 124.414062 216.023438 127.597656 211.425781 C 134.1875 201.660156 141.234375 192.125 148.792969 183.152344 C 152.828125 178.386719 156.972656 173.789062 161.464844 169.472656 C 161.804688 169.132812 161.292969 168.621094 160.953125 168.960938 C 152.769531 176.851562 145.496094 185.652344 138.621094 194.792969 C 131.574219 204.042969 125.039062 213.695312 118.847656 223.574219 C 115.4375 229.078125 111.460938 234.699219 110.324219 241.226562 C 110.265625 241.738281 110.949219 241.910156 111.007812 241.398438 Z M 111.007812 241.398438 " fill-opacity="1" fill-rule="nonzero"/></svg>