<svg xmlns="http://www.w3.org/2000/svg" xmlns:xlink="http://www.w3.org/1999/xlink" width="500" zoomAndPan="magnify" viewBox="0 0 375 149.999998" height="200" preserveAspectRatio="xMidYMid meet" version="1.0"><defs><g/><clipPath id="96609d6f7c"><path d="M 5.582031 45 L 39 45 L 39 95 L 5.582031 95 Z M 5.582031 45 " clip-rule="nonzero"/></clipPath><clipPath id="f0bdf59347"><path d="M 38 61 L 71.582031 61 L 71.582031 108.054688 L 38 108.054688 Z M 38 61 " clip-rule="nonzero"/></clipPath><clipPath id="c5d1f7d1ac"><path d="M 5.582031 75 L 58 75 L 58 108.054688 L 5.582031 108.054688 Z M 5.582031 75 " clip-rule="nonzero"/></clipPath><clipPath id="ed7fcbe383"><path d="M 40 42.054688 L 58 42.054688 L 58 60 L 40 60 Z M 40 42.054688 " clip-rule="nonzero"/></clipPath></defs><g clip-path="url(#96609d6f7c)"><path fill="#ff9a03" d="M 5.582031 94.417969 L 38.582031 75.054688 L 24.269531 50.664062 C 19.269531 42.144531 6.039062 45.195312 5.59375 55.066406 C 5.585938 55.273438 5.582031 55.480469 5.582031 55.691406 L 5.582031 94.417969 " fill-opacity="1" fill-rule="nonzero"/></g><g clip-path="url(#f0bdf59347)"><path fill="#f16b81" d="M 57.949219 108.054688 C 65.476562 108.054688 71.582031 101.953125 71.582031 94.417969 L 71.582031 68.617188 C 71.582031 62.894531 65.367188 59.335938 60.433594 62.234375 L 38.582031 75.054688 L 57.949219 108.054688 " fill-opacity="1" fill-rule="nonzero"/></g><g clip-path="url(#c5d1f7d1ac)"><path fill="#2a1a3f" d="M 19.21875 108.054688 L 57.949219 108.054688 L 38.582031 75.054688 L 5.582031 94.417969 C 5.582031 94.742188 5.59375 95.066406 5.617188 95.382812 C 6.109375 102.464844 12.011719 108.054688 19.21875 108.054688 " fill-opacity="1" fill-rule="nonzero"/></g><g clip-path="url(#ed7fcbe383)"><path fill="#000000" d="M 57.949219 50.875 C 57.949219 55.746094 54 59.695312 49.128906 59.695312 C 44.257812 59.695312 40.308594 55.746094 40.308594 50.875 C 40.308594 46.003906 44.257812 42.054688 49.128906 42.054688 C 54 42.054688 57.949219 46.003906 57.949219 50.875 Z M 57.949219 50.875 " fill-opacity="1" fill-rule="nonzero"/></g><g fill="#000000" fill-opacity="1"><g transform="translate(90.381869, 93.10452)"><g><path d="M 23.3125 -18.328125 C 24.644531 -17.410156 25.707031 -16.226562 26.5 -14.78125 C 27.289062 -13.34375 27.6875 -11.753906 27.6875 -10.015625 C 27.6875 -8.628906 27.414062 -7.328125 26.875 -6.109375 C 26.332031 -4.890625 25.601562 -3.828125 24.6875 -2.921875 C 23.769531 -2.015625 22.703125 -1.300781 21.484375 -0.78125 C 20.265625 -0.257812 18.957031 0 17.5625 0 L 2.28125 0 L 2.28125 -33.671875 L 17.09375 -33.671875 C 18.363281 -33.671875 19.550781 -33.421875 20.65625 -32.921875 C 21.757812 -32.429688 22.726562 -31.773438 23.5625 -30.953125 C 24.40625 -30.128906 25.066406 -29.164062 25.546875 -28.0625 C 26.023438 -26.957031 26.265625 -25.769531 26.265625 -24.5 C 26.265625 -23.132812 26 -21.9375 25.46875 -20.90625 C 24.945312 -19.882812 24.226562 -19.023438 23.3125 -18.328125 Z M 9.5 -21.03125 L 17.09375 -21.03125 C 17.945312 -21.03125 18.675781 -21.332031 19.28125 -21.9375 C 19.882812 -22.539062 20.1875 -23.269531 20.1875 -24.125 C 20.1875 -24.976562 19.882812 -25.6875 19.28125 -26.25 C 18.675781 -26.820312 17.945312 -27.109375 17.09375 -27.109375 L 9.5 -27.109375 Z M 17.5625 -6.5 C 18.519531 -6.5 19.328125 -6.898438 19.984375 -7.703125 C 20.648438 -8.515625 20.984375 -9.460938 20.984375 -10.546875 C 20.984375 -11.648438 20.648438 -12.582031 19.984375 -13.34375 C 19.328125 -14.101562 18.519531 -14.484375 17.5625 -14.484375 L 9.5 -14.484375 L 9.5 -6.5 Z M 17.5625 -6.5 "/></g></g></g><g fill="#000000" fill-opacity="1"><g transform="translate(118.822955, 93.10452)"><g><path d="M 13.765625 -24.21875 C 15.535156 -24.21875 17.148438 -23.859375 18.609375 -23.140625 C 20.066406 -22.429688 21.316406 -21.5 22.359375 -20.34375 C 23.410156 -19.1875 24.21875 -17.859375 24.78125 -16.359375 C 25.351562 -14.859375 25.640625 -13.316406 25.640625 -11.734375 C 25.640625 -10.773438 25.515625 -9.757812 25.265625 -8.6875 L 8.453125 -8.6875 C 9.085938 -7.613281 9.988281 -6.703125 11.15625 -5.953125 C 12.332031 -5.210938 13.597656 -4.84375 14.953125 -4.84375 C 16.316406 -4.84375 17.507812 -4.953125 18.53125 -5.171875 C 19.5625 -5.398438 20.539062 -5.6875 21.46875 -6.03125 L 23.640625 -2 C 22.472656 -1.175781 21.132812 -0.539062 19.625 -0.09375 C 18.125 0.34375 16.519531 0.5625 14.8125 0.5625 C 12.945312 0.5625 11.207031 0.238281 9.59375 -0.40625 C 7.976562 -1.050781 6.566406 -1.925781 5.359375 -3.03125 C 4.160156 -4.144531 3.210938 -5.460938 2.515625 -6.984375 C 1.816406 -8.503906 1.46875 -10.117188 1.46875 -11.828125 C 1.46875 -13.503906 1.785156 -15.09375 2.421875 -16.59375 C 3.054688 -18.09375 3.9375 -19.40625 5.0625 -20.53125 C 6.1875 -21.65625 7.488281 -22.550781 8.96875 -23.21875 C 10.457031 -23.882812 12.054688 -24.21875 13.765625 -24.21875 Z M 19.140625 -13.765625 C 18.753906 -15.128906 18.070312 -16.238281 17.09375 -17.09375 C 16.113281 -17.945312 15.003906 -18.375 13.765625 -18.375 C 12.503906 -18.375 11.359375 -17.945312 10.328125 -17.09375 C 9.296875 -16.238281 8.59375 -15.128906 8.21875 -13.765625 Z M 19.140625 -13.765625 "/></g></g></g><g fill="#000000" fill-opacity="1"><g transform="translate(146.124498, 93.10452)"><g><path d="M 10.828125 -8.453125 C 10.828125 -7.347656 11.164062 -6.492188 11.84375 -5.890625 C 12.53125 -5.285156 13.425781 -4.984375 14.53125 -4.984375 C 15.414062 -4.984375 16.300781 -5.160156 17.1875 -5.515625 L 17.1875 0 C 16.394531 0.25 15.554688 0.460938 14.671875 0.640625 C 13.785156 0.816406 12.898438 0.90625 12.015625 0.90625 C 11.003906 0.90625 10.035156 0.773438 9.109375 0.515625 C 8.191406 0.265625 7.367188 -0.164062 6.640625 -0.78125 C 5.921875 -1.394531 5.347656 -2.21875 4.921875 -3.25 C 4.492188 -4.28125 4.28125 -5.554688 4.28125 -7.078125 L 4.28125 -17.71875 L 0.90625 -17.71875 L 0.90625 -22.125 L 4.28125 -23.546875 L 4.28125 -28.828125 L 10.828125 -28.828125 L 10.828125 -23.546875 L 17.1875 -23.546875 L 17.1875 -17.71875 L 10.828125 -17.71875 Z M 10.828125 -8.453125 "/></g></g></g><g fill="#000000" fill-opacity="1"><g transform="translate(163.360035, 93.10452)"><g><path d="M 10.828125 -8.453125 C 10.828125 -7.347656 11.164062 -6.492188 11.84375 -5.890625 C 12.53125 -5.285156 13.425781 -4.984375 14.53125 -4.984375 C 15.414062 -4.984375 16.300781 -5.160156 17.1875 -5.515625 L 17.1875 0 C 16.394531 0.25 15.554688 0.460938 14.671875 0.640625 C 13.785156 0.816406 12.898438 0.90625 12.015625 0.90625 C 11.003906 0.90625 10.035156 0.773438 9.109375 0.515625 C 8.191406 0.265625 7.367188 -0.164062 6.640625 -0.78125 C 5.921875 -1.394531 5.347656 -2.21875 4.921875 -3.25 C 4.492188 -4.28125 4.28125 -5.554688 4.28125 -7.078125 L 4.28125 -17.71875 L 0.90625 -17.71875 L 0.90625 -22.125 L 4.28125 -23.546875 L 4.28125 -28.828125 L 10.828125 -28.828125 L 10.828125 -23.546875 L 17.1875 -23.546875 L 17.1875 -17.71875 L 10.828125 -17.71875 Z M 10.828125 -8.453125 "/></g></g></g><g fill="#000000" fill-opacity="1"><g transform="translate(180.595572, 93.10452)"><g><path d="M 13.765625 -24.21875 C 15.535156 -24.21875 17.148438 -23.859375 18.609375 -23.140625 C 20.066406 -22.429688 21.316406 -21.5 22.359375 -20.34375 C 23.410156 -19.1875 24.21875 -17.859375 24.78125 -16.359375 C 25.351562 -14.859375 25.640625 -13.316406 25.640625 -11.734375 C 25.640625 -10.773438 25.515625 -9.757812 25.265625 -8.6875 L 8.453125 -8.6875 C 9.085938 -7.613281 9.988281 -6.703125 11.15625 -5.953125 C 12.332031 -5.210938 13.597656 -4.84375 14.953125 -4.84375 C 16.316406 -4.84375 17.507812 -4.953125 18.53125 -5.171875 C 19.5625 -5.398438 20.539062 -5.6875 21.46875 -6.03125 L 23.640625 -2 C 22.472656 -1.175781 21.132812 -0.539062 19.625 -0.09375 C 18.125 0.34375 16.519531 0.5625 14.8125 0.5625 C 12.945312 0.5625 11.207031 0.238281 9.59375 -0.40625 C 7.976562 -1.050781 6.566406 -1.925781 5.359375 -3.03125 C 4.160156 -4.144531 3.210938 -5.460938 2.515625 -6.984375 C 1.816406 -8.503906 1.46875 -10.117188 1.46875 -11.828125 C 1.46875 -13.503906 1.785156 -15.09375 2.421875 -16.59375 C 3.054688 -18.09375 3.9375 -19.40625 5.0625 -20.53125 C 6.1875 -21.65625 7.488281 -22.550781 8.96875 -23.21875 C 10.457031 -23.882812 12.054688 -24.21875 13.765625 -24.21875 Z M 19.140625 -13.765625 C 18.753906 -15.128906 18.070312 -16.238281 17.09375 -17.09375 C 16.113281 -17.945312 15.003906 -18.375 13.765625 -18.375 C 12.503906 -18.375 11.359375 -17.945312 10.328125 -17.09375 C 9.296875 -16.238281 8.59375 -15.128906 8.21875 -13.765625 Z M 19.140625 -13.765625 "/></g></g></g><g fill="#000000" fill-opacity="1"><g transform="translate(207.897115, 93.10452)"><g><path d="M 8.59375 -20.28125 C 8.90625 -20.78125 9.265625 -21.257812 9.671875 -21.71875 C 10.085938 -22.175781 10.582031 -22.585938 11.15625 -22.953125 C 11.726562 -23.316406 12.378906 -23.609375 13.109375 -23.828125 C 13.835938 -24.054688 14.660156 -24.171875 15.578125 -24.171875 C 16.648438 -24.171875 17.898438 -23.976562 19.328125 -23.59375 L 18.703125 -17.765625 C 18.359375 -17.828125 18.015625 -17.90625 17.671875 -18 C 17.378906 -18.0625 17.054688 -18.113281 16.703125 -18.15625 C 16.359375 -18.207031 16.046875 -18.234375 15.765625 -18.234375 C 14.753906 -18.234375 13.8125 -18.085938 12.9375 -17.796875 C 12.070312 -17.515625 11.320312 -17.117188 10.6875 -16.609375 C 10.050781 -16.109375 9.539062 -15.5 9.15625 -14.78125 C 8.78125 -14.070312 8.59375 -13.304688 8.59375 -12.484375 L 8.59375 0 L 2.046875 0 L 2.046875 -23.546875 L 7.984375 -23.546875 Z M 8.59375 -20.28125 "/></g></g></g><g fill="#000000" fill-opacity="1"><g transform="translate(226.509605, 93.10452)"><g><path d="M 24.828125 -33.671875 L 32.046875 -33.671875 L 32.046875 0 L 24.828125 0 L 24.828125 -14.484375 L 9.40625 -14.484375 L 9.40625 0 L 2.234375 0 L 2.234375 -33.671875 L 9.40625 -33.671875 L 9.40625 -21.03125 L 24.828125 -21.03125 Z M 24.828125 -33.671875 "/></g></g></g><g fill="#000000" fill-opacity="1"><g transform="translate(259.841232, 93.10452)"><g><path d="M 26.78125 -23.546875 L 26.78125 0 L 21.125 0 L 20.46875 -2.515625 C 19.550781 -1.285156 18.453125 -0.460938 17.171875 -0.046875 C 15.890625 0.359375 14.550781 0.5625 13.15625 0.5625 C 11.476562 0.5625 9.929688 0.238281 8.515625 -0.40625 C 7.109375 -1.050781 5.882812 -1.9375 4.84375 -3.0625 C 3.800781 -4.1875 2.984375 -5.5 2.390625 -7 C 1.804688 -8.507812 1.515625 -10.117188 1.515625 -11.828125 C 1.515625 -13.535156 1.804688 -15.140625 2.390625 -16.640625 C 2.984375 -18.148438 3.800781 -19.460938 4.84375 -20.578125 C 5.882812 -21.703125 7.109375 -22.585938 8.515625 -23.234375 C 9.929688 -23.890625 11.476562 -24.21875 13.15625 -24.21875 C 14.675781 -24.21875 16.066406 -23.976562 17.328125 -23.5 C 18.597656 -23.03125 19.644531 -22.269531 20.46875 -21.21875 L 21.125 -23.546875 Z M 20.234375 -11.734375 C 20.234375 -12.960938 20.066406 -13.992188 19.734375 -14.828125 C 19.398438 -15.671875 18.953125 -16.351562 18.390625 -16.875 C 17.835938 -17.40625 17.191406 -17.785156 16.453125 -18.015625 C 15.710938 -18.253906 14.914062 -18.375 14.0625 -18.375 C 13.195312 -18.375 12.394531 -18.195312 11.65625 -17.84375 C 10.914062 -17.5 10.257812 -17.035156 9.6875 -16.453125 C 9.113281 -15.867188 8.664062 -15.171875 8.34375 -14.359375 C 8.03125 -13.554688 7.875 -12.710938 7.875 -11.828125 C 7.875 -10.910156 8.03125 -10.054688 8.34375 -9.265625 C 8.664062 -8.472656 9.113281 -7.78125 9.6875 -7.1875 C 10.257812 -6.601562 10.914062 -6.132812 11.65625 -5.78125 C 12.394531 -5.4375 13.195312 -5.265625 14.0625 -5.265625 C 15.769531 -5.265625 17.21875 -5.796875 18.40625 -6.859375 C 19.59375 -7.921875 20.203125 -9.546875 20.234375 -11.734375 Z M 20.234375 -11.734375 "/></g></g></g><g fill="#000000" fill-opacity="1"><g transform="translate(287.760032, 93.10452)"><g><path d="M 15.765625 -24.21875 C 17.410156 -24.21875 18.941406 -23.890625 20.359375 -23.234375 C 21.785156 -22.585938 23.019531 -21.703125 24.0625 -20.578125 C 25.113281 -19.460938 25.929688 -18.148438 26.515625 -16.640625 C 27.109375 -15.140625 27.40625 -13.535156 27.40625 -11.828125 C 27.40625 -10.117188 27.109375 -8.507812 26.515625 -7 C 25.929688 -5.5 25.113281 -4.1875 24.0625 -3.0625 C 23.019531 -1.9375 21.785156 -1.050781 20.359375 -0.40625 C 18.941406 0.238281 17.410156 0.5625 15.765625 0.5625 C 14.367188 0.5625 13.03125 0.316406 11.75 -0.171875 C 10.46875 -0.660156 9.460938 -1.285156 8.734375 -2.046875 L 7.78125 0 L 2.1875 0 L 2.1875 -34.65625 L 8.734375 -34.65625 L 8.734375 -21.65625 C 10.535156 -23.363281 12.878906 -24.21875 15.765625 -24.21875 Z M 14.859375 -5.265625 C 15.710938 -5.265625 16.507812 -5.4375 17.25 -5.78125 C 18 -6.132812 18.65625 -6.601562 19.21875 -7.1875 C 19.789062 -7.78125 20.234375 -8.472656 20.546875 -9.265625 C 20.867188 -10.054688 21.03125 -10.910156 21.03125 -11.828125 C 21.03125 -12.710938 20.867188 -13.554688 20.546875 -14.359375 C 20.234375 -15.171875 19.789062 -15.867188 19.21875 -16.453125 C 18.65625 -17.035156 18 -17.5 17.25 -17.84375 C 16.507812 -18.195312 15.710938 -18.375 14.859375 -18.375 C 14.003906 -18.375 13.203125 -18.253906 12.453125 -18.015625 C 11.710938 -17.785156 11.066406 -17.40625 10.515625 -16.875 C 9.960938 -16.351562 9.523438 -15.671875 9.203125 -14.828125 C 8.890625 -13.992188 8.734375 -12.960938 8.734375 -11.734375 C 8.734375 -10.617188 8.890625 -9.65625 9.203125 -8.84375 C 9.523438 -8.039062 9.960938 -7.378906 10.515625 -6.859375 C 11.066406 -6.335938 11.710938 -5.941406 12.453125 -5.671875 C 13.203125 -5.398438 14.003906 -5.265625 14.859375 -5.265625 Z M 14.859375 -5.265625 "/></g></g></g><g fill="#000000" fill-opacity="1"><g transform="translate(314.871648, 93.10452)"><g><path d="M 9.265625 0 L 2.703125 0 L 2.703125 -23.546875 L 9.265625 -23.546875 Z M 5.984375 -26.78125 C 4.972656 -26.78125 4.117188 -27.128906 3.421875 -27.828125 C 2.722656 -28.523438 2.375 -29.378906 2.375 -30.390625 C 2.375 -31.398438 2.722656 -32.257812 3.421875 -32.96875 C 4.117188 -33.6875 4.972656 -34.046875 5.984375 -34.046875 C 6.992188 -34.046875 7.847656 -33.6875 8.546875 -32.96875 C 9.242188 -32.257812 9.59375 -31.398438 9.59375 -30.390625 C 9.59375 -29.378906 9.242188 -28.523438 8.546875 -27.828125 C 7.847656 -27.128906 6.992188 -26.78125 5.984375 -26.78125 Z M 5.984375 -26.78125 "/></g></g></g><g fill="#000000" fill-opacity="1"><g transform="translate(325.934619, 93.10452)"><g><path d="M 10.828125 -8.453125 C 10.828125 -7.347656 11.164062 -6.492188 11.84375 -5.890625 C 12.53125 -5.285156 13.425781 -4.984375 14.53125 -4.984375 C 15.414062 -4.984375 16.300781 -5.160156 17.1875 -5.515625 L 17.1875 0 C 16.394531 0.25 15.554688 0.460938 14.671875 0.640625 C 13.785156 0.816406 12.898438 0.90625 12.015625 0.90625 C 11.003906 0.90625 10.035156 0.773438 9.109375 0.515625 C 8.191406 0.265625 7.367188 -0.164062 6.640625 -0.78125 C 5.921875 -1.394531 5.347656 -2.21875 4.921875 -3.25 C 4.492188 -4.28125 4.28125 -5.554688 4.28125 -7.078125 L 4.28125 -17.71875 L 0.90625 -17.71875 L 0.90625 -22.125 L 4.28125 -23.546875 L 4.28125 -28.828125 L 10.828125 -28.828125 L 10.828125 -23.546875 L 17.1875 -23.546875 L 17.1875 -17.71875 L 10.828125 -17.71875 Z M 10.828125 -8.453125 "/></g></g></g><g fill="#000000" fill-opacity="1"><g transform="translate(343.170146, 93.10452)"><g><path d="M 17.09375 -12.34375 C 18.832031 -11.113281 19.703125 -9.359375 19.703125 -7.078125 C 19.703125 -6.035156 19.457031 -5.050781 18.96875 -4.125 C 18.476562 -3.207031 17.804688 -2.398438 16.953125 -1.703125 C 16.097656 -1.015625 15.097656 -0.472656 13.953125 -0.078125 C 12.816406 0.316406 11.597656 0.515625 10.296875 0.515625 C 9.316406 0.515625 8.359375 0.390625 7.421875 0.140625 C 6.492188 -0.109375 5.632812 -0.453125 4.84375 -0.890625 C 4.050781 -1.335938 3.363281 -1.867188 2.78125 -2.484375 C 2.195312 -3.109375 1.757812 -3.800781 1.46875 -4.5625 C 2.195312 -4.90625 3.003906 -5.289062 3.890625 -5.71875 C 4.773438 -6.144531 5.550781 -6.535156 6.21875 -6.890625 C 6.5 -6.410156 6.941406 -5.972656 7.546875 -5.578125 C 8.148438 -5.179688 8.972656 -4.984375 10.015625 -4.984375 C 11.097656 -4.984375 11.890625 -5.234375 12.390625 -5.734375 C 12.898438 -6.242188 13.15625 -6.722656 13.15625 -7.171875 C 13.15625 -7.484375 12.976562 -7.773438 12.625 -8.046875 C 12.28125 -8.316406 11.882812 -8.53125 11.4375 -8.6875 C 10.8125 -8.9375 10.289062 -9.066406 9.875 -9.078125 C 9.46875 -9.097656 8.992188 -9.191406 8.453125 -9.359375 C 6.742188 -9.765625 5.4375 -10.304688 4.53125 -10.984375 C 3.632812 -11.671875 2.976562 -12.363281 2.5625 -13.0625 C 2.15625 -13.757812 1.925781 -14.421875 1.875 -15.046875 C 1.820312 -15.679688 1.796875 -16.191406 1.796875 -16.578125 C 1.796875 -17.585938 2.019531 -18.550781 2.46875 -19.46875 C 2.914062 -20.382812 3.523438 -21.179688 4.296875 -21.859375 C 5.066406 -22.546875 5.96875 -23.09375 7 -23.5 C 8.03125 -23.914062 9.128906 -24.125 10.296875 -24.125 C 11.285156 -24.125 12.222656 -23.976562 13.109375 -23.6875 C 13.992188 -23.40625 14.800781 -23.007812 15.53125 -22.5 C 16.257812 -22 16.882812 -21.398438 17.40625 -20.703125 C 17.925781 -20.003906 18.3125 -19.226562 18.5625 -18.375 L 13.484375 -16.671875 C 13.296875 -17.234375 12.90625 -17.6875 12.3125 -18.03125 C 11.726562 -18.382812 11.109375 -18.5625 10.453125 -18.5625 C 9.785156 -18.5625 9.242188 -18.335938 8.828125 -17.890625 C 8.421875 -17.453125 8.21875 -17.015625 8.21875 -16.578125 C 8.21875 -16.035156 8.414062 -15.613281 8.8125 -15.3125 C 9.207031 -15.007812 9.640625 -14.796875 10.109375 -14.671875 C 10.460938 -14.609375 10.804688 -14.550781 11.140625 -14.5 C 11.472656 -14.457031 11.796875 -14.40625 12.109375 -14.34375 C 13.210938 -14.082031 14.164062 -13.796875 14.96875 -13.484375 C 15.78125 -13.171875 16.488281 -12.789062 17.09375 -12.34375 Z M 17.09375 -12.34375 "/></g></g></g></svg>