<svg xmlns="http://www.w3.org/2000/svg" xmlns:xlink="http://www.w3.org/1999/xlink" width="1920" zoomAndPan="magnify" viewBox="0 0 1440 809.999993" height="1080" preserveAspectRatio="xMidYMid meet" version="1.0"><defs><clipPath id="815beaf401"><path d="M 24.054688 545 L 175 545 L 175 810 L 24.054688 810 Z M 24.054688 545 " clip-rule="nonzero"/></clipPath><clipPath id="41711b2f77"><path d="M 1221 466 L 1439.882812 466 L 1439.882812 810 L 1221 810 Z M 1221 466 " clip-rule="nonzero"/></clipPath><clipPath id="3e89acd058"><path d="M 503 0 L 755 0 L 755 119 L 503 119 Z M 503 0 " clip-rule="nonzero"/></clipPath><clipPath id="94086015c9"><path d="M 816.238281 185.53125 L 328.625 382.125 L 207.472656 81.632812 L 695.082031 -114.964844 Z M 816.238281 185.53125 " clip-rule="nonzero"/></clipPath><clipPath id="c3e6ab822c"><path d="M 816.238281 185.53125 L 328.625 382.125 L 207.472656 81.632812 L 695.082031 -114.964844 Z M 816.238281 185.53125 " clip-rule="nonzero"/></clipPath><clipPath id="783a973df3"><path d="M 251 0 L 444 0 L 444 251 L 251 251 Z M 251 0 " clip-rule="nonzero"/></clipPath><clipPath id="c1350ce7e1"><path d="M 816.238281 185.53125 L 328.625 382.125 L 207.472656 81.632812 L 695.082031 -114.964844 Z M 816.238281 185.53125 " clip-rule="nonzero"/></clipPath><clipPath id="39e9101e6a"><path d="M 816.238281 185.53125 L 328.625 382.125 L 207.472656 81.632812 L 695.082031 -114.964844 Z M 816.238281 185.53125 " clip-rule="nonzero"/></clipPath><clipPath id="ca2e9ce3c7"><path d="M 456 0 L 625 0 L 625 289 L 456 289 Z M 456 0 " clip-rule="nonzero"/></clipPath><clipPath id="f448c0ccbf"><path d="M 816.238281 185.53125 L 328.625 382.125 L 207.472656 81.632812 L 695.082031 -114.964844 Z M 816.238281 185.53125 " clip-rule="nonzero"/></clipPath><clipPath id="a8332401ed"><path d="M 816.238281 185.53125 L 328.625 382.125 L 207.472656 81.632812 L 695.082031 -114.964844 Z M 816.238281 185.53125 " clip-rule="nonzero"/></clipPath><clipPath id="8ed6ba2cda"><path d="M 446 273 L 462 273 L 462 289 L 446 289 Z M 446 273 " clip-rule="nonzero"/></clipPath><clipPath id="6343e4f83b"><path d="M 816.238281 185.53125 L 328.625 382.125 L 207.472656 81.632812 L 695.082031 -114.964844 Z M 816.238281 185.53125 " clip-rule="nonzero"/></clipPath><clipPath id="169268738f"><path d="M 816.238281 185.53125 L 328.625 382.125 L 207.472656 81.632812 L 695.082031 -114.964844 Z M 816.238281 185.53125 " clip-rule="nonzero"/></clipPath><clipPath id="52f5b39650"><path d="M 409 267 L 425 267 L 425 283 L 409 283 Z M 409 267 " clip-rule="nonzero"/></clipPath><clipPath id="38d83a5e44"><path d="M 816.238281 185.53125 L 328.625 382.125 L 207.472656 81.632812 L 695.082031 -114.964844 Z M 816.238281 185.53125 " clip-rule="nonzero"/></clipPath><clipPath id="a3501cd6b1"><path d="M 816.238281 185.53125 L 328.625 382.125 L 207.472656 81.632812 L 695.082031 -114.964844 Z M 816.238281 185.53125 " clip-rule="nonzero"/></clipPath><clipPath id="cf26e15063"><path d="M 372 256 L 388 256 L 388 272 L 372 272 Z M 372 256 " clip-rule="nonzero"/></clipPath><clipPath id="4ec29e496a"><path d="M 816.238281 185.53125 L 328.625 382.125 L 207.472656 81.632812 L 695.082031 -114.964844 Z M 816.238281 185.53125 " clip-rule="nonzero"/></clipPath><clipPath id="81bf99b444"><path d="M 816.238281 185.53125 L 328.625 382.125 L 207.472656 81.632812 L 695.082031 -114.964844 Z M 816.238281 185.53125 " clip-rule="nonzero"/></clipPath><clipPath id="87e112ea21"><path d="M 405 232 L 421 232 L 421 248 L 405 248 Z M 405 232 " clip-rule="nonzero"/></clipPath><clipPath id="b6cb29fe53"><path d="M 816.238281 185.53125 L 328.625 382.125 L 207.472656 81.632812 L 695.082031 -114.964844 Z M 816.238281 185.53125 " clip-rule="nonzero"/></clipPath><clipPath id="377664e701"><path d="M 816.238281 185.53125 L 328.625 382.125 L 207.472656 81.632812 L 695.082031 -114.964844 Z M 816.238281 185.53125 " clip-rule="nonzero"/></clipPath><clipPath id="4631e08796"><path d="M 434 239 L 450 239 L 450 255 L 434 255 Z M 434 239 " clip-rule="nonzero"/></clipPath><clipPath id="c1b771cad2"><path d="M 816.238281 185.53125 L 328.625 382.125 L 207.472656 81.632812 L 695.082031 -114.964844 Z M 816.238281 185.53125 " clip-rule="nonzero"/></clipPath><clipPath id="a2858e2359"><path d="M 816.238281 185.53125 L 328.625 382.125 L 207.472656 81.632812 L 695.082031 -114.964844 Z M 816.238281 185.53125 " clip-rule="nonzero"/></clipPath><clipPath id="f83117f604"><path d="M 427 208 L 443 208 L 443 224 L 427 224 Z M 427 208 " clip-rule="nonzero"/></clipPath><clipPath id="63aedde98b"><path d="M 816.238281 185.53125 L 328.625 382.125 L 207.472656 81.632812 L 695.082031 -114.964844 Z M 816.238281 185.53125 " clip-rule="nonzero"/></clipPath><clipPath id="a1bacfed1e"><path d="M 816.238281 185.53125 L 328.625 382.125 L 207.472656 81.632812 L 695.082031 -114.964844 Z M 816.238281 185.53125 " clip-rule="nonzero"/></clipPath><clipPath id="2adfa39c27"><path d="M 640 192 L 656 192 L 656 208 L 640 208 Z M 640 192 " clip-rule="nonzero"/></clipPath><clipPath id="c2a5b13f16"><path d="M 816.238281 185.53125 L 328.625 382.125 L 207.472656 81.632812 L 695.082031 -114.964844 Z M 816.238281 185.53125 " clip-rule="nonzero"/></clipPath><clipPath id="04bcda0d95"><path d="M 816.238281 185.53125 L 328.625 382.125 L 207.472656 81.632812 L 695.082031 -114.964844 Z M 816.238281 185.53125 " clip-rule="nonzero"/></clipPath><clipPath id="48d1f86a63"><path d="M 666 159 L 682 159 L 682 175 L 666 175 Z M 666 159 " clip-rule="nonzero"/></clipPath><clipPath id="eedcaf9a27"><path d="M 816.238281 185.53125 L 328.625 382.125 L 207.472656 81.632812 L 695.082031 -114.964844 Z M 816.238281 185.53125 " clip-rule="nonzero"/></clipPath><clipPath id="93b289a554"><path d="M 816.238281 185.53125 L 328.625 382.125 L 207.472656 81.632812 L 695.082031 -114.964844 Z M 816.238281 185.53125 " clip-rule="nonzero"/></clipPath><clipPath id="87de5e8358"><path d="M 686 128 L 702 128 L 702 144 L 686 144 Z M 686 128 " clip-rule="nonzero"/></clipPath><clipPath id="390bbed101"><path d="M 816.238281 185.53125 L 328.625 382.125 L 207.472656 81.632812 L 695.082031 -114.964844 Z M 816.238281 185.53125 " clip-rule="nonzero"/></clipPath><clipPath id="94f6cd22f4"><path d="M 816.238281 185.53125 L 328.625 382.125 L 207.472656 81.632812 L 695.082031 -114.964844 Z M 816.238281 185.53125 " clip-rule="nonzero"/></clipPath><clipPath id="388164d927"><path d="M 653 132 L 670 132 L 670 148 L 653 148 Z M 653 132 " clip-rule="nonzero"/></clipPath><clipPath id="13c803f3f5"><path d="M 816.238281 185.53125 L 328.625 382.125 L 207.472656 81.632812 L 695.082031 -114.964844 Z M 816.238281 185.53125 " clip-rule="nonzero"/></clipPath><clipPath id="6289152c11"><path d="M 816.238281 185.53125 L 328.625 382.125 L 207.472656 81.632812 L 695.082031 -114.964844 Z M 816.238281 185.53125 " clip-rule="nonzero"/></clipPath><clipPath id="1d1198fd20"><path d="M 633 161 L 649 161 L 649 177 L 633 177 Z M 633 161 " clip-rule="nonzero"/></clipPath><clipPath id="c1ef520a37"><path d="M 816.238281 185.53125 L 328.625 382.125 L 207.472656 81.632812 L 695.082031 -114.964844 Z M 816.238281 185.53125 " clip-rule="nonzero"/></clipPath><clipPath id="d7263b5c0f"><path d="M 816.238281 185.53125 L 328.625 382.125 L 207.472656 81.632812 L 695.082031 -114.964844 Z M 816.238281 185.53125 " clip-rule="nonzero"/></clipPath><clipPath id="27bbc2592a"><path d="M 621 134 L 637 134 L 637 150 L 621 150 Z M 621 134 " clip-rule="nonzero"/></clipPath><clipPath id="ea965864d1"><path d="M 816.238281 185.53125 L 328.625 382.125 L 207.472656 81.632812 L 695.082031 -114.964844 Z M 816.238281 185.53125 " clip-rule="nonzero"/></clipPath><clipPath id="76949eb00b"><path d="M 816.238281 185.53125 L 328.625 382.125 L 207.472656 81.632812 L 695.082031 -114.964844 Z M 816.238281 185.53125 " clip-rule="nonzero"/></clipPath></defs><rect x="-144" width="1728" fill="#ffffff" y="-80.999999" height="971.999992" fill-opacity="1"/><rect x="-144" width="1728" fill="#ffffff" y="-80.999999" height="971.999992" fill-opacity="1"/><rect x="-144" width="1728" fill="#f5f3f0" y="-80.999999" height="971.999992" fill-opacity="1"/><path fill="#cdccc7" d="M 388.363281 529.757812 C 387.914062 529.109375 387.410156 528.5 386.859375 527.929688 C 386.308594 527.363281 385.714844 526.839844 385.082031 526.367188 C 384.445312 525.894531 383.777344 525.476562 383.074219 525.113281 C 382.371094 524.746094 381.640625 524.441406 380.890625 524.195312 C 380.136719 523.949219 379.367188 523.765625 378.585938 523.640625 C 377.804688 523.519531 377.015625 523.460938 376.226562 523.464844 C 375.433594 523.472656 374.644531 523.539062 373.867188 523.671875 C 373.085938 523.804688 372.320312 524 371.570312 524.257812 C 366.246094 526.113281 361.871094 531.476562 362.039062 537.246094 C 361.914062 538.472656 361.96875 539.691406 362.207031 540.902344 C 361.167969 541.957031 360.070312 542.945312 358.914062 543.863281 C 352.800781 549.179688 346.734375 554.542969 340.855469 560.105469 C 322.414062 577.667969 305.203125 596.714844 290.859375 617.804688 C 267.484375 652.152344 250.039062 690.292969 237.15625 729.71875 C 227.75 759.957031 221.003906 791.101562 218.277344 822.683594 C 217.902344 826.734375 217.496094 830.792969 217.289062 834.863281 C 217.289062 836.730469 216.738281 838.816406 217.792969 840.453125 C 220.441406 846.066406 229.242188 843.644531 228.660156 837.390625 C 229.175781 827.613281 231.464844 804.488281 234.28125 789.679688 C 238.847656 764.984375 244.8125 741.671875 252.0625 721.519531 C 263.582031 689.710938 277.75 658.683594 296.332031 630.332031 C 301.5 621.648438 318.738281 599.15625 329.921875 587.585938 C 341.691406 574.863281 354.183594 562.894531 367.402344 551.679688 C 367.902344 551.179688 368.433594 550.71875 368.992188 550.285156 C 369.890625 550.839844 370.84375 551.285156 371.84375 551.625 C 372.84375 551.964844 373.867188 552.191406 374.917969 552.300781 C 375.96875 552.410156 377.019531 552.402344 378.066406 552.277344 C 379.117188 552.152344 380.136719 551.914062 381.132812 551.558594 C 381.65625 551.378906 382.164062 551.167969 382.664062 550.925781 C 383.160156 550.6875 383.644531 550.417969 384.113281 550.121094 C 384.578125 549.824219 385.027344 549.503906 385.457031 549.15625 C 385.890625 548.808594 386.296875 548.441406 386.6875 548.046875 C 387.074219 547.652344 387.4375 547.238281 387.777344 546.800781 C 388.121094 546.363281 388.433594 545.910156 388.722656 545.4375 C 389.011719 544.96875 389.273438 544.480469 389.503906 543.980469 C 389.738281 543.476562 389.941406 542.964844 390.117188 542.441406 C 390.289062 541.914062 390.433594 541.382812 390.546875 540.839844 C 390.660156 540.296875 390.742188 539.753906 390.792969 539.203125 C 390.84375 538.652344 390.863281 538.097656 390.847656 537.546875 C 390.835938 536.992188 390.792969 536.441406 390.714844 535.894531 C 390.640625 535.347656 390.535156 534.804688 390.394531 534.269531 C 390.257812 533.734375 390.089844 533.207031 389.894531 532.691406 C 389.695312 532.175781 389.46875 531.671875 389.214844 531.183594 C 388.957031 530.691406 388.675781 530.21875 388.363281 529.757812 Z M 388.363281 529.757812 " fill-opacity="1" fill-rule="nonzero"/><path fill="#cdccc7" d="M 358.332031 600.261719 C 354.964844 595.570312 348.109375 593.058594 343.050781 591.617188 C 329.988281 587.261719 341.933594 610.386719 350.46875 613.25 C 358.855469 615.898438 364.050781 605.941406 358.332031 600.261719 Z M 358.332031 600.261719 " fill-opacity="1" fill-rule="nonzero"/><path fill="#cdccc7" d="M 331.34375 632.976562 C 327.984375 628.246094 321.117188 625.777344 316.070312 624.316406 C 303.011719 619.957031 314.953125 643.082031 323.488281 645.957031 C 331.90625 648.617188 337.0625 638.660156 331.34375 632.976562 Z M 331.34375 632.976562 " fill-opacity="1" fill-rule="nonzero"/><path fill="#cdccc7" d="M 308.699219 665.4375 C 304.355469 661.605469 297.101562 660.757812 291.855469 660.5 C 278.15625 659.226562 295.039062 679.0625 303.996094 679.890625 C 312.800781 680.523438 315.554688 669.65625 308.699219 665.4375 Z M 308.699219 665.4375 " fill-opacity="1" fill-rule="nonzero"/><path fill="#cdccc7" d="M 291.371094 705.722656 C 286.480469 702.589844 279.191406 702.867188 273.964844 703.402344 C 260.222656 704.242188 279.953125 721.242188 288.941406 720.6875 C 297.746094 720.035156 298.792969 708.855469 291.371094 705.722656 Z M 291.371094 705.722656 " fill-opacity="1" fill-rule="nonzero"/><path fill="#cdccc7" d="M 277.957031 747.933594 C 273.015625 744.800781 265.777344 745.078125 260.550781 745.613281 C 246.808594 746.453125 266.546875 763.453125 275.527344 762.898438 C 284.328125 762.226562 285.386719 751.066406 277.957031 747.933594 Z M 277.957031 747.933594 " fill-opacity="1" fill-rule="nonzero"/><path fill="#cdccc7" d="M 266.179688 788.910156 C 261.015625 786.261719 253.792969 787.230469 248.636719 788.246094 C 235.03125 790.390625 256.292969 805.445312 265.183594 804.050781 C 273.898438 802.542969 273.898438 791.328125 266.179688 788.910156 Z M 266.179688 788.910156 " fill-opacity="1" fill-rule="nonzero"/><path fill="#cdccc7" d="M 382.882812 574.625 C 379.511719 569.886719 372.6875 567.425781 367.597656 565.933594 C 354.539062 561.578125 366.484375 584.703125 375.019531 587.566406 C 383.433594 590.265625 388.59375 580.304688 382.882812 574.625 Z M 382.882812 574.625 " fill-opacity="1" fill-rule="nonzero"/><path fill="#cdccc7" d="M 199.46875 742.015625 C 204.773438 744.378906 211.933594 743.003906 217.023438 741.71875 C 230.488281 738.835938 208.449219 724.925781 199.644531 726.84375 C 191.042969 728.820312 191.652344 740.019531 199.46875 742.015625 Z M 199.46875 742.015625 " fill-opacity="1" fill-rule="nonzero"/><path fill="#cdccc7" d="M 217.121094 690.3125 C 221.667969 693.917969 228.976562 694.390625 234.203125 694.402344 C 247.953125 694.976562 230.074219 676.039062 221.082031 675.632812 C 212.25 675.4375 210.058594 686.449219 217.121094 690.3125 Z M 217.121094 690.3125 " fill-opacity="1" fill-rule="nonzero"/><path fill="#cdccc7" d="M 240.308594 645.949219 C 245.03125 649.316406 252.320312 649.414062 257.566406 649.160156 C 271.335938 649.019531 252.5 631.03125 243.5 631.121094 C 234.675781 631.347656 233.046875 642.441406 240.308594 645.949219 Z M 240.308594 645.949219 " fill-opacity="1" fill-rule="nonzero"/><path fill="#cdccc7" d="M 262.949219 605.734375 C 267.4375 609.429688 274.707031 610.019531 279.960938 610.121094 C 293.703125 610.917969 276.140625 591.6875 267.121094 591.164062 C 258.328125 590.777344 255.957031 601.742188 262.949219 605.734375 Z M 262.949219 605.734375 " fill-opacity="1" fill-rule="nonzero"/><path fill="#cdccc7" d="M 293.425781 565.042969 C 297.160156 569.488281 304.195312 571.40625 309.351562 572.472656 C 322.707031 575.78125 308.96875 553.644531 300.234375 551.480469 C 291.679688 549.496094 287.28125 559.828125 293.425781 565.042969 Z M 293.425781 565.042969 " fill-opacity="1" fill-rule="nonzero"/><path fill="#cdccc7" d="M 321.316406 538.433594 C 324.625 543.203125 331.460938 545.742188 336.5 547.324219 C 349.511719 551.816406 337.824219 528.554688 329.316406 525.589844 C 320.910156 522.785156 315.644531 532.691406 321.316406 538.433594 Z M 321.316406 538.433594 " fill-opacity="1" fill-rule="nonzero"/><path fill="#cdccc7" d="M 190.972656 787.277344 C 196.425781 789.253906 203.480469 787.398438 208.46875 785.738281 C 221.695312 781.914062 198.726562 769.636719 190.074219 772.136719 C 181.636719 774.714844 183.007812 785.835938 190.972656 787.277344 Z M 190.972656 787.277344 " fill-opacity="1" fill-rule="nonzero"/><g clip-path="url(#815beaf401)"><path fill="#cdccc7" d="M 174.335938 819.175781 C 166.195312 797.445312 161.027344 774.675781 153.046875 752.832031 C 144.054688 727.910156 132.675781 703.925781 121.375 679.980469 C 102.605469 640 81.925781 600.015625 52.222656 567.039062 C 52.8125 565.878906 53.246094 564.660156 53.511719 563.382812 C 53.78125 562.105469 53.875 560.816406 53.800781 559.511719 C 53.722656 558.210938 53.476562 556.941406 53.0625 555.703125 C 52.648438 554.46875 52.078125 553.308594 51.351562 552.222656 C 50.898438 551.570312 50.398438 550.960938 49.847656 550.394531 C 49.296875 549.824219 48.703125 549.300781 48.066406 548.828125 C 47.433594 548.355469 46.765625 547.9375 46.0625 547.574219 C 45.355469 547.207031 44.628906 546.902344 43.875 546.65625 C 43.125 546.410156 42.355469 546.226562 41.574219 546.101562 C 40.792969 545.980469 40.003906 545.921875 39.210938 545.929688 C 38.417969 545.933594 37.632812 546.003906 36.851562 546.136719 C 36.070312 546.269531 35.304688 546.464844 34.558594 546.71875 C 29.210938 548.585938 24.847656 553.949219 25.003906 559.71875 C 24.015625 569.550781 34.539062 577.253906 43.773438 574.171875 C 48.972656 579.871094 51.519531 582.863281 57.515625 590.53125 C 76.769531 616.085938 92.121094 644.347656 105.953125 673.164062 C 111.445312 684.535156 124.050781 711.136719 131.242188 727.9375 C 141.695312 751.488281 149.46875 776.097656 156.453125 800.871094 C 158.171875 806.71875 160.1875 812.480469 162.273438 818.207031 C 163.390625 820.925781 163.667969 824.460938 166.609375 825.855469 C 170.828125 828.007812 175.917969 823.761719 174.335938 819.175781 Z M 174.335938 819.175781 " fill-opacity="1" fill-rule="nonzero"/></g><path fill="#cdccc7" d="M 160.121094 679.8125 C 156.859375 672.382812 147.277344 675.671875 144.085938 682.527344 C 141.46875 689.316406 138.445312 701.148438 146.152344 699.144531 C 153.933594 696.644531 162.558594 688.664062 160.121094 679.8125 Z M 160.121094 679.8125 " fill-opacity="1" fill-rule="nonzero"/><path fill="#cdccc7" d="M 174.890625 717.980469 C 171.628906 710.542969 162.046875 713.832031 158.855469 720.6875 C 156.238281 727.476562 153.214844 739.308594 160.917969 737.304688 C 168.703125 734.855469 177.328125 726.832031 174.890625 717.980469 Z M 174.890625 717.980469 " fill-opacity="1" fill-rule="nonzero"/><path fill="#cdccc7" d="M 141.515625 641.007812 C 137.210938 634.09375 128.199219 638.796875 126.058594 646.039062 C 124.464844 653.140625 123.203125 665.289062 130.53125 662.179688 C 137.84375 658.535156 145.210938 649.375 141.515625 641.007812 Z M 141.515625 641.007812 " fill-opacity="1" fill-rule="nonzero"/><path fill="#cdccc7" d="M 122.648438 606.703125 C 118.339844 599.785156 109.332031 604.488281 107.1875 611.738281 C 105.597656 618.832031 104.332031 630.984375 111.664062 627.871094 C 119.003906 624.214844 126.371094 615.097656 122.648438 606.703125 Z M 122.648438 606.703125 " fill-opacity="1" fill-rule="nonzero"/><path fill="#cdccc7" d="M 101.339844 573.027344 C 97.03125 566.113281 88.023438 570.8125 85.878906 578.0625 C 84.289062 585.15625 83.023438 597.308594 90.355469 594.195312 C 97.695312 590.628906 105.0625 581.421875 101.339844 573.027344 Z M 101.339844 573.027344 " fill-opacity="1" fill-rule="nonzero"/><path fill="#cdccc7" d="M 32.652344 612.570312 C 29.339844 605.160156 38.230469 600.28125 45.492188 602.53125 C 52.269531 605.160156 63.066406 610.890625 56.359375 615.238281 C 49.265625 619.277344 37.550781 620.332031 32.652344 612.570312 Z M 32.652344 612.570312 " fill-opacity="1" fill-rule="nonzero"/><path fill="#cdccc7" d="M 49.453125 642.808594 C 46.136719 635.410156 55.035156 630.519531 62.238281 632.769531 C 69.023438 635.410156 79.824219 641.128906 73.105469 645.472656 C 66.0625 649.554688 54.355469 650.570312 49.453125 642.808594 Z M 49.453125 642.808594 " fill-opacity="1" fill-rule="nonzero"/><path fill="#cdccc7" d="M 70.09375 673.945312 C 66.773438 666.535156 75.671875 661.644531 82.886719 663.90625 C 89.664062 666.535156 100.460938 672.253906 93.753906 676.601562 C 86.707031 680.691406 74.992188 681.707031 70.09375 673.945312 Z M 70.09375 673.945312 " fill-opacity="1" fill-rule="nonzero"/><path fill="#cdccc7" d="M 84.742188 711.292969 C 81.433594 703.894531 90.324219 699.003906 97.585938 701.257812 C 104.363281 703.894531 115.171875 709.613281 108.453125 713.960938 C 101.359375 718.0625 89.652344 719.046875 84.742188 711.292969 Z M 84.742188 711.292969 " fill-opacity="1" fill-rule="nonzero"/><path fill="#cdccc7" d="M 98.375 750.117188 C 95.085938 742.757812 103.976562 737.816406 111.160156 740.078125 C 117.945312 742.707031 128.742188 748.425781 122.027344 752.785156 C 114.980469 756.863281 103.277344 757.878906 98.375 750.117188 Z M 98.375 750.117188 " fill-opacity="1" fill-rule="nonzero"/><path fill="#2d2b23" d="M 1293.707031 512.390625 C 1293.746094 512.292969 1293.785156 512.195312 1293.824219 512.097656 C 1294.011719 511.589844 1294.058594 511.351562 1293.332031 513.269531 C 1293.371094 513.179688 1293.410156 513.09375 1293.449219 513.003906 C 1293.535156 512.800781 1293.625 512.59375 1293.707031 512.390625 Z M 1293.707031 512.390625 " fill-opacity="1" fill-rule="nonzero"/><path fill="#e47f57" d="M 1113.9375 786.8125 C 1112.347656 780.21875 1109.367188 773.898438 1105.597656 768.410156 C 1098.777344 758.484375 1090.121094 750.769531 1080.605469 743.527344 C 1076.273438 740.234375 1071.855469 737.0625 1067.527344 733.765625 C 1061.921875 729.363281 1056.554688 724.644531 1052.035156 719.125 C 1049.84375 716.125 1047.972656 712.941406 1046.417969 709.566406 C 1044.632812 704.824219 1043.371094 699.945312 1042.636719 694.925781 C 1041.570312 685.734375 1041.695312 676.464844 1041.734375 667.222656 C 1041.773438 656.785156 1041.492188 646.445312 1039.867188 636.113281 C 1036.660156 615.699219 1025.558594 597.746094 1015.144531 580.300781 C 1009.652344 571.101562 1004.480469 561.777344 1000.195312 551.953125 C 993.386719 535.460938 988.828125 518.128906 986.304688 500.472656 C 983.921875 481.351562 983.773438 462.210938 985.863281 443.054688 L 985.449219 439.980469 C 985.105469 438.484375 984.414062 437.175781 983.378906 436.046875 C 981.902344 434.132812 979.789062 432.453125 977.367188 431.902344 C 972.308594 430.75 967.03125 432.675781 964.304688 437.214844 C 952.753906 456.433594 941.328125 475.859375 933.972656 497.144531 C 926.574219 518.542969 923.894531 542.457031 929.894531 564.535156 C 933.042969 576.113281 938.800781 586.761719 943.566406 597.722656 C 946.34375 604.441406 948.308594 611.386719 949.464844 618.5625 C 951.773438 638.46875 948.621094 658.539062 950.484375 678.472656 C 952.390625 698.917969 959.199219 718.425781 969.757812 736.015625 C 980.007812 753.089844 993.472656 768.195312 1008.378906 781.335938 C 1016.175781 788.207031 1024.390625 794.613281 1032.78125 800.734375 C 1041.214844 806.886719 1049.703125 812.648438 1059.390625 816.648438 C 1068.683594 820.488281 1079.382812 821.9375 1089.179688 819.191406 C 1092.117188 819.464844 1095.015625 819.234375 1097.875 818.503906 C 1103.449219 817.082031 1108.308594 813.601562 1111.613281 809.09375 C 1111.621094 809.089844 1111.628906 809.082031 1111.632812 809.074219 C 1112.953125 807.667969 1113.878906 806.035156 1114.414062 804.183594 C 1116.714844 798.738281 1116.902344 792.527344 1113.9375 786.8125 Z M 1113.9375 786.8125 " fill-opacity="1" fill-rule="nonzero"/><g clip-path="url(#41711b2f77)"><path fill="#e47f57" d="M 1439.539062 476.628906 C 1438.792969 471.078125 1433.96875 466.492188 1428.175781 466.597656 C 1405.675781 467.007812 1385.527344 479.148438 1371.042969 495.800781 C 1363.753906 504.164062 1357.605469 513.292969 1352.605469 523.195312 C 1347.113281 534.105469 1342.886719 545.664062 1338.894531 557.1875 C 1334.769531 569.09375 1330.902344 581.101562 1326.09375 592.757812 C 1321.378906 603.664062 1315.640625 613.976562 1308.496094 623.472656 C 1297.917969 636.875 1285.417969 648.574219 1273.167969 660.414062 C 1270.089844 663.382812 1267.027344 666.378906 1264.007812 669.414062 C 1260.820312 671.980469 1257.699219 674.628906 1254.6875 677.40625 C 1241.488281 689.59375 1231.371094 704.542969 1226.066406 721.777344 C 1225.707031 722.949219 1225.371094 724.128906 1225.058594 725.316406 C 1224.632812 726.507812 1224.226562 727.703125 1223.839844 728.90625 C 1223.449219 730.15625 1223.308594 731.4375 1223.421875 732.746094 C 1222.503906 737.890625 1222 743.078125 1221.90625 748.308594 C 1221.757812 756.914062 1222.75 765.847656 1225.199219 774.113281 C 1230.019531 790.375 1241.226562 806.527344 1258.539062 810.828125 C 1278.582031 815.804688 1297.980469 804.28125 1310.941406 789.800781 C 1317.121094 782.898438 1322.425781 775.234375 1327.46875 767.484375 C 1332.167969 760.261719 1336.816406 753 1341.40625 745.707031 C 1360.316406 715.757812 1378.1875 684.910156 1390.3125 651.507812 C 1396.445312 634.644531 1400.625 617.308594 1402.847656 599.503906 C 1405.140625 581.183594 1403.792969 562.804688 1404.566406 544.417969 C 1404.742188 540.296875 1405.046875 536.1875 1405.539062 532.09375 C 1406.507812 525.410156 1408.214844 518.921875 1410.660156 512.625 C 1412.585938 508.285156 1414.9375 504.191406 1417.714844 500.339844 C 1419.824219 497.753906 1422.160156 495.394531 1424.71875 493.253906 C 1427.355469 491.359375 1430.164062 489.777344 1433.148438 488.503906 L 1432.808594 488.648438 C 1434.992188 487.621094 1436.972656 486.257812 1438.164062 484.003906 C 1438.785156 482.878906 1439.210938 481.6875 1439.445312 480.425781 C 1439.683594 479.164062 1439.710938 477.898438 1439.539062 476.628906 Z M 1247.171875 732.859375 C 1247.023438 733.28125 1246.882812 733.703125 1246.742188 734.128906 C 1246.953125 733.207031 1247.175781 732.289062 1247.417969 731.375 C 1247.761719 730.4375 1248.121094 729.5 1248.496094 728.574219 C 1248.96875 727.511719 1249.460938 726.460938 1249.96875 725.417969 C 1248.972656 727.871094 1248.039062 730.351562 1247.171875 732.859375 Z M 1247.171875 732.859375 " fill-opacity="1" fill-rule="nonzero"/></g><path fill="#e47f57" d="M 1269.363281 553.867188 C 1269.398438 553.820312 1269.4375 553.773438 1269.472656 553.730469 C 1269.628906 553.527344 1269.785156 553.324219 1269.945312 553.117188 C 1269.996094 553.050781 1270.050781 552.980469 1270.101562 552.910156 C 1268.703125 554.558594 1268.976562 554.316406 1269.363281 553.867188 Z M 1269.363281 553.867188 " fill-opacity="1" fill-rule="nonzero"/><path fill="#e47f57" d="M 1205.75 581.363281 C 1202.492188 534.414062 1191.425781 488.820312 1178.910156 443.601562 C 1177.417969 438.207031 1175.914062 432.8125 1174.402344 427.417969 C 1172.773438 421.59375 1166.132812 417.410156 1160.171875 419.339844 C 1153.890625 421.371094 1150.769531 427.210938 1152.089844 433.566406 C 1153.054688 438.214844 1153.871094 442.890625 1154.542969 447.589844 C 1157.832031 473.550781 1156.75 499.832031 1153.390625 525.734375 C 1148.34375 562.261719 1138.914062 597.957031 1130.78125 633.867188 C 1126.671875 652.015625 1122.804688 670.269531 1120.195312 688.703125 C 1117.421875 708.320312 1116.15625 728.097656 1120.417969 747.621094 C 1124.125 764.597656 1132.464844 781.472656 1145.484375 793.261719 C 1146.738281 795.132812 1148.214844 796.804688 1149.921875 798.277344 C 1154.941406 802.546875 1160.953125 804.984375 1167.597656 805.019531 C 1179.074219 805.082031 1189.507812 798.460938 1195.945312 789.289062 C 1202.539062 779.894531 1203.925781 767.609375 1204.382812 756.46875 C 1204.863281 744.777344 1205.003906 733.066406 1205.300781 721.371094 C 1205.894531 697.960938 1206.601562 674.550781 1207.007812 651.140625 C 1207.410156 627.878906 1207.363281 604.582031 1205.75 581.363281 Z M 1205.75 581.363281 " fill-opacity="1" fill-rule="nonzero"/><path fill="#2d2b23" d="M 969.113281 512.898438 C 968.867188 507.425781 964.671875 502.792969 959.007812 502.792969 C 953.722656 502.792969 948.65625 507.441406 948.902344 512.898438 C 949.148438 518.371094 953.34375 523 959.007812 523 C 964.292969 523 969.359375 518.355469 969.113281 512.898438 Z M 969.113281 512.898438 " fill-opacity="1" fill-rule="nonzero"/><path fill="#2d2b23" d="M 976.71875 560.691406 C 976.472656 555.214844 972.277344 550.585938 966.613281 550.585938 C 961.328125 550.585938 956.261719 555.234375 956.507812 560.691406 C 956.75 566.164062 960.945312 570.792969 966.613281 570.792969 C 971.898438 570.792969 976.964844 566.144531 976.71875 560.691406 Z M 976.71875 560.691406 " fill-opacity="1" fill-rule="nonzero"/><path fill="#2d2b23" d="M 994.375 604.679688 C 994.128906 599.207031 989.933594 594.578125 984.265625 594.578125 C 978.980469 594.578125 973.917969 599.222656 974.160156 604.679688 C 974.40625 610.152344 978.601562 614.785156 984.265625 614.785156 C 989.554688 614.785156 994.617188 610.136719 994.375 604.679688 Z M 994.375 604.679688 " fill-opacity="1" fill-rule="nonzero"/><path fill="#2d2b23" d="M 1006.597656 650.300781 C 1006.351562 644.824219 1002.15625 640.195312 996.488281 640.195312 C 991.203125 640.195312 986.140625 644.84375 986.382812 650.300781 C 986.628906 655.773438 990.824219 660.402344 996.488281 660.402344 C 1001.777344 660.402344 1006.839844 655.753906 1006.597656 650.300781 Z M 1006.597656 650.300781 " fill-opacity="1" fill-rule="nonzero"/><path fill="#2d2b23" d="M 1008.226562 701.621094 C 1007.980469 696.148438 1003.785156 691.515625 998.121094 691.515625 C 992.832031 691.515625 987.769531 696.164062 988.011719 701.621094 C 988.257812 707.09375 992.453125 711.726562 998.121094 711.726562 C 1003.40625 711.726562 1008.46875 707.078125 1008.226562 701.621094 Z M 1008.226562 701.621094 " fill-opacity="1" fill-rule="nonzero"/><path fill="#2d2b23" d="M 1033.484375 737.464844 C 1033.242188 731.992188 1029.046875 727.359375 1023.378906 727.359375 C 1018.09375 727.359375 1013.027344 732.007812 1013.273438 737.464844 C 1013.519531 742.9375 1017.714844 747.570312 1023.378906 747.570312 C 1028.664062 747.570312 1033.730469 742.921875 1033.484375 737.464844 Z M 1033.484375 737.464844 " fill-opacity="1" fill-rule="nonzero"/><path fill="#2d2b23" d="M 1066.894531 769.234375 C 1066.648438 763.761719 1062.453125 759.132812 1056.789062 759.132812 C 1051.5 759.132812 1046.4375 763.777344 1046.679688 769.234375 C 1046.925781 774.710938 1051.121094 779.339844 1056.789062 779.339844 C 1062.074219 779.339844 1067.136719 774.691406 1066.894531 769.234375 Z M 1066.894531 769.234375 " fill-opacity="1" fill-rule="nonzero"/><path fill="#2d2b23" d="M 1175.265625 751.3125 C 1175.019531 745.839844 1170.824219 741.210938 1165.160156 741.210938 C 1159.875 741.210938 1154.808594 745.855469 1155.054688 751.3125 C 1155.300781 756.789062 1159.496094 761.417969 1165.160156 761.417969 C 1170.445312 761.417969 1175.511719 756.769531 1175.265625 751.3125 Z M 1175.265625 751.3125 " fill-opacity="1" fill-rule="nonzero"/><path fill="#2d2b23" d="M 1170.378906 704.066406 C 1170.132812 698.589844 1165.9375 693.960938 1160.269531 693.960938 C 1154.984375 693.960938 1149.921875 698.609375 1150.164062 704.066406 C 1150.410156 709.539062 1154.605469 714.167969 1160.269531 714.167969 C 1165.558594 714.167969 1170.621094 709.519531 1170.378906 704.066406 Z M 1170.378906 704.066406 " fill-opacity="1" fill-rule="nonzero"/><path fill="#2d2b23" d="M 1177.710938 649.484375 C 1177.464844 644.011719 1173.269531 639.382812 1167.605469 639.382812 C 1162.316406 639.382812 1157.253906 644.027344 1157.5 649.484375 C 1157.742188 654.957031 1161.9375 659.589844 1167.605469 659.589844 C 1172.890625 659.589844 1177.957031 654.941406 1177.710938 649.484375 Z M 1177.710938 649.484375 " fill-opacity="1" fill-rule="nonzero"/><path fill="#2d2b23" d="M 1180.96875 599.792969 C 1180.726562 594.316406 1176.53125 589.6875 1170.863281 589.6875 C 1165.578125 589.6875 1160.511719 594.335938 1160.757812 599.792969 C 1161.003906 605.265625 1165.199219 609.894531 1170.863281 609.894531 C 1176.148438 609.894531 1181.214844 605.25 1180.96875 599.792969 Z M 1180.96875 599.792969 " fill-opacity="1" fill-rule="nonzero"/><path fill="#2d2b23" d="M 1184.230469 546.839844 C 1183.984375 541.367188 1179.789062 536.738281 1174.125 536.738281 C 1168.835938 536.738281 1163.773438 541.382812 1164.015625 546.839844 C 1164.261719 552.316406 1168.457031 556.945312 1174.125 556.945312 C 1179.410156 556.945312 1184.472656 552.296875 1184.230469 546.839844 Z M 1184.230469 546.839844 " fill-opacity="1" fill-rule="nonzero"/><path fill="#2d2b23" d="M 1277.933594 757.832031 C 1277.691406 752.355469 1273.496094 747.726562 1267.828125 747.726562 C 1262.542969 747.726562 1257.476562 752.375 1257.722656 757.832031 C 1257.96875 763.304688 1262.164062 767.933594 1267.828125 767.933594 C 1273.113281 767.933594 1278.179688 763.289062 1277.933594 757.832031 Z M 1277.933594 757.832031 " fill-opacity="1" fill-rule="nonzero"/><path fill="#2d2b23" d="M 1299.121094 717.097656 C 1298.875 711.625 1294.679688 706.996094 1289.015625 706.996094 C 1283.726562 706.996094 1278.664062 711.644531 1278.910156 717.097656 C 1279.152344 722.574219 1283.347656 727.203125 1289.015625 727.203125 C 1294.300781 727.203125 1299.363281 722.554688 1299.121094 717.097656 Z M 1299.121094 717.097656 " fill-opacity="1" fill-rule="nonzero"/><path fill="#2d2b23" d="M 1330.898438 675.554688 C 1330.652344 670.078125 1326.457031 665.449219 1320.792969 665.449219 C 1315.507812 665.449219 1310.441406 670.097656 1310.6875 675.554688 C 1310.933594 681.027344 1315.128906 685.65625 1320.792969 685.65625 C 1326.078125 685.65625 1331.144531 681.007812 1330.898438 675.554688 Z M 1330.898438 675.554688 " fill-opacity="1" fill-rule="nonzero"/><path fill="#2d2b23" d="M 1334.28125 407.550781 C 1333.84375 406.617188 1333.148438 405.957031 1332.191406 405.574219 C 1330.9375 405.097656 1329.542969 405.328125 1328.226562 405.585938 C 1303.914062 410.378906 1281.527344 423.507812 1264.804688 441.703125 C 1256.308594 450.90625 1249.46875 461.214844 1244.292969 472.621094 C 1238.183594 486.175781 1237.9375 501.890625 1237.050781 516.570312 C 1235.101562 548.910156 1236.246094 581.390625 1233.160156 613.671875 C 1232.023438 625.546875 1230.308594 637.382812 1227.664062 649.023438 C 1226.90625 652.355469 1226.070312 655.808594 1226.785156 659.152344 C 1227.496094 662.496094 1230.285156 665.679688 1233.703125 665.582031 C 1236.421875 665.503906 1238.648438 663.484375 1240.523438 661.519531 C 1260.765625 640.304688 1271.460938 611.683594 1277.71875 583.042969 C 1283.980469 554.402344 1286.320312 525.011719 1292.644531 496.386719 C 1298.964844 467.757812 1309.792969 439.167969 1330.171875 418.089844 C 1331.929688 416.273438 1333.8125 414.417969 1334.585938 412.011719 C 1334.816406 411.277344 1334.910156 410.523438 1334.855469 409.753906 C 1334.804688 408.980469 1334.613281 408.246094 1334.28125 407.550781 Z M 1334.28125 407.550781 " fill-opacity="1" fill-rule="nonzero"/><path fill="#2d2b23" d="M 1358.488281 636.195312 C 1358.242188 630.722656 1354.046875 626.09375 1348.382812 626.09375 C 1343.09375 626.09375 1338.03125 630.738281 1338.273438 636.195312 C 1338.519531 641.667969 1342.714844 646.300781 1348.382812 646.300781 C 1353.667969 646.300781 1358.730469 641.652344 1358.488281 636.195312 Z M 1358.488281 636.195312 " fill-opacity="1" fill-rule="nonzero"/><path fill="#2d2b23" d="M 1374.085938 585.941406 C 1373.839844 580.46875 1369.644531 575.839844 1363.980469 575.839844 C 1358.691406 575.839844 1353.628906 580.488281 1353.871094 585.941406 C 1354.117188 591.417969 1358.3125 596.046875 1363.980469 596.046875 C 1369.265625 596.046875 1374.328125 591.398438 1374.085938 585.941406 Z M 1374.085938 585.941406 " fill-opacity="1" fill-rule="nonzero"/><path fill="#2d2b23" d="M 1384.679688 537.066406 C 1384.433594 531.589844 1380.238281 526.960938 1374.570312 526.960938 C 1369.285156 526.960938 1364.222656 531.609375 1364.464844 537.066406 C 1364.710938 542.539062 1368.90625 547.167969 1374.570312 547.167969 C 1379.859375 547.167969 1384.921875 542.523438 1384.679688 537.066406 Z M 1384.679688 537.066406 " fill-opacity="1" fill-rule="nonzero"/><path fill="#2d2b23" d="M 1104.046875 642.035156 C 1104.035156 639.8125 1103.980469 637.589844 1103.890625 635.367188 C 1104.753906 624.574219 1105.320312 613.757812 1105.371094 602.917969 C 1105.480469 589.339844 1104.632812 575.820312 1102.835938 562.359375 C 1101.101562 549.675781 1097.992188 537.351562 1094.460938 525.0625 C 1090.617188 511.695312 1086.683594 498.296875 1085.300781 484.414062 C 1083.78125 463.464844 1087.457031 442.621094 1091.132812 422.070312 L 1090.90625 419.371094 C 1090.667969 418.050781 1090.121094 416.878906 1089.265625 415.847656 C 1088.0625 414.117188 1086.292969 412.558594 1084.203125 411.972656 C 1082.433594 411.476562 1080.644531 411.386719 1078.835938 411.707031 C 1076.574219 412.105469 1073.703125 414.015625 1072.574219 416.046875 C 1064.191406 431.164062 1057.113281 447.082031 1052.039062 463.617188 C 1046.988281 480.078125 1043.761719 497.277344 1042.976562 514.492188 C 1042.148438 532.59375 1044.367188 550.691406 1047.753906 568.449219 C 1051.121094 586.105469 1055.195312 603.636719 1059.011719 621.199219 C 1062.863281 638.945312 1066.714844 656.6875 1070.570312 674.433594 C 1071.054688 676.671875 1071.542969 678.910156 1072.027344 681.152344 C 1072.210938 681.984375 1072.503906 682.777344 1072.90625 683.53125 C 1073.515625 686.1875 1074.703125 688.554688 1076.464844 690.632812 C 1080.234375 695.0625 1086.894531 696.390625 1092.101562 693.988281 C 1099.570312 690.542969 1100.171875 681.683594 1101.367188 674.628906 C 1103.199219 663.839844 1104.089844 652.976562 1104.046875 642.035156 Z M 1104.046875 642.035156 " fill-opacity="1" fill-rule="nonzero"/><g clip-path="url(#3e89acd058)"><g clip-path="url(#94086015c9)"><g clip-path="url(#c3e6ab822c)"><path fill="#eb9674" d="M 504.796875 -23.261719 L 506.082031 -20.882812 C 506.828125 -18.875 507.8125 -16.992188 509.035156 -15.234375 C 517.207031 -0.230469 525.488281 14.734375 534.726562 29.113281 C 544.386719 44.152344 555.070312 58.710938 567.492188 71.601562 C 578.6875 83.21875 591.398438 93.640625 605.558594 101.453125 C 618.476562 108.585938 632.589844 113.996094 647.144531 116.59375 C 662.15625 119.277344 677.519531 119.535156 692.429688 115.972656 C 707.34375 112.414062 721.480469 105.140625 732.546875 94.464844 C 738.121094 89.144531 742.746094 83.101562 746.425781 76.339844 C 750.378906 68.996094 752.820312 61.183594 753.757812 52.898438 C 755.726562 35.496094 748.378906 17.8125 736.4375 5.34375 C 724.457031 -7.171875 707.976562 -13.960938 690.890625 -15.519531 C 682.792969 -16.195312 674.765625 -15.699219 666.8125 -14.023438 C 657.832031 -12.183594 649.253906 -8.707031 640.800781 -5.246094 C 637.292969 -3.808594 633.792969 -2.347656 630.261719 -0.960938 C 623.386719 1.628906 616.34375 3.800781 609.042969 4.726562 C 604.128906 5.113281 599.226562 4.972656 594.34375 4.296875 C 588.125 3.164062 582.105469 1.367188 576.285156 -1.09375 C 564.289062 -6.472656 553.34375 -13.921875 543.015625 -22 C 537.398438 -26.480469 531.9375 -31.144531 526.535156 -35.878906 C 524.578125 -37.589844 522.421875 -38.78125 519.761719 -38.882812 C 519.058594 -39.179688 518.355469 -39.476562 517.652344 -39.773438 C 514.824219 -40.964844 511.292969 -39.839844 508.988281 -38.140625 C 507.609375 -37.152344 506.582031 -35.886719 505.898438 -34.335938 C 505.859375 -34.289062 505.820312 -34.242188 505.78125 -34.195312 C 505.175781 -33.429688 504.691406 -32.597656 504.332031 -31.691406 C 503.96875 -30.785156 503.742188 -29.847656 503.65625 -28.875 C 503.570312 -27.902344 503.621094 -26.941406 503.816406 -25.984375 C 504.011719 -25.027344 504.339844 -24.121094 504.796875 -23.261719 Z M 504.796875 -23.261719 " fill-opacity="1" fill-rule="nonzero"/></g></g></g><g clip-path="url(#783a973df3)"><g clip-path="url(#c1350ce7e1)"><g clip-path="url(#39e9101e6a)"><path fill="#eb9674" d="M 257.542969 204.429688 C 261.15625 212.078125 265.890625 218.953125 271.75 225.054688 C 284.160156 237.882812 300.109375 246.660156 317.839844 249.34375 C 336.605469 252.1875 356.316406 248.179688 373.183594 239.714844 C 381.820312 235.363281 389.773438 230 397.050781 223.632812 C 404.328125 217.265625 410.699219 210.09375 416.15625 202.113281 C 427.046875 186.234375 433.964844 168.28125 438.269531 149.613281 C 442.664062 130.558594 443.558594 111.035156 442.753906 91.554688 C 441.886719 70.664062 438.730469 49.957031 435.144531 29.386719 C 434.273438 24.402344 433.386719 19.417969 432.480469 14.4375 C 432.328125 13.601562 432.082031 12.792969 431.738281 12.015625 C 431.6875 10.886719 431.636719 9.757812 431.589844 8.628906 C 431.484375 6.210938 429.402344 3.378906 427.515625 2.039062 C 425.5625 0.652344 422.589844 -0.171875 420.199219 0.3125 C 418.121094 0.6875 416.300781 1.589844 414.742188 3.015625 C 414.199219 3.3125 413.699219 3.664062 413.238281 4.078125 C 411.226562 5.902344 410.191406 8.035156 409.6875 10.703125 C 408.605469 16.398438 407.453125 22.082031 406.132812 27.726562 C 403.308594 39.277344 399.714844 50.730469 394.242188 61.316406 C 391.519531 66.296875 388.285156 70.921875 384.542969 75.191406 C 381.542969 78.292969 378.238281 81.039062 374.640625 83.421875 C 370.632812 85.730469 366.417969 87.578125 362.003906 88.960938 C 352.265625 91.683594 342.1875 92.808594 332.3125 94.910156 C 323.816406 96.703125 315.574219 99.304688 307.589844 102.710938 C 291.992188 109.402344 277.628906 119.359375 266.871094 132.5625 C 261.621094 138.980469 257.597656 146.09375 254.808594 153.902344 C 251.78125 162.550781 250.574219 171.445312 251.175781 180.585938 C 251.679688 188.78125 254.039062 197.03125 257.542969 204.429688 Z M 257.542969 204.429688 " fill-opacity="1" fill-rule="nonzero"/></g></g></g><g clip-path="url(#ca2e9ce3c7)"><g clip-path="url(#f448c0ccbf)"><g clip-path="url(#a8332401ed)"><path fill="#eb9674" d="M 496.609375 275.382812 C 511.757812 284.90625 529.214844 288.882812 547.003906 287.863281 C 551.210938 287.605469 555.371094 287.035156 559.492188 286.15625 C 563.613281 285.273438 567.644531 284.089844 571.589844 282.605469 C 575.53125 281.117188 579.339844 279.347656 583.019531 277.289062 C 586.695312 275.230469 590.199219 272.910156 593.527344 270.328125 C 606.492188 260.179688 616.140625 245.480469 620.753906 229.71875 C 625.648438 213.003906 625.605469 195.5625 620.015625 179.039062 C 613.726562 160.449219 600.261719 145.21875 586.480469 131.714844 C 579.605469 124.980469 572.515625 118.464844 565.714844 111.648438 C 558.863281 104.785156 552.242188 97.699219 545.847656 90.398438 C 532.929688 75.640625 521.027344 60.101562 510.140625 43.785156 C 507.78125 40.25 505.472656 36.675781 503.214844 33.070312 C 493.402344 17.199219 484.613281 0.777344 476.839844 -16.1875 C 474.671875 -20.925781 468.484375 -23.617188 463.652344 -21.175781 C 462.480469 -20.589844 461.453125 -19.816406 460.5625 -18.855469 C 459.671875 -17.894531 458.980469 -16.808594 458.488281 -15.59375 C 456.578125 -12.832031 455.988281 -9.25 457.5625 -5.972656 C 462.296875 3.894531 466.261719 14.066406 469.457031 24.535156 C 474.652344 42.492188 477.550781 60.8125 478.144531 79.5 C 478.492188 97.671875 476.613281 115.613281 472.503906 133.324219 C 468.210938 150.539062 461.554688 167.101562 458.289062 184.585938 C 455 202.171875 456.621094 220.128906 463.777344 236.589844 C 470.574219 252.222656 482.132812 266.277344 496.609375 275.382812 Z M 496.609375 275.382812 " fill-opacity="1" fill-rule="nonzero"/></g></g></g><g clip-path="url(#8ed6ba2cda)"><g clip-path="url(#6343e4f83b)"><g clip-path="url(#169268738f)"><path fill="#747474" d="M 447.226562 284.105469 C 448.910156 287.800781 453.078125 289.820312 456.976562 288.25 C 460.609375 286.785156 462.804688 282.1875 461.125 278.503906 C 459.4375 274.808594 455.269531 272.789062 451.375 274.359375 C 447.742188 275.828125 445.546875 280.425781 447.226562 284.105469 Z M 447.226562 284.105469 " fill-opacity="1" fill-rule="nonzero"/></g></g></g><g clip-path="url(#52f5b39650)"><g clip-path="url(#38d83a5e44)"><g clip-path="url(#a3501cd6b1)"><path fill="#747474" d="M 410.335938 278.273438 C 412.019531 281.964844 416.1875 283.984375 420.085938 282.414062 C 423.71875 280.949219 425.914062 276.351562 424.234375 272.667969 C 422.546875 268.972656 418.378906 266.953125 414.484375 268.523438 C 410.847656 269.992188 408.65625 274.589844 410.335938 278.273438 Z M 410.335938 278.273438 " fill-opacity="1" fill-rule="nonzero"/></g></g></g><g clip-path="url(#cf26e15063)"><g clip-path="url(#4ec29e496a)"><g clip-path="url(#81bf99b444)"><path fill="#747474" d="M 372.734375 266.394531 C 374.421875 270.089844 378.585938 272.109375 382.484375 270.539062 C 386.117188 269.070312 388.3125 264.472656 386.632812 260.789062 C 384.949219 257.097656 380.78125 255.078125 376.882812 256.648438 C 373.25 258.113281 371.054688 262.710938 372.734375 266.394531 Z M 372.734375 266.394531 " fill-opacity="1" fill-rule="nonzero"/></g></g></g><g clip-path="url(#87e112ea21)"><g clip-path="url(#b6cb29fe53)"><g clip-path="url(#377664e701)"><path fill="#747474" d="M 406.480469 243.007812 C 408.164062 246.703125 412.332031 248.722656 416.230469 247.152344 C 419.863281 245.6875 422.058594 241.089844 420.378906 237.40625 C 418.691406 233.710938 414.523438 231.691406 410.628906 233.261719 C 406.992188 234.730469 404.800781 239.328125 406.480469 243.007812 Z M 406.480469 243.007812 " fill-opacity="1" fill-rule="nonzero"/></g></g></g><g clip-path="url(#4631e08796)"><g clip-path="url(#c1b771cad2)"><g clip-path="url(#a2858e2359)"><path fill="#747474" d="M 435.144531 249.859375 C 436.832031 253.554688 441 255.574219 444.894531 254.003906 C 448.53125 252.539062 450.722656 247.9375 449.042969 244.257812 C 447.359375 240.5625 443.191406 238.542969 439.292969 240.113281 C 435.660156 241.578125 433.464844 246.175781 435.144531 249.859375 Z M 435.144531 249.859375 " fill-opacity="1" fill-rule="nonzero"/></g></g></g><g clip-path="url(#f83117f604)"><g clip-path="url(#63aedde98b)"><g clip-path="url(#a1bacfed1e)"><path fill="#747474" d="M 427.832031 218.867188 C 429.515625 222.5625 433.683594 224.582031 437.582031 223.011719 C 441.214844 221.546875 443.410156 216.949219 441.730469 213.265625 C 440.042969 209.570312 435.875 207.550781 431.980469 209.121094 C 428.34375 210.589844 426.152344 215.1875 427.832031 218.867188 Z M 427.832031 218.867188 " fill-opacity="1" fill-rule="nonzero"/></g></g></g><g clip-path="url(#2adfa39c27)"><g clip-path="url(#c2a5b13f16)"><g clip-path="url(#04bcda0d95)"><path fill="#747474" d="M 641.320312 202.976562 C 643.003906 206.671875 647.171875 208.691406 651.070312 207.117188 C 654.703125 205.652344 656.898438 201.054688 655.21875 197.371094 C 653.53125 193.679688 649.363281 191.660156 645.46875 193.230469 C 641.832031 194.695312 639.640625 199.292969 641.320312 202.976562 Z M 641.320312 202.976562 " fill-opacity="1" fill-rule="nonzero"/></g></g></g><g clip-path="url(#48d1f86a63)"><g clip-path="url(#eedcaf9a27)"><g clip-path="url(#93b289a554)"><path fill="#747474" d="M 667.210938 170.101562 C 668.894531 173.796875 673.0625 175.816406 676.957031 174.246094 C 680.59375 172.78125 682.789062 168.183594 681.109375 164.5 C 679.421875 160.804688 675.253906 158.785156 671.359375 160.355469 C 667.722656 161.820312 665.527344 166.421875 667.210938 170.101562 Z M 667.210938 170.101562 " fill-opacity="1" fill-rule="nonzero"/></g></g></g><g clip-path="url(#87de5e8358)"><g clip-path="url(#390bbed101)"><g clip-path="url(#94f6cd22f4)"><path fill="#747474" d="M 686.757812 138.636719 C 688.445312 142.328125 692.613281 144.347656 696.507812 142.777344 C 700.140625 141.3125 702.335938 136.714844 700.65625 133.03125 C 698.972656 129.335938 694.804688 127.316406 690.90625 128.890625 C 687.273438 130.355469 685.078125 134.953125 686.757812 138.636719 Z M 686.757812 138.636719 " fill-opacity="1" fill-rule="nonzero"/></g></g></g><g clip-path="url(#388164d927)"><g clip-path="url(#13c803f3f5)"><g clip-path="url(#6289152c11)"><path fill="#747474" d="M 654.550781 142.992188 C 656.238281 146.6875 660.40625 148.707031 664.300781 147.132812 C 667.9375 145.667969 670.128906 141.070312 668.449219 137.386719 C 666.765625 133.691406 662.597656 131.675781 658.699219 133.246094 C 655.066406 134.710938 652.871094 139.308594 654.550781 142.992188 Z M 654.550781 142.992188 " fill-opacity="1" fill-rule="nonzero"/></g></g></g><g clip-path="url(#1d1198fd20)"><g clip-path="url(#c1ef520a37)"><g clip-path="url(#d7263b5c0f)"><path fill="#747474" d="M 634.003906 171.984375 C 635.691406 175.679688 639.859375 177.699219 643.753906 176.128906 C 647.390625 174.660156 649.582031 170.0625 647.902344 166.382812 C 646.21875 162.6875 642.050781 160.667969 638.15625 162.238281 C 634.519531 163.703125 632.324219 168.300781 634.003906 171.984375 Z M 634.003906 171.984375 " fill-opacity="1" fill-rule="nonzero"/></g></g></g><g clip-path="url(#27bbc2592a)"><g clip-path="url(#ea965864d1)"><g clip-path="url(#76949eb00b)"><path fill="#747474" d="M 622.335938 144.472656 C 624.023438 148.167969 628.191406 150.1875 632.085938 148.617188 C 635.722656 147.152344 637.917969 142.554688 636.234375 138.871094 C 634.550781 135.175781 630.382812 133.15625 626.488281 134.726562 C 622.851562 136.195312 620.65625 140.792969 622.335938 144.472656 Z M 622.335938 144.472656 " fill-opacity="1" fill-rule="nonzero"/></g></g></g></svg>