<svg xmlns="http://www.w3.org/2000/svg" xmlns:xlink="http://www.w3.org/1999/xlink" width="40" zoomAndPan="magnify" viewBox="0 0 30 30.000001" height="40" preserveAspectRatio="xMidYMid meet" version="1.0"><defs><clipPath id="28a1f5a2ce"><path d="M 4.671875 6 L 26.445312 6 L 26.445312 28.1875 L 4.671875 28.1875 Z M 4.671875 6 " clip-rule="nonzero"/></clipPath><clipPath id="64dadff8c2"><path d="M 6 24 L 11 24 L 11 28.1875 L 6 28.1875 Z M 6 24 " clip-rule="nonzero"/></clipPath><clipPath id="1e2d8923ec"><path d="M 20 24 L 25 24 L 25 28.1875 L 20 28.1875 Z M 20 24 " clip-rule="nonzero"/></clipPath><clipPath id="eba5987f86"><path d="M 10 0.609375 L 16 0.609375 L 16 6 L 10 6 Z M 10 0.609375 " clip-rule="nonzero"/></clipPath><clipPath id="4273d631a3"><path d="M 15 0.609375 L 21 0.609375 L 21 6 L 15 6 Z M 15 0.609375 " clip-rule="nonzero"/></clipPath></defs><g clip-path="url(#28a1f5a2ce)"><path fill="#000000" d="M 26.445312 17.230469 C 26.445312 17.945312 26.378906 18.652344 26.238281 19.351562 C 26.097656 20.050781 25.890625 20.730469 25.617188 21.390625 C 25.34375 22.050781 25.007812 22.679688 24.613281 23.273438 C 24.214844 23.867188 23.765625 24.414062 23.257812 24.921875 C 22.753906 25.425781 22.203125 25.875 21.609375 26.273438 C 21.015625 26.671875 20.386719 27.003906 19.726562 27.277344 C 19.066406 27.550781 18.386719 27.757812 17.683594 27.898438 C 16.984375 28.035156 16.273438 28.105469 15.558594 28.105469 C 14.84375 28.105469 14.136719 28.035156 13.4375 27.898438 C 12.734375 27.757812 12.054688 27.550781 11.394531 27.277344 C 10.734375 27.003906 10.105469 26.671875 9.511719 26.273438 C 8.917969 25.875 8.367188 25.425781 7.863281 24.921875 C 7.355469 24.414062 6.90625 23.867188 6.507812 23.273438 C 6.109375 22.679688 5.773438 22.050781 5.5 21.390625 C 5.226562 20.730469 5.023438 20.050781 4.882812 19.351562 C 4.742188 18.652344 4.671875 17.945312 4.671875 17.230469 C 4.671875 16.515625 4.742188 15.808594 4.882812 15.105469 C 5.023438 14.40625 5.226562 13.726562 5.5 13.066406 C 5.773438 12.40625 6.109375 11.78125 6.507812 11.1875 C 6.90625 10.59375 7.355469 10.042969 7.863281 9.539062 C 8.367188 9.03125 8.917969 8.582031 9.511719 8.183594 C 10.105469 7.789062 10.734375 7.453125 11.394531 7.179688 C 12.054688 6.90625 12.734375 6.699219 13.4375 6.5625 C 14.136719 6.421875 14.84375 6.351562 15.558594 6.351562 C 16.273438 6.351562 16.984375 6.421875 17.683594 6.5625 C 18.386719 6.699219 19.066406 6.90625 19.726562 7.179688 C 20.386719 7.453125 21.015625 7.789062 21.609375 8.183594 C 22.203125 8.582031 22.753906 9.03125 23.257812 9.539062 C 23.765625 10.042969 24.214844 10.59375 24.613281 11.1875 C 25.007812 11.78125 25.34375 12.40625 25.617188 13.066406 C 25.890625 13.726562 26.097656 14.40625 26.238281 15.105469 C 26.378906 15.808594 26.445312 16.515625 26.445312 17.230469 Z M 26.445312 17.230469 " fill-opacity="1" fill-rule="nonzero"/></g><path fill="#dedffe" d="M 24.96875 17.230469 C 24.96875 17.847656 24.910156 18.457031 24.789062 19.0625 C 24.667969 19.667969 24.492188 20.257812 24.253906 20.828125 C 24.019531 21.398438 23.726562 21.9375 23.382812 22.453125 C 23.042969 22.964844 22.652344 23.441406 22.214844 23.878906 C 21.777344 24.3125 21.300781 24.703125 20.789062 25.046875 C 20.273438 25.390625 19.730469 25.679688 19.160156 25.914062 C 18.589844 26.152344 18.003906 26.328125 17.394531 26.449219 C 16.789062 26.570312 16.179688 26.628906 15.558594 26.628906 C 14.941406 26.628906 14.332031 26.570312 13.722656 26.449219 C 13.117188 26.328125 12.53125 26.152344 11.957031 25.914062 C 11.386719 25.679688 10.847656 25.390625 10.332031 25.046875 C 9.816406 24.703125 9.34375 24.3125 8.90625 23.878906 C 8.46875 23.441406 8.078125 22.964844 7.734375 22.453125 C 7.390625 21.9375 7.101562 21.398438 6.867188 20.828125 C 6.628906 20.257812 6.453125 19.667969 6.332031 19.0625 C 6.210938 18.457031 6.148438 17.847656 6.148438 17.230469 C 6.148438 16.613281 6.210938 16 6.332031 15.394531 C 6.453125 14.789062 6.628906 14.203125 6.867188 13.632812 C 7.101562 13.0625 7.390625 12.519531 7.734375 12.007812 C 8.078125 11.492188 8.46875 11.019531 8.90625 10.582031 C 9.34375 10.144531 9.816406 9.753906 10.332031 9.410156 C 10.847656 9.070312 11.386719 8.78125 11.957031 8.542969 C 12.53125 8.308594 13.117188 8.128906 13.722656 8.007812 C 14.332031 7.886719 14.941406 7.828125 15.558594 7.828125 C 16.179688 7.828125 16.789062 7.886719 17.394531 8.007812 C 18.003906 8.128906 18.589844 8.308594 19.160156 8.542969 C 19.730469 8.78125 20.273438 9.070312 20.789062 9.410156 C 21.300781 9.753906 21.777344 10.144531 22.214844 10.582031 C 22.652344 11.019531 23.042969 11.492188 23.382812 12.007812 C 23.726562 12.519531 24.019531 13.0625 24.253906 13.632812 C 24.492188 14.203125 24.667969 14.789062 24.789062 15.394531 C 24.910156 16 24.96875 16.613281 24.96875 17.230469 Z M 24.96875 17.230469 " fill-opacity="1" fill-rule="nonzero"/><path fill="#f4f4f4" d="M 24.316406 17.230469 C 24.316406 17.804688 24.261719 18.371094 24.148438 18.9375 C 24.039062 19.5 23.871094 20.046875 23.652344 20.578125 C 23.429688 21.109375 23.160156 21.613281 22.84375 22.089844 C 22.523438 22.566406 22.160156 23.011719 21.753906 23.417969 C 21.347656 23.824219 20.902344 24.183594 20.425781 24.503906 C 19.949219 24.824219 19.441406 25.09375 18.910156 25.3125 C 18.378906 25.53125 17.832031 25.699219 17.269531 25.8125 C 16.703125 25.921875 16.136719 25.980469 15.558594 25.980469 C 14.984375 25.980469 14.414062 25.921875 13.851562 25.8125 C 13.289062 25.699219 12.738281 25.53125 12.207031 25.3125 C 11.675781 25.09375 11.171875 24.824219 10.695312 24.503906 C 10.214844 24.183594 9.773438 23.824219 9.367188 23.417969 C 8.960938 23.011719 8.597656 22.566406 8.277344 22.089844 C 7.957031 21.613281 7.6875 21.109375 7.46875 20.578125 C 7.25 20.046875 7.082031 19.5 6.96875 18.9375 C 6.859375 18.371094 6.800781 17.804688 6.800781 17.230469 C 6.800781 16.65625 6.859375 16.085938 6.96875 15.523438 C 7.082031 14.957031 7.25 14.410156 7.46875 13.882812 C 7.6875 13.351562 7.957031 12.847656 8.277344 12.367188 C 8.597656 11.890625 8.960938 11.449219 9.367188 11.042969 C 9.773438 10.636719 10.214844 10.273438 10.695312 9.953125 C 11.171875 9.636719 11.675781 9.367188 12.207031 9.144531 C 12.738281 8.925781 13.289062 8.761719 13.851562 8.648438 C 14.414062 8.535156 14.984375 8.480469 15.558594 8.480469 C 16.136719 8.480469 16.703125 8.535156 17.269531 8.648438 C 17.832031 8.761719 18.378906 8.925781 18.910156 9.144531 C 19.441406 9.367188 19.949219 9.636719 20.425781 9.953125 C 20.902344 10.273438 21.347656 10.636719 21.753906 11.042969 C 22.160156 11.449219 22.523438 11.890625 22.84375 12.367188 C 23.160156 12.847656 23.429688 13.351562 23.652344 13.882812 C 23.871094 14.410156 24.039062 14.957031 24.148438 15.523438 C 24.261719 16.085938 24.316406 16.65625 24.316406 17.230469 Z M 24.316406 17.230469 " fill-opacity="1" fill-rule="nonzero"/><path fill="#000000" d="M 15.800781 9.851562 C 15.800781 10.058594 15.777344 10.238281 15.730469 10.386719 C 15.683594 10.535156 15.625 10.605469 15.558594 10.605469 C 15.492188 10.605469 15.4375 10.535156 15.390625 10.386719 C 15.34375 10.238281 15.320312 10.058594 15.320312 9.851562 C 15.320312 9.644531 15.34375 9.464844 15.390625 9.316406 C 15.4375 9.171875 15.492188 9.097656 15.558594 9.097656 C 15.625 9.097656 15.683594 9.171875 15.730469 9.316406 C 15.777344 9.464844 15.800781 9.644531 15.800781 9.851562 Z M 15.800781 9.851562 " fill-opacity="1" fill-rule="nonzero"/><path fill="#000000" d="M 12.058594 10.734375 C 12.164062 10.914062 12.230469 11.082031 12.265625 11.230469 C 12.296875 11.382812 12.285156 11.476562 12.230469 11.507812 C 12.171875 11.542969 12.085938 11.503906 11.972656 11.402344 C 11.855469 11.296875 11.746094 11.15625 11.644531 10.972656 C 11.539062 10.792969 11.46875 10.628906 11.4375 10.476562 C 11.402344 10.324219 11.414062 10.234375 11.472656 10.199219 C 11.53125 10.167969 11.617188 10.203125 11.730469 10.308594 C 11.84375 10.410156 11.953125 10.554688 12.058594 10.734375 Z M 12.058594 10.734375 " fill-opacity="1" fill-rule="nonzero"/><path fill="#000000" d="M 9.292969 13.335938 C 9.472656 13.441406 9.617188 13.550781 9.71875 13.664062 C 9.824219 13.78125 9.859375 13.867188 9.828125 13.921875 C 9.792969 13.980469 9.699219 13.992188 9.550781 13.960938 C 9.398438 13.925781 9.234375 13.859375 9.050781 13.753906 C 8.871094 13.648438 8.730469 13.539062 8.625 13.425781 C 8.519531 13.3125 8.484375 13.226562 8.519531 13.167969 C 8.550781 13.109375 8.644531 13.097656 8.792969 13.132812 C 8.945312 13.164062 9.113281 13.234375 9.292969 13.335938 Z M 9.292969 13.335938 " fill-opacity="1" fill-rule="nonzero"/><path fill="#000000" d="M 8.933594 17.230469 C 8.933594 17.296875 8.859375 17.351562 8.710938 17.398438 C 8.5625 17.445312 8.386719 17.46875 8.175781 17.46875 C 7.96875 17.46875 7.789062 17.445312 7.640625 17.398438 C 7.496094 17.351562 7.421875 17.296875 7.421875 17.230469 C 7.421875 17.164062 7.496094 17.105469 7.640625 17.058594 C 7.789062 17.011719 7.96875 16.988281 8.175781 16.988281 C 8.386719 16.988281 8.5625 17.011719 8.710938 17.058594 C 8.859375 17.105469 8.933594 17.164062 8.933594 17.230469 Z M 8.933594 17.230469 " fill-opacity="1" fill-rule="nonzero"/><path fill="#000000" d="M 9.824219 20.550781 C 9.859375 20.609375 9.824219 20.695312 9.71875 20.808594 C 9.613281 20.921875 9.472656 21.03125 9.292969 21.136719 C 9.109375 21.242188 8.945312 21.308594 8.792969 21.34375 C 8.644531 21.375 8.550781 21.363281 8.515625 21.304688 C 8.484375 21.25 8.519531 21.164062 8.625 21.050781 C 8.726562 20.933594 8.871094 20.824219 9.050781 20.722656 C 9.230469 20.617188 9.398438 20.546875 9.550781 20.515625 C 9.699219 20.480469 9.792969 20.492188 9.824219 20.550781 Z M 9.824219 20.550781 " fill-opacity="1" fill-rule="nonzero"/><path fill="#000000" d="M 12.246094 22.996094 C 12.304688 23.03125 12.316406 23.121094 12.285156 23.273438 C 12.25 23.425781 12.183594 23.589844 12.078125 23.769531 C 11.972656 23.953125 11.863281 24.09375 11.75 24.199219 C 11.632812 24.300781 11.546875 24.335938 11.492188 24.304688 C 11.433594 24.269531 11.421875 24.179688 11.453125 24.027344 C 11.488281 23.878906 11.554688 23.710938 11.660156 23.53125 C 11.765625 23.351562 11.875 23.207031 11.988281 23.105469 C 12.105469 23 12.191406 22.964844 12.246094 22.996094 Z M 12.246094 22.996094 " fill-opacity="1" fill-rule="nonzero"/><path fill="#000000" d="M 15.800781 24.605469 C 15.800781 24.816406 15.777344 24.992188 15.730469 25.140625 C 15.683594 25.289062 15.625 25.359375 15.558594 25.359375 C 15.492188 25.359375 15.4375 25.289062 15.390625 25.140625 C 15.34375 24.992188 15.320312 24.816406 15.320312 24.605469 C 15.320312 24.398438 15.34375 24.21875 15.390625 24.074219 C 15.4375 23.925781 15.492188 23.851562 15.558594 23.851562 C 15.625 23.851562 15.683594 23.925781 15.730469 24.074219 C 15.777344 24.21875 15.800781 24.398438 15.800781 24.605469 Z M 15.800781 24.605469 " fill-opacity="1" fill-rule="nonzero"/><path fill="#000000" d="M 19.480469 23.515625 C 19.585938 23.695312 19.65625 23.859375 19.6875 24.011719 C 19.722656 24.164062 19.707031 24.253906 19.652344 24.289062 C 19.59375 24.320312 19.507812 24.285156 19.394531 24.183594 C 19.277344 24.078125 19.167969 23.9375 19.066406 23.753906 C 18.960938 23.574219 18.890625 23.410156 18.859375 23.257812 C 18.824219 23.105469 18.835938 23.015625 18.894531 22.980469 C 18.953125 22.949219 19.039062 22.984375 19.152344 23.089844 C 19.265625 23.191406 19.375 23.335938 19.480469 23.515625 Z M 19.480469 23.515625 " fill-opacity="1" fill-rule="nonzero"/><path fill="#000000" d="M 22.074219 20.734375 C 22.253906 20.839844 22.398438 20.949219 22.503906 21.0625 C 22.605469 21.175781 22.640625 21.261719 22.609375 21.320312 C 22.574219 21.378906 22.484375 21.390625 22.332031 21.359375 C 22.179688 21.324219 22.015625 21.253906 21.835938 21.152344 C 21.652344 21.046875 21.511719 20.9375 21.40625 20.824219 C 21.300781 20.710938 21.265625 20.625 21.300781 20.566406 C 21.332031 20.507812 21.425781 20.496094 21.578125 20.53125 C 21.726562 20.5625 21.894531 20.632812 22.074219 20.734375 Z M 22.074219 20.734375 " fill-opacity="1" fill-rule="nonzero"/><path fill="#000000" d="M 23.699219 17.230469 C 23.699219 17.296875 23.625 17.351562 23.476562 17.398438 C 23.332031 17.445312 23.152344 17.46875 22.945312 17.46875 C 22.734375 17.46875 22.558594 17.445312 22.410156 17.398438 C 22.261719 17.351562 22.1875 17.296875 22.1875 17.230469 C 22.1875 17.164062 22.261719 17.105469 22.410156 17.058594 C 22.558594 17.011719 22.734375 16.988281 22.945312 16.988281 C 23.152344 16.988281 23.332031 17.011719 23.476562 17.058594 C 23.625 17.105469 23.699219 17.164062 23.699219 17.230469 Z M 23.699219 17.230469 " fill-opacity="1" fill-rule="nonzero"/><path fill="#000000" d="M 22.609375 13.183594 C 22.640625 13.242188 22.605469 13.328125 22.5 13.441406 C 22.398438 13.554688 22.253906 13.664062 22.074219 13.769531 C 21.894531 13.875 21.726562 13.941406 21.574219 13.976562 C 21.425781 14.007812 21.332031 13.996094 21.296875 13.9375 C 21.265625 13.882812 21.300781 13.796875 21.40625 13.683594 C 21.507812 13.566406 21.652344 13.457031 21.832031 13.355469 C 22.015625 13.25 22.179688 13.179688 22.332031 13.148438 C 22.480469 13.113281 22.574219 13.128906 22.609375 13.183594 Z M 22.609375 13.183594 " fill-opacity="1" fill-rule="nonzero"/><path fill="#000000" d="M 19.636719 10.179688 C 19.695312 10.214844 19.707031 10.308594 19.675781 10.457031 C 19.640625 10.609375 19.570312 10.773438 19.46875 10.957031 C 19.363281 11.136719 19.253906 11.277344 19.140625 11.382812 C 19.023438 11.488281 18.9375 11.523438 18.882812 11.488281 C 18.824219 11.457031 18.8125 11.363281 18.84375 11.210938 C 18.878906 11.0625 18.945312 10.894531 19.050781 10.714844 C 19.15625 10.535156 19.265625 10.390625 19.378906 10.289062 C 19.496094 10.183594 19.582031 10.148438 19.636719 10.179688 Z M 19.636719 10.179688 " fill-opacity="1" fill-rule="nonzero"/><path fill="#000000" d="M 16.316406 17.710938 C 16.316406 17.882812 16.179688 18.019531 16.007812 18.019531 L 15.113281 18.019531 C 14.941406 18.019531 14.804688 17.882812 14.804688 17.710938 L 14.804688 16.78125 C 14.804688 16.613281 14.941406 16.472656 15.113281 16.472656 L 16.007812 16.472656 C 16.179688 16.472656 16.316406 16.613281 16.316406 16.78125 Z M 16.316406 17.710938 " fill-opacity="1" fill-rule="nonzero"/><path fill="#000000" d="M 15.800781 12.492188 C 15.800781 12.492188 15.699219 11.257812 15.558594 11.085938 C 15.421875 11.292969 15.320312 12.492188 15.320312 12.492188 C 15.320312 12.527344 15.320312 12.527344 15.320312 12.5625 L 15.320312 17.125 C 15.320312 17.332031 15.421875 17.503906 15.558594 17.503906 C 15.699219 17.503906 15.800781 17.332031 15.800781 17.125 L 15.800781 12.527344 C 15.800781 12.527344 15.800781 12.492188 15.800781 12.492188 Z M 15.800781 12.492188 " fill-opacity="1" fill-rule="nonzero"/><path fill="#000000" d="M 18.066406 14.863281 C 18.066406 14.863281 18.546875 14.105469 18.515625 13.902344 C 18.308594 13.933594 17.691406 14.554688 17.691406 14.554688 C 17.691406 14.554688 17.65625 14.585938 17.65625 14.585938 L 15.558594 17.230469 C 15.457031 17.367188 15.457031 17.503906 15.558594 17.605469 C 15.664062 17.675781 15.835938 17.640625 15.9375 17.539062 L 18.03125 14.894531 C 18.066406 14.863281 18.066406 14.863281 18.066406 14.863281 Z M 18.066406 14.863281 " fill-opacity="1" fill-rule="nonzero"/><path fill="#2d2d2c" d="M 16.007812 17.503906 C 16.007812 17.605469 15.9375 17.675781 15.835938 17.675781 L 15.320312 17.675781 C 15.214844 17.675781 15.148438 17.605469 15.148438 17.503906 L 15.148438 16.988281 C 15.148438 16.886719 15.214844 16.816406 15.320312 16.816406 L 15.835938 16.816406 C 15.9375 16.816406 16.007812 16.886719 16.007812 16.988281 Z M 16.007812 17.503906 " fill-opacity="1" fill-rule="nonzero"/><g clip-path="url(#64dadff8c2)"><path fill="#000000" d="M 7.902344 28.003906 C 7.730469 28.175781 7.421875 28.175781 7.25 28.003906 L 6.800781 27.558594 C 6.628906 27.386719 6.628906 27.078125 6.800781 26.90625 L 8.933594 24.777344 C 9.101562 24.605469 9.414062 24.605469 9.585938 24.777344 L 10.03125 25.222656 C 10.203125 25.394531 10.203125 25.703125 10.03125 25.875 Z M 7.902344 28.003906 " fill-opacity="1" fill-rule="nonzero"/></g><g clip-path="url(#1e2d8923ec)"><path fill="#000000" d="M 23.21875 28.003906 C 23.390625 28.175781 23.699219 28.175781 23.871094 28.003906 L 24.316406 27.558594 C 24.488281 27.386719 24.488281 27.078125 24.316406 26.90625 L 22.1875 24.777344 C 22.015625 24.605469 21.707031 24.605469 21.535156 24.777344 L 21.089844 25.222656 C 20.917969 25.394531 20.917969 25.703125 21.089844 25.875 Z M 23.21875 28.003906 " fill-opacity="1" fill-rule="nonzero"/></g><path fill="#000000" d="M 10.441406 6.933594 L 13.191406 5.734375 L 12.847656 4.980469 C 12.503906 4.191406 11.714844 3.746094 11.0625 4.019531 L 6.769531 5.90625 C 6.148438 6.144531 5.945312 7.039062 6.289062 7.828125 L 6.628906 8.582031 L 9.445312 7.347656 L 9.722656 8 C 9.789062 8.136719 10.03125 8.136719 10.304688 8 C 10.582031 7.863281 10.753906 7.691406 10.683594 7.554688 Z M 10.441406 6.933594 " fill-opacity="1" fill-rule="nonzero"/><path fill="#000000" d="M 20.675781 6.933594 L 17.929688 5.734375 L 18.273438 4.980469 C 18.617188 4.191406 19.40625 3.746094 20.058594 4.019531 L 24.351562 5.90625 C 24.96875 6.179688 25.210938 7.074219 24.867188 7.863281 L 24.523438 8.617188 L 21.707031 7.382812 L 21.398438 8 C 21.328125 8.136719 21.089844 8.136719 20.816406 8 C 20.539062 7.863281 20.367188 7.691406 20.4375 7.554688 Z M 20.675781 6.933594 " fill-opacity="1" fill-rule="nonzero"/><g clip-path="url(#eba5987f86)"><path fill="#000000" d="M 10.921875 5.015625 L 10.648438 4.945312 L 11.027344 3.160156 C 11.027344 3.125 11.199219 2.507812 11.851562 1.890625 C 12.230469 1.515625 12.710938 1.238281 13.257812 1.035156 C 13.945312 0.792969 14.734375 0.65625 15.628906 0.65625 L 15.628906 0.929688 C 14.082031 0.929688 12.847656 1.34375 12.058594 2.0625 C 11.746094 2.371094 11.578125 2.644531 11.472656 2.851562 C 11.371094 3.058594 11.335938 3.195312 11.335938 3.195312 Z M 10.921875 5.015625 " fill-opacity="1" fill-rule="nonzero"/></g><g clip-path="url(#4273d631a3)"><path fill="#000000" d="M 20.195312 5.015625 L 19.820312 3.230469 C 19.820312 3.230469 19.785156 3.09375 19.679688 2.886719 C 19.578125 2.679688 19.40625 2.40625 19.097656 2.097656 C 18.308594 1.34375 17.070312 0.964844 15.527344 0.964844 L 15.527344 0.621094 C 16.417969 0.621094 17.242188 0.757812 17.894531 1 C 18.445312 1.207031 18.925781 1.480469 19.304688 1.855469 C 19.957031 2.476562 20.09375 3.09375 20.09375 3.125 L 20.472656 4.910156 Z M 20.195312 5.015625 " fill-opacity="1" fill-rule="nonzero"/></g><path fill="#000000" d="M 16.554688 5.976562 C 16.554688 6.078125 16.488281 6.144531 16.382812 6.144531 L 14.734375 6.144531 C 14.632812 6.144531 14.5625 6.078125 14.5625 5.976562 C 14.5625 5.871094 14.632812 5.804688 14.734375 5.804688 L 16.382812 5.804688 C 16.488281 5.804688 16.554688 5.871094 16.554688 5.976562 Z M 16.554688 5.976562 " fill-opacity="1" fill-rule="nonzero"/><path fill="#000000" d="M 16.007812 6.351562 C 16.007812 6.558594 15.835938 6.730469 15.628906 6.730469 L 15.527344 6.730469 C 15.320312 6.730469 15.148438 6.558594 15.148438 6.351562 C 15.148438 6.144531 15.320312 5.976562 15.527344 5.976562 L 15.628906 5.976562 C 15.835938 5.976562 16.007812 6.144531 16.007812 6.351562 Z M 16.007812 6.351562 " fill-opacity="1" fill-rule="nonzero"/></svg>