<svg xmlns="http://www.w3.org/2000/svg" xmlns:xlink="http://www.w3.org/1999/xlink" width="500" zoomAndPan="magnify" viewBox="0 0 375 374.999991" height="500" preserveAspectRatio="xMidYMid meet" version="1.0"><defs><clipPath id="9ce975e591"><path d="M 188 10 L 236.238281 10 L 236.238281 359 L 188 359 Z M 188 10 " clip-rule="nonzero"/></clipPath><clipPath id="9f6f76471a"><path d="M 138.738281 18 L 176 18 L 176 356 L 138.738281 356 Z M 138.738281 18 " clip-rule="nonzero"/></clipPath></defs><path fill="#ffffff" d="M 232.695312 11.746094 C 229.675781 10.390625 231.328125 56.394531 227.992188 81.597656 C 227.832031 82.804688 224.3125 85.765625 223.558594 84 C 222.574219 77.289062 223.675781 12.871094 221.167969 11.746094 C 218.152344 10.390625 218.820312 55.234375 216.484375 84.679688 C 216.179688 85.976562 210.554688 86.671875 210.101562 85.066406 C 208.953125 78.957031 210.148438 13.664062 207.585938 12.515625 C 204.609375 11.183594 205.21875 54.820312 202.996094 84.269531 C 202.492188 86.253906 198.234375 82.46875 198.050781 80.976562 C 195.453125 60.214844 195.164062 9.367188 192.675781 11.746094 C 191.546875 12.820312 190.148438 91.921875 190.265625 93.761719 C 191.171875 108.464844 205.753906 112.152344 206.351562 122.195312 C 205.84375 236.988281 199.160156 296.75 199.160156 338.402344 C 199.160156 365.644531 225.839844 360.640625 225.839844 338.402344 C 225.839844 304.660156 219.652344 241.496094 219.195312 122.105469 C 219.726562 111.96875 234.777344 107.78125 234.734375 93.761719 C 234.722656 90.898438 235.253906 12.894531 232.695312 11.746094 " fill-opacity="1" fill-rule="nonzero"/><g clip-path="url(#9ce975e591)"><path fill="#000000" d="M 232.695312 11.746094 L 233.25 10.503906 C 233.058594 10.421875 232.820312 10.355469 232.570312 10.355469 C 232.296875 10.355469 232.027344 10.429688 231.816406 10.539062 C 231.398438 10.761719 231.195312 11.050781 231.039062 11.292969 C 230.757812 11.777344 230.617188 12.253906 230.476562 12.851562 C 230.226562 13.960938 230.042969 15.457031 229.886719 17.335938 C 229.347656 23.886719 229.179688 35.054688 228.824219 47.039062 C 228.46875 59.019531 227.921875 71.804688 226.648438 81.421875 L 227.039062 81.46875 L 226.664062 81.339844 L 226.648438 81.421875 L 227.039062 81.46875 L 226.664062 81.339844 L 226.648438 81.375 C 226.605469 81.46875 226.460938 81.683594 226.257812 81.902344 C 225.960938 82.242188 225.527344 82.609375 225.132812 82.859375 C 224.9375 82.984375 224.75 83.078125 224.609375 83.132812 L 224.445312 83.183594 L 224.402344 83.191406 L 224.390625 83.191406 L 224.390625 83.632812 L 224.621094 83.269531 C 224.507812 83.199219 224.402344 83.191406 224.390625 83.191406 L 224.390625 83.632812 L 224.621094 83.269531 L 224.378906 83.652344 L 224.8125 83.472656 C 224.808594 83.457031 224.738281 83.339844 224.621094 83.269531 L 224.378906 83.652344 L 224.8125 83.472656 L 223.558594 84 L 224.902344 83.800781 C 224.851562 83.46875 224.800781 82.839844 224.753906 82.023438 C 224.582031 78.929688 224.5 73.015625 224.445312 65.917969 C 224.355469 55.265625 224.316406 41.917969 224.078125 31.109375 C 223.960938 25.707031 223.792969 20.945312 223.542969 17.449219 C 223.414062 15.699219 223.269531 14.273438 223.085938 13.199219 C 222.996094 12.65625 222.898438 12.210938 222.761719 11.808594 C 222.695312 11.609375 222.617188 11.414062 222.484375 11.203125 C 222.351562 10.996094 222.171875 10.71875 221.722656 10.503906 C 221.527344 10.417969 221.289062 10.355469 221.039062 10.355469 C 220.773438 10.355469 220.511719 10.421875 220.304688 10.53125 C 219.894531 10.738281 219.679688 11.015625 219.523438 11.253906 C 219.222656 11.726562 219.078125 12.203125 218.921875 12.792969 C 218.640625 13.882812 218.433594 15.355469 218.242188 17.21875 C 217.585938 23.714844 217.261719 34.859375 216.871094 47.261719 C 216.480469 59.652344 216.027344 73.277344 215.132812 84.574219 L 216.484375 84.679688 L 215.164062 84.367188 L 215.835938 84.527344 L 215.308594 84.070312 C 215.277344 84.105469 215.203125 84.203125 215.164062 84.367188 L 215.835938 84.527344 L 215.308594 84.070312 L 215.472656 84.210938 L 215.328125 84.046875 L 215.308594 84.070312 L 215.472656 84.210938 L 215.328125 84.046875 C 215.328125 84.050781 215.21875 84.128906 215.046875 84.203125 C 214.78125 84.316406 214.375 84.433594 213.929688 84.515625 C 213.480469 84.597656 212.996094 84.640625 212.554688 84.640625 C 212.054688 84.644531 211.605469 84.578125 211.382812 84.496094 L 211.265625 84.449219 L 211.246094 84.433594 L 210.960938 84.828125 L 211.40625 84.699219 C 211.363281 84.539062 211.25 84.433594 211.246094 84.433594 L 210.960938 84.828125 L 211.40625 84.699219 L 210.101562 85.066406 L 211.433594 84.816406 C 211.382812 84.546875 211.316406 83.953125 211.265625 83.167969 C 211.0625 80.191406 210.964844 74.300781 210.894531 67.191406 C 210.792969 56.519531 210.753906 43.042969 210.515625 32.125 C 210.398438 26.660156 210.230469 21.839844 209.976562 18.300781 C 209.847656 16.527344 209.699219 15.082031 209.515625 13.992188 C 209.421875 13.449219 209.324219 12.996094 209.183594 12.589844 C 209.113281 12.386719 209.035156 12.191406 208.90625 11.972656 C 208.769531 11.765625 208.589844 11.492188 208.140625 11.277344 C 207.949219 11.191406 207.707031 11.128906 207.453125 11.128906 C 207.195312 11.128906 206.9375 11.195312 206.734375 11.296875 C 206.324219 11.5 206.109375 11.773438 205.949219 12.011719 C 205.652344 12.476562 205.503906 12.945312 205.347656 13.519531 C 205.074219 14.589844 204.863281 16.027344 204.671875 17.847656 C 204.023438 24.183594 203.695312 35.070312 203.3125 47.253906 C 202.929688 59.425781 202.492188 72.867188 201.640625 84.167969 L 202.996094 84.269531 L 201.679688 83.9375 L 202.265625 84.085938 L 201.90625 83.625 C 201.742188 83.753906 201.675781 83.921875 201.679688 83.9375 L 202.265625 84.085938 L 201.90625 83.625 L 202.304688 84.136719 L 202.304688 83.472656 C 202.261719 83.46875 202.074219 83.496094 201.90625 83.625 L 202.304688 84.136719 L 202.304688 83.472656 L 202.304688 83.664062 L 202.328125 83.476562 L 202.304688 83.472656 L 202.304688 83.664062 L 202.328125 83.476562 C 202.328125 83.476562 202.25 83.464844 202.132812 83.410156 C 201.925781 83.324219 201.601562 83.136719 201.277344 82.890625 C 200.785156 82.519531 200.269531 82.019531 199.898438 81.570312 C 199.714844 81.34375 199.566406 81.132812 199.484375 80.976562 L 199.398438 80.800781 L 199.386719 80.773438 L 199.144531 80.835938 L 199.394531 80.808594 L 199.386719 80.773438 L 199.144531 80.835938 L 199.394531 80.808594 L 199.394531 80.804688 C 198.136719 70.769531 197.417969 53.4375 196.722656 38.648438 C 196.378906 31.25 196.039062 24.476562 195.636719 19.53125 C 195.433594 17.054688 195.21875 15.035156 194.96875 13.578125 C 194.839844 12.84375 194.710938 12.261719 194.53125 11.757812 C 194.433594 11.503906 194.339844 11.269531 194.140625 10.996094 C 194.042969 10.863281 193.910156 10.710938 193.699219 10.570312 C 193.492188 10.425781 193.175781 10.304688 192.839844 10.308594 C 192.59375 10.304688 192.355469 10.371094 192.167969 10.460938 C 191.976562 10.554688 191.835938 10.667969 191.722656 10.78125 L 192.675781 11.746094 L 191.734375 10.761719 C 191.554688 10.941406 191.492188 11.070312 191.4375 11.167969 C 191.34375 11.363281 191.316406 11.476562 191.285156 11.601562 C 191.226562 11.828125 191.191406 12.054688 191.152344 12.339844 C 191.011719 13.425781 190.878906 15.320312 190.746094 17.914062 C 189.8125 36.003906 188.902344 87.136719 188.902344 93.214844 C 188.902344 93.363281 188.902344 93.480469 188.902344 93.585938 C 188.90625 93.691406 188.90625 93.757812 188.914062 93.871094 L 190.265625 93.761719 L 188.910156 93.847656 C 189.148438 97.742188 190.3125 100.960938 191.90625 103.679688 C 194.300781 107.757812 197.605469 110.746094 200.246094 113.585938 C 201.566406 115.003906 202.722656 116.378906 203.554688 117.789062 C 204.382812 119.203125 204.898438 120.640625 205 122.277344 L 206.351562 122.195312 L 204.996094 122.191406 C 204.484375 236.9375 197.804688 296.617188 197.800781 338.402344 C 197.800781 345.074219 199.347656 350.027344 201.875 353.375 C 203.136719 355.042969 204.644531 356.300781 206.292969 357.125 C 207.933594 357.960938 209.710938 358.363281 211.496094 358.359375 C 215.441406 358.359375 219.386719 356.414062 222.320312 352.960938 C 225.257812 349.503906 227.199219 344.523438 227.195312 338.402344 C 227.195312 321.449219 225.648438 297.230469 224.042969 262.3125 C 222.441406 227.386719 220.78125 181.773438 220.554688 122.097656 L 219.195312 122.105469 L 220.550781 122.175781 C 220.667969 119.984375 221.554688 118.09375 222.945312 116.179688 C 225.023438 113.300781 228.242188 110.523438 231.015625 107.089844 C 232.398438 105.367188 233.667969 103.464844 234.597656 101.277344 C 235.519531 99.09375 236.089844 96.621094 236.089844 93.816406 L 236.089844 93.78125 L 235.128906 93.789062 L 236.089844 93.859375 L 236.089844 93.78125 L 235.128906 93.789062 L 236.089844 93.859375 L 236.089844 93.671875 C 236.089844 92.53125 236.128906 85.597656 236.128906 76.222656 C 236.128906 64.277344 236.066406 48.355469 235.773438 35.304688 C 235.628906 28.777344 235.421875 22.96875 235.140625 18.714844 C 235 16.585938 234.839844 14.847656 234.648438 13.570312 C 234.554688 12.925781 234.453125 12.402344 234.316406 11.953125 C 234.25 11.726562 234.179688 11.519531 234.054688 11.289062 C 233.992188 11.171875 233.917969 11.054688 233.800781 10.914062 C 233.683594 10.785156 233.515625 10.625 233.25 10.503906 L 232.695312 11.746094 L 232.140625 12.980469 L 232.59375 11.976562 L 231.761719 12.707031 C 231.824219 12.777344 231.933594 12.886719 232.140625 12.980469 L 232.59375 11.976562 L 231.761719 12.707031 L 232.289062 12.238281 L 231.667969 12.574219 L 231.761719 12.707031 L 232.289062 12.238281 L 231.667969 12.574219 L 231.753906 12.53125 L 231.664062 12.574219 L 231.667969 12.574219 L 231.753906 12.53125 L 231.664062 12.574219 C 231.6875 12.605469 231.78125 12.902344 231.859375 13.324219 C 232.015625 14.132812 232.167969 15.429688 232.300781 17.074219 C 232.773438 22.851562 233.058594 32.957031 233.214844 43.9375 C 233.375 54.925781 233.417969 66.808594 233.417969 76.222656 C 233.417969 85.59375 233.378906 92.507812 233.378906 93.671875 L 233.378906 93.785156 L 234.734375 93.761719 L 233.382812 93.664062 L 233.378906 93.796875 L 233.378906 93.820312 L 233.585938 93.816406 L 233.378906 93.816406 L 233.378906 93.820312 L 233.585938 93.816406 L 233.378906 93.816406 C 233.375 97.066406 232.519531 99.6875 231.199219 102.042969 C 229.21875 105.574219 226.121094 108.460938 223.34375 111.472656 C 221.964844 112.980469 220.660156 114.523438 219.65625 116.25 C 218.652344 117.96875 217.953125 119.882812 217.839844 122.035156 L 217.839844 122.109375 C 218.070312 181.824219 219.730469 227.488281 221.335938 262.433594 C 222.9375 297.375 224.484375 321.609375 224.480469 338.402344 C 224.480469 343.957031 222.742188 348.277344 220.253906 351.203125 C 217.761719 354.128906 214.535156 355.648438 211.496094 355.644531 C 210.117188 355.644531 208.773438 355.339844 207.511719 354.707031 C 205.628906 353.75 203.902344 352.046875 202.617188 349.382812 C 201.335938 346.722656 200.515625 343.097656 200.515625 338.402344 C 200.511719 296.890625 207.195312 237.035156 207.707031 122.199219 L 207.703125 122.117188 C 207.542969 119.269531 206.363281 116.882812 204.804688 114.777344 C 202.460938 111.613281 199.269531 108.929688 196.644531 105.710938 C 195.332031 104.109375 194.160156 102.382812 193.273438 100.425781 C 192.386719 98.464844 191.78125 96.269531 191.617188 93.675781 L 191.617188 93.652344 L 191.238281 93.683594 L 191.617188 93.664062 L 191.617188 93.652344 L 191.238281 93.683594 L 191.617188 93.664062 C 191.617188 93.640625 191.617188 93.460938 191.617188 93.214844 C 191.617188 89.613281 191.949219 69.484375 192.417969 50.171875 C 192.652344 40.511719 192.917969 31.042969 193.195312 23.941406 C 193.332031 20.386719 193.472656 17.425781 193.613281 15.332031 C 193.683594 14.289062 193.753906 13.460938 193.816406 12.90625 C 193.847656 12.632812 193.878906 12.421875 193.902344 12.316406 L 193.910156 12.265625 L 193.90625 12.265625 L 193.910156 12.265625 L 193.90625 12.265625 L 193.910156 12.265625 L 193.164062 12.035156 L 193.871094 12.371094 L 193.910156 12.265625 L 193.164062 12.035156 L 193.871094 12.371094 L 192.773438 11.847656 L 193.613281 12.722656 C 193.796875 12.539062 193.835938 12.433594 193.871094 12.371094 L 192.773438 11.847656 L 193.613281 12.722656 L 193.628906 12.710938 L 192.894531 11.96875 L 193.347656 12.90625 C 193.484375 12.835938 193.570312 12.761719 193.628906 12.710938 L 192.894531 11.96875 L 193.347656 12.90625 L 192.839844 11.855469 L 192.839844 13.019531 C 193.03125 13.019531 193.214844 12.972656 193.347656 12.90625 L 192.839844 11.855469 L 192.839844 13.019531 L 192.839844 11.863281 L 192.199219 12.832031 C 192.332031 12.921875 192.578125 13.019531 192.839844 13.019531 L 192.839844 11.863281 L 192.199219 12.832031 L 192.707031 12.058594 L 191.964844 12.613281 C 191.996094 12.65625 192.058594 12.734375 192.199219 12.832031 L 192.707031 12.058594 L 191.964844 12.613281 L 192.355469 12.324219 L 191.9375 12.574219 L 191.964844 12.613281 L 192.355469 12.324219 L 191.9375 12.574219 L 192.0625 12.5 L 191.933594 12.570312 L 191.9375 12.574219 L 192.0625 12.5 L 191.933594 12.570312 C 191.933594 12.570312 191.976562 12.65625 192.023438 12.800781 C 192.109375 13.089844 192.21875 13.578125 192.320312 14.203125 C 192.714844 16.578125 193.058594 20.90625 193.375 26.25 C 193.84375 34.285156 194.261719 44.675781 194.765625 54.71875 C 195.277344 64.761719 195.867188 74.449219 196.703125 81.140625 L 196.703125 81.136719 C 196.753906 81.511719 196.867188 81.804688 197 82.082031 C 197.238281 82.5625 197.558594 83.003906 197.933594 83.441406 C 198.492188 84.097656 199.164062 84.722656 199.878906 85.226562 C 200.234375 85.476562 200.601562 85.699219 200.992188 85.875 C 201.378906 86.042969 201.789062 86.183594 202.304688 86.1875 C 202.6875 86.191406 203.171875 86.085938 203.570312 85.769531 C 203.972656 85.464844 204.210938 85.011719 204.308594 84.601562 L 204.347656 84.371094 C 205.441406 69.8125 205.851562 51.855469 206.339844 37.546875 C 206.582031 30.394531 206.847656 24.148438 207.222656 19.738281 C 207.40625 17.539062 207.625 15.78125 207.867188 14.664062 C 207.984375 14.105469 208.113281 13.703125 208.1875 13.554688 L 208.214844 13.5 L 207.722656 13.179688 L 208.066406 13.648438 C 208.183594 13.558594 208.214844 13.5 208.214844 13.5 L 207.722656 13.179688 L 208.066406 13.648438 L 207.453125 12.820312 L 207.453125 13.84375 C 207.714844 13.847656 207.957031 13.734375 208.066406 13.648438 L 207.453125 12.820312 L 207.453125 13.84375 L 207.453125 12.816406 L 207.03125 13.757812 C 207.136719 13.800781 207.289062 13.84375 207.453125 13.84375 L 207.453125 12.816406 L 207.03125 13.757812 L 207.03125 13.753906 L 207.453125 12.8125 L 206.636719 13.453125 C 206.6875 13.515625 206.792969 13.644531 207.03125 13.753906 L 207.453125 12.8125 L 206.636719 13.453125 L 207.109375 13.082031 L 206.589844 13.386719 L 206.636719 13.453125 L 207.109375 13.082031 L 206.589844 13.386719 L 206.800781 13.261719 L 206.585938 13.375 L 206.589844 13.386719 L 206.800781 13.261719 L 206.585938 13.375 L 206.589844 13.390625 C 206.613281 13.445312 206.664062 13.605469 206.71875 13.828125 C 206.820312 14.261719 206.929688 14.941406 207.027344 15.792969 C 207.394531 19 207.632812 24.65625 207.785156 31.347656 C 208.015625 41.394531 208.066406 53.824219 208.15625 64.246094 C 208.199219 69.460938 208.253906 74.167969 208.339844 77.835938 C 208.386719 79.675781 208.4375 81.246094 208.507812 82.503906 C 208.578125 83.765625 208.648438 84.675781 208.769531 85.320312 L 208.792969 85.433594 C 208.921875 85.910156 209.222656 86.289062 209.535156 86.542969 C 210.007812 86.921875 210.503906 87.089844 211.003906 87.203125 C 211.503906 87.3125 212.023438 87.355469 212.554688 87.355469 C 213.5625 87.355469 214.601562 87.203125 215.503906 86.917969 C 215.960938 86.773438 216.386719 86.601562 216.785156 86.339844 C 216.980469 86.210938 217.179688 86.054688 217.363281 85.839844 C 217.546875 85.628906 217.71875 85.347656 217.804688 84.988281 L 217.835938 84.785156 C 218.992188 70.222656 219.410156 51.96875 219.902344 37.367188 C 220.148438 30.066406 220.414062 23.671875 220.789062 19.148438 C 220.976562 16.890625 221.195312 15.09375 221.441406 13.9375 C 221.558594 13.363281 221.691406 12.945312 221.765625 12.789062 L 221.796875 12.726562 L 221.316406 12.421875 L 221.652344 12.871094 C 221.769531 12.78125 221.796875 12.726562 221.796875 12.726562 L 221.316406 12.421875 L 221.652344 12.871094 L 221.039062 12.046875 L 221.039062 13.070312 C 221.300781 13.074219 221.542969 12.960938 221.652344 12.871094 L 221.039062 12.046875 L 221.039062 13.070312 L 221.039062 12.042969 L 220.617188 12.980469 C 220.71875 13.027344 220.871094 13.070312 221.039062 13.070312 L 221.039062 12.042969 L 220.617188 12.980469 L 220.613281 12.980469 L 221.039062 12.035156 L 220.214844 12.679688 C 220.265625 12.742188 220.375 12.871094 220.613281 12.980469 L 221.039062 12.035156 L 220.214844 12.679688 L 220.703125 12.296875 L 220.167969 12.609375 L 220.214844 12.679688 L 220.703125 12.296875 L 220.167969 12.609375 L 220.390625 12.480469 L 220.160156 12.597656 L 220.167969 12.609375 L 220.390625 12.480469 L 220.160156 12.597656 L 220.167969 12.609375 C 220.191406 12.664062 220.242188 12.820312 220.292969 13.039062 C 220.394531 13.464844 220.5 14.136719 220.597656 14.976562 C 220.960938 18.140625 221.195312 23.726562 221.347656 30.34375 C 221.578125 40.28125 221.632812 52.597656 221.707031 62.976562 C 221.746094 68.171875 221.785156 72.878906 221.859375 76.578125 C 221.898438 78.429688 221.945312 80.023438 222.003906 81.304688 C 222.058594 82.589844 222.121094 83.542969 222.21875 84.199219 C 222.234375 84.3125 222.265625 84.425781 222.3125 84.53125 C 222.476562 84.933594 222.78125 85.324219 223.179688 85.570312 C 223.578125 85.820312 224.015625 85.910156 224.390625 85.90625 C 225.066406 85.898438 225.605469 85.683594 226.113281 85.421875 C 226.871094 85.027344 227.554688 84.472656 228.125 83.882812 C 228.40625 83.582031 228.65625 83.28125 228.871094 82.949219 C 229.074219 82.617188 229.261719 82.28125 229.335938 81.777344 C 230.996094 69.234375 231.425781 51.746094 231.800781 37.375 C 231.988281 30.195312 232.167969 23.796875 232.464844 19.230469 C 232.617188 16.949219 232.800781 15.125 233.019531 13.945312 C 233.128906 13.359375 233.25 12.933594 233.328125 12.765625 L 233.355469 12.703125 L 232.855469 12.402344 L 233.210938 12.855469 C 233.332031 12.757812 233.355469 12.703125 233.355469 12.703125 L 232.855469 12.402344 L 233.210938 12.855469 L 232.570312 12.035156 L 232.570312 13.070312 C 232.84375 13.074219 233.097656 12.949219 233.210938 12.855469 L 232.570312 12.035156 L 232.570312 13.070312 L 232.570312 12.03125 L 232.140625 12.980469 C 232.242188 13.027344 232.398438 13.070312 232.570312 13.070312 L 232.570312 12.03125 L 232.140625 12.980469 L 232.695312 11.746094 " fill-opacity="1" fill-rule="nonzero"/></g><path fill="#6e8a93" d="M 204.765625 147.945312 C 203.175781 246.152344 196.140625 299.984375 196.140625 338.402344 C 196.140625 365.644531 229.15625 360.640625 229.15625 338.402344 C 229.15625 307.183594 222.605469 250.769531 221.179688 147.945312 L 204.765625 147.945312 " fill-opacity="1" fill-rule="nonzero"/><path fill="#000000" d="M 204.765625 147.945312 L 203.410156 147.917969 C 201.820312 246.082031 194.792969 299.824219 194.785156 338.402344 C 194.78125 345.121094 196.734375 350.152344 199.855469 353.484375 C 202.964844 356.8125 207.179688 358.367188 211.40625 358.359375 C 216.089844 358.359375 220.847656 356.496094 224.460938 353.066406 C 228.074219 349.636719 230.519531 344.59375 230.511719 338.402344 C 230.511719 322.699219 228.875 300.796875 227.058594 269.945312 C 225.242188 239.097656 223.246094 199.3125 222.53125 147.921875 C 222.523438 147.179688 221.917969 146.585938 221.179688 146.585938 L 204.765625 146.585938 C 204.027344 146.585938 203.421875 147.179688 203.410156 147.917969 L 204.765625 147.945312 L 204.765625 149.296875 L 221.179688 149.296875 L 221.179688 147.945312 L 219.824219 147.960938 C 220.535156 199.398438 222.53125 239.234375 224.347656 270.101562 C 226.167969 300.972656 227.804688 322.882812 227.800781 338.402344 C 227.796875 343.882812 225.6875 348.144531 222.589844 351.097656 C 219.492188 354.046875 215.371094 355.648438 211.40625 355.644531 C 207.820312 355.640625 204.398438 354.363281 201.832031 351.628906 C 199.273438 348.890625 197.503906 344.617188 197.496094 338.402344 C 197.496094 300.140625 204.53125 246.222656 206.121094 147.964844 L 204.765625 147.945312 L 204.765625 149.296875 L 204.765625 147.945312 " fill-opacity="1" fill-rule="nonzero"/><path fill="#ffffff" d="M 144.203125 67.554688 C 139.386719 113.886719 139.386719 163.925781 141.609375 187.140625 C 141.925781 190.398438 149.957031 195.246094 149.902344 198.402344 C 148.773438 264.160156 147.003906 304.964844 147.003906 335.820312 C 147.003906 363.0625 173.6875 358.0625 173.6875 335.820312 C 173.6875 310.71875 170.261719 269.328125 168.324219 200.617188 C 168.265625 198.660156 164.890625 197.429688 164.84375 195.433594 C 164.789062 193.484375 168.058594 190.761719 168.011719 188.765625 C 167.503906 168.089844 168.105469 49.386719 168.011719 23.8125 C 168.539062 13.675781 149.023438 21.222656 144.203125 67.554688 " fill-opacity="1" fill-rule="nonzero"/><g clip-path="url(#9f6f76471a)"><path fill="#000000" d="M 144.203125 67.554688 L 142.855469 67.414062 C 139.980469 95.0625 138.820312 124 138.820312 147.816406 C 138.820312 164 139.351562 177.808594 140.261719 187.273438 C 140.328125 187.9375 140.566406 188.527344 140.867188 189.082031 C 141.410156 190.050781 142.179688 190.945312 143.03125 191.847656 C 144.300781 193.195312 145.769531 194.539062 146.875 195.753906 C 147.425781 196.355469 147.882812 196.925781 148.167969 197.398438 C 148.460938 197.875 148.550781 198.234375 148.546875 198.367188 L 149.179688 198.367188 L 148.546875 198.363281 L 148.546875 198.367188 L 149.179688 198.367188 L 148.546875 198.363281 C 148.546875 198.371094 148.542969 198.425781 148.550781 198.507812 L 149.902344 198.402344 L 148.546875 198.378906 C 147.421875 264.125 145.648438 304.914062 145.648438 335.820312 C 145.648438 342.492188 147.195312 347.445312 149.722656 350.789062 C 150.984375 352.460938 152.492188 353.714844 154.136719 354.546875 C 155.785156 355.378906 157.5625 355.78125 159.34375 355.78125 C 163.292969 355.777344 167.234375 353.832031 170.171875 350.378906 C 173.109375 346.925781 175.046875 341.941406 175.042969 335.820312 C 175.042969 310.605469 171.617188 269.269531 169.675781 200.578125 C 169.664062 200.132812 169.554688 199.726562 169.398438 199.371094 C 169.125 198.746094 168.734375 198.277344 168.339844 197.859375 C 167.75 197.242188 167.136719 196.734375 166.730469 196.285156 C 166.527344 196.066406 166.378906 195.871094 166.296875 195.71875 C 166.21875 195.5625 166.199219 195.472656 166.195312 195.394531 L 166.195312 195.359375 L 165.480469 195.390625 L 166.195312 195.390625 L 166.195312 195.359375 L 165.480469 195.390625 L 166.195312 195.390625 C 166.183594 195.277344 166.277344 194.921875 166.53125 194.464844 C 166.894531 193.773438 167.550781 192.902344 168.144531 191.988281 C 168.441406 191.527344 168.730469 191.050781 168.957031 190.535156 C 169.179688 190.015625 169.363281 189.457031 169.363281 188.808594 L 169.363281 188.734375 C 169.214844 182.496094 169.160156 167.199219 169.160156 148.234375 C 169.160156 109.433594 169.375 55.214844 169.375 31.214844 C 169.375 28.261719 169.371094 25.765625 169.363281 23.808594 L 168.011719 23.8125 L 169.363281 23.878906 C 169.371094 23.722656 169.375 23.570312 169.375 23.417969 C 169.375 22.066406 169.058594 20.859375 168.3125 19.929688 C 167.941406 19.464844 167.464844 19.097656 166.925781 18.855469 C 166.386719 18.613281 165.796875 18.5 165.199219 18.5 C 164.246094 18.5 163.265625 18.773438 162.269531 19.261719 C 160.527344 20.121094 158.691406 21.65625 156.820312 23.941406 C 151.214844 30.785156 145.257812 44.414062 142.855469 67.414062 L 144.203125 67.554688 L 145.554688 67.691406 C 147.34375 50.445312 151.191406 38.679688 155.191406 31.3125 C 157.191406 27.628906 159.230469 25.042969 161.019531 23.425781 C 161.917969 22.617188 162.75 22.050781 163.46875 21.695312 C 164.1875 21.34375 164.78125 21.207031 165.199219 21.210938 C 165.464844 21.210938 165.660156 21.261719 165.8125 21.328125 C 166.035156 21.433594 166.203125 21.578125 166.371094 21.902344 C 166.535156 22.21875 166.664062 22.722656 166.664062 23.417969 C 166.664062 23.527344 166.660156 23.636719 166.65625 23.746094 L 166.65625 23.816406 C 166.660156 25.765625 166.664062 28.261719 166.664062 31.214844 C 166.664062 55.203125 166.445312 109.425781 166.445312 148.234375 C 166.445312 167.214844 166.5 182.492188 166.65625 188.796875 L 168.011719 188.765625 L 166.65625 188.722656 L 166.652344 188.808594 C 166.664062 188.9375 166.566406 189.300781 166.316406 189.761719 C 165.949219 190.460938 165.296875 191.328125 164.707031 192.238281 C 164.410156 192.695312 164.121094 193.167969 163.890625 193.679688 C 163.671875 194.1875 163.484375 194.742188 163.484375 195.390625 L 163.484375 195.472656 L 163.550781 195.46875 L 163.484375 195.472656 L 163.550781 195.46875 L 163.484375 195.472656 L 163.484375 195.46875 C 163.496094 195.910156 163.601562 196.320312 163.753906 196.683594 C 164.027344 197.3125 164.421875 197.792969 164.816406 198.210938 C 165.40625 198.835938 166.027344 199.347656 166.433594 199.796875 C 166.636719 200.015625 166.785156 200.210938 166.867188 200.355469 C 166.949219 200.507812 166.960938 200.589844 166.964844 200.652344 C 168.90625 269.390625 172.332031 310.828125 172.328125 335.820312 C 172.328125 341.371094 170.585938 345.695312 168.101562 348.621094 C 165.613281 351.550781 162.382812 353.070312 159.34375 353.066406 C 157.964844 353.066406 156.621094 352.757812 155.359375 352.121094 C 153.472656 351.167969 151.75 349.464844 150.464844 346.804688 C 149.179688 344.144531 148.363281 340.515625 148.363281 335.820312 C 148.363281 305.015625 150.132812 264.199219 151.257812 198.425781 L 151.25 198.292969 L 150.105469 198.386719 L 151.253906 198.386719 L 151.25 198.292969 L 150.105469 198.386719 L 151.253906 198.386719 L 150.648438 198.386719 L 151.253906 198.390625 L 151.253906 198.386719 L 150.648438 198.386719 L 151.253906 198.390625 L 151.253906 198.367188 C 151.253906 197.6875 151.050781 197.074219 150.769531 196.507812 C 150.277344 195.527344 149.535156 194.636719 148.699219 193.730469 C 147.453125 192.386719 145.980469 191.042969 144.835938 189.808594 C 144.261719 189.195312 143.777344 188.609375 143.449219 188.109375 C 143.117188 187.609375 142.972656 187.199219 142.960938 187.011719 C 142.066406 177.691406 141.53125 163.933594 141.53125 147.816406 C 141.53125 124.089844 142.691406 95.222656 145.554688 67.691406 L 144.203125 67.554688 " fill-opacity="1" fill-rule="nonzero"/></g><path fill="#6e8a93" d="M 147.667969 211.269531 C 146.289062 269.570312 144.386719 307.03125 144.386719 335.820312 C 144.386719 363.0625 177.304688 358.0625 177.304688 335.820312 C 177.304688 312.042969 173.515625 273.644531 171.078125 211.269531 L 147.667969 211.269531 " fill-opacity="1" fill-rule="nonzero"/><path fill="#000000" d="M 147.667969 211.269531 L 146.3125 211.238281 C 144.929688 269.523438 143.03125 306.972656 143.03125 335.820312 C 143.023438 342.542969 144.96875 347.570312 148.078125 350.898438 C 151.183594 354.230469 155.386719 355.785156 159.605469 355.78125 C 164.28125 355.777344 169.023438 353.914062 172.625 350.484375 C 176.230469 347.054688 178.667969 342.011719 178.660156 335.820312 C 178.660156 311.910156 174.871094 273.566406 172.433594 211.214844 C 172.40625 210.488281 171.808594 209.914062 171.078125 209.914062 L 147.667969 209.914062 C 146.929688 209.914062 146.332031 210.5 146.3125 211.238281 L 147.667969 211.269531 L 147.667969 212.621094 L 171.078125 212.621094 L 171.078125 211.269531 L 169.726562 211.324219 C 172.160156 273.71875 175.949219 312.171875 175.945312 335.820312 C 175.945312 341.300781 173.839844 345.5625 170.753906 348.519531 C 167.664062 351.46875 163.558594 353.070312 159.605469 353.066406 C 156.03125 353.058594 152.621094 351.78125 150.066406 349.046875 C 147.511719 346.308594 145.746094 342.035156 145.742188 335.820312 C 145.742188 307.089844 147.640625 269.617188 149.027344 211.300781 L 147.667969 211.269531 L 147.667969 212.621094 L 147.667969 211.269531 " fill-opacity="1" fill-rule="nonzero"/></svg>