<svg xmlns="http://www.w3.org/2000/svg" xmlns:xlink="http://www.w3.org/1999/xlink" width="500" zoomAndPan="magnify" viewBox="0 0 375 374.999991" height="500" preserveAspectRatio="xMidYMid meet" version="1.0"><defs><clipPath id="1536c70e0f"><path d="M 37.5 0 L 145 0 L 145 97 L 37.5 97 Z M 37.5 0 " clip-rule="nonzero"/></clipPath><clipPath id="1fb429111f"><path d="M 37.5 87 L 140 87 L 140 349.5 L 37.5 349.5 Z M 37.5 87 " clip-rule="nonzero"/></clipPath><clipPath id="3ccf38d2d8"><path d="M 58 28 L 337 28 L 337 349.5 L 58 349.5 Z M 58 28 " clip-rule="nonzero"/></clipPath></defs><path fill="#99b1b8" d="M 39.707031 89.269531 C 63.167969 63.113281 114.261719 2.550781 112.585938 1.964844 C 111.0625 1.433594 134.929688 41.550781 142.984375 63.183594 L 58.511719 94.554688 L 39.707031 89.269531 " fill-opacity="1" fill-rule="nonzero"/><g clip-path="url(#1536c70e0f)"><path fill="#000000" d="M 58.511719 96.375 C 58.347656 96.375 58.179688 96.351562 58.019531 96.304688 L 39.210938 91.019531 C 38.605469 90.851562 38.132812 90.378906 37.957031 89.777344 C 37.78125 89.171875 37.929688 88.523438 38.347656 88.054688 C 60.535156 63.324219 106.59375 8.722656 110.65625 1.984375 C 110.605469 1.425781 110.828125 1.167969 111.144531 0.792969 C 111.632812 0.222656 112.472656 0 113.1875 0.25 C 113.761719 0.449219 114.234375 0.964844 114.386719 1.554688 C 114.429688 1.710938 114.46875 1.863281 114.445312 2.085938 C 115.132812 3.683594 117.871094 8.734375 120.75 14.054688 C 128.238281 27.871094 139.550781 48.75 144.691406 62.550781 C 144.859375 63.003906 144.839844 63.503906 144.640625 63.941406 C 144.4375 64.378906 144.070312 64.722656 143.621094 64.890625 L 59.148438 96.261719 C 58.945312 96.335938 58.726562 96.375 58.511719 96.375 Z M 43.007812 88.308594 L 58.433594 92.644531 L 140.625 62.117188 C 135.3125 48.570312 124.683594 28.949219 117.546875 15.785156 C 115.019531 11.113281 113.347656 8.027344 112.28125 5.945312 C 109.296875 10.15625 102.34375 18.875 86.441406 37.824219 C 71.300781 55.871094 54.210938 75.730469 43.007812 88.308594 Z M 43.007812 88.308594 " fill-opacity="1" fill-rule="nonzero"/></g><path fill="#99b1b8" d="M 137.417969 347.683594 L 117.382812 340.179688 L 39.710938 89.59375 L 60.558594 95.785156 " fill-opacity="1" fill-rule="nonzero"/><g clip-path="url(#1fb429111f)"><path fill="#000000" d="M 137.417969 349.503906 C 137.203125 349.503906 136.988281 349.464844 136.777344 349.386719 L 116.746094 341.882812 C 116.21875 341.683594 115.8125 341.253906 115.644531 340.714844 L 37.972656 90.132812 C 37.773438 89.492188 37.945312 88.792969 38.417969 88.316406 C 38.890625 87.835938 39.585938 87.660156 40.230469 87.851562 L 61.078125 94.042969 C 62.039062 94.328125 62.589844 95.339844 62.300781 96.304688 C 62.015625 97.269531 61.007812 97.816406 60.039062 97.53125 L 42.460938 92.308594 L 118.859375 338.785156 L 138.058594 345.980469 C 138.996094 346.332031 139.476562 347.378906 139.121094 348.320312 C 138.847656 349.050781 138.152344 349.503906 137.417969 349.503906 Z M 137.417969 349.503906 " fill-opacity="1" fill-rule="nonzero"/></g><path fill="#ffffff" d="M 45.273438 91.246094 C 73.355469 63.742188 107.894531 18.640625 112.585938 1.941406 C 119.265625 11.808594 138.566406 50.671875 142.207031 61.148438 " fill-opacity="1" fill-rule="nonzero"/><path fill="#000000" d="M 45.273438 93.066406 C 44.800781 93.066406 44.332031 92.882812 43.972656 92.519531 C 43.269531 91.800781 43.28125 90.648438 44 89.945312 C 72.679688 61.855469 106.410156 17.191406 110.832031 1.449219 C 111.027344 0.769531 111.597656 0.257812 112.296875 0.144531 C 113 0.0351562 113.699219 0.335938 114.09375 0.921875 C 121.070312 11.226562 140.394531 50.382812 143.925781 60.554688 C 144.253906 61.503906 143.753906 62.539062 142.804688 62.871094 C 141.851562 63.199219 140.816406 62.695312 140.484375 61.75 C 137.292969 52.554688 121.019531 19.351562 113.035156 6.058594 C 105.691406 23.441406 76.675781 63.035156 46.546875 92.542969 C 46.195312 92.894531 45.734375 93.066406 45.273438 93.066406 Z M 45.273438 93.066406 " fill-opacity="1" fill-rule="nonzero"/><path fill="#99b1b8" d="M 60.558594 95.785156 C 122.511719 71.097656 195.761719 50.554688 259.335938 30.398438 C 266.019531 58.015625 335.828125 283.746094 335.085938 285.894531 C 333.882812 289.386719 138.464844 348.089844 137.417969 347.683594 C 136.429688 347.296875 86.269531 173.617188 60.558594 95.785156 Z M 60.558594 95.785156 " fill-opacity="1" fill-rule="nonzero"/><g clip-path="url(#3ccf38d2d8)"><path fill="#000000" d="M 137.234375 349.472656 C 137.003906 349.472656 136.886719 349.425781 136.753906 349.375 C 135.683594 348.960938 135.683594 348.960938 130.570312 331.992188 C 127.503906 321.816406 123.222656 307.433594 118.199219 290.53125 C 101.015625 232.757812 75.046875 145.449219 58.828125 96.355469 C 58.523438 95.441406 58.988281 94.453125 59.882812 94.097656 C 106.210938 75.632812 158.449219 59.609375 208.96875 44.113281 C 226.308594 38.792969 242.691406 33.769531 258.785156 28.664062 C 259.265625 28.515625 259.792969 28.566406 260.230469 28.816406 C 260.667969 29.0625 260.988281 29.480469 261.105469 29.972656 C 264.589844 44.363281 285.652344 113.996094 304.234375 175.429688 C 336.039062 280.566406 337.238281 285.234375 336.808594 286.488281 C 336.527344 287.300781 335.832031 287.746094 334.570312 288.328125 C 324.789062 292.847656 264.964844 311.359375 230.175781 321.996094 C 208.394531 328.652344 185.246094 335.636719 166.664062 341.15625 C 142.519531 348.328125 138.402344 349.472656 137.234375 349.472656 Z M 62.820312 96.84375 C 79.089844 146.265625 104.6875 232.332031 121.6875 289.496094 C 129.964844 317.320312 136.683594 339.90625 138.554688 345.550781 C 146.664062 343.375 188.28125 331.03125 235 316.714844 C 290.953125 299.566406 327.042969 287.90625 333.085938 285.027344 C 331.179688 277.074219 315.726562 225.980469 300.75 176.484375 C 282.863281 117.34375 262.675781 50.613281 258.042969 32.71875 C 242.523438 37.625 226.726562 42.472656 210.035156 47.589844 C 160.167969 62.886719 108.617188 78.699219 62.820312 96.84375 Z M 333.820312 284.625 Z M 333.820312 284.625 " fill-opacity="1" fill-rule="nonzero"/></g><path fill="#ffffff" d="M 252.703125 32.496094 C 182.753906 53.035156 117.367188 74.007812 60.558594 95.785156 L 50.003906 92.136719 C 87.21875 68.933594 212.519531 31.378906 252.703125 32.496094 Z M 252.703125 32.496094 " fill-opacity="1" fill-rule="nonzero"/><path fill="#000000" d="M 60.558594 97.605469 C 60.355469 97.605469 60.152344 97.574219 59.960938 97.503906 L 49.40625 93.855469 C 48.746094 93.628906 48.273438 93.039062 48.195312 92.34375 C 48.117188 91.644531 48.445312 90.964844 49.039062 90.59375 C 87.621094 66.539062 213.230469 29.542969 252.753906 30.675781 C 253.648438 30.699219 254.394531 31.371094 254.507812 32.261719 C 254.625 33.148438 254.074219 33.988281 253.214844 34.238281 C 175.496094 57.0625 112.6875 77.75 61.207031 97.484375 C 61 97.566406 60.777344 97.605469 60.558594 97.605469 Z M 54.296875 91.695312 L 60.523438 93.851562 C 108.570312 75.457031 166.421875 56.242188 236.976562 35.246094 C 188.90625 40.914062 91.25 70.554688 54.296875 91.695312 Z M 54.296875 91.695312 " fill-opacity="1" fill-rule="nonzero"/><path fill="#ffffff" d="M 257.273438 155.28125 L 129.917969 195.601562 L 108.097656 121.574219 L 235.453125 81.257812 Z M 257.273438 155.28125 " fill-opacity="1" fill-rule="nonzero"/><path fill="#000000" d="M 129.917969 197.417969 C 129.621094 197.417969 129.328125 197.347656 129.0625 197.207031 C 128.628906 196.976562 128.308594 196.582031 128.167969 196.113281 L 106.347656 122.089844 C 106.070312 121.140625 106.601562 120.140625 107.546875 119.839844 L 234.902344 79.523438 C 235.367188 79.375 235.875 79.421875 236.308594 79.652344 C 236.738281 79.878906 237.0625 80.273438 237.199219 80.742188 L 259.019531 154.765625 C 259.296875 155.714844 258.765625 156.714844 257.824219 157.015625 L 130.464844 197.335938 C 130.285156 197.390625 130.101562 197.417969 129.917969 197.417969 Z M 110.347656 122.769531 L 131.136719 193.304688 L 255.019531 154.085938 L 234.230469 83.550781 Z M 110.347656 122.769531 " fill-opacity="1" fill-rule="nonzero"/></svg>