<svg xmlns="http://www.w3.org/2000/svg" xmlns:xlink="http://www.w3.org/1999/xlink" width="500" zoomAndPan="magnify" viewBox="0 0 375 374.999991" height="500" preserveAspectRatio="xMidYMid meet" version="1.0"><defs><clipPath id="56cbe2a570"><path d="M 89 67.4375 L 201 67.4375 L 201 131 L 89 131 Z M 89 67.4375 " clip-rule="nonzero"/></clipPath></defs><path fill="#cad6dd" d="M 198.394531 88.621094 C 204.433594 98.945312 167.414062 129.351562 144.824219 129.351562 C 113.925781 129.351562 92.757812 103.15625 91.199219 88.0625 C 89.644531 72.964844 132.152344 67.742188 141.265625 69.082031 C 150.382812 70.425781 193.246094 79.820312 198.394531 88.621094 " fill-opacity="1" fill-rule="nonzero"/><g clip-path="url(#56cbe2a570)"><path fill="#000000" d="M 198.394531 88.621094 L 197.140625 89.351562 C 197.441406 89.867188 197.597656 90.460938 197.601562 91.214844 C 197.605469 92.386719 197.175781 93.921875 196.285156 95.65625 C 194.738281 98.699219 191.84375 102.316406 188.089844 105.949219 C 182.460938 111.40625 174.910156 116.9375 167.121094 121.0625 C 159.34375 125.203125 151.296875 127.917969 144.824219 127.90625 C 129.796875 127.90625 117.117188 121.539062 107.980469 113.296875 C 103.414062 109.179688 99.746094 104.597656 97.140625 100.152344 C 94.535156 95.714844 93 91.402344 92.640625 87.917969 C 92.617188 87.691406 92.605469 87.472656 92.605469 87.257812 C 92.609375 85.945312 93.015625 84.742188 93.816406 83.539062 C 95.210938 81.441406 97.914062 79.445312 101.414062 77.757812 C 106.652344 75.21875 113.601562 73.335938 120.285156 72.117188 C 126.96875 70.894531 133.410156 70.324219 137.632812 70.324219 C 139.078125 70.324219 140.265625 70.394531 141.054688 70.515625 C 143.269531 70.839844 147.644531 71.675781 152.996094 72.875 C 161.03125 74.679688 171.300781 77.308594 179.988281 80.292969 C 184.332031 81.785156 188.277344 83.363281 191.324219 84.949219 C 192.84375 85.738281 194.136719 86.53125 195.132812 87.289062 C 196.128906 88.039062 196.808594 88.769531 197.140625 89.351562 L 198.394531 88.621094 L 199.644531 87.894531 C 198.800781 86.472656 197.410156 85.277344 195.628906 84.101562 C 192.507812 82.066406 188.121094 80.140625 183.109375 78.328125 C 175.605469 75.613281 166.722656 73.171875 158.957031 71.292969 C 151.183594 69.417969 144.554688 68.109375 141.476562 67.652344 C 140.457031 67.503906 139.171875 67.433594 137.632812 67.433594 C 130.835938 67.441406 119.167969 68.789062 109.019531 71.804688 C 103.945312 73.320312 99.261719 75.238281 95.726562 77.71875 C 93.964844 78.957031 92.480469 80.339844 91.410156 81.929688 C 90.34375 83.511719 89.707031 85.320312 89.710938 87.257812 C 89.710938 87.574219 89.730469 87.894531 89.765625 88.214844 C 90.1875 92.273438 91.878906 96.894531 94.644531 101.613281 C 98.792969 108.679688 105.371094 115.949219 113.902344 121.476562 C 122.429688 127.007812 132.929688 130.796875 144.824219 130.796875 C 150.355469 130.792969 156.515625 129.09375 162.699219 126.410156 C 171.976562 122.382812 181.300781 116.105469 188.382812 109.644531 C 191.925781 106.410156 194.902344 103.136719 197.03125 100.023438 C 198.09375 98.464844 198.949219 96.953125 199.546875 95.484375 C 200.144531 94.019531 200.492188 92.59375 200.496094 91.214844 C 200.496094 90.046875 200.234375 88.898438 199.644531 87.894531 L 198.394531 88.621094 " fill-opacity="1" fill-rule="nonzero"/></g><path fill="#ffffff" d="M 85.496094 175.414062 C 85.414062 178.082031 87.480469 189.453125 89.679688 195.753906 C 92.25 203.136719 114.488281 203.375 141.289062 218.929688 C 172.15625 236.839844 235.976562 264.425781 268.816406 266.089844 C 330.167969 269.195312 366.585938 245.492188 369.855469 242.480469 C 373.121094 239.472656 374.921875 222.101562 370.320312 220.785156 C 364.066406 219 257.761719 192.183594 244.875 188.199219 C 231.976562 184.214844 86.070312 157.164062 85.496094 175.414062 " fill-opacity="1" fill-rule="nonzero"/><path fill="#000000" d="M 85.496094 175.414062 L 84.050781 175.359375 L 84.046875 175.578125 C 84.050781 176.46875 84.183594 177.722656 84.410156 179.308594 C 85.101562 184.046875 86.644531 191.429688 88.3125 196.230469 C 88.738281 197.464844 89.570312 198.492188 90.617188 199.347656 C 92.460938 200.847656 95.011719 201.960938 98.199219 203.109375 C 102.976562 204.816406 109.203125 206.550781 116.429688 209.132812 C 123.652344 211.710938 131.863281 215.128906 140.5625 220.179688 C 156.089844 229.183594 179.796875 240.574219 203.789062 249.945312 C 215.777344 254.632812 227.84375 258.8125 238.984375 261.929688 C 250.136719 265.042969 260.359375 267.105469 268.742188 267.53125 C 272.523438 267.722656 276.214844 267.816406 279.808594 267.816406 C 307.339844 267.816406 329.257812 262.511719 344.6875 256.839844 C 352.410156 254.003906 358.503906 251.078125 362.878906 248.671875 C 365.066406 247.46875 366.824219 246.394531 368.144531 245.527344 C 368.804688 245.089844 369.351562 244.703125 369.796875 244.378906 C 370.242188 244.046875 370.578125 243.777344 370.835938 243.546875 C 371.550781 242.867188 372.035156 242 372.476562 240.976562 C 373.125 239.4375 373.628906 237.511719 373.988281 235.429688 C 374.339844 233.347656 374.539062 231.117188 374.539062 229 C 374.539062 226.855469 374.34375 224.835938 373.835938 223.148438 C 373.574219 222.304688 373.238281 221.539062 372.753906 220.871094 C 372.265625 220.214844 371.582031 219.644531 370.714844 219.394531 C 369.890625 219.164062 367.5625 218.554688 364.027344 217.636719 C 351.664062 214.445312 324.789062 207.605469 299.589844 201.132812 C 286.992188 197.890625 274.816406 194.746094 265.082031 192.191406 C 255.359375 189.636719 248.054688 187.667969 245.300781 186.816406 C 243.992188 186.414062 241.601562 185.839844 238.246094 185.109375 C 226.53125 182.554688 203.28125 178.214844 178.359375 174.5 C 153.429688 170.789062 126.871094 167.707031 108.449219 167.707031 C 101.511719 167.710938 95.730469 168.136719 91.515625 169.183594 C 89.410156 169.714844 87.675781 170.390625 86.347656 171.367188 C 85.691406 171.851562 85.125 172.421875 84.71875 173.105469 C 84.308594 173.777344 84.074219 174.566406 84.050781 175.371094 L 84.050781 175.359375 L 85.496094 175.414062 L 86.945312 175.457031 C 86.957031 175.132812 87.035156 174.875 87.199219 174.589844 C 87.488281 174.097656 88.144531 173.523438 89.25 173 C 90.90625 172.210938 93.488281 171.578125 96.757812 171.183594 C 100.023438 170.78125 103.980469 170.597656 108.449219 170.597656 C 129.15625 170.59375 160.824219 174.597656 188.457031 178.976562 C 202.277344 181.167969 215.097656 183.453125 225.058594 185.375 C 230.042969 186.339844 234.3125 187.207031 237.628906 187.929688 C 240.941406 188.652344 243.328125 189.230469 244.445312 189.578125 C 246.097656 190.089844 249.167969 190.945312 253.328125 192.066406 C 267.882812 195.980469 295.667969 203.121094 320.503906 209.476562 C 332.921875 212.65625 344.601562 215.636719 353.519531 217.925781 C 357.976562 219.066406 361.742188 220.03125 364.566406 220.765625 C 367.382812 221.492188 369.273438 221.992188 369.917969 222.179688 C 370.046875 222.214844 370.203125 222.300781 370.425781 222.59375 C 370.753906 223.027344 371.101562 223.894531 371.316406 225.023438 C 371.539062 226.15625 371.648438 227.53125 371.644531 229 C 371.648438 231.578125 371.308594 234.4375 370.757812 236.796875 C 370.488281 237.976562 370.15625 239.03125 369.808594 239.847656 C 369.46875 240.664062 369.082031 241.234375 368.871094 241.417969 C 368.746094 241.535156 368.46875 241.765625 368.074219 242.054688 C 366.597656 243.148438 363.492188 245.148438 358.910156 247.507812 C 345.152344 254.582031 318 264.921875 279.808594 264.921875 C 276.265625 264.921875 272.621094 264.832031 268.890625 264.644531 C 260.851562 264.242188 250.785156 262.226562 239.769531 259.144531 C 206.699219 249.902344 165.03125 231.039062 142.015625 217.679688 C 128.472656 209.816406 116.078125 205.832031 106.832031 202.898438 C 102.21875 201.4375 98.386719 200.230469 95.65625 198.984375 C 94.296875 198.367188 93.214844 197.738281 92.453125 197.113281 C 91.691406 196.484375 91.261719 195.890625 91.046875 195.28125 C 90.003906 192.304688 88.964844 188.027344 88.195312 184.171875 C 87.816406 182.242188 87.496094 180.414062 87.277344 178.894531 C 87.058594 177.390625 86.9375 176.164062 86.941406 175.578125 L 86.945312 175.46875 L 86.945312 175.457031 L 85.496094 175.414062 " fill-opacity="1" fill-rule="nonzero"/><path fill="#ffffff" d="M 85.496094 175.414062 C 85.414062 178.082031 87.480469 189.453125 89.679688 195.753906 C 92.25 203.136719 114.488281 203.375 141.289062 218.929688 C 172.15625 236.839844 235.976562 264.425781 268.816406 266.089844 C 330.167969 269.195312 366.585938 245.492188 369.855469 242.480469 C 373.121094 239.472656 374.921875 222.101562 370.320312 220.785156 C 364.066406 219 257.761719 192.183594 244.875 188.199219 C 231.976562 184.214844 86.070312 157.164062 85.496094 175.414062 " fill-opacity="1" fill-rule="nonzero"/><path fill="#000000" d="M 85.496094 175.414062 L 84.050781 175.359375 L 84.046875 175.578125 C 84.050781 176.46875 84.183594 177.722656 84.410156 179.308594 C 85.101562 184.046875 86.644531 191.429688 88.3125 196.230469 C 88.738281 197.464844 89.570312 198.492188 90.617188 199.347656 C 92.460938 200.847656 95.011719 201.960938 98.199219 203.109375 C 102.976562 204.816406 109.203125 206.550781 116.429688 209.132812 C 123.652344 211.710938 131.863281 215.128906 140.5625 220.179688 C 156.089844 229.183594 179.796875 240.574219 203.789062 249.945312 C 215.777344 254.632812 227.84375 258.8125 238.984375 261.929688 C 250.136719 265.042969 260.359375 267.105469 268.742188 267.53125 C 272.523438 267.722656 276.214844 267.816406 279.808594 267.816406 C 307.339844 267.816406 329.257812 262.511719 344.6875 256.839844 C 352.410156 254.003906 358.503906 251.078125 362.878906 248.671875 C 365.066406 247.46875 366.824219 246.394531 368.144531 245.527344 C 368.804688 245.089844 369.351562 244.703125 369.796875 244.378906 C 370.242188 244.046875 370.578125 243.777344 370.835938 243.546875 C 371.550781 242.867188 372.035156 242 372.476562 240.976562 C 373.125 239.4375 373.628906 237.511719 373.988281 235.429688 C 374.339844 233.347656 374.539062 231.117188 374.539062 229 C 374.539062 226.855469 374.34375 224.835938 373.835938 223.148438 C 373.574219 222.304688 373.238281 221.539062 372.753906 220.871094 C 372.265625 220.214844 371.582031 219.644531 370.714844 219.394531 C 369.890625 219.164062 367.5625 218.554688 364.027344 217.636719 C 351.664062 214.445312 324.789062 207.605469 299.589844 201.132812 C 286.992188 197.890625 274.816406 194.746094 265.082031 192.191406 C 255.359375 189.636719 248.054688 187.667969 245.300781 186.816406 C 243.992188 186.414062 241.601562 185.839844 238.246094 185.109375 C 226.53125 182.554688 203.28125 178.214844 178.359375 174.5 C 153.429688 170.789062 126.871094 167.707031 108.449219 167.707031 C 101.511719 167.710938 95.730469 168.136719 91.515625 169.183594 C 89.410156 169.714844 87.675781 170.390625 86.347656 171.367188 C 85.691406 171.851562 85.125 172.421875 84.71875 173.105469 C 84.308594 173.777344 84.074219 174.566406 84.050781 175.371094 L 84.050781 175.359375 L 85.496094 175.414062 L 86.945312 175.457031 C 86.957031 175.132812 87.035156 174.875 87.199219 174.589844 C 87.488281 174.097656 88.144531 173.523438 89.25 173 C 90.90625 172.210938 93.488281 171.578125 96.757812 171.183594 C 100.023438 170.78125 103.980469 170.597656 108.449219 170.597656 C 129.15625 170.59375 160.824219 174.597656 188.457031 178.976562 C 202.277344 181.167969 215.097656 183.453125 225.058594 185.375 C 230.042969 186.339844 234.3125 187.207031 237.628906 187.929688 C 240.941406 188.652344 243.328125 189.230469 244.445312 189.578125 C 246.097656 190.089844 249.167969 190.945312 253.328125 192.066406 C 267.882812 195.980469 295.667969 203.121094 320.503906 209.476562 C 332.921875 212.65625 344.601562 215.636719 353.519531 217.925781 C 357.976562 219.066406 361.742188 220.03125 364.566406 220.765625 C 367.382812 221.492188 369.273438 221.992188 369.917969 222.179688 C 370.046875 222.214844 370.203125 222.300781 370.425781 222.59375 C 370.753906 223.027344 371.101562 223.894531 371.316406 225.023438 C 371.539062 226.15625 371.648438 227.53125 371.644531 229 C 371.648438 231.578125 371.308594 234.4375 370.757812 236.796875 C 370.488281 237.976562 370.15625 239.03125 369.808594 239.847656 C 369.46875 240.664062 369.082031 241.234375 368.871094 241.417969 C 368.746094 241.535156 368.46875 241.765625 368.074219 242.054688 C 366.597656 243.148438 363.492188 245.148438 358.910156 247.507812 C 345.152344 254.582031 318 264.921875 279.808594 264.921875 C 276.265625 264.921875 272.621094 264.832031 268.890625 264.644531 C 260.851562 264.242188 250.785156 262.226562 239.769531 259.144531 C 206.699219 249.902344 165.03125 231.039062 142.015625 217.679688 C 128.472656 209.816406 116.078125 205.832031 106.832031 202.898438 C 102.21875 201.4375 98.386719 200.230469 95.65625 198.984375 C 94.296875 198.367188 93.214844 197.738281 92.453125 197.113281 C 91.691406 196.484375 91.261719 195.890625 91.046875 195.28125 C 90.003906 192.304688 88.964844 188.027344 88.195312 184.171875 C 87.816406 182.242188 87.496094 180.414062 87.277344 178.894531 C 87.058594 177.390625 86.9375 176.164062 86.941406 175.578125 L 86.945312 175.46875 L 86.945312 175.457031 L 85.496094 175.414062 " fill-opacity="1" fill-rule="nonzero"/><path fill="#475d64" d="M 279.140625 155.433594 C 287.773438 160.609375 251.699219 180.742188 245.316406 180.742188 C 238.933594 180.742188 161.292969 105.546875 161.292969 95.492188 C 161.292969 85.4375 193.832031 76.421875 199.972656 78.175781 C 212.421875 81.730469 251.574219 138.910156 279.140625 155.433594 " fill-opacity="1" fill-rule="nonzero"/><path fill="#000000" d="M 279.140625 155.433594 L 278.394531 156.675781 C 278.699219 156.859375 278.839844 157.015625 278.914062 157.136719 C 278.984375 157.257812 279.015625 157.355469 279.019531 157.539062 C 279.019531 157.730469 278.96875 158.027344 278.800781 158.402344 C 278.503906 159.113281 277.835938 160.070312 276.863281 161.113281 C 275.164062 162.941406 272.570312 165.042969 269.589844 167.121094 C 265.117188 170.238281 259.769531 173.324219 255.132812 175.609375 C 252.816406 176.75 250.679688 177.691406 248.9375 178.339844 C 248.066406 178.660156 247.296875 178.90625 246.667969 179.070312 C 246.046875 179.234375 245.546875 179.300781 245.316406 179.296875 L 245.316406 179.691406 L 245.375 179.300781 L 245.316406 179.296875 L 245.316406 179.691406 L 245.375 179.300781 L 245.242188 179.261719 C 244.886719 179.140625 244.082031 178.707031 243.078125 178.027344 C 241.175781 176.742188 238.4375 174.597656 235.164062 171.824219 C 223.675781 162.125 205.449219 144.792969 190.140625 128.910156 C 182.484375 120.972656 175.550781 113.394531 170.558594 107.328125 C 168.0625 104.296875 166.050781 101.644531 164.695312 99.546875 C 164.015625 98.5 163.5 97.59375 163.175781 96.878906 C 162.84375 96.164062 162.730469 95.628906 162.738281 95.492188 C 162.738281 94.703125 163.027344 93.859375 163.671875 92.917969 C 164.796875 91.269531 167.015625 89.488281 169.84375 87.863281 C 174.089844 85.417969 179.667969 83.277344 184.90625 81.777344 C 187.523438 81.023438 190.0625 80.425781 192.300781 80.015625 C 194.539062 79.613281 196.488281 79.398438 197.878906 79.402344 C 198.660156 79.398438 199.265625 79.476562 199.574219 79.566406 C 200.152344 79.730469 200.933594 80.097656 201.835938 80.667969 C 203.527344 81.738281 205.648438 83.503906 208.046875 85.785156 C 212.253906 89.785156 217.339844 95.363281 222.9375 101.679688 C 231.332031 111.160156 240.886719 122.3125 250.480469 132.386719 C 260.082031 142.457031 269.695312 151.453125 278.394531 156.675781 L 279.886719 154.195312 C 273.175781 150.175781 265.609375 143.566406 257.917969 135.867188 C 246.363281 124.320312 234.480469 110.324219 224.304688 98.867188 C 219.214844 93.136719 214.558594 88.035156 210.542969 84.167969 C 208.535156 82.234375 206.691406 80.609375 205.011719 79.355469 C 203.328125 78.101562 201.828125 77.207031 200.367188 76.785156 C 199.632812 76.578125 198.824219 76.511719 197.878906 76.511719 C 195.347656 76.515625 191.835938 77.054688 187.894531 77.996094 C 181.988281 79.410156 175.175781 81.730469 169.730469 84.621094 C 167.007812 86.074219 164.625 87.664062 162.847656 89.433594 C 161.960938 90.320312 161.222656 91.253906 160.691406 92.261719 C 160.164062 93.265625 159.84375 94.359375 159.84375 95.492188 C 159.847656 96.039062 159.964844 96.546875 160.144531 97.082031 C 160.492188 98.109375 161.089844 99.246094 161.914062 100.5625 C 163.453125 103.027344 165.777344 106.09375 168.710938 109.628906 C 178.957031 121.992188 196.570312 140.007812 212.300781 154.980469 C 220.160156 162.464844 227.546875 169.179688 233.304688 174.046875 C 236.1875 176.476562 238.660156 178.449219 240.609375 179.832031 C 241.585938 180.53125 242.429688 181.074219 243.160156 181.472656 C 243.53125 181.675781 243.871094 181.835938 244.207031 181.960938 C 244.550781 182.085938 244.878906 182.1875 245.316406 182.191406 C 245.84375 182.191406 246.375 182.101562 246.96875 181.972656 C 249.179688 181.46875 252.3125 180.191406 255.914062 178.445312 C 261.304688 175.824219 267.648438 172.144531 272.710938 168.445312 C 275.246094 166.589844 277.457031 164.738281 279.09375 162.960938 C 279.910156 162.070312 280.585938 161.195312 281.082031 160.3125 C 281.574219 159.425781 281.910156 158.519531 281.914062 157.539062 C 281.917969 156.886719 281.742188 156.203125 281.378906 155.621094 C 281.015625 155.03125 280.496094 154.5625 279.882812 154.195312 L 279.140625 155.433594 " fill-opacity="1" fill-rule="nonzero"/><path fill="#475d64" d="M 91.199219 88.0625 C 91.199219 88.0625 86.144531 93.261719 89.488281 101.746094 C 96.328125 119.097656 71.113281 140.78125 85.335938 173.195312 C 88.480469 180.347656 110.9375 182.0625 137.730469 197.617188 C 168.601562 215.527344 232.421875 243.113281 265.261719 244.777344 C 326.613281 247.886719 370.320312 220.785156 370.320312 220.785156 C 370.320312 220.785156 375.136719 197.980469 359.222656 182.195312 C 350.429688 173.472656 295.996094 163.972656 280.4375 152.769531 C 244.964844 127.238281 224.265625 91.714844 220.878906 87.941406 C 214.507812 80.839844 210.457031 86.101562 210.457031 86.101562 C 210.457031 86.101562 258.652344 144.332031 272.433594 153.660156 C 279.5625 158.484375 254.207031 170.863281 241.316406 166.886719 C 228.421875 162.902344 210.289062 147.933594 195.96875 129.238281 C 187.191406 117.777344 179.324219 106.496094 170.183594 104.375 C 151.070312 99.933594 153.492188 121.476562 127.265625 117.484375 C 102.382812 113.691406 91.199219 88.0625 91.199219 88.0625 " fill-opacity="1" fill-rule="nonzero"/><path fill="#000000" d="M 91.199219 88.0625 L 90.164062 87.054688 C 90.09375 87.128906 89.289062 87.964844 88.492188 89.492188 C 87.691406 91.019531 86.894531 93.253906 86.894531 96.058594 C 86.894531 97.914062 87.246094 100.007812 88.144531 102.277344 C 88.914062 104.234375 89.242188 106.253906 89.246094 108.398438 C 89.257812 114.015625 86.890625 120.480469 84.425781 127.816406 C 81.972656 135.152344 79.460938 143.390625 79.457031 152.703125 C 79.457031 159.210938 80.699219 166.238281 84.007812 173.773438 C 84.527344 174.957031 85.402344 175.9375 86.492188 176.792969 C 88.40625 178.296875 91.035156 179.503906 94.292969 180.773438 C 99.171875 182.667969 105.480469 184.65625 112.765625 187.445312 C 120.050781 190.230469 128.296875 193.8125 137.003906 198.867188 C 152.53125 207.875 176.242188 219.265625 200.230469 228.636719 C 212.222656 233.320312 224.285156 237.5 235.429688 240.617188 C 246.578125 243.734375 256.800781 245.792969 265.1875 246.222656 C 268.539062 246.390625 271.839844 246.472656 275.085938 246.472656 C 331.648438 246.460938 370.953125 222.089844 371.078125 222.015625 C 371.417969 221.804688 371.652344 221.472656 371.734375 221.085938 C 371.75 221.015625 372.449219 217.679688 372.453125 212.65625 C 372.449219 208.507812 371.972656 203.207031 370.210938 197.648438 C 368.449219 192.09375 365.386719 186.269531 360.246094 181.167969 C 358.925781 179.871094 357.007812 178.738281 354.574219 177.578125 C 350.3125 175.566406 344.46875 173.5625 337.839844 171.503906 C 327.898438 168.421875 316.210938 165.230469 305.761719 161.902344 C 300.539062 160.234375 295.625 158.539062 291.410156 156.8125 C 287.195312 155.089844 283.675781 153.324219 281.28125 151.59375 C 263.695312 138.941406 249.734375 123.769531 239.757812 111.292969 C 234.765625 105.054688 230.773438 99.492188 227.816406 95.246094 C 226.335938 93.125 225.113281 91.332031 224.148438 89.941406 C 223.664062 89.246094 223.246094 88.652344 222.886719 88.160156 C 222.527344 87.667969 222.234375 87.289062 221.957031 86.980469 C 220.585938 85.449219 219.269531 84.402344 218.003906 83.734375 C 216.734375 83.0625 215.515625 82.777344 214.417969 82.78125 C 212.789062 82.78125 211.507812 83.390625 210.667969 83.976562 C 209.820312 84.566406 209.371094 85.140625 209.304688 85.222656 C 208.894531 85.75 208.910156 86.503906 209.339844 87.023438 C 209.34375 87.027344 221.398438 101.59375 235.183594 117.335938 C 242.082031 125.207031 249.410156 133.371094 255.886719 140.167969 C 259.125 143.5625 262.152344 146.617188 264.820312 149.128906 C 267.488281 151.644531 269.777344 153.605469 271.625 154.855469 C 271.914062 155.050781 272.0625 155.222656 272.132812 155.34375 C 272.203125 155.46875 272.222656 155.542969 272.226562 155.671875 C 272.230469 155.863281 272.136719 156.234375 271.800781 156.730469 C 271.230469 157.601562 269.988281 158.730469 268.296875 159.820312 C 265.769531 161.472656 262.253906 163.089844 258.484375 164.277344 C 254.714844 165.460938 250.679688 166.214844 247.105469 166.214844 C 245.128906 166.214844 243.300781 165.984375 241.742188 165.503906 C 235.59375 163.613281 227.9375 158.96875 220.101562 152.46875 C 212.261719 145.96875 204.214844 137.621094 197.117188 128.359375 C 192.742188 122.644531 188.566406 116.929688 184.273438 112.316406 C 182.125 110.011719 179.949219 107.980469 177.675781 106.367188 C 175.402344 104.75 173.03125 103.554688 170.511719 102.964844 C 168.617188 102.523438 166.898438 102.320312 165.308594 102.320312 C 161.859375 102.3125 159.070312 103.3125 156.710938 104.75 C 154.9375 105.828125 153.386719 107.132812 151.851562 108.449219 C 149.550781 110.433594 147.296875 112.449219 144.457031 113.964844 C 141.617188 115.472656 138.191406 116.527344 133.402344 116.53125 C 131.628906 116.53125 129.664062 116.382812 127.480469 116.054688 C 121.488281 115.136719 116.320312 112.914062 111.917969 110.070312 C 105.316406 105.8125 100.445312 100.144531 97.238281 95.546875 C 95.636719 93.246094 94.453125 91.214844 93.671875 89.769531 C 93.28125 89.046875 92.996094 88.464844 92.804688 88.070312 C 92.707031 87.875 92.636719 87.722656 92.59375 87.625 L 92.542969 87.515625 L 92.527344 87.488281 C 92.335938 87.042969 91.9375 86.726562 91.460938 86.640625 C 90.984375 86.554688 90.503906 86.707031 90.164062 87.054688 L 91.199219 88.0625 L 89.875 88.640625 C 89.914062 88.726562 92.757812 95.242188 98.804688 102.292969 C 101.828125 105.816406 105.652344 109.472656 110.347656 112.503906 C 115.035156 115.53125 120.601562 117.929688 127.042969 118.910156 C 129.355469 119.261719 131.464844 119.421875 133.402344 119.421875 C 138.039062 119.425781 141.707031 118.488281 144.722656 117.066406 C 149.246094 114.929688 152.277344 111.792969 155.238281 109.382812 C 156.71875 108.167969 158.171875 107.125 159.773438 106.390625 C 161.378906 105.660156 163.132812 105.214844 165.308594 105.214844 C 166.648438 105.214844 168.144531 105.386719 169.855469 105.78125 C 171.90625 106.257812 173.945312 107.265625 175.996094 108.722656 C 179.070312 110.902344 182.140625 114.089844 185.25 117.820312 C 188.367188 121.546875 191.519531 125.808594 194.820312 130.117188 C 202.046875 139.550781 210.226562 148.035156 218.25 154.695312 C 226.289062 161.34375 234.144531 166.171875 240.890625 168.265625 C 242.804688 168.859375 244.910156 169.105469 247.105469 169.105469 C 253.160156 169.097656 259.933594 167.21875 265.3125 164.734375 C 268.003906 163.488281 270.339844 162.09375 272.074219 160.628906 C 272.941406 159.894531 273.667969 159.144531 274.207031 158.339844 C 274.742188 157.535156 275.117188 156.65625 275.121094 155.671875 C 275.125 155.046875 274.949219 154.402344 274.613281 153.855469 C 274.28125 153.300781 273.804688 152.839844 273.246094 152.460938 C 271.640625 151.378906 269.410156 149.484375 266.804688 147.027344 C 257.664062 138.414062 243.820312 122.925781 232.304688 109.621094 C 226.546875 102.96875 221.363281 96.859375 217.613281 92.410156 C 215.746094 90.1875 214.234375 88.375 213.1875 87.125 C 212.144531 85.875 211.570312 85.183594 211.566406 85.179688 L 210.457031 86.101562 L 211.601562 86.984375 L 211.230469 86.695312 L 211.59375 86.992188 L 211.601562 86.984375 L 211.230469 86.695312 L 211.59375 86.992188 C 211.609375 86.96875 211.914062 86.609375 212.414062 86.285156 C 212.917969 85.957031 213.582031 85.671875 214.417969 85.671875 C 215.023438 85.671875 215.75 85.816406 216.648438 86.289062 C 217.542969 86.761719 218.605469 87.574219 219.800781 88.910156 C 219.953125 89.074219 220.214844 89.410156 220.546875 89.867188 C 221.804688 91.585938 224.066406 94.988281 227.226562 99.441406 C 236.71875 112.824219 254.441406 135.839844 279.589844 153.945312 C 281.660156 155.429688 284.28125 156.835938 287.335938 158.210938 C 292.667969 160.613281 299.304688 162.910156 306.394531 165.132812 C 317.03125 168.472656 328.6875 171.65625 338.375 174.703125 C 343.21875 176.226562 347.566406 177.722656 351.019531 179.167969 C 352.75 179.890625 354.253906 180.605469 355.472656 181.289062 C 356.695312 181.976562 357.625 182.644531 358.203125 183.222656 C 362.972656 187.949219 365.796875 193.324219 367.449219 198.523438 C 369.097656 203.714844 369.558594 208.730469 369.558594 212.65625 C 369.558594 215.03125 369.386719 217.007812 369.222656 218.378906 C 369.140625 219.070312 369.058594 219.601562 369 219.964844 C 368.96875 220.140625 368.941406 220.277344 368.925781 220.367188 L 368.90625 220.464844 L 368.902344 220.488281 L 370.320312 220.785156 L 369.554688 219.558594 L 369.535156 219.574219 C 368.46875 220.230469 329.929688 243.589844 275.085938 243.578125 C 271.886719 243.578125 268.632812 243.5 265.332031 243.335938 C 257.296875 242.929688 247.230469 240.917969 236.210938 237.832031 C 203.140625 228.589844 161.476562 209.726562 138.457031 196.367188 C 124.933594 188.511719 112.503906 184.160156 103.144531 180.890625 C 98.464844 179.261719 94.546875 177.894531 91.703125 176.535156 C 90.277344 175.859375 89.125 175.191406 88.285156 174.523438 C 87.441406 173.863281 86.925781 173.226562 86.660156 172.617188 C 83.511719 165.433594 82.355469 158.847656 82.351562 152.703125 C 82.351562 143.917969 84.730469 136.015625 87.171875 128.734375 C 89.59375 121.445312 92.121094 114.804688 92.136719 108.398438 C 92.140625 105.957031 91.757812 103.550781 90.835938 101.214844 C 90.066406 99.269531 89.792969 97.550781 89.789062 96.058594 C 89.789062 93.804688 90.429688 92.039062 91.058594 90.835938 C 91.371094 90.230469 91.683594 89.773438 91.914062 89.472656 C 92.023438 89.324219 92.117188 89.210938 92.171875 89.144531 L 92.238281 89.074219 L 92.246094 89.066406 L 91.824219 88.664062 L 92.242188 89.074219 L 92.246094 89.066406 L 91.824219 88.664062 L 92.242188 89.074219 L 91.199219 88.0625 L 89.875 88.640625 L 91.199219 88.0625 " fill-opacity="1" fill-rule="nonzero"/><path fill="#ffffff" d="M 370.3125 220.785156 C 370.3125 220.785156 326.609375 247.886719 265.261719 244.78125 C 232.421875 243.113281 168.601562 215.53125 137.730469 197.613281 C 129.089844 192.609375 120.910156 189.03125 113.679688 186.25 C 117.070312 169.882812 112.925781 157.824219 106.855469 149.285156 C 108.199219 150.148438 109.589844 150.96875 110.949219 151.816406 C 114.25 153.871094 118.085938 156.972656 121.34375 159.136719 C 125.890625 162.15625 128.707031 165.089844 132.429688 169.179688 C 141.871094 179.539062 154.75 188.417969 167.386719 194.894531 C 194.523438 208.832031 245.933594 217.214844 276.355469 219.074219 C 305.097656 220.832031 342.085938 207.675781 365.464844 190.535156 C 373.09375 206.0625 370.3125 220.785156 370.3125 220.785156 " fill-opacity="1" fill-rule="nonzero"/><path fill="#000000" d="M 370.3125 220.785156 L 369.550781 219.554688 L 369.527344 219.570312 C 368.460938 220.230469 329.921875 243.589844 275.070312 243.582031 C 271.875 243.582031 268.628906 243.503906 265.332031 243.339844 C 257.296875 242.929688 247.230469 240.917969 236.210938 237.832031 C 203.140625 228.589844 161.476562 209.726562 138.457031 196.363281 C 129.734375 191.308594 121.476562 187.703125 114.199219 184.898438 L 113.679688 186.25 L 115.097656 186.539062 C 115.957031 182.394531 116.34375 178.5 116.34375 174.859375 C 116.347656 163.800781 112.75 155.066406 108.039062 148.449219 L 106.855469 149.285156 L 106.074219 150.496094 C 107.445312 151.386719 108.84375 152.207031 110.183594 153.042969 C 113.371094 155.023438 117.203125 158.117188 120.539062 160.335938 C 122.75 161.804688 124.519531 163.238281 126.207031 164.808594 C 127.894531 166.386719 129.503906 168.113281 131.363281 170.148438 C 140.964844 180.6875 153.96875 189.636719 166.722656 196.175781 C 180.507812 203.253906 200.226562 208.839844 220.351562 212.929688 C 240.46875 217.015625 260.972656 219.585938 276.265625 220.519531 C 278.023438 220.628906 279.8125 220.675781 281.621094 220.675781 C 295.777344 220.675781 311.378906 217.492188 326.234375 212.289062 C 341.09375 207.082031 355.191406 199.855469 366.320312 191.699219 L 365.464844 190.535156 L 364.164062 191.171875 C 368.449219 199.890625 369.359375 208.378906 369.359375 213.976562 C 369.359375 216.015625 369.242188 217.667969 369.121094 218.800781 C 369.058594 219.371094 369.003906 219.804688 368.957031 220.097656 C 368.933594 220.242188 368.921875 220.351562 368.90625 220.425781 L 368.894531 220.5 L 368.890625 220.519531 L 370.3125 220.785156 L 369.550781 219.554688 L 370.3125 220.785156 L 371.734375 221.054688 C 371.746094 220.984375 372.253906 218.28125 372.253906 213.976562 C 372.253906 208.074219 371.300781 199.144531 366.761719 189.898438 C 366.570312 189.511719 366.222656 189.234375 365.804688 189.132812 C 365.386719 189.027344 364.949219 189.113281 364.605469 189.371094 C 353.761719 197.320312 339.882812 204.445312 325.277344 209.5625 C 310.675781 214.679688 295.34375 217.789062 281.621094 217.789062 C 279.867188 217.789062 278.136719 217.734375 276.441406 217.632812 C 261.3125 216.707031 240.898438 214.152344 220.929688 210.097656 C 200.957031 206.046875 181.394531 200.46875 168.046875 193.605469 C 155.535156 187.199219 142.773438 178.386719 133.503906 168.207031 C 131.636719 166.15625 129.972656 164.371094 128.183594 162.703125 C 126.394531 161.03125 124.484375 159.484375 122.144531 157.929688 C 118.96875 155.828125 115.132812 152.71875 111.714844 150.589844 C 110.335938 149.730469 108.953125 148.914062 107.644531 148.070312 C 107.0625 147.691406 106.292969 147.78125 105.8125 148.28125 C 105.332031 148.78125 105.277344 149.554688 105.675781 150.117188 C 110.09375 156.34375 113.445312 164.433594 113.449219 174.859375 C 113.449219 178.296875 113.085938 181.988281 112.261719 185.953125 C 112.117188 186.648438 112.5 187.339844 113.160156 187.597656 C 120.339844 190.363281 128.449219 193.90625 137.003906 198.863281 C 152.53125 207.871094 176.238281 219.265625 200.230469 228.636719 C 212.222656 233.324219 224.285156 237.503906 235.429688 240.621094 C 246.578125 243.738281 256.800781 245.796875 265.1875 246.226562 C 268.53125 246.394531 271.832031 246.472656 275.070312 246.472656 C 331.636719 246.464844 370.945312 222.085938 371.078125 222.011719 C 371.421875 221.796875 371.660156 221.453125 371.734375 221.054688 L 370.3125 220.785156 " fill-opacity="1" fill-rule="nonzero"/><path fill="#000000" d="M 153.84375 106.9375 C 148.910156 108.417969 144.34375 109.046875 140.117188 109.050781 C 133.722656 109.046875 128.117188 107.609375 123.269531 105.441406 C 116.003906 102.199219 110.457031 97.300781 106.738281 93.203125 C 104.882812 91.160156 103.480469 89.316406 102.546875 87.996094 C 102.085938 87.332031 101.738281 86.800781 101.507812 86.441406 C 101.390625 86.261719 101.308594 86.121094 101.25 86.03125 L 101.191406 85.929688 L 101.179688 85.90625 L 101.175781 85.902344 C 100.777344 85.210938 99.894531 84.972656 99.199219 85.371094 C 98.507812 85.765625 98.269531 86.652344 98.667969 87.34375 C 98.71875 87.429688 102.226562 93.515625 109.140625 99.640625 C 112.601562 102.703125 116.917969 105.769531 122.089844 108.082031 C 127.257812 110.394531 133.285156 111.941406 140.117188 111.9375 C 144.628906 111.941406 149.488281 111.261719 154.675781 109.707031 C 155.441406 109.480469 155.875 108.667969 155.644531 107.90625 C 155.414062 107.140625 154.609375 106.707031 153.84375 106.9375 " fill-opacity="1" fill-rule="nonzero"/><path fill="#000000" d="M 177.335938 81.484375 C 162.355469 78.347656 150.414062 77.117188 140.886719 77.117188 C 124.273438 77.117188 114.933594 80.859375 109.726562 84.796875 C 107.125 86.757812 105.570312 88.761719 104.671875 90.296875 C 103.777344 91.835938 103.53125 92.90625 103.5 93.03125 C 103.335938 93.8125 103.832031 94.582031 104.617188 94.746094 C 105.398438 94.910156 106.167969 94.414062 106.335938 93.636719 L 105.5625 93.46875 L 106.332031 93.648438 L 106.332031 93.636719 L 105.5625 93.46875 L 106.332031 93.648438 C 106.332031 93.648438 106.34375 93.601562 106.371094 93.507812 C 106.601562 92.785156 107.796875 89.492188 112.605469 86.300781 C 117.417969 83.113281 125.9375 80.011719 140.886719 80.011719 C 150.167969 80.011719 161.914062 81.210938 176.738281 84.316406 C 177.523438 84.480469 178.289062 83.976562 178.453125 83.199219 C 178.617188 82.414062 178.117188 81.652344 177.335938 81.484375 " fill-opacity="1" fill-rule="nonzero"/><path fill="#ffffff" d="M 168.316406 117.855469 C 166.636719 117.855469 165.148438 116.667969 164.824219 114.960938 C 164.460938 113.035156 165.730469 111.175781 167.660156 110.816406 C 206.710938 103.484375 222.609375 95.480469 222.769531 95.402344 C 224.511719 94.507812 226.65625 95.191406 227.554688 96.933594 C 228.453125 98.675781 227.773438 100.8125 226.03125 101.710938 C 225.367188 102.058594 209.257812 110.234375 168.972656 117.796875 C 168.753906 117.835938 168.53125 117.855469 168.316406 117.855469 " fill-opacity="1" fill-rule="nonzero"/><path fill="#000000" d="M 168.316406 117.855469 L 168.316406 116.410156 C 167.328125 116.410156 166.433594 115.707031 166.246094 114.695312 C 166.222656 114.558594 166.207031 114.425781 166.207031 114.300781 C 166.207031 113.3125 166.914062 112.417969 167.925781 112.234375 C 187.511719 108.558594 201.3125 104.710938 210.253906 101.761719 C 214.722656 100.289062 217.980469 99.039062 220.136719 98.148438 C 221.214844 97.707031 222.019531 97.347656 222.558594 97.097656 C 222.832031 96.976562 223.039062 96.878906 223.183594 96.808594 C 223.328125 96.738281 223.398438 96.703125 223.433594 96.683594 L 223.425781 96.6875 C 223.742188 96.527344 224.066406 96.457031 224.390625 96.457031 C 225.15625 96.457031 225.894531 96.871094 226.269531 97.597656 C 226.429688 97.910156 226.503906 98.234375 226.503906 98.558594 C 226.503906 99.320312 226.09375 100.054688 225.363281 100.429688 C 224.847656 100.699219 208.871094 108.839844 168.710938 116.375 C 168.582031 116.398438 168.449219 116.410156 168.316406 116.410156 L 168.316406 119.300781 C 168.617188 119.300781 168.929688 119.277344 169.242188 119.214844 C 209.640625 111.632812 225.886719 103.417969 226.699219 102.996094 C 228.410156 102.105469 229.402344 100.363281 229.398438 98.558594 C 229.398438 97.789062 229.21875 97 228.839844 96.269531 C 227.953125 94.550781 226.199219 93.558594 224.390625 93.5625 C 223.621094 93.5625 222.835938 93.742188 222.109375 94.113281 L 222.101562 94.117188 L 222.371094 94.640625 L 222.105469 94.113281 L 222.101562 94.117188 L 222.371094 94.640625 L 222.105469 94.113281 C 221.851562 94.246094 206.019531 102.144531 167.394531 109.390625 C 164.988281 109.84375 163.3125 111.941406 163.3125 114.300781 C 163.3125 114.609375 163.34375 114.917969 163.402344 115.226562 C 163.859375 117.625 165.949219 119.300781 168.316406 119.300781 L 168.316406 117.855469 " fill-opacity="1" fill-rule="nonzero"/><path fill="#ffffff" d="M 185.382812 130.234375 C 183.78125 130.234375 182.328125 129.144531 181.929688 127.523438 C 181.464844 125.617188 182.636719 123.695312 184.542969 123.234375 C 216.519531 115.453125 232.515625 107.410156 232.675781 107.332031 C 234.425781 106.445312 236.566406 107.136719 237.457031 108.882812 C 238.347656 110.628906 237.660156 112.765625 235.914062 113.660156 C 235.238281 114 219.117188 122.132812 186.226562 130.132812 C 185.945312 130.203125 185.660156 130.234375 185.382812 130.234375 " fill-opacity="1" fill-rule="nonzero"/><path fill="#000000" d="M 185.382812 130.234375 L 185.382812 128.789062 C 184.4375 128.789062 183.566406 128.140625 183.335938 127.179688 C 183.296875 127.007812 183.277344 126.839844 183.277344 126.679688 C 183.277344 125.734375 183.921875 124.867188 184.886719 124.636719 C 216.972656 116.832031 233.082031 108.746094 233.324219 108.625 L 233.332031 108.621094 C 233.644531 108.460938 233.964844 108.390625 234.289062 108.390625 C 235.058594 108.390625 235.796875 108.808594 236.167969 109.539062 C 236.328125 109.847656 236.398438 110.171875 236.398438 110.492188 C 236.398438 111.261719 235.980469 111.996094 235.25 112.371094 C 234.675781 112.664062 218.664062 120.753906 185.886719 128.730469 C 185.714844 128.769531 185.542969 128.789062 185.382812 128.789062 L 185.382812 131.679688 C 185.78125 131.679688 186.175781 131.632812 186.566406 131.539062 L 186.570312 131.539062 C 219.578125 123.511719 235.804688 115.335938 236.570312 114.945312 C 238.300781 114.0625 239.296875 112.304688 239.292969 110.492188 C 239.292969 109.726562 239.117188 108.949219 238.746094 108.226562 C 237.863281 106.496094 236.105469 105.496094 234.289062 105.5 C 233.523438 105.5 232.742188 105.675781 232.019531 106.046875 L 232.027344 106.042969 C 231.945312 106.078125 216.0625 114.074219 184.203125 121.824219 C 181.914062 122.386719 180.382812 124.421875 180.382812 126.679688 C 180.382812 127.074219 180.425781 127.472656 180.523438 127.867188 C 181.082031 130.148438 183.121094 131.679688 185.382812 131.679688 L 185.382812 130.234375 " fill-opacity="1" fill-rule="nonzero"/><path fill="#ffffff" d="M 198.226562 144.886719 C 196.625 144.886719 195.171875 143.792969 194.773438 142.175781 C 194.308594 140.265625 195.480469 138.347656 197.390625 137.882812 C 229.171875 130.148438 243.3125 121.746094 243.449219 121.664062 C 245.125 120.648438 247.3125 121.183594 248.335938 122.855469 C 249.347656 124.53125 248.820312 126.710938 247.144531 127.730469 C 246.542969 128.09375 232.09375 136.75 199.070312 144.785156 C 198.789062 144.851562 198.507812 144.886719 198.226562 144.886719 " fill-opacity="1" fill-rule="nonzero"/><path fill="#000000" d="M 198.226562 144.886719 L 198.226562 143.441406 C 197.28125 143.441406 196.414062 142.792969 196.179688 141.828125 C 196.136719 141.660156 196.121094 141.492188 196.121094 141.332031 C 196.121094 140.386719 196.765625 139.515625 197.730469 139.285156 C 213.691406 135.402344 225.242188 131.347656 232.832031 128.242188 C 236.628906 126.6875 239.4375 125.371094 241.3125 124.4375 C 242.246094 123.96875 242.949219 123.59375 243.429688 123.332031 C 243.667969 123.203125 243.851562 123.101562 243.976562 123.027344 L 244.128906 122.9375 L 244.207031 122.890625 L 244.199219 122.898438 C 244.542969 122.691406 244.910156 122.59375 245.285156 122.59375 C 246.003906 122.597656 246.699219 122.953125 247.09375 123.605469 C 247.304688 123.953125 247.398438 124.324219 247.402344 124.699219 C 247.398438 125.410156 247.042969 126.097656 246.390625 126.496094 L 246.394531 126.496094 C 245.921875 126.785156 231.617188 135.375 198.726562 143.378906 L 198.730469 143.378906 C 198.558594 143.421875 198.390625 143.441406 198.226562 143.441406 L 198.226562 146.332031 C 198.621094 146.332031 199.019531 146.28125 199.40625 146.1875 L 199.414062 146.1875 C 232.574219 138.121094 247.167969 129.40625 247.898438 128.96875 L 247.902344 128.96875 C 249.4375 128.027344 250.296875 126.375 250.292969 124.699219 C 250.296875 123.816406 250.0625 122.914062 249.570312 122.105469 C 248.625 120.558594 246.972656 119.699219 245.285156 119.699219 C 244.402344 119.699219 243.503906 119.9375 242.699219 120.425781 L 242.6875 120.429688 L 243.136719 121.15625 L 242.699219 120.425781 L 242.6875 120.429688 L 243.136719 121.15625 L 242.699219 120.425781 C 242.480469 120.554688 228.441406 128.839844 197.046875 136.472656 C 194.757812 137.035156 193.222656 139.074219 193.222656 141.332031 C 193.222656 141.722656 193.269531 142.121094 193.367188 142.511719 C 193.929688 144.800781 195.964844 146.332031 198.226562 146.332031 L 198.226562 144.886719 " fill-opacity="1" fill-rule="nonzero"/><path fill="#ffffff" d="M 211.726562 159.167969 C 210.125 159.167969 208.667969 158.074219 208.273438 156.453125 C 207.808594 154.546875 208.976562 152.621094 210.886719 152.160156 C 242.558594 144.460938 254.421875 134.53125 254.539062 134.433594 C 256.03125 133.15625 258.273438 133.328125 259.554688 134.816406 C 260.835938 136.308594 260.65625 138.550781 259.164062 139.824219 C 258.640625 140.277344 245.878906 150.960938 212.570312 159.0625 C 212.289062 159.132812 212.003906 159.167969 211.726562 159.167969 " fill-opacity="1" fill-rule="nonzero"/><path fill="#000000" d="M 211.726562 159.167969 L 211.726562 157.722656 C 210.78125 157.722656 209.910156 157.074219 209.679688 156.109375 C 209.636719 155.9375 209.617188 155.769531 209.617188 155.609375 C 209.617188 154.664062 210.265625 153.792969 211.230469 153.5625 C 227.164062 149.691406 238.152344 145.246094 245.195312 141.738281 C 248.710938 139.984375 251.246094 138.464844 252.917969 137.371094 C 253.753906 136.820312 254.375 136.375 254.796875 136.0625 C 255.21875 135.746094 255.429688 135.574219 255.476562 135.53125 C 255.882812 135.1875 256.363281 135.023438 256.855469 135.019531 C 257.453125 135.023438 258.035156 135.269531 258.457031 135.757812 C 258.800781 136.160156 258.960938 136.636719 258.960938 137.125 C 258.960938 137.722656 258.710938 138.308594 258.222656 138.730469 C 257.875 139.027344 245.332031 149.605469 212.226562 157.65625 L 212.230469 157.65625 C 212.058594 157.699219 211.886719 157.722656 211.726562 157.722656 L 211.726562 160.613281 C 212.121094 160.613281 212.519531 160.5625 212.910156 160.46875 L 212.914062 160.46875 C 246.421875 152.316406 259.40625 141.527344 260.105469 140.925781 C 261.261719 139.9375 261.859375 138.53125 261.855469 137.125 C 261.855469 135.980469 261.460938 134.8125 260.652344 133.875 C 259.664062 132.722656 258.257812 132.128906 256.855469 132.132812 C 255.703125 132.128906 254.539062 132.527344 253.597656 133.335938 L 253.644531 133.386719 L 253.601562 133.332031 L 253.597656 133.332031 L 253.644531 133.386719 L 253.601562 133.332031 C 253.296875 133.582031 241.527344 143.222656 210.546875 150.753906 C 208.253906 151.3125 206.722656 153.351562 206.722656 155.609375 C 206.722656 156.003906 206.769531 156.402344 206.867188 156.792969 C 207.425781 159.074219 209.464844 160.613281 211.726562 160.613281 L 211.726562 159.167969 " fill-opacity="1" fill-rule="nonzero"/><path fill="#ffffff" d="M 226.371094 169.613281 C 224.707031 169.613281 223.21875 168.441406 222.882812 166.746094 C 222.503906 164.820312 223.761719 162.953125 225.6875 162.574219 C 250.027344 157.789062 267.5 145.847656 267.675781 145.730469 C 269.289062 144.613281 271.507812 145.011719 272.621094 146.625 C 273.742188 148.238281 273.34375 150.449219 271.730469 151.570312 C 270.976562 152.09375 252.925781 164.460938 227.0625 169.542969 C 226.832031 169.589844 226.597656 169.613281 226.371094 169.613281 " fill-opacity="1" fill-rule="nonzero"/><path fill="#000000" d="M 226.371094 169.613281 L 226.371094 168.167969 C 225.386719 168.164062 224.5 167.472656 224.304688 166.464844 C 224.277344 166.328125 224.265625 166.1875 224.265625 166.054688 C 224.265625 165.078125 224.960938 164.183594 225.96875 163.992188 C 238.296875 161.570312 248.859375 157.339844 256.375 153.703125 C 260.132812 151.886719 263.128906 150.214844 265.203125 148.980469 C 266.242188 148.367188 267.042969 147.863281 267.601562 147.507812 C 268.160156 147.148438 268.453125 146.949219 268.503906 146.914062 L 268.5 146.917969 C 268.867188 146.664062 269.28125 146.542969 269.695312 146.542969 C 270.371094 146.546875 271.019531 146.855469 271.429688 147.449219 C 271.6875 147.820312 271.808594 148.230469 271.808594 148.648438 C 271.804688 149.316406 271.496094 149.96875 270.902344 150.378906 C 270.246094 150.839844 252.332031 163.109375 226.78125 168.128906 C 226.640625 168.152344 226.503906 168.164062 226.371094 168.167969 L 226.371094 171.054688 C 226.695312 171.058594 227.019531 171.027344 227.339844 170.960938 C 253.515625 165.808594 271.699219 153.34375 272.554688 152.753906 C 273.949219 151.785156 274.707031 150.222656 274.703125 148.648438 C 274.703125 147.664062 274.414062 146.667969 273.8125 145.800781 C 272.839844 144.402344 271.277344 143.652344 269.695312 143.652344 C 268.71875 143.652344 267.71875 143.941406 266.851562 144.539062 L 266.847656 144.542969 C 266.511719 144.78125 249.238281 156.476562 225.40625 161.15625 C 223.019531 161.628906 221.371094 163.710938 221.371094 166.054688 C 221.371094 166.375 221.398438 166.699219 221.464844 167.023438 C 221.9375 169.40625 224.023438 171.058594 226.371094 171.054688 L 226.371094 169.613281 " fill-opacity="1" fill-rule="nonzero"/><path fill="#475d64" d="M 238.964844 166.058594 C 252.410156 179.53125 240.789062 193.480469 240.789062 193.480469 " fill-opacity="1" fill-rule="nonzero"/><path fill="#000000" d="M 237.941406 167.082031 C 240.285156 169.429688 241.789062 171.753906 242.722656 173.980469 C 243.648438 176.207031 244.003906 178.347656 244.007812 180.351562 C 244.007812 183.816406 242.925781 186.890625 241.828125 189.09375 C 241.277344 190.199219 240.726562 191.078125 240.320312 191.679688 C 240.121094 191.976562 239.949219 192.199219 239.835938 192.351562 L 239.707031 192.515625 L 239.683594 192.550781 L 239.675781 192.558594 L 239.960938 192.792969 L 239.679688 192.554688 L 239.675781 192.558594 L 239.960938 192.792969 L 239.679688 192.554688 C 239.167969 193.167969 239.25 194.082031 239.863281 194.59375 C 240.476562 195.105469 241.394531 195.015625 241.902344 194.40625 C 241.957031 194.34375 243.183594 192.863281 244.417969 190.382812 C 245.648438 187.90625 246.898438 184.417969 246.902344 180.351562 C 246.902344 178.003906 246.476562 175.464844 245.394531 172.871094 C 244.3125 170.273438 242.574219 167.625 239.992188 165.039062 C 239.425781 164.476562 238.511719 164.472656 237.945312 165.035156 C 237.378906 165.601562 237.375 166.515625 237.941406 167.082031 " fill-opacity="1" fill-rule="nonzero"/><path fill="#000000" d="M 148.644531 113.230469 L 221.382812 185.003906 C 221.953125 185.5625 222.871094 185.554688 223.429688 184.988281 C 223.992188 184.421875 223.988281 183.503906 223.421875 182.941406 L 150.675781 111.167969 C 150.105469 110.609375 149.191406 110.617188 148.628906 111.183594 C 148.066406 111.75 148.074219 112.667969 148.644531 113.230469 " fill-opacity="1" fill-rule="nonzero"/><path fill="#000000" d="M 115.097656 186.539062 C 115.957031 182.394531 116.34375 178.5 116.34375 174.859375 C 116.347656 163.800781 112.75 155.066406 108.039062 148.449219 L 106.855469 149.285156 L 108.304688 149.285156 L 108.304688 149.273438 C 108.304688 148.972656 108.214844 148.683594 108.039062 148.4375 C 103.546875 142.109375 98.066406 137.691406 93.703125 134.839844 C 89.339844 131.988281 86.089844 130.703125 86.023438 130.675781 C 85.277344 130.382812 84.4375 130.746094 84.144531 131.488281 C 83.851562 132.230469 84.214844 133.070312 84.957031 133.363281 L 84.984375 133.375 C 85.289062 133.5 88.429688 134.804688 92.507812 137.515625 C 96.585938 140.230469 101.59375 144.359375 105.675781 150.113281 L 106.855469 149.273438 L 105.410156 149.273438 L 105.410156 149.285156 C 105.410156 149.585938 105.503906 149.875 105.675781 150.117188 C 110.09375 156.34375 113.445312 164.433594 113.449219 174.859375 C 113.449219 178.296875 113.085938 181.988281 112.261719 185.953125 C 112.101562 186.738281 112.601562 187.503906 113.386719 187.664062 C 114.167969 187.824219 114.933594 187.320312 115.097656 186.539062 " fill-opacity="1" fill-rule="nonzero"/><path fill="#cad6dd" d="M 142.636719 126.894531 C 148.675781 137.21875 111.65625 167.625 89.066406 167.625 C 58.167969 167.625 37 141.433594 35.441406 126.339844 C 33.886719 111.242188 76.394531 106.019531 85.507812 107.359375 C 94.625 108.699219 137.488281 118.097656 142.636719 126.894531 " fill-opacity="1" fill-rule="nonzero"/><path fill="#000000" d="M 142.636719 126.894531 L 141.382812 127.625 C 141.683594 128.140625 141.839844 128.738281 141.84375 129.492188 C 141.847656 130.660156 141.417969 132.195312 140.527344 133.929688 C 138.980469 136.976562 136.082031 140.589844 132.332031 144.222656 C 126.703125 149.683594 119.152344 155.210938 111.363281 159.339844 C 103.585938 163.476562 95.539062 166.191406 89.066406 166.179688 C 74.039062 166.179688 61.359375 159.808594 52.222656 151.570312 C 47.65625 147.453125 43.988281 142.871094 41.382812 138.425781 C 38.773438 133.984375 37.238281 129.675781 36.882812 126.191406 C 36.859375 125.964844 36.847656 125.746094 36.847656 125.535156 C 36.851562 124.21875 37.257812 123.015625 38.058594 121.8125 C 39.453125 119.714844 42.15625 117.722656 45.65625 116.035156 C 50.894531 113.492188 57.84375 111.609375 64.527344 110.390625 C 71.210938 109.171875 77.652344 108.601562 81.871094 108.601562 C 83.316406 108.601562 84.503906 108.667969 85.296875 108.785156 C 87.511719 109.113281 91.886719 109.949219 97.238281 111.152344 C 105.273438 112.949219 115.542969 115.585938 124.230469 118.566406 C 128.574219 120.058594 132.519531 121.640625 135.5625 123.226562 C 137.085938 124.011719 138.378906 124.804688 139.375 125.5625 C 140.371094 126.316406 141.050781 127.046875 141.382812 127.625 L 142.636719 126.894531 L 143.882812 126.167969 C 143.042969 124.746094 141.652344 123.554688 139.871094 122.378906 C 136.753906 120.335938 132.363281 118.417969 127.351562 116.601562 C 119.84375 113.886719 110.964844 111.449219 103.199219 109.570312 C 95.425781 107.691406 88.796875 106.378906 85.722656 105.929688 C 84.699219 105.777344 83.414062 105.710938 81.871094 105.710938 C 75.078125 105.714844 63.410156 107.0625 53.261719 110.082031 C 48.1875 111.59375 43.503906 113.515625 39.96875 115.988281 C 38.207031 117.230469 36.722656 118.617188 35.652344 120.203125 C 34.585938 121.785156 33.949219 123.59375 33.953125 125.535156 C 33.953125 125.847656 33.972656 126.167969 34.007812 126.484375 C 34.429688 130.546875 36.121094 135.171875 38.882812 139.890625 C 43.035156 146.957031 49.613281 154.222656 58.144531 159.753906 C 66.671875 165.285156 77.171875 169.074219 89.066406 169.074219 C 94.597656 169.066406 100.757812 167.371094 106.941406 164.6875 C 116.214844 160.652344 125.542969 154.378906 132.625 147.917969 C 136.167969 144.6875 139.144531 141.40625 141.273438 138.296875 C 142.335938 136.742188 143.191406 135.226562 143.792969 133.761719 C 144.386719 132.292969 144.734375 130.867188 144.738281 129.492188 C 144.738281 128.320312 144.472656 127.175781 143.882812 126.164062 L 142.636719 126.894531 " fill-opacity="1" fill-rule="nonzero"/><path fill="#ffffff" d="M 29.738281 213.6875 C 29.65625 216.355469 31.726562 227.726562 33.917969 234.03125 C 36.492188 241.410156 58.730469 241.652344 85.53125 257.199219 C 116.402344 275.117188 180.21875 302.703125 213.058594 304.363281 C 274.40625 307.472656 310.828125 283.765625 314.09375 280.753906 C 317.363281 277.742188 319.160156 260.378906 314.558594 259.0625 C 308.308594 257.277344 202.007812 230.453125 189.117188 226.472656 C 176.21875 222.492188 30.308594 195.433594 29.738281 213.6875 " fill-opacity="1" fill-rule="nonzero"/><path fill="#000000" d="M 29.738281 213.6875 L 28.292969 213.636719 L 28.289062 213.855469 C 28.292969 214.738281 28.425781 216 28.652344 217.585938 C 29.34375 222.316406 30.886719 229.703125 32.554688 234.503906 C 32.980469 235.738281 33.8125 236.769531 34.859375 237.621094 C 36.703125 239.125 39.253906 240.230469 42.441406 241.382812 C 47.21875 243.089844 53.441406 244.824219 60.667969 247.410156 C 67.894531 249.988281 76.105469 253.40625 84.804688 258.449219 C 100.332031 267.460938 124.039062 278.851562 148.03125 288.222656 C 160.019531 292.910156 172.082031 297.089844 183.226562 300.203125 C 194.378906 303.320312 204.601562 305.378906 212.984375 305.808594 C 216.765625 306 220.457031 306.089844 224.050781 306.089844 C 251.582031 306.089844 273.5 300.785156 288.929688 295.117188 C 296.648438 292.28125 302.746094 289.351562 307.117188 286.945312 C 309.308594 285.742188 311.066406 284.671875 312.386719 283.796875 C 313.046875 283.363281 313.59375 282.980469 314.039062 282.652344 C 314.484375 282.320312 314.816406 282.054688 315.078125 281.816406 C 315.792969 281.144531 316.277344 280.277344 316.71875 279.25 C 317.367188 277.714844 317.871094 275.789062 318.226562 273.707031 C 318.582031 271.625 318.78125 269.390625 318.78125 267.273438 C 318.78125 265.128906 318.585938 263.113281 318.078125 261.425781 C 317.820312 260.582031 317.480469 259.8125 316.992188 259.148438 C 316.507812 258.488281 315.824219 257.917969 314.960938 257.671875 C 314.132812 257.4375 311.804688 256.824219 308.265625 255.914062 C 295.902344 252.71875 269.03125 245.878906 243.832031 239.402344 C 231.234375 236.164062 219.058594 233.019531 209.328125 230.464844 C 199.601562 227.914062 192.296875 225.945312 189.542969 225.089844 C 188.234375 224.6875 185.84375 224.113281 182.488281 223.378906 C 170.773438 220.832031 147.523438 216.484375 122.601562 212.773438 C 97.671875 209.066406 71.113281 205.980469 52.691406 205.976562 C 45.753906 205.980469 39.972656 206.410156 35.757812 207.457031 C 33.652344 207.988281 31.921875 208.664062 30.589844 209.640625 C 29.929688 210.125 29.367188 210.699219 28.957031 211.378906 C 28.550781 212.054688 28.3125 212.835938 28.292969 213.644531 L 28.292969 213.636719 L 29.738281 213.6875 L 31.1875 213.734375 C 31.199219 213.410156 31.277344 213.148438 31.441406 212.863281 C 31.730469 212.375 32.386719 211.796875 33.492188 211.273438 C 35.148438 210.488281 37.730469 209.855469 41 209.460938 C 44.269531 209.058594 48.222656 208.867188 52.691406 208.867188 C 73.398438 208.867188 105.066406 212.871094 132.699219 217.253906 C 146.519531 219.445312 159.339844 221.730469 169.300781 223.652344 C 174.285156 224.609375 178.554688 225.484375 181.871094 226.207031 C 185.183594 226.925781 187.570312 227.507812 188.6875 227.851562 C 190.339844 228.363281 193.410156 229.21875 197.570312 230.335938 C 212.121094 234.257812 239.910156 241.394531 264.746094 247.75 C 277.164062 250.929688 288.84375 253.910156 297.761719 256.195312 C 302.21875 257.339844 305.988281 258.308594 308.808594 259.039062 C 311.628906 259.769531 313.515625 260.265625 314.160156 260.449219 C 314.289062 260.492188 314.445312 260.574219 314.667969 260.867188 C 314.996094 261.296875 315.34375 262.171875 315.558594 263.300781 C 315.78125 264.429688 315.890625 265.808594 315.890625 267.273438 C 315.890625 269.855469 315.550781 272.714844 315 275.074219 C 314.730469 276.253906 314.398438 277.304688 314.050781 278.125 C 313.710938 278.941406 313.324219 279.507812 313.113281 279.695312 C 312.988281 279.808594 312.710938 280.039062 312.316406 280.324219 C 310.839844 281.421875 307.734375 283.425781 303.152344 285.78125 C 289.394531 292.855469 262.242188 303.199219 224.050781 303.199219 C 220.507812 303.199219 216.863281 303.109375 213.132812 302.921875 C 205.09375 302.511719 195.027344 300.503906 184.007812 297.417969 C 150.941406 288.175781 109.273438 269.3125 86.257812 255.949219 C 72.714844 248.089844 60.320312 244.101562 51.074219 241.171875 C 46.460938 239.710938 42.628906 238.503906 39.898438 237.261719 C 38.539062 236.644531 37.457031 236.015625 36.695312 235.390625 C 35.933594 234.761719 35.503906 234.167969 35.289062 233.554688 C 34.246094 230.578125 33.207031 226.300781 32.4375 222.445312 C 32.054688 220.515625 31.738281 218.683594 31.519531 217.171875 C 31.300781 215.664062 31.179688 214.4375 31.183594 213.855469 L 31.1875 213.742188 L 31.1875 213.734375 L 29.738281 213.6875 " fill-opacity="1" fill-rule="nonzero"/><path fill="#ffffff" d="M 29.738281 213.6875 C 29.65625 216.355469 31.726562 227.726562 33.917969 234.03125 C 36.492188 241.410156 58.730469 241.652344 85.53125 257.199219 C 116.402344 275.117188 180.21875 302.703125 213.058594 304.363281 C 274.40625 307.472656 310.828125 283.765625 314.09375 280.753906 C 317.363281 277.742188 319.160156 260.378906 314.558594 259.0625 C 308.308594 257.277344 202.007812 230.453125 189.117188 226.472656 C 176.21875 222.492188 30.308594 195.433594 29.738281 213.6875 " fill-opacity="1" fill-rule="nonzero"/><path fill="#000000" d="M 29.738281 213.6875 L 28.292969 213.636719 L 28.289062 213.855469 C 28.292969 214.738281 28.425781 216 28.652344 217.585938 C 29.34375 222.316406 30.886719 229.703125 32.554688 234.503906 C 32.980469 235.738281 33.8125 236.769531 34.859375 237.621094 C 36.703125 239.125 39.253906 240.230469 42.441406 241.382812 C 47.21875 243.089844 53.441406 244.824219 60.667969 247.410156 C 67.894531 249.988281 76.105469 253.40625 84.804688 258.449219 C 100.332031 267.460938 124.039062 278.851562 148.03125 288.222656 C 160.019531 292.910156 172.082031 297.089844 183.226562 300.203125 C 194.378906 303.320312 204.601562 305.378906 212.984375 305.808594 C 216.765625 306 220.457031 306.089844 224.050781 306.089844 C 251.582031 306.089844 273.5 300.785156 288.929688 295.117188 C 296.648438 292.28125 302.746094 289.351562 307.117188 286.945312 C 309.308594 285.742188 311.066406 284.671875 312.386719 283.796875 C 313.046875 283.363281 313.59375 282.980469 314.039062 282.652344 C 314.484375 282.320312 314.816406 282.054688 315.078125 281.816406 C 315.792969 281.144531 316.277344 280.277344 316.71875 279.25 C 317.367188 277.714844 317.871094 275.789062 318.226562 273.707031 C 318.582031 271.625 318.78125 269.390625 318.78125 267.273438 C 318.78125 265.128906 318.585938 263.113281 318.078125 261.425781 C 317.820312 260.582031 317.480469 259.8125 316.992188 259.148438 C 316.507812 258.488281 315.824219 257.917969 314.960938 257.671875 C 314.132812 257.4375 311.804688 256.824219 308.265625 255.914062 C 295.902344 252.71875 269.03125 245.878906 243.832031 239.402344 C 231.234375 236.164062 219.058594 233.019531 209.328125 230.464844 C 199.601562 227.914062 192.296875 225.945312 189.542969 225.089844 C 188.234375 224.6875 185.84375 224.113281 182.488281 223.378906 C 170.773438 220.832031 147.523438 216.484375 122.601562 212.773438 C 97.671875 209.066406 71.113281 205.980469 52.691406 205.976562 C 45.753906 205.980469 39.972656 206.410156 35.757812 207.457031 C 33.652344 207.988281 31.921875 208.664062 30.589844 209.640625 C 29.929688 210.125 29.367188 210.699219 28.957031 211.378906 C 28.550781 212.054688 28.3125 212.835938 28.292969 213.644531 L 28.292969 213.636719 L 29.738281 213.6875 L 31.1875 213.734375 C 31.199219 213.410156 31.277344 213.148438 31.441406 212.863281 C 31.730469 212.375 32.386719 211.796875 33.492188 211.273438 C 35.148438 210.488281 37.730469 209.855469 41 209.460938 C 44.269531 209.058594 48.222656 208.867188 52.691406 208.867188 C 73.398438 208.867188 105.066406 212.871094 132.699219 217.253906 C 146.519531 219.445312 159.339844 221.730469 169.300781 223.652344 C 174.285156 224.609375 178.554688 225.484375 181.871094 226.207031 C 185.183594 226.925781 187.570312 227.507812 188.6875 227.851562 C 190.339844 228.363281 193.410156 229.21875 197.570312 230.335938 C 212.121094 234.257812 239.910156 241.394531 264.746094 247.75 C 277.164062 250.929688 288.84375 253.910156 297.761719 256.195312 C 302.21875 257.339844 305.988281 258.308594 308.808594 259.039062 C 311.628906 259.769531 313.515625 260.265625 314.160156 260.449219 C 314.289062 260.492188 314.445312 260.574219 314.667969 260.867188 C 314.996094 261.296875 315.34375 262.171875 315.558594 263.300781 C 315.78125 264.429688 315.890625 265.808594 315.890625 267.273438 C 315.890625 269.855469 315.550781 272.714844 315 275.074219 C 314.730469 276.253906 314.398438 277.304688 314.050781 278.125 C 313.710938 278.941406 313.324219 279.507812 313.113281 279.695312 C 312.988281 279.808594 312.710938 280.039062 312.316406 280.324219 C 310.839844 281.421875 307.734375 283.425781 303.152344 285.78125 C 289.394531 292.855469 262.242188 303.199219 224.050781 303.199219 C 220.507812 303.199219 216.863281 303.109375 213.132812 302.921875 C 205.09375 302.511719 195.027344 300.503906 184.007812 297.417969 C 150.941406 288.175781 109.273438 269.3125 86.257812 255.949219 C 72.714844 248.089844 60.320312 244.101562 51.074219 241.171875 C 46.460938 239.710938 42.628906 238.503906 39.898438 237.261719 C 38.539062 236.644531 37.457031 236.015625 36.695312 235.390625 C 35.933594 234.761719 35.503906 234.167969 35.289062 233.554688 C 34.246094 230.578125 33.207031 226.300781 32.4375 222.445312 C 32.054688 220.515625 31.738281 218.683594 31.519531 217.171875 C 31.300781 215.664062 31.179688 214.4375 31.183594 213.855469 L 31.1875 213.742188 L 31.1875 213.734375 L 29.738281 213.6875 " fill-opacity="1" fill-rule="nonzero"/><path fill="#475d64" d="M 223.382812 193.710938 C 232.015625 198.882812 195.941406 219.019531 189.554688 219.019531 C 183.171875 219.019531 105.535156 143.824219 105.535156 133.765625 C 105.535156 123.714844 138.078125 114.699219 144.210938 116.453125 C 156.660156 120.003906 195.820312 177.1875 223.382812 193.710938 " fill-opacity="1" fill-rule="nonzero"/><path fill="#000000" d="M 223.382812 193.710938 L 222.636719 194.949219 C 222.941406 195.128906 223.082031 195.292969 223.15625 195.410156 C 223.226562 195.535156 223.257812 195.628906 223.261719 195.816406 C 223.261719 196.007812 223.207031 196.300781 223.046875 196.679688 C 222.746094 197.386719 222.078125 198.347656 221.105469 199.386719 C 219.40625 201.21875 216.8125 203.320312 213.832031 205.398438 C 209.363281 208.515625 204.007812 211.597656 199.371094 213.882812 C 197.058594 215.023438 194.921875 215.964844 193.179688 216.613281 C 192.308594 216.933594 191.539062 217.183594 190.910156 217.34375 C 190.285156 217.507812 189.789062 217.578125 189.554688 217.574219 L 189.554688 217.960938 L 189.621094 217.578125 L 189.554688 217.574219 L 189.554688 217.960938 L 189.621094 217.578125 L 189.484375 217.535156 C 189.125 217.414062 188.324219 216.980469 187.320312 216.296875 C 185.417969 215.015625 182.679688 212.867188 179.40625 210.101562 C 167.917969 200.402344 149.695312 183.066406 134.382812 167.1875 C 126.726562 159.25 119.792969 151.667969 114.800781 145.605469 C 112.308594 142.574219 110.292969 139.917969 108.9375 137.824219 C 108.257812 136.777344 107.742188 135.867188 107.417969 135.148438 C 107.085938 134.441406 106.96875 133.902344 106.980469 133.765625 C 106.980469 132.980469 107.269531 132.132812 107.914062 131.191406 C 109.039062 129.546875 111.253906 127.761719 114.085938 126.140625 C 118.332031 123.691406 123.910156 121.550781 129.148438 120.046875 C 131.765625 119.292969 134.304688 118.699219 136.542969 118.292969 C 138.777344 117.886719 140.730469 117.675781 142.121094 117.675781 C 142.902344 117.675781 143.507812 117.75 143.816406 117.839844 C 144.394531 118.003906 145.175781 118.371094 146.078125 118.945312 C 147.773438 120.011719 149.890625 121.78125 152.289062 124.0625 C 156.496094 128.054688 161.582031 133.640625 167.179688 139.957031 C 175.574219 149.4375 185.128906 160.585938 194.722656 170.65625 C 204.324219 180.734375 213.9375 189.726562 222.636719 194.949219 L 223.382812 193.710938 L 224.128906 192.46875 C 217.417969 188.449219 209.855469 181.84375 202.160156 174.144531 C 190.605469 162.59375 178.722656 148.601562 168.546875 137.140625 C 163.457031 131.410156 158.796875 126.3125 154.785156 122.441406 C 152.777344 120.511719 150.933594 118.882812 149.253906 117.625 C 147.570312 116.375 146.070312 115.484375 144.609375 115.0625 C 143.875 114.855469 143.066406 114.789062 142.121094 114.785156 C 139.589844 114.789062 136.078125 115.328125 132.136719 116.269531 C 126.230469 117.6875 119.417969 120.003906 113.972656 122.898438 C 111.25 124.351562 108.867188 125.941406 107.089844 127.710938 C 106.203125 128.59375 105.464844 129.527344 104.933594 130.535156 C 104.40625 131.542969 104.085938 132.632812 104.085938 133.765625 C 104.089844 134.3125 104.207031 134.820312 104.386719 135.355469 C 104.734375 136.382812 105.332031 137.519531 106.15625 138.839844 C 107.691406 141.300781 110.019531 144.371094 112.953125 147.90625 C 123.199219 160.265625 140.8125 178.28125 156.542969 193.253906 C 164.402344 200.738281 171.785156 207.453125 177.546875 212.316406 C 180.429688 214.753906 182.902344 216.722656 184.851562 218.109375 C 185.828125 218.800781 186.671875 219.351562 187.402344 219.75 C 187.773438 219.949219 188.113281 220.113281 188.449219 220.234375 C 188.792969 220.359375 189.121094 220.457031 189.554688 220.464844 C 190.085938 220.460938 190.617188 220.378906 191.210938 220.246094 C 193.421875 219.738281 196.554688 218.464844 200.160156 216.71875 C 205.550781 214.097656 211.890625 210.421875 216.953125 206.71875 C 219.488281 204.867188 221.699219 203.015625 223.332031 201.234375 C 224.152344 200.34375 224.824219 199.472656 225.324219 198.585938 C 225.816406 197.703125 226.148438 196.792969 226.15625 195.816406 C 226.160156 195.160156 225.984375 194.476562 225.621094 193.890625 C 225.257812 193.308594 224.738281 192.832031 224.128906 192.46875 L 223.382812 193.710938 " fill-opacity="1" fill-rule="nonzero"/><path fill="#475d64" d="M 35.441406 126.339844 C 35.441406 126.339844 30.386719 131.539062 33.730469 140.019531 C 40.570312 157.375 15.351562 179.058594 29.578125 211.472656 C 32.71875 218.625 55.179688 220.335938 81.976562 235.890625 C 112.84375 253.800781 176.660156 281.386719 209.503906 283.050781 C 270.855469 286.160156 314.558594 259.0625 314.558594 259.0625 C 314.558594 259.0625 319.378906 236.257812 303.464844 220.46875 C 294.667969 211.746094 240.238281 202.246094 224.679688 191.046875 C 189.207031 165.511719 168.511719 129.992188 165.121094 126.21875 C 158.75 119.113281 154.695312 124.378906 154.695312 124.378906 C 154.695312 124.378906 202.894531 182.609375 216.675781 191.933594 C 223.808594 196.757812 198.449219 209.140625 185.558594 205.160156 C 172.664062 201.175781 154.53125 186.210938 140.210938 167.511719 C 131.4375 156.054688 123.566406 144.773438 114.425781 142.648438 C 95.308594 138.207031 97.734375 159.753906 71.503906 155.753906 C 46.628906 151.96875 35.441406 126.339844 35.441406 126.339844 " fill-opacity="1" fill-rule="nonzero"/><path fill="#000000" d="M 35.441406 126.339844 L 34.40625 125.328125 C 34.335938 125.40625 33.53125 126.242188 32.734375 127.769531 C 31.933594 129.292969 31.136719 131.53125 31.136719 134.332031 C 31.136719 136.1875 31.488281 138.28125 32.386719 140.550781 C 33.15625 142.511719 33.484375 144.527344 33.488281 146.675781 C 33.5 152.292969 31.132812 158.753906 28.667969 166.089844 C 26.214844 173.429688 23.703125 181.667969 23.703125 190.972656 C 23.699219 197.488281 24.941406 204.511719 28.25 212.050781 C 28.769531 213.230469 29.644531 214.210938 30.734375 215.070312 C 32.648438 216.574219 35.277344 217.78125 38.535156 219.050781 C 43.410156 220.945312 49.722656 222.929688 57.007812 225.71875 C 64.292969 228.503906 72.539062 232.085938 81.25 237.140625 C 96.773438 246.148438 120.480469 257.535156 144.472656 266.910156 C 156.464844 271.59375 168.523438 275.773438 179.671875 278.890625 C 190.820312 282.007812 201.042969 284.070312 209.425781 284.492188 C 212.78125 284.667969 216.082031 284.746094 219.324219 284.746094 C 275.890625 284.734375 315.195312 260.363281 315.324219 260.292969 C 315.660156 260.082031 315.894531 259.75 315.976562 259.363281 C 315.992188 259.285156 316.695312 255.949219 316.695312 250.929688 C 316.695312 246.78125 316.214844 241.480469 314.453125 235.921875 C 312.691406 230.367188 309.628906 224.546875 304.484375 219.445312 C 303.167969 218.144531 301.25 217.011719 298.8125 215.851562 C 294.554688 213.84375 288.710938 211.839844 282.082031 209.78125 C 272.140625 206.695312 260.453125 203.507812 250.003906 200.175781 C 244.78125 198.511719 239.867188 196.8125 235.652344 195.085938 C 231.4375 193.359375 227.917969 191.597656 225.527344 189.871094 C 207.9375 177.210938 193.976562 162.046875 184 149.570312 C 179.007812 143.332031 175.015625 137.765625 172.058594 133.523438 C 170.574219 131.398438 169.355469 129.605469 168.390625 128.21875 C 167.90625 127.519531 167.488281 126.925781 167.128906 126.4375 C 166.769531 125.945312 166.472656 125.5625 166.199219 125.253906 C 164.828125 123.726562 163.511719 122.679688 162.246094 122.007812 C 160.976562 121.339844 159.757812 121.054688 158.660156 121.054688 C 157.03125 121.054688 155.75 121.664062 154.90625 122.25 C 154.058594 122.839844 153.613281 123.417969 153.546875 123.496094 C 153.136719 124.027344 153.152344 124.78125 153.578125 125.296875 C 153.585938 125.304688 165.640625 139.867188 179.425781 155.609375 C 186.320312 163.480469 193.652344 171.644531 200.128906 178.441406 C 203.367188 181.839844 206.394531 184.894531 209.0625 187.40625 C 211.730469 189.914062 214.019531 191.882812 215.867188 193.132812 C 216.15625 193.328125 216.304688 193.5 216.375 193.621094 C 216.445312 193.746094 216.464844 193.820312 216.46875 193.949219 C 216.472656 194.140625 216.378906 194.507812 216.042969 195.007812 C 215.472656 195.871094 214.230469 197.003906 212.542969 198.09375 C 210.011719 199.746094 206.496094 201.367188 202.726562 202.546875 C 198.957031 203.738281 194.921875 204.492188 191.347656 204.492188 C 189.371094 204.492188 187.542969 204.261719 185.984375 203.777344 C 179.835938 201.886719 172.179688 197.242188 164.34375 190.742188 C 156.503906 184.242188 148.457031 175.898438 141.359375 166.636719 C 136.984375 160.921875 132.808594 155.207031 128.515625 150.59375 C 126.367188 148.289062 124.191406 146.257812 121.917969 144.640625 C 119.644531 143.027344 117.273438 141.824219 114.753906 141.242188 C 112.863281 140.800781 111.140625 140.59375 109.550781 140.597656 C 106.101562 140.589844 103.3125 141.585938 100.953125 143.027344 C 99.179688 144.101562 97.628906 145.410156 96.09375 146.726562 C 93.796875 148.710938 91.539062 150.726562 88.699219 152.238281 C 85.859375 153.75 82.433594 154.804688 77.644531 154.804688 C 75.871094 154.804688 73.90625 154.660156 71.722656 154.328125 C 65.730469 153.414062 60.5625 151.1875 56.160156 148.347656 C 49.558594 144.085938 44.6875 138.421875 41.480469 133.820312 C 39.878906 131.519531 38.695312 129.492188 37.914062 128.042969 C 37.523438 127.316406 37.234375 126.738281 37.046875 126.347656 C 36.949219 126.152344 36.878906 126 36.832031 125.898438 L 36.785156 125.789062 L 36.769531 125.757812 C 36.578125 125.320312 36.183594 125.003906 35.703125 124.914062 C 35.226562 124.828125 34.746094 124.984375 34.40625 125.328125 L 35.441406 126.339844 L 34.117188 126.914062 C 34.15625 126.996094 37 133.519531 43.046875 140.566406 C 46.070312 144.085938 49.894531 147.742188 54.589844 150.773438 C 59.277344 153.804688 64.84375 156.203125 71.289062 157.1875 C 73.597656 157.535156 75.707031 157.699219 77.644531 157.699219 C 82.28125 157.703125 85.949219 156.761719 88.964844 155.339844 C 93.488281 153.203125 96.515625 150.070312 99.480469 147.65625 C 100.960938 146.441406 102.414062 145.402344 104.015625 144.667969 C 105.621094 143.933594 107.371094 143.488281 109.550781 143.484375 C 110.890625 143.488281 112.386719 143.660156 114.097656 144.058594 C 116.148438 144.53125 118.1875 145.535156 120.238281 146.992188 C 123.3125 149.179688 126.382812 152.367188 129.492188 156.09375 C 132.609375 159.820312 135.761719 164.078125 139.0625 168.390625 C 146.289062 177.824219 154.46875 186.3125 162.492188 192.964844 C 170.53125 199.617188 178.386719 204.449219 185.132812 206.539062 C 187.046875 207.132812 189.152344 207.378906 191.347656 207.382812 C 197.402344 207.375 204.175781 205.496094 209.554688 203.011719 C 212.246094 201.765625 214.578125 200.367188 216.316406 198.902344 C 217.183594 198.167969 217.910156 197.414062 218.453125 196.613281 C 218.984375 195.8125 219.359375 194.925781 219.363281 193.949219 C 219.367188 193.324219 219.191406 192.679688 218.855469 192.128906 C 218.519531 191.574219 218.046875 191.113281 217.488281 190.738281 C 215.882812 189.65625 213.652344 187.757812 211.046875 185.300781 C 201.90625 176.6875 188.0625 161.199219 176.546875 147.898438 C 170.789062 141.246094 165.605469 135.128906 161.855469 130.683594 C 159.988281 128.457031 158.476562 126.652344 157.429688 125.402344 C 156.386719 124.148438 155.8125 123.457031 155.808594 123.453125 L 154.695312 124.378906 L 155.84375 125.257812 L 155.472656 124.972656 L 155.835938 125.269531 L 155.84375 125.257812 L 155.472656 124.972656 L 155.835938 125.269531 C 155.851562 125.242188 156.15625 124.886719 156.65625 124.5625 C 157.160156 124.234375 157.824219 123.949219 158.660156 123.949219 C 159.265625 123.949219 159.992188 124.089844 160.886719 124.566406 C 161.785156 125.035156 162.847656 125.847656 164.042969 127.183594 C 164.195312 127.347656 164.457031 127.6875 164.789062 128.140625 C 166.046875 129.863281 168.308594 133.261719 171.46875 137.71875 C 180.960938 151.09375 198.683594 174.109375 223.832031 192.214844 C 225.902344 193.703125 228.523438 195.113281 231.578125 196.484375 C 236.910156 198.886719 243.546875 201.179688 250.636719 203.410156 C 261.273438 206.75 272.929688 209.925781 282.617188 212.976562 C 287.460938 214.5 291.808594 215.996094 295.261719 217.441406 C 296.992188 218.164062 298.492188 218.875 299.714844 219.566406 C 300.9375 220.25 301.867188 220.917969 302.445312 221.496094 C 307.214844 226.226562 310.039062 231.597656 311.691406 236.792969 C 313.339844 241.992188 313.800781 247.003906 313.800781 250.929688 C 313.800781 253.304688 313.632812 255.28125 313.46875 256.65625 C 313.382812 257.34375 313.300781 257.878906 313.242188 258.242188 C 313.210938 258.417969 313.183594 258.554688 313.164062 258.644531 L 313.152344 258.742188 L 313.144531 258.761719 L 314.558594 259.0625 L 313.796875 257.832031 L 313.773438 257.847656 C 312.710938 258.507812 274.171875 281.863281 219.324219 281.855469 C 216.128906 281.855469 212.875 281.777344 209.574219 281.609375 C 201.539062 281.203125 191.472656 279.1875 180.453125 276.109375 C 147.382812 266.863281 105.71875 248.003906 82.699219 234.640625 C 69.175781 226.785156 56.746094 222.433594 47.382812 219.167969 C 42.707031 217.53125 38.789062 216.164062 35.945312 214.808594 C 34.519531 214.136719 33.371094 213.460938 32.527344 212.800781 C 31.683594 212.136719 31.167969 211.496094 30.902344 210.890625 C 27.753906 203.707031 26.597656 197.121094 26.59375 190.972656 C 26.59375 182.195312 28.972656 174.289062 31.414062 167.003906 C 33.839844 159.71875 36.363281 153.078125 36.382812 146.675781 C 36.382812 144.234375 36 141.824219 35.078125 139.492188 C 34.3125 137.542969 34.035156 135.828125 34.03125 134.332031 C 34.03125 132.078125 34.671875 130.316406 35.300781 129.105469 C 35.613281 128.503906 35.925781 128.042969 36.152344 127.746094 C 36.265625 127.597656 36.359375 127.488281 36.414062 127.417969 L 36.480469 127.351562 L 36.488281 127.339844 L 36.070312 126.945312 L 36.484375 127.34375 L 36.488281 127.339844 L 36.070312 126.945312 L 36.484375 127.34375 L 35.441406 126.339844 L 34.117188 126.914062 L 35.441406 126.339844 " fill-opacity="1" fill-rule="nonzero"/><path fill="#ffffff" d="M 314.558594 259.058594 C 314.558594 259.058594 270.851562 286.160156 209.503906 283.054688 C 176.660156 281.386719 112.84375 253.804688 81.972656 235.886719 C 73.335938 230.882812 65.152344 227.304688 57.921875 224.519531 C 61.3125 208.15625 57.171875 196.097656 51.101562 187.558594 C 52.441406 188.425781 53.832031 189.246094 55.191406 190.09375 C 58.496094 192.144531 62.328125 195.242188 65.585938 197.410156 C 70.128906 200.429688 72.949219 203.363281 76.675781 207.453125 C 86.113281 217.816406 98.996094 226.6875 111.628906 233.167969 C 138.765625 247.101562 190.175781 255.488281 220.597656 257.351562 C 249.34375 259.101562 286.328125 245.949219 309.707031 228.808594 C 317.339844 244.339844 314.558594 259.058594 314.558594 259.058594 " fill-opacity="1" fill-rule="nonzero"/><path fill="#000000" d="M 314.558594 259.058594 L 313.792969 257.828125 L 313.769531 257.84375 C 312.703125 258.503906 274.164062 281.867188 219.3125 281.859375 C 216.121094 281.859375 212.871094 281.78125 209.574219 281.613281 C 201.539062 281.207031 191.472656 279.191406 180.453125 276.109375 C 147.382812 266.867188 105.71875 248.003906 82.699219 234.636719 C 73.976562 229.585938 65.71875 225.976562 58.441406 223.171875 L 57.921875 224.519531 L 59.339844 224.8125 C 60.199219 220.664062 60.585938 216.777344 60.585938 213.136719 C 60.589844 202.078125 56.992188 193.34375 52.28125 186.71875 L 51.101562 187.558594 L 50.3125 188.769531 C 51.6875 189.660156 53.085938 190.484375 54.425781 191.320312 C 57.613281 193.296875 61.441406 196.390625 64.78125 198.613281 C 66.992188 200.082031 68.757812 201.511719 70.449219 203.085938 C 72.136719 204.664062 73.746094 206.386719 75.601562 208.425781 C 85.207031 218.964844 98.210938 227.914062 110.964844 234.453125 C 124.75 241.527344 144.46875 247.113281 164.59375 251.203125 C 184.710938 255.289062 205.214844 257.855469 220.507812 258.792969 C 222.265625 258.898438 224.054688 258.953125 225.863281 258.953125 C 240.019531 258.953125 255.621094 255.765625 270.476562 250.5625 C 285.332031 245.355469 299.433594 238.132812 310.5625 229.976562 L 309.707031 228.808594 L 308.40625 229.449219 C 312.691406 238.164062 313.601562 246.65625 313.601562 252.253906 C 313.601562 254.289062 313.480469 255.945312 313.363281 257.078125 C 313.300781 257.640625 313.246094 258.082031 313.199219 258.371094 C 313.175781 258.519531 313.160156 258.628906 313.152344 258.695312 L 313.136719 258.773438 L 313.132812 258.789062 L 314.558594 259.058594 L 313.792969 257.828125 L 314.558594 259.058594 L 315.976562 259.328125 C 315.988281 259.257812 316.496094 256.558594 316.496094 252.253906 C 316.496094 246.351562 315.542969 237.417969 311 228.171875 C 310.8125 227.789062 310.464844 227.507812 310.046875 227.40625 C 309.628906 227.304688 309.191406 227.390625 308.84375 227.644531 C 298.003906 235.597656 284.125 242.71875 269.519531 247.832031 C 254.917969 252.953125 239.585938 256.0625 225.863281 256.058594 C 224.109375 256.058594 222.378906 256.011719 220.683594 255.910156 C 205.554688 254.984375 185.140625 252.425781 165.171875 248.371094 C 145.199219 244.320312 125.636719 238.746094 112.289062 231.882812 C 99.777344 225.46875 87.015625 216.664062 77.746094 206.476562 C 75.875 204.429688 74.214844 202.644531 72.425781 200.972656 C 70.636719 199.304688 68.726562 197.757812 66.386719 196.207031 C 63.210938 194.097656 59.375 190.992188 55.957031 188.867188 C 54.578125 188.007812 53.195312 187.191406 51.886719 186.34375 C 51.304688 185.964844 50.535156 186.054688 50.054688 186.558594 C 49.574219 187.058594 49.519531 187.828125 49.917969 188.394531 C 54.335938 194.617188 57.6875 202.710938 57.691406 213.136719 C 57.691406 216.570312 57.324219 220.261719 56.503906 224.230469 C 56.359375 224.921875 56.738281 225.617188 57.402344 225.871094 C 64.582031 228.640625 72.691406 232.183594 81.246094 237.136719 C 96.773438 246.148438 120.480469 257.535156 144.472656 266.910156 C 156.464844 271.59375 168.523438 275.773438 179.671875 278.894531 C 190.820312 282.011719 201.042969 284.074219 209.425781 284.5 C 212.773438 284.667969 216.074219 284.75 219.3125 284.75 C 275.878906 284.738281 315.1875 260.359375 315.316406 260.289062 C 315.664062 260.070312 315.902344 259.726562 315.976562 259.328125 L 314.558594 259.058594 " fill-opacity="1" fill-rule="nonzero"/><path fill="#000000" d="M 98.085938 145.214844 C 93.152344 146.691406 88.582031 147.320312 84.359375 147.320312 C 77.964844 147.320312 72.359375 145.882812 67.511719 143.71875 C 60.246094 140.472656 54.699219 135.574219 50.980469 131.476562 C 49.125 129.433594 47.722656 127.59375 46.792969 126.269531 C 46.324219 125.609375 45.980469 125.078125 45.75 124.714844 C 45.632812 124.53125 45.550781 124.394531 45.492188 124.304688 L 45.433594 124.203125 L 45.421875 124.179688 L 45.417969 124.179688 C 45.019531 123.484375 44.136719 123.246094 43.441406 123.644531 C 42.75 124.042969 42.511719 124.925781 42.910156 125.621094 C 42.960938 125.707031 46.46875 131.789062 53.386719 137.917969 C 56.84375 140.976562 61.160156 144.046875 66.332031 146.359375 C 71.5 148.667969 77.527344 150.214844 84.359375 150.214844 C 88.871094 150.214844 93.730469 149.539062 98.917969 147.980469 C 99.683594 147.75 100.117188 146.945312 99.886719 146.179688 C 99.65625 145.417969 98.847656 144.984375 98.085938 145.214844 " fill-opacity="1" fill-rule="nonzero"/><path fill="#000000" d="M 121.578125 119.761719 C 106.597656 116.621094 94.65625 115.394531 85.128906 115.394531 C 68.515625 115.390625 59.175781 119.136719 53.96875 123.070312 C 51.367188 125.03125 49.8125 127.035156 48.914062 128.570312 C 48.019531 130.109375 47.773438 131.179688 47.742188 131.304688 C 47.578125 132.085938 48.074219 132.855469 48.859375 133.023438 C 49.640625 133.1875 50.410156 132.691406 50.578125 131.90625 L 49.8125 131.746094 L 50.574219 131.921875 L 50.574219 131.90625 L 49.8125 131.746094 L 50.574219 131.921875 C 50.574219 131.921875 50.582031 131.878906 50.613281 131.78125 C 50.84375 131.058594 52.039062 127.769531 56.847656 124.574219 C 61.660156 121.386719 70.179688 118.285156 85.128906 118.285156 C 94.410156 118.285156 106.15625 119.484375 120.980469 122.59375 C 121.765625 122.753906 122.53125 122.253906 122.695312 121.472656 C 122.859375 120.691406 122.359375 119.925781 121.578125 119.761719 " fill-opacity="1" fill-rule="nonzero"/><path fill="#ffffff" d="M 112.554688 156.132812 C 110.878906 156.132812 109.386719 154.941406 109.066406 153.238281 C 108.703125 151.308594 109.972656 149.449219 111.902344 149.085938 C 150.953125 141.761719 166.851562 133.757812 167.011719 133.675781 C 168.753906 132.785156 170.898438 133.464844 171.796875 135.210938 C 172.699219 136.949219 172.015625 139.085938 170.273438 139.988281 C 169.609375 140.332031 153.5 148.511719 113.21875 156.070312 C 112.996094 156.113281 112.773438 156.132812 112.554688 156.132812 " fill-opacity="1" fill-rule="nonzero"/><path fill="#000000" d="M 112.554688 156.132812 L 112.554688 154.6875 C 111.570312 154.6875 110.675781 153.976562 110.488281 152.964844 C 110.464844 152.832031 110.449219 152.703125 110.449219 152.578125 C 110.449219 151.585938 111.15625 150.695312 112.167969 150.511719 C 131.753906 146.835938 145.554688 142.984375 154.496094 140.035156 C 158.964844 138.5625 162.222656 137.3125 164.378906 136.421875 C 165.457031 135.976562 166.257812 135.625 166.800781 135.375 C 167.074219 135.25 167.28125 135.152344 167.425781 135.085938 C 167.570312 135.011719 167.640625 134.980469 167.675781 134.960938 L 167.667969 134.960938 C 167.984375 134.804688 168.308594 134.726562 168.632812 134.726562 C 169.398438 134.730469 170.136719 135.140625 170.507812 135.871094 C 170.671875 136.183594 170.746094 136.507812 170.746094 136.835938 C 170.742188 137.597656 170.335938 138.332031 169.605469 138.703125 C 169.089844 138.972656 153.113281 147.109375 112.953125 154.648438 C 112.824219 154.675781 112.691406 154.6875 112.554688 154.6875 L 112.554688 157.578125 C 112.859375 157.578125 113.171875 157.550781 113.484375 157.492188 C 153.882812 149.910156 170.128906 141.691406 170.941406 141.269531 C 172.652344 140.382812 173.644531 138.640625 173.640625 136.835938 C 173.640625 136.0625 173.460938 135.273438 173.082031 134.546875 C 172.191406 132.824219 170.441406 131.835938 168.632812 131.835938 C 167.863281 131.835938 167.078125 132.015625 166.351562 132.390625 L 166.34375 132.394531 L 166.613281 132.917969 L 166.347656 132.390625 L 166.34375 132.394531 L 166.613281 132.917969 L 166.347656 132.390625 C 166.09375 132.519531 150.261719 140.421875 111.636719 147.667969 C 109.230469 148.121094 107.554688 150.214844 107.554688 152.578125 C 107.554688 152.886719 107.585938 153.195312 107.644531 153.503906 C 108.101562 155.902344 110.191406 157.578125 112.554688 157.578125 L 112.554688 156.132812 " fill-opacity="1" fill-rule="nonzero"/><path fill="#ffffff" d="M 129.625 168.511719 C 128.023438 168.511719 126.566406 167.417969 126.171875 165.796875 C 125.707031 163.890625 126.878906 161.972656 128.789062 161.503906 C 160.757812 153.730469 176.757812 145.6875 176.917969 145.609375 C 178.664062 144.714844 180.808594 145.414062 181.699219 147.15625 C 182.59375 148.902344 181.898438 151.042969 180.152344 151.933594 C 179.480469 152.277344 163.363281 160.410156 130.46875 168.410156 C 130.1875 168.476562 129.902344 168.511719 129.625 168.511719 " fill-opacity="1" fill-rule="nonzero"/><path fill="#000000" d="M 129.625 168.511719 L 129.625 167.066406 C 128.679688 167.066406 127.808594 166.417969 127.578125 165.453125 C 127.539062 165.285156 127.519531 165.117188 127.519531 164.953125 C 127.519531 164.007812 128.164062 163.140625 129.128906 162.910156 C 161.214844 155.109375 177.328125 147.019531 177.566406 146.898438 L 177.574219 146.894531 C 177.886719 146.738281 178.207031 146.667969 178.53125 146.664062 C 179.300781 146.667969 180.039062 147.085938 180.410156 147.816406 C 180.570312 148.125 180.640625 148.449219 180.640625 148.765625 C 180.640625 149.535156 180.222656 150.273438 179.492188 150.644531 C 178.917969 150.941406 162.90625 159.03125 130.128906 167.003906 L 130.128906 167 C 129.957031 167.046875 129.785156 167.066406 129.625 167.066406 L 129.625 169.957031 C 130.019531 169.957031 130.417969 169.910156 130.808594 169.8125 L 130.8125 169.8125 C 163.820312 161.785156 180.046875 153.613281 180.8125 153.222656 C 182.542969 152.332031 183.535156 150.582031 183.535156 148.765625 C 183.535156 148.003906 183.359375 147.222656 182.988281 146.5 C 182.105469 144.769531 180.347656 143.769531 178.53125 143.773438 C 177.765625 143.769531 176.980469 143.953125 176.261719 144.320312 L 176.269531 144.3125 C 176.1875 144.355469 160.304688 152.351562 128.445312 160.101562 C 126.15625 160.660156 124.621094 162.699219 124.625 164.953125 C 124.625 165.347656 124.667969 165.746094 124.765625 166.140625 C 125.328125 168.425781 127.363281 169.957031 129.625 169.957031 L 129.625 168.511719 " fill-opacity="1" fill-rule="nonzero"/><path fill="#ffffff" d="M 142.46875 183.160156 C 140.867188 183.160156 139.414062 182.070312 139.015625 180.445312 C 138.550781 178.542969 139.726562 176.621094 141.628906 176.15625 C 173.414062 168.425781 187.550781 160.019531 187.691406 159.933594 C 189.367188 158.921875 191.558594 159.457031 192.574219 161.132812 C 193.589844 162.808594 193.0625 164.988281 191.390625 166.007812 C 190.789062 166.367188 176.335938 175.023438 143.3125 183.058594 C 143.03125 183.128906 142.746094 183.160156 142.46875 183.160156 " fill-opacity="1" fill-rule="nonzero"/><path fill="#000000" d="M 142.46875 183.160156 L 142.46875 181.714844 C 141.523438 181.714844 140.65625 181.066406 140.421875 180.105469 C 140.378906 179.933594 140.363281 179.769531 140.363281 179.605469 C 140.363281 178.660156 141.007812 177.792969 141.972656 177.558594 C 157.933594 173.675781 169.484375 169.621094 177.074219 166.515625 C 180.871094 164.964844 183.679688 163.648438 185.554688 162.710938 C 186.492188 162.242188 187.191406 161.871094 187.671875 161.605469 C 187.910156 161.472656 188.09375 161.371094 188.21875 161.300781 L 188.371094 161.214844 L 188.449219 161.164062 L 188.441406 161.171875 C 188.785156 160.964844 189.152344 160.867188 189.527344 160.867188 C 190.246094 160.871094 190.941406 161.226562 191.335938 161.882812 C 191.546875 162.226562 191.640625 162.597656 191.644531 162.972656 C 191.640625 163.683594 191.285156 164.375 190.632812 164.773438 L 190.632812 164.769531 C 190.160156 165.054688 175.859375 173.652344 142.96875 181.65625 L 142.972656 181.652344 C 142.796875 181.695312 142.632812 181.714844 142.46875 181.714844 L 142.46875 184.605469 C 142.863281 184.605469 143.261719 184.558594 143.648438 184.464844 L 143.65625 184.464844 C 176.816406 176.394531 191.410156 167.683594 192.140625 167.242188 L 192.144531 167.238281 C 193.679688 166.296875 194.539062 164.652344 194.535156 162.972656 C 194.539062 162.09375 194.300781 161.1875 193.8125 160.382812 C 192.867188 158.832031 191.210938 157.972656 189.527344 157.976562 C 188.644531 157.976562 187.746094 158.210938 186.941406 158.699219 L 186.929688 158.703125 L 187.375 159.421875 L 186.941406 158.699219 L 186.929688 158.703125 L 187.375 159.421875 L 186.941406 158.699219 C 186.722656 158.832031 172.683594 167.113281 141.289062 174.75 C 139 175.3125 137.464844 177.347656 137.464844 179.605469 C 137.464844 180 137.511719 180.398438 137.609375 180.789062 C 138.171875 183.070312 140.207031 184.605469 142.46875 184.605469 L 142.46875 183.160156 " fill-opacity="1" fill-rule="nonzero"/><path fill="#ffffff" d="M 155.96875 197.4375 C 154.367188 197.4375 152.910156 196.351562 152.515625 194.726562 C 152.050781 192.820312 153.21875 190.898438 155.132812 190.433594 C 186.800781 182.730469 198.664062 172.808594 198.78125 172.707031 C 200.273438 171.433594 202.515625 171.601562 203.792969 173.09375 C 205.078125 174.582031 204.902344 176.824219 203.40625 178.101562 C 202.882812 178.554688 190.117188 189.238281 156.8125 197.335938 C 156.53125 197.40625 156.246094 197.4375 155.96875 197.4375 " fill-opacity="1" fill-rule="nonzero"/><path fill="#000000" d="M 155.96875 197.4375 L 155.96875 195.992188 C 155.023438 195.992188 154.152344 195.34375 153.921875 194.386719 C 153.878906 194.210938 153.859375 194.046875 153.859375 193.882812 C 153.859375 192.9375 154.503906 192.070312 155.472656 191.839844 C 171.40625 187.964844 182.394531 183.519531 189.4375 180.011719 C 192.953125 178.257812 195.488281 176.742188 197.160156 175.640625 C 197.996094 175.097656 198.617188 174.652344 199.039062 174.339844 C 199.460938 174.023438 199.671875 173.851562 199.722656 173.804688 C 200.125 173.460938 200.605469 173.300781 201.097656 173.296875 C 201.695312 173.300781 202.277344 173.546875 202.699219 174.035156 C 203.039062 174.433594 203.203125 174.910156 203.203125 175.402344 C 203.203125 176 202.953125 176.582031 202.464844 177.003906 C 202.117188 177.304688 189.574219 187.878906 156.46875 195.933594 L 156.472656 195.933594 C 156.300781 195.972656 156.128906 195.992188 155.96875 195.992188 L 155.96875 198.882812 C 156.363281 198.882812 156.761719 198.835938 157.148438 198.746094 L 157.15625 198.742188 C 190.664062 190.59375 203.648438 179.804688 204.347656 179.199219 C 205.503906 178.214844 206.101562 176.804688 206.097656 175.402344 C 206.097656 174.253906 205.703125 173.089844 204.894531 172.152344 C 203.90625 171 202.5 170.40625 201.097656 170.40625 C 199.945312 170.40625 198.78125 170.804688 197.839844 171.605469 L 197.871094 171.644531 L 197.839844 171.605469 L 197.871094 171.644531 L 197.839844 171.605469 C 197.535156 171.859375 185.769531 181.492188 154.789062 189.03125 C 152.496094 189.589844 150.964844 191.628906 150.964844 193.882812 C 150.964844 194.28125 151.011719 194.675781 151.109375 195.070312 C 151.671875 197.351562 153.707031 198.882812 155.96875 198.882812 L 155.96875 197.4375 " fill-opacity="1" fill-rule="nonzero"/><path fill="#ffffff" d="M 170.613281 207.886719 C 168.949219 207.886719 167.460938 206.714844 167.125 205.019531 C 166.75 203.097656 168.003906 201.230469 169.929688 200.847656 C 194.265625 196.0625 211.746094 184.125 211.914062 184.003906 C 213.53125 182.890625 215.746094 183.289062 216.863281 184.902344 C 217.984375 186.511719 217.585938 188.722656 215.972656 189.839844 C 215.214844 190.363281 197.164062 202.730469 171.304688 207.820312 C 171.070312 207.863281 170.84375 207.886719 170.613281 207.886719 " fill-opacity="1" fill-rule="nonzero"/><path fill="#000000" d="M 170.613281 207.886719 L 170.613281 206.441406 C 169.628906 206.441406 168.742188 205.746094 168.546875 204.738281 C 168.519531 204.597656 168.507812 204.464844 168.507812 204.332031 C 168.507812 203.347656 169.203125 202.460938 170.210938 202.265625 C 182.539062 199.84375 193.101562 195.617188 200.617188 191.980469 C 204.375 190.15625 207.367188 188.484375 209.445312 187.257812 C 210.480469 186.644531 211.285156 186.140625 211.84375 185.78125 C 212.402344 185.425781 212.695312 185.222656 212.746094 185.191406 L 212.742188 185.195312 C 213.109375 184.9375 213.523438 184.816406 213.9375 184.816406 C 214.613281 184.820312 215.261719 185.128906 215.671875 185.726562 C 215.929688 186.09375 216.050781 186.503906 216.050781 186.921875 C 216.046875 187.59375 215.738281 188.242188 215.144531 188.65625 C 214.488281 189.113281 196.574219 201.378906 171.023438 206.398438 C 170.882812 206.429688 170.746094 206.441406 170.613281 206.441406 L 170.613281 209.332031 C 170.9375 209.332031 171.261719 209.300781 171.582031 209.238281 C 197.753906 204.082031 215.941406 191.617188 216.796875 191.03125 L 216.796875 191.027344 C 218.191406 190.058594 218.949219 188.496094 218.945312 186.921875 C 218.945312 185.941406 218.65625 184.941406 218.054688 184.074219 C 217.082031 182.679688 215.519531 181.921875 213.9375 181.925781 C 212.960938 181.925781 211.957031 182.214844 211.09375 182.816406 L 211.089844 182.820312 C 210.753906 183.054688 193.480469 194.75 169.648438 199.429688 C 167.261719 199.90625 165.613281 201.988281 165.613281 204.332031 C 165.613281 204.652344 165.640625 204.976562 165.707031 205.300781 C 166.179688 207.683594 168.265625 209.332031 170.613281 209.332031 L 170.613281 207.886719 " fill-opacity="1" fill-rule="nonzero"/><path fill="#475d64" d="M 183.207031 204.335938 C 196.652344 217.808594 185.03125 231.757812 185.03125 231.757812 " fill-opacity="1" fill-rule="nonzero"/><path fill="#000000" d="M 182.183594 205.355469 C 184.527344 207.707031 186.03125 210.027344 186.964844 212.257812 C 187.890625 214.484375 188.246094 216.621094 188.25 218.628906 C 188.25 222.09375 187.167969 225.167969 186.066406 227.371094 C 185.519531 228.472656 184.96875 229.355469 184.566406 229.949219 C 184.363281 230.25 184.191406 230.476562 184.078125 230.628906 L 183.949219 230.789062 L 183.925781 230.828125 L 183.917969 230.835938 L 184.261719 231.113281 L 183.921875 230.832031 L 183.917969 230.835938 L 184.261719 231.113281 L 183.921875 230.832031 C 183.40625 231.445312 183.492188 232.355469 184.105469 232.867188 C 184.71875 233.378906 185.636719 233.292969 186.144531 232.679688 C 186.199219 232.617188 187.425781 231.140625 188.660156 228.660156 C 189.890625 226.179688 191.140625 222.695312 191.144531 218.628906 C 191.144531 216.277344 190.71875 213.742188 189.636719 211.144531 C 188.554688 208.546875 186.816406 205.902344 184.234375 203.316406 C 183.667969 202.746094 182.753906 202.746094 182.1875 203.3125 C 181.621094 203.875 181.617188 204.792969 182.183594 205.355469 " fill-opacity="1" fill-rule="nonzero"/><path fill="#000000" d="M 92.886719 151.5 L 165.625 223.273438 C 166.195312 223.835938 167.113281 223.832031 167.671875 223.261719 C 168.234375 222.695312 168.230469 221.78125 167.660156 221.21875 L 94.917969 149.445312 C 94.347656 148.882812 93.433594 148.890625 92.871094 149.457031 C 92.308594 150.023438 92.316406 150.941406 92.886719 151.5 " fill-opacity="1" fill-rule="nonzero"/><path fill="#000000" d="M 59.339844 224.8125 C 60.199219 220.664062 60.585938 216.777344 60.585938 213.136719 C 60.589844 202.078125 56.992188 193.34375 52.28125 186.71875 L 51.101562 187.558594 L 52.546875 187.558594 L 52.546875 187.546875 C 52.546875 187.246094 52.457031 186.960938 52.28125 186.710938 C 47.789062 180.386719 42.304688 175.964844 37.945312 173.117188 C 33.582031 170.261719 30.332031 168.976562 30.265625 168.949219 C 29.519531 168.660156 28.679688 169.019531 28.386719 169.765625 C 28.09375 170.507812 28.457031 171.347656 29.203125 171.640625 L 29.226562 171.652344 C 29.53125 171.777344 32.671875 173.074219 36.75 175.792969 C 40.828125 178.507812 45.839844 182.632812 49.917969 188.382812 L 51.101562 187.546875 L 49.65625 187.546875 L 49.65625 187.558594 C 49.65625 187.859375 49.746094 188.144531 49.917969 188.394531 C 54.335938 194.617188 57.6875 202.710938 57.691406 213.136719 C 57.691406 216.570312 57.324219 220.261719 56.503906 224.230469 C 56.34375 225.011719 56.84375 225.777344 57.628906 225.941406 C 58.410156 226.097656 59.175781 225.597656 59.339844 224.8125 " fill-opacity="1" fill-rule="nonzero"/></svg>