<svg xmlns="http://www.w3.org/2000/svg" xmlns:xlink="http://www.w3.org/1999/xlink" width="500" zoomAndPan="magnify" viewBox="0 0 375 374.999991" height="500" preserveAspectRatio="xMidYMid meet" version="1.0"><path fill="#000000" d="M 121.8125 19.382812 L 107.867188 25.152344 L 107.871094 25.152344 C 98.71875 27.964844 92.792969 38.09375 94.375 49.640625 C 94.375 49.640625 124.457031 269.464844 134.488281 342.738281 C 135.804688 352.363281 141.707031 358.585938 148.988281 359.640625 C 152.335938 360.125 162.355469 361.734375 162.355469 361.734375 Z M 121.8125 19.382812 " fill-opacity="1" fill-rule="nonzero"/><path fill="#000000" d="M 162.355469 362.785156 C 162.300781 362.785156 162.246094 362.78125 162.191406 362.773438 C 162.089844 362.757812 152.140625 361.160156 148.839844 360.683594 C 140.808594 359.519531 134.765625 352.53125 133.445312 342.882812 L 93.332031 49.785156 C 91.71875 37.992188 97.667969 27.238281 107.480469 24.171875 L 121.410156 18.410156 C 121.714844 18.285156 122.058594 18.308594 122.34375 18.472656 C 122.628906 18.640625 122.816406 18.929688 122.855469 19.257812 L 163.398438 361.609375 C 163.4375 361.9375 163.320312 362.265625 163.085938 362.492188 C 162.886719 362.683594 162.625 362.785156 162.355469 362.785156 Z M 108.339844 26.09375 C 108.289062 26.121094 108.234375 26.144531 108.179688 26.160156 C 99.304688 28.886719 93.9375 38.703125 95.414062 49.5 L 135.527344 342.597656 C 136.738281 351.425781 141.953125 357.558594 149.140625 358.601562 C 151.710938 358.972656 158.28125 360.019531 161.148438 360.476562 L 120.933594 20.882812 Z M 108.339844 26.09375 " fill-opacity="1" fill-rule="nonzero"/><path fill="#99b1b8" d="M 267.667969 319.503906 L 171.761719 360.585938 C 160.914062 365.234375 150.476562 358.097656 148.664062 344.554688 L 108.550781 44.386719 C 106.753906 30.941406 114.65625 19.371094 125.972656 18.558594 L 226.066406 11.375 C 235.066406 10.726562 243.511719 19.667969 245.089844 31.332031 L 280.28125 291.617188 C 281.867188 303.351562 276.289062 315.808594 267.667969 319.503906 Z M 267.667969 319.503906 " fill-opacity="1" fill-rule="nonzero"/><path fill="#000000" d="M 165.148438 363.054688 C 162.441406 363.054688 159.820312 362.371094 157.429688 361.011719 C 152.1875 358.027344 148.609375 352.082031 147.625 344.695312 L 107.507812 44.527344 C 106.515625 37.085938 108.375 29.828125 112.613281 24.613281 C 116.035156 20.402344 120.753906 17.878906 125.898438 17.511719 L 225.992188 10.324219 C 235.449219 9.648438 244.484375 19.007812 246.132812 31.191406 L 281.320312 291.476562 C 282.992188 303.839844 277.175781 316.574219 268.082031 320.46875 L 172.175781 361.554688 C 169.835938 362.554688 167.460938 363.054688 165.148438 363.054688 Z M 226.976562 12.394531 C 226.699219 12.394531 226.421875 12.402344 226.140625 12.421875 L 126.046875 19.609375 C 121.488281 19.9375 117.296875 22.183594 114.242188 25.941406 C 110.371094 30.707031 108.675781 37.378906 109.59375 44.246094 L 149.707031 344.414062 C 150.605469 351.144531 153.800781 356.527344 158.46875 359.183594 C 162.320312 361.375 166.894531 361.527344 171.347656 359.621094 L 267.253906 318.535156 C 275.386719 315.050781 280.765625 303.039062 279.238281 291.757812 L 244.050781 31.472656 C 242.597656 20.738281 235.042969 12.394531 226.976562 12.394531 Z M 226.976562 12.394531 " fill-opacity="1" fill-rule="nonzero"/><path fill="#ffffff" d="M 245.089844 31.332031 C 243.511719 19.667969 235.066406 10.726562 226.066406 11.375 L 125.972656 18.558594 C 114.65625 19.371094 106.753906 30.941406 108.550781 44.386719 L 110.695312 60.433594 L 246.972656 45.253906 Z M 245.089844 31.332031 " fill-opacity="1" fill-rule="nonzero"/><path fill="#000000" d="M 110.695312 61.488281 C 110.175781 61.488281 109.726562 61.101562 109.652344 60.574219 L 107.507812 44.527344 C 106.515625 37.085938 108.375 29.824219 112.613281 24.613281 C 116.035156 20.402344 120.753906 17.878906 125.898438 17.511719 L 225.992188 10.324219 C 235.449219 9.648438 244.484375 19.007812 246.132812 31.191406 L 248.015625 45.113281 C 248.050781 45.394531 247.976562 45.675781 247.800781 45.902344 C 247.625 46.125 247.371094 46.269531 247.089844 46.300781 L 110.8125 61.480469 C 110.773438 61.484375 110.734375 61.488281 110.695312 61.488281 Z M 226.976562 12.394531 C 226.699219 12.394531 226.421875 12.402344 226.140625 12.421875 L 126.046875 19.609375 C 121.488281 19.9375 117.296875 22.183594 114.246094 25.9375 C 110.371094 30.707031 108.675781 37.378906 109.59375 44.25 L 111.601562 59.277344 L 245.789062 44.328125 L 244.050781 31.472656 C 242.597656 20.738281 235.042969 12.394531 226.976562 12.394531 Z M 226.976562 12.394531 " fill-opacity="1" fill-rule="nonzero"/><path fill="#ffffff" d="M 146.507812 328.40625 L 148.664062 344.554688 C 150.476562 358.097656 160.914062 365.234375 171.761719 360.585938 L 267.667969 319.503906 C 276.289062 315.808594 281.867188 303.351562 280.28125 291.617188 L 278.386719 277.617188 Z M 146.507812 328.40625 " fill-opacity="1" fill-rule="nonzero"/><path fill="#000000" d="M 165.148438 363.054688 C 162.441406 363.054688 159.820312 362.371094 157.429688 361.011719 C 152.1875 358.027344 148.609375 352.082031 147.625 344.695312 L 145.464844 328.542969 C 145.402344 328.0625 145.675781 327.597656 146.128906 327.421875 L 278.011719 276.636719 C 278.308594 276.519531 278.644531 276.546875 278.921875 276.710938 C 279.199219 276.878906 279.386719 277.160156 279.429688 277.476562 L 281.320312 291.476562 C 282.992188 303.839844 277.175781 316.574219 268.082031 320.46875 L 172.175781 361.554688 C 169.835938 362.554688 167.460938 363.054688 165.148438 363.054688 Z M 147.65625 329.089844 L 149.707031 344.414062 C 150.605469 351.144531 153.800781 356.527344 158.46875 359.183594 C 162.320312 361.375 166.894531 361.527344 171.347656 359.621094 L 267.253906 318.535156 C 275.386719 315.050781 280.765625 303.039062 279.238281 291.757812 L 277.523438 279.078125 Z M 147.65625 329.089844 " fill-opacity="1" fill-rule="nonzero"/><path fill="#ffffff" d="M 245.089844 31.332031 C 243.511719 19.667969 235.066406 10.726562 226.066406 11.375 L 194.355469 13.652344 L 192.566406 51.3125 L 246.972656 45.253906 Z M 245.089844 31.332031 " fill-opacity="1" fill-rule="nonzero"/><path fill="#ffffff" d="M 267.667969 319.503906 C 276.289062 315.808594 281.867188 303.351562 280.28125 291.617188 L 278.386719 277.617188 L 180.03125 315.496094 L 178.015625 357.90625 Z M 267.667969 319.503906 " fill-opacity="1" fill-rule="nonzero"/><path fill="#000000" d="M 110.695312 61.488281 C 110.175781 61.488281 109.726562 61.101562 109.652344 60.574219 L 107.507812 44.527344 C 106.515625 37.085938 108.375 29.824219 112.613281 24.613281 C 116.035156 20.402344 120.753906 17.878906 125.898438 17.511719 L 225.992188 10.324219 C 235.449219 9.648438 244.484375 19.007812 246.132812 31.191406 L 248.015625 45.113281 C 248.050781 45.394531 247.976562 45.675781 247.800781 45.902344 C 247.625 46.125 247.371094 46.269531 247.089844 46.300781 L 110.8125 61.480469 C 110.773438 61.484375 110.734375 61.488281 110.695312 61.488281 Z M 226.976562 12.394531 C 226.699219 12.394531 226.421875 12.402344 226.140625 12.421875 L 126.046875 19.609375 C 121.488281 19.9375 117.296875 22.183594 114.246094 25.9375 C 110.371094 30.707031 108.675781 37.378906 109.59375 44.25 L 111.601562 59.277344 L 245.789062 44.328125 L 244.050781 31.472656 C 242.597656 20.738281 235.042969 12.394531 226.976562 12.394531 Z M 226.976562 12.394531 " fill-opacity="1" fill-rule="nonzero"/><path fill="#000000" d="M 165.148438 363.054688 C 162.441406 363.054688 159.820312 362.371094 157.429688 361.011719 C 152.1875 358.027344 148.609375 352.082031 147.625 344.695312 L 145.464844 328.542969 C 145.402344 328.0625 145.675781 327.597656 146.128906 327.421875 L 278.011719 276.636719 C 278.308594 276.519531 278.644531 276.546875 278.921875 276.710938 C 279.199219 276.878906 279.386719 277.160156 279.429688 277.476562 L 281.320312 291.476562 C 282.992188 303.839844 277.175781 316.574219 268.082031 320.46875 L 172.175781 361.554688 C 169.835938 362.554688 167.460938 363.054688 165.148438 363.054688 Z M 147.65625 329.089844 L 149.707031 344.414062 C 150.605469 351.144531 153.800781 356.527344 158.46875 359.183594 C 162.320312 361.375 166.894531 361.527344 171.347656 359.621094 L 267.253906 318.535156 C 275.386719 315.050781 280.765625 303.039062 279.238281 291.757812 L 277.523438 279.078125 Z M 147.65625 329.089844 " fill-opacity="1" fill-rule="nonzero"/><path fill="#000000" d="M 160.25 39.925781 C 158.433594 39.925781 156.789062 38.324219 156.507812 36.210938 C 156.34375 35.015625 156.644531 33.839844 157.324219 32.984375 C 157.890625 32.28125 158.675781 31.847656 159.535156 31.769531 C 161.480469 31.605469 163.25 33.226562 163.550781 35.472656 C 163.710938 36.664062 163.414062 37.839844 162.738281 38.691406 C 162.175781 39.398438 161.398438 39.832031 160.539062 39.914062 C 160.441406 39.921875 160.347656 39.925781 160.25 39.925781 Z M 159.8125 33.863281 C 159.78125 33.863281 159.75 33.863281 159.722656 33.867188 C 159.359375 33.898438 159.109375 34.121094 158.96875 34.300781 C 158.644531 34.699219 158.503906 35.3125 158.589844 35.929688 C 158.734375 37.03125 159.558594 37.890625 160.339844 37.820312 C 160.703125 37.785156 160.949219 37.5625 161.09375 37.382812 C 161.410156 36.980469 161.550781 36.371094 161.46875 35.753906 C 161.328125 34.703125 160.582031 33.863281 159.8125 33.863281 Z M 159.8125 33.863281 " fill-opacity="1" fill-rule="nonzero"/><path fill="#000000" d="M 218.429688 333.160156 C 217.128906 333.160156 215.863281 332.824219 214.703125 332.160156 C 212.070312 330.648438 210.265625 327.617188 209.757812 323.835938 C 208.84375 317.019531 212.425781 309.769531 217.75 307.671875 C 220.074219 306.757812 222.488281 306.921875 224.542969 308.128906 C 227.140625 309.65625 228.917969 312.671875 229.417969 316.40625 C 230.335938 323.207031 226.90625 330.273438 221.617188 332.496094 C 220.5625 332.9375 219.484375 333.160156 218.429688 333.160156 Z M 220.746094 309.1875 C 220.019531 309.1875 219.269531 309.335938 218.519531 309.632812 C 214.042969 311.394531 211.046875 317.640625 211.839844 323.554688 C 212.261719 326.679688 213.683594 329.152344 215.746094 330.332031 C 217.292969 331.21875 219.039062 331.292969 220.804688 330.554688 C 225.1875 328.714844 228.117188 322.492188 227.335938 316.6875 C 226.921875 313.597656 225.515625 311.140625 223.480469 309.945312 C 222.625 309.441406 221.703125 309.1875 220.746094 309.1875 Z M 220.746094 309.1875 " fill-opacity="1" fill-rule="nonzero"/><path fill="#000000" d="M 168.382812 36.128906 C 167.847656 36.128906 167.390625 35.71875 167.339844 35.171875 C 167.285156 34.59375 167.710938 34.082031 168.289062 34.027344 L 203.621094 30.777344 C 204.1875 30.734375 204.710938 31.152344 204.765625 31.730469 C 204.816406 32.308594 204.390625 32.820312 203.816406 32.875 L 168.480469 36.121094 C 168.449219 36.125 168.417969 36.128906 168.382812 36.128906 Z M 168.382812 36.128906 " fill-opacity="1" fill-rule="nonzero"/><path fill="#99b1b8" d="M 192.011719 310.882812 L 153.257812 325.804688 L 167.367188 54.121094 L 203.675781 50.078125 Z M 192.011719 310.882812 " fill-opacity="1" fill-rule="nonzero"/><path fill="#99b1b8" d="M 227.609375 297.171875 L 210.746094 303.667969 L 221.28125 48.117188 L 237.15625 46.347656 Z M 227.609375 297.171875 " fill-opacity="1" fill-rule="nonzero"/><path fill="#000000" d="M 146.507812 329.457031 C 146.320312 329.457031 146.136719 329.40625 145.972656 329.308594 C 145.695312 329.144531 145.507812 328.863281 145.464844 328.542969 L 109.652344 60.574219 C 109.617188 60.292969 109.691406 60.011719 109.867188 59.789062 C 110.042969 59.5625 110.296875 59.421875 110.578125 59.390625 L 246.855469 44.207031 C 247.425781 44.148438 247.9375 44.546875 248.015625 45.113281 L 279.429688 277.476562 C 279.496094 277.960938 279.21875 278.425781 278.765625 278.601562 L 146.882812 329.386719 C 146.761719 329.433594 146.632812 329.457031 146.507812 329.457031 Z M 111.878906 61.363281 L 147.371094 326.945312 L 277.234375 276.933594 L 246.070312 46.410156 Z M 111.878906 61.363281 " fill-opacity="1" fill-rule="nonzero"/></svg>