<svg xmlns="http://www.w3.org/2000/svg" xmlns:xlink="http://www.w3.org/1999/xlink" width="40" zoomAndPan="magnify" viewBox="0 0 30 30.000001" height="40" preserveAspectRatio="xMidYMid meet" version="1.0"><defs><clipPath id="76b0e16f5c"><path d="M 4 12 L 24.433594 12 L 24.433594 26.769531 L 4 26.769531 Z M 4 12 " clip-rule="nonzero"/></clipPath><clipPath id="16102dff33"><path d="M 3.386719 4.269531 L 24 4.269531 L 24 13 L 3.386719 13 Z M 3.386719 4.269531 " clip-rule="nonzero"/></clipPath></defs><g clip-path="url(#76b0e16f5c)"><path fill="#000000" d="M 4.726562 12.308594 L 23.808594 12.308594 C 24.152344 12.308594 24.433594 12.589844 24.433594 12.933594 L 24.433594 14.765625 C 24.433594 15.042969 24.210938 15.265625 23.9375 15.265625 L 4.601562 15.265625 C 4.324219 15.265625 4.101562 15.042969 4.101562 14.765625 L 4.101562 12.933594 C 4.101562 12.589844 4.382812 12.308594 4.726562 12.308594 Z M 24.433594 15.9375 L 24.433594 26.144531 C 24.433594 26.488281 24.152344 26.769531 23.808594 26.769531 L 4.726562 26.769531 C 4.382812 26.769531 4.101562 26.488281 4.101562 26.144531 L 4.101562 15.9375 C 4.101562 15.664062 4.324219 15.441406 4.597656 15.441406 L 23.9375 15.441406 C 24.210938 15.441406 24.433594 15.664062 24.433594 15.9375 Z M 20.789062 12.523438 L 21.472656 15.089844 L 23.324219 15.089844 L 22.636719 12.523438 Z M 17.089844 12.523438 L 17.777344 15.089844 L 19.625 15.089844 L 18.9375 12.523438 Z M 13.394531 12.523438 L 14.082031 15.089844 L 15.929688 15.089844 L 15.242188 12.523438 Z M 9.695312 12.523438 L 10.382812 15.089844 L 12.230469 15.089844 L 11.546875 12.523438 Z M 6 12.523438 L 6.6875 15.089844 L 8.535156 15.089844 L 7.847656 12.523438 Z M 4.839844 15.089844 L 4.277344 13 L 4.277344 14.734375 C 4.277344 14.929688 4.4375 15.089844 4.632812 15.089844 Z M 4.839844 15.089844 " fill-opacity="1" fill-rule="evenodd"/></g><g clip-path="url(#16102dff33)"><path fill="#000000" d="M 5.890625 11.644531 L 5.890625 8.992188 L 7.675781 8.515625 L 7.675781 11.167969 Z M 3.4375 9.832031 L 4.011719 11.964844 C 4.0625 12.152344 4.253906 12.265625 4.441406 12.214844 C 10.761719 10.523438 17.082031 8.832031 23.398438 7.136719 C 23.589844 7.085938 23.699219 6.894531 23.648438 6.707031 L 23.078125 4.570312 C 23.027344 4.382812 22.832031 4.269531 22.644531 4.320312 C 16.328125 6.015625 10.007812 7.707031 3.6875 9.398438 C 3.5 9.449219 3.386719 9.644531 3.4375 9.832031 Z M 4.105469 9.46875 L 4.105469 11.632812 L 3.65625 9.957031 C 3.605469 9.769531 3.714844 9.574219 3.90625 9.523438 Z M 9.460938 8.035156 L 11.246094 7.558594 L 11.246094 10.210938 L 9.460938 10.6875 Z M 13.03125 7.078125 L 14.816406 6.601562 L 14.816406 9.253906 L 13.03125 9.730469 Z M 16.601562 6.121094 L 18.386719 5.644531 L 18.386719 8.296875 L 16.601562 8.777344 Z M 20.171875 5.167969 L 21.957031 4.6875 L 21.957031 7.339844 L 20.171875 7.820312 Z M 20.171875 5.167969 " fill-opacity="1" fill-rule="evenodd"/></g></svg>