<svg xmlns="http://www.w3.org/2000/svg" xmlns:xlink="http://www.w3.org/1999/xlink" width="40" zoomAndPan="magnify" viewBox="0 0 30 30.000001" height="40" preserveAspectRatio="xMidYMid meet" version="1.0"><defs><clipPath id="47b8cb7f96"><path d="M 0.484375 7.695312 L 29.515625 7.695312 L 29.515625 24.386719 L 0.484375 24.386719 Z M 0.484375 7.695312 " clip-rule="nonzero"/></clipPath></defs><g clip-path="url(#47b8cb7f96)"><path fill="#000000" d="M 10.511719 19.148438 L 6.710938 18.53125 L 9.105469 15.453125 C 10.347656 16.523438 10.503906 17.8125 10.511719 19.148438 Z M 11.558594 19.371094 C 11.5625 19.238281 11.585938 19.023438 11.585938 18.875 C 11.585938 17.347656 11.085938 15.867188 9.734375 14.636719 L 11.144531 12.96875 L 13.320312 19.550781 Z M 19.921875 12.820312 L 19.800781 12.457031 L 12.039062 12.445312 L 14.105469 18.640625 L 14.191406 17.996094 L 13.957031 17.996094 L 13.984375 17.585938 L 15.023438 17.585938 L 14.992188 17.964844 L 14.726562 17.964844 L 14.667969 18.671875 C 14.667969 18.671875 19.890625 12.851562 19.921875 12.820312 Z M 23.359375 18.773438 C 22.316406 17.953125 21.503906 17.171875 20.917969 15.609375 C 19.996094 16.441406 19.46875 17.640625 19.46875 18.875 C 19.46875 21.324219 21.488281 23.324219 23.964844 23.324219 C 26.4375 23.324219 28.457031 21.324219 28.457031 18.875 C 28.457031 16.421875 26.4375 14.421875 23.964844 14.421875 C 23.171875 14.421875 22.367188 14.648438 21.714844 15.03125 C 22.15625 16.410156 22.585938 17.121094 23.941406 18.203125 C 24.269531 18.214844 24.519531 18.476562 24.519531 18.789062 C 24.519531 19.113281 24.253906 19.378906 23.925781 19.378906 C 23.601562 19.378906 23.359375 19.113281 23.359375 18.773438 Z M 10.351562 20.09375 C 9.84375 21.96875 8.035156 23.324219 6.035156 23.324219 C 3.558594 23.324219 1.539062 21.324219 1.539062 18.875 C 1.539062 16.421875 3.558594 14.421875 6.035156 14.421875 C 6.824219 14.421875 7.738281 14.609375 8.40625 14.992188 L 5.96875 18.203125 C 5.667969 18.207031 5.410156 18.46875 5.410156 18.789062 C 5.410156 19.113281 5.675781 19.378906 6.003906 19.378906 C 6.09375 19.378906 6.1875 19.355469 6.269531 19.316406 Z M 21.394531 14 L 19.800781 9.648438 L 20.308594 8.796875 L 19.296875 7.710938 L 17.132812 7.710938 L 17.101562 8.328125 L 19 8.328125 L 19.386719 8.738281 L 18.941406 9.53125 L 19.5 11.496094 L 11.726562 11.496094 L 11.609375 11.136719 C 12.234375 11.058594 13.3125 10.675781 13.566406 10.453125 C 13.824219 10.234375 13.601562 10.027344 13.308594 10.019531 C 11.773438 9.957031 9.492188 9.828125 9.058594 9.824219 C 8.625 9.824219 8.582031 10.039062 8.871094 10.355469 C 9.160156 10.667969 9.414062 10.949219 10.515625 11.117188 L 10.808594 11.914062 L 8.96875 14.167969 C 8.105469 13.648438 7.054688 13.375 6.035156 13.375 C 2.976562 13.375 0.484375 15.847656 0.484375 18.875 C 0.484375 21.902344 2.976562 24.371094 6.035156 24.371094 C 8.550781 24.371094 10.761719 22.652344 11.414062 20.277344 L 13.101562 20.578125 C 13.175781 20.777344 13.34375 20.929688 13.546875 21.046875 L 13.242188 22.460938 L 12.859375 22.460938 L 12.828125 22.84375 L 14.046875 22.902344 L 14.046875 22.492188 L 13.75 22.492188 L 14.117188 21.078125 C 14.664062 20.988281 14.949219 20.523438 14.785156 20.0625 L 20.308594 13.878906 L 20.554688 14.542969 C 19.214844 15.589844 18.414062 17.199219 18.414062 18.875 C 18.414062 21.902344 20.90625 24.371094 23.964844 24.371094 C 27.023438 24.371094 29.515625 21.902344 29.515625 18.875 C 29.515625 15.847656 27.023438 13.375 23.964844 13.375 C 23.074219 13.375 22.164062 13.589844 21.394531 14 Z M 21.394531 14 " fill-opacity="1" fill-rule="evenodd"/></g></svg>