<svg xmlns="http://www.w3.org/2000/svg" xmlns:xlink="http://www.w3.org/1999/xlink" width="500" zoomAndPan="magnify" viewBox="0 0 375 374.999991" height="500" preserveAspectRatio="xMidYMid meet" version="1.0"><defs><clipPath id="952f87cf38"><path d="M 131 62 L 265.660156 62 L 265.660156 364 L 131 364 Z M 131 62 " clip-rule="nonzero"/></clipPath></defs><g clip-path="url(#952f87cf38)"><path fill="#000000" d="M 198.65625 363.859375 C 171.886719 363.859375 146.550781 357.921875 140.570312 352.601562 C 135.496094 348.085938 132.589844 342.492188 131.675781 335.511719 C 131.667969 335.417969 131.660156 335.328125 131.660156 335.226562 L 131.660156 86.414062 C 131.660156 86.148438 131.710938 85.890625 131.800781 85.640625 C 134.308594 79.023438 139.601562 74.277344 144.714844 69.691406 C 147.132812 67.519531 149.632812 65.285156 151.71875 62.921875 C 152.515625 62.023438 153.886719 61.941406 154.78125 62.738281 C 155.679688 63.539062 155.761719 64.910156 154.964844 65.808594 C 152.714844 68.351562 150.125 70.679688 147.613281 72.921875 C 142.773438 77.269531 138.195312 81.378906 136.003906 86.824219 L 136.003906 335.085938 C 136.792969 340.921875 139.226562 345.59375 143.453125 349.351562 C 148.113281 353.492188 171.925781 359.511719 198.65625 359.511719 C 225.382812 359.511719 249.195312 353.492188 253.855469 349.351562 C 258.085938 345.59375 260.527344 340.921875 261.308594 335.085938 L 261.308594 86.832031 C 259.113281 81.386719 254.539062 77.28125 249.695312 72.941406 C 247.1875 70.6875 244.59375 68.367188 242.34375 65.824219 C 241.546875 64.925781 241.628906 63.554688 242.527344 62.757812 C 243.425781 61.957031 244.796875 62.042969 245.59375 62.9375 C 247.675781 65.292969 250.175781 67.535156 252.59375 69.707031 C 257.710938 74.296875 263 79.042969 265.511719 85.660156 C 265.601562 85.910156 265.652344 86.167969 265.652344 86.433594 L 265.652344 335.242188 C 265.652344 335.335938 265.644531 335.433594 265.632812 335.527344 C 264.730469 342.507812 261.8125 348.105469 256.738281 352.617188 C 250.757812 357.929688 225.433594 363.859375 198.65625 363.859375 Z M 198.65625 363.859375 " fill-opacity="1" fill-rule="nonzero"/></g><path fill="#000000" d="M 237.660156 69.714844 L 159.652344 69.714844 C 156.652344 69.714844 153.761719 69.074219 151.0625 67.820312 C 149.972656 67.3125 149.5 66.023438 150.007812 64.933594 C 150.515625 63.84375 151.800781 63.371094 152.890625 63.878906 C 155.015625 64.867188 157.292969 65.367188 159.652344 65.367188 L 237.660156 65.367188 C 240.019531 65.367188 242.296875 64.867188 244.421875 63.878906 C 245.507812 63.371094 246.796875 63.84375 247.304688 64.933594 C 247.808594 66.023438 247.335938 67.3125 246.25 67.820312 C 243.550781 69.074219 240.660156 69.714844 237.660156 69.714844 Z M 237.660156 69.714844 " fill-opacity="1" fill-rule="nonzero"/><path fill="#000000" d="M 88.59375 158.40625 C 87.371094 158.40625 86.140625 158.289062 84.90625 158.050781 C 75.644531 156.230469 68.167969 147.824219 66.292969 140.757812 C 63.175781 129.027344 67.910156 116.308594 72.429688 107.707031 C 77.835938 97.414062 85.867188 87.320312 94.472656 80.015625 C 112.886719 64.371094 138.4375 59.304688 149.058594 61.785156 C 151.59375 62.375 153.203125 63.4375 153.851562 64.941406 C 155.183594 68.027344 152.257812 70.238281 148.195312 73.289062 C 143.304688 76.972656 135.910156 82.535156 129.773438 92.660156 C 122.804688 104.15625 121.683594 108.945312 119.226562 119.425781 C 118.328125 123.25 117.214844 128.007812 115.570312 134.042969 C 112.164062 146.570312 100.910156 158.40625 88.59375 158.40625 Z M 143.023438 65.550781 C 139.933594 65.550781 135.863281 65.925781 130.871094 67.011719 C 123.636719 68.59375 109.648438 72.808594 97.289062 83.316406 C 73.792969 103.28125 67.480469 128.273438 70.492188 139.636719 C 71.996094 145.289062 78.261719 152.304688 85.753906 153.785156 C 94.898438 155.589844 107.378906 147.617188 111.394531 132.886719 C 113.011719 126.925781 114.074219 122.410156 115.003906 118.429688 C 117.488281 107.8125 118.734375 102.492188 126.070312 90.398438 C 132.648438 79.558594 140.4375 73.6875 145.597656 69.804688 C 147.109375 68.667969 148.9375 67.296875 149.609375 66.503906 C 148.734375 66.03125 146.511719 65.550781 143.023438 65.550781 Z M 149.925781 66.761719 Z M 149.925781 66.761719 " fill-opacity="1" fill-rule="nonzero"/><path fill="#000000" d="M 241.9375 65.515625 L 155.382812 65.515625 C 147.679688 65.515625 141.445312 59.273438 141.445312 51.566406 L 141.445312 24.957031 C 141.445312 17.25 147.679688 11.007812 155.382812 11.007812 L 241.9375 11.007812 C 249.636719 11.007812 255.875 17.25 255.875 24.957031 L 255.875 51.566406 C 255.875 59.273438 249.636719 65.515625 241.9375 65.515625 Z M 241.9375 65.515625 " fill-opacity="1" fill-rule="nonzero"/><path fill="#6e8a93" d="M 188.613281 177.953125 C 193.503906 176.1875 197.46875 173.753906 200.972656 171.117188 C 210.035156 164.316406 216.074219 156.261719 227.328125 155.589844 C 236.753906 155.015625 245.109375 159.910156 251.464844 165.300781 L 251.464844 327.421875 C 250.625 334.347656 247.667969 338.578125 244.785156 341.355469 C 240.617188 345.378906 220.980469 350.824219 198.636719 350.824219 C 176.296875 350.824219 156.660156 345.378906 152.492188 341.355469 C 149.617188 338.578125 146.652344 334.347656 145.828125 327.421875 L 145.828125 174.261719 C 166.164062 182.699219 179.800781 181.117188 188.613281 177.953125 Z M 188.613281 177.953125 " fill-opacity="1" fill-rule="nonzero"/><path fill="#ffffff" d="M 157.09375 317.253906 C 152.300781 317.253906 148.402344 313.363281 148.402344 308.558594 L 148.402344 200.089844 C 148.402344 195.292969 152.292969 191.394531 157.09375 191.394531 C 161.882812 191.394531 165.78125 195.285156 165.78125 200.089844 L 165.78125 308.558594 C 165.78125 313.355469 161.894531 317.253906 157.09375 317.253906 Z M 157.09375 317.253906 " fill-opacity="1" fill-rule="nonzero"/><path fill="#ffffff" d="M 157.09375 147.078125 C 152.300781 147.078125 148.402344 143.1875 148.402344 138.382812 L 148.402344 108.5625 C 148.402344 103.765625 152.292969 99.867188 157.09375 99.867188 C 161.882812 99.867188 165.78125 103.757812 165.78125 108.5625 L 165.78125 138.382812 C 165.78125 143.1875 161.894531 147.078125 157.09375 147.078125 Z M 157.09375 147.078125 " fill-opacity="1" fill-rule="nonzero"/></svg>