<svg xmlns="http://www.w3.org/2000/svg" xmlns:xlink="http://www.w3.org/1999/xlink" width="500" zoomAndPan="magnify" viewBox="0 0 375 374.999991" height="500" preserveAspectRatio="xMidYMid meet" version="1.0"><defs><clipPath id="746f564128"><path d="M 54 52 L 335 52 L 335 333 L 54 333 Z M 54 52 " clip-rule="nonzero"/></clipPath><clipPath id="f2d0312df8"><path d="M 289.195312 37.503906 L 350.183594 98.488281 L 85.546875 363.125 L 24.558594 302.136719 Z M 289.195312 37.503906 " clip-rule="nonzero"/></clipPath><clipPath id="2e5816a223"><path d="M 289.195312 37.503906 L 350.183594 98.488281 L 85.546875 363.125 L 24.558594 302.136719 Z M 289.195312 37.503906 " clip-rule="nonzero"/></clipPath><clipPath id="f5147306d7"><path d="M 84 118 L 269 118 L 269 303 L 84 303 Z M 84 118 " clip-rule="nonzero"/></clipPath><clipPath id="a501c5dbb5"><path d="M 289.195312 37.503906 L 350.183594 98.488281 L 85.546875 363.125 L 24.558594 302.136719 Z M 289.195312 37.503906 " clip-rule="nonzero"/></clipPath><clipPath id="b57390953c"><path d="M 289.195312 37.503906 L 350.183594 98.488281 L 85.546875 363.125 L 24.558594 302.136719 Z M 289.195312 37.503906 " clip-rule="nonzero"/></clipPath><clipPath id="6e5ed4a644"><path d="M 260 55 L 331 55 L 331 128 L 260 128 Z M 260 55 " clip-rule="nonzero"/></clipPath><clipPath id="44193ae2e5"><path d="M 289.195312 37.503906 L 350.183594 98.488281 L 85.546875 363.125 L 24.558594 302.136719 Z M 289.195312 37.503906 " clip-rule="nonzero"/></clipPath><clipPath id="df463fb095"><path d="M 289.195312 37.503906 L 350.183594 98.488281 L 85.546875 363.125 L 24.558594 302.136719 Z M 289.195312 37.503906 " clip-rule="nonzero"/></clipPath><clipPath id="36a87a6211"><path d="M 227 82 L 305 82 L 305 161 L 227 161 Z M 227 82 " clip-rule="nonzero"/></clipPath><clipPath id="3a90f7d1c3"><path d="M 289.195312 37.503906 L 350.183594 98.488281 L 85.546875 363.125 L 24.558594 302.136719 Z M 289.195312 37.503906 " clip-rule="nonzero"/></clipPath><clipPath id="185d95e4f9"><path d="M 289.195312 37.503906 L 350.183594 98.488281 L 85.546875 363.125 L 24.558594 302.136719 Z M 289.195312 37.503906 " clip-rule="nonzero"/></clipPath><clipPath id="fa20ea6d5a"><path d="M 66 261 L 128 261 L 128 321 L 66 321 Z M 66 261 " clip-rule="nonzero"/></clipPath><clipPath id="fc43ec2281"><path d="M 289.195312 37.503906 L 350.183594 98.488281 L 85.546875 363.125 L 24.558594 302.136719 Z M 289.195312 37.503906 " clip-rule="nonzero"/></clipPath><clipPath id="8c84dfdc80"><path d="M 289.195312 37.503906 L 350.183594 98.488281 L 85.546875 363.125 L 24.558594 302.136719 Z M 289.195312 37.503906 " clip-rule="nonzero"/></clipPath></defs><g clip-path="url(#746f564128)"><g clip-path="url(#f2d0312df8)"><g clip-path="url(#2e5816a223)"><path fill="#000000" d="M 294.339844 150.789062 C 292.53125 152.675781 289.746094 153.605469 286.871094 155.265625 C 286.847656 155.339844 286.617188 156.078125 286.324219 156.777344 C 284.242188 161.699219 281.292969 163.914062 276.054688 163.566406 C 273.402344 163.382812 271.835938 164.335938 270.117188 166.054688 C 226.457031 209.867188 182.769531 253.679688 139.046875 297.429688 C 128.125 308.351562 128.0625 308.339844 113.425781 313.484375 C 96.363281 319.484375 79.273438 325.410156 62.1875 331.335938 C 60.75 331.832031 59.273438 332.371094 57.773438 332.574219 C 55.371094 332.921875 54.269531 331.792969 54.589844 329.417969 C 54.769531 328.070312 55.28125 326.746094 55.738281 325.449219 C 62.761719 305.335938 69.835938 285.246094 76.769531 265.089844 C 78.109375 261.214844 80.125 258.007812 83.027344 255.105469 C 128.558594 209.675781 174.027344 164.183594 219.507812 118.703125 C 220.917969 117.289062 222.320312 115.890625 223.628906 114.578125 C 223.417969 105.148438 224.730469 103.050781 232.742188 100.011719 C 233.917969 94.140625 237.242188 90.207031 242.976562 89.449219 C 244.886719 86.242188 246.300781 83.152344 248.363281 80.632812 C 250.796875 77.640625 254.328125 78.09375 257.441406 79.09375 C 263.613281 72.917969 269.570312 66.960938 275.542969 60.992188 C 276.839844 59.691406 278.175781 58.40625 279.425781 57.058594 C 283.664062 52.4375 288.875 51.820312 294.617188 53.207031 C 301.78125 54.949219 307.875 58.777344 313.457031 63.316406 C 321.375 69.757812 327.667969 77.601562 331.753906 87.0625 C 332.589844 89.019531 333.183594 91.089844 333.855469 93.132812 C 335.726562 98.925781 334.6875 103.84375 330.003906 108.121094 C 324.125 113.519531 318.523438 119.222656 312.820312 124.796875 C 311.292969 126.300781 309.792969 127.828125 308.367188 129.253906 C 309.378906 137.90625 307.40625 140.589844 298.699219 143.109375 C 297.167969 145.90625 296.222656 148.804688 294.339844 150.789062 Z M 294.339844 150.789062 " fill-opacity="1" fill-rule="nonzero"/></g></g></g><g clip-path="url(#f5147306d7)"><g clip-path="url(#a501c5dbb5)"><g clip-path="url(#b57390953c)"><path fill="#6e8a93" d="M 116.570312 288.113281 C 162.113281 242.570312 206.972656 197.714844 251.675781 153.007812 C 257.488281 156.203125 263.0625 159.28125 268.867188 162.460938 C 222.367188 208.960938 175.894531 255.433594 128.910156 302.414062 C 129.066406 300.761719 129.082031 299.632812 129.296875 298.550781 C 131.21875 289.222656 132.632812 289.257812 121.613281 288.679688 C 120.242188 288.605469 118.894531 288.378906 116.570312 288.113281 Z M 100.171875 269.449219 C 144.898438 224.71875 189.628906 179.988281 234.398438 135.222656 C 232.535156 132.265625 230.707031 129.625 229.148438 126.84375 C 227.628906 124.152344 226.363281 121.308594 224.90625 118.375 C 178.066406 165.21875 131.617188 211.664062 84.671875 258.609375 C 86.042969 258.8125 86.742188 258.925781 87.441406 258.988281 C 90.175781 259.25 92.957031 259.308594 95.648438 259.785156 C 99.539062 260.464844 99.957031 261.1875 99.667969 265.003906 C 99.578125 266.335938 99.4375 267.671875 99.320312 269.003906 C 99.597656 269.15625 99.878906 269.308594 100.171875 269.449219 Z M 248.4375 150.382812 C 244.480469 146.425781 240.535156 142.480469 236.515625 138.460938 C 191.707031 183.265625 147.082031 227.894531 101.929688 273.042969 C 105.222656 273.304688 107.761719 273.425781 110.292969 273.738281 C 114.484375 274.242188 114.609375 274.496094 114.171875 278.613281 C 113.976562 280.40625 113.960938 282.222656 113.820312 284.777344 C 119.007812 281.082031 246.871094 153.222656 248.4375 150.382812 Z M 248.4375 150.382812 " fill-opacity="1" fill-rule="nonzero"/></g></g></g><g clip-path="url(#6e5ed4a644)"><g clip-path="url(#44193ae2e5)"><g clip-path="url(#df463fb095)"><path fill="#475d64" d="M 317.957031 114.914062 C 314.597656 118.277344 311.035156 121.460938 307.953125 125.046875 C 305.761719 127.617188 303.539062 127.789062 300.65625 126.863281 C 294.152344 124.792969 288.363281 121.34375 283.210938 117.03125 C 275.574219 110.664062 268.542969 103.613281 264.203125 94.433594 C 262.769531 91.421875 261.875 88.15625 260.632812 85.058594 C 259.710938 82.734375 260.386719 81.144531 262.191406 79.441406 C 267.972656 73.964844 273.585938 68.300781 279.273438 62.714844 C 280.152344 61.859375 281.222656 61.097656 281.832031 60.078125 C 284.828125 55.105469 289.273438 55.480469 293.925781 56.664062 C 300.757812 58.40625 306.445312 62.285156 311.710938 66.714844 C 319.425781 73.207031 325.269531 81.140625 328.890625 90.613281 C 329.648438 92.59375 330.027344 94.726562 330.558594 96.785156 C 331.429688 100.203125 330.699219 102.757812 327.644531 105.128906 C 324.042969 107.917969 321.066406 111.53125 317.820312 114.777344 C 317.871094 114.828125 317.921875 114.878906 317.957031 114.914062 Z M 326.867188 99.128906 C 325.828125 98.597656 324.949219 98.128906 324.074219 97.6875 C 321.902344 96.585938 319.628906 95.660156 317.585938 94.378906 C 306.058594 87.105469 297.398438 77.347656 292.054688 64.726562 C 291.449219 63.277344 291.160156 61.488281 288.363281 60.957031 C 288.539062 62.734375 288.421875 64.222656 288.851562 65.519531 C 289.609375 67.832031 290.535156 70.101562 291.675781 72.238281 C 296.84375 81.808594 304.046875 89.574219 313.136719 95.53125 C 316.042969 97.445312 319.230469 98.953125 322.390625 100.410156 C 323.816406 101.042969 325.605469 101.484375 326.867188 99.128906 Z M 326.867188 99.128906 " fill-opacity="1" fill-rule="nonzero"/></g></g></g><g clip-path="url(#36a87a6211)"><g clip-path="url(#3a90f7d1c3)"><g clip-path="url(#185d95e4f9)"><path fill="#d8e2e7" d="M 304.828125 131.929688 C 304.859375 136.210938 303.800781 138.207031 299.097656 139.027344 C 295.449219 139.65625 294.417969 141.476562 293.675781 144.578125 C 292.601562 149.128906 288.796875 150.519531 284.503906 151.1875 C 283.941406 152.613281 283.417969 154.023438 282.816406 155.410156 C 281.148438 159.3125 279.046875 160.777344 274.894531 159.832031 C 270.929688 158.925781 266.851562 157.699219 263.335938 155.734375 C 250.121094 148.347656 239.691406 137.972656 232.28125 124.753906 C 230.214844 121.058594 228.898438 116.917969 227.535156 112.882812 C 226.332031 109.285156 227.40625 106.109375 230.914062 104.933594 C 234.730469 103.65625 236.601562 101.480469 237.484375 97.730469 C 238.007812 95.53125 239.96875 94.308594 242.128906 93.644531 C 243.71875 93.144531 245.359375 92.722656 246.03125 92.53125 C 248.097656 88.84375 249.511719 85.675781 251.5625 82.992188 C 252.277344 82.074219 254.613281 82.402344 255.667969 82.234375 C 263.148438 108.019531 279.667969 123.875 304.828125 131.929688 Z M 237.683594 106.867188 C 237.164062 107.058594 236.640625 107.25 236.109375 107.429688 C 236.347656 108.964844 236.292969 110.640625 236.902344 112.039062 C 238.230469 115.101562 239.710938 118.132812 241.460938 120.976562 C 247.136719 130.21875 254.851562 137.628906 263.535156 143.941406 C 267.429688 146.769531 271.976562 148.746094 276.28125 150.960938 C 277.386719 151.53125 278.820312 152.175781 280.222656 150.472656 C 275.738281 147.824219 271.144531 145.519531 267.019531 142.5625 C 262.828125 139.546875 258.894531 136.097656 255.269531 132.417969 C 251.539062 128.636719 247.972656 124.589844 244.96875 120.210938 C 242.128906 116.046875 240.078125 111.324219 237.683594 106.867188 Z M 248.480469 95.4375 C 248.113281 95.601562 247.742188 95.792969 247.375 95.960938 C 246.378906 99.136719 248.203125 101.777344 249.570312 104.34375 C 253.980469 112.671875 260.144531 119.652344 266.980469 126.054688 C 271.90625 130.675781 277.199219 134.820312 283.253906 137.871094 C 285.195312 138.847656 287.242188 140.152344 290.457031 138.789062 C 285.796875 135.859375 281.457031 133.503906 277.574219 130.589844 C 273.421875 127.480469 269.4375 124.082031 265.847656 120.367188 C 262.359375 116.75 259.203125 112.75 256.351562 108.625 C 253.421875 104.425781 251.078125 99.839844 248.480469 95.4375 Z M 248.480469 95.4375 " fill-opacity="1" fill-rule="nonzero"/></g></g></g><g clip-path="url(#fa20ea6d5a)"><g clip-path="url(#fc43ec2281)"><g clip-path="url(#8c84dfdc80)"><path fill="#ffffff" d="M 127.363281 292.417969 C 126.710938 295.050781 126.109375 297.375 125.546875 299.714844 C 124.996094 301.9375 124.460938 304.152344 123.847656 306.667969 C 110.597656 311.085938 97.144531 315.609375 83.4375 320.179688 C 80.859375 311.796875 75.417969 306.535156 66.867188 304.246094 C 71.582031 290.097656 76.230469 276.1875 81.046875 261.804688 C 86.128906 262.128906 91.25 262.460938 96.941406 262.832031 C 96.542969 265.667969 96.144531 268.300781 95.820312 270.957031 C 95.320312 275.113281 95.851562 275.875 99.941406 276.324219 C 103.578125 276.726562 107.25 276.910156 110.246094 277.132812 C 110.457031 280.398438 110.667969 283.433594 110.84375 286.484375 C 111.0625 290.90625 111.394531 291.3125 115.953125 291.675781 C 119.5625 291.949219 123.195312 292.144531 127.363281 292.417969 Z M 127.363281 292.417969 " fill-opacity="1" fill-rule="nonzero"/></g></g></g></svg>