<svg xmlns="http://www.w3.org/2000/svg" xmlns:xlink="http://www.w3.org/1999/xlink" width="500" zoomAndPan="magnify" viewBox="0 0 375 374.999991" height="500" preserveAspectRatio="xMidYMid meet" version="1.0"><defs><clipPath id="947c169785"><path d="M 26 42 L 346 42 L 346 320.25 L 26 320.25 Z M 26 42 " clip-rule="nonzero"/></clipPath></defs><path fill="#475d64" d="M 56.28125 189.332031 C 45.03125 173.359375 34.398438 156.277344 30.777344 137.078125 C 25.898438 111.191406 35.21875 83.085938 54.59375 65.226562 C 73.96875 47.367188 102.761719 40.355469 128.1875 47.292969 C 153.613281 54.234375 174.832031 74.90625 182.425781 100.128906 C 200.566406 71.664062 230.386719 49.078125 264.054688 46.457031 C 297.722656 43.839844 333.683594 65.136719 341.5625 97.953125 C 348.613281 127.320312 333.378906 157.160156 316.738281 182.371094 C 289.484375 223.664062 256.96875 261.484375 220.265625 294.671875 C 212.6875 301.523438 202.417969 313.992188 192.46875 317.078125 C 181.648438 320.433594 172.976562 311.1875 165.144531 304.921875 C 145.808594 289.449219 127.476562 272.738281 110.328125 254.871094 C 90.695312 234.421875 72.601562 212.496094 56.277344 189.328125 Z M 56.28125 189.332031 " fill-opacity="1" fill-rule="nonzero"/><path fill="#f4bad9" d="M 67.25 148.613281 C 62.957031 132.082031 66.824219 113.449219 77.335938 99.988281 C 87.847656 86.523438 105.027344 78.480469 122.082031 78.390625 L 122.042969 83.617188 L 121.648438 83.617188 C 106.28125 83.617188 90.914062 91.097656 81.453125 103.207031 C 71.917969 115.414062 68.417969 132.3125 72.308594 147.308594 L 67.246094 148.621094 Z M 67.25 148.613281 " fill-opacity="1" fill-rule="nonzero"/><path fill="#f4bad9" d="M 89.644531 197.695312 C 82.730469 190.84375 78 181.792969 76.34375 172.199219 L 81.496094 171.308594 C 82.972656 179.835938 87.175781 187.890625 93.324219 193.984375 Z M 89.644531 197.695312 " fill-opacity="1" fill-rule="nonzero"/><g clip-path="url(#947c169785)"><path fill="#000000" d="M 54.144531 190.839844 C 70.472656 214.011719 88.742188 236.167969 108.445312 256.691406 C 125.5625 274.519531 144.09375 291.429688 163.519531 306.96875 C 164.574219 307.816406 165.644531 308.710938 166.730469 309.625 C 172.5625 314.523438 179.578125 320.40625 187.886719 320.40625 C 189.621094 320.40625 191.402344 320.152344 193.25 319.582031 C 201.386719 317.0625 209.222656 309.234375 216.132812 302.328125 C 218.226562 300.238281 220.203125 298.261719 222.023438 296.609375 C 258.972656 263.199219 291.574219 225.25 318.921875 183.8125 C 334.609375 160.050781 351.644531 128.738281 344.101562 97.347656 C 336.339844 65.011719 300.324219 41 263.84375 43.855469 C 233.304688 46.238281 203.484375 64.960938 183.1875 94.269531 C 174.15625 70.59375 153.351562 51.464844 128.871094 44.78125 C 102.644531 37.621094 72.789062 44.894531 52.816406 63.3125 C 32.839844 81.726562 23.183594 110.875 28.210938 137.566406 C 31.929688 157.304688 42.871094 174.835938 54.144531 190.839844 Z M 56.367188 67.148438 C 75.054688 49.929688 102.980469 43.128906 127.496094 49.820312 C 152.015625 56.515625 172.597656 76.5625 179.921875 100.886719 C 180.21875 101.867188 181.058594 102.585938 182.070312 102.71875 C 183.101562 102.878906 184.089844 102.402344 184.632812 101.535156 C 204.054688 71.046875 233.824219 51.433594 264.257812 49.0625 C 298.257812 46.402344 331.832031 68.617188 339.019531 98.558594 C 346.089844 128 329.660156 158.046875 314.554688 180.929688 C 287.449219 222 255.136719 259.613281 218.511719 292.734375 C 216.636719 294.429688 214.589844 296.46875 212.429688 298.628906 C 205.949219 305.105469 198.59375 312.445312 191.695312 314.585938 C 183.734375 317.066406 176.789062 311.246094 170.09375 305.617188 C 168.972656 304.675781 167.871094 303.753906 166.789062 302.886719 C 147.539062 287.496094 129.179688 270.734375 112.222656 253.070312 C 92.699219 232.734375 74.59375 210.78125 58.417969 187.828125 C 47.484375 172.3125 36.882812 155.359375 33.347656 136.597656 C 28.644531 111.636719 37.679688 84.375 56.363281 67.148438 Z M 56.367188 67.148438 " fill-opacity="1" fill-rule="nonzero"/></g><path fill="#000000" d="M 72.316406 147.300781 C 68.421875 132.308594 71.921875 115.410156 81.457031 103.203125 C 90.914062 91.097656 106.28125 83.613281 121.652344 83.613281 L 122.046875 83.613281 L 122.089844 78.386719 C 105.03125 78.480469 87.855469 86.519531 77.339844 99.980469 C 66.828125 113.445312 62.960938 132.078125 67.257812 148.609375 L 72.320312 147.296875 Z M 72.316406 147.300781 " fill-opacity="1" fill-rule="nonzero"/><path fill="#000000" d="M 76.34375 172.199219 C 78.003906 181.792969 82.730469 190.84375 89.644531 197.695312 L 93.324219 193.984375 C 87.175781 187.890625 82.972656 179.835938 81.496094 171.308594 Z M 76.34375 172.199219 " fill-opacity="1" fill-rule="nonzero"/></svg>