<svg xmlns="http://www.w3.org/2000/svg" xmlns:xlink="http://www.w3.org/1999/xlink" width="500" zoomAndPan="magnify" viewBox="0 0 375 374.999991" height="500" preserveAspectRatio="xMidYMid meet" version="1.0"><defs><clipPath id="deda19f90d"><path d="M 159 235 L 342 235 L 342 316.417969 L 159 316.417969 Z M 159 235 " clip-rule="nonzero"/></clipPath><clipPath id="07ae77522e"><path d="M 293 74.167969 L 310 74.167969 L 310 91 L 293 91 Z M 293 74.167969 " clip-rule="nonzero"/></clipPath></defs><path fill="#ffffff" d="M 1.675781 223.492188 C 1.675781 231.558594 8.199219 238.101562 16.253906 238.101562 C 19.804688 238.101562 23.015625 236.78125 25.546875 234.671875 C 29.457031 241.636719 36.886719 246.339844 45.425781 246.339844 C 48.359375 246.339844 51.144531 245.769531 53.710938 244.769531 C 53.707031 244.960938 53.65625 245.132812 53.65625 245.328125 C 53.65625 253.394531 60.191406 259.933594 68.238281 259.933594 C 73.921875 259.933594 78.785156 256.65625 81.195312 251.910156 C 83.414062 255.523438 87.367188 257.957031 91.910156 257.957031 C 95.039062 257.957031 97.859375 256.773438 100.0625 254.886719 C 101.566406 261.359375 107.324219 266.195312 114.246094 266.195312 C 118.148438 266.195312 121.6875 264.632812 124.304688 262.121094 C 128.105469 269.4375 135.734375 274.433594 144.53125 274.433594 C 152.28125 274.433594 159.109375 270.5625 163.234375 264.65625 C 167.363281 270.5625 174.1875 274.433594 181.933594 274.433594 C 189.796875 274.433594 196.714844 270.457031 200.824219 264.402344 C 204.925781 270.457031 211.851562 274.433594 219.707031 274.433594 C 227.132812 274.433594 233.707031 270.863281 237.875 265.371094 C 239.34375 265.863281 240.886719 266.195312 242.523438 266.195312 C 250.582031 266.195312 257.109375 259.652344 257.109375 251.585938 C 257.109375 250.683594 257 249.808594 256.84375 248.953125 L 257.109375 248.972656 C 273.628906 248.972656 287.027344 235.546875 287.027344 218.996094 C 287.027344 202.453125 273.628906 189.035156 257.109375 189.035156 C 256.800781 189.035156 256.503906 189.074219 256.199219 189.078125 C 256.753906 187.535156 257.109375 185.898438 257.109375 184.164062 C 257.109375 176.097656 250.582031 169.5625 242.523438 169.5625 C 240.675781 169.5625 238.929688 169.9375 237.3125 170.566406 C 235.46875 159.789062 226.125 151.578125 214.847656 151.578125 C 205.273438 151.578125 197.085938 157.492188 193.707031 165.867188 C 191.054688 162.214844 186.785156 159.820312 181.933594 159.820312 C 175.003906 159.820312 169.238281 164.667969 167.75 171.152344 C 162.46875 166.441406 155.527344 163.566406 147.902344 163.566406 C 137.058594 163.566406 127.589844 169.355469 122.34375 178.003906 C 118.179688 173.507812 112.246094 170.679688 105.640625 170.679688 C 96.839844 170.679688 89.214844 175.683594 85.410156 182.992188 C 82.785156 180.484375 79.257812 178.917969 75.347656 178.917969 C 69.210938 178.917969 63.96875 182.738281 61.824219 188.125 C 61.46875 188.097656 61.125 188.015625 60.761719 188.015625 C 53.800781 188.015625 48.148438 193.675781 48.148438 200.648438 L 48.171875 200.828125 C 47.273438 200.71875 46.363281 200.648438 45.425781 200.648438 C 36.886719 200.648438 29.457031 205.355469 25.546875 212.3125 C 23.015625 210.203125 19.804688 208.886719 16.253906 208.886719 C 8.199219 208.886719 1.675781 215.425781 1.675781 223.492188 " fill-opacity="1" fill-rule="nonzero"/><path fill="#000000" d="M 1.675781 223.492188 L -0.0273438 223.492188 C -0.0273438 232.503906 7.261719 239.808594 16.253906 239.808594 C 20.230469 239.808594 23.835938 238.324219 26.636719 235.980469 L 25.546875 234.671875 L 24.058594 235.507812 C 28.257812 242.988281 36.25 248.046875 45.425781 248.046875 C 48.578125 248.046875 51.578125 247.429688 54.332031 246.359375 L 53.710938 244.769531 L 52.007812 244.734375 L 52.371094 244.738281 L 52.007812 244.714844 L 52.007812 244.734375 L 52.371094 244.738281 L 52.007812 244.714844 L 52.007812 244.742188 C 52 244.808594 51.960938 245.007812 51.953125 245.328125 C 51.960938 254.335938 59.25 261.640625 68.238281 261.640625 C 74.589844 261.640625 80.035156 257.964844 82.714844 252.679688 L 81.195312 251.910156 L 79.742188 252.804688 C 82.25 256.890625 86.746094 259.664062 91.910156 259.664062 C 95.46875 259.664062 98.695312 258.3125 101.171875 256.183594 L 100.0625 254.886719 L 98.40625 255.273438 C 99.242188 258.890625 101.269531 262.042969 104.050781 264.296875 C 106.832031 266.550781 110.390625 267.90625 114.246094 267.902344 C 118.609375 267.90625 122.570312 266.148438 125.484375 263.359375 L 124.304688 262.121094 L 122.796875 262.914062 C 126.878906 270.765625 135.078125 276.136719 144.53125 276.140625 C 152.855469 276.140625 160.207031 271.976562 164.632812 265.632812 L 163.234375 264.65625 L 161.839844 265.632812 C 166.269531 271.976562 173.613281 276.140625 181.933594 276.140625 C 190.375 276.140625 197.824219 271.859375 202.234375 265.367188 L 200.824219 264.402344 L 199.414062 265.359375 C 203.820312 271.859375 211.269531 276.140625 219.707031 276.140625 C 227.6875 276.140625 234.761719 272.300781 239.230469 266.398438 L 237.875 265.371094 L 237.328125 266.988281 C 238.917969 267.519531 240.648438 267.902344 242.523438 267.902344 C 251.519531 267.902344 258.8125 260.597656 258.8125 251.585938 C 258.8125 250.550781 258.6875 249.566406 258.515625 248.636719 L 256.84375 248.953125 L 256.738281 250.65625 L 257.007812 250.671875 L 257.109375 250.675781 C 274.574219 250.671875 288.722656 236.488281 288.730469 218.996094 C 288.722656 201.511719 274.574219 187.328125 257.109375 187.328125 C 256.65625 187.332031 256.34375 187.371094 256.167969 187.371094 L 256.199219 189.078125 L 257.800781 189.65625 C 258.40625 187.972656 258.8125 186.132812 258.8125 184.164062 C 258.8125 175.15625 251.519531 167.855469 242.523438 167.855469 C 240.445312 167.851562 238.484375 168.28125 236.699219 168.96875 L 237.3125 170.566406 L 238.988281 170.277344 C 237.015625 158.691406 226.972656 149.875 214.847656 149.871094 C 204.558594 149.875 195.761719 156.226562 192.128906 165.226562 L 193.707031 165.867188 L 195.082031 164.863281 C 192.132812 160.796875 187.351562 158.113281 181.933594 158.113281 C 178.070312 158.113281 174.511719 159.46875 171.730469 161.726562 C 168.945312 163.988281 166.921875 167.144531 166.089844 170.769531 L 167.75 171.152344 L 168.878906 169.875 C 163.304688 164.90625 155.960938 161.859375 147.902344 161.859375 C 136.445312 161.859375 126.429688 167.988281 120.890625 177.121094 L 122.34375 178.003906 L 123.597656 176.84375 C 119.125 172.023438 112.738281 168.976562 105.640625 168.976562 C 96.183594 168.980469 87.984375 174.355469 83.898438 182.207031 L 85.410156 182.992188 L 86.585938 181.761719 C 83.671875 178.964844 79.71875 177.214844 75.347656 177.214844 C 68.488281 177.21875 62.632812 181.476562 60.238281 187.492188 L 61.824219 188.125 L 61.964844 186.425781 C 61.765625 186.417969 61.371094 186.320312 60.761719 186.3125 C 52.859375 186.316406 46.449219 192.730469 46.445312 200.648438 L 46.460938 200.835938 L 46.476562 201.011719 L 48.171875 200.828125 L 48.371094 199.132812 C 47.429688 199.019531 46.449219 198.941406 45.425781 198.941406 C 36.25 198.941406 28.257812 204.007812 24.058594 211.476562 L 25.546875 212.3125 L 26.636719 211.003906 C 23.832031 208.667969 20.230469 207.179688 16.253906 207.183594 C 7.261719 207.183594 -0.0273438 214.484375 -0.0273438 223.492188 L 3.378906 223.492188 C 3.378906 219.925781 4.816406 216.710938 7.148438 214.371094 C 9.484375 212.03125 12.691406 210.59375 16.253906 210.59375 C 19.378906 210.59375 22.195312 211.746094 24.453125 213.628906 C 24.839844 213.949219 25.355469 214.085938 25.851562 213.992188 C 26.347656 213.898438 26.78125 213.59375 27.027344 213.152344 C 30.652344 206.707031 37.523438 202.351562 45.425781 202.355469 C 46.269531 202.355469 47.117188 202.417969 47.972656 202.519531 C 48.480469 202.582031 49 202.402344 49.371094 202.035156 C 49.738281 201.671875 49.917969 201.152344 49.863281 200.640625 L 49.84375 200.457031 L 48.148438 200.648438 L 49.851562 200.648438 C 49.851562 197.625 51.070312 194.90625 53.050781 192.925781 C 55.027344 190.945312 57.746094 189.726562 60.761719 189.722656 C 60.886719 189.71875 61.171875 189.777344 61.675781 189.824219 C 62.425781 189.886719 63.125 189.457031 63.402344 188.757812 C 65.304688 183.996094 69.929688 180.625 75.347656 180.625 C 78.800781 180.628906 81.902344 181.996094 84.230469 184.226562 C 84.621094 184.597656 85.164062 184.765625 85.6875 184.675781 C 86.214844 184.585938 86.675781 184.257812 86.917969 183.785156 C 90.445312 177.011719 97.496094 172.386719 105.640625 172.386719 C 111.753906 172.390625 117.230469 174.996094 121.097656 179.164062 C 121.460938 179.558594 121.984375 179.753906 122.519531 179.703125 C 123.050781 179.648438 123.523438 179.351562 123.804688 178.894531 C 128.757812 170.730469 137.675781 165.269531 147.902344 165.269531 C 155.097656 165.269531 161.625 167.980469 166.617188 172.425781 C 167.066406 172.824219 167.691406 172.957031 168.269531 172.773438 C 168.839844 172.589844 169.273438 172.121094 169.410156 171.53125 C 170.066406 168.667969 171.671875 166.167969 173.875 164.378906 C 176.078125 162.59375 178.867188 161.527344 181.933594 161.527344 C 186.210938 161.527344 189.972656 163.636719 192.328125 166.871094 C 192.695312 167.367188 193.300781 167.632812 193.914062 167.558594 C 194.527344 167.480469 195.050781 167.078125 195.285156 166.503906 C 198.417969 158.753906 205.988281 153.28125 214.847656 153.28125 C 225.285156 153.277344 233.929688 160.882812 235.628906 170.847656 C 235.71875 171.355469 236.023438 171.789062 236.46875 172.042969 C 236.910156 172.296875 237.449219 172.335938 237.921875 172.15625 C 239.378906 171.59375 240.910156 171.265625 242.523438 171.265625 C 246.085938 171.265625 249.292969 172.707031 251.632812 175.042969 C 253.964844 177.382812 255.40625 180.597656 255.40625 184.164062 C 255.40625 185.667969 255.097656 187.105469 254.597656 188.496094 C 254.40625 189.023438 254.492188 189.617188 254.816406 190.074219 C 255.140625 190.527344 255.671875 190.792969 256.230469 190.785156 C 256.660156 190.769531 256.949219 190.734375 257.109375 190.738281 C 264.90625 190.738281 271.949219 193.898438 277.054688 199.015625 C 282.164062 204.136719 285.324219 211.1875 285.324219 218.996094 C 285.324219 226.804688 282.164062 233.863281 277.054688 238.984375 C 271.949219 244.101562 264.90625 247.261719 257.109375 247.265625 L 257.109375 248.972656 L 257.207031 247.265625 L 256.941406 247.25 C 256.417969 247.222656 255.90625 247.433594 255.566406 247.824219 C 255.21875 248.21875 255.066406 248.753906 255.164062 249.269531 C 255.3125 250.050781 255.40625 250.820312 255.40625 251.585938 C 255.40625 255.152344 253.964844 258.371094 251.632812 260.714844 C 249.292969 263.050781 246.085938 264.492188 242.523438 264.492188 C 241.117188 264.492188 239.761719 264.207031 238.417969 263.753906 C 237.726562 263.519531 236.960938 263.753906 236.515625 264.335938 C 232.652344 269.429688 226.578125 272.730469 219.707031 272.730469 C 212.4375 272.730469 206.035156 269.046875 202.234375 263.445312 C 201.917969 262.976562 201.386719 262.695312 200.824219 262.695312 C 200.261719 262.695312 199.734375 262.976562 199.414062 263.441406 C 195.605469 269.046875 189.210938 272.730469 181.933594 272.730469 C 174.765625 272.730469 168.460938 269.148438 164.628906 263.675781 C 164.308594 263.21875 163.789062 262.949219 163.234375 262.949219 C 162.675781 262.949219 162.15625 263.21875 161.839844 263.675781 C 158.015625 269.148438 151.703125 272.730469 144.53125 272.730469 C 136.390625 272.730469 129.339844 268.105469 125.816406 261.335938 C 125.570312 260.863281 125.113281 260.527344 124.585938 260.445312 C 124.058594 260.355469 123.515625 260.519531 123.128906 260.890625 C 120.804688 263.113281 117.691406 264.492188 114.246094 264.492188 C 111.1875 264.492188 108.398438 263.429688 106.195312 261.644531 C 103.988281 259.859375 102.386719 257.363281 101.722656 254.5 C 101.589844 253.917969 101.164062 253.453125 100.597656 253.265625 C 100.027344 253.078125 99.414062 253.203125 98.960938 253.589844 C 97.03125 255.242188 94.605469 256.25 91.910156 256.25 C 87.988281 256.25 84.578125 254.15625 82.648438 251.015625 C 82.324219 250.488281 81.738281 250.179688 81.128906 250.207031 C 80.511719 250.226562 79.957031 250.585938 79.675781 251.132812 C 77.539062 255.339844 73.25 258.226562 68.238281 258.226562 C 64.683594 258.226562 61.472656 256.789062 59.136719 254.449219 C 56.800781 252.109375 55.363281 248.894531 55.359375 245.328125 L 55.085938 245.328125 L 55.359375 245.355469 L 55.359375 245.328125 L 55.085938 245.328125 L 55.359375 245.355469 C 55.359375 245.332031 55.402344 245.152344 55.414062 244.804688 C 55.425781 244.230469 55.152344 243.695312 54.6875 243.371094 C 54.222656 243.042969 53.621094 242.96875 53.09375 243.179688 C 50.707031 244.105469 48.132812 244.636719 45.425781 244.636719 C 37.523438 244.640625 30.652344 240.28125 27.027344 233.832031 C 26.78125 233.394531 26.347656 233.082031 25.851562 232.992188 C 25.355469 232.902344 24.839844 233.039062 24.453125 233.363281 C 22.195312 235.242188 19.378906 236.394531 16.253906 236.394531 C 12.691406 236.394531 9.484375 234.953125 7.148438 232.617188 C 4.816406 230.277344 3.378906 227.058594 3.378906 223.492188 L 1.675781 223.492188 " fill-opacity="1" fill-rule="nonzero"/><path fill="#475d64" d="M 325.332031 219.296875 C 325.332031 208.382812 327.933594 199.53125 331.148438 199.53125 L 331.148438 183.410156 L 260.203125 236.601562 L 260.203125 300.664062 L 295.285156 274.359375 C 295.226562 273.9375 295.183594 273.507812 295.183594 273.058594 C 295.183594 268.917969 297.785156 265.554688 300.996094 265.554688 C 302.410156 265.554688 303.683594 266.226562 304.691406 267.304688 L 331.148438 247.464844 L 331.148438 239.066406 C 327.933594 239.0625 325.332031 230.207031 325.332031 219.296875 " fill-opacity="1" fill-rule="nonzero"/><path fill="#000000" d="M 325.332031 219.296875 L 327.03125 219.296875 C 327.027344 213.980469 327.675781 209.160156 328.664062 205.804688 C 329.15625 204.132812 329.742188 202.820312 330.28125 202.0625 C 330.546875 201.675781 330.789062 201.441406 330.949219 201.332031 C 331.113281 201.222656 331.148438 201.238281 331.152344 201.234375 C 332.09375 201.234375 332.851562 200.472656 332.851562 199.53125 L 332.851562 183.410156 C 332.851562 182.761719 332.488281 182.171875 331.910156 181.882812 C 331.335938 181.59375 330.648438 181.65625 330.128906 182.042969 L 259.183594 235.234375 C 258.753906 235.558594 258.5 236.0625 258.5 236.601562 L 258.5 300.664062 C 258.5 301.308594 258.863281 301.898438 259.441406 302.1875 C 260.015625 302.476562 260.703125 302.414062 261.222656 302.027344 L 296.304688 275.726562 C 296.800781 275.355469 297.054688 274.746094 296.96875 274.132812 C 296.921875 273.746094 296.882812 273.394531 296.882812 273.058594 C 296.882812 271.347656 297.433594 269.824219 298.234375 268.800781 C 298.628906 268.285156 299.085938 267.898438 299.550781 267.644531 C 300.019531 267.386719 300.496094 267.261719 300.996094 267.261719 C 301.855469 267.261719 302.671875 267.652344 303.445312 268.46875 C 304.039062 269.105469 305.015625 269.191406 305.710938 268.671875 L 332.167969 248.828125 C 332.597656 248.507812 332.851562 248.003906 332.851562 247.464844 L 332.851562 239.066406 C 332.851562 238.125 332.09375 237.359375 331.152344 237.359375 C 331.148438 237.355469 331.113281 237.367188 330.949219 237.261719 C 330.667969 237.085938 330.140625 236.46875 329.664062 235.453125 C 328.929688 233.949219 328.25 231.632812 327.777344 228.851562 C 327.308594 226.058594 327.03125 222.785156 327.03125 219.296875 L 323.628906 219.296875 C 323.632812 224.890625 324.289062 229.957031 325.402344 233.753906 C 325.964844 235.660156 326.628906 237.246094 327.484375 238.484375 C 327.921875 239.101562 328.402344 239.644531 329.003906 240.066406 C 329.601562 240.484375 330.351562 240.769531 331.148438 240.769531 L 331.148438 239.066406 L 329.445312 239.066406 L 329.445312 246.613281 L 303.671875 265.9375 L 304.691406 267.304688 L 305.933594 266.136719 C 304.695312 264.800781 302.96875 263.847656 300.996094 263.851562 C 299.894531 263.851562 298.839844 264.144531 297.917969 264.648438 C 296.53125 265.410156 295.429688 266.621094 294.667969 268.074219 C 293.910156 269.527344 293.480469 271.238281 293.480469 273.058594 C 293.480469 273.613281 293.53125 274.125 293.59375 274.585938 L 295.285156 274.359375 L 294.265625 272.996094 L 261.90625 297.253906 L 261.90625 237.453125 L 329.445312 186.816406 L 329.445312 199.53125 L 331.148438 199.53125 L 331.148438 197.824219 C 330.351562 197.820312 329.601562 198.113281 329.007812 198.53125 C 327.960938 199.277344 327.242188 200.347656 326.597656 201.648438 C 325.652344 203.605469 324.929688 206.164062 324.421875 209.175781 C 323.910156 212.179688 323.628906 215.625 323.628906 219.296875 L 325.332031 219.296875 " fill-opacity="1" fill-rule="nonzero"/><path fill="#475d64" d="M 62.441406 236.601562 L 62.441406 300.664062 L 114.148438 300.664062 C 114.148438 297.460938 116.167969 294.867188 118.640625 294.867188 C 121.121094 294.867188 123.132812 297.460938 123.132812 300.664062 L 205.15625 300.664062 C 204.96875 299.765625 204.835938 298.84375 204.835938 297.875 C 204.835938 292.070312 208.484375 287.367188 212.980469 287.367188 C 217.476562 287.367188 221.128906 292.070312 221.128906 297.875 C 221.128906 298.84375 220.992188 299.765625 220.800781 300.664062 L 260.203125 300.664062 L 260.203125 236.601562 L 62.441406 236.601562 " fill-opacity="1" fill-rule="nonzero"/><path fill="#000000" d="M 62.441406 236.601562 L 60.742188 236.601562 L 60.742188 300.664062 C 60.742188 301.113281 60.921875 301.546875 61.242188 301.867188 C 61.554688 302.1875 61.996094 302.371094 62.441406 302.371094 L 114.148438 302.371094 C 114.597656 302.371094 115.035156 302.1875 115.355469 301.867188 C 115.671875 301.546875 115.851562 301.113281 115.851562 300.664062 C 115.851562 299.421875 116.25 298.328125 116.816406 297.613281 C 117.089844 297.253906 117.398438 296.992188 117.710938 296.820312 C 118.019531 296.652344 118.324219 296.578125 118.640625 296.574219 C 118.960938 296.578125 119.265625 296.652344 119.574219 296.820312 C 120.035156 297.070312 120.507812 297.546875 120.859375 298.214844 C 121.210938 298.882812 121.433594 299.730469 121.433594 300.664062 C 121.433594 301.113281 121.609375 301.546875 121.929688 301.867188 C 122.246094 302.1875 122.6875 302.371094 123.132812 302.371094 L 205.15625 302.371094 C 205.671875 302.371094 206.160156 302.132812 206.484375 301.734375 C 206.804688 301.335938 206.933594 300.804688 206.824219 300.304688 C 206.648438 299.484375 206.539062 298.683594 206.539062 297.875 C 206.53125 295.328125 207.34375 293.054688 208.5625 291.488281 C 209.175781 290.707031 209.882812 290.097656 210.625 289.6875 C 211.371094 289.285156 212.152344 289.070312 212.980469 289.070312 C 213.804688 289.070312 214.589844 289.285156 215.335938 289.6875 C 216.453125 290.296875 217.484375 291.367188 218.226562 292.789062 C 218.96875 294.210938 219.425781 295.964844 219.421875 297.875 C 219.425781 298.683594 219.308594 299.484375 219.136719 300.304688 C 219.03125 300.804688 219.15625 301.339844 219.476562 301.734375 C 219.796875 302.132812 220.289062 302.371094 220.800781 302.371094 L 260.203125 302.371094 C 260.652344 302.371094 261.089844 302.1875 261.40625 301.867188 C 261.726562 301.546875 261.90625 301.113281 261.90625 300.664062 L 261.90625 236.601562 C 261.90625 236.152344 261.726562 235.710938 261.40625 235.390625 C 261.089844 235.078125 260.652344 234.894531 260.203125 234.894531 L 62.441406 234.894531 C 61.996094 234.894531 61.554688 235.078125 61.242188 235.390625 C 60.921875 235.710938 60.742188 236.152344 60.742188 236.601562 L 62.441406 236.601562 L 62.441406 238.304688 L 258.5 238.304688 L 258.5 298.953125 L 220.800781 298.957031 L 220.800781 300.664062 L 222.46875 301.015625 C 222.675781 300.046875 222.828125 299 222.828125 297.875 C 222.828125 294.613281 221.8125 291.628906 220.085938 289.394531 C 219.222656 288.28125 218.171875 287.351562 216.964844 286.695312 C 215.761719 286.039062 214.398438 285.660156 212.980469 285.660156 C 211.558594 285.660156 210.195312 286.039062 208.992188 286.695312 C 207.1875 287.679688 205.730469 289.269531 204.71875 291.203125 C 203.707031 293.140625 203.132812 295.425781 203.132812 297.875 C 203.132812 299.003906 203.285156 300.046875 203.496094 301.015625 L 205.15625 300.664062 L 205.15625 298.957031 L 123.132812 298.957031 L 123.132812 300.664062 L 124.832031 300.664062 C 124.832031 298.707031 124.230469 296.902344 123.160156 295.519531 C 122.628906 294.832031 121.972656 294.246094 121.207031 293.828125 C 120.4375 293.410156 119.558594 293.160156 118.640625 293.160156 C 117.722656 293.160156 116.847656 293.410156 116.078125 293.828125 C 114.929688 294.460938 114.03125 295.453125 113.414062 296.632812 C 112.792969 297.8125 112.445312 299.195312 112.445312 300.664062 L 114.148438 300.664062 L 114.148438 298.957031 L 64.144531 298.957031 L 64.144531 236.601562 L 62.441406 236.601562 L 62.441406 238.304688 L 62.441406 236.601562 " fill-opacity="1" fill-rule="nonzero"/><path fill="#99b1b8" d="M 276.734375 183.410156 C 276.246094 185.230469 274.914062 186.550781 273.339844 186.550781 C 271.761719 186.550781 270.433594 185.230469 269.945312 183.410156 L 221.441406 183.410156 C 220.695312 185.265625 219.203125 186.550781 217.464844 186.550781 C 215.734375 186.550781 214.25 185.265625 213.5 183.410156 L 177.726562 183.410156 C 177.726562 186.804688 173.09375 189.558594 167.363281 189.558594 C 161.644531 189.558594 157 186.804688 157 183.410156 L 133.394531 183.410156 L 99.625 208.71875 C 99.699219 209.132812 99.746094 209.5625 99.746094 210.003906 C 99.746094 213.203125 97.734375 215.796875 95.253906 215.796875 C 94.089844 215.796875 93.035156 215.203125 92.238281 214.261719 L 62.441406 236.601562 L 260.203125 236.601562 L 331.148438 183.410156 L 276.734375 183.410156 " fill-opacity="1" fill-rule="nonzero"/><path fill="#000000" d="M 276.734375 183.410156 L 275.085938 182.96875 C 274.917969 183.605469 274.605469 184.117188 274.277344 184.421875 C 273.9375 184.734375 273.640625 184.84375 273.339844 184.84375 C 273.035156 184.839844 272.738281 184.734375 272.402344 184.421875 C 272.074219 184.117188 271.761719 183.609375 271.59375 182.96875 C 271.398438 182.222656 270.71875 181.699219 269.945312 181.699219 L 221.441406 181.699219 C 220.746094 181.699219 220.121094 182.125 219.859375 182.769531 C 219.585938 183.464844 219.175781 184.011719 218.753906 184.351562 C 218.324219 184.695312 217.910156 184.84375 217.464844 184.84375 C 217.027344 184.84375 216.617188 184.695312 216.1875 184.351562 C 215.765625 184.011719 215.359375 183.464844 215.082031 182.769531 C 214.820312 182.125 214.195312 181.703125 213.5 181.703125 L 177.726562 181.703125 C 177.28125 181.703125 176.839844 181.886719 176.527344 182.203125 C 176.207031 182.519531 176.023438 182.957031 176.023438 183.410156 C 176.023438 183.863281 175.882812 184.308594 175.527344 184.808594 C 175.003906 185.554688 173.964844 186.355469 172.53125 186.925781 C 171.097656 187.496094 169.304688 187.851562 167.363281 187.851562 C 164.777344 187.855469 162.453125 187.210938 160.90625 186.289062 C 160.128906 185.832031 159.554688 185.308594 159.203125 184.808594 C 158.847656 184.308594 158.707031 183.863281 158.703125 183.410156 C 158.703125 182.957031 158.519531 182.519531 158.207031 182.203125 C 157.886719 181.886719 157.449219 181.703125 157 181.703125 L 133.394531 181.703125 C 133.019531 181.703125 132.667969 181.820312 132.371094 182.042969 L 98.605469 207.355469 C 98.089844 207.738281 97.839844 208.386719 97.949219 209.015625 C 98.007812 209.351562 98.042969 209.679688 98.042969 210.003906 C 98.046875 211.242188 97.644531 212.335938 97.085938 213.054688 C 96.804688 213.410156 96.496094 213.675781 96.1875 213.839844 C 95.878906 214.007812 95.578125 214.089844 95.253906 214.089844 C 94.960938 214.089844 94.679688 214.019531 94.390625 213.867188 C 94.105469 213.722656 93.8125 213.484375 93.535156 213.160156 C 92.957031 212.472656 91.933594 212.355469 91.21875 212.894531 L 61.421875 235.234375 C 60.832031 235.675781 60.597656 236.441406 60.828125 237.136719 C 61.058594 237.835938 61.710938 238.304688 62.441406 238.304688 L 260.203125 238.304688 C 260.578125 238.304688 260.925781 238.1875 261.222656 237.964844 L 332.167969 184.773438 C 332.757812 184.328125 333 183.566406 332.765625 182.867188 C 332.53125 182.171875 331.886719 181.699219 331.148438 181.699219 L 276.734375 181.699219 C 275.960938 181.699219 275.285156 182.21875 275.085938 182.96875 L 276.734375 183.410156 L 276.734375 185.117188 L 326.035156 185.117188 L 259.636719 234.894531 L 67.5625 234.894531 L 93.257812 215.625 L 92.238281 214.261719 L 90.9375 215.363281 C 91.460938 215.988281 92.089844 216.515625 92.820312 216.898438 C 93.550781 217.277344 94.382812 217.5 95.253906 217.5 C 96.171875 217.5 97.054688 217.257812 97.816406 216.839844 C 98.96875 216.207031 99.871094 215.214844 100.484375 214.03125 C 101.105469 212.851562 101.449219 211.46875 101.449219 210.003906 C 101.449219 209.445312 101.390625 208.914062 101.300781 208.421875 L 99.625 208.71875 L 100.644531 210.085938 L 133.957031 185.113281 L 157 185.113281 L 157 183.410156 L 155.296875 183.410156 C 155.296875 184.652344 155.734375 185.824219 156.433594 186.789062 C 157.476562 188.253906 159.0625 189.332031 160.9375 190.089844 C 162.816406 190.839844 165.011719 191.261719 167.363281 191.261719 C 170.503906 191.257812 173.359375 190.523438 175.5625 189.226562 C 176.664062 188.570312 177.605469 187.769531 178.300781 186.789062 C 178.996094 185.824219 179.4375 184.648438 179.429688 183.410156 L 177.726562 183.410156 L 177.726562 185.113281 L 213.5 185.113281 L 213.5 183.410156 L 211.921875 184.046875 C 212.390625 185.210938 213.101562 186.234375 214.042969 187 C 214.976562 187.761719 216.175781 188.261719 217.464844 188.257812 C 218.757812 188.261719 219.960938 187.769531 220.898438 187.003906 C 221.835938 186.234375 222.550781 185.210938 223.023438 184.046875 L 221.441406 183.410156 L 221.441406 185.117188 L 269.945312 185.117188 L 269.945312 183.410156 L 268.300781 183.847656 C 268.621094 185.03125 269.210938 186.09375 270.0625 186.90625 C 270.910156 187.710938 272.066406 188.261719 273.339844 188.257812 C 274.613281 188.261719 275.769531 187.710938 276.613281 186.90625 C 277.464844 186.097656 278.058594 185.035156 278.378906 183.847656 L 276.734375 183.410156 L 276.734375 185.117188 L 276.734375 183.410156 " fill-opacity="1" fill-rule="nonzero"/><path fill="#ffffff" d="M 130.449219 270.703125 C 130.449219 276.503906 126.800781 281.214844 122.300781 281.214844 C 117.808594 281.214844 114.148438 276.503906 114.148438 270.703125 C 114.148438 264.902344 117.808594 260.195312 122.300781 260.195312 C 126.800781 260.195312 130.449219 264.902344 130.449219 270.703125 " fill-opacity="1" fill-rule="nonzero"/><path fill="#000000" d="M 130.449219 270.703125 L 128.746094 270.703125 C 128.746094 273.246094 127.9375 275.519531 126.71875 277.085938 C 126.105469 277.875 125.402344 278.480469 124.65625 278.890625 C 123.910156 279.300781 123.125 279.507812 122.300781 279.507812 C 121.476562 279.507812 120.695312 279.300781 119.945312 278.890625 C 118.828125 278.28125 117.800781 277.207031 117.054688 275.785156 C 116.304688 274.363281 115.851562 272.609375 115.851562 270.703125 C 115.851562 268.164062 116.664062 265.890625 117.882812 264.320312 C 118.496094 263.535156 119.199219 262.925781 119.945312 262.519531 C 120.695312 262.113281 121.476562 261.902344 122.300781 261.902344 C 123.125 261.902344 123.910156 262.113281 124.65625 262.519531 C 125.773438 263.125 126.800781 264.195312 127.546875 265.625 C 128.292969 267.039062 128.746094 268.792969 128.746094 270.703125 L 132.152344 270.703125 C 132.144531 267.445312 131.136719 264.464844 129.40625 262.226562 C 128.539062 261.109375 127.488281 260.183594 126.289062 259.523438 C 125.085938 258.867188 123.722656 258.488281 122.300781 258.488281 C 120.878906 258.488281 119.519531 258.867188 118.320312 259.523438 C 116.507812 260.511719 115.050781 262.105469 114.039062 264.039062 C 113.023438 265.96875 112.445312 268.257812 112.445312 270.703125 C 112.449219 273.964844 113.464844 276.945312 115.195312 279.179688 C 116.0625 280.296875 117.113281 281.226562 118.320312 281.882812 C 119.515625 282.542969 120.878906 282.917969 122.300781 282.917969 C 123.722656 282.917969 125.085938 282.542969 126.289062 281.882812 C 128.09375 280.898438 129.550781 279.304688 130.5625 277.371094 C 131.578125 275.433594 132.152344 273.148438 132.152344 270.703125 L 130.449219 270.703125 " fill-opacity="1" fill-rule="nonzero"/><path fill="#ffffff" d="M 89.378906 253.902344 C 89.378906 257.097656 87.367188 259.691406 84.886719 259.691406 C 82.414062 259.691406 80.394531 257.097656 80.394531 253.902344 C 80.394531 250.703125 82.414062 248.109375 84.886719 248.109375 C 87.367188 248.109375 89.378906 250.703125 89.378906 253.902344 " fill-opacity="1" fill-rule="nonzero"/><path fill="#000000" d="M 89.378906 253.902344 L 87.679688 253.902344 C 87.679688 255.144531 87.277344 256.238281 86.71875 256.953125 C 86.441406 257.3125 86.128906 257.574219 85.824219 257.742188 C 85.511719 257.90625 85.210938 257.988281 84.886719 257.988281 C 84.570312 257.988281 84.265625 257.90625 83.957031 257.742188 C 83.496094 257.488281 83.027344 257.015625 82.675781 256.34375 C 82.324219 255.679688 82.097656 254.828125 82.097656 253.902344 C 82.097656 252.660156 82.496094 251.570312 83.0625 250.855469 C 83.335938 250.496094 83.652344 250.226562 83.957031 250.0625 C 84.265625 249.894531 84.570312 249.816406 84.886719 249.816406 C 85.210938 249.816406 85.511719 249.894531 85.824219 250.0625 C 86.28125 250.3125 86.753906 250.789062 87.105469 251.453125 C 87.457031 252.121094 87.679688 252.96875 87.679688 253.902344 L 91.082031 253.902344 C 91.078125 251.941406 90.476562 250.140625 89.410156 248.757812 C 88.875 248.070312 88.21875 247.484375 87.453125 247.066406 C 86.6875 246.648438 85.804688 246.402344 84.886719 246.402344 C 83.976562 246.402344 83.09375 246.648438 82.328125 247.066406 C 81.179688 247.695312 80.28125 248.691406 79.660156 249.867188 C 79.039062 251.050781 78.691406 252.429688 78.691406 253.902344 C 78.695312 255.859375 79.304688 257.664062 80.367188 259.042969 C 80.90625 259.734375 81.5625 260.320312 82.328125 260.738281 C 83.09375 261.15625 83.976562 261.398438 84.886719 261.398438 C 85.804688 261.398438 86.6875 261.15625 87.453125 260.738281 C 88.601562 260.105469 89.5 259.113281 90.121094 257.933594 C 90.738281 256.75 91.082031 255.371094 91.082031 253.902344 L 89.378906 253.902344 " fill-opacity="1" fill-rule="nonzero"/><path fill="#ffffff" d="M 140.367188 201.066406 C 140.367188 204.265625 138.359375 206.859375 135.878906 206.859375 C 133.398438 206.859375 131.390625 204.265625 131.390625 201.066406 C 131.390625 197.867188 133.398438 195.273438 135.878906 195.273438 C 138.359375 195.273438 140.367188 197.867188 140.367188 201.066406 " fill-opacity="1" fill-rule="nonzero"/><path fill="#000000" d="M 140.367188 201.066406 L 138.664062 201.066406 C 138.671875 202.304688 138.265625 203.398438 137.710938 204.113281 C 137.433594 204.472656 137.121094 204.734375 136.8125 204.902344 C 136.5 205.070312 136.199219 205.148438 135.878906 205.148438 C 135.558594 205.148438 135.253906 205.070312 134.945312 204.902344 C 134.488281 204.65625 134.011719 204.179688 133.667969 203.515625 C 133.316406 202.847656 133.09375 202 133.09375 201.066406 C 133.09375 199.824219 133.496094 198.730469 134.054688 198.015625 C 134.328125 197.660156 134.640625 197.394531 134.945312 197.230469 C 135.253906 197.058594 135.558594 196.980469 135.878906 196.980469 C 136.199219 196.980469 136.5 197.058594 136.8125 197.230469 C 137.273438 197.476562 137.742188 197.953125 138.09375 198.617188 C 138.445312 199.285156 138.671875 200.132812 138.664062 201.066406 L 142.070312 201.066406 C 142.070312 199.109375 141.46875 197.304688 140.398438 195.921875 C 139.863281 195.234375 139.207031 194.652344 138.441406 194.230469 C 137.675781 193.8125 136.792969 193.570312 135.878906 193.570312 C 134.960938 193.570312 134.078125 193.8125 133.316406 194.230469 C 132.164062 194.859375 131.269531 195.855469 130.648438 197.039062 C 130.03125 198.21875 129.691406 199.601562 129.691406 201.066406 C 129.695312 203.019531 130.292969 204.824219 131.363281 206.207031 C 131.894531 206.894531 132.550781 207.480469 133.316406 207.898438 C 134.078125 208.320312 134.960938 208.5625 135.878906 208.5625 C 136.792969 208.5625 137.675781 208.320312 138.441406 207.898438 C 139.59375 207.273438 140.492188 206.277344 141.109375 205.09375 C 141.730469 203.914062 142.070312 202.535156 142.070312 201.066406 L 140.367188 201.066406 " fill-opacity="1" fill-rule="nonzero"/><path fill="#ffffff" d="M 228.171875 208.507812 C 228.171875 211.070312 226.550781 213.152344 224.566406 213.152344 C 222.578125 213.152344 220.964844 211.070312 220.964844 208.507812 C 220.964844 205.933594 222.578125 203.855469 224.566406 203.855469 C 226.550781 203.855469 228.171875 205.933594 228.171875 208.507812 " fill-opacity="1" fill-rule="nonzero"/><path fill="#000000" d="M 228.171875 208.507812 L 226.46875 208.507812 C 226.46875 209.425781 226.167969 210.234375 225.765625 210.742188 C 225.570312 211 225.355469 211.175781 225.152344 211.285156 C 224.949219 211.398438 224.765625 211.441406 224.566406 211.445312 C 224.367188 211.441406 224.183594 211.398438 223.980469 211.285156 C 223.679688 211.121094 223.339844 210.792969 223.082031 210.308594 C 222.832031 209.824219 222.664062 209.195312 222.667969 208.507812 C 222.664062 207.578125 222.964844 206.769531 223.363281 206.261719 C 223.5625 206.011719 223.777344 205.828125 223.980469 205.71875 C 224.183594 205.609375 224.367188 205.5625 224.566406 205.5625 C 224.765625 205.5625 224.945312 205.609375 225.152344 205.71875 C 225.453125 205.882812 225.789062 206.210938 226.046875 206.699219 C 226.300781 207.183594 226.46875 207.808594 226.46875 208.507812 L 229.875 208.507812 C 229.871094 206.863281 229.363281 205.34375 228.457031 204.171875 C 228.003906 203.585938 227.441406 203.082031 226.78125 202.722656 C 226.125 202.363281 225.359375 202.148438 224.566406 202.148438 C 223.769531 202.148438 223.007812 202.363281 222.351562 202.722656 C 221.359375 203.265625 220.597656 204.117188 220.074219 205.113281 C 219.550781 206.113281 219.261719 207.273438 219.257812 208.507812 C 219.261719 210.144531 219.765625 211.664062 220.675781 212.835938 C 221.128906 213.417969 221.691406 213.921875 222.351562 214.285156 C 223.007812 214.644531 223.769531 214.859375 224.566406 214.859375 C 225.359375 214.859375 226.125 214.644531 226.78125 214.285156 C 227.769531 213.738281 228.539062 212.890625 229.0625 211.894531 C 229.585938 210.894531 229.871094 209.738281 229.875 208.507812 L 228.171875 208.507812 " fill-opacity="1" fill-rule="nonzero"/><path fill="#ffffff" d="M 235.597656 268.417969 C 235.597656 272.34375 233.125 275.53125 230.078125 275.53125 C 227.035156 275.53125 224.566406 272.34375 224.566406 268.417969 C 224.566406 264.484375 227.035156 261.304688 230.078125 261.304688 C 233.125 261.304688 235.597656 264.484375 235.597656 268.417969 " fill-opacity="1" fill-rule="nonzero"/><path fill="#000000" d="M 235.597656 268.417969 L 233.894531 268.417969 C 233.894531 270.019531 233.382812 271.445312 232.636719 272.402344 C 232.265625 272.875 231.84375 273.242188 231.414062 273.476562 C 230.976562 273.707031 230.542969 273.824219 230.078125 273.828125 C 229.617188 273.824219 229.183594 273.707031 228.75 273.476562 C 228.105469 273.125 227.480469 272.480469 227.015625 271.601562 C 226.554688 270.722656 226.269531 269.621094 226.269531 268.417969 C 226.269531 266.8125 226.78125 265.386719 227.527344 264.433594 C 227.894531 263.957031 228.316406 263.597656 228.746094 263.363281 C 229.183594 263.125 229.617188 263.011719 230.078125 263.011719 C 230.542969 263.011719 230.976562 263.125 231.414062 263.363281 C 232.054688 263.714844 232.683594 264.351562 233.148438 265.230469 C 233.609375 266.113281 233.894531 267.214844 233.894531 268.417969 L 237.300781 268.417969 C 237.296875 266.09375 236.578125 263.960938 235.324219 262.339844 C 234.699219 261.53125 233.929688 260.851562 233.039062 260.363281 C 232.152344 259.878906 231.136719 259.601562 230.078125 259.601562 C 229.023438 259.601562 228.007812 259.878906 227.121094 260.367188 C 225.785156 261.097656 224.730469 262.257812 224 263.644531 C 223.269531 265.042969 222.867188 266.675781 222.863281 268.417969 C 222.867188 270.738281 223.585938 272.871094 224.835938 274.492188 C 225.464844 275.300781 226.234375 275.984375 227.121094 276.46875 C 228.007812 276.953125 229.023438 277.238281 230.078125 277.238281 C 231.136719 277.238281 232.152344 276.953125 233.039062 276.46875 C 234.375 275.742188 235.429688 274.578125 236.164062 273.1875 C 236.894531 271.792969 237.300781 270.164062 237.300781 268.417969 L 235.597656 268.417969 " fill-opacity="1" fill-rule="nonzero"/><path fill="#ffffff" d="M 280.984375 244.679688 C 280.984375 248.824219 278.378906 252.1875 275.167969 252.1875 C 271.953125 252.1875 269.351562 248.824219 269.351562 244.679688 C 269.351562 240.535156 271.953125 237.171875 275.167969 237.171875 C 278.378906 237.171875 280.984375 240.535156 280.984375 244.679688 " fill-opacity="1" fill-rule="nonzero"/><path fill="#000000" d="M 280.984375 244.679688 L 279.28125 244.679688 C 279.28125 246.394531 278.734375 247.914062 277.933594 248.941406 C 277.535156 249.453125 277.082031 249.839844 276.617188 250.09375 C 276.148438 250.351562 275.671875 250.476562 275.167969 250.480469 C 274.660156 250.476562 274.1875 250.351562 273.71875 250.09375 C 273.019531 249.71875 272.347656 249.027344 271.855469 248.082031 C 271.359375 247.144531 271.050781 245.96875 271.050781 244.679688 C 271.050781 242.964844 271.601562 241.441406 272.398438 240.417969 C 272.800781 239.90625 273.25 239.515625 273.71875 239.261719 C 274.1875 239.007812 274.660156 238.878906 275.167969 238.878906 C 275.671875 238.878906 276.148438 239.007812 276.617188 239.261719 C 277.316406 239.640625 277.992188 240.332031 278.484375 241.277344 C 278.976562 242.21875 279.28125 243.394531 279.28125 244.679688 L 282.6875 244.679688 C 282.683594 242.25 281.933594 240.019531 280.625 238.328125 C 279.96875 237.484375 279.171875 236.773438 278.246094 236.265625 C 277.324219 235.761719 276.269531 235.46875 275.167969 235.46875 C 274.066406 235.46875 273.011719 235.761719 272.089844 236.265625 C 270.703125 237.027344 269.597656 238.238281 268.835938 239.691406 C 268.074219 241.148438 267.648438 242.859375 267.648438 244.679688 C 267.648438 247.109375 268.402344 249.34375 269.707031 251.03125 C 270.363281 251.875 271.164062 252.585938 272.089844 253.09375 C 273.011719 253.597656 274.066406 253.890625 275.167969 253.890625 C 276.269531 253.890625 277.324219 253.597656 278.246094 253.09375 C 279.636719 252.332031 280.738281 251.121094 281.5 249.667969 C 282.257812 248.214844 282.6875 246.503906 282.6875 244.679688 L 280.984375 244.679688 " fill-opacity="1" fill-rule="nonzero"/><path fill="#ffffff" d="M 312.636719 242.039062 C 312.636719 246.175781 310.03125 249.539062 306.824219 249.539062 C 303.609375 249.539062 300.996094 246.175781 300.996094 242.039062 C 300.996094 237.890625 303.609375 234.53125 306.824219 234.53125 C 310.03125 234.53125 312.636719 237.890625 312.636719 242.039062 " fill-opacity="1" fill-rule="nonzero"/><path fill="#000000" d="M 312.636719 242.039062 L 310.933594 242.039062 C 310.9375 243.746094 310.390625 245.269531 309.589844 246.292969 C 309.191406 246.808594 308.734375 247.199219 308.269531 247.453125 C 307.800781 247.703125 307.324219 247.832031 306.824219 247.832031 C 306.316406 247.832031 305.839844 247.703125 305.367188 247.453125 C 304.667969 247.074219 303.992188 246.382812 303.5 245.433594 C 303.003906 244.496094 302.699219 243.320312 302.699219 242.039062 C 302.699219 240.316406 303.25 238.800781 304.046875 237.773438 C 304.445312 237.257812 304.902344 236.871094 305.367188 236.617188 C 305.839844 236.359375 306.316406 236.238281 306.824219 236.238281 C 307.324219 236.238281 307.800781 236.359375 308.269531 236.613281 C 308.96875 236.996094 309.644531 237.6875 310.136719 238.628906 C 310.628906 239.570312 310.933594 240.75 310.933594 242.039062 L 314.339844 242.039062 C 314.339844 239.601562 313.585938 237.375 312.277344 235.679688 C 311.625 234.835938 310.824219 234.125 309.902344 233.621094 C 308.972656 233.113281 307.921875 232.820312 306.824219 232.820312 C 305.71875 232.820312 304.664062 233.113281 303.742188 233.621094 C 302.351562 234.378906 301.25 235.59375 300.484375 237.042969 C 299.722656 238.5 299.296875 240.210938 299.292969 242.039062 C 299.296875 244.46875 300.050781 246.695312 301.359375 248.382812 C 302.015625 249.234375 302.8125 249.945312 303.742188 250.445312 C 304.664062 250.953125 305.71875 251.246094 306.824219 251.246094 C 307.921875 251.246094 308.980469 250.953125 309.902344 250.445312 C 311.289062 249.6875 312.390625 248.472656 313.152344 247.019531 C 313.914062 245.570312 314.339844 243.859375 314.339844 242.039062 L 312.636719 242.039062 " fill-opacity="1" fill-rule="nonzero"/><path fill="#ffffff" d="M 281.207031 272.027344 C 281.207031 274.179688 279.859375 275.921875 278.191406 275.921875 C 276.519531 275.921875 275.167969 274.179688 275.167969 272.027344 C 275.167969 269.878906 276.519531 268.136719 278.191406 268.136719 C 279.859375 268.136719 281.207031 269.878906 281.207031 272.027344 " fill-opacity="1" fill-rule="nonzero"/><path fill="#000000" d="M 281.207031 272.027344 L 279.503906 272.027344 C 279.507812 272.742188 279.269531 273.363281 278.976562 273.738281 C 278.835938 273.925781 278.683594 274.050781 278.550781 274.121094 C 278.417969 274.191406 278.3125 274.21875 278.191406 274.21875 C 278.070312 274.21875 277.960938 274.191406 277.828125 274.121094 C 277.628906 274.011719 277.382812 273.777344 277.195312 273.414062 C 277 273.050781 276.871094 272.566406 276.871094 272.027344 C 276.871094 271.308594 277.105469 270.691406 277.398438 270.324219 C 277.542969 270.136719 277.695312 270.011719 277.828125 269.941406 C 277.960938 269.871094 278.066406 269.84375 278.191406 269.84375 C 278.3125 269.84375 278.417969 269.871094 278.550781 269.941406 C 278.746094 270.046875 278.996094 270.277344 279.183594 270.640625 C 279.375 271.007812 279.503906 271.492188 279.503906 272.027344 L 282.910156 272.027344 C 282.910156 270.59375 282.472656 269.265625 281.667969 268.230469 C 281.265625 267.710938 280.769531 267.265625 280.179688 266.941406 C 279.589844 266.621094 278.902344 266.429688 278.191406 266.429688 C 277.476562 266.429688 276.789062 266.621094 276.199219 266.941406 C 275.3125 267.425781 274.640625 268.179688 274.179688 269.054688 C 273.71875 269.9375 273.464844 270.953125 273.464844 272.027344 C 273.46875 273.460938 273.90625 274.789062 274.710938 275.832031 C 275.109375 276.34375 275.609375 276.792969 276.199219 277.113281 C 276.789062 277.4375 277.472656 277.628906 278.191406 277.628906 C 278.90625 277.628906 279.59375 277.4375 280.179688 277.113281 C 281.066406 276.628906 281.738281 275.875 282.199219 274.996094 C 282.660156 274.117188 282.910156 273.101562 282.910156 272.027344 L 281.207031 272.027344 " fill-opacity="1" fill-rule="nonzero"/><path fill="#ffffff" d="M 192.589844 210.003906 C 192.589844 213.402344 187.945312 216.152344 182.222656 216.152344 C 176.5 216.152344 171.859375 213.402344 171.859375 210.003906 C 171.859375 206.609375 176.5 203.855469 182.222656 203.855469 C 187.945312 203.855469 192.589844 206.609375 192.589844 210.003906 " fill-opacity="1" fill-rule="nonzero"/><path fill="#000000" d="M 192.589844 210.003906 L 190.886719 210.003906 C 190.882812 210.457031 190.746094 210.902344 190.390625 211.40625 C 189.863281 212.152344 188.820312 212.949219 187.382812 213.515625 C 185.953125 214.09375 184.164062 214.445312 182.222656 214.445312 C 179.636719 214.449219 177.3125 213.808594 175.761719 212.882812 C 174.988281 212.425781 174.410156 211.898438 174.058594 211.40625 C 173.707031 210.90625 173.566406 210.457031 173.5625 210.003906 C 173.566406 209.550781 173.707031 209.105469 174.058594 208.605469 C 174.582031 207.859375 175.628906 207.058594 177.058594 206.488281 C 178.492188 205.917969 180.277344 205.5625 182.222656 205.5625 C 184.8125 205.558594 187.132812 206.199219 188.683594 207.125 C 189.464844 207.582031 190.035156 208.105469 190.390625 208.605469 C 190.746094 209.105469 190.882812 209.550781 190.886719 210.003906 L 194.292969 210.003906 C 194.296875 208.757812 193.851562 207.585938 193.160156 206.617188 C 192.109375 205.160156 190.527344 204.078125 188.652344 203.324219 C 186.769531 202.566406 184.570312 202.148438 182.222656 202.148438 C 179.085938 202.15625 176.230469 202.886719 174.023438 204.1875 C 172.925781 204.84375 171.984375 205.644531 171.289062 206.617188 C 170.59375 207.585938 170.152344 208.757812 170.15625 210.003906 C 170.152344 211.246094 170.59375 212.417969 171.289062 213.386719 C 172.339844 214.847656 173.917969 215.929688 175.792969 216.683594 C 177.675781 217.4375 179.871094 217.855469 182.222656 217.855469 C 185.355469 217.851562 188.214844 217.117188 190.421875 215.816406 C 191.519531 215.164062 192.460938 214.359375 193.160156 213.386719 C 193.851562 212.417969 194.296875 211.246094 194.292969 210.003906 L 192.589844 210.003906 " fill-opacity="1" fill-rule="nonzero"/><path fill="#ffffff" d="M 103.066406 227.953125 C 103.066406 229.933594 100.648438 231.527344 97.667969 231.527344 C 94.683594 231.527344 92.257812 229.933594 92.257812 227.953125 C 92.257812 225.980469 94.683594 224.375 97.667969 224.375 C 100.648438 224.375 103.066406 225.980469 103.066406 227.953125 " fill-opacity="1" fill-rule="nonzero"/><path fill="#000000" d="M 103.066406 227.953125 L 101.363281 227.953125 C 101.359375 228.097656 101.328125 228.230469 101.207031 228.425781 C 101.03125 228.710938 100.617188 229.085938 99.992188 229.359375 C 99.367188 229.640625 98.554688 229.828125 97.667969 229.824219 C 96.480469 229.828125 95.425781 229.492188 94.78125 229.058594 C 94.457031 228.84375 94.238281 228.613281 94.117188 228.425781 C 93.996094 228.230469 93.964844 228.09375 93.960938 227.953125 C 93.964844 227.816406 93.996094 227.675781 94.117188 227.480469 C 94.292969 227.199219 94.710938 226.824219 95.339844 226.542969 C 95.960938 226.265625 96.777344 226.082031 97.667969 226.082031 C 98.855469 226.078125 99.898438 226.414062 100.542969 226.851562 C 100.867188 227.058594 101.089844 227.289062 101.207031 227.480469 C 101.328125 227.675781 101.359375 227.816406 101.363281 227.953125 L 104.769531 227.953125 C 104.769531 227.109375 104.503906 226.304688 104.078125 225.644531 C 103.433594 224.648438 102.476562 223.929688 101.382812 223.429688 C 100.277344 222.9375 99.011719 222.675781 97.667969 222.671875 C 95.867188 222.675781 94.21875 223.140625 92.90625 224.003906 C 92.25 224.433594 91.679688 224.976562 91.253906 225.644531 C 90.820312 226.304688 90.554688 227.109375 90.554688 227.953125 C 90.554688 228.800781 90.820312 229.605469 91.253906 230.265625 C 91.894531 231.265625 92.851562 231.984375 93.953125 232.480469 C 95.054688 232.96875 96.320312 233.234375 97.667969 233.234375 C 99.460938 233.230469 101.109375 232.765625 102.421875 231.90625 C 103.074219 231.46875 103.652344 230.933594 104.078125 230.265625 C 104.503906 229.605469 104.769531 228.800781 104.769531 227.953125 L 103.066406 227.953125 " fill-opacity="1" fill-rule="nonzero"/><path fill="#ffffff" d="M 155.15625 224.375 C 155.15625 226.351562 152.738281 227.953125 149.753906 227.953125 C 146.769531 227.953125 144.351562 226.351562 144.351562 224.375 C 144.351562 222.410156 146.769531 220.800781 149.753906 220.800781 C 152.738281 220.800781 155.15625 222.410156 155.15625 224.375 " fill-opacity="1" fill-rule="nonzero"/><path fill="#000000" d="M 155.15625 224.375 L 153.453125 224.375 C 153.453125 224.523438 153.417969 224.660156 153.296875 224.851562 C 153.117188 225.136719 152.707031 225.507812 152.082031 225.785156 C 151.460938 226.066406 150.644531 226.25 149.753906 226.246094 C 148.5625 226.25 147.511719 225.917969 146.871094 225.484375 C 146.546875 225.269531 146.328125 225.042969 146.210938 224.851562 C 146.089844 224.65625 146.054688 224.519531 146.054688 224.375 C 146.054688 224.238281 146.089844 224.101562 146.210938 223.910156 C 146.386719 223.625 146.800781 223.25 147.429688 222.972656 C 148.050781 222.695312 148.863281 222.507812 149.753906 222.507812 C 150.941406 222.507812 151.988281 222.839844 152.636719 223.273438 C 152.960938 223.488281 153.175781 223.71875 153.296875 223.910156 C 153.421875 224.101562 153.453125 224.238281 153.453125 224.375 L 156.859375 224.375 C 156.863281 223.53125 156.589844 222.730469 156.164062 222.070312 C 155.523438 221.070312 154.570312 220.351562 153.46875 219.859375 C 152.371094 219.367188 151.101562 219.101562 149.753906 219.09375 C 147.957031 219.101562 146.300781 219.566406 144.996094 220.429688 C 144.339844 220.863281 143.765625 221.40625 143.339844 222.066406 C 142.914062 222.730469 142.644531 223.53125 142.648438 224.375 C 142.644531 225.226562 142.914062 226.027344 143.339844 226.691406 C 143.984375 227.691406 144.941406 228.410156 146.035156 228.902344 C 147.140625 229.390625 148.40625 229.65625 149.753906 229.65625 C 151.550781 229.652344 153.203125 229.191406 154.511719 228.328125 C 155.167969 227.898438 155.738281 227.355469 156.164062 226.691406 C 156.589844 226.027344 156.863281 225.226562 156.859375 224.375 L 155.15625 224.375 " fill-opacity="1" fill-rule="nonzero"/><path fill="#ffffff" d="M 250.640625 197.21875 C 250.640625 199.195312 248.226562 200.796875 245.242188 200.796875 C 242.253906 200.796875 239.835938 199.195312 239.835938 197.21875 C 239.835938 195.246094 242.253906 193.648438 245.242188 193.648438 C 248.226562 193.648438 250.640625 195.246094 250.640625 197.21875 " fill-opacity="1" fill-rule="nonzero"/><path fill="#000000" d="M 250.640625 197.21875 L 248.9375 197.21875 C 248.933594 197.363281 248.902344 197.5 248.785156 197.691406 C 248.605469 197.980469 248.195312 198.351562 247.5625 198.628906 C 246.945312 198.90625 246.128906 199.089844 245.242188 199.089844 C 244.050781 199.09375 243 198.757812 242.359375 198.324219 C 242.035156 198.113281 241.8125 197.882812 241.695312 197.691406 C 241.574219 197.5 241.542969 197.363281 241.539062 197.21875 C 241.542969 197.082031 241.574219 196.945312 241.695312 196.75 C 241.871094 196.464844 242.285156 196.089844 242.914062 195.816406 C 243.539062 195.535156 244.347656 195.355469 245.242188 195.355469 C 246.429688 195.351562 247.476562 195.6875 248.125 196.117188 C 248.441406 196.332031 248.664062 196.5625 248.785156 196.75 C 248.902344 196.945312 248.933594 197.078125 248.9375 197.21875 L 252.34375 197.21875 C 252.34375 196.375 252.078125 195.570312 251.648438 194.910156 C 251.003906 193.910156 250.050781 193.195312 248.953125 192.703125 C 247.851562 192.210938 246.585938 191.941406 245.242188 191.941406 C 243.445312 191.949219 241.792969 192.410156 240.480469 193.269531 C 239.824219 193.703125 239.253906 194.242188 238.828125 194.910156 C 238.402344 195.570312 238.132812 196.375 238.132812 197.21875 C 238.132812 198.066406 238.402344 198.871094 238.828125 199.535156 C 239.46875 200.527344 240.429688 201.25 241.523438 201.742188 C 242.628906 202.234375 243.890625 202.5 245.242188 202.5 C 247.035156 202.496094 248.6875 202.035156 250 201.171875 C 250.652344 200.738281 251.222656 200.195312 251.648438 199.535156 C 252.078125 198.871094 252.34375 198.066406 252.34375 197.21875 L 250.640625 197.21875 " fill-opacity="1" fill-rule="nonzero"/><path fill="#ffffff" d="M 248.398438 225.035156 C 248.398438 226.652344 246.488281 227.953125 244.117188 227.953125 C 241.753906 227.953125 239.835938 226.652344 239.835938 225.035156 C 239.835938 223.421875 241.753906 222.117188 244.117188 222.117188 C 246.488281 222.117188 248.398438 223.421875 248.398438 225.035156 " fill-opacity="1" fill-rule="nonzero"/><path fill="#000000" d="M 248.398438 225.035156 L 246.695312 225.035156 C 246.695312 225.097656 246.6875 225.160156 246.617188 225.273438 C 246.519531 225.441406 246.246094 225.703125 245.804688 225.90625 C 245.359375 226.109375 244.769531 226.25 244.117188 226.246094 C 243.25 226.25 242.492188 226 242.046875 225.6875 C 241.824219 225.539062 241.6875 225.386719 241.617188 225.269531 C 241.550781 225.152344 241.542969 225.097656 241.539062 225.035156 C 241.542969 224.972656 241.550781 224.914062 241.617188 224.796875 C 241.71875 224.628906 241.988281 224.363281 242.433594 224.164062 C 242.875 223.960938 243.464844 223.820312 244.117188 223.820312 C 244.988281 223.816406 245.75 224.074219 246.191406 224.382812 C 246.410156 224.527344 246.546875 224.683594 246.617188 224.792969 C 246.6875 224.914062 246.695312 224.972656 246.695312 225.035156 L 250.101562 225.035156 C 250.105469 224.289062 249.875 223.582031 249.511719 222.996094 C 248.960938 222.121094 248.148438 221.488281 247.226562 221.0625 C 246.296875 220.636719 245.242188 220.410156 244.117188 220.410156 C 242.625 220.414062 241.238281 220.808594 240.132812 221.5625 C 239.582031 221.9375 239.089844 222.410156 238.726562 222.996094 C 238.363281 223.582031 238.132812 224.289062 238.132812 225.035156 C 238.132812 225.78125 238.363281 226.488281 238.726562 227.074219 C 239.277344 227.953125 240.089844 228.578125 241.015625 229.003906 C 241.941406 229.429688 242.996094 229.65625 244.117188 229.65625 C 245.617188 229.65625 246.996094 229.261719 248.105469 228.507812 C 248.660156 228.128906 249.148438 227.660156 249.511719 227.070312 C 249.875 226.488281 250.105469 225.777344 250.101562 225.035156 L 248.398438 225.035156 " fill-opacity="1" fill-rule="nonzero"/><path fill="#ffffff" d="M 189.925781 273.0625 C 189.925781 276.460938 185.285156 279.214844 179.558594 279.214844 C 173.839844 279.214844 169.199219 276.460938 169.199219 273.0625 C 169.199219 269.667969 173.839844 266.914062 179.558594 266.914062 C 185.285156 266.914062 189.925781 269.667969 189.925781 273.0625 " fill-opacity="1" fill-rule="nonzero"/><path fill="#000000" d="M 189.925781 273.0625 L 188.222656 273.0625 C 188.214844 273.515625 188.074219 273.964844 187.722656 274.464844 C 187.199219 275.210938 186.15625 276.007812 184.722656 276.578125 C 183.292969 277.152344 181.503906 277.507812 179.558594 277.507812 C 176.972656 277.507812 174.648438 276.871094 173.101562 275.945312 C 172.328125 275.484375 171.75 274.964844 171.398438 274.464844 C 171.042969 273.964844 170.902344 273.515625 170.902344 273.0625 C 170.902344 272.609375 171.042969 272.164062 171.398438 271.664062 C 171.921875 270.917969 172.96875 270.117188 174.402344 269.550781 C 175.828125 268.976562 177.621094 268.621094 179.558594 268.621094 C 182.148438 268.617188 184.472656 269.261719 186.019531 270.183594 C 186.796875 270.640625 187.371094 271.167969 187.722656 271.664062 C 188.078125 272.164062 188.214844 272.609375 188.222656 273.0625 L 191.628906 273.0625 C 191.628906 271.820312 191.191406 270.648438 190.496094 269.679688 C 189.445312 268.222656 187.863281 267.140625 185.984375 266.382812 C 184.109375 265.632812 181.914062 265.214844 179.558594 265.210938 C 176.425781 265.21875 173.566406 265.953125 171.363281 267.253906 C 170.269531 267.902344 169.324219 268.707031 168.628906 269.679688 C 167.929688 270.648438 167.492188 271.820312 167.496094 273.0625 C 167.492188 274.308594 167.929688 275.480469 168.628906 276.449219 C 169.675781 277.910156 171.257812 278.988281 173.132812 279.746094 C 175.015625 280.5 177.210938 280.917969 179.558594 280.917969 C 182.695312 280.910156 185.554688 280.179688 187.753906 278.878906 C 188.855469 278.222656 189.800781 277.421875 190.496094 276.449219 C 191.191406 275.480469 191.628906 274.308594 191.628906 273.0625 L 189.925781 273.0625 " fill-opacity="1" fill-rule="nonzero"/><path fill="#ffffff" d="M 260.203125 284.074219 C 257.570312 284.074219 255.4375 278.085938 255.4375 270.703125 C 255.4375 263.320312 257.570312 257.335938 260.203125 257.335938 L 260.203125 284.074219 " fill-opacity="1" fill-rule="nonzero"/><path fill="#000000" d="M 260.203125 284.074219 L 260.203125 282.367188 L 260.089844 282.320312 C 259.925781 282.234375 259.5625 281.898438 259.203125 281.269531 C 258.652344 280.34375 258.109375 278.847656 257.738281 277.015625 C 257.359375 275.1875 257.140625 273.019531 257.140625 270.703125 C 257.140625 267.183594 257.664062 263.988281 258.4375 261.824219 C 258.820312 260.746094 259.273438 259.929688 259.648438 259.488281 C 259.835938 259.265625 259.996094 259.136719 260.089844 259.089844 L 260.203125 259.039062 L 260.203125 257.335938 L 258.5 257.335938 L 258.5 284.074219 L 260.203125 284.074219 L 260.203125 282.367188 L 260.203125 284.074219 L 261.90625 284.074219 L 261.90625 257.335938 C 261.90625 256.886719 261.726562 256.449219 261.40625 256.132812 C 261.089844 255.8125 260.652344 255.628906 260.203125 255.628906 C 259.546875 255.628906 258.917969 255.824219 258.394531 256.125 C 257.472656 256.667969 256.820312 257.46875 256.261719 258.410156 C 255.4375 259.820312 254.832031 261.617188 254.398438 263.707031 C 253.972656 265.796875 253.734375 268.171875 253.734375 270.703125 C 253.738281 274.5625 254.277344 278.054688 255.226562 280.730469 C 255.710938 282.066406 256.285156 283.207031 257.046875 284.121094 C 257.425781 284.574219 257.867188 284.976562 258.394531 285.28125 C 258.917969 285.585938 259.546875 285.78125 260.203125 285.78125 C 260.652344 285.78125 261.089844 285.597656 261.40625 285.277344 C 261.726562 284.960938 261.90625 284.523438 261.90625 284.074219 L 260.203125 284.074219 " fill-opacity="1" fill-rule="nonzero"/><path fill="#ffffff" d="M 260.203125 284.074219 C 262.832031 284.074219 264.972656 278.085938 264.972656 270.703125 C 264.972656 263.320312 262.832031 257.335938 260.203125 257.335938 L 260.203125 284.074219 " fill-opacity="1" fill-rule="nonzero"/><path fill="#000000" d="M 260.203125 284.074219 L 260.203125 285.78125 C 260.855469 285.78125 261.484375 285.585938 262.007812 285.28125 C 262.929688 284.742188 263.582031 283.941406 264.140625 283.003906 C 264.96875 281.585938 265.574219 279.792969 266.003906 277.699219 C 266.433594 275.613281 266.675781 273.234375 266.675781 270.703125 C 266.667969 266.84375 266.125 263.351562 265.175781 260.679688 C 264.695312 259.339844 264.121094 258.195312 263.355469 257.285156 C 262.976562 256.832031 262.535156 256.433594 262.007812 256.132812 C 261.484375 255.824219 260.855469 255.628906 260.203125 255.628906 C 259.757812 255.628906 259.316406 255.8125 258.996094 256.132812 C 258.683594 256.449219 258.5 256.886719 258.5 257.335938 L 258.5 284.074219 C 258.5 284.523438 258.683594 284.960938 258.996094 285.277344 C 259.316406 285.597656 259.757812 285.78125 260.203125 285.78125 L 260.203125 284.074219 L 261.90625 284.074219 L 261.90625 257.335938 L 260.203125 257.335938 L 260.203125 259.039062 L 260.316406 259.089844 C 260.480469 259.171875 260.847656 259.511719 261.207031 260.136719 C 261.757812 261.066406 262.296875 262.566406 262.667969 264.394531 C 263.046875 266.226562 263.269531 268.390625 263.269531 270.703125 C 263.273438 274.226562 262.746094 277.414062 261.96875 279.582031 C 261.585938 280.664062 261.136719 281.480469 260.757812 281.917969 C 260.570312 282.144531 260.40625 282.269531 260.316406 282.324219 L 260.203125 282.367188 L 260.203125 284.074219 L 261.90625 284.074219 L 260.203125 284.074219 " fill-opacity="1" fill-rule="nonzero"/><path fill="#ffffff" d="M 90.765625 287.367188 C 90.765625 290.757812 86.125 293.511719 80.394531 293.511719 C 74.679688 293.511719 70.035156 290.757812 70.035156 287.367188 C 70.035156 283.964844 74.679688 281.214844 80.394531 281.214844 C 86.125 281.214844 90.765625 283.964844 90.765625 287.367188 " fill-opacity="1" fill-rule="nonzero"/><path fill="#000000" d="M 90.765625 287.367188 L 89.0625 287.367188 C 89.058594 287.820312 88.914062 288.261719 88.566406 288.765625 C 88.042969 289.511719 86.996094 290.304688 85.5625 290.875 C 84.132812 291.453125 82.34375 291.808594 80.394531 291.804688 C 77.808594 291.8125 75.484375 291.167969 73.9375 290.242188 C 73.164062 289.78125 72.585938 289.261719 72.234375 288.765625 C 71.878906 288.261719 71.738281 287.820312 71.738281 287.367188 C 71.738281 286.90625 71.878906 286.464844 72.234375 285.960938 C 72.757812 285.214844 73.804688 284.417969 75.238281 283.847656 C 76.664062 283.273438 78.457031 282.917969 80.394531 282.917969 C 82.988281 282.914062 85.3125 283.558594 86.863281 284.484375 C 87.636719 284.941406 88.210938 285.464844 88.566406 285.960938 C 88.914062 286.464844 89.058594 286.90625 89.0625 287.367188 L 92.46875 287.367188 C 92.46875 286.121094 92.03125 284.949219 91.335938 283.980469 C 90.285156 282.519531 88.703125 281.4375 86.828125 280.679688 C 84.945312 279.929688 82.75 279.507812 80.394531 279.507812 C 77.265625 279.511719 74.402344 280.246094 72.203125 281.546875 C 71.105469 282.199219 70.160156 283.003906 69.464844 283.980469 C 68.765625 284.949219 68.328125 286.121094 68.332031 287.367188 C 68.328125 288.609375 68.765625 289.78125 69.464844 290.746094 C 70.515625 292.207031 72.097656 293.285156 73.972656 294.046875 C 75.851562 294.796875 78.046875 295.214844 80.394531 295.21875 C 83.535156 295.214844 86.394531 294.476562 88.597656 293.179688 C 89.695312 292.523438 90.640625 291.722656 91.335938 290.746094 C 92.027344 289.777344 92.46875 288.609375 92.46875 287.367188 L 90.765625 287.367188 " fill-opacity="1" fill-rule="nonzero"/><path fill="#ffffff" d="M 160.476562 257.082031 C 160.476562 258.839844 158.074219 260.261719 155.113281 260.261719 C 152.152344 260.261719 149.753906 258.839844 149.753906 257.082031 C 149.753906 255.328125 152.152344 253.902344 155.113281 253.902344 C 158.074219 253.902344 160.476562 255.328125 160.476562 257.082031 " fill-opacity="1" fill-rule="nonzero"/><path fill="#000000" d="M 160.476562 257.082031 L 158.773438 257.082031 C 158.769531 257.125 158.769531 257.179688 158.667969 257.332031 C 158.523438 257.542969 158.113281 257.886719 157.476562 258.132812 C 156.847656 258.386719 156.019531 258.554688 155.113281 258.554688 C 153.910156 258.5625 152.835938 258.25 152.191406 257.863281 C 151.867188 257.671875 151.660156 257.46875 151.5625 257.332031 C 151.460938 257.183594 151.460938 257.125 151.457031 257.082031 C 151.460938 257.039062 151.460938 256.984375 151.5625 256.835938 C 151.703125 256.621094 152.117188 256.277344 152.75 256.027344 C 153.378906 255.777344 154.210938 255.605469 155.113281 255.605469 C 156.320312 255.601562 157.394531 255.914062 158.039062 256.300781 C 158.359375 256.492188 158.570312 256.695312 158.667969 256.835938 C 158.769531 256.984375 158.769531 257.039062 158.773438 257.082031 L 162.179688 257.082031 C 162.179688 256.246094 161.882812 255.46875 161.4375 254.851562 C 160.769531 253.921875 159.820312 253.296875 158.742188 252.863281 C 157.664062 252.429688 156.425781 252.195312 155.113281 252.195312 C 153.359375 252.199219 151.753906 252.605469 150.453125 253.363281 C 149.804688 253.75 149.234375 254.234375 148.789062 254.855469 C 148.347656 255.46875 148.050781 256.246094 148.050781 257.082031 C 148.050781 257.917969 148.347656 258.699219 148.789062 259.3125 C 149.460938 260.238281 150.40625 260.867188 151.484375 261.300781 C 152.566406 261.730469 153.796875 261.96875 155.113281 261.96875 C 156.867188 261.964844 158.476562 261.558594 159.769531 260.800781 C 160.417969 260.414062 160.996094 259.929688 161.4375 259.3125 C 161.882812 258.699219 162.179688 257.917969 162.179688 257.082031 L 160.476562 257.082031 " fill-opacity="1" fill-rule="nonzero"/><path fill="#ffffff" d="M 273.339844 206.859375 C 273.339844 210.253906 268.699219 213.007812 262.976562 213.007812 C 257.253906 213.007812 252.609375 210.253906 252.609375 206.859375 C 252.609375 203.460938 257.253906 200.710938 262.976562 200.710938 C 268.699219 200.710938 273.339844 203.460938 273.339844 206.859375 " fill-opacity="1" fill-rule="nonzero"/><path fill="#000000" d="M 273.339844 206.859375 L 271.636719 206.859375 C 271.636719 207.3125 271.496094 207.753906 271.140625 208.257812 C 270.617188 209.003906 269.570312 209.804688 268.136719 210.371094 C 266.710938 210.945312 264.917969 211.300781 262.976562 211.300781 C 260.390625 211.304688 258.066406 210.660156 256.515625 209.738281 C 255.738281 209.277344 255.160156 208.753906 254.8125 208.257812 C 254.457031 207.753906 254.3125 207.3125 254.3125 206.859375 C 254.3125 206.402344 254.457031 205.957031 254.8125 205.453125 C 255.335938 204.707031 256.382812 203.914062 257.8125 203.34375 C 259.242188 202.769531 261.039062 202.414062 262.976562 202.417969 C 265.566406 202.414062 267.890625 203.050781 269.4375 203.976562 C 270.214844 204.4375 270.789062 204.957031 271.140625 205.453125 C 271.496094 205.957031 271.636719 206.402344 271.636719 206.859375 L 275.042969 206.859375 C 275.046875 205.613281 274.609375 204.441406 273.910156 203.46875 C 272.859375 202.011719 271.277344 200.933594 269.402344 200.171875 C 267.527344 199.421875 265.324219 199.003906 262.976562 199.003906 C 259.839844 199.011719 256.984375 199.742188 254.78125 201.039062 C 253.679688 201.695312 252.734375 202.496094 252.039062 203.46875 C 251.34375 204.441406 250.902344 205.609375 250.902344 206.859375 C 250.902344 208.101562 251.34375 209.273438 252.039062 210.242188 C 253.089844 211.699219 254.671875 212.785156 256.550781 213.539062 C 258.429688 214.289062 260.625 214.710938 262.976562 214.710938 C 266.109375 214.707031 268.972656 213.972656 271.171875 212.671875 C 272.269531 212.019531 273.214844 211.214844 273.910156 210.242188 C 274.609375 209.269531 275.046875 208.101562 275.042969 206.859375 L 273.339844 206.859375 " fill-opacity="1" fill-rule="nonzero"/><path fill="#ffffff" d="M 331.039062 273.339844 C 328.8125 273.339844 326.800781 274.164062 325.214844 275.488281 C 322.757812 271.117188 318.097656 268.164062 312.730469 268.164062 C 312.148438 268.164062 311.578125 268.210938 311.015625 268.277344 L 311.023438 268.164062 C 311.023438 263.789062 307.476562 260.234375 303.113281 260.234375 C 302.878906 260.234375 302.667969 260.289062 302.441406 260.304688 C 301.097656 256.925781 297.8125 254.53125 293.957031 254.53125 C 291.496094 254.53125 289.277344 255.507812 287.632812 257.085938 C 285.246094 252.492188 280.46875 249.355469 274.941406 249.355469 C 270.789062 249.355469 267.070312 251.128906 264.457031 253.953125 C 261.15625 248.527344 255.214844 244.890625 248.410156 244.890625 C 243.625 244.890625 239.269531 246.695312 235.949219 249.652344 C 235.019531 245.582031 231.398438 242.539062 227.046875 242.539062 C 224.007812 242.539062 221.328125 244.039062 219.660156 246.332031 C 217.539062 241.078125 212.40625 237.363281 206.390625 237.363281 C 199.3125 237.363281 193.445312 242.519531 192.292969 249.28125 C 191.273438 248.890625 190.175781 248.652344 189.023438 248.652344 C 183.964844 248.652344 179.867188 252.757812 179.867188 257.820312 C 179.867188 258.90625 180.085938 259.9375 180.433594 260.90625 C 180.238281 260.898438 180.054688 260.878906 179.867188 260.878906 C 169.496094 260.878906 161.085938 269.296875 161.085938 279.6875 C 161.085938 290.070312 169.496094 298.496094 179.867188 298.496094 L 180.035156 298.488281 C 179.9375 299.023438 179.867188 299.574219 179.867188 300.140625 C 179.867188 305.203125 183.964844 309.308594 189.023438 309.308594 C 190.046875 309.308594 191.019531 309.101562 191.9375 308.792969 C 194.554688 312.242188 198.683594 314.484375 203.339844 314.484375 C 208.269531 314.484375 212.617188 311.984375 215.195312 308.1875 C 217.769531 311.984375 222.113281 314.484375 227.046875 314.484375 C 231.910156 314.484375 236.203125 312.046875 238.785156 308.34375 C 241.378906 312.046875 245.660156 314.484375 250.523438 314.484375 C 256.046875 314.484375 260.839844 311.34375 263.222656 306.753906 C 264.863281 308.332031 267.082031 309.308594 269.539062 309.308594 C 273.882812 309.308594 277.5 306.273438 278.441406 302.210938 C 279.820312 303.394531 281.59375 304.136719 283.554688 304.136719 C 286.414062 304.136719 288.886719 302.613281 290.28125 300.34375 C 291.796875 303.320312 294.847656 305.382812 298.414062 305.382812 C 303.464844 305.382812 307.570312 301.273438 307.570312 296.214844 C 307.570312 296.089844 307.539062 295.976562 307.53125 295.859375 C 309.148438 296.488281 310.898438 296.847656 312.730469 296.847656 C 318.097656 296.847656 322.757812 293.894531 325.214844 289.523438 C 326.800781 290.847656 328.8125 291.679688 331.039062 291.679688 C 336.097656 291.679688 340.195312 287.570312 340.195312 282.507812 C 340.195312 277.445312 336.097656 273.339844 331.039062 273.339844 " fill-opacity="1" fill-rule="nonzero"/><g clip-path="url(#deda19f90d)"><path fill="#000000" d="M 331.039062 273.339844 L 331.039062 271.632812 C 328.386719 271.628906 325.980469 272.625 324.125 274.179688 L 325.214844 275.488281 L 326.699219 274.652344 C 323.960938 269.765625 318.730469 266.457031 312.730469 266.457031 C 312.054688 266.457031 311.414062 266.515625 310.816406 266.585938 L 311.015625 268.277344 L 312.710938 268.40625 L 312.722656 268.296875 L 312.726562 268.164062 C 312.722656 262.847656 308.417969 258.535156 303.113281 258.53125 C 302.636719 258.539062 302.371094 258.605469 302.308594 258.605469 L 302.441406 260.304688 L 304.023438 259.675781 C 302.433594 255.664062 298.53125 252.828125 293.957031 252.828125 C 291.039062 252.820312 288.394531 253.988281 286.457031 255.851562 L 287.632812 257.085938 L 289.144531 256.296875 C 286.480469 251.164062 281.125 247.652344 274.941406 247.648438 C 270.296875 247.648438 266.121094 249.640625 263.207031 252.796875 L 264.457031 253.953125 L 265.910156 253.066406 C 262.324219 247.152344 255.832031 243.183594 248.410156 243.183594 C 243.191406 243.183594 238.433594 245.160156 234.820312 248.375 L 235.949219 249.652344 L 237.613281 249.269531 C 236.507812 244.441406 232.210938 240.832031 227.046875 240.832031 C 223.4375 240.832031 220.25 242.625 218.285156 245.328125 L 219.660156 246.332031 L 221.238281 245.691406 C 218.867188 239.816406 213.117188 235.664062 206.390625 235.660156 C 198.464844 235.664062 191.902344 241.425781 190.617188 248.992188 L 192.292969 249.28125 L 192.90625 247.691406 C 191.71875 247.234375 190.410156 246.945312 189.023438 246.945312 C 183.019531 246.945312 178.164062 251.8125 178.164062 257.820312 C 178.164062 259.136719 178.433594 260.367188 178.832031 261.484375 L 180.433594 260.90625 L 180.480469 259.199219 C 180.375 259.199219 180.175781 259.171875 179.867188 259.171875 C 168.558594 259.171875 159.382812 268.355469 159.382812 279.6875 C 159.382812 291.015625 168.558594 300.199219 179.867188 300.203125 L 179.945312 300.199219 L 180.113281 300.1875 L 180.035156 298.488281 L 178.363281 298.175781 C 178.25 298.78125 178.164062 299.433594 178.164062 300.140625 C 178.164062 306.144531 183.023438 311.011719 189.023438 311.011719 C 190.277344 311.011719 191.4375 310.761719 192.480469 310.40625 L 191.9375 308.792969 L 190.582031 309.824219 C 193.5 313.675781 198.128906 316.1875 203.339844 316.1875 C 208.851562 316.1875 213.726562 313.394531 216.601562 309.148438 L 215.195312 308.1875 L 213.785156 309.148438 C 216.660156 313.390625 221.53125 316.1875 227.046875 316.1875 C 232.484375 316.1875 237.296875 313.464844 240.179688 309.316406 L 238.785156 308.34375 L 237.390625 309.320312 C 240.28125 313.460938 245.085938 316.1875 250.523438 316.1875 C 256.703125 316.1875 262.066406 312.671875 264.730469 307.539062 L 263.222656 306.753906 L 262.042969 307.984375 C 263.980469 309.84375 266.625 311.019531 269.539062 311.011719 C 272.105469 311.019531 274.484375 310.113281 276.332031 308.609375 C 278.1875 307.109375 279.539062 305.003906 280.097656 302.597656 L 278.441406 302.210938 L 277.332031 303.507812 C 278.984375 304.933594 281.160156 305.84375 283.554688 305.84375 C 287.03125 305.84375 290.054688 303.980469 291.734375 301.238281 L 290.28125 300.34375 L 288.765625 301.117188 C 290.546875 304.628906 294.179688 307.085938 298.414062 307.085938 C 304.410156 307.082031 309.265625 302.214844 309.269531 296.214844 C 309.269531 296.011719 309.25 295.875 309.242188 295.804688 L 309.230469 295.746094 L 308.722656 295.808594 L 309.234375 295.785156 L 309.230469 295.746094 L 308.722656 295.808594 L 309.234375 295.785156 L 307.53125 295.859375 L 306.917969 297.449219 C 308.710938 298.148438 310.675781 298.554688 312.730469 298.554688 C 318.730469 298.554688 323.960938 295.246094 326.699219 290.359375 L 325.214844 289.523438 L 324.125 290.835938 C 325.980469 292.382812 328.386719 293.382812 331.039062 293.382812 C 337.039062 293.378906 341.898438 288.511719 341.898438 282.507812 C 341.898438 276.5 337.042969 271.632812 331.039062 271.632812 L 331.039062 275.039062 C 333.105469 275.042969 334.957031 275.875 336.3125 277.230469 C 337.664062 278.585938 338.492188 280.441406 338.492188 282.507812 C 338.492188 284.570312 337.664062 286.429688 336.3125 287.78125 C 334.957031 289.136719 333.105469 289.96875 331.039062 289.972656 C 329.242188 289.96875 327.621094 289.304688 326.304688 288.214844 C 325.921875 287.890625 325.40625 287.757812 324.910156 287.84375 C 324.414062 287.9375 323.980469 288.246094 323.734375 288.6875 C 321.558594 292.539062 317.457031 295.144531 312.730469 295.144531 C 311.121094 295.144531 309.582031 294.828125 308.148438 294.269531 C 307.613281 294.058594 307.007812 294.140625 306.542969 294.472656 C 306.074219 294.804688 305.808594 295.355469 305.835938 295.929688 C 305.839844 296.105469 305.859375 296.21875 305.867188 296.261719 L 305.867188 296.285156 L 306.132812 296.253906 L 305.867188 296.269531 L 305.867188 296.285156 L 306.132812 296.253906 L 305.867188 296.269531 L 306.675781 296.210938 L 305.867188 296.214844 L 305.867188 296.269531 L 306.675781 296.210938 L 305.867188 296.214844 C 305.867188 298.273438 305.03125 300.132812 303.679688 301.492188 C 302.328125 302.839844 300.472656 303.675781 298.414062 303.675781 C 295.523438 303.675781 293.042969 302.011719 291.800781 299.566406 C 291.523438 299.019531 290.964844 298.660156 290.351562 298.640625 C 289.734375 298.613281 289.15625 298.921875 288.832031 299.445312 C 287.722656 301.246094 285.796875 302.433594 283.554688 302.433594 C 282.023438 302.433594 280.652344 301.859375 279.546875 300.914062 C 279.09375 300.527344 278.476562 300.402344 277.90625 300.589844 C 277.339844 300.773438 276.914062 301.242188 276.777344 301.824219 C 276.394531 303.476562 275.46875 304.921875 274.191406 305.957031 C 272.917969 306.988281 271.308594 307.601562 269.539062 307.601562 C 267.539062 307.601562 265.75 306.8125 264.402344 305.523438 C 264.011719 305.148438 263.472656 304.984375 262.945312 305.070312 C 262.417969 305.160156 261.960938 305.492188 261.710938 305.96875 C 259.605469 310.007812 255.390625 312.777344 250.523438 312.777344 C 246.238281 312.777344 242.472656 310.636719 240.179688 307.363281 C 239.859375 306.90625 239.34375 306.632812 238.785156 306.636719 C 238.222656 306.636719 237.707031 306.910156 237.390625 307.367188 C 235.105469 310.636719 231.332031 312.777344 227.046875 312.777344 C 222.699219 312.777344 218.878906 310.582031 216.601562 307.230469 C 216.285156 306.761719 215.757812 306.484375 215.191406 306.484375 C 214.632812 306.484375 214.097656 306.761719 213.785156 307.230469 C 211.507812 310.578125 207.6875 312.777344 203.339844 312.777344 C 199.234375 312.777344 195.609375 310.808594 193.289062 307.761719 C 192.851562 307.175781 192.082031 306.941406 191.390625 307.175781 C 190.597656 307.441406 189.8125 307.601562 189.023438 307.601562 C 186.957031 307.601562 185.101562 306.773438 183.75 305.417969 C 182.402344 304.0625 181.570312 302.207031 181.570312 300.140625 C 181.570312 299.714844 181.621094 299.269531 181.710938 298.796875 C 181.804688 298.289062 181.660156 297.753906 181.320312 297.363281 C 180.980469 296.976562 180.472656 296.761719 179.957031 296.78125 L 179.789062 296.789062 L 179.867188 298.496094 L 179.867188 296.785156 C 175.148438 296.785156 170.886719 294.875 167.789062 291.78125 C 164.695312 288.679688 162.785156 284.410156 162.785156 279.6875 C 162.785156 274.960938 164.695312 270.691406 167.789062 267.59375 C 170.886719 264.496094 175.148438 262.585938 179.867188 262.585938 C 179.9375 262.585938 180.105469 262.597656 180.382812 262.613281 C 180.949219 262.625 181.484375 262.363281 181.8125 261.90625 C 182.144531 261.449219 182.230469 260.855469 182.039062 260.328125 C 181.742188 259.507812 181.570312 258.675781 181.570312 257.820312 C 181.570312 255.753906 182.398438 253.898438 183.75 252.542969 C 185.101562 251.1875 186.957031 250.355469 189.023438 250.355469 C 189.941406 250.355469 190.824219 250.542969 191.683594 250.871094 C 192.160156 251.058594 192.691406 251.019531 193.136719 250.765625 C 193.582031 250.511719 193.882812 250.074219 193.972656 249.566406 C 194.984375 243.613281 200.15625 239.066406 206.390625 239.070312 C 211.6875 239.070312 216.210938 242.34375 218.082031 246.972656 C 218.3125 247.546875 218.835938 247.949219 219.453125 248.023438 C 220.066406 248.101562 220.671875 247.839844 221.035156 247.335938 C 222.410156 245.457031 224.578125 244.246094 227.046875 244.246094 C 230.585938 244.242188 233.53125 246.71875 234.289062 250.03125 C 234.421875 250.617188 234.859375 251.089844 235.429688 251.277344 C 236.007812 251.457031 236.632812 251.324219 237.082031 250.925781 C 240.113281 248.234375 244.054688 246.59375 248.410156 246.59375 C 254.59375 246.59375 259.996094 249.898438 263.003906 254.839844 C 263.277344 255.296875 263.75 255.597656 264.285156 255.652344 C 264.816406 255.703125 265.34375 255.503906 265.703125 255.113281 C 268.011719 252.621094 271.28125 251.0625 274.941406 251.0625 C 279.804688 251.058594 284.015625 253.824219 286.125 257.871094 C 286.371094 258.347656 286.832031 258.679688 287.359375 258.765625 C 287.886719 258.855469 288.421875 258.683594 288.8125 258.316406 C 290.164062 257.027344 291.953125 256.238281 293.957031 256.238281 C 297.089844 256.234375 299.761719 258.183594 300.859375 260.933594 C 301.132812 261.628906 301.828125 262.0625 302.574219 262.003906 C 302.765625 261.988281 302.90625 261.96875 302.996094 261.953125 L 303.089844 261.945312 L 303.113281 261.941406 C 304.828125 261.945312 306.371094 262.636719 307.496094 263.765625 C 308.628906 264.898438 309.320312 266.441406 309.320312 268.164062 L 311.023438 268.164062 L 309.324219 268.03125 L 309.316406 268.144531 C 309.277344 268.65625 309.464844 269.152344 309.835938 269.507812 C 310.203125 269.863281 310.703125 270.035156 311.214844 269.972656 C 311.738281 269.910156 312.246094 269.871094 312.730469 269.871094 C 317.457031 269.871094 321.558594 272.472656 323.734375 276.324219 C 323.980469 276.765625 324.414062 277.074219 324.910156 277.167969 C 325.40625 277.257812 325.921875 277.121094 326.304688 276.796875 C 327.621094 275.707031 329.242188 275.042969 331.039062 275.039062 L 331.039062 273.339844 " fill-opacity="1" fill-rule="nonzero"/></g><path fill="#ffffff" d="M 318.664062 133.027344 C 318.664062 144.164062 309.660156 153.183594 298.546875 153.183594 C 287.425781 153.183594 278.425781 144.164062 278.425781 133.027344 C 278.425781 121.894531 287.425781 112.875 298.546875 112.875 C 309.660156 112.875 318.664062 121.894531 318.664062 133.027344 " fill-opacity="1" fill-rule="nonzero"/><path fill="#000000" d="M 318.664062 133.027344 L 316.960938 133.027344 C 316.960938 138.125 314.902344 142.726562 311.570312 146.074219 C 308.234375 149.417969 303.640625 151.480469 298.546875 151.480469 C 293.453125 151.480469 288.859375 149.417969 285.519531 146.074219 C 282.1875 142.726562 280.128906 138.125 280.128906 133.027344 C 280.128906 127.925781 282.1875 123.328125 285.519531 119.980469 C 288.859375 116.640625 293.453125 114.582031 298.546875 114.582031 C 303.640625 114.582031 308.234375 116.640625 311.574219 119.980469 C 314.902344 123.328125 316.960938 127.925781 316.960938 133.027344 L 320.367188 133.027344 C 320.367188 120.953125 310.601562 111.167969 298.546875 111.167969 C 286.484375 111.167969 276.722656 120.953125 276.722656 133.027344 C 276.722656 145.101562 286.484375 154.890625 298.546875 154.890625 C 310.605469 154.890625 320.367188 145.101562 320.367188 133.027344 L 318.664062 133.027344 " fill-opacity="1" fill-rule="nonzero"/><path fill="#ffffff" d="M 177.90625 186.132812 C 177.90625 197.265625 168.902344 206.28125 157.785156 206.28125 C 146.671875 206.28125 137.664062 197.265625 137.664062 186.132812 C 137.664062 174.996094 146.671875 165.980469 157.785156 165.980469 C 168.902344 165.980469 177.90625 174.996094 177.90625 186.132812 " fill-opacity="1" fill-rule="nonzero"/><path fill="#000000" d="M 177.90625 186.132812 L 176.203125 186.132812 C 176.203125 191.238281 174.144531 195.835938 170.808594 199.179688 C 167.476562 202.515625 162.878906 204.574219 157.785156 204.574219 C 152.691406 204.574219 148.097656 202.515625 144.757812 199.179688 C 141.425781 195.835938 139.371094 191.238281 139.367188 186.132812 C 139.371094 181.03125 141.425781 176.433594 144.757812 173.085938 C 148.097656 169.746094 152.691406 167.691406 157.785156 167.6875 C 162.878906 167.691406 167.476562 169.746094 170.808594 173.085938 C 174.144531 176.433594 176.203125 181.03125 176.203125 186.132812 L 179.609375 186.132812 C 179.609375 174.054688 169.84375 164.28125 157.785156 164.273438 C 145.730469 164.28125 135.964844 174.054688 135.960938 186.132812 C 135.964844 198.207031 145.730469 207.988281 157.785156 207.988281 C 169.84375 207.988281 179.609375 198.207031 179.609375 186.132812 L 177.90625 186.132812 " fill-opacity="1" fill-rule="nonzero"/><path fill="#ffffff" d="M 334.980469 100.996094 C 334.980469 107.558594 329.675781 112.875 323.125 112.875 C 316.574219 112.875 311.265625 107.558594 311.265625 100.996094 C 311.265625 94.441406 316.574219 89.128906 323.125 89.128906 C 329.675781 89.128906 334.980469 94.441406 334.980469 100.996094 " fill-opacity="1" fill-rule="nonzero"/><path fill="#000000" d="M 334.980469 100.996094 L 333.277344 100.996094 C 333.277344 103.8125 332.140625 106.347656 330.304688 108.195312 C 328.460938 110.035156 325.9375 111.167969 323.125 111.167969 C 320.3125 111.167969 317.785156 110.035156 315.945312 108.195312 C 314.105469 106.347656 312.96875 103.8125 312.96875 100.996094 C 312.96875 98.1875 314.101562 95.65625 315.941406 93.8125 C 317.785156 91.972656 320.3125 90.835938 323.125 90.835938 C 325.9375 90.835938 328.460938 91.972656 330.304688 93.8125 C 332.140625 95.65625 333.277344 98.1875 333.277344 100.996094 L 336.683594 100.996094 C 336.683594 93.5 330.617188 87.425781 323.125 87.425781 C 315.640625 87.425781 309.5625 93.496094 309.5625 100.996094 C 309.5625 108.503906 315.636719 114.582031 323.125 114.582031 C 330.617188 114.582031 336.683594 108.5 336.683594 100.996094 L 334.980469 100.996094 " fill-opacity="1" fill-rule="nonzero"/><path fill="#ffffff" d="M 186.71875 168.957031 C 186.71875 175.523438 181.410156 180.828125 174.863281 180.828125 C 168.308594 180.828125 163.003906 175.523438 163.003906 168.957031 C 163.003906 162.390625 168.308594 157.078125 174.863281 157.078125 C 181.410156 157.078125 186.71875 162.390625 186.71875 168.957031 " fill-opacity="1" fill-rule="nonzero"/><path fill="#000000" d="M 186.71875 168.957031 L 185.015625 168.957031 C 185.011719 171.773438 183.878906 174.304688 182.039062 176.148438 C 180.199219 177.992188 177.671875 179.125 174.863281 179.125 C 172.050781 179.125 169.523438 177.992188 167.679688 176.148438 C 165.839844 174.304688 164.707031 171.773438 164.707031 168.957031 C 164.707031 166.140625 165.839844 163.609375 167.679688 161.765625 C 169.523438 159.921875 172.050781 158.789062 174.863281 158.785156 C 177.671875 158.789062 180.199219 159.921875 182.039062 161.765625 C 183.878906 163.609375 185.011719 166.140625 185.015625 168.957031 L 188.421875 168.957031 C 188.417969 161.449219 182.347656 155.378906 174.863281 155.375 C 167.367188 155.378906 161.300781 161.449219 161.300781 168.957031 C 161.300781 172.707031 162.816406 176.113281 165.269531 178.566406 C 167.722656 181.015625 171.125 182.539062 174.863281 182.535156 C 182.347656 182.535156 188.417969 176.464844 188.421875 168.957031 L 186.71875 168.957031 " fill-opacity="1" fill-rule="nonzero"/><path fill="#ffffff" d="M 253.808594 158.839844 C 253.808594 165.398438 248.503906 170.714844 241.957031 170.714844 C 235.398438 170.714844 230.09375 165.398438 230.09375 158.839844 C 230.09375 152.277344 235.398438 146.960938 241.957031 146.960938 C 248.503906 146.960938 253.808594 152.277344 253.808594 158.839844 " fill-opacity="1" fill-rule="nonzero"/><path fill="#000000" d="M 253.808594 158.839844 L 252.105469 158.839844 C 252.105469 161.65625 250.976562 164.1875 249.132812 166.03125 C 247.292969 167.875 244.765625 169.003906 241.957031 169.003906 C 239.140625 169.003906 236.613281 167.875 234.769531 166.03125 C 232.929688 164.1875 231.796875 161.65625 231.796875 158.839844 C 231.796875 156.023438 232.929688 153.492188 234.769531 151.644531 C 236.613281 149.804688 239.140625 148.667969 241.957031 148.667969 C 244.765625 148.667969 247.292969 149.800781 249.132812 151.644531 C 250.976562 153.492188 252.105469 156.023438 252.105469 158.839844 L 255.511719 158.839844 C 255.511719 151.335938 249.445312 145.253906 241.957031 145.253906 C 234.460938 145.253906 228.390625 151.335938 228.390625 158.839844 C 228.390625 166.339844 234.460938 172.417969 241.957031 172.421875 C 249.445312 172.417969 255.511719 166.339844 255.511719 158.839844 L 253.808594 158.839844 " fill-opacity="1" fill-rule="nonzero"/><path fill="#ffffff" d="M 308.296875 82.675781 C 308.296875 86.242188 305.410156 89.128906 301.84375 89.128906 C 298.28125 89.128906 295.398438 86.242188 295.398438 82.675781 C 295.398438 79.101562 298.28125 76.210938 301.84375 76.210938 C 305.410156 76.210938 308.296875 79.101562 308.296875 82.675781 " fill-opacity="1" fill-rule="nonzero"/><g clip-path="url(#07ae77522e)"><path fill="#000000" d="M 308.296875 82.675781 L 306.59375 82.675781 C 306.59375 83.996094 306.066406 85.167969 305.203125 86.035156 C 304.339844 86.894531 303.164062 87.425781 301.84375 87.425781 C 300.527344 87.425781 299.355469 86.894531 298.488281 86.035156 C 297.628906 85.167969 297.101562 83.996094 297.101562 82.675781 C 297.101562 80.042969 299.222656 77.917969 301.84375 77.917969 C 304.472656 77.917969 306.59375 80.042969 306.59375 82.675781 L 310 82.675781 C 310 80.421875 309.085938 78.371094 307.613281 76.898438 C 306.140625 75.421875 304.089844 74.507812 301.84375 74.507812 C 299.597656 74.507812 297.550781 75.421875 296.082031 76.898438 C 294.609375 78.371094 293.695312 80.421875 293.695312 82.675781 C 293.695312 87.183594 297.339844 90.835938 301.84375 90.835938 C 306.347656 90.835938 310 87.183594 310 82.675781 L 308.296875 82.675781 " fill-opacity="1" fill-rule="nonzero"/></g><path fill="#ffffff" d="M 176.210938 135.511719 C 176.210938 139.078125 173.324219 141.964844 169.761719 141.964844 C 166.203125 141.964844 163.308594 139.078125 163.308594 135.511719 C 163.308594 131.9375 166.203125 129.050781 169.761719 129.050781 C 173.324219 129.050781 176.210938 131.9375 176.210938 135.511719 " fill-opacity="1" fill-rule="nonzero"/><path fill="#000000" d="M 176.210938 135.511719 L 174.507812 135.511719 C 174.507812 136.828125 173.980469 138.007812 173.117188 138.867188 C 172.253906 139.730469 171.082031 140.257812 169.761719 140.257812 C 168.445312 140.257812 167.269531 139.730469 166.40625 138.867188 C 165.542969 138.003906 165.011719 136.824219 165.011719 135.511719 C 165.011719 134.191406 165.542969 133.015625 166.40625 132.148438 C 167.269531 131.285156 168.445312 130.757812 169.761719 130.757812 C 171.082031 130.757812 172.253906 131.285156 173.117188 132.148438 C 173.980469 133.007812 174.507812 134.1875 174.507812 135.511719 L 177.914062 135.511719 C 177.914062 130.996094 174.265625 127.347656 169.761719 127.347656 C 165.261719 127.347656 161.605469 130.996094 161.605469 135.511719 C 161.605469 140.019531 165.261719 143.671875 169.761719 143.671875 C 174.265625 143.671875 177.914062 140.019531 177.914062 135.511719 L 176.210938 135.511719 " fill-opacity="1" fill-rule="nonzero"/><path fill="#ffffff" d="M 236.542969 130.636719 C 236.542969 134.203125 233.65625 137.089844 230.101562 137.089844 C 226.539062 137.089844 223.652344 134.203125 223.652344 130.636719 C 223.652344 127.0625 226.539062 124.179688 230.101562 124.179688 C 233.65625 124.179688 236.542969 127.0625 236.542969 130.636719 " fill-opacity="1" fill-rule="nonzero"/><path fill="#000000" d="M 236.542969 130.636719 L 234.839844 130.636719 C 234.839844 131.957031 234.3125 133.132812 233.453125 133.996094 C 232.585938 134.859375 231.414062 135.386719 230.101562 135.386719 C 228.785156 135.386719 227.605469 134.859375 226.742188 133.996094 C 225.882812 133.132812 225.355469 131.957031 225.355469 130.636719 C 225.355469 129.3125 225.882812 128.136719 226.742188 127.277344 C 227.605469 126.414062 228.78125 125.886719 230.101562 125.886719 C 231.414062 125.886719 232.585938 126.410156 233.449219 127.269531 C 234.3125 128.136719 234.839844 129.3125 234.839844 130.636719 L 238.246094 130.636719 C 238.246094 126.121094 234.597656 122.472656 230.101562 122.472656 C 225.601562 122.472656 221.949219 126.121094 221.945312 130.636719 C 221.949219 135.152344 225.597656 138.796875 230.101562 138.796875 C 234.597656 138.796875 238.246094 135.144531 238.246094 130.636719 L 236.542969 130.636719 " fill-opacity="1" fill-rule="nonzero"/><path fill="#ffffff" d="M 355.796875 165.980469 C 355.796875 169.546875 352.914062 172.433594 349.347656 172.433594 C 345.789062 172.433594 342.902344 169.546875 342.902344 165.980469 C 342.902344 162.414062 345.789062 159.523438 349.347656 159.523438 C 352.914062 159.523438 355.796875 162.414062 355.796875 165.980469 " fill-opacity="1" fill-rule="nonzero"/><path fill="#000000" d="M 355.796875 165.980469 L 354.09375 165.980469 C 354.09375 167.300781 353.566406 168.476562 352.707031 169.339844 C 351.847656 170.199219 350.667969 170.730469 349.347656 170.730469 C 348.03125 170.730469 346.855469 170.199219 345.992188 169.339844 C 345.132812 168.476562 344.605469 167.300781 344.605469 165.980469 C 344.605469 164.660156 345.132812 163.484375 345.996094 162.617188 C 346.855469 161.757812 348.03125 161.226562 349.347656 161.226562 C 351.976562 161.226562 354.09375 163.351562 354.09375 165.980469 L 357.5 165.980469 C 357.503906 163.734375 356.585938 161.679688 355.113281 160.207031 C 353.648438 158.730469 351.597656 157.816406 349.347656 157.816406 C 344.847656 157.816406 341.199219 161.472656 341.199219 165.980469 C 341.199219 170.488281 344.847656 174.140625 349.347656 174.140625 C 353.855469 174.140625 357.5 170.488281 357.5 165.980469 L 355.796875 165.980469 " fill-opacity="1" fill-rule="nonzero"/><path fill="#ffffff" d="M 244.210938 104.558594 C 244.210938 106.96875 242.261719 108.921875 239.855469 108.921875 C 237.457031 108.921875 235.5 106.96875 235.5 104.558594 C 235.5 102.148438 237.457031 100.199219 239.855469 100.199219 C 242.261719 100.199219 244.210938 102.148438 244.210938 104.558594 " fill-opacity="1" fill-rule="nonzero"/><path fill="#000000" d="M 244.210938 104.558594 L 242.507812 104.558594 C 242.507812 106.027344 241.320312 107.210938 239.855469 107.214844 C 239.125 107.210938 238.472656 106.917969 237.984375 106.433594 C 237.5 105.949219 237.207031 105.296875 237.203125 104.558594 C 237.207031 103.09375 238.398438 101.910156 239.855469 101.902344 C 241.324219 101.910156 242.507812 103.089844 242.507812 104.558594 L 245.914062 104.558594 C 245.914062 101.203125 243.199219 98.492188 239.855469 98.492188 C 236.515625 98.492188 233.804688 101.203125 233.796875 104.558594 C 233.804688 107.914062 236.515625 110.625 239.855469 110.628906 C 243.199219 110.625 245.914062 107.910156 245.914062 104.558594 L 244.210938 104.558594 " fill-opacity="1" fill-rule="nonzero"/><path fill="#ffffff" d="M 364.507812 148.710938 C 364.507812 151.128906 362.554688 153.074219 360.15625 153.074219 C 357.75 153.074219 355.796875 151.128906 355.796875 148.710938 C 355.796875 146.304688 357.75 144.359375 360.15625 144.359375 C 362.554688 144.359375 364.507812 146.304688 364.507812 148.710938 " fill-opacity="1" fill-rule="nonzero"/><path fill="#000000" d="M 364.507812 148.710938 L 362.804688 148.710938 C 362.804688 150.1875 361.617188 151.367188 360.15625 151.367188 C 358.683594 151.367188 357.503906 150.191406 357.5 148.710938 C 357.503906 147.246094 358.679688 146.070312 360.15625 146.0625 C 361.621094 146.0625 362.800781 147.246094 362.804688 148.710938 L 366.210938 148.710938 C 366.210938 147.042969 365.527344 145.511719 364.433594 144.425781 C 363.339844 143.332031 361.820312 142.652344 360.15625 142.652344 C 358.488281 142.652344 356.964844 143.332031 355.875 144.425781 C 354.777344 145.511719 354.09375 147.042969 354.09375 148.710938 C 354.09375 150.382812 354.773438 151.914062 355.867188 153.007812 C 356.964844 154.097656 358.488281 154.777344 360.15625 154.777344 C 361.820312 154.777344 363.339844 154.097656 364.4375 153.007812 C 365.527344 151.914062 366.210938 150.382812 366.210938 148.710938 L 364.507812 148.710938 " fill-opacity="1" fill-rule="nonzero"/><path fill="#ffffff" d="M 373.210938 186.132812 C 373.210938 188.546875 371.261719 190.492188 368.859375 190.492188 C 366.453125 190.492188 364.507812 188.546875 364.507812 186.132812 C 364.507812 183.722656 366.453125 181.777344 368.859375 181.777344 C 371.261719 181.777344 373.210938 183.722656 373.210938 186.132812 " fill-opacity="1" fill-rule="nonzero"/><path fill="#000000" d="M 373.210938 186.132812 L 371.507812 186.132812 C 371.507812 187.597656 370.320312 188.785156 368.859375 188.785156 C 367.394531 188.785156 366.210938 187.597656 366.210938 186.132812 C 366.210938 184.660156 367.394531 183.480469 368.859375 183.480469 C 370.328125 183.480469 371.507812 184.660156 371.507812 186.132812 L 374.914062 186.132812 C 374.917969 184.464844 374.234375 182.933594 373.136719 181.84375 C 372.046875 180.75 370.523438 180.070312 368.859375 180.070312 C 367.195312 180.070312 365.667969 180.75 364.578125 181.84375 C 363.484375 182.933594 362.804688 184.464844 362.804688 186.132812 C 362.804688 189.488281 365.515625 192.195312 368.859375 192.195312 C 372.203125 192.195312 374.914062 189.488281 374.914062 186.132812 L 373.210938 186.132812 " fill-opacity="1" fill-rule="nonzero"/></svg>