<svg xmlns="http://www.w3.org/2000/svg" xmlns:xlink="http://www.w3.org/1999/xlink" width="500" zoomAndPan="magnify" viewBox="0 0 375 374.999991" height="500" preserveAspectRatio="xMidYMid meet" version="1.0"><defs><clipPath id="86058822f3"><path d="M 100 31 L 269 31 L 269 351 L 100 351 Z M 100 31 " clip-rule="nonzero"/></clipPath><clipPath id="98e4cbf283"><path d="M 247.257812 101.453125 C 213.425781 67.59375 200.273438 56.3125 196.515625 37.507812 C 192.75 18.683594 183.238281 52.519531 183.238281 65.707031 L 183.238281 260.808594 C 171.140625 255.660156 156.25 254.75 141.484375 259.269531 C 112.207031 268.265625 94.503906 295.285156 101.980469 319.597656 C 109.433594 343.9375 139.234375 356.371094 168.507812 347.367188 C 197.769531 338.386719 215.441406 311.378906 208.011719 287.035156 L 208.011719 126 C 216.09375 133.726562 233.972656 151.140625 239.730469 159.757812 C 247.253906 171.050781 254.769531 204.898438 254.769531 214.308594 C 254.769531 223.726562 264.164062 219.949219 264.164062 208.65625 C 264.167969 197.386719 281.085938 135.308594 247.257812 101.453125 Z M 247.257812 101.453125 " clip-rule="nonzero"/></clipPath><linearGradient x1="14.034" gradientTransform="matrix(5.99016, 0, 0, 5.994671, 100.272844, 31.938259)" y1="54.100005" x2="14.034" gradientUnits="userSpaceOnUse" y2="-2.199997" id="e02d776b99"><stop stop-opacity="1" stop-color="rgb(0%, 0%, 0%)" offset="0"/><stop stop-opacity="1" stop-color="rgb(0.0839233%, 0.0839233%, 0.0839233%)" offset="0.03125"/><stop stop-opacity="1" stop-color="rgb(0.364685%, 0.364685%, 0.364685%)" offset="0.0625"/><stop stop-opacity="1" stop-color="rgb(0.657654%, 0.657654%, 0.657654%)" offset="0.078125"/><stop stop-opacity="1" stop-color="rgb(0.854492%, 0.854492%, 0.854492%)" offset="0.09375"/><stop stop-opacity="1" stop-color="rgb(1.147461%, 1.147461%, 1.147461%)" offset="0.125"/><stop stop-opacity="1" stop-color="rgb(1.538086%, 1.538086%, 1.538086%)" offset="0.15625"/><stop stop-opacity="1" stop-color="rgb(1.928711%, 1.928711%, 1.928711%)" offset="0.1875"/><stop stop-opacity="1" stop-color="rgb(2.319336%, 2.319336%, 2.319336%)" offset="0.21875"/><stop stop-opacity="1" stop-color="rgb(2.612305%, 2.612305%, 2.612305%)" offset="0.234375"/><stop stop-opacity="1" stop-color="rgb(2.807617%, 2.807617%, 2.807617%)" offset="0.25"/><stop stop-opacity="1" stop-color="rgb(3.102112%, 3.102112%, 3.102112%)" offset="0.28125"/><stop stop-opacity="1" stop-color="rgb(3.492737%, 3.492737%, 3.492737%)" offset="0.3125"/><stop stop-opacity="1" stop-color="rgb(3.883362%, 3.883362%, 3.883362%)" offset="0.34375"/><stop stop-opacity="1" stop-color="rgb(4.273987%, 4.273987%, 4.273987%)" offset="0.375"/><stop stop-opacity="1" stop-color="rgb(4.566956%, 4.566956%, 4.566956%)" offset="0.390625"/><stop stop-opacity="1" stop-color="rgb(4.762268%, 4.762268%, 4.762268%)" offset="0.40625"/><stop stop-opacity="1" stop-color="rgb(5.056763%, 5.056763%, 5.056763%)" offset="0.4375"/><stop stop-opacity="1" stop-color="rgb(5.447388%, 5.447388%, 5.447388%)" offset="0.46875"/><stop stop-opacity="1" stop-color="rgb(5.838013%, 5.838013%, 5.838013%)" offset="0.5"/><stop stop-opacity="1" stop-color="rgb(6.228638%, 6.228638%, 6.228638%)" offset="0.53125"/><stop stop-opacity="1" stop-color="rgb(6.619263%, 6.619263%, 6.619263%)" offset="0.5625"/><stop stop-opacity="1" stop-color="rgb(6.912231%, 6.912231%, 6.912231%)" offset="0.578125"/><stop stop-opacity="1" stop-color="rgb(7.10907%, 7.10907%, 7.10907%)" offset="0.59375"/><stop stop-opacity="1" stop-color="rgb(7.402039%, 7.402039%, 7.402039%)" offset="0.625"/><stop stop-opacity="1" stop-color="rgb(7.792664%, 7.792664%, 7.792664%)" offset="0.65625"/><stop stop-opacity="1" stop-color="rgb(8.183289%, 8.183289%, 8.183289%)" offset="0.6875"/><stop stop-opacity="1" stop-color="rgb(8.573914%, 8.573914%, 8.573914%)" offset="0.71875"/><stop stop-opacity="1" stop-color="rgb(8.866882%, 8.866882%, 8.866882%)" offset="0.734375"/><stop stop-opacity="1" stop-color="rgb(9.062195%, 9.062195%, 9.062195%)" offset="0.75"/><stop stop-opacity="1" stop-color="rgb(9.356689%, 9.356689%, 9.356689%)" offset="0.78125"/><stop stop-opacity="1" stop-color="rgb(9.747314%, 9.747314%, 9.747314%)" offset="0.8125"/><stop stop-opacity="1" stop-color="rgb(10.137939%, 10.137939%, 10.137939%)" offset="0.84375"/><stop stop-opacity="1" stop-color="rgb(10.528564%, 10.528564%, 10.528564%)" offset="0.875"/><stop stop-opacity="1" stop-color="rgb(10.821533%, 10.821533%, 10.821533%)" offset="0.890625"/><stop stop-opacity="1" stop-color="rgb(11.016846%, 11.016846%, 11.016846%)" offset="0.90625"/><stop stop-opacity="1" stop-color="rgb(11.31134%, 11.31134%, 11.31134%)" offset="0.9375"/><stop stop-opacity="1" stop-color="rgb(11.653137%, 11.653137%, 11.653137%)" offset="1"/></linearGradient></defs><g clip-path="url(#86058822f3)"><g clip-path="url(#98e4cbf283)"><path fill="url(#e02d776b99)" d="M 94.503906 18.75 L 94.503906 356.25 L 280.804688 356.25 L 280.804688 18.75 Z M 94.503906 18.75 " fill-rule="nonzero"/></g></g><path fill="#cad6dd" d="M 141.492188 278.3125 C 156.257812 273.789062 171.140625 274.699219 183.242188 279.847656 L 183.242188 268.480469 L 180.773438 267.433594 C 174.707031 264.855469 167.765625 263.488281 160.691406 263.488281 C 154.898438 263.488281 149.0625 264.382812 143.335938 266.121094 C 130.578125 270.035156 119.890625 277.804688 113.234375 287.964844 C 109.761719 293.269531 107.675781 298.875 106.929688 304.492188 C 113.9375 292.789062 126.074219 283.042969 141.492188 278.3125 Z M 141.492188 278.3125 " fill-opacity="1" fill-rule="nonzero"/><path fill="#cad6dd" d="M 247.257812 120.492188 C 252.226562 125.460938 256.070312 131.042969 259.058594 136.976562 C 256.292969 125.863281 251.328125 115.265625 242.800781 106.738281 C 239.171875 103.09375 235.777344 99.730469 232.621094 96.578125 C 213.871094 77.921875 202.675781 66.792969 196.308594 55.585938 C 196.378906 55.90625 196.449219 56.199219 196.515625 56.546875 C 200.273438 75.359375 213.425781 86.632812 247.257812 120.492188 Z M 247.257812 120.492188 " fill-opacity="1" fill-rule="nonzero"/></svg>