<svg xmlns="http://www.w3.org/2000/svg" xmlns:xlink="http://www.w3.org/1999/xlink" width="500" zoomAndPan="magnify" viewBox="0 0 375 374.999991" height="500" preserveAspectRatio="xMidYMid meet" version="1.0"><defs><clipPath id="6afe8e5d9e"><path d="M 149 52.96875 L 302 52.96875 L 302 274 L 149 274 Z M 149 52.96875 " clip-rule="nonzero"/></clipPath><clipPath id="27a5148754"><path d="M 149 52.96875 L 302 52.96875 L 302 274 L 149 274 Z M 149 52.96875 " clip-rule="nonzero"/></clipPath><clipPath id="b2e89444d5"><path d="M 73 52.96875 L 226 52.96875 L 226 274 L 73 274 Z M 73 52.96875 " clip-rule="nonzero"/></clipPath><clipPath id="3113fd3582"><path d="M 116 52.96875 L 256 52.96875 L 256 272 L 116 272 Z M 116 52.96875 " clip-rule="nonzero"/></clipPath></defs><path stroke-linecap="round" transform="matrix(3.029079, 0, 0, 3.03119, -28.86409, -106.562014)" fill-opacity="1" fill="#ffffff" fill-rule="nonzero" stroke-linejoin="miter" d="M 71.439324 115.337175 C 58.859437 124.325755 39.46797 141.389237 10.844375 118.64523 C 36.672153 92.993949 56.458232 105.821522 71.439324 115.337175 Z M 71.439324 115.337175 " stroke="#000000" stroke-width="1.751" stroke-opacity="1" stroke-miterlimit="4"/><path stroke-linecap="round" transform="matrix(3.029079, 0, 0, 3.03119, -28.86409, -106.562014)" fill-opacity="1" fill="#ffffff" fill-rule="nonzero" stroke-linejoin="miter" d="M 71.439324 115.337175 C 55.981086 115.574293 30.326112 118.578218 19.720578 83.591701 C 55.552945 77.184357 64.531025 98.990202 71.439324 115.337175 Z M 71.439324 115.337175 " stroke="#000000" stroke-width="1.751" stroke-opacity="1" stroke-miterlimit="4"/><path stroke-linecap="round" transform="matrix(3.029079, 0, 0, 3.03119, -28.86409, -106.562014)" fill-opacity="1" fill="#ffffff" fill-rule="nonzero" stroke-linejoin="miter" d="M 71.439324 115.337175 C 84.0205 124.325755 103.411967 141.389237 132.035563 118.64523 C 106.207784 92.993949 86.420415 105.821522 71.439324 115.337175 Z M 71.439324 115.337175 " stroke="#000000" stroke-width="1.751" stroke-opacity="1" stroke-miterlimit="4"/><path stroke-linecap="round" transform="matrix(3.029079, 0, 0, 3.03119, -28.86409, -106.562014)" fill-opacity="1" fill="#ffffff" fill-rule="nonzero" stroke-linejoin="miter" d="M 71.439324 115.337175 C 86.898851 115.574293 112.553825 118.578218 123.15936 83.591701 C 87.326993 77.184357 78.348912 98.990202 71.439324 115.337175 Z M 71.439324 115.337175 " stroke="#000000" stroke-width="1.751" stroke-opacity="1" stroke-miterlimit="4"/><path fill="#ffffff" d="M 187.53125 243.046875 C 226.582031 217.175781 295.847656 180.765625 262.5 75.09375 C 161.96875 120.414062 176.832031 190.328125 187.53125 243.046875 Z M 187.53125 243.046875 " fill-opacity="1" fill-rule="nonzero"/><g clip-path="url(#6afe8e5d9e)"><path stroke-linecap="round" transform="matrix(3.029079, 0, 0, 3.03119, -28.86409, -106.562014)" fill="none" stroke-linejoin="miter" d="M 71.439324 115.337175 C 84.33129 106.802212 107.198185 94.790376 96.18901 59.928861 C 63.000289 74.880188 67.907155 97.945078 71.439324 115.337175 Z M 71.439324 115.337175 " stroke="#000000" stroke-width="1.751" stroke-opacity="1" stroke-miterlimit="4"/></g><path fill="#ffffff" d="M 187.53125 243.046875 C 226.582031 217.175781 295.847656 180.765625 262.5 75.09375 C 161.96875 120.414062 176.832031 190.328125 187.53125 243.046875 Z M 187.53125 243.046875 " fill-opacity="1" fill-rule="nonzero"/><g clip-path="url(#27a5148754)"><path stroke-linecap="round" transform="matrix(3.029079, 0, 0, 3.03119, -28.86409, -106.562014)" fill="none" stroke-linejoin="miter" d="M 71.439324 115.337175 C 84.33129 106.802212 107.198185 94.790376 96.18901 59.928861 C 63.000289 74.880188 67.907155 97.945078 71.439324 115.337175 Z M 71.439324 115.337175 " stroke="#000000" stroke-width="1.751" stroke-opacity="1" stroke-miterlimit="4"/></g><path fill="#ffffff" d="M 187.53125 243.046875 C 148.484375 217.175781 79.21875 180.765625 112.566406 75.09375 C 213.097656 120.414062 198.230469 190.328125 187.53125 243.046875 Z M 187.53125 243.046875 " fill-opacity="1" fill-rule="nonzero"/><g clip-path="url(#b2e89444d5)"><path stroke-linecap="round" transform="matrix(3.029079, 0, 0, 3.03119, -28.86409, -106.562014)" fill="none" stroke-linejoin="miter" d="M 71.439324 115.337175 C 58.548647 106.802212 35.681753 94.790376 46.690927 59.928861 C 79.879648 74.880188 74.971493 97.945078 71.439324 115.337175 Z M 71.439324 115.337175 " stroke="#000000" stroke-width="1.751" stroke-opacity="1" stroke-miterlimit="4"/></g><path fill="#ffffff" d="M 187.859375 241.089844 C 212.503906 201.238281 260.1875 139.164062 185.710938 57.152344 C 113.355469 140.414062 156.09375 197.6875 187.859375 241.089844 Z M 187.859375 241.089844 " fill-opacity="1" fill-rule="nonzero"/><g clip-path="url(#3113fd3582)"><path stroke-linecap="round" transform="matrix(3.029079, 0, 0, 3.03119, -28.86409, -106.562014)" fill="none" stroke-linejoin="miter" d="M 71.547649 114.691543 C 79.683631 101.544376 95.425577 81.065878 70.838378 54.00993 C 46.951423 81.478257 61.060756 100.372961 71.547649 114.691543 Z M 71.547649 114.691543 " stroke="#000000" stroke-width="1.751" stroke-opacity="1" stroke-miterlimit="4"/></g></svg>