<svg xmlns="http://www.w3.org/2000/svg" xmlns:xlink="http://www.w3.org/1999/xlink" width="500" zoomAndPan="magnify" viewBox="0 0 375 374.999991" height="500" preserveAspectRatio="xMidYMid meet" version="1.0"><defs><clipPath id="d0da93b3dc"><path d="M 37.5 162 L 337.5 162 L 337.5 337.5 L 37.5 337.5 Z M 37.5 162 " clip-rule="nonzero"/></clipPath><clipPath id="e8f90090c2"><path d="M 233 224 L 337.5 224 L 337.5 276 L 233 276 Z M 233 224 " clip-rule="nonzero"/></clipPath><clipPath id="12d40ac057"><path d="M 74 68.25 L 317 68.25 L 317 168 L 74 168 Z M 74 68.25 " clip-rule="nonzero"/></clipPath></defs><path fill="#6e8a93" d="M 335.285156 182.398438 L 335.285156 318.015625 C 335.285156 318.582031 335.253906 319.144531 335.199219 319.707031 C 335.144531 320.265625 335.0625 320.824219 334.953125 321.378906 C 334.84375 321.933594 334.707031 322.480469 334.542969 323.019531 C 334.378906 323.558594 334.1875 324.089844 333.972656 324.613281 C 333.757812 325.136719 333.515625 325.644531 333.25 326.140625 C 332.984375 326.640625 332.691406 327.125 332.378906 327.59375 C 332.066406 328.0625 331.730469 328.515625 331.371094 328.953125 C 331.011719 329.390625 330.636719 329.808594 330.234375 330.207031 C 329.835938 330.605469 329.417969 330.984375 328.980469 331.34375 C 328.546875 331.699219 328.09375 332.035156 327.625 332.351562 C 327.152344 332.664062 326.671875 332.953125 326.171875 333.21875 C 325.675781 333.488281 325.164062 333.726562 324.644531 333.945312 C 324.121094 334.160156 323.589844 334.351562 323.050781 334.515625 C 322.511719 334.675781 321.964844 334.816406 321.410156 334.925781 C 320.855469 335.035156 320.296875 335.117188 319.734375 335.171875 C 319.175781 335.230469 318.609375 335.257812 318.046875 335.257812 L 56.953125 335.257812 C 56.390625 335.257812 55.824219 335.226562 55.265625 335.171875 C 54.703125 335.117188 54.144531 335.035156 53.589844 334.925781 C 53.035156 334.8125 52.488281 334.675781 51.949219 334.511719 C 51.410156 334.347656 50.878906 334.160156 50.355469 333.941406 C 49.835938 333.726562 49.324219 333.484375 48.828125 333.21875 C 48.328125 332.953125 47.847656 332.664062 47.375 332.351562 C 46.90625 332.035156 46.453125 331.699219 46.019531 331.34375 C 45.582031 330.984375 45.164062 330.605469 44.765625 330.207031 C 44.367188 329.804688 43.988281 329.386719 43.628906 328.953125 C 43.269531 328.515625 42.933594 328.0625 42.621094 327.59375 C 42.308594 327.125 42.019531 326.640625 41.75 326.140625 C 41.484375 325.644531 41.246094 325.132812 41.027344 324.613281 C 40.8125 324.089844 40.621094 323.558594 40.457031 323.019531 C 40.292969 322.480469 40.15625 321.933594 40.046875 321.378906 C 39.9375 320.824219 39.855469 320.265625 39.800781 319.707031 C 39.746094 319.144531 39.714844 318.582031 39.714844 318.015625 L 39.714844 182.398438 C 39.71875 181.835938 39.746094 181.269531 39.800781 180.710938 C 39.855469 180.148438 39.9375 179.589844 40.046875 179.035156 C 40.160156 178.484375 40.296875 177.933594 40.460938 177.394531 C 40.625 176.855469 40.8125 176.324219 41.03125 175.804688 C 41.246094 175.28125 41.488281 174.773438 41.753906 174.273438 C 42.019531 173.777344 42.308594 173.292969 42.621094 172.824219 C 42.9375 172.355469 43.273438 171.902344 43.628906 171.464844 C 43.988281 171.027344 44.367188 170.609375 44.765625 170.210938 C 45.164062 169.8125 45.582031 169.433594 46.019531 169.074219 C 46.457031 168.71875 46.910156 168.382812 47.378906 168.066406 C 47.847656 167.753906 48.332031 167.464844 48.828125 167.199219 C 49.328125 166.933594 49.835938 166.691406 50.359375 166.472656 C 50.878906 166.257812 51.410156 166.070312 51.949219 165.90625 C 52.492188 165.742188 53.039062 165.605469 53.589844 165.492188 C 54.144531 165.382812 54.703125 165.300781 55.265625 165.246094 C 55.824219 165.191406 56.390625 165.160156 56.953125 165.160156 L 318.046875 165.160156 C 318.609375 165.160156 319.171875 165.191406 319.734375 165.246094 C 320.296875 165.300781 320.855469 165.382812 321.40625 165.492188 C 321.960938 165.601562 322.507812 165.738281 323.050781 165.902344 C 323.589844 166.066406 324.121094 166.257812 324.640625 166.472656 C 325.164062 166.691406 325.671875 166.929688 326.171875 167.195312 C 326.667969 167.460938 327.152344 167.753906 327.621094 168.066406 C 328.089844 168.378906 328.542969 168.714844 328.980469 169.074219 C 329.417969 169.433594 329.835938 169.8125 330.234375 170.210938 C 330.632812 170.609375 331.011719 171.027344 331.371094 171.464844 C 331.726562 171.898438 332.0625 172.351562 332.378906 172.820312 C 332.691406 173.292969 332.980469 173.773438 333.246094 174.273438 C 333.515625 174.769531 333.753906 175.28125 333.972656 175.800781 C 334.1875 176.324219 334.378906 176.855469 334.539062 177.394531 C 334.703125 177.933594 334.84375 178.480469 334.953125 179.035156 C 335.0625 179.589844 335.144531 180.148438 335.199219 180.710938 C 335.253906 181.269531 335.28125 181.835938 335.285156 182.398438 Z M 335.285156 182.398438 " fill-opacity="1" fill-rule="nonzero"/><g clip-path="url(#d0da93b3dc)"><path fill="#000000" d="M 318.046875 337.472656 L 56.953125 337.472656 C 56.316406 337.472656 55.679688 337.441406 55.046875 337.378906 C 54.414062 337.3125 53.785156 337.21875 53.160156 337.09375 C 52.535156 336.96875 51.917969 336.816406 51.308594 336.628906 C 50.699219 336.445312 50.101562 336.230469 49.511719 335.984375 C 48.921875 335.742188 48.347656 335.46875 47.785156 335.167969 C 47.226562 334.867188 46.679688 334.539062 46.148438 334.1875 C 45.621094 333.832031 45.109375 333.453125 44.617188 333.050781 C 44.125 332.644531 43.652344 332.21875 43.203125 331.765625 C 42.753906 331.316406 42.324219 330.84375 41.921875 330.351562 C 41.519531 329.859375 41.140625 329.347656 40.785156 328.820312 C 40.429688 328.289062 40.101562 327.746094 39.804688 327.183594 C 39.503906 326.621094 39.230469 326.046875 38.984375 325.457031 C 38.742188 324.871094 38.527344 324.269531 38.34375 323.660156 C 38.15625 323.050781 38.003906 322.433594 37.878906 321.808594 C 37.753906 321.183594 37.660156 320.554688 37.59375 319.921875 C 37.53125 319.289062 37.5 318.652344 37.5 318.015625 L 37.5 182.398438 C 37.5 181.761719 37.53125 181.125 37.59375 180.492188 C 37.660156 179.859375 37.753906 179.230469 37.878906 178.605469 C 38.003906 177.980469 38.15625 177.363281 38.34375 176.753906 C 38.527344 176.144531 38.742188 175.546875 38.988281 174.957031 C 39.230469 174.371094 39.503906 173.792969 39.804688 173.234375 C 40.105469 172.671875 40.429688 172.125 40.785156 171.597656 C 41.140625 171.066406 41.519531 170.554688 41.921875 170.0625 C 42.328125 169.570312 42.753906 169.101562 43.203125 168.648438 C 43.65625 168.199219 44.125 167.773438 44.617188 167.367188 C 45.109375 166.964844 45.621094 166.585938 46.152344 166.230469 C 46.679688 165.875 47.226562 165.550781 47.789062 165.25 C 48.347656 164.949219 48.925781 164.675781 49.511719 164.433594 C 50.101562 164.1875 50.699219 163.972656 51.308594 163.789062 C 51.917969 163.601562 52.535156 163.449219 53.160156 163.324219 C 53.785156 163.199219 54.414062 163.105469 55.046875 163.039062 C 55.679688 162.976562 56.316406 162.945312 56.953125 162.945312 L 318.046875 162.945312 C 318.683594 162.945312 319.316406 162.976562 319.953125 163.039062 C 320.585938 163.105469 321.214844 163.199219 321.839844 163.324219 C 322.464844 163.449219 323.082031 163.601562 323.691406 163.789062 C 324.300781 163.972656 324.898438 164.1875 325.488281 164.433594 C 326.074219 164.675781 326.648438 164.949219 327.210938 165.25 C 327.773438 165.550781 328.320312 165.875 328.847656 166.230469 C 329.378906 166.585938 329.886719 166.964844 330.378906 167.367188 C 330.871094 167.773438 331.34375 168.199219 331.792969 168.648438 C 332.246094 169.101562 332.671875 169.570312 333.078125 170.0625 C 333.480469 170.554688 333.859375 171.066406 334.214844 171.597656 C 334.566406 172.125 334.894531 172.671875 335.195312 173.234375 C 335.496094 173.792969 335.769531 174.371094 336.011719 174.957031 C 336.257812 175.546875 336.472656 176.144531 336.65625 176.753906 C 336.839844 177.363281 336.996094 177.980469 337.121094 178.605469 C 337.246094 179.230469 337.339844 179.859375 337.402344 180.492188 C 337.464844 181.125 337.5 181.761719 337.5 182.398438 L 337.5 318.015625 C 337.5 318.652344 337.464844 319.289062 337.402344 319.921875 C 337.339844 320.554688 337.246094 321.183594 337.121094 321.808594 C 336.996094 322.433594 336.84375 323.050781 336.65625 323.660156 C 336.472656 324.269531 336.257812 324.871094 336.011719 325.457031 C 335.769531 326.046875 335.496094 326.621094 335.195312 327.183594 C 334.894531 327.746094 334.566406 328.289062 334.214844 328.820312 C 333.859375 329.347656 333.480469 329.859375 333.078125 330.351562 C 332.671875 330.84375 332.246094 331.316406 331.796875 331.765625 C 331.34375 332.21875 330.875 332.644531 330.382812 333.050781 C 329.890625 333.453125 329.378906 333.832031 328.847656 334.1875 C 328.320312 334.539062 327.773438 334.867188 327.210938 335.167969 C 326.652344 335.46875 326.074219 335.742188 325.488281 335.984375 C 324.898438 336.230469 324.300781 336.445312 323.691406 336.628906 C 323.082031 336.816406 322.464844 336.96875 321.839844 337.09375 C 321.214844 337.21875 320.585938 337.3125 319.953125 337.378906 C 319.316406 337.441406 318.683594 337.472656 318.046875 337.472656 Z M 56.953125 167.378906 C 55.96875 167.378906 54.992188 167.476562 54.023438 167.671875 C 53.058594 167.863281 52.117188 168.148438 51.207031 168.527344 C 50.296875 168.90625 49.433594 169.367188 48.613281 169.914062 C 47.792969 170.464844 47.035156 171.085938 46.335938 171.78125 C 45.640625 172.480469 45.019531 173.238281 44.46875 174.058594 C 43.921875 174.878906 43.460938 175.742188 43.082031 176.652344 C 42.703125 177.5625 42.417969 178.503906 42.226562 179.46875 C 42.03125 180.4375 41.933594 181.414062 41.933594 182.398438 L 41.933594 318.015625 C 41.933594 319 42.03125 319.976562 42.226562 320.945312 C 42.417969 321.914062 42.703125 322.851562 43.082031 323.761719 C 43.457031 324.671875 43.921875 325.539062 44.46875 326.359375 C 45.015625 327.175781 45.640625 327.9375 46.335938 328.632812 C 47.035156 329.332031 47.792969 329.953125 48.613281 330.5 C 49.433594 331.050781 50.296875 331.511719 51.207031 331.890625 C 52.117188 332.269531 53.058594 332.554688 54.023438 332.746094 C 54.992188 332.941406 55.96875 333.039062 56.953125 333.039062 L 318.046875 333.039062 C 319.03125 333.039062 320.007812 332.941406 320.976562 332.746094 C 321.941406 332.554688 322.878906 332.269531 323.792969 331.890625 C 324.703125 331.511719 325.566406 331.050781 326.386719 330.5 C 327.207031 329.953125 327.964844 329.332031 328.660156 328.632812 C 329.359375 327.9375 329.980469 327.175781 330.53125 326.359375 C 331.078125 325.539062 331.539062 324.671875 331.917969 323.761719 C 332.296875 322.851562 332.582031 321.914062 332.773438 320.945312 C 332.96875 319.976562 333.066406 319 333.066406 318.015625 L 333.066406 182.398438 C 333.0625 181.414062 332.96875 180.4375 332.773438 179.46875 C 332.582031 178.503906 332.296875 177.5625 331.917969 176.652344 C 331.539062 175.742188 331.078125 174.878906 330.527344 174.058594 C 329.980469 173.238281 329.359375 172.480469 328.660156 171.78125 C 327.964844 171.085938 327.207031 170.464844 326.386719 169.914062 C 325.566406 169.367188 324.703125 168.90625 323.789062 168.527344 C 322.878906 168.148438 321.941406 167.863281 320.972656 167.671875 C 320.007812 167.476562 319.03125 167.378906 318.046875 167.378906 Z M 56.953125 167.378906 " fill-opacity="1" fill-rule="nonzero"/></g><path fill="#6e8a93" d="M 254.933594 226.734375 L 335.285156 226.734375 L 335.285156 273.679688 L 254.933594 273.679688 C 254.289062 273.679688 253.648438 273.648438 253.007812 273.585938 C 252.367188 273.523438 251.730469 273.429688 251.097656 273.304688 C 250.464844 273.179688 249.84375 273.023438 249.226562 272.835938 C 248.609375 272.648438 248.003906 272.429688 247.410156 272.183594 C 246.8125 271.9375 246.234375 271.664062 245.664062 271.359375 C 245.097656 271.054688 244.542969 270.726562 244.007812 270.367188 C 243.472656 270.007812 242.957031 269.625 242.460938 269.21875 C 241.960938 268.808594 241.484375 268.375 241.027344 267.921875 C 240.574219 267.464844 240.140625 266.988281 239.734375 266.492188 C 239.324219 265.992188 238.941406 265.476562 238.582031 264.941406 C 238.226562 264.40625 237.894531 263.855469 237.589844 263.285156 C 237.289062 262.71875 237.011719 262.136719 236.765625 261.542969 C 236.519531 260.945312 236.304688 260.339844 236.117188 259.722656 C 235.929688 259.109375 235.773438 258.484375 235.648438 257.851562 C 235.519531 257.21875 235.425781 256.585938 235.363281 255.941406 C 235.300781 255.300781 235.269531 254.660156 235.269531 254.015625 L 235.269531 246.402344 C 235.269531 245.757812 235.300781 245.113281 235.363281 244.472656 C 235.425781 243.832031 235.519531 243.195312 235.648438 242.566406 C 235.773438 241.933594 235.929688 241.308594 236.117188 240.691406 C 236.304688 240.078125 236.519531 239.472656 236.765625 238.875 C 237.011719 238.28125 237.289062 237.699219 237.589844 237.132812 C 237.894531 236.5625 238.226562 236.011719 238.582031 235.476562 C 238.941406 234.941406 239.324219 234.421875 239.734375 233.925781 C 240.140625 233.429688 240.574219 232.953125 241.027344 232.496094 C 241.484375 232.039062 241.960938 231.609375 242.460938 231.199219 C 242.957031 230.792969 243.472656 230.40625 244.007812 230.050781 C 244.542969 229.691406 245.097656 229.363281 245.664062 229.058594 C 246.234375 228.753906 246.8125 228.480469 247.410156 228.234375 C 248.003906 227.988281 248.609375 227.769531 249.226562 227.582031 C 249.84375 227.394531 250.464844 227.238281 251.097656 227.113281 C 251.730469 226.988281 252.367188 226.894531 253.007812 226.832031 C 253.648438 226.769531 254.289062 226.734375 254.933594 226.734375 Z M 254.933594 226.734375 " fill-opacity="1" fill-rule="nonzero"/><g clip-path="url(#e8f90090c2)"><path fill="#000000" d="M 335.285156 275.898438 L 254.933594 275.898438 C 254.21875 275.898438 253.503906 275.863281 252.789062 275.789062 C 252.078125 275.71875 251.371094 275.613281 250.667969 275.472656 C 249.964844 275.332031 249.269531 275.160156 248.585938 274.949219 C 247.898438 274.742188 247.226562 274.5 246.566406 274.226562 C 245.902344 273.953125 245.257812 273.644531 244.625 273.308594 C 243.992188 272.96875 243.378906 272.601562 242.785156 272.203125 C 242.1875 271.804688 241.613281 271.378906 241.058594 270.921875 C 240.503906 270.46875 239.976562 269.988281 239.46875 269.480469 C 238.960938 268.976562 238.480469 268.445312 238.027344 267.890625 C 237.574219 267.335938 237.144531 266.761719 236.746094 266.167969 C 236.351562 265.570312 235.980469 264.957031 235.644531 264.324219 C 235.304688 263.695312 235 263.046875 234.726562 262.386719 C 234.449219 261.722656 234.207031 261.050781 234 260.363281 C 233.792969 259.679688 233.617188 258.984375 233.476562 258.28125 C 233.335938 257.582031 233.230469 256.871094 233.160156 256.160156 C 233.089844 255.445312 233.054688 254.730469 233.050781 254.015625 L 233.050781 246.402344 C 233.054688 245.683594 233.089844 244.96875 233.160156 244.257812 C 233.230469 243.542969 233.335938 242.835938 233.476562 242.132812 C 233.617188 241.433594 233.792969 240.738281 234 240.050781 C 234.207031 239.367188 234.449219 238.691406 234.726562 238.03125 C 235 237.371094 235.304688 236.722656 235.644531 236.089844 C 235.980469 235.460938 236.347656 234.847656 236.746094 234.25 C 237.144531 233.65625 237.574219 233.078125 238.027344 232.527344 C 238.480469 231.972656 238.960938 231.441406 239.46875 230.9375 C 239.976562 230.429688 240.503906 229.949219 241.058594 229.492188 C 241.613281 229.039062 242.1875 228.613281 242.785156 228.214844 C 243.378906 227.816406 243.992188 227.449219 244.625 227.109375 C 245.257812 226.773438 245.902344 226.464844 246.566406 226.191406 C 247.226562 225.917969 247.898438 225.675781 248.585938 225.46875 C 249.269531 225.257812 249.964844 225.085938 250.667969 224.945312 C 251.371094 224.804688 252.078125 224.699219 252.789062 224.625 C 253.503906 224.554688 254.21875 224.519531 254.933594 224.519531 L 335.285156 224.519531 C 335.578125 224.519531 335.859375 224.574219 336.132812 224.6875 C 336.402344 224.800781 336.644531 224.960938 336.851562 225.167969 C 337.058594 225.375 337.21875 225.617188 337.332031 225.886719 C 337.445312 226.160156 337.5 226.441406 337.5 226.734375 L 337.5 273.679688 C 337.5 273.976562 337.445312 274.257812 337.332031 274.53125 C 337.21875 274.800781 337.058594 275.042969 336.851562 275.25 C 336.644531 275.457031 336.402344 275.617188 336.132812 275.730469 C 335.859375 275.84375 335.578125 275.898438 335.285156 275.898438 Z M 254.933594 228.953125 C 254.363281 228.953125 253.792969 228.980469 253.226562 229.039062 C 252.65625 229.09375 252.09375 229.179688 251.53125 229.292969 C 250.972656 229.402344 250.417969 229.542969 249.871094 229.707031 C 249.324219 229.875 248.789062 230.066406 248.261719 230.285156 C 247.734375 230.503906 247.21875 230.75 246.714844 231.019531 C 246.210938 231.289062 245.71875 231.582031 245.246094 231.898438 C 244.769531 232.21875 244.3125 232.558594 243.871094 232.917969 C 243.429688 233.28125 243.007812 233.664062 242.601562 234.070312 C 242.199219 234.472656 241.816406 234.894531 241.453125 235.335938 C 241.089844 235.777344 240.75 236.238281 240.433594 236.710938 C 240.113281 237.1875 239.820312 237.675781 239.550781 238.179688 C 239.28125 238.683594 239.039062 239.199219 238.820312 239.726562 C 238.601562 240.253906 238.40625 240.792969 238.242188 241.339844 C 238.074219 241.886719 237.9375 242.4375 237.824219 243 C 237.710938 243.558594 237.628906 244.125 237.570312 244.691406 C 237.515625 245.261719 237.488281 245.832031 237.484375 246.402344 L 237.484375 254.015625 C 237.488281 254.585938 237.515625 255.15625 237.570312 255.726562 C 237.628906 256.292969 237.710938 256.859375 237.824219 257.417969 C 237.9375 257.980469 238.074219 258.53125 238.242188 259.078125 C 238.40625 259.625 238.601562 260.164062 238.820312 260.691406 C 239.039062 261.21875 239.28125 261.734375 239.550781 262.238281 C 239.820312 262.742188 240.113281 263.230469 240.433594 263.707031 C 240.75 264.179688 241.089844 264.636719 241.453125 265.078125 C 241.816406 265.523438 242.199219 265.945312 242.601562 266.347656 C 243.007812 266.753906 243.429688 267.136719 243.871094 267.5 C 244.3125 267.859375 244.769531 268.199219 245.246094 268.519531 C 245.71875 268.835938 246.210938 269.128906 246.714844 269.398438 C 247.214844 269.667969 247.734375 269.914062 248.261719 270.132812 C 248.789062 270.351562 249.324219 270.542969 249.871094 270.710938 C 250.417969 270.875 250.972656 271.015625 251.53125 271.125 C 252.09375 271.238281 252.65625 271.324219 253.226562 271.378906 C 253.792969 271.433594 254.363281 271.464844 254.933594 271.464844 L 333.066406 271.464844 L 333.066406 228.953125 Z M 254.933594 228.953125 " fill-opacity="1" fill-rule="nonzero"/></g><path fill="#6e8a93" d="M 173.042969 250.207031 C 173.042969 251.882812 172.960938 253.550781 172.796875 255.214844 C 172.632812 256.882812 172.386719 258.535156 172.058594 260.175781 C 171.734375 261.816406 171.328125 263.4375 170.839844 265.039062 C 170.355469 266.640625 169.792969 268.210938 169.152344 269.757812 C 168.511719 271.304688 167.796875 272.8125 167.007812 274.289062 C 166.21875 275.765625 165.363281 277.199219 164.433594 278.589844 C 163.503906 279.980469 162.507812 281.324219 161.445312 282.617188 C 160.382812 283.910156 159.261719 285.148438 158.078125 286.332031 C 156.894531 287.515625 155.65625 288.636719 154.363281 289.699219 C 153.070312 290.757812 151.730469 291.753906 150.335938 292.683594 C 148.945312 293.613281 147.511719 294.472656 146.039062 295.261719 C 144.5625 296.050781 143.050781 296.765625 141.507812 297.40625 C 139.960938 298.042969 138.386719 298.609375 136.785156 299.09375 C 135.183594 299.578125 133.5625 299.984375 131.921875 300.3125 C 130.28125 300.636719 128.628906 300.882812 126.964844 301.046875 C 125.300781 301.210938 123.628906 301.292969 121.957031 301.292969 C 120.285156 301.292969 118.613281 301.210938 116.949219 301.046875 C 115.285156 300.882812 113.632812 300.636719 111.992188 300.3125 C 110.351562 299.984375 108.730469 299.578125 107.128906 299.09375 C 105.527344 298.609375 103.953125 298.042969 102.40625 297.40625 C 100.863281 296.765625 99.351562 296.050781 97.875 295.261719 C 96.402344 294.472656 94.96875 293.613281 93.574219 292.683594 C 92.183594 291.753906 90.84375 290.757812 89.550781 289.699219 C 88.257812 288.636719 87.019531 287.515625 85.835938 286.332031 C 84.652344 285.148438 83.53125 283.910156 82.46875 282.617188 C 81.40625 281.324219 80.410156 279.980469 79.480469 278.589844 C 78.550781 277.199219 77.691406 275.765625 76.90625 274.289062 C 76.117188 272.8125 75.402344 271.304688 74.761719 269.757812 C 74.121094 268.210938 73.558594 266.640625 73.074219 265.039062 C 72.585938 263.4375 72.179688 261.816406 71.855469 260.175781 C 71.527344 258.535156 71.28125 256.882812 71.117188 255.214844 C 70.953125 253.550781 70.871094 251.882812 70.871094 250.207031 C 70.871094 248.535156 70.953125 246.867188 71.117188 245.203125 C 71.28125 243.535156 71.527344 241.882812 71.855469 240.242188 C 72.179688 238.601562 72.585938 236.980469 73.074219 235.378906 C 73.558594 233.777344 74.121094 232.207031 74.761719 230.660156 C 75.402344 229.113281 76.117188 227.601562 76.90625 226.128906 C 77.691406 224.652344 78.550781 223.21875 79.480469 221.828125 C 80.410156 220.4375 81.40625 219.09375 82.46875 217.800781 C 83.53125 216.507812 84.652344 215.269531 85.835938 214.085938 C 87.019531 212.902344 88.257812 211.78125 89.550781 210.71875 C 90.84375 209.660156 92.183594 208.664062 93.574219 207.734375 C 94.96875 206.804688 96.402344 205.945312 97.875 205.15625 C 99.351562 204.367188 100.863281 203.652344 102.40625 203.011719 C 103.953125 202.371094 105.527344 201.808594 107.128906 201.324219 C 108.730469 200.839844 110.351562 200.433594 111.992188 200.105469 C 113.632812 199.78125 115.285156 199.535156 116.949219 199.371094 C 118.613281 199.207031 120.285156 199.125 121.957031 199.125 C 123.628906 199.125 125.300781 199.207031 126.964844 199.371094 C 128.628906 199.535156 130.28125 199.78125 131.921875 200.105469 C 133.5625 200.433594 135.183594 200.839844 136.785156 201.324219 C 138.386719 201.808594 139.960938 202.371094 141.507812 203.011719 C 143.050781 203.652344 144.5625 204.367188 146.039062 205.15625 C 147.511719 205.945312 148.945312 206.804688 150.335938 207.734375 C 151.730469 208.664062 153.070312 209.660156 154.363281 210.71875 C 155.65625 211.78125 156.894531 212.902344 158.078125 214.085938 C 159.261719 215.269531 160.382812 216.507812 161.445312 217.800781 C 162.507812 219.09375 163.503906 220.4375 164.433594 221.828125 C 165.363281 223.21875 166.21875 224.652344 167.007812 226.128906 C 167.796875 227.601562 168.511719 229.113281 169.152344 230.660156 C 169.792969 232.207031 170.355469 233.777344 170.839844 235.378906 C 171.328125 236.980469 171.734375 238.601562 172.058594 240.242188 C 172.386719 241.882812 172.632812 243.535156 172.796875 245.203125 C 172.960938 246.867188 173.042969 248.535156 173.042969 250.207031 Z M 173.042969 250.207031 " fill-opacity="1" fill-rule="nonzero"/><path fill="#000000" d="M 121.957031 303.507812 C 92.566406 303.507812 68.65625 279.597656 68.65625 250.207031 C 68.65625 220.820312 92.566406 196.90625 121.957031 196.90625 C 151.347656 196.90625 175.257812 220.820312 175.257812 250.207031 C 175.257812 279.597656 151.347656 303.507812 121.957031 303.507812 Z M 121.957031 201.339844 C 95.011719 201.339844 73.089844 223.261719 73.089844 250.207031 C 73.089844 277.15625 95.011719 299.078125 121.957031 299.078125 C 148.902344 299.078125 170.824219 277.15625 170.824219 250.207031 C 170.824219 223.261719 148.902344 201.339844 121.957031 201.339844 Z M 121.957031 201.339844 " fill-opacity="1" fill-rule="nonzero"/><path fill="#6e8a93" d="M 270.308594 250.207031 C 270.308594 250.644531 270.265625 251.074219 270.179688 251.503906 C 270.097656 251.929688 269.96875 252.34375 269.804688 252.746094 C 269.636719 253.148438 269.433594 253.53125 269.191406 253.894531 C 268.949219 254.257812 268.671875 254.589844 268.367188 254.898438 C 268.058594 255.207031 267.722656 255.484375 267.359375 255.722656 C 266.996094 255.964844 266.617188 256.171875 266.214844 256.335938 C 265.8125 256.503906 265.394531 256.628906 264.96875 256.714844 C 264.542969 256.800781 264.109375 256.84375 263.675781 256.84375 C 263.238281 256.84375 262.808594 256.800781 262.378906 256.714844 C 261.953125 256.628906 261.539062 256.503906 261.136719 256.335938 C 260.734375 256.171875 260.351562 255.964844 259.988281 255.722656 C 259.625 255.484375 259.292969 255.207031 258.984375 254.898438 C 258.675781 254.589844 258.402344 254.257812 258.160156 253.894531 C 257.917969 253.53125 257.710938 253.148438 257.546875 252.746094 C 257.378906 252.34375 257.253906 251.929688 257.167969 251.503906 C 257.082031 251.074219 257.039062 250.644531 257.039062 250.207031 C 257.039062 249.773438 257.082031 249.339844 257.167969 248.914062 C 257.253906 248.488281 257.378906 248.074219 257.546875 247.671875 C 257.710938 247.269531 257.917969 246.886719 258.160156 246.523438 C 258.402344 246.160156 258.675781 245.824219 258.984375 245.519531 C 259.292969 245.210938 259.625 244.933594 259.988281 244.691406 C 260.351562 244.449219 260.734375 244.246094 261.136719 244.078125 C 261.539062 243.914062 261.953125 243.789062 262.378906 243.703125 C 262.808594 243.617188 263.238281 243.574219 263.675781 243.574219 C 264.109375 243.574219 264.542969 243.617188 264.96875 243.703125 C 265.394531 243.789062 265.8125 243.914062 266.214844 244.078125 C 266.617188 244.246094 266.996094 244.449219 267.359375 244.691406 C 267.722656 244.933594 268.058594 245.210938 268.367188 245.519531 C 268.671875 245.824219 268.949219 246.160156 269.191406 246.523438 C 269.433594 246.886719 269.636719 247.269531 269.804688 247.671875 C 269.96875 248.074219 270.097656 248.488281 270.179688 248.914062 C 270.265625 249.339844 270.308594 249.773438 270.308594 250.207031 Z M 270.308594 250.207031 " fill-opacity="1" fill-rule="nonzero"/><path fill="#000000" d="M 263.675781 259.058594 C 263.09375 259.058594 262.519531 259.003906 261.949219 258.890625 C 261.378906 258.777344 260.824219 258.609375 260.289062 258.386719 C 259.75 258.164062 259.242188 257.890625 258.757812 257.566406 C 258.273438 257.246094 257.828125 256.878906 257.417969 256.464844 C 257.003906 256.054688 256.636719 255.609375 256.316406 255.125 C 255.992188 254.640625 255.71875 254.132812 255.496094 253.59375 C 255.273438 253.058594 255.105469 252.503906 254.992188 251.933594 C 254.878906 251.363281 254.824219 250.789062 254.824219 250.207031 C 254.824219 249.628906 254.878906 249.050781 254.992188 248.480469 C 255.105469 247.910156 255.273438 247.359375 255.496094 246.820312 C 255.71875 246.285156 255.992188 245.773438 256.316406 245.292969 C 256.636719 244.808594 257.003906 244.359375 257.414062 243.949219 C 257.828125 243.539062 258.273438 243.171875 258.757812 242.847656 C 259.242188 242.527344 259.75 242.253906 260.289062 242.03125 C 260.824219 241.808594 261.378906 241.640625 261.949219 241.527344 C 262.515625 241.414062 263.09375 241.359375 263.675781 241.359375 C 264.253906 241.359375 264.832031 241.414062 265.402344 241.527344 C 265.972656 241.640625 266.523438 241.808594 267.0625 242.03125 C 267.597656 242.253906 268.109375 242.527344 268.589844 242.851562 C 269.074219 243.171875 269.523438 243.539062 269.933594 243.949219 C 270.34375 244.359375 270.710938 244.808594 271.03125 245.292969 C 271.355469 245.773438 271.628906 246.285156 271.851562 246.820312 C 272.074219 247.359375 272.242188 247.914062 272.355469 248.480469 C 272.46875 249.050781 272.523438 249.628906 272.523438 250.207031 C 272.523438 250.789062 272.46875 251.363281 272.351562 251.933594 C 272.238281 252.503906 272.070312 253.058594 271.847656 253.59375 C 271.625 254.128906 271.351562 254.640625 271.03125 255.125 C 270.707031 255.605469 270.339844 256.054688 269.929688 256.464844 C 269.519531 256.875 269.070312 257.242188 268.589844 257.5625 C 268.105469 257.886719 267.597656 258.160156 267.058594 258.382812 C 266.523438 258.605469 265.96875 258.773438 265.402344 258.886719 C 264.832031 259 264.253906 259.058594 263.675781 259.058594 Z M 263.675781 245.792969 C 263.382812 245.792969 263.097656 245.820312 262.8125 245.875 C 262.527344 245.933594 262.253906 246.015625 261.984375 246.128906 C 261.714844 246.238281 261.460938 246.375 261.21875 246.535156 C 260.980469 246.695312 260.757812 246.878906 260.550781 247.085938 C 260.347656 247.289062 260.164062 247.511719 260 247.753906 C 259.839844 247.996094 259.703125 248.25 259.59375 248.519531 C 259.484375 248.785156 259.398438 249.0625 259.34375 249.347656 C 259.285156 249.632812 259.257812 249.917969 259.257812 250.207031 C 259.257812 250.5 259.285156 250.785156 259.34375 251.070312 C 259.398438 251.355469 259.484375 251.632812 259.59375 251.898438 C 259.703125 252.167969 259.839844 252.421875 260 252.664062 C 260.164062 252.902344 260.347656 253.125 260.550781 253.332031 C 260.757812 253.535156 260.980469 253.71875 261.21875 253.882812 C 261.460938 254.042969 261.714844 254.179688 261.984375 254.289062 C 262.25 254.402344 262.527344 254.484375 262.8125 254.539062 C 263.097656 254.597656 263.382812 254.625 263.675781 254.625 C 263.964844 254.625 264.25 254.597656 264.535156 254.539062 C 264.820312 254.484375 265.097656 254.402344 265.363281 254.289062 C 265.632812 254.179688 265.886719 254.042969 266.128906 253.882812 C 266.371094 253.71875 266.59375 253.539062 266.796875 253.332031 C 267.003906 253.125 267.1875 252.902344 267.347656 252.664062 C 267.507812 252.421875 267.644531 252.167969 267.753906 251.898438 C 267.867188 251.632812 267.949219 251.355469 268.007812 251.070312 C 268.0625 250.785156 268.089844 250.5 268.089844 250.207031 C 268.089844 249.917969 268.0625 249.632812 268.003906 249.347656 C 267.949219 249.0625 267.863281 248.785156 267.753906 248.519531 C 267.644531 248.25 267.507812 247.996094 267.34375 247.757812 C 267.183594 247.515625 267 247.292969 266.796875 247.085938 C 266.589844 246.882812 266.367188 246.699219 266.128906 246.539062 C 265.886719 246.375 265.632812 246.242188 265.363281 246.128906 C 265.097656 246.019531 264.820312 245.933594 264.535156 245.878906 C 264.25 245.820312 263.964844 245.792969 263.675781 245.792969 Z M 263.675781 245.792969 " fill-opacity="1" fill-rule="nonzero"/><path fill="#6e8a93" d="M 314.308594 165.160156 L 76.601562 165.160156 C 76.769531 164.105469 77.0625 163.082031 77.476562 162.097656 C 77.894531 161.109375 78.417969 160.1875 79.058594 159.328125 C 79.695312 158.46875 80.425781 157.699219 81.25 157.015625 C 82.074219 156.335938 82.96875 155.761719 83.929688 155.292969 L 254.867188 72.332031 C 255.652344 71.953125 256.46875 71.652344 257.3125 71.429688 C 258.160156 71.210938 259.015625 71.074219 259.886719 71.023438 C 260.761719 70.96875 261.628906 71.003906 262.492188 71.125 C 263.359375 71.242188 264.203125 71.445312 265.027344 71.730469 C 265.851562 72.015625 266.644531 72.378906 267.394531 72.820312 C 268.148438 73.261719 268.851562 73.773438 269.503906 74.355469 C 270.160156 74.933594 270.75 75.570312 271.277344 76.269531 C 271.804688 76.964844 272.257812 77.703125 272.636719 78.488281 L 313.289062 162.25 C 313.742188 163.179688 314.082031 164.152344 314.308594 165.160156 Z M 314.308594 165.160156 " fill-opacity="1" fill-rule="nonzero"/><g clip-path="url(#12d40ac057)"><path fill="#000000" d="M 314.308594 167.378906 L 76.601562 167.378906 C 76.277344 167.378906 75.96875 167.3125 75.675781 167.175781 C 75.378906 167.039062 75.128906 166.847656 74.917969 166.601562 C 74.707031 166.351562 74.558594 166.074219 74.46875 165.761719 C 74.382812 165.449219 74.363281 165.132812 74.414062 164.8125 C 74.613281 163.578125 74.953125 162.386719 75.4375 161.238281 C 75.921875 160.089844 76.539062 159.011719 77.28125 158.011719 C 78.027344 157.007812 78.878906 156.109375 79.839844 155.3125 C 80.800781 154.515625 81.839844 153.84375 82.960938 153.300781 L 253.902344 70.339844 C 254.816406 69.894531 255.769531 69.542969 256.753906 69.285156 C 257.738281 69.027344 258.742188 68.871094 259.757812 68.808594 C 260.773438 68.75 261.789062 68.789062 262.796875 68.925781 C 263.804688 69.066406 264.792969 69.304688 265.753906 69.636719 C 266.714844 69.96875 267.636719 70.394531 268.515625 70.910156 C 269.394531 71.425781 270.214844 72.019531 270.976562 72.695312 C 271.738281 73.371094 272.425781 74.117188 273.042969 74.929688 C 273.65625 75.742188 274.1875 76.605469 274.632812 77.523438 L 315.285156 161.28125 C 315.8125 162.363281 316.207031 163.496094 316.472656 164.675781 C 316.507812 164.835938 316.527344 165 316.527344 165.167969 C 316.523438 165.332031 316.507812 165.496094 316.46875 165.660156 C 316.429688 165.820312 316.375 165.976562 316.304688 166.128906 C 316.230469 166.277344 316.144531 166.417969 316.039062 166.546875 C 315.9375 166.675781 315.820312 166.792969 315.6875 166.894531 C 315.558594 167 315.417969 167.085938 315.269531 167.160156 C 315.121094 167.230469 314.964844 167.285156 314.800781 167.324219 C 314.640625 167.359375 314.476562 167.378906 314.308594 167.378906 Z M 79.53125 162.945312 L 311.164062 162.945312 L 270.644531 79.457031 C 270.328125 78.804688 269.949219 78.1875 269.507812 77.605469 C 269.070312 77.027344 268.578125 76.496094 268.035156 76.011719 C 267.488281 75.527344 266.902344 75.101562 266.277344 74.734375 C 265.648438 74.367188 264.992188 74.0625 264.304688 73.824219 C 263.617188 73.585938 262.910156 73.417969 262.191406 73.320312 C 261.46875 73.21875 260.746094 73.191406 260.019531 73.234375 C 259.292969 73.277344 258.578125 73.390625 257.875 73.574219 C 257.171875 73.757812 256.492188 74.011719 255.835938 74.328125 L 84.898438 157.289062 C 83.691406 157.875 82.625 158.65625 81.699219 159.628906 C 80.777344 160.601562 80.050781 161.707031 79.53125 162.945312 Z M 79.53125 162.945312 " fill-opacity="1" fill-rule="nonzero"/></g><path fill="#6e8a93" d="M 217.257812 165.160156 L 176.324219 165.160156 C 176.515625 163.953125 176.808594 162.765625 177.207031 161.609375 C 177.605469 160.449219 178.105469 159.335938 178.703125 158.265625 C 179.296875 157.195312 179.984375 156.1875 180.761719 155.238281 C 181.535156 154.289062 182.390625 153.417969 183.320312 152.621094 C 184.253906 151.824219 185.246094 151.113281 186.300781 150.496094 C 187.359375 149.875 188.460938 149.351562 189.613281 148.925781 C 190.761719 148.5 191.9375 148.179688 193.144531 147.964844 C 194.351562 147.75 195.566406 147.640625 196.792969 147.640625 C 198.015625 147.640625 199.234375 147.75 200.4375 147.964844 C 201.644531 148.179688 202.824219 148.5 203.972656 148.925781 C 205.121094 149.351562 206.226562 149.875 207.28125 150.496094 C 208.335938 151.113281 209.332031 151.824219 210.261719 152.621094 C 211.191406 153.417969 212.046875 154.289062 212.824219 155.238281 C 213.597656 156.1875 214.285156 157.195312 214.882812 158.265625 C 215.480469 159.335938 215.976562 160.449219 216.375 161.609375 C 216.777344 162.765625 217.070312 163.953125 217.257812 165.160156 Z M 217.257812 165.160156 " fill-opacity="1" fill-rule="nonzero"/><path fill="#000000" d="M 217.257812 167.378906 L 176.324219 167.378906 C 176 167.378906 175.691406 167.3125 175.398438 167.175781 C 175.105469 167.039062 174.851562 166.851562 174.640625 166.605469 C 174.429688 166.359375 174.28125 166.082031 174.191406 165.769531 C 174.105469 165.457031 174.085938 165.144531 174.132812 164.824219 C 174.34375 163.484375 174.667969 162.171875 175.109375 160.886719 C 175.550781 159.605469 176.105469 158.371094 176.765625 157.1875 C 177.425781 156.003906 178.183594 154.886719 179.042969 153.835938 C 179.902344 152.785156 180.847656 151.820312 181.878906 150.9375 C 182.910156 150.054688 184.007812 149.269531 185.179688 148.582031 C 186.347656 147.898438 187.570312 147.316406 188.84375 146.847656 C 190.113281 146.378906 191.417969 146.023438 192.753906 145.785156 C 194.089844 145.546875 195.433594 145.425781 196.792969 145.425781 C 198.148438 145.425781 199.496094 145.546875 200.828125 145.785156 C 202.164062 146.023438 203.46875 146.378906 204.742188 146.847656 C 206.015625 147.316406 207.234375 147.898438 208.40625 148.582031 C 209.574219 149.269531 210.675781 150.054688 211.703125 150.9375 C 212.734375 151.820312 213.679688 152.785156 214.539062 153.835938 C 215.398438 154.886719 216.160156 156.003906 216.820312 157.1875 C 217.480469 158.371094 218.03125 159.605469 218.472656 160.886719 C 218.914062 162.171875 219.238281 163.484375 219.449219 164.824219 C 219.5 165.144531 219.480469 165.457031 219.390625 165.769531 C 219.300781 166.082031 219.152344 166.359375 218.941406 166.605469 C 218.730469 166.851562 218.480469 167.039062 218.183594 167.175781 C 217.890625 167.3125 217.582031 167.378906 217.257812 167.378906 Z M 179.101562 162.945312 L 214.480469 162.945312 C 214.191406 162.003906 213.832031 161.09375 213.398438 160.207031 C 212.964844 159.324219 212.464844 158.480469 211.894531 157.679688 C 211.328125 156.875 210.699219 156.121094 210.011719 155.417969 C 209.324219 154.714844 208.585938 154.070312 207.792969 153.484375 C 207.003906 152.902344 206.167969 152.382812 205.296875 151.929688 C 204.421875 151.476562 203.519531 151.097656 202.582031 150.789062 C 201.648438 150.480469 200.695312 150.25 199.726562 150.09375 C 198.753906 149.9375 197.777344 149.859375 196.792969 149.859375 C 195.808594 149.859375 194.828125 149.9375 193.859375 150.09375 C 192.886719 150.25 191.933594 150.480469 191 150.789062 C 190.066406 151.097656 189.160156 151.476562 188.289062 151.929688 C 187.414062 152.382812 186.582031 152.902344 185.789062 153.484375 C 185 154.070312 184.257812 154.714844 183.570312 155.417969 C 182.882812 156.121094 182.253906 156.875 181.6875 157.679688 C 181.121094 158.480469 180.617188 159.324219 180.183594 160.207031 C 179.75 161.09375 179.390625 162.003906 179.101562 162.945312 Z M 179.101562 162.945312 " fill-opacity="1" fill-rule="nonzero"/><path fill="#000000" d="M 253.417969 122.800781 L 253.765625 118.769531 C 256.984375 119.160156 259.90625 119.003906 262.871094 117.160156 C 266.109375 115.144531 266.644531 112.414062 265.335938 110.308594 C 263.753906 107.769531 260.144531 108.460938 256.78125 109.144531 C 252.535156 110.03125 247.578125 110.757812 244.988281 106.59375 C 242.53125 102.644531 243.792969 97.621094 249.140625 94.292969 C 252.214844 92.382812 255.683594 91.96875 258.539062 92.292969 L 258.207031 96.210938 C 255.726562 96.011719 253.398438 96.15625 251.214844 97.515625 C 248.105469 99.449219 247.699219 102 248.871094 103.882812 C 250.332031 106.226562 253.570312 105.453125 257.011719 104.753906 C 261.40625 103.882812 266.273438 102.863281 269.195312 107.558594 C 271.6875 111.5625 270.582031 116.875 264.757812 120.5 C 261.25 122.679688 256.941406 123.296875 253.417969 122.800781 Z M 253.417969 122.800781 " fill-opacity="1" fill-rule="nonzero"/><path fill="#6e8a93" d="M 246.875 92.394531 L 247.9375 91.734375 L 267.019531 122.402344 L 265.957031 123.0625 Z M 246.875 92.394531 " fill-opacity="1" fill-rule="nonzero"/><path fill="#000000" d="M 265.960938 125.28125 C 265.574219 125.28125 265.214844 125.191406 264.882812 125.003906 C 264.546875 124.816406 264.277344 124.5625 264.074219 124.234375 L 244.992188 93.566406 C 244.835938 93.316406 244.734375 93.046875 244.6875 92.757812 C 244.640625 92.46875 244.648438 92.179688 244.714844 91.894531 C 244.78125 91.605469 244.902344 91.34375 245.074219 91.105469 C 245.242188 90.867188 245.453125 90.667969 245.703125 90.515625 L 246.769531 89.851562 C 247.015625 89.699219 247.289062 89.597656 247.578125 89.546875 C 247.867188 89.5 248.15625 89.511719 248.441406 89.578125 C 248.726562 89.644531 248.992188 89.761719 249.230469 89.933594 C 249.46875 90.105469 249.664062 90.316406 249.820312 90.5625 L 268.902344 121.234375 C 269.058594 121.484375 269.160156 121.753906 269.207031 122.042969 C 269.257812 122.332031 269.246094 122.621094 269.179688 122.90625 C 269.113281 123.195312 268.996094 123.457031 268.824219 123.695312 C 268.652344 123.933594 268.441406 124.132812 268.191406 124.285156 L 267.128906 124.949219 C 266.773438 125.171875 266.382812 125.28125 265.960938 125.28125 Z M 265.960938 125.28125 " fill-opacity="1" fill-rule="nonzero"/><path fill="#6e8a93" d="M 100.042969 273.128906 L 105.003906 266.507812 C 110.160156 270.664062 115.402344 273.542969 122.539062 273.542969 C 130.335938 273.542969 134.207031 269.386719 134.207031 264.320312 C 134.207031 258.207031 127.195312 255.503906 120.625 253.0625 C 112.300781 250.019531 102.910156 245.925781 102.910156 235.90625 C 102.910156 226.402344 110.523438 219.042969 123.394531 219.042969 C 130.789062 219.042969 137.257812 222.074219 141.863281 225.71875 L 137.054688 232.160156 C 132.964844 229.136719 128.765625 226.871094 123.511719 226.871094 C 116.03125 226.871094 112.574219 230.863281 112.574219 235.390625 C 112.574219 241.039062 119.03125 243.1875 125.761719 245.695312 C 134.328125 248.925781 143.871094 252.410156 143.871094 263.714844 C 143.871094 273.347656 136.21875 281.375 122.203125 281.375 C 113.765625 281.375 105.621094 277.796875 100.042969 273.128906 Z M 100.042969 273.128906 " fill-opacity="1" fill-rule="nonzero"/><path fill="#000000" d="M 122.203125 283.589844 C 113.992188 283.589844 105.175781 280.316406 98.617188 274.828125 C 98.402344 274.648438 98.226562 274.429688 98.089844 274.183594 C 97.957031 273.933594 97.871094 273.667969 97.839844 273.382812 C 97.804688 273.101562 97.828125 272.824219 97.902344 272.550781 C 97.976562 272.277344 98.097656 272.027344 98.269531 271.800781 L 103.230469 265.179688 C 103.410156 264.9375 103.628906 264.742188 103.890625 264.589844 C 104.148438 264.441406 104.429688 264.347656 104.726562 264.308594 C 105.027344 264.273438 105.320312 264.292969 105.609375 264.375 C 105.898438 264.457031 106.160156 264.59375 106.394531 264.78125 C 112.164062 269.429688 116.84375 271.328125 122.535156 271.328125 C 128.457031 271.328125 131.988281 268.707031 131.988281 264.320312 C 131.988281 259.996094 126.730469 257.695312 119.851562 255.140625 C 115.433594 253.527344 110.847656 251.640625 107.277344 248.84375 C 102.910156 245.417969 100.691406 241.0625 100.691406 235.90625 C 100.675781 234.609375 100.804688 233.324219 101.070312 232.058594 C 101.335938 230.789062 101.734375 229.5625 102.269531 228.382812 C 102.804688 227.203125 103.460938 226.09375 104.238281 225.054688 C 105.015625 224.015625 105.894531 223.074219 106.878906 222.230469 C 110.980469 218.695312 116.691406 216.828125 123.394531 216.828125 C 132.804688 216.828125 139.867188 221.308594 143.238281 223.980469 C 143.464844 224.160156 143.648438 224.375 143.792969 224.625 C 143.933594 224.875 144.023438 225.144531 144.0625 225.429688 C 144.097656 225.71875 144.082031 226 144.007812 226.277344 C 143.933594 226.558594 143.8125 226.8125 143.640625 227.042969 L 138.832031 233.484375 C 138.65625 233.71875 138.445312 233.910156 138.191406 234.0625 C 137.941406 234.210938 137.667969 234.308594 137.378906 234.351562 C 137.089844 234.394531 136.804688 234.378906 136.519531 234.308594 C 136.234375 234.238281 135.972656 234.113281 135.738281 233.941406 C 131.074219 230.496094 127.53125 229.089844 123.511719 229.089844 C 118.050781 229.089844 114.792969 231.445312 114.792969 235.390625 C 114.792969 238.996094 118.90625 240.785156 125.683594 243.300781 L 126.792969 243.714844 C 135.390625 246.953125 146.089844 250.984375 146.089844 263.714844 C 146.101562 265.050781 145.972656 266.371094 145.699219 267.679688 C 145.425781 268.984375 145.015625 270.246094 144.46875 271.464844 C 143.921875 272.683594 143.25 273.828125 142.457031 274.898438 C 141.660156 275.972656 140.761719 276.949219 139.753906 277.824219 C 135.449219 281.597656 129.378906 283.589844 122.203125 283.589844 Z M 103.117188 272.722656 C 108.679688 276.777344 115.667969 279.15625 122.203125 279.15625 C 133.835938 279.15625 141.65625 272.949219 141.65625 263.714844 C 141.65625 254.054688 133.675781 251.046875 125.230469 247.863281 L 124.140625 247.457031 C 117.363281 244.941406 110.359375 242.34375 110.359375 235.390625 C 110.359375 230.046875 114.425781 224.65625 123.511719 224.65625 C 128.839844 224.65625 133.074219 226.738281 136.574219 229.097656 L 138.75 226.183594 C 135.457031 223.945312 130.105469 221.261719 123.394531 221.261719 C 112.46875 221.261719 105.125 227.144531 105.125 235.902344 C 105.125 244.332031 113.15625 247.972656 121.382812 250.980469 C 128.089844 253.472656 136.421875 256.570312 136.421875 264.320312 C 136.421875 270.015625 132.128906 275.761719 122.535156 275.761719 C 115.160156 275.761719 109.753906 272.859375 105.421875 269.640625 Z M 103.117188 272.722656 " fill-opacity="1" fill-rule="nonzero"/><path fill="#6e8a93" d="M 117.910156 213.296875 L 126.003906 213.296875 L 126.003906 287.117188 L 117.910156 287.117188 Z M 117.910156 213.296875 " fill-opacity="1" fill-rule="nonzero"/><path fill="#000000" d="M 126.003906 289.335938 L 117.910156 289.335938 C 117.617188 289.335938 117.335938 289.28125 117.0625 289.167969 C 116.789062 289.054688 116.550781 288.894531 116.34375 288.6875 C 116.136719 288.476562 115.976562 288.238281 115.863281 287.96875 C 115.75 287.695312 115.695312 287.414062 115.695312 287.117188 L 115.695312 213.296875 C 115.695312 213.003906 115.75 212.722656 115.863281 212.449219 C 115.976562 212.179688 116.136719 211.9375 116.34375 211.730469 C 116.550781 211.523438 116.792969 211.363281 117.0625 211.25 C 117.335938 211.136719 117.617188 211.082031 117.910156 211.082031 L 126.003906 211.082031 C 126.296875 211.082031 126.578125 211.136719 126.851562 211.25 C 127.125 211.363281 127.363281 211.523438 127.570312 211.730469 C 127.777344 211.9375 127.9375 212.179688 128.050781 212.449219 C 128.164062 212.722656 128.21875 213.003906 128.21875 213.296875 L 128.21875 287.117188 C 128.21875 287.414062 128.164062 287.695312 128.050781 287.96875 C 127.9375 288.238281 127.777344 288.476562 127.570312 288.6875 C 127.363281 288.894531 127.125 289.054688 126.851562 289.167969 C 126.578125 289.28125 126.296875 289.335938 126.003906 289.335938 Z M 120.128906 284.902344 L 123.785156 284.902344 L 123.785156 215.515625 L 120.128906 215.515625 Z M 120.128906 284.902344 " fill-opacity="1" fill-rule="nonzero"/></svg>