<svg xmlns="http://www.w3.org/2000/svg" xmlns:xlink="http://www.w3.org/1999/xlink" width="500" zoomAndPan="magnify" viewBox="0 0 375 374.999991" height="500" preserveAspectRatio="xMidYMid meet" version="1.0"><defs><clipPath id="6d03af74ac"><path d="M 18.75 192 L 64 192 L 64 230 L 18.75 230 Z M 18.75 192 " clip-rule="nonzero"/></clipPath><clipPath id="67145a7a43"><path d="M 311 257 L 356.25 257 L 356.25 295 L 311 295 Z M 311 257 " clip-rule="nonzero"/></clipPath><clipPath id="9f40152dbd"><path d="M 201 297 L 246 297 L 246 337.640625 L 201 337.640625 Z M 201 297 " clip-rule="nonzero"/></clipPath><clipPath id="15387d2d08"><path d="M 242 297 L 341 297 L 341 337.640625 L 242 337.640625 Z M 242 297 " clip-rule="nonzero"/></clipPath><clipPath id="cc4c717d01"><path d="M 131 193 L 356.25 193 L 356.25 325 L 131 325 Z M 131 193 " clip-rule="nonzero"/></clipPath><clipPath id="180e4c8fee"><path d="M 18.75 128 L 244 128 L 244 260 L 18.75 260 Z M 18.75 128 " clip-rule="nonzero"/></clipPath></defs><path fill="#6e8a93" d="M 170.308594 236.925781 C 164.742188 236.707031 159.273438 235.367188 155.003906 232.898438 C 150.925781 230.542969 148.636719 227.550781 148.109375 224.480469 L 148.109375 228.867188 C 147.425781 232.839844 149.714844 236.964844 155.003906 240.019531 C 159.171875 242.285156 163.617188 243.585938 168.351562 243.917969 L 172.992188 241.234375 C 175.597656 239.730469 173.996094 237.070312 170.308594 236.925781 Z M 170.308594 236.925781 " fill-opacity="1" fill-rule="nonzero"/><path fill="#000000" d="M 168.351562 245.546875 C 168.304688 245.546875 168.257812 245.546875 168.207031 245.542969 C 163.238281 245.1875 158.5625 243.820312 154.191406 241.429688 C 148.46875 238.121094 145.65625 233.445312 146.496094 228.59375 L 146.496094 224.480469 C 146.492188 224.277344 146.53125 224.078125 146.601562 223.890625 C 146.675781 223.699219 146.78125 223.527344 146.917969 223.378906 C 147.054688 223.226562 147.214844 223.105469 147.398438 223.015625 C 147.582031 222.925781 147.773438 222.871094 147.976562 222.855469 C 148.179688 222.839844 148.378906 222.859375 148.574219 222.914062 C 148.769531 222.972656 148.945312 223.066406 149.105469 223.191406 C 149.269531 223.316406 149.402344 223.464844 149.503906 223.640625 C 149.609375 223.816406 149.679688 224.003906 149.710938 224.203125 C 150.171875 226.894531 152.34375 229.480469 155.816406 231.488281 C 159.695312 233.730469 164.859375 235.082031 170.371094 235.296875 C 173.148438 235.40625 175.335938 236.769531 175.808594 238.691406 C 176.1875 240.222656 175.4375 241.699219 173.804688 242.644531 L 169.164062 245.324219 C 168.914062 245.472656 168.640625 245.546875 168.351562 245.546875 Z M 149.667969 230.789062 C 149.964844 233.757812 152.125 236.476562 155.816406 238.605469 C 159.617188 240.679688 163.671875 241.894531 167.988281 242.246094 L 172.179688 239.828125 C 172.371094 239.734375 172.53125 239.597656 172.652344 239.421875 C 172.601562 239.289062 171.90625 238.613281 170.246094 238.550781 C 164.214844 238.3125 158.511719 236.808594 154.191406 234.308594 C 152.507812 233.359375 151 232.183594 149.667969 230.789062 Z M 149.667969 230.789062 " fill-opacity="1" fill-rule="nonzero"/><path fill="#6e8a93" d="M 221.402344 156.15625 C 222.574219 156.867188 223.605469 157.742188 224.496094 158.78125 C 225.390625 159.820312 226.101562 160.96875 226.628906 162.234375 C 227.050781 161.183594 227.277344 160.09375 227.308594 158.964844 C 227.34375 157.832031 227.183594 156.730469 226.828125 155.65625 C 228.28125 151.21875 226.460938 146.304688 221.402344 143.039062 C 211.769531 136.816406 195.261719 136.585938 185.246094 142.371094 C 181.019531 144.8125 178.648438 147.921875 178.128906 151.117188 C 177.859375 152.777344 174.429688 153.519531 172.382812 152.335938 L 132.191406 129.121094 L 132.191406 142.238281 L 172.382812 165.453125 C 174.429688 166.636719 177.859375 165.894531 178.128906 164.234375 C 178.648438 161.039062 181.019531 157.929688 185.246094 155.488281 C 195.261719 149.703125 211.769531 149.933594 221.402344 156.15625 Z M 221.402344 156.15625 " fill-opacity="1" fill-rule="nonzero"/><path fill="#000000" d="M 174.75 167.660156 C 173.617188 167.679688 172.558594 167.410156 171.566406 166.859375 L 131.378906 143.652344 C 131.128906 143.507812 130.929688 143.308594 130.785156 143.054688 C 130.640625 142.804688 130.566406 142.53125 130.566406 142.242188 L 130.566406 129.121094 C 130.566406 128.832031 130.640625 128.558594 130.785156 128.308594 C 130.929688 128.054688 131.128906 127.855469 131.378906 127.710938 C 131.632812 127.566406 131.902344 127.492188 132.191406 127.492188 C 132.484375 127.492188 132.753906 127.566406 133.007812 127.710938 L 173.195312 150.925781 C 173.683594 151.183594 174.199219 151.304688 174.75 151.289062 C 175.417969 151.339844 176.019531 151.164062 176.554688 150.761719 C 177.140625 147.070312 179.945312 143.554688 184.433594 140.960938 C 189.339844 138.128906 195.835938 136.566406 202.730469 136.566406 C 210.136719 136.566406 217.265625 138.429688 222.285156 141.667969 C 227.628906 145.117188 229.984375 150.441406 228.527344 155.660156 C 228.859375 156.84375 228.992188 158.046875 228.929688 159.277344 C 228.863281 160.503906 228.597656 161.691406 228.140625 162.832031 C 228.019531 163.144531 227.820312 163.394531 227.542969 163.582031 C 227.265625 163.769531 226.960938 163.863281 226.625 163.863281 C 226.289062 163.863281 225.984375 163.765625 225.707031 163.578125 C 225.433594 163.390625 225.234375 163.140625 225.113281 162.828125 C 224.152344 160.566406 222.625 158.796875 220.523438 157.523438 C 216.015625 154.613281 209.527344 152.941406 202.734375 152.941406 C 196.398438 152.941406 190.480469 154.34375 186.058594 156.902344 C 182.4375 158.996094 180.191406 161.691406 179.738281 164.492188 C 179.433594 166.359375 177.382812 167.660156 174.75 167.660156 Z M 133.820312 141.300781 L 173.195312 164.039062 C 173.679688 164.296875 174.199219 164.421875 174.75 164.40625 C 175.417969 164.457031 176.023438 164.28125 176.558594 163.878906 C 177.140625 160.1875 179.945312 156.671875 184.433594 154.078125 C 189.339844 151.246094 195.839844 149.683594 202.734375 149.683594 C 210.246094 149.683594 217.191406 151.496094 222.285156 154.785156 C 223.515625 155.574219 224.625 156.511719 225.613281 157.589844 C 225.542969 157.105469 225.433594 156.632812 225.28125 156.167969 C 225.171875 155.828125 225.171875 155.488281 225.28125 155.148438 C 226.5625 151.246094 224.738281 147.128906 220.523438 144.40625 C 216.007812 141.492188 209.527344 139.824219 202.730469 139.824219 C 196.398438 139.824219 190.480469 141.230469 186.058594 143.785156 C 182.4375 145.878906 180.191406 148.574219 179.738281 151.375 C 179.433594 153.242188 177.382812 154.542969 174.75 154.542969 C 173.617188 154.5625 172.558594 154.296875 171.566406 153.75 L 133.820312 131.941406 Z M 133.820312 141.300781 " fill-opacity="1" fill-rule="nonzero"/><path fill="#6e8a93" d="M 331.175781 180.949219 C 322.199219 185.75 307.847656 185.71875 298.828125 180.878906 C 294.148438 178.367188 291.605469 175.050781 291.210938 171.675781 C 290.960938 169.539062 286.414062 168.585938 283.804688 170.09375 L 243.464844 193.398438 L 203.28125 170.1875 C 202.96875 170.015625 202.714844 169.777344 202.519531 169.476562 L 202.519531 181.230469 C 202.066406 181.898438 202.238281 182.699219 203.28125 183.304688 L 243.460938 206.515625 L 283.804688 183.210938 C 286.414062 181.703125 290.960938 182.65625 291.210938 184.792969 C 291.605469 188.167969 294.148438 191.480469 298.828125 193.996094 C 307.847656 198.835938 322.199219 198.867188 331.175781 194.066406 C 336.019531 191.476562 338.523438 188.011719 338.734375 184.5 L 338.847656 184.511719 L 338.847656 171.394531 L 338.730469 171.414062 C 338.507812 174.914062 336.003906 178.367188 331.175781 180.949219 Z M 331.175781 180.949219 " fill-opacity="1" fill-rule="nonzero"/><path fill="#000000" d="M 243.464844 208.140625 C 243.171875 208.140625 242.902344 208.070312 242.648438 207.925781 L 202.472656 184.714844 C 201.5625 184.261719 200.984375 183.542969 200.730469 182.558594 C 200.589844 181.960938 200.648438 181.382812 200.894531 180.824219 L 200.894531 169.476562 C 200.894531 169.113281 201.003906 168.785156 201.21875 168.496094 C 201.4375 168.207031 201.71875 168.011719 202.066406 167.910156 C 202.414062 167.808594 202.757812 167.824219 203.097656 167.953125 C 203.4375 168.082031 203.703125 168.300781 203.894531 168.605469 L 243.464844 191.515625 L 282.988281 168.683594 C 284.195312 168.027344 285.480469 167.710938 286.851562 167.734375 C 289.515625 167.734375 292.523438 168.90625 292.824219 171.484375 C 293.171875 174.460938 295.578125 177.289062 299.601562 179.445312 C 303.753906 181.675781 309.257812 182.902344 315.105469 182.902344 C 320.890625 182.902344 326.320312 181.699219 330.410156 179.511719 C 334.535156 177.304688 336.910156 174.394531 337.109375 171.3125 C 337.132812 170.9375 337.269531 170.609375 337.519531 170.332031 C 337.769531 170.050781 338.078125 169.878906 338.449219 169.816406 C 338.964844 169.722656 339.425781 169.835938 339.839844 170.15625 C 340.242188 170.472656 340.457031 170.886719 340.480469 171.394531 L 340.480469 184.507812 C 340.480469 184.773438 340.417969 185.023438 340.296875 185.257812 C 339.789062 189.261719 336.847656 192.878906 331.945312 195.503906 C 327.398438 197.9375 321.417969 199.273438 315.109375 199.273438 C 308.738281 199.273438 302.679688 197.910156 298.0625 195.429688 C 293.074219 192.753906 290.070312 189.046875 289.597656 184.984375 C 289.503906 184.726562 288.457031 184.101562 286.851562 184.101562 C 286.0625 184.082031 285.316406 184.253906 284.617188 184.617188 L 244.277344 207.925781 C 244.023438 208.070312 243.753906 208.140625 243.464844 208.140625 Z M 204.039062 181.820312 L 243.464844 204.628906 L 282.988281 181.800781 C 284.195312 181.144531 285.480469 180.828125 286.851562 180.847656 C 289.515625 180.847656 292.523438 182.023438 292.824219 184.601562 C 293.171875 187.578125 295.578125 190.40625 299.601562 192.5625 C 303.753906 194.789062 309.261719 196.019531 315.109375 196.019531 C 320.890625 196.019531 326.324219 194.816406 330.410156 192.628906 C 334.546875 190.417969 336.929688 187.496094 337.109375 184.402344 C 337.121094 184.226562 337.15625 184.054688 337.222656 183.890625 L 337.222656 178.410156 C 335.6875 180.03125 333.929688 181.359375 331.945312 182.386719 C 327.394531 184.820312 321.414062 186.15625 315.105469 186.15625 C 308.730469 186.15625 302.675781 184.792969 298.058594 182.3125 C 293.074219 179.636719 290.070312 175.929688 289.597656 171.867188 C 289.503906 171.609375 288.457031 170.988281 286.851562 170.988281 C 286.0625 170.96875 285.316406 171.140625 284.617188 171.507812 L 244.277344 194.8125 C 244.023438 194.957031 243.753906 195.027344 243.464844 195.027344 C 243.171875 195.027344 242.902344 194.957031 242.648438 194.8125 L 204.148438 172.566406 L 204.148438 181.230469 C 204.148438 181.433594 204.113281 181.632812 204.039062 181.820312 Z M 204.039062 181.820312 " fill-opacity="1" fill-rule="nonzero"/><path fill="#6e8a93" d="M 354.015625 129.539062 L 313.753906 152.792969 C 311.148438 154.300781 312.75 156.960938 316.4375 157.105469 C 316.507812 157.109375 316.578125 157.117188 316.652344 157.117188 L 313.753906 158.792969 C 311.148438 160.296875 312.75 162.957031 316.4375 163.101562 C 317.09375 163.128906 317.746094 163.171875 318.398438 163.230469 L 354.039062 142.640625 L 354.015625 142.625 L 354.125 142.636719 L 354.125 129.519531 Z M 354.015625 129.539062 " fill-opacity="1" fill-rule="nonzero"/><path fill="#000000" d="M 318.398438 164.859375 C 318.347656 164.859375 318.300781 164.855469 318.25 164.851562 C 317.625 164.792969 317 164.753906 316.375 164.730469 C 313.597656 164.621094 311.410156 163.253906 310.9375 161.335938 C 310.582031 159.90625 311.210938 158.527344 312.617188 157.582031 C 311.765625 157.054688 311.203125 156.304688 310.9375 155.335938 C 310.558594 153.800781 311.308594 152.324219 312.941406 151.386719 L 353.199219 128.125 C 353.363281 128.035156 353.535156 127.972656 353.714844 127.9375 C 354.230469 127.847656 354.695312 127.960938 355.109375 128.273438 C 355.515625 128.589844 355.730469 129.003906 355.753906 129.515625 L 355.753906 142.632812 C 355.757812 143.109375 355.582031 143.503906 355.234375 143.824219 C 355.054688 143.996094 354.84375 144.117188 354.605469 144.191406 L 319.210938 164.640625 C 318.957031 164.785156 318.6875 164.855469 318.398438 164.859375 Z M 352.5 132.292969 L 314.566406 154.207031 C 314.164062 154.4375 314.09375 154.613281 314.09375 154.613281 C 314.144531 154.738281 314.839844 155.414062 316.5 155.476562 C 316.875 155.488281 317.214844 155.609375 317.511719 155.839844 C 317.808594 156.066406 318.015625 156.359375 318.125 156.71875 C 318.234375 157.058594 318.226562 157.398438 318.101562 157.734375 C 317.980469 158.070312 317.765625 158.335938 317.464844 158.527344 L 314.566406 160.203125 C 314.164062 160.433594 314.09375 160.605469 314.09375 160.605469 C 314.144531 160.738281 314.839844 161.410156 316.503906 161.476562 C 317.011719 161.496094 317.515625 161.527344 318.023438 161.5625 L 352.5 141.648438 Z M 352.5 132.292969 " fill-opacity="1" fill-rule="nonzero"/><path fill="#6e8a93" d="M 206.425781 179.339844 C 211.546875 178.902344 216.464844 177.5 220.285156 175.125 C 224.734375 172.355469 226.773438 168.695312 226.445312 165.089844 L 226.605469 165.101562 L 226.605469 151.984375 L 226.449219 152.023438 C 226.753906 155.609375 224.714844 159.25 220.285156 162.007812 C 215.960938 164.695312 210.238281 166.144531 204.398438 166.351562 C 200.707031 166.480469 199.082031 169.101562 201.707031 170.621094 L 204.671875 172.332031 C 204.578125 172.335938 204.488281 172.34375 204.398438 172.347656 C 200.703125 172.480469 206.425781 179.339844 206.425781 179.339844 Z M 226.453125 159.09375 C 226.449219 159.195312 226.457031 159.296875 226.449219 159.402344 C 226.441406 159.296875 226.457031 159.195312 226.445312 159.09375 Z M 226.453125 159.09375 " fill-opacity="1" fill-rule="nonzero"/><path fill="#000000" d="M 206.425781 180.96875 C 205.917969 180.96875 205.5 180.773438 205.175781 180.382812 C 203.519531 178.394531 200.910156 174.777344 201.683594 172.484375 L 200.894531 172.03125 C 199.253906 171.085938 198.503906 169.605469 198.882812 168.082031 C 199.363281 166.144531 201.503906 164.824219 204.335938 164.722656 C 210.152344 164.515625 215.507812 163.0625 219.425781 160.625 C 223.171875 158.292969 225.089844 155.289062 224.828125 152.160156 C 224.796875 151.769531 224.894531 151.414062 225.117188 151.089844 C 225.34375 150.769531 225.648438 150.554688 226.027344 150.453125 C 226.5625 150.3125 227.0625 150.398438 227.519531 150.710938 C 227.964844 151.019531 228.203125 151.441406 228.234375 151.984375 L 228.234375 165.101562 C 228.234375 165.320312 228.191406 165.53125 228.105469 165.730469 C 228.148438 169.808594 225.648438 173.703125 221.144531 176.503906 C 217.226562 178.941406 212.1875 180.484375 206.566406 180.964844 C 206.519531 180.96875 206.472656 180.96875 206.425781 180.96875 Z M 204.890625 173.945312 C 205.476562 175.273438 206.230469 176.503906 207.144531 177.636719 C 211.527344 177.246094 215.621094 175.949219 219.425781 173.742188 C 223.191406 171.394531 225.113281 168.378906 224.828125 165.238281 C 224.796875 164.941406 224.847656 164.65625 224.980469 164.382812 L 224.980469 160.234375 C 223.851562 161.464844 222.574219 162.515625 221.144531 163.386719 C 216.753906 166.121094 210.828125 167.75 204.453125 167.980469 C 202.851562 168.035156 202.136719 168.65625 202.046875 168.855469 C 202.191406 168.992188 202.351562 169.109375 202.523438 169.207031 L 205.484375 170.925781 C 205.785156 171.097656 206.007812 171.34375 206.152344 171.660156 C 206.296875 171.976562 206.335938 172.304688 206.265625 172.648438 C 206.199219 172.988281 206.039062 173.277344 205.785156 173.515625 C 205.535156 173.753906 205.234375 173.898438 204.890625 173.945312 Z M 204.890625 173.945312 " fill-opacity="1" fill-rule="nonzero"/><path fill="#6e8a93" d="M 202.371094 217.132812 C 200.320312 218.320312 196.894531 217.539062 196.597656 215.867188 C 195.984375 212.402344 193.199219 209.035156 188.246094 206.503906 C 179.300781 201.929688 164.519531 201.859375 155.542969 206.351562 C 148.40625 209.925781 145.773438 215.242188 147.566406 220.144531 C 147.164062 221.210938 146.980469 222.316406 147.019531 223.453125 C 147.058594 224.59375 147.3125 225.683594 147.785156 226.722656 C 148.984375 224.011719 151.554688 221.464844 155.542969 219.46875 C 164.519531 214.972656 179.300781 215.046875 188.246094 219.621094 C 193.199219 222.152344 195.984375 225.519531 196.597656 228.984375 C 196.894531 230.65625 200.320312 231.433594 202.371094 230.25 L 242.300781 207.183594 L 242.300781 194.070312 Z M 202.371094 217.132812 " fill-opacity="1" fill-rule="nonzero"/><path fill="#000000" d="M 200.042969 232.449219 C 197.402344 232.449219 195.328125 231.140625 194.996094 229.265625 C 194.445312 226.167969 191.785156 223.257812 187.503906 221.070312 C 183.40625 218.972656 177.640625 217.773438 171.6875 217.773438 C 165.804688 217.773438 160.335938 218.890625 156.273438 220.921875 C 152.789062 222.667969 150.367188 224.898438 149.269531 227.378906 C 149.140625 227.675781 148.941406 227.910156 148.671875 228.085938 C 148.402344 228.261719 148.105469 228.351562 147.785156 228.351562 C 147.460938 228.351562 147.164062 228.261719 146.894531 228.085938 C 146.625 227.910156 146.425781 227.675781 146.296875 227.378906 C 145.78125 226.242188 145.484375 225.046875 145.410156 223.800781 C 145.332031 222.554688 145.476562 221.335938 145.847656 220.140625 C 144.078125 214.371094 147.464844 208.578125 154.816406 204.898438 C 159.316406 202.640625 165.308594 201.398438 171.6875 201.398438 C 178.234375 201.398438 184.378906 202.695312 188.988281 205.054688 C 194.195312 207.714844 197.464844 211.457031 198.199219 215.585938 C 198.714844 215.886719 199.269531 216.050781 199.863281 216.074219 C 200.457031 216.097656 201.023438 215.980469 201.558594 215.726562 L 241.488281 192.65625 C 241.742188 192.511719 242.011719 192.4375 242.304688 192.4375 C 242.59375 192.4375 242.863281 192.511719 243.117188 192.65625 C 243.367188 192.804688 243.566406 193.003906 243.710938 193.253906 C 243.859375 193.507812 243.929688 193.777344 243.929688 194.070312 L 243.929688 207.1875 C 243.929688 207.476562 243.855469 207.75 243.710938 208 C 243.566406 208.253906 243.367188 208.453125 243.117188 208.597656 L 203.1875 231.660156 C 202.210938 232.203125 201.160156 232.464844 200.042969 232.449219 Z M 171.6875 214.515625 C 178.234375 214.515625 184.378906 215.8125 188.988281 218.171875 C 194.195312 220.832031 197.464844 224.574219 198.199219 228.699219 C 198.761719 229.066406 199.375 229.230469 200.042969 229.195312 C 200.578125 229.207031 201.085938 229.089844 201.558594 228.84375 L 240.675781 206.246094 L 240.675781 196.886719 L 203.1875 218.542969 C 202.210938 219.085938 201.160156 219.347656 200.042969 219.332031 C 197.402344 219.332031 195.328125 218.027344 194.996094 216.152344 C 194.445312 213.054688 191.785156 210.140625 187.503906 207.953125 C 183.40625 205.855469 177.640625 204.65625 171.6875 204.65625 C 165.804688 204.65625 160.332031 205.773438 156.273438 207.804688 C 150.191406 210.847656 147.511719 215.253906 149.09375 219.582031 C 149.230469 219.957031 149.226562 220.332031 149.089844 220.707031 C 148.875 221.28125 148.738281 221.875 148.671875 222.488281 C 150.445312 220.617188 152.496094 219.128906 154.816406 218.015625 C 159.316406 215.757812 165.308594 214.515625 171.6875 214.515625 Z M 171.6875 214.515625 " fill-opacity="1" fill-rule="nonzero"/><path fill="#6e8a93" d="M 61.039062 217.121094 L 20.457031 193.679688 L 20.457031 206.785156 L 20.445312 206.789062 L 56.324219 227.515625 C 56.996094 227.457031 57.671875 227.414062 58.351562 227.390625 C 62.042969 227.257812 63.664062 224.636719 61.039062 223.121094 L 58.078125 221.410156 C 58.167969 221.40625 58.257812 221.394531 58.351562 221.390625 C 62.042969 221.261719 63.664062 218.636719 61.039062 217.121094 Z M 61.039062 217.121094 " fill-opacity="1" fill-rule="nonzero"/><g clip-path="url(#6d03af74ac)"><path fill="#000000" d="M 56.324219 229.144531 C 56.035156 229.140625 55.761719 229.070312 55.511719 228.925781 L 19.632812 208.199219 C 19.355469 208.039062 19.144531 207.816406 18.996094 207.53125 C 18.851562 207.246094 18.796875 206.945312 18.828125 206.628906 C 18.828125 206.609375 18.832031 206.597656 18.832031 206.585938 L 18.832031 193.679688 C 18.832031 193.386719 18.902344 193.117188 19.046875 192.863281 C 19.195312 192.613281 19.390625 192.414062 19.644531 192.269531 C 19.894531 192.121094 20.167969 192.050781 20.457031 192.050781 C 20.75 192.050781 21.019531 192.121094 21.273438 192.265625 L 61.851562 215.710938 C 63.492188 216.65625 64.242188 218.132812 63.867188 219.660156 C 63.601562 220.632812 63.042969 221.382812 62.1875 221.917969 C 63.59375 222.867188 64.21875 224.242188 63.867188 225.65625 C 63.382812 227.59375 61.238281 228.914062 58.40625 229.015625 C 57.765625 229.039062 57.113281 229.078125 56.46875 229.140625 C 56.417969 229.144531 56.371094 229.144531 56.324219 229.144531 Z M 22.085938 205.855469 L 56.695312 225.851562 C 57.226562 225.8125 57.761719 225.78125 58.289062 225.761719 C 59.890625 225.703125 60.613281 225.082031 60.699219 224.882812 C 60.554688 224.75 60.398438 224.632812 60.226562 224.53125 L 57.265625 222.820312 C 56.953125 222.640625 56.722656 222.382812 56.582031 222.050781 C 56.441406 221.71875 56.414062 221.378906 56.496094 221.027344 C 56.582031 220.675781 56.765625 220.382812 57.042969 220.152344 C 57.320312 219.925781 57.640625 219.800781 58 219.78125 C 59.882812 219.710938 60.613281 219.085938 60.699219 218.886719 C 60.554688 218.75 60.398438 218.632812 60.226562 218.535156 L 22.085938 196.5 Z M 22.085938 205.855469 " fill-opacity="1" fill-rule="nonzero"/></g><path fill="#6e8a93" d="M 170.308594 230.925781 C 164.742188 230.710938 159.273438 229.367188 155.003906 226.902344 C 150.925781 224.546875 148.636719 221.550781 148.109375 218.480469 L 148.109375 222.871094 C 147.425781 226.84375 149.714844 230.964844 155.003906 234.019531 C 159.171875 236.289062 163.621094 237.589844 168.351562 237.917969 L 172.992188 235.238281 C 175.597656 233.734375 173.996094 231.070312 170.308594 230.925781 Z M 170.308594 230.925781 " fill-opacity="1" fill-rule="nonzero"/><path fill="#000000" d="M 168.351562 239.546875 C 168.304688 239.546875 168.257812 239.546875 168.210938 239.542969 C 163.238281 239.195312 158.566406 237.828125 154.191406 235.433594 C 148.46875 232.128906 145.65625 227.449219 146.496094 222.59375 L 146.496094 218.480469 C 146.492188 218.277344 146.53125 218.078125 146.601562 217.890625 C 146.675781 217.699219 146.78125 217.527344 146.917969 217.378906 C 147.054688 217.226562 147.214844 217.109375 147.398438 217.019531 C 147.582031 216.925781 147.773438 216.875 147.976562 216.855469 C 148.179688 216.839844 148.378906 216.859375 148.574219 216.917969 C 148.769531 216.976562 148.945312 217.066406 149.105469 217.191406 C 149.269531 217.316406 149.402344 217.464844 149.503906 217.640625 C 149.609375 217.816406 149.679688 218.003906 149.710938 218.203125 C 150.171875 220.898438 152.34375 223.484375 155.816406 225.488281 C 159.691406 227.730469 164.859375 229.082031 170.371094 229.300781 C 173.152344 229.410156 175.335938 230.777344 175.808594 232.695312 C 176.1875 234.230469 175.4375 235.707031 173.804688 236.648438 L 169.164062 239.328125 C 168.914062 239.472656 168.640625 239.546875 168.351562 239.546875 Z M 149.671875 224.789062 C 149.96875 227.757812 152.125 230.480469 155.816406 232.617188 C 159.617188 234.6875 163.675781 235.898438 167.988281 236.25 L 172.179688 233.824219 C 172.582031 233.59375 172.652344 233.421875 172.652344 233.421875 C 172.601562 233.289062 171.90625 232.621094 170.246094 232.554688 C 164.210938 232.3125 158.511719 230.808594 154.191406 228.308594 C 152.507812 227.359375 151.003906 226.1875 149.671875 224.789062 Z M 149.671875 224.789062 " fill-opacity="1" fill-rule="nonzero"/><path fill="#6e8a93" d="M 172.617188 233.617188 C 172.523438 234.207031 172.207031 234.625 171.664062 234.871094 L 131.726562 257.941406 L 131.714844 257.9375 L 131.714844 257.949219 L 91.175781 234.53125 C 88.554688 233.015625 83.957031 233.925781 83.730469 236.054688 C 83.390625 239.269531 81.101562 242.417969 76.859375 244.871094 C 67.375 250.347656 51.804688 250.191406 42.542969 244.417969 C 38.90625 242.152344 36.847656 239.304688 36.359375 236.378906 L 36.359375 246.8125 C 35.738281 250.625 37.792969 254.574219 42.542969 257.535156 C 51.804688 263.308594 67.375 263.464844 76.859375 257.984375 C 81.101562 255.535156 83.390625 252.386719 83.730469 249.171875 C 83.957031 247.042969 88.554688 246.132812 91.175781 247.648438 L 131.714844 271.066406 L 131.714844 271.054688 L 131.726562 271.058594 L 171.664062 247.988281 C 172.457031 247.53125 172.730469 246.953125 172.617188 246.40625 Z M 172.617188 233.617188 " fill-opacity="1" fill-rule="nonzero"/><path fill="#000000" d="M 131.707031 272.6875 C 131.417969 272.6875 131.152344 272.617188 130.902344 272.476562 L 90.363281 249.0625 C 89.640625 248.679688 88.871094 248.503906 88.054688 248.527344 C 86.421875 248.527344 85.441406 249.132812 85.34375 249.367188 C 84.9375 253.203125 82.214844 256.773438 77.675781 259.394531 C 72.96875 262.113281 66.734375 263.609375 60.125 263.609375 C 53.089844 263.609375 46.539062 261.945312 41.683594 258.917969 C 36.523438 255.699219 33.984375 251.195312 34.746094 246.550781 L 34.746094 236.378906 C 34.742188 236.175781 34.78125 235.980469 34.855469 235.789062 C 34.925781 235.597656 35.03125 235.425781 35.171875 235.277344 C 35.308594 235.125 35.46875 235.007812 35.652344 234.917969 C 35.835938 234.828125 36.027344 234.773438 36.230469 234.757812 C 36.4375 234.738281 36.636719 234.761719 36.832031 234.820312 C 37.027344 234.875 37.203125 234.96875 37.363281 235.09375 C 37.527344 235.21875 37.65625 235.371094 37.761719 235.546875 C 37.867188 235.722656 37.933594 235.910156 37.96875 236.113281 C 38.386719 238.65625 40.320312 241.113281 43.402344 243.035156 C 47.6875 245.707031 53.78125 247.238281 60.125 247.238281 C 66.171875 247.238281 71.828125 245.898438 76.046875 243.457031 C 79.660156 241.375 81.816406 238.683594 82.113281 235.878906 C 82.347656 233.683594 84.789062 232.152344 88.054688 232.152344 C 89.449219 232.128906 90.761719 232.453125 91.988281 233.121094 L 131.71875 256.070312 L 170.851562 233.460938 C 170.871094 233.242188 170.929688 233.039062 171.027344 232.847656 C 171.128906 232.65625 171.261719 232.492188 171.425781 232.351562 C 171.589844 232.214844 171.777344 232.113281 171.984375 232.046875 C 172.1875 231.984375 172.398438 231.960938 172.613281 231.980469 C 172.828125 231.988281 173.03125 232.035156 173.230469 232.121094 C 173.425781 232.207031 173.597656 232.328125 173.75 232.480469 C 173.898438 232.628906 174.015625 232.804688 174.101562 233 C 174.1875 233.199219 174.234375 233.402344 174.242188 233.617188 L 174.242188 246.402344 C 174.488281 247.363281 173.839844 248.613281 172.480469 249.398438 L 132.542969 272.472656 C 132.3125 272.601562 132.0625 272.675781 131.800781 272.6875 Z M 88.054688 245.269531 C 89.449219 245.246094 90.761719 245.570312 91.988281 246.238281 L 131.71875 269.1875 L 170.851562 246.578125 L 170.949219 237.164062 L 132.542969 259.355469 C 132.308594 259.484375 132.0625 259.558594 131.796875 259.570312 C 131.480469 259.570312 131.183594 259.5 130.902344 259.359375 L 90.363281 235.945312 C 89.640625 235.5625 88.871094 235.386719 88.054688 235.410156 C 86.421875 235.410156 85.441406 236.015625 85.34375 236.25 C 84.933594 240.089844 82.210938 243.660156 77.675781 246.28125 C 72.96875 248.996094 66.734375 250.492188 60.125 250.492188 C 53.089844 250.492188 46.539062 248.828125 41.683594 245.800781 C 40.324219 244.96875 39.09375 243.980469 37.988281 242.835938 L 37.988281 246.8125 C 37.429688 250.359375 39.410156 253.667969 43.402344 256.152344 C 47.6875 258.824219 53.78125 260.355469 60.125 260.355469 C 66.171875 260.355469 71.828125 259.015625 76.046875 256.574219 C 79.660156 254.488281 81.816406 251.796875 82.113281 248.996094 C 82.347656 246.800781 84.789062 245.269531 88.054688 245.269531 Z M 88.054688 245.269531 " fill-opacity="1" fill-rule="nonzero"/><path fill="#6e8a93" d="M 281.308594 221.171875 C 275.3125 221.503906 269.503906 223.09375 265.148438 225.9375 C 260.054688 229.269531 258.269531 234.023438 259.761719 238.375 C 259.386719 239.445312 259.21875 240.546875 259.253906 241.679688 C 259.289062 242.816406 259.527344 243.902344 259.964844 244.949219 C 261.085938 242.445312 262.8125 240.480469 265.148438 239.054688 C 269.503906 236.207031 275.3125 234.621094 281.308594 234.289062 C 283.203125 234.183594 284.402344 233.300781 284.4375 232.367188 L 284.4375 219.410156 C 284.277344 220.28125 283.09375 221.074219 281.308594 221.171875 Z M 281.308594 221.171875 " fill-opacity="1" fill-rule="nonzero"/><path fill="#000000" d="M 259.96875 246.578125 C 259.640625 246.578125 259.335938 246.484375 259.0625 246.300781 C 258.789062 246.121094 258.589844 245.875 258.464844 245.570312 C 257.984375 244.433594 257.707031 243.246094 257.636719 242.011719 C 257.566406 240.773438 257.707031 239.5625 258.054688 238.375 C 256.585938 233.300781 258.925781 228.058594 264.261719 224.574219 C 268.671875 221.695312 274.695312 219.90625 281.21875 219.550781 C 281.839844 219.578125 282.390625 219.398438 282.875 219.007812 C 282.914062 218.8125 282.988281 218.632812 283.097656 218.464844 C 283.203125 218.296875 283.335938 218.15625 283.496094 218.039062 C 283.65625 217.921875 283.832031 217.835938 284.023438 217.785156 C 284.214844 217.730469 284.40625 217.714844 284.605469 217.734375 C 284.808594 217.757812 285 217.820312 285.183594 217.914062 C 285.363281 218.011719 285.519531 218.136719 285.65625 218.292969 C 285.792969 218.445312 285.894531 218.621094 285.964844 218.8125 C 286.035156 219.003906 286.070312 219.203125 286.066406 219.410156 L 286.066406 232.367188 C 285.996094 234.332031 284.078125 235.765625 281.398438 235.914062 C 275.433594 236.246094 269.980469 237.84375 266.039062 240.417969 C 263.988281 241.664062 262.46875 243.382812 261.472656 245.566406 C 261.347656 245.871094 261.148438 246.117188 260.875 246.300781 C 260.601562 246.484375 260.296875 246.578125 259.96875 246.578125 Z M 282.84375 222.582031 C 282.367188 222.703125 281.886719 222.773438 281.398438 222.796875 C 275.433594 223.128906 269.980469 224.726562 266.039062 227.300781 C 261.765625 230.09375 259.992188 234.035156 261.296875 237.847656 C 261.421875 238.199219 261.421875 238.554688 261.296875 238.90625 C 261.121094 239.425781 261 239.953125 260.929688 240.496094 C 261.921875 239.421875 263.03125 238.484375 264.261719 237.691406 C 268.671875 234.8125 274.695312 233.023438 281.21875 232.667969 C 281.828125 232.695312 282.371094 232.519531 282.84375 232.128906 Z M 282.84375 222.582031 " fill-opacity="1" fill-rule="nonzero"/><path fill="#6e8a93" d="M 222.179688 272.597656 C 212.585938 266.214844 195.875 265.925781 185.769531 271.765625 C 181.542969 274.207031 179.171875 277.3125 178.652344 280.511719 C 178.382812 282.171875 174.953125 282.914062 172.90625 281.730469 L 132.722656 258.519531 L 132.722656 271.617188 L 132.707031 271.625 L 132.71875 271.625 L 172.90625 294.847656 C 174.953125 296.03125 178.382812 295.289062 178.652344 293.625 C 179.171875 290.429688 181.542969 287.320312 185.769531 284.878906 C 195.875 279.042969 212.585938 279.328125 222.179688 285.710938 C 224.488281 287.148438 226.195312 289.109375 227.304688 291.589844 C 227.742188 290.546875 227.980469 289.457031 228.015625 288.328125 C 228.050781 287.195312 227.882812 286.09375 227.507812 285.023438 C 228.992188 280.699219 227.234375 275.957031 222.179688 272.597656 Z M 222.179688 272.597656 " fill-opacity="1" fill-rule="nonzero"/><path fill="#000000" d="M 175.269531 297.054688 C 174.140625 297.070312 173.082031 296.804688 172.09375 296.261719 L 131.902344 273.042969 C 131.609375 272.875 131.390625 272.636719 131.246094 272.332031 C 131.195312 272.222656 131.15625 272.113281 131.125 271.996094 C 131.089844 271.832031 131.078125 271.664062 131.09375 271.496094 L 131.09375 258.519531 C 131.09375 258.375 131.109375 258.234375 131.148438 258.097656 C 131.1875 257.960938 131.238281 257.828125 131.3125 257.703125 C 131.382812 257.582031 131.46875 257.46875 131.570312 257.367188 C 131.671875 257.265625 131.785156 257.179688 131.90625 257.109375 C 132.03125 257.039062 132.164062 256.984375 132.300781 256.945312 C 132.4375 256.910156 132.578125 256.890625 132.722656 256.890625 C 132.867188 256.890625 133.007812 256.910156 133.144531 256.945312 C 133.28125 256.980469 133.414062 257.035156 133.539062 257.109375 L 173.71875 280.320312 C 174.207031 280.574219 174.722656 280.695312 175.269531 280.679688 C 175.941406 280.734375 176.542969 280.558594 177.078125 280.152344 C 177.664062 276.457031 180.476562 272.941406 184.957031 270.351562 C 189.859375 267.519531 196.359375 265.960938 203.253906 265.960938 C 210.808594 265.960938 218.035156 267.882812 223.082031 271.238281 C 228.355469 274.75 230.671875 279.988281 229.21875 285.023438 C 229.5625 286.210938 229.703125 287.421875 229.632812 288.65625 C 229.558594 289.890625 229.285156 291.078125 228.808594 292.214844 C 228.679688 292.519531 228.480469 292.761719 228.207031 292.945312 C 227.933594 293.128906 227.628906 293.21875 227.300781 293.21875 C 226.972656 293.21875 226.667969 293.128906 226.394531 292.945312 C 226.121094 292.761719 225.921875 292.515625 225.796875 292.210938 C 224.808594 290.039062 223.304688 288.324219 221.277344 287.070312 C 216.753906 284.058594 210.183594 282.332031 203.253906 282.332031 C 196.921875 282.332031 191 283.742188 186.585938 286.292969 C 182.960938 288.382812 180.714844 291.078125 180.257812 293.890625 C 179.953125 295.75 177.902344 297.054688 175.269531 297.054688 Z M 134.347656 270.691406 L 173.71875 293.4375 C 174.207031 293.691406 174.722656 293.8125 175.269531 293.796875 C 175.941406 293.851562 176.542969 293.675781 177.078125 293.269531 C 177.664062 289.574219 180.476562 286.058594 184.957031 283.46875 C 189.859375 280.636719 196.359375 279.078125 203.253906 279.078125 C 210.808594 279.078125 218.035156 281 223.082031 284.355469 C 224.28125 285.144531 225.367188 286.070312 226.335938 287.128906 C 226.269531 286.589844 226.148438 286.066406 225.972656 285.554688 C 225.851562 285.203125 225.851562 284.847656 225.972656 284.496094 C 227.269531 280.710938 225.515625 276.765625 221.277344 273.953125 C 216.753906 270.941406 210.183594 269.214844 203.253906 269.214844 C 196.921875 269.214844 191 270.625 186.585938 273.175781 C 182.960938 275.265625 180.714844 277.960938 180.257812 280.773438 C 179.953125 282.632812 177.902344 283.9375 175.269531 283.9375 C 174.140625 283.953125 173.082031 283.6875 172.09375 283.144531 L 134.347656 261.339844 Z M 134.347656 270.691406 " fill-opacity="1" fill-rule="nonzero"/><path fill="#6e8a93" d="M 354.550781 272.027344 L 354.542969 272.023438 L 354.542969 258.925781 L 314.277344 282.1875 C 311.671875 283.691406 313.273438 286.351562 316.960938 286.496094 C 317.03125 286.5 317.101562 286.507812 317.175781 286.511719 L 314.277344 288.183594 C 311.671875 289.6875 313.273438 292.351562 316.960938 292.496094 C 317.617188 292.519531 318.269531 292.566406 318.917969 292.621094 L 354.5625 272.03125 L 354.542969 272.03125 Z M 354.550781 272.027344 " fill-opacity="1" fill-rule="nonzero"/><g clip-path="url(#67145a7a43)"><path fill="#000000" d="M 318.917969 294.25 C 318.867188 294.25 318.820312 294.246094 318.769531 294.242188 C 318.152344 294.1875 317.523438 294.144531 316.898438 294.125 C 314.121094 294.011719 311.9375 292.648438 311.460938 290.726562 C 311.382812 290.367188 311.359375 290 311.398438 289.632812 C 311.4375 289.265625 311.53125 288.914062 311.679688 288.574219 C 311.832031 288.238281 312.03125 287.933594 312.28125 287.660156 C 312.527344 287.386719 312.8125 287.15625 313.132812 286.976562 C 312.285156 286.445312 311.726562 285.695312 311.460938 284.726562 C 311.085938 283.195312 311.832031 281.71875 313.464844 280.777344 L 353.730469 257.515625 C 353.980469 257.367188 354.253906 257.296875 354.542969 257.296875 C 354.835938 257.296875 355.105469 257.371094 355.355469 257.515625 C 355.609375 257.660156 355.808594 257.859375 355.953125 258.113281 C 356.097656 258.363281 356.171875 258.636719 356.167969 258.925781 L 356.167969 271.839844 C 356.210938 272.164062 356.15625 272.46875 356.015625 272.761719 C 355.871094 273.050781 355.65625 273.277344 355.378906 273.441406 L 319.730469 294.035156 C 319.480469 294.175781 319.207031 294.25 318.917969 294.25 Z M 352.914062 261.746094 L 315.089844 283.601562 C 314.691406 283.828125 314.617188 284.003906 314.617188 284.003906 C 314.667969 284.128906 315.363281 284.804688 317.023438 284.867188 C 317.398438 284.882812 317.738281 285.003906 318.035156 285.234375 C 318.332031 285.460938 318.535156 285.753906 318.648438 286.113281 C 318.753906 286.457031 318.746094 286.796875 318.625 287.132812 C 318.5 287.46875 318.289062 287.730469 317.988281 287.925781 L 315.089844 289.59375 C 314.894531 289.6875 314.738281 289.820312 314.617188 290 C 314.667969 290.128906 315.359375 290.804688 317.023438 290.867188 C 317.535156 290.886719 318.042969 290.917969 318.546875 290.957031 L 352.914062 271.101562 Z M 352.914062 261.746094 " fill-opacity="1" fill-rule="nonzero"/></g><path fill="#6e8a93" d="M 203.808594 299.578125 C 203.421875 299.378906 203.132812 299.085938 202.941406 298.699219 L 202.941406 310.859375 C 202.667969 311.472656 202.882812 312.160156 203.808594 312.695312 L 243.988281 335.90625 L 243.988281 322.789062 Z M 203.808594 299.578125 " fill-opacity="1" fill-rule="nonzero"/><g clip-path="url(#9f40152dbd)"><path fill="#000000" d="M 243.988281 337.53125 C 243.699219 337.53125 243.425781 337.460938 243.175781 337.316406 L 202.992188 314.109375 C 201.28125 313.117188 201.003906 311.675781 201.3125 310.585938 L 201.3125 298.699219 C 201.3125 298.316406 201.433594 297.976562 201.675781 297.675781 C 201.914062 297.378906 202.222656 297.191406 202.59375 297.109375 C 202.96875 297.027344 203.324219 297.070312 203.667969 297.242188 C 204.011719 297.414062 204.261719 297.671875 204.421875 298.019531 L 244.800781 321.378906 C 245.054688 321.527344 245.253906 321.726562 245.398438 321.976562 C 245.542969 322.230469 245.617188 322.5 245.617188 322.792969 L 245.617188 335.90625 C 245.617188 336.121094 245.574219 336.328125 245.492188 336.527344 C 245.410156 336.726562 245.292969 336.902344 245.140625 337.058594 C 244.988281 337.210938 244.8125 337.328125 244.613281 337.410156 C 244.414062 337.492188 244.207031 337.53125 243.988281 337.53125 Z M 204.535156 311.199219 L 242.363281 333.082031 L 242.363281 323.734375 L 204.570312 301.898438 L 204.570312 310.859375 C 204.566406 310.976562 204.558594 311.089844 204.535156 311.199219 Z M 204.535156 311.199219 " fill-opacity="1" fill-rule="nonzero"/></g><path fill="#6e8a93" d="M 339.257812 300.792969 C 339.039062 304.296875 336.535156 307.753906 331.699219 310.34375 C 322.726562 315.144531 308.371094 315.113281 299.355469 310.269531 C 294.671875 307.757812 292.128906 304.441406 291.734375 301.066406 C 291.484375 298.933594 286.9375 297.980469 284.328125 299.488281 L 243.988281 322.789062 L 243.988281 335.90625 L 284.328125 312.601562 C 286.9375 311.097656 291.484375 312.050781 291.734375 314.183594 C 292.128906 317.558594 294.671875 320.875 299.355469 323.386719 C 308.371094 328.230469 322.726562 328.261719 331.699219 323.457031 C 336.539062 320.871094 339.042969 317.410156 339.257812 313.90625 L 339.269531 313.90625 L 339.269531 313.796875 C 339.277344 313.628906 339.273438 313.460938 339.269531 313.292969 L 339.269531 300.789062 Z M 339.257812 300.792969 " fill-opacity="1" fill-rule="nonzero"/><g clip-path="url(#15387d2d08)"><path fill="#000000" d="M 243.988281 337.53125 C 243.773438 337.53125 243.566406 337.492188 243.367188 337.410156 C 243.167969 337.328125 242.988281 337.210938 242.835938 337.058594 C 242.683594 336.902344 242.566406 336.726562 242.484375 336.527344 C 242.402344 336.328125 242.363281 336.121094 242.363281 335.90625 L 242.363281 322.792969 C 242.363281 322.5 242.433594 322.230469 242.582031 321.976562 C 242.726562 321.726562 242.925781 321.527344 243.175781 321.378906 L 283.515625 298.074219 C 284.71875 297.421875 286.003906 297.105469 287.371094 297.125 C 290.042969 297.125 293.050781 298.300781 293.351562 300.875 C 293.699219 303.851562 296.101562 306.679688 300.125 308.839844 C 304.277344 311.070312 309.789062 312.292969 315.636719 312.292969 C 321.414062 312.292969 326.847656 311.09375 330.933594 308.90625 C 335.0625 306.699219 337.445312 303.777344 337.636719 300.691406 C 337.652344 300.398438 337.742188 300.132812 337.902344 299.890625 C 338.0625 299.648438 338.273438 299.460938 338.535156 299.332031 C 339.074219 299.066406 339.605469 299.089844 340.117188 299.40625 C 340.632812 299.722656 340.890625 300.183594 340.894531 300.789062 C 340.894531 300.789062 340.902344 313.671875 340.894531 313.878906 C 340.890625 313.921875 340.882812 314.007812 340.882812 314.007812 C 340.617188 318.269531 337.632812 322.132812 332.464844 324.894531 C 327.917969 327.328125 321.941406 328.667969 315.636719 328.667969 C 309.261719 328.667969 303.207031 327.300781 298.589844 324.820312 C 293.601562 322.148438 290.597656 318.4375 290.121094 314.375 C 290.027344 314.117188 288.980469 313.492188 287.375 313.492188 C 286.585938 313.472656 285.84375 313.644531 285.144531 314.011719 L 244.800781 337.316406 C 244.550781 337.460938 244.28125 337.53125 243.988281 337.53125 Z M 245.617188 323.734375 L 245.617188 333.085938 L 283.515625 311.191406 C 284.71875 310.535156 286.007812 310.21875 287.375 310.238281 C 290.042969 310.238281 293.050781 311.417969 293.351562 313.996094 C 293.699219 316.96875 296.105469 319.796875 300.125 321.957031 C 304.277344 324.183594 309.789062 325.410156 315.636719 325.410156 C 321.414062 325.410156 326.847656 324.207031 330.933594 322.019531 C 335.0625 319.8125 337.445312 316.894531 337.636719 313.804688 C 337.632812 313.78125 337.636719 313.761719 337.640625 313.738281 L 337.640625 307.917969 C 336.125 309.488281 334.402344 310.777344 332.464844 311.78125 C 327.917969 314.210938 321.941406 315.550781 315.636719 315.550781 C 309.257812 315.550781 303.203125 314.183594 298.582031 311.703125 C 293.601562 309.03125 290.597656 305.320312 290.121094 301.257812 C 290.027344 301.003906 288.976562 300.382812 287.371094 300.382812 C 286.582031 300.359375 285.839844 300.53125 285.144531 300.898438 Z M 245.617188 323.734375 " fill-opacity="1" fill-rule="nonzero"/></g><path fill="#ffffff" d="M 265.148438 225.9375 C 269.503906 223.09375 275.3125 221.503906 281.308594 221.171875 C 284.203125 221.011719 285.527344 219.039062 283.464844 217.84375 L 243.28125 194.632812 L 202.941406 217.9375 C 200.332031 219.445312 195.785156 218.492188 195.535156 216.355469 C 195.140625 212.980469 192.601562 209.667969 187.914062 207.152344 C 178.898438 202.3125 164.542969 202.28125 155.570312 207.082031 C 145.636719 212.394531 145.460938 221.386719 155.003906 226.902344 C 159.273438 229.367188 164.742188 230.710938 170.308594 230.925781 C 173.996094 231.070312 175.597656 233.734375 172.992188 235.238281 L 132.707031 258.507812 L 132.726562 258.511719 L 132.71875 258.515625 L 172.90625 281.730469 C 174.957031 282.914062 178.382812 282.171875 178.652344 280.511719 C 179.175781 277.3125 181.542969 274.207031 185.769531 271.765625 C 195.875 265.925781 212.582031 266.214844 222.179688 272.597656 C 230.015625 277.808594 229.984375 286.347656 222.121094 291.488281 C 217.765625 294.332031 211.957031 295.917969 205.964844 296.25 C 203.070312 296.414062 201.742188 298.386719 203.808594 299.578125 L 243.988281 322.789062 L 284.328125 299.488281 C 286.9375 297.980469 291.484375 298.933594 291.734375 301.066406 C 292.128906 304.441406 294.671875 307.757812 299.355469 310.269531 C 308.371094 315.113281 322.726562 315.144531 331.699219 310.34375 C 341.636719 305.027344 341.808594 296.035156 332.265625 290.523438 C 327.996094 288.058594 322.527344 286.714844 316.960938 286.496094 C 313.273438 286.351562 311.671875 283.691406 314.277344 282.1875 L 354.5625 258.914062 L 354.546875 258.914062 L 354.554688 258.910156 L 314.363281 235.695312 C 312.316406 234.511719 308.886719 235.253906 308.617188 236.914062 C 308.097656 240.109375 305.726562 243.21875 301.5 245.660156 C 291.394531 251.496094 274.6875 251.210938 265.089844 244.828125 C 257.253906 239.617188 257.285156 231.078125 265.148438 225.9375 Z M 265.148438 225.9375 " fill-opacity="1" fill-rule="nonzero"/><g clip-path="url(#cc4c717d01)"><path fill="#000000" d="M 243.988281 324.417969 C 243.699219 324.417969 243.425781 324.347656 243.175781 324.203125 L 202.992188 300.992188 C 201.589844 300.175781 200.9375 298.90625 201.253906 297.578125 C 201.648438 295.921875 203.460938 294.757812 205.875 294.628906 C 211.839844 294.296875 217.292969 292.699219 221.230469 290.125 C 224.554688 287.949219 226.394531 285.089844 226.40625 282.070312 C 226.421875 279.046875 224.597656 276.160156 221.277344 273.953125 C 216.753906 270.941406 210.183594 269.214844 203.253906 269.214844 C 196.921875 269.214844 191 270.625 186.585938 273.175781 C 182.960938 275.265625 180.714844 277.960938 180.257812 280.773438 C 179.953125 282.632812 177.902344 283.9375 175.269531 283.9375 C 174.140625 283.953125 173.082031 283.6875 172.09375 283.144531 L 131.902344 259.925781 C 131.777344 259.855469 131.664062 259.769531 131.566406 259.667969 C 131.464844 259.566406 131.378906 259.453125 131.304688 259.328125 C 131.234375 259.203125 131.179688 259.074219 131.144531 258.933594 C 131.105469 258.796875 131.085938 258.65625 131.085938 258.511719 C 131.085938 258.371094 131.105469 258.230469 131.140625 258.089844 C 131.175781 257.953125 131.230469 257.820312 131.300781 257.695312 C 131.371094 257.574219 131.457031 257.460938 131.558594 257.355469 C 131.660156 257.253906 131.769531 257.167969 131.894531 257.09375 L 172.179688 233.824219 C 172.582031 233.597656 172.652344 233.421875 172.652344 233.421875 C 172.601562 233.289062 171.90625 232.621094 170.246094 232.554688 C 164.210938 232.3125 158.511719 230.808594 154.191406 228.308594 C 149.066406 225.351562 146.285156 221.320312 146.355469 216.96875 C 146.425781 212.542969 149.425781 208.523438 154.804688 205.644531 C 159.351562 203.214844 165.332031 201.875 171.636719 201.875 C 178.011719 201.875 184.066406 203.238281 188.6875 205.71875 C 193.671875 208.394531 196.675781 212.105469 197.148438 216.164062 C 197.242188 216.421875 198.292969 217.042969 199.898438 217.042969 C 200.6875 217.066406 201.429688 216.894531 202.128906 216.527344 L 242.46875 193.222656 C 242.71875 193.078125 242.992188 193.003906 243.28125 193.003906 C 243.570312 193.003906 243.84375 193.078125 244.09375 193.222656 L 284.277344 216.433594 C 285.679688 217.246094 286.332031 218.519531 286.015625 219.847656 C 285.621094 221.503906 283.808594 222.664062 281.398438 222.796875 C 275.429688 223.128906 269.976562 224.726562 266.039062 227.300781 C 262.710938 229.472656 260.871094 232.335938 260.859375 235.355469 C 260.84375 238.382812 262.671875 241.265625 265.992188 243.472656 C 270.515625 246.484375 277.085938 248.207031 284.015625 248.207031 C 290.351562 248.207031 296.269531 246.800781 300.683594 244.25 C 304.308594 242.160156 306.554688 239.460938 307.011719 236.652344 C 307.3125 234.789062 309.359375 233.488281 311.996094 233.488281 C 313.125 233.46875 314.1875 233.734375 315.175781 234.28125 L 355.363281 257.496094 C 355.488281 257.570312 355.601562 257.65625 355.703125 257.757812 C 355.804688 257.859375 355.890625 257.972656 355.960938 258.09375 C 356.035156 258.21875 356.085938 258.347656 356.125 258.488281 C 356.164062 258.625 356.183594 258.765625 356.183594 258.910156 C 356.183594 259.054688 356.164062 259.195312 356.128906 259.332031 C 356.09375 259.472656 356.039062 259.601562 355.96875 259.726562 C 355.898438 259.851562 355.8125 259.964844 355.710938 260.066406 C 355.613281 260.167969 355.5 260.257812 355.378906 260.328125 L 315.089844 283.601562 C 314.6875 283.828125 314.617188 284.003906 314.617188 284.003906 C 314.667969 284.136719 315.363281 284.804688 317.023438 284.867188 C 323.058594 285.109375 328.761719 286.613281 333.082031 289.117188 C 338.203125 292.070312 340.988281 296.101562 340.914062 300.457031 C 340.84375 304.882812 337.84375 308.902344 332.464844 311.78125 C 327.917969 314.210938 321.941406 315.550781 315.636719 315.550781 C 309.257812 315.550781 303.203125 314.183594 298.582031 311.707031 C 293.601562 309.035156 290.597656 305.320312 290.121094 301.257812 C 290.027344 301.003906 288.976562 300.382812 287.371094 300.382812 C 286.582031 300.359375 285.839844 300.53125 285.144531 300.898438 L 244.800781 324.203125 C 244.550781 324.347656 244.28125 324.417969 243.988281 324.417969 Z M 204.722656 298.1875 L 243.988281 320.910156 L 283.515625 298.074219 C 284.71875 297.421875 286.003906 297.105469 287.371094 297.125 C 290.042969 297.125 293.050781 298.300781 293.351562 300.875 C 293.699219 303.851562 296.105469 306.679688 300.125 308.839844 C 304.28125 311.070312 309.789062 312.292969 315.636719 312.292969 C 321.414062 312.292969 326.847656 311.09375 330.933594 308.90625 C 335.21875 306.613281 337.609375 303.59375 337.660156 300.40625 C 337.710938 297.285156 335.507812 294.277344 331.453125 291.933594 C 327.578125 289.691406 322.410156 288.339844 316.898438 288.125 C 314.117188 288.015625 311.9375 286.648438 311.460938 284.726562 C 311.085938 283.195312 311.832031 281.71875 313.464844 280.777344 L 351.304688 258.921875 L 313.550781 237.105469 C 313.0625 236.851562 312.542969 236.730469 311.996094 236.746094 C 311.328125 236.695312 310.730469 236.867188 310.195312 237.265625 C 309.605469 240.96875 306.796875 244.480469 302.3125 247.074219 C 297.410156 249.90625 290.910156 251.464844 284.015625 251.464844 C 276.460938 251.464844 269.234375 249.539062 264.1875 246.1875 C 259.925781 243.351562 257.585938 239.496094 257.605469 235.339844 C 257.621094 231.191406 259.984375 227.367188 264.261719 224.574219 C 268.667969 221.695312 274.695312 219.910156 281.21875 219.550781 C 281.683594 219.535156 282.128906 219.429688 282.550781 219.234375 L 243.28125 196.515625 L 203.753906 219.351562 C 202.550781 220.003906 201.265625 220.320312 199.898438 220.300781 C 197.230469 220.300781 194.222656 219.125 193.921875 216.546875 C 193.574219 213.570312 191.164062 210.742188 187.144531 208.585938 C 182.992188 206.355469 177.484375 205.128906 171.636719 205.128906 C 165.855469 205.128906 160.421875 206.328125 156.339844 208.519531 C 152.050781 210.8125 149.660156 213.828125 149.609375 217.019531 C 149.558594 220.136719 151.761719 223.148438 155.816406 225.488281 C 159.691406 227.730469 164.859375 229.082031 170.371094 229.300781 C 173.152344 229.410156 175.335938 230.777344 175.808594 232.695312 C 176.1875 234.230469 175.4375 235.707031 173.804688 236.648438 L 135.957031 258.507812 L 173.71875 280.320312 C 174.207031 280.574219 174.722656 280.695312 175.269531 280.679688 C 175.941406 280.734375 176.542969 280.558594 177.078125 280.152344 C 177.664062 276.457031 180.476562 272.941406 184.957031 270.351562 C 189.859375 267.519531 196.359375 265.960938 203.253906 265.960938 C 210.808594 265.960938 218.035156 267.882812 223.082031 271.238281 C 227.34375 274.078125 229.683594 277.929688 229.664062 282.085938 C 229.644531 286.234375 227.28125 290.058594 223.007812 292.851562 C 218.601562 295.730469 212.578125 297.515625 206.050781 297.875 C 205.585938 297.890625 205.144531 297.992188 204.722656 298.1875 Z M 204.722656 298.1875 " fill-opacity="1" fill-rule="nonzero"/></g><path fill="#ffffff" d="M 185.246094 142.371094 C 195.261719 136.585938 211.769531 136.816406 221.402344 143.039062 C 229.191406 148.066406 229.355469 157.023438 221.597656 162.09375 C 217.242188 164.941406 211.433594 166.527344 205.4375 166.859375 C 202.542969 167.019531 201.21875 168.996094 203.28125 170.1875 L 243.464844 193.398438 L 283.804688 170.09375 C 286.414062 168.585938 290.960938 169.539062 291.210938 171.675781 C 291.605469 175.050781 294.144531 178.367188 298.828125 180.878906 C 307.847656 185.71875 322.199219 185.75 331.175781 180.949219 C 341.109375 175.636719 341.285156 166.644531 331.742188 161.128906 C 327.472656 158.664062 322.003906 157.324219 316.4375 157.105469 C 312.75 156.960938 311.148438 154.300781 313.753906 152.792969 L 354.039062 129.523438 L 251.6875 70.398438 C 250.332031 69.617188 248.898438 69.023438 247.386719 68.617188 C 245.875 68.210938 244.335938 68.007812 242.769531 68.007812 C 241.203125 68.007812 239.664062 68.210938 238.152344 68.617188 C 236.640625 69.023438 235.207031 69.617188 233.851562 70.398438 L 132.191406 129.121094 L 172.382812 152.335938 C 174.429688 153.519531 177.859375 152.777344 178.128906 151.117188 C 178.648438 147.921875 181.019531 144.8125 185.246094 142.371094 Z M 185.246094 142.371094 " fill-opacity="1" fill-rule="nonzero"/><path fill="#000000" d="M 243.464844 195.027344 C 243.171875 195.027344 242.902344 194.957031 242.648438 194.8125 L 202.472656 171.597656 C 201.0625 170.789062 200.410156 169.511719 200.730469 168.1875 C 201.125 166.527344 202.9375 165.367188 205.347656 165.234375 C 211.320312 164.902344 216.773438 163.300781 220.707031 160.730469 C 223.9375 158.621094 225.714844 155.75 225.703125 152.648438 C 225.695312 149.53125 223.804688 146.527344 220.523438 144.40625 C 216.007812 141.492188 209.527344 139.824219 202.730469 139.824219 C 196.398438 139.824219 190.480469 141.230469 186.058594 143.785156 C 182.4375 145.878906 180.191406 148.574219 179.738281 151.375 C 179.433594 153.242188 177.382812 154.542969 174.75 154.542969 C 173.617188 154.5625 172.558594 154.296875 171.566406 153.75 L 131.378906 130.535156 C 131.257812 130.464844 131.144531 130.375 131.042969 130.277344 C 130.941406 130.175781 130.855469 130.0625 130.785156 129.9375 C 130.714844 129.8125 130.660156 129.683594 130.621094 129.542969 C 130.585938 129.40625 130.566406 129.265625 130.566406 129.121094 C 130.566406 128.980469 130.585938 128.839844 130.621094 128.703125 C 130.660156 128.5625 130.714844 128.433594 130.785156 128.308594 C 130.855469 128.183594 130.941406 128.070312 131.042969 127.96875 C 131.144531 127.871094 131.257812 127.78125 131.378906 127.710938 L 233.035156 68.988281 C 234.519531 68.152344 236.089844 67.515625 237.738281 67.082031 C 239.386719 66.648438 241.0625 66.433594 242.769531 66.433594 C 244.472656 66.433594 246.152344 66.648438 247.800781 67.082031 C 249.449219 67.515625 251.015625 68.152344 252.503906 68.988281 L 354.851562 128.109375 C 354.976562 128.179688 355.089844 128.269531 355.1875 128.367188 C 355.289062 128.46875 355.375 128.582031 355.449219 128.707031 C 355.519531 128.832031 355.574219 128.960938 355.609375 129.101562 C 355.648438 129.238281 355.664062 129.378906 355.664062 129.519531 C 355.664062 129.664062 355.648438 129.804688 355.609375 129.941406 C 355.574219 130.082031 355.519531 130.210938 355.449219 130.335938 C 355.375 130.460938 355.289062 130.574219 355.1875 130.675781 C 355.089844 130.773438 354.976562 130.863281 354.851562 130.933594 L 314.566406 154.207031 C 314.164062 154.4375 314.09375 154.613281 314.09375 154.613281 C 314.144531 154.742188 314.839844 155.414062 316.5 155.476562 C 322.53125 155.71875 328.234375 157.222656 332.554688 159.714844 C 337.683594 162.679688 340.464844 166.710938 340.394531 171.066406 C 340.320312 175.488281 337.320312 179.511719 331.945312 182.386719 C 327.394531 184.816406 321.414062 186.15625 315.105469 186.15625 C 308.730469 186.15625 302.675781 184.792969 298.058594 182.3125 C 293.074219 179.636719 290.070312 175.929688 289.597656 171.867188 C 289.503906 171.609375 288.457031 170.988281 286.851562 170.988281 C 286.0625 170.96875 285.316406 171.140625 284.617188 171.507812 L 244.277344 194.8125 C 244.023438 194.957031 243.753906 195.027344 243.464844 195.027344 Z M 204.199219 168.792969 L 243.464844 191.515625 L 282.988281 168.683594 C 284.195312 168.027344 285.480469 167.710938 286.851562 167.734375 C 289.515625 167.734375 292.523438 168.90625 292.824219 171.484375 C 293.171875 174.460938 295.578125 177.289062 299.601562 179.445312 C 303.753906 181.675781 309.257812 182.902344 315.105469 182.902344 C 320.890625 182.902344 326.320312 181.699219 330.410156 179.511719 C 334.699219 177.222656 337.085938 174.203125 337.140625 171.015625 C 337.191406 167.890625 334.984375 164.878906 330.925781 162.539062 C 327.054688 160.300781 321.886719 158.949219 316.371094 158.730469 C 313.59375 158.621094 311.410156 157.257812 310.9375 155.335938 C 310.558594 153.800781 311.308594 152.324219 312.941406 151.386719 L 350.785156 129.519531 L 250.875 71.8125 C 249.640625 71.113281 248.332031 70.582031 246.960938 70.21875 C 245.585938 69.855469 244.1875 69.675781 242.769531 69.675781 C 241.347656 69.675781 239.953125 69.855469 238.578125 70.21875 C 237.203125 70.582031 235.898438 71.113281 234.664062 71.8125 L 135.449219 129.121094 L 173.195312 150.925781 C 173.683594 151.183594 174.199219 151.304688 174.75 151.289062 C 175.417969 151.339844 176.019531 151.164062 176.554688 150.761719 C 177.140625 147.070312 179.945312 143.550781 184.433594 140.960938 C 189.339844 138.125 195.835938 136.566406 202.730469 136.566406 C 210.136719 136.566406 217.265625 138.429688 222.285156 141.667969 C 226.515625 144.398438 228.945312 148.398438 228.960938 152.640625 C 228.972656 156.820312 226.613281 160.761719 222.488281 163.457031 C 218.082031 166.332031 212.058594 168.117188 205.527344 168.484375 C 205.0625 168.5 204.621094 168.601562 204.199219 168.792969 Z M 204.199219 168.792969 " fill-opacity="1" fill-rule="nonzero"/><path fill="#ffffff" d="M 185.886719 142.871094 C 181.648438 145.320312 179.359375 148.472656 179.015625 151.6875 C 178.789062 153.816406 174.191406 154.726562 171.570312 153.210938 L 131.03125 129.792969 L 20.445312 193.671875 L 61.039062 217.121094 C 63.664062 218.636719 62.042969 221.261719 58.351562 221.390625 C 52.507812 221.597656 46.785156 223.042969 42.464844 225.734375 C 34.140625 230.914062 34.175781 239.203125 42.542969 244.417969 C 51.804688 250.191406 67.375 250.347656 76.859375 244.871094 C 81.101562 242.421875 83.390625 239.269531 83.730469 236.054688 C 83.957031 233.925781 88.554688 233.015625 91.175781 234.53125 L 131.714844 257.949219 L 131.714844 257.9375 L 131.726562 257.941406 L 171.664062 234.871094 C 173.703125 233.695312 172.394531 231.710938 169.519531 231.542969 C 163.980469 231.222656 158.585938 229.835938 154.332031 227.378906 C 144.164062 221.503906 144.554688 211.855469 155.542969 206.351562 C 164.515625 201.859375 179.300781 201.929688 188.246094 206.503906 C 193.199219 209.035156 195.984375 212.402344 196.597656 215.867188 C 196.894531 217.539062 200.320312 218.320312 202.371094 217.132812 L 242.300781 194.070312 L 201.707031 170.617188 C 199.082031 169.101562 200.703125 166.480469 204.398438 166.351562 C 210.238281 166.144531 215.960938 164.695312 220.285156 162.007812 C 228.609375 156.828125 228.570312 148.535156 220.203125 143.320312 C 210.941406 137.550781 195.375 137.394531 185.886719 142.871094 Z M 185.886719 142.871094 " fill-opacity="1" fill-rule="nonzero"/><g clip-path="url(#180e4c8fee)"><path fill="#000000" d="M 131.707031 259.570312 C 131.417969 259.570312 131.152344 259.5 130.902344 259.359375 L 90.363281 235.945312 C 89.640625 235.5625 88.871094 235.386719 88.054688 235.410156 C 86.421875 235.410156 85.441406 236.015625 85.34375 236.25 C 84.933594 240.089844 82.210938 243.660156 77.675781 246.28125 C 72.96875 248.996094 66.734375 250.492188 60.125 250.492188 C 53.089844 250.492188 46.539062 248.828125 41.683594 245.800781 C 37.125 242.960938 34.613281 239.136719 34.613281 235.027344 C 34.621094 230.949219 37.097656 227.15625 41.601562 224.351562 C 46 221.617188 51.929688 219.988281 58.292969 219.765625 C 59.890625 219.710938 60.613281 219.085938 60.699219 218.886719 C 60.554688 218.75 60.398438 218.632812 60.226562 218.535156 L 19.632812 195.085938 C 19.511719 195.015625 19.402344 194.933594 19.304688 194.835938 C 19.203125 194.738281 19.121094 194.632812 19.050781 194.511719 C 18.976562 194.394531 18.921875 194.269531 18.882812 194.132812 C 18.84375 194 18.824219 193.867188 18.816406 193.726562 C 18.8125 193.589844 18.828125 193.453125 18.855469 193.316406 C 18.886719 193.179688 18.933594 193.050781 18.996094 192.929688 C 19.0625 192.804688 19.140625 192.691406 19.230469 192.589844 C 19.324219 192.484375 19.425781 192.394531 19.542969 192.320312 L 130.207031 128.390625 C 130.460938 128.246094 130.734375 128.175781 131.027344 128.171875 C 131.316406 128.171875 131.589844 128.242188 131.847656 128.382812 L 172.386719 151.800781 C 173.109375 152.179688 173.875 152.355469 174.691406 152.335938 C 176.324219 152.335938 177.304688 151.722656 177.402344 151.492188 C 177.808594 147.65625 180.535156 144.085938 185.074219 141.464844 C 189.78125 138.742188 196.011719 137.246094 202.625 137.246094 C 209.65625 137.246094 216.207031 138.914062 221.066406 141.9375 C 225.625 144.78125 228.132812 148.609375 228.132812 152.714844 C 228.128906 156.792969 225.648438 160.585938 221.144531 163.386719 C 216.753906 166.121094 210.828125 167.75 204.453125 167.980469 C 202.851562 168.035156 202.136719 168.65625 202.046875 168.855469 C 202.191406 168.992188 202.351562 169.109375 202.523438 169.207031 L 243.117188 192.65625 C 243.238281 192.730469 243.351562 192.816406 243.453125 192.917969 C 243.554688 193.019531 243.640625 193.128906 243.710938 193.253906 C 243.78125 193.378906 243.835938 193.507812 243.875 193.648438 C 243.910156 193.785156 243.929688 193.925781 243.929688 194.070312 C 243.929688 194.210938 243.910156 194.351562 243.875 194.492188 C 243.835938 194.628906 243.78125 194.761719 243.710938 194.882812 C 243.640625 195.007812 243.554688 195.121094 243.453125 195.222656 C 243.351562 195.324219 243.238281 195.410156 243.117188 195.480469 L 203.1875 218.542969 C 202.210938 219.085938 201.160156 219.347656 200.042969 219.332031 C 197.402344 219.332031 195.328125 218.023438 194.996094 216.152344 C 194.445312 213.054688 191.785156 210.140625 187.503906 207.953125 C 183.40625 205.855469 177.640625 204.65625 171.6875 204.65625 C 165.804688 204.65625 160.332031 205.773438 156.273438 207.804688 C 151.515625 210.1875 148.722656 213.523438 148.621094 216.957031 C 148.523438 220.28125 150.839844 223.484375 155.144531 225.972656 C 159.011719 228.203125 164.148438 229.605469 169.609375 229.917969 C 172.007812 230.058594 173.8125 231.226562 174.203125 232.882812 C 174.515625 234.207031 173.871094 235.476562 172.480469 236.28125 L 132.542969 259.355469 C 132.3125 259.484375 132.0625 259.558594 131.796875 259.570312 Z M 88.054688 232.152344 C 89.449219 232.128906 90.761719 232.453125 91.988281 233.121094 L 131.71875 256.070312 L 170.78125 233.5 C 170.351562 233.292969 169.898438 233.179688 169.417969 233.167969 C 163.464844 232.828125 157.816406 231.269531 153.515625 228.792969 C 148.125 225.675781 145.230469 221.441406 145.367188 216.859375 C 145.507812 212.195312 148.953125 207.832031 154.816406 204.898438 C 159.320312 202.640625 165.308594 201.398438 171.6875 201.398438 C 178.234375 201.398438 184.378906 202.695312 188.988281 205.054688 C 194.195312 207.714844 197.464844 211.457031 198.199219 215.585938 C 198.714844 215.886719 199.269531 216.050781 199.863281 216.074219 C 200.457031 216.097656 201.023438 215.980469 201.558594 215.726562 L 239.046875 194.070312 L 200.894531 172.03125 C 199.253906 171.082031 198.503906 169.605469 198.882812 168.082031 C 199.363281 166.144531 201.503906 164.824219 204.335938 164.722656 C 210.152344 164.515625 215.507812 163.0625 219.425781 160.625 C 222.941406 158.4375 224.875 155.628906 224.878906 152.714844 C 224.878906 149.773438 222.914062 146.925781 219.34375 144.703125 C 215.058594 142.03125 208.96875 140.503906 202.625 140.503906 C 196.578125 140.503906 190.921875 141.847656 186.699219 144.285156 C 183.089844 146.371094 180.933594 149.0625 180.636719 151.859375 C 180.398438 154.054688 177.953125 155.589844 174.691406 155.589844 C 173.296875 155.613281 171.984375 155.289062 170.757812 154.625 L 131.027344 131.671875 L 23.699219 193.675781 L 61.851562 215.710938 C 63.492188 216.65625 64.242188 218.132812 63.867188 219.660156 C 63.382812 221.601562 61.238281 222.917969 58.40625 223.019531 C 52.601562 223.21875 47.246094 224.679688 43.324219 227.117188 C 39.804688 229.304688 37.871094 232.117188 37.871094 235.027344 C 37.871094 237.96875 39.835938 240.816406 43.402344 243.035156 C 47.6875 245.707031 53.78125 247.238281 60.125 247.238281 C 66.171875 247.238281 71.828125 245.898438 76.046875 243.457031 C 79.660156 241.375 81.816406 238.683594 82.113281 235.878906 C 82.347656 233.683594 84.789062 232.152344 88.054688 232.152344 Z M 88.054688 232.152344 " fill-opacity="1" fill-rule="nonzero"/></g></svg>