<svg xmlns="http://www.w3.org/2000/svg" xmlns:xlink="http://www.w3.org/1999/xlink" width="500" zoomAndPan="magnify" viewBox="0 0 375 374.999991" height="500" preserveAspectRatio="xMidYMid meet" version="1.0"><defs><clipPath id="486cad0ff9"><path d="M 20 16.03125 L 375 16.03125 L 375 355 L 20 355 Z M 20 16.03125 " clip-rule="nonzero"/></clipPath></defs><path fill="#99b1b8" d="M 108.117188 344.644531 L 370.914062 111.464844 L 370.425781 117.679688 L 107.628906 350.859375 L 108.117188 344.644531 " fill-opacity="1" fill-rule="nonzero"/><path fill="#6e8a93" d="M 265.511719 65.328125 C 265.925781 60.050781 267.125 55.191406 268.992188 50.824219 C 269.523438 49.578125 270.113281 48.371094 270.75 47.203125 C 272.027344 44.871094 273.507812 42.710938 275.175781 40.734375 C 276.425781 39.25 277.777344 37.867188 279.222656 36.597656 L 279.21875 36.597656 L 279.222656 36.597656 L 44.199219 243.375 C 36.496094 250.15625 31.4375 260.046875 30.492188 272.105469 C 28.585938 296.40625 46.371094 318.128906 70.207031 331.578125 C 81.90625 338.179688 96.03125 341.125 108.117188 344.644531 L 370.914062 111.464844 C 334.207031 100.769531 262.667969 101.554688 265.511719 65.328125 " fill-opacity="1" fill-rule="nonzero"/><path fill="#000000" d="M 270.644531 45.4375 L 44.84375 244.101562 C 36.984375 251.015625 32.359375 260.726562 31.460938 272.183594 C 29.746094 294.019531 44.410156 315.910156 70.6875 330.734375 C 79.847656 335.902344 90.398438 338.773438 100.605469 341.546875 C 103.128906 342.234375 105.519531 342.882812 107.875 343.5625 L 368.945312 111.917969 C 359.789062 109.402344 348.726562 107.535156 337.058594 105.566406 C 302.046875 99.660156 262.367188 92.964844 264.542969 65.253906 C 264.957031 59.980469 266.152344 55 268.097656 50.441406 C 268.640625 49.175781 269.246094 47.929688 269.898438 46.738281 C 270.140625 46.300781 270.386719 45.867188 270.644531 45.4375 Z M 108.117188 345.613281 C 108.027344 345.613281 107.933594 345.601562 107.847656 345.574219 C 105.339844 344.847656 102.792969 344.152344 100.09375 343.417969 C 89.773438 340.613281 79.101562 337.710938 69.734375 332.425781 C 42.78125 317.214844 27.75 294.640625 29.523438 272.03125 C 30.464844 260.0625 35.316406 249.902344 43.558594 242.648438 L 278.582031 35.871094 C 278.980469 35.515625 279.59375 35.554688 279.949219 35.957031 C 280.304688 36.355469 280.265625 36.96875 279.863281 37.324219 C 278.457031 38.5625 277.128906 39.921875 275.917969 41.355469 C 274.289062 43.292969 272.835938 45.417969 271.601562 47.667969 C 270.980469 48.804688 270.402344 49.996094 269.882812 51.203125 C 268.019531 55.5625 266.875 60.339844 266.480469 65.402344 C 264.441406 91.347656 303.195312 97.886719 337.382812 103.65625 C 349.839844 105.757812 361.609375 107.746094 371.1875 110.535156 C 371.523438 110.632812 371.785156 110.90625 371.859375 111.253906 C 371.9375 111.597656 371.824219 111.957031 371.558594 112.191406 L 108.761719 345.371094 C 108.582031 345.53125 108.351562 345.613281 108.117188 345.613281 " fill-opacity="1" fill-rule="nonzero"/><path fill="#6e8a93" d="M 325.410156 104.378906 C 311.398438 100.296875 300.878906 85.726562 301.964844 71.902344 C 302.316406 67.390625 304.210938 63.6875 307.097656 61.148438 L 72.078125 267.929688 C 69.191406 270.46875 67.296875 274.171875 66.945312 278.683594 C 65.859375 292.507812 76.378906 307.074219 90.390625 311.160156 C 100.777344 314.183594 110.421875 312.054688 116.972656 306.292969 L 351.992188 99.511719 C 345.441406 105.277344 335.796875 107.40625 325.410156 104.378906 " fill-opacity="1" fill-rule="nonzero"/><path fill="#000000" d="M 302.054688 66.878906 L 72.71875 268.65625 C 69.898438 271.140625 68.234375 274.632812 67.910156 278.757812 C 66.859375 292.148438 77.066406 306.265625 90.660156 310.226562 C 100.386719 313.058594 109.746094 311.363281 116.332031 305.566406 L 344.03125 105.226562 C 338.335938 107.183594 331.808594 107.253906 325.136719 105.308594 C 310.707031 101.105469 299.878906 86.085938 300.996094 71.828125 C 301.132812 70.070312 301.492188 68.414062 302.054688 66.878906 Z M 99.742188 313.511719 C 96.625 313.511719 93.390625 313.042969 90.117188 312.089844 C 75.6875 307.882812 64.859375 292.863281 65.976562 278.609375 C 66.339844 273.96875 68.230469 270.023438 71.433594 267.203125 L 306.457031 60.421875 C 306.855469 60.070312 307.46875 60.105469 307.824219 60.507812 C 308.179688 60.910156 308.140625 61.523438 307.738281 61.878906 C 304.917969 64.359375 303.253906 67.851562 302.933594 71.976562 C 301.878906 85.367188 312.085938 99.484375 325.679688 103.445312 C 335.390625 106.277344 344.738281 104.585938 351.324219 98.808594 L 351.351562 98.785156 C 351.753906 98.429688 352.367188 98.46875 352.722656 98.871094 C 353.078125 99.273438 353.039062 99.886719 352.636719 100.238281 L 117.617188 307.019531 C 112.753906 311.296875 106.519531 313.511719 99.742188 313.511719 " fill-opacity="1" fill-rule="nonzero"/><path fill="#6e8a93" d="M 324.785156 85.515625 C 320.070312 84.140625 316.53125 79.238281 316.894531 74.59375 C 317.007812 73.171875 317.605469 72.003906 318.511719 71.203125 L 83.492188 277.984375 C 82.585938 278.785156 81.988281 279.949219 81.875 281.375 C 81.511719 286.019531 85.046875 290.917969 89.765625 292.292969 C 93.425781 293.359375 96.824219 292.609375 99.132812 290.578125 L 334.152344 83.796875 C 331.84375 85.832031 328.441406 86.582031 324.785156 85.515625 " fill-opacity="1" fill-rule="nonzero"/><path fill="#000000" d="M 315.914062 74.785156 L 84.136719 278.710938 C 83.378906 279.378906 82.933594 280.324219 82.84375 281.449219 C 82.515625 285.664062 85.738281 290.113281 90.035156 291.363281 C 93.253906 292.296875 96.332031 291.746094 98.488281 289.851562 L 329.128906 86.925781 C 327.65625 87.0625 326.09375 86.90625 324.511719 86.445312 C 319.46875 84.976562 315.664062 79.785156 315.914062 74.785156 Z M 93.0625 293.75 C 91.90625 293.75 90.703125 293.578125 89.492188 293.226562 C 84.359375 291.730469 80.511719 286.378906 80.910156 281.296875 C 81.035156 279.683594 81.726562 278.246094 82.851562 277.257812 L 317.871094 70.476562 C 318.273438 70.121094 318.886719 70.160156 319.242188 70.5625 C 319.59375 70.964844 319.558594 71.578125 319.152344 71.929688 C 318.398438 72.597656 317.953125 73.542969 317.863281 74.667969 C 317.53125 78.882812 320.757812 83.332031 325.054688 84.582031 C 328.269531 85.519531 331.351562 84.96875 333.507812 83.070312 C 333.910156 82.71875 334.523438 82.753906 334.878906 83.160156 C 335.234375 83.558594 335.195312 84.171875 334.792969 84.527344 L 334.78125 84.539062 L 99.773438 291.304688 C 97.941406 292.917969 95.601562 293.75 93.0625 293.75 " fill-opacity="1" fill-rule="nonzero"/><path fill="#99b1b8" d="M 89.054688 270.835938 L 324.070312 64.054688 L 323.585938 70.277344 L 88.566406 277.058594 L 89.054688 270.835938 " fill-opacity="1" fill-rule="nonzero"/><path fill="#000000" d="M 89.988281 271.304688 L 89.71875 274.75 L 322.648438 69.808594 L 322.917969 66.363281 Z M 88.566406 278.027344 C 88.417969 278.027344 88.269531 277.992188 88.132812 277.925781 C 87.777344 277.746094 87.566406 277.375 87.597656 276.984375 L 88.085938 270.761719 C 88.105469 270.507812 88.222656 270.273438 88.410156 270.109375 L 323.429688 63.328125 C 323.726562 63.066406 324.152344 63.011719 324.507812 63.1875 C 324.859375 63.363281 325.070312 63.738281 325.039062 64.132812 L 324.550781 70.351562 C 324.53125 70.605469 324.414062 70.839844 324.226562 71.003906 L 89.207031 277.785156 C 89.027344 277.941406 88.796875 278.027344 88.566406 278.027344 " fill-opacity="1" fill-rule="nonzero"/><path fill="#99b1b8" d="M 325.019531 63.84375 C 324.941406 63.5 324.683594 63.222656 324.34375 63.125 C 320.15625 61.902344 316.097656 62.660156 313.210938 65.199219 L 78.191406 271.980469 C 77.789062 272.332031 77.75 272.945312 78.101562 273.347656 C 78.296875 273.5625 78.5625 273.675781 78.832031 273.675781 C 79.058594 273.675781 79.289062 273.597656 79.472656 273.433594 C 81.851562 271.34375 85.242188 270.734375 88.78125 271.765625 C 89.101562 271.863281 89.445312 271.785156 89.695312 271.5625 L 324.710938 64.785156 C 324.980469 64.550781 325.097656 64.191406 325.019531 63.84375 " fill-opacity="1" fill-rule="nonzero"/><path fill="#000000" d="M 320.480469 63.484375 C 317.953125 63.484375 315.632812 64.304688 313.824219 65.898438 L 78.804688 272.675781 C 81.480469 270.433594 85.191406 269.753906 89.042969 270.875 L 324.097656 64.085938 L 325.019531 63.84375 L 324.113281 64.046875 L 324.082031 64.015625 C 322.859375 63.660156 321.648438 63.484375 320.480469 63.484375 Z M 78.832031 274.605469 C 78.285156 274.605469 77.765625 274.371094 77.40625 273.960938 C 77.070312 273.578125 76.246094 274.730469 76.277344 274.226562 C 76.3125 273.71875 77.441406 271.835938 77.957031 271.132812 L 312.597656 64.503906 C 315.726562 61.75 320.105469 60.925781 324.605469 62.234375 C 325.269531 62.425781 325.777344 62.964844 325.925781 63.644531 C 326.078125 64.316406 325.847656 65.023438 325.328125 65.480469 L 90.308594 272.257812 C 89.816406 272.695312 89.148438 272.84375 88.515625 272.65625 C 85.296875 271.71875 82.222656 272.257812 80.085938 274.132812 C 79.742188 274.4375 79.296875 274.605469 78.832031 274.605469 " fill-opacity="1" fill-rule="nonzero"/><path fill="#99b1b8" d="M 323.675781 51.992188 C 315.375 49.570312 307.667969 51.269531 302.429688 55.875 L 67.410156 262.65625 C 72.644531 258.050781 80.355469 256.351562 88.65625 258.769531 C 100.472656 262.210938 109.335938 274.5 108.421875 286.15625 C 108.105469 290.230469 106.394531 293.566406 103.792969 295.855469 L 338.8125 89.078125 C 341.417969 86.789062 343.125 83.449219 343.441406 79.375 C 344.359375 67.71875 335.492188 55.433594 323.675781 51.992188 " fill-opacity="1" fill-rule="nonzero"/><path fill="#000000" d="M 81.179688 256.695312 C 83.691406 256.695312 86.296875 257.070312 88.929688 257.839844 C 101.160156 261.402344 110.339844 274.140625 109.390625 286.234375 C 109.277344 287.695312 108.996094 289.082031 108.554688 290.378906 L 338.171875 88.351562 C 340.695312 86.128906 342.183594 83 342.476562 79.300781 C 343.355469 68.078125 334.800781 56.242188 323.40625 52.921875 L 323.402344 52.921875 C 315.699219 50.675781 308.285156 52.015625 303.070312 56.605469 L 74.601562 257.621094 C 76.683594 257.003906 78.894531 256.695312 81.179688 256.695312 Z M 103.792969 296.828125 C 103.523438 296.828125 103.257812 296.71875 103.066406 296.5 C 102.710938 296.097656 102.75 295.484375 103.152344 295.132812 C 105.675781 292.910156 107.164062 289.777344 107.457031 286.082031 C 108.335938 274.855469 99.78125 263.019531 88.386719 259.699219 C 80.675781 257.453125 73.265625 258.796875 68.050781 263.382812 C 67.648438 263.738281 67.035156 263.699219 66.683594 263.296875 C 66.328125 262.894531 66.367188 262.28125 66.769531 261.929688 L 301.789062 55.148438 C 307.511719 50.113281 315.589844 48.625 323.949219 51.058594 C 336.179688 54.625 345.359375 67.363281 344.410156 79.453125 C 344.082031 83.664062 342.367188 87.246094 339.453125 89.804688 L 104.433594 296.585938 C 104.25 296.75 104.019531 296.828125 103.792969 296.828125 " fill-opacity="1" fill-rule="nonzero"/><path fill="#99b1b8" d="M 87.679688 229.289062 C 114.023438 236.96875 133.796875 264.367188 131.757812 290.363281 C 130.101562 311.5 111.320312 323.621094 89.902344 317.378906 C 72.414062 312.28125 59.285156 294.09375 60.640625 276.84375 C 61.75 262.699219 74.320312 254.59375 88.65625 258.769531 C 100.472656 262.210938 109.335938 274.5 108.421875 286.15625 C 107.664062 295.824219 99.074219 301.371094 89.277344 298.515625 C 81.082031 296.128906 74.9375 287.613281 75.574219 279.535156 C 76.105469 272.730469 82.15625 268.824219 89.054688 270.835938 L 88.566406 277.058594 C 85.144531 276.058594 82.140625 277.992188 81.875 281.375 C 81.511719 286.019531 85.046875 290.917969 89.765625 292.292969 C 96.085938 294.136719 101.628906 290.558594 102.117188 284.320312 C 102.765625 276.089844 96.507812 267.414062 88.171875 264.984375 C 77.308594 261.816406 67.785156 267.964844 66.945312 278.683594 C 65.859375 292.507812 76.378906 307.074219 90.390625 311.160156 C 108.332031 316.386719 124.0625 306.234375 125.453125 288.527344 C 127.222656 265.960938 110.058594 242.175781 87.191406 235.511719 C 58.171875 227.054688 32.738281 243.472656 30.492188 272.105469 C 27.648438 308.332031 70.378906 335.269531 108.117188 344.644531 L 107.628906 350.859375 C 59.46875 341.804688 21.074219 309.925781 24.1875 270.269531 C 26.703125 238.210938 55.183594 219.820312 87.679688 229.289062 " fill-opacity="1" fill-rule="nonzero"/><path fill="#000000" d="M 70.730469 227.75 C 60.933594 227.75 51.8125 230.449219 44.125 235.753906 C 33.042969 243.398438 26.304688 255.683594 25.15625 270.34375 C 23.695312 288.953125 31.367188 306.585938 47.339844 321.328125 C 62.214844 335.058594 83.277344 345.109375 106.746094 349.699219 L 107.085938 345.386719 C 86.941406 340.257812 67.4375 330.738281 53.46875 319.191406 C 36.484375 305.15625 28.203125 288.847656 29.523438 272.03125 C 30.59375 258.375 36.890625 246.917969 47.25 239.769531 C 58.363281 232.105469 72.644531 230.261719 87.464844 234.582031 C 110.75 241.367188 128.226562 265.601562 126.421875 288.601562 C 125.75 297.160156 121.800781 304.34375 115.300781 308.828125 C 108.335938 313.632812 99.390625 314.792969 90.117188 312.089844 C 75.6875 307.882812 64.859375 292.863281 65.976562 278.609375 C 66.390625 273.308594 68.84375 268.859375 72.875 266.078125 C 77.1875 263.105469 82.714844 262.382812 88.441406 264.050781 C 97.199219 266.605469 103.765625 275.730469 103.085938 284.394531 C 102.835938 287.605469 101.347656 290.296875 98.898438 291.988281 C 96.324219 293.765625 92.894531 294.214844 89.492188 293.226562 C 84.359375 291.726562 80.511719 286.378906 80.910156 281.296875 C 81.054688 279.425781 81.929688 277.847656 83.367188 276.855469 C 84.574219 276.019531 86.101562 275.683594 87.683594 275.886719 L 88.019531 271.570312 C 85.132812 270.914062 82.394531 271.355469 80.242188 272.835938 C 78.082031 274.328125 76.765625 276.734375 76.539062 279.613281 C 75.941406 287.257812 81.777344 295.320312 89.550781 297.585938 C 94.167969 298.933594 98.601562 298.371094 102.027344 296.007812 C 105.199219 293.820312 107.125 290.296875 107.457031 286.082031 C 108.335938 274.855469 99.78125 263.019531 88.386719 259.699219 C 81.488281 257.691406 74.867188 258.53125 69.742188 262.066406 C 64.992188 265.34375 62.101562 270.617188 61.609375 276.921875 C 60.289062 293.742188 73.101562 311.476562 90.171875 316.449219 C 100.617188 319.492188 110.648438 318.210938 118.425781 312.847656 C 125.648438 307.863281 130.039062 299.851562 130.792969 290.289062 C 132.796875 264.722656 113.335938 237.777344 87.40625 230.222656 C 81.730469 228.566406 76.125 227.75 70.730469 227.75 Z M 107.628906 351.828125 C 107.570312 351.828125 107.511719 351.824219 107.449219 351.808594 C 83.199219 347.253906 61.382812 336.933594 46.023438 322.753906 C 29.597656 307.589844 21.710938 289.414062 23.21875 270.195312 C 24.414062 254.9375 31.449219 242.140625 43.019531 234.15625 C 55.433594 225.59375 71.390625 223.535156 87.953125 228.359375 C 114.714844 236.160156 134.800781 264.007812 132.726562 290.441406 C 131.929688 300.597656 127.242188 309.121094 119.53125 314.441406 C 111.261719 320.148438 100.644531 321.519531 89.628906 318.3125 C 71.722656 313.09375 58.285156 294.457031 59.671875 276.769531 C 60.214844 269.875 63.398438 264.085938 68.636719 260.46875 C 74.253906 256.597656 81.457031 255.660156 88.929688 257.839844 C 101.160156 261.402344 110.339844 274.140625 109.390625 286.234375 C 109.015625 291.039062 106.792969 295.078125 103.128906 297.605469 C 99.214844 300.308594 94.199219 300.960938 89.003906 299.445312 C 80.398438 296.9375 73.9375 287.972656 74.605469 279.460938 C 74.878906 275.988281 76.488281 273.070312 79.136719 271.242188 C 81.925781 269.316406 85.640625 268.832031 89.324219 269.90625 C 89.765625 270.03125 90.054688 270.453125 90.019531 270.910156 L 89.535156 277.132812 C 89.507812 277.421875 89.355469 277.6875 89.117188 277.855469 C 88.875 278.019531 88.574219 278.070312 88.292969 277.988281 C 86.863281 277.570312 85.503906 277.738281 84.46875 278.453125 C 83.523438 279.105469 82.945312 280.167969 82.84375 281.449219 C 82.515625 285.664062 85.738281 290.113281 90.035156 291.363281 C 92.917969 292.203125 95.671875 291.859375 97.796875 290.394531 C 99.753906 289.042969 100.945312 286.859375 101.152344 284.246094 C 101.765625 276.445312 95.816406 268.222656 87.898438 265.914062 C 82.742188 264.410156 77.800781 265.035156 73.976562 267.675781 C 70.433594 270.117188 68.28125 274.054688 67.910156 278.757812 C 66.859375 292.148438 77.066406 306.265625 90.660156 310.226562 C 99.359375 312.765625 107.722656 311.699219 114.195312 307.230469 C 120.207031 303.085938 123.863281 296.417969 124.484375 288.453125 C 126.222656 266.316406 109.371094 242.988281 86.917969 236.441406 C 72.671875 232.292969 58.972656 234.039062 48.351562 241.363281 C 38.484375 248.171875 32.484375 259.117188 31.460938 272.183594 C 28.8125 305.9375 68.136719 333.710938 108.351562 343.703125 C 108.8125 343.816406 109.121094 344.246094 109.085938 344.71875 L 108.597656 350.933594 C 108.574219 351.207031 108.4375 351.460938 108.21875 351.628906 C 108.046875 351.757812 107.839844 351.828125 107.628906 351.828125 " fill-opacity="1" fill-rule="nonzero"/><path fill="#99b1b8" d="M 322.699219 22.511719 C 303.886719 17.027344 286.421875 20.882812 274.558594 31.320312 L 39.542969 238.097656 C 51.402344 227.664062 68.867188 223.808594 87.679688 229.289062 C 114.023438 236.96875 133.796875 264.367188 131.757812 290.363281 C 131.058594 299.265625 127.324219 306.566406 121.636719 311.570312 L 356.65625 104.792969 C 362.34375 99.785156 366.078125 92.484375 366.777344 83.585938 C 368.816406 57.585938 349.042969 30.1875 322.699219 22.511719 " fill-opacity="1" fill-rule="nonzero"/><path fill="#000000" d="M 70.742188 225.816406 C 76.316406 225.816406 82.101562 226.652344 87.953125 228.359375 C 114.714844 236.160156 134.800781 264.007812 132.726562 290.441406 C 132.339844 295.363281 131.0625 299.871094 128.960938 303.835938 L 356.015625 104.066406 C 361.765625 99.007812 365.152344 91.898438 365.808594 83.507812 C 367.816406 57.945312 348.355469 31 322.425781 23.441406 C 304.550781 18.230469 287.339844 21.371094 275.203125 32.046875 L 50.023438 230.171875 C 56.339844 227.289062 63.359375 225.816406 70.742188 225.816406 Z M 121.636719 312.542969 C 121.367188 312.542969 121.101562 312.429688 120.90625 312.210938 C 120.554688 311.8125 120.59375 311.199219 120.996094 310.84375 C 126.746094 305.785156 130.132812 298.675781 130.792969 290.289062 C 132.796875 264.722656 113.335938 237.777344 87.40625 230.222656 C 69.53125 225.011719 52.320312 228.148438 40.183594 238.828125 C 39.78125 239.179688 39.167969 239.144531 38.8125 238.738281 C 38.457031 238.339844 38.496094 237.726562 38.898438 237.371094 L 273.917969 30.59375 C 286.566406 19.464844 304.445312 16.179688 322.96875 21.582031 C 349.734375 29.378906 369.816406 57.230469 367.746094 83.660156 C 367.046875 92.5625 363.433594 100.121094 357.296875 105.519531 L 122.277344 312.296875 C 122.09375 312.460938 121.863281 312.542969 121.636719 312.542969 " fill-opacity="1" fill-rule="nonzero"/><path fill="#000000" d="M 142.308594 147.679688 C 142.308594 147.679688 192.695312 143.867188 215.359375 186.839844 C 234.488281 223.113281 220.753906 250.484375 220.753906 250.484375 L 250.539062 224.054688 C 250.539062 224.054688 259.15625 182.878906 232.980469 151.195312 C 206.800781 119.511719 167.71875 125.320312 167.71875 125.320312 L 142.308594 147.679688 " fill-opacity="1" fill-rule="nonzero"/><path fill="#000000" d="M 145.109375 146.640625 C 156.21875 146.640625 196.652344 149.289062 216.21875 186.390625 C 231.238281 214.875 226.097656 238.222656 223.117188 247.089844 L 249.648438 223.550781 C 250.351562 219.71875 256.617188 181.332031 232.230469 151.8125 C 207.839844 122.292969 171.667969 125.820312 168.140625 126.246094 L 144.957031 146.640625 C 145.007812 146.640625 145.058594 146.640625 145.109375 146.640625 Z M 220.753906 251.457031 C 220.542969 251.457031 220.335938 251.390625 220.160156 251.257812 C 219.792969 250.972656 219.675781 250.464844 219.882812 250.050781 C 220.019531 249.78125 233.15625 222.664062 214.5 187.292969 C 192.40625 145.398438 142.878906 148.609375 142.382812 148.648438 C 141.964844 148.679688 141.578125 148.441406 141.414062 148.058594 C 141.253906 147.671875 141.351562 147.226562 141.667969 146.953125 L 167.078125 124.59375 C 167.21875 124.46875 167.390625 124.390625 167.578125 124.363281 C 167.976562 124.304688 207.507812 118.839844 233.726562 150.578125 C 259.898438 182.257812 251.578125 223.835938 251.488281 224.253906 C 251.449219 224.457031 251.339844 224.640625 251.183594 224.78125 L 221.398438 251.210938 C 221.214844 251.375 220.984375 251.457031 220.753906 251.457031 " fill-opacity="1" fill-rule="nonzero"/><g clip-path="url(#486cad0ff9)"><path fill="#000000" d="M 305.847656 16.144531 C 292.820312 16.144531 281.113281 20.386719 271.992188 28.410156 L 165.152344 122.410156 L 139.742188 144.769531 L 36.976562 235.191406 L 36.984375 235.199219 C 27.324219 243.703125 21.410156 256.023438 20.316406 269.96875 C 18.738281 290.109375 26.941406 309.101562 44.046875 324.890625 C 59.804688 339.4375 82.132812 350.011719 106.914062 354.671875 L 107.816406 354.839844 C 108.425781 354.953125 109.054688 354.78125 109.519531 354.371094 L 110.207031 353.757812 L 373.003906 120.578125 L 373.574219 120.074219 C 373.960938 119.730469 374.199219 119.253906 374.238281 118.742188 L 374.296875 117.984375 L 374.785156 111.769531 L 374.90625 110.238281 C 374.980469 109.296875 374.382812 108.4375 373.480469 108.171875 L 372 107.742188 C 369 106.867188 365.660156 106.03125 361.777344 105.183594 C 366.882812 99.558594 370 92.125 370.648438 83.890625 C 372.824219 56.15625 351.800781 26.953125 323.785156 18.789062 C 317.765625 17.03125 311.730469 16.144531 305.847656 16.144531 Z M 305.847656 20.023438 C 311.253906 20.023438 316.914062 20.824219 322.699219 22.511719 C 349.042969 30.1875 368.816406 57.585938 366.777344 83.585938 C 366.078125 92.484375 362.34375 99.785156 356.65625 104.792969 L 353.59375 107.484375 C 359.855469 108.671875 365.734375 109.957031 370.914062 111.464844 L 370.425781 117.679688 L 107.628906 350.859375 C 59.46875 341.804688 21.074219 309.925781 24.1875 270.269531 C 25.265625 256.542969 31.113281 245.335938 39.984375 237.734375 C 39.839844 237.859375 39.683594 237.972656 39.542969 238.097656 L 142.308594 147.679688 L 167.71875 125.320312 L 274.558594 31.320312 C 282.773438 24.09375 293.675781 20.023438 305.847656 20.023438 " fill-opacity="1" fill-rule="nonzero"/></g></svg>