<svg xmlns="http://www.w3.org/2000/svg" xmlns:xlink="http://www.w3.org/1999/xlink" width="500" zoomAndPan="magnify" viewBox="0 0 375 374.999991" height="500" preserveAspectRatio="xMidYMid meet" version="1.0"><defs><clipPath id="b5d59840c4"><path d="M 59.460938 18.75 L 315.210938 18.75 L 315.210938 356.25 L 59.460938 356.25 Z M 59.460938 18.75 " clip-rule="nonzero"/></clipPath><clipPath id="e790d3e3ee"><path d="M 59.460938 18.75 L 315.210938 18.75 L 315.210938 356.25 L 59.460938 356.25 Z M 59.460938 18.75 " clip-rule="nonzero"/></clipPath></defs><g clip-path="url(#b5d59840c4)"><path fill="#231f20" d="M 99.800781 136.476562 L 99.796875 136.476562 C 96.683594 139.4375 93.71875 142.550781 90.917969 145.8125 L 90.914062 145.8125 C 93.71875 142.550781 96.683594 139.4375 99.800781 136.476562 Z M 101.117188 85.644531 C 102.402344 82.878906 104.128906 80.378906 106.269531 78.089844 C 110.007812 74.085938 115.035156 70.738281 121.003906 68.015625 C 129.945312 63.921875 140.960938 61.257812 152.519531 59.65625 C 164.082031 58.054688 176.179688 57.492188 187.335938 57.492188 C 204.332031 57.488281 223.535156 58.804688 239.648438 63.101562 C 247.703125 65.242188 254.972656 68.128906 260.796875 71.863281 C 263.710938 73.726562 266.261719 75.800781 268.402344 78.089844 C 270.542969 80.378906 272.269531 82.878906 273.554688 85.644531 C 275.605469 90.054688 276.546875 95.128906 276.546875 100.707031 C 276.558594 110.117188 273.820312 120.898438 269.578125 131.699219 C 247.410156 112.859375 218.6875 101.480469 187.335938 101.480469 C 155.984375 101.480469 127.261719 112.859375 105.09375 131.699219 C 100.851562 120.902344 98.113281 110.117188 98.125 100.710938 C 98.125 95.128906 99.066406 90.054688 101.117188 85.644531 Z M 60.15625 228.824219 C 60.152344 263.976562 74.394531 295.835938 97.40625 318.867188 C 120.410156 341.910156 152.226562 356.167969 187.335938 356.167969 C 222.445312 356.167969 254.261719 341.910156 277.269531 318.867188 C 300.277344 295.835938 314.519531 263.976562 314.515625 228.824219 C 314.515625 205.394531 308.171875 183.433594 297.140625 164.570312 C 309.078125 141.160156 315.199219 119.882812 315.207031 100.855469 C 315.210938 89.5 313.011719 78.957031 308.574219 69.390625 C 304.644531 60.910156 299.058594 53.449219 291.910156 47.097656 C 281.1875 37.558594 267 30.511719 249.554688 25.835938 C 232.101562 21.160156 211.355469 18.847656 187.335938 18.847656 C 155.308594 18.851562 129.097656 22.953125 108.765625 31.304688 C 98.601562 35.484375 89.90625 40.738281 82.761719 47.09375 C 75.613281 53.449219 70.027344 60.910156 66.097656 69.390625 C 61.660156 78.957031 59.460938 89.5 59.464844 100.855469 C 59.472656 119.882812 65.59375 141.15625 77.53125 164.570312 C 66.496094 183.433594 60.15625 205.394531 60.15625 228.824219 " fill-opacity="1" fill-rule="nonzero"/></g><path fill="#99b1b8" d="M 302.5 72.214844 C 298.953125 64.570312 293.960938 57.894531 287.464844 52.109375 C 280.964844 46.328125 272.945312 41.449219 263.363281 37.507812 C 244.203125 29.621094 218.792969 25.546875 187.335938 25.550781 C 163.746094 25.550781 143.546875 27.835938 126.847656 32.3125 C 110.136719 36.789062 96.949219 43.441406 87.207031 52.109375 C 80.707031 57.894531 75.71875 64.570312 72.171875 72.214844 C 68.171875 80.84375 66.164062 90.359375 66.160156 100.855469 C 66.152344 117.492188 71.28125 136.601562 81.695312 157.929688 C 83.984375 154.519531 86.414062 151.214844 89.011719 148.050781 C 89.632812 147.292969 90.277344 146.554688 90.914062 145.8125 C 93.71875 142.554688 96.683594 139.4375 99.800781 136.476562 C 94.855469 124.441406 91.441406 112.125 91.425781 100.710938 C 91.425781 94.382812 92.496094 88.308594 95.046875 82.816406 C 96.648438 79.363281 98.804688 76.261719 101.378906 73.507812 C 103.957031 70.75 106.957031 68.335938 110.269531 66.214844 C 116.894531 61.972656 124.78125 58.890625 133.300781 56.617188 C 150.34375 52.089844 169.992188 50.792969 187.335938 50.789062 C 198.714844 50.789062 211.09375 51.355469 223.070312 53.015625 C 235.046875 54.683594 246.625 57.429688 256.449219 61.914062 C 262.992188 64.90625 268.777344 68.679688 273.292969 73.507812 C 275.867188 76.261719 278.023438 79.363281 279.625 82.816406 C 282.175781 88.308594 283.242188 94.382812 283.242188 100.710938 C 283.230469 112.125 279.816406 124.441406 274.875 136.480469 C 278.695312 140.113281 282.308594 143.96875 285.660156 148.050781 C 286.09375 148.582031 286.511719 149.128906 286.941406 149.667969 C 287.707031 150.636719 288.460938 151.605469 289.199219 152.597656 C 290.503906 154.339844 291.761719 156.117188 292.976562 157.929688 C 303.390625 136.601562 308.519531 117.492188 308.511719 100.855469 C 308.507812 90.359375 306.496094 80.84375 302.5 72.214844 " fill-opacity="1" fill-rule="nonzero"/><path fill="#99b1b8" d="M 305.148438 203.464844 C 302.308594 190.175781 297.285156 177.695312 290.464844 166.417969 C 284.484375 156.523438 277.113281 147.558594 268.632812 139.792969 C 247.195312 120.160156 218.675781 108.1875 187.335938 108.1875 C 155.992188 108.1875 127.480469 120.160156 106.039062 139.789062 C 105.800781 140.011719 105.570312 140.242188 105.328125 140.464844 C 103.464844 142.203125 101.644531 143.988281 99.894531 145.835938 C 97.914062 147.925781 96.011719 150.082031 94.1875 152.308594 C 90.535156 156.757812 87.199219 161.472656 84.207031 166.417969 C 73.191406 184.628906 66.851562 205.972656 66.851562 228.824219 C 66.855469 262.148438 80.332031 292.285156 102.140625 314.128906 C 123.957031 335.964844 154.054688 349.460938 187.335938 349.460938 C 220.617188 349.460938 250.71875 335.964844 272.53125 314.128906 C 294.339844 292.285156 307.816406 262.148438 307.820312 228.824219 C 307.820312 220.121094 306.894531 211.640625 305.148438 203.464844 " fill-opacity="1" fill-rule="nonzero"/><path fill="#99b1b8" d="M 295.121094 126.304688 C 299.621094 107.765625 301.464844 88.285156 293.695312 72.144531 C 281.34375 46.460938 247.132812 41.144531 222.160156 38.347656 C 203.617188 36.269531 184.925781 35.550781 166.277344 36.203125 C 151.363281 36.730469 136.285156 38.164062 122.222656 43.164062 C 108.160156 48.164062 95.054688 57.058594 87.304688 69.824219 C 78.722656 83.984375 77.476562 101.707031 80.894531 117.90625 C 82.941406 127.617188 86.546875 136.882812 90.914062 145.8125 C 93.71875 142.550781 96.683594 139.4375 99.800781 136.476562 C 94.855469 124.441406 91.441406 112.125 91.429688 100.710938 C 91.429688 94.382812 92.496094 88.304688 95.046875 82.816406 C 96.648438 79.363281 98.804688 76.261719 101.378906 73.507812 C 103.957031 70.75 106.957031 68.335938 110.269531 66.214844 C 116.894531 61.972656 124.78125 58.894531 133.300781 56.621094 C 150.34375 52.089844 169.992188 50.796875 187.335938 50.789062 C 198.714844 50.789062 211.09375 51.355469 223.070312 53.015625 C 235.046875 54.683594 246.625 57.429688 256.449219 61.914062 C 262.992188 64.90625 268.777344 68.679688 273.289062 73.507812 C 275.867188 76.261719 278.023438 79.363281 279.625 82.816406 C 282.175781 88.304688 283.246094 94.382812 283.246094 100.710938 C 283.230469 112.125 279.816406 124.441406 274.875 136.476562 C 278.695312 140.113281 282.308594 143.96875 285.660156 148.050781 C 286.09375 148.582031 286.511719 149.128906 286.941406 149.667969 C 291.382812 141.988281 293.0625 134.777344 295.121094 126.304688 " fill-opacity="1" fill-rule="nonzero"/><path fill="#475d64" d="M 90.914062 145.8125 C 86.546875 136.882812 82.941406 127.617188 80.894531 117.902344 C 77.476562 101.707031 78.722656 83.984375 87.304688 69.828125 C 95.054688 57.054688 108.160156 48.167969 122.222656 43.167969 C 136.285156 38.164062 151.363281 36.730469 166.277344 36.203125 C 184.925781 35.550781 203.617188 36.269531 222.160156 38.347656 C 247.132812 41.144531 281.34375 46.460938 293.695312 72.144531 C 301.464844 88.285156 299.621094 107.765625 295.121094 126.304688 C 293.0625 134.777344 291.382812 141.984375 286.941406 149.667969 C 287.707031 150.636719 288.460938 151.605469 289.199219 152.597656 C 290.503906 154.339844 291.761719 156.117188 292.976562 157.929688 C 303.390625 136.601562 308.519531 117.492188 308.511719 100.855469 C 308.507812 90.359375 306.496094 80.84375 302.5 72.214844 C 298.953125 64.570312 293.960938 57.894531 287.464844 52.109375 C 280.964844 46.328125 272.945312 41.449219 263.363281 37.507812 C 244.203125 29.621094 218.792969 25.546875 187.335938 25.550781 C 163.746094 25.550781 143.546875 27.835938 126.847656 32.3125 C 110.136719 36.789062 96.949219 43.441406 87.207031 52.109375 C 80.707031 57.894531 75.71875 64.570312 72.171875 72.214844 C 68.171875 80.84375 66.164062 90.359375 66.160156 100.855469 C 66.152344 117.492188 71.28125 136.601562 81.695312 157.929688 C 83.984375 154.519531 86.414062 151.214844 89.011719 148.050781 C 89.632812 147.292969 90.277344 146.554688 90.914062 145.8125 " fill-opacity="1" fill-rule="nonzero"/><path fill="#99b1b8" d="M 288.941406 199.617188 C 289.34375 203.367188 289.066406 207.851562 285.902344 209.894531 C 283.667969 211.339844 280.644531 210.988281 278.296875 209.738281 C 275.945312 208.492188 274.109375 206.484375 272.265625 204.5625 C 259.878906 191.671875 245.0625 181.128906 228.828125 173.652344 C 221.996094 170.507812 214.804688 167.832031 208.957031 163.097656 C 203.109375 158.363281 198.738281 150.933594 200.019531 143.515625 C 202.402344 129.71875 218.921875 124.617188 231.070312 126.890625 C 247.011719 129.875 261.242188 143.742188 271.042969 155.566406 C 280.964844 167.539062 287.285156 184.148438 288.941406 199.617188 Z M 187.335938 108.1875 C 155.992188 108.1875 127.480469 120.160156 106.039062 139.789062 C 105.800781 140.011719 105.570312 140.242188 105.328125 140.464844 C 103.144531 143.570312 101.136719 146.800781 99.332031 150.148438 C 61.105469 220.96875 115.125 310.109375 194.433594 311.804688 C 223.152344 312.417969 252.871094 300.03125 273.042969 279.722656 C 291.6875 260.949219 308.125 230.882812 305.148438 203.464844 C 302.308594 190.175781 297.285156 177.695312 290.464844 166.417969 C 284.484375 156.523438 277.113281 147.558594 268.632812 139.792969 C 247.195312 120.160156 218.675781 108.1875 187.335938 108.1875 " fill-opacity="1" fill-rule="nonzero"/><path fill="#475d64" d="M 273.039062 279.722656 C 252.871094 300.03125 223.152344 312.417969 194.433594 311.804688 C 115.125 310.109375 61.105469 220.96875 99.328125 150.148438 C 101.136719 146.800781 103.144531 143.570312 105.328125 140.464844 C 103.464844 142.203125 101.644531 143.988281 99.890625 145.835938 C 97.914062 147.925781 96.011719 150.085938 94.1875 152.308594 C 90.535156 156.757812 87.199219 161.472656 84.207031 166.417969 L 84.203125 166.417969 C 73.191406 184.628906 66.851562 205.972656 66.851562 228.824219 C 66.855469 262.148438 80.332031 292.285156 102.140625 314.128906 C 123.957031 335.964844 154.054688 349.460938 187.335938 349.460938 C 220.617188 349.460938 250.71875 335.964844 272.53125 314.128906 C 294.339844 292.285156 307.816406 262.148438 307.820312 228.824219 C 307.820312 220.125 306.894531 211.640625 305.144531 203.464844 C 308.125 230.882812 291.683594 260.949219 273.039062 279.722656 " fill-opacity="1" fill-rule="nonzero"/><path fill="#ffffff" d="M 231.070312 126.890625 C 218.925781 124.617188 202.402344 129.71875 200.019531 143.511719 C 198.738281 150.933594 203.109375 158.363281 208.957031 163.097656 C 214.804688 167.835938 221.996094 170.507812 228.828125 173.652344 C 245.0625 181.128906 259.875 191.671875 272.265625 204.5625 C 274.109375 206.484375 275.945312 208.492188 278.296875 209.738281 C 280.648438 210.988281 283.667969 211.34375 285.902344 209.894531 C 289.066406 207.851562 289.339844 203.367188 288.941406 199.617188 C 287.285156 184.148438 280.964844 167.539062 271.042969 155.566406 C 261.242188 143.742188 247.015625 129.875 231.070312 126.890625 " fill-opacity="1" fill-rule="nonzero"/><g clip-path="url(#e790d3e3ee)"><path fill="#231f20" d="M 66.160156 100.855469 C 66.164062 90.359375 68.171875 80.84375 72.171875 72.214844 C 75.71875 64.570312 80.707031 57.894531 87.207031 52.109375 C 96.949219 43.441406 110.136719 36.785156 126.847656 32.3125 C 143.546875 27.835938 163.746094 25.550781 187.335938 25.550781 C 218.792969 25.546875 244.207031 29.621094 263.363281 37.507812 C 272.945312 41.449219 280.964844 46.328125 287.464844 52.109375 C 293.964844 57.894531 298.953125 64.570312 302.5 72.214844 C 306.496094 80.84375 308.507812 90.359375 308.511719 100.855469 C 308.519531 117.492188 303.390625 136.601562 292.976562 157.929688 C 291.761719 156.117188 290.503906 154.339844 289.199219 152.59375 C 288.046875 151.058594 286.878906 149.535156 285.660156 148.050781 C 282.308594 143.96875 278.695312 140.113281 274.875 136.476562 C 279.816406 124.441406 283.230469 112.125 283.246094 100.707031 C 283.246094 94.382812 282.175781 88.308594 279.628906 82.816406 C 278.023438 79.363281 275.867188 76.261719 273.289062 73.507812 C 268.777344 68.679688 262.992188 64.90625 256.449219 61.914062 C 246.625 57.433594 235.046875 54.683594 223.070312 53.015625 C 211.09375 51.355469 198.714844 50.789062 187.335938 50.789062 C 169.992188 50.792969 150.34375 52.089844 133.300781 56.621094 C 124.78125 58.890625 116.894531 61.972656 110.269531 66.214844 C 106.957031 68.332031 103.957031 70.75 101.382812 73.507812 C 98.804688 76.261719 96.648438 79.363281 95.046875 82.816406 C 92.496094 88.308594 91.429688 94.382812 91.429688 100.710938 C 91.441406 112.125 94.855469 124.441406 99.800781 136.476562 L 99.796875 136.476562 C 96.683594 139.4375 93.71875 142.550781 90.917969 145.8125 L 90.914062 145.8125 C 90.277344 146.554688 89.632812 147.292969 89.011719 148.050781 C 86.414062 151.214844 83.984375 154.519531 81.695312 157.929688 C 71.28125 136.601562 66.152344 117.492188 66.160156 100.855469 Z M 269.578125 131.699219 C 247.410156 112.859375 218.6875 101.480469 187.335938 101.480469 C 155.984375 101.480469 127.261719 112.859375 105.09375 131.699219 C 100.851562 120.902344 98.113281 110.117188 98.125 100.710938 C 98.125 95.128906 99.066406 90.054688 101.117188 85.644531 C 102.402344 82.878906 104.128906 80.378906 106.269531 78.089844 C 110.007812 74.085938 115.035156 70.738281 121.003906 68.015625 C 129.945312 63.921875 140.960938 61.257812 152.519531 59.65625 C 164.082031 58.054688 176.179688 57.492188 187.335938 57.492188 C 204.332031 57.488281 223.535156 58.804688 239.648438 63.101562 C 247.703125 65.242188 254.972656 68.128906 260.796875 71.863281 C 263.710938 73.726562 266.261719 75.800781 268.402344 78.089844 C 270.542969 80.378906 272.269531 82.878906 273.554688 85.644531 C 275.605469 90.054688 276.546875 95.128906 276.546875 100.707031 C 276.558594 110.117188 273.820312 120.898438 269.578125 131.699219 Z M 305.148438 203.464844 C 306.894531 211.640625 307.820312 220.121094 307.820312 228.824219 C 307.816406 262.148438 294.335938 292.285156 272.53125 314.128906 C 250.71875 335.964844 220.617188 349.460938 187.335938 349.460938 C 154.054688 349.460938 123.957031 335.964844 102.140625 314.128906 C 80.332031 292.285156 66.855469 262.148438 66.851562 228.824219 C 66.851562 205.972656 73.191406 184.628906 84.207031 166.417969 C 87.199219 161.472656 90.535156 156.757812 94.1875 152.308594 C 96.011719 150.085938 97.914062 147.925781 99.894531 145.839844 C 101.644531 143.988281 103.464844 142.199219 105.328125 140.464844 C 105.570312 140.242188 105.800781 140.011719 106.039062 139.792969 C 127.480469 120.160156 155.992188 108.1875 187.335938 108.1875 C 218.675781 108.1875 247.195312 120.160156 268.632812 139.792969 C 277.113281 147.558594 284.480469 156.523438 290.46875 166.417969 C 297.285156 177.695312 302.308594 190.175781 305.148438 203.464844 Z M 60.15625 228.824219 C 60.152344 263.976562 74.394531 295.835938 97.40625 318.867188 C 120.410156 341.910156 152.226562 356.167969 187.335938 356.167969 C 222.445312 356.167969 254.261719 341.910156 277.269531 318.867188 C 300.277344 295.835938 314.519531 263.976562 314.515625 228.824219 C 314.515625 205.394531 308.171875 183.433594 297.140625 164.570312 C 309.078125 141.160156 315.199219 119.882812 315.207031 100.855469 C 315.210938 89.5 313.011719 78.957031 308.574219 69.390625 C 304.644531 60.910156 299.058594 53.449219 291.910156 47.097656 C 281.1875 37.558594 267 30.511719 249.554688 25.835938 C 232.101562 21.160156 211.355469 18.847656 187.335938 18.847656 C 155.308594 18.851562 129.097656 22.953125 108.765625 31.304688 C 98.601562 35.484375 89.90625 40.738281 82.761719 47.09375 C 75.613281 53.449219 70.027344 60.910156 66.097656 69.390625 C 61.660156 78.957031 59.460938 89.5 59.464844 100.855469 C 59.472656 119.882812 65.59375 141.15625 77.53125 164.570312 C 66.496094 183.433594 60.15625 205.394531 60.15625 228.824219 " fill-opacity="1" fill-rule="nonzero"/></g></svg>