<svg xmlns="http://www.w3.org/2000/svg" xmlns:xlink="http://www.w3.org/1999/xlink" width="500" zoomAndPan="magnify" viewBox="0 0 375 374.999991" height="500" preserveAspectRatio="xMidYMid meet" version="1.0"><defs><clipPath id="bd6d525daa"><path d="M 36.625 38 L 363 38 L 363 332 L 36.625 332 Z M 36.625 38 " clip-rule="nonzero"/></clipPath></defs><path fill="#6e8a93" d="M 272.558594 322.113281 C 243.21875 331.453125 213.691406 331.082031 189.210938 323.046875 C 176.128906 327.625 160.527344 329.960938 142.304688 329.960938 C 74.375 329.960938 38.589844 295.957031 38.589844 244.109375 C 38.589844 210.761719 52.042969 188.996094 73.535156 156.765625 C 95.304688 124.070312 83.53125 98.566406 96.613281 79.324219 C 96.988281 78.765625 97.457031 78.296875 97.828125 77.738281 C 119.695312 47.097656 170.617188 55.128906 184.167969 91.9375 C 194.539062 120.242188 190.144531 129.957031 200.332031 151.066406 C 215.1875 181.707031 237.144531 194.785156 241.070312 231.59375 L 354.878906 195.535156 C 355.53125 197.121094 356.1875 198.617188 356.746094 200.296875 C 371.976562 248.035156 334.230469 302.589844 272.558594 322.113281 Z M 272.558594 322.113281 " fill-opacity="1" fill-rule="nonzero"/><path fill="#ffffff" d="M 267.046875 301.1875 C 221.355469 315.011719 144.921875 309.128906 129.785156 261.390625 C 129.222656 259.804688 128.945312 258.121094 128.570312 256.441406 L 351.234375 185.910156 C 351.886719 187.5 352.542969 188.996094 353.101562 190.675781 C 368.238281 238.316406 312.832031 287.269531 267.046875 301.1875 Z M 267.046875 301.1875 " fill-opacity="1" fill-rule="nonzero"/><g clip-path="url(#bd6d525daa)"><path fill="#000000" d="M 358.617188 199.457031 C 358.242188 198.242188 357.773438 197.027344 357.308594 195.90625 C 357.121094 195.441406 355.160156 190.300781 354.972656 189.835938 C 354.878906 189.742188 354.878906 189.648438 354.878906 189.742188 C 354.503906 188.621094 354.039062 187.5 353.664062 186.472656 C 353.476562 186.003906 353.289062 185.632812 353.101562 185.164062 C 352.730469 184.230469 351.703125 183.671875 350.671875 184.042969 L 240.882812 218.792969 C 236.679688 201.980469 228.363281 190.300781 219.671875 178.160156 C 213.691406 169.75 207.433594 161.15625 202.199219 150.226562 C 196.96875 139.390625 195.660156 131.636719 194.070312 122.667969 C 192.667969 114.355469 190.988281 104.921875 186.035156 91.1875 C 179.308594 72.972656 162.863281 59.988281 142.960938 57.277344 C 140.15625 56.90625 137.445312 56.71875 134.738281 56.8125 C 131.375 46.160156 126.980469 39.34375 126.703125 38.875 C 126.140625 37.941406 124.925781 37.753906 123.992188 38.316406 C 123.058594 38.875 122.871094 40.089844 123.429688 41.023438 C 123.523438 41.117188 127.542969 47.375 130.71875 57.089844 C 116.796875 58.398438 104.371094 65.21875 96.335938 76.617188 C 96.148438 76.894531 95.960938 77.175781 95.773438 77.363281 C 95.585938 77.644531 95.398438 77.921875 95.121094 78.203125 C 89.140625 87.078125 88.113281 97.261719 86.988281 108.097656 C 85.589844 122.015625 84 137.710938 72.039062 155.738281 C 49.988281 188.621094 36.625 210.574219 36.625 244.203125 C 36.625 270.734375 45.96875 292.78125 63.722656 308.007812 C 81.945312 323.699219 109.136719 331.921875 142.398438 331.921875 C 160.433594 331.921875 176.222656 329.585938 189.679688 324.914062 C 201.640625 328.746094 214.8125 330.800781 228.550781 330.800781 C 243.03125 330.800781 258.167969 328.558594 273.214844 323.792969 C 335.722656 303.988281 374.125 248.21875 358.617188 199.457031 Z M 350.113281 188.246094 C 350.488281 189.273438 350.859375 190.210938 351.234375 191.144531 C 355.90625 205.808594 353.945312 221.222656 345.628906 237.105469 C 331.519531 263.820312 299.003906 289.417969 266.484375 299.226562 C 242.472656 306.511719 212.199219 307.726562 187.34375 302.402344 C 166.601562 297.917969 139.96875 287.082031 131.652344 260.738281 C 131.375 259.710938 131.09375 258.777344 130.90625 257.75 Z M 142.304688 327.996094 C 77.644531 327.996094 40.550781 297.449219 40.550781 244.109375 C 40.550781 211.601562 53.726562 190.117188 75.125 157.792969 C 87.644531 139.015625 89.234375 122.761719 90.726562 108.375 C 91.847656 97.632812 92.785156 88.386719 98.203125 80.351562 C 98.390625 80.070312 98.578125 79.886719 98.761719 79.605469 C 98.949219 79.324219 99.230469 79.042969 99.417969 78.765625 C 106.984375 68.207031 118.574219 61.855469 131.746094 60.828125 C 133.710938 68.019531 135.019531 76.617188 134.175781 86.050781 C 129.039062 85.769531 124.460938 83.808594 124.367188 83.808594 C 123.335938 83.339844 122.214844 83.808594 121.84375 84.835938 C 121.375 85.863281 121.84375 86.984375 122.871094 87.359375 C 123.335938 87.546875 129.316406 90.066406 135.859375 90.066406 C 140.71875 90.066406 145.855469 88.667969 149.125 83.808594 C 149.78125 82.875 149.5 81.660156 148.566406 81.097656 C 147.632812 80.539062 146.417969 80.726562 145.855469 81.660156 C 143.988281 84.460938 141.089844 85.675781 138.007812 86.050781 C 138.753906 76.707031 137.632812 68.019531 135.671875 60.828125 C 137.820312 60.828125 140.0625 61.015625 142.304688 61.296875 C 160.714844 63.722656 176.039062 75.773438 182.203125 92.683594 C 187.0625 106.042969 188.746094 115.289062 190.144531 123.417969 C 191.734375 132.664062 193.136719 140.699219 198.554688 152.003906 C 203.976562 163.210938 210.328125 171.992188 216.402344 180.492188 C 225.1875 192.730469 233.128906 203.847656 237.050781 220.007812 L 127.917969 254.574219 C 126.980469 254.851562 126.328125 255.878906 126.609375 256.90625 C 126.703125 257.375 126.796875 257.84375 126.886719 258.308594 C 127.167969 259.523438 127.449219 260.738281 127.824219 262.046875 C 128.664062 264.847656 129.785156 267.464844 131.09375 270.078125 C 131.1875 270.546875 131.375 271.015625 131.46875 271.480469 C 139.035156 295.488281 158.285156 313.332031 183.324219 322.953125 C 171.550781 326.222656 157.910156 327.996094 142.304688 327.996094 Z M 272 320.058594 C 217.710938 337.246094 162.863281 320.992188 141.371094 283.8125 C 151.835938 294.367188 167.253906 302.121094 186.503906 306.230469 C 197.0625 308.472656 208.460938 309.59375 220.046875 309.59375 C 236.492188 309.59375 253.125 307.351562 267.511719 302.960938 C 300.964844 292.871094 334.414062 266.53125 348.992188 238.878906 C 353.851562 229.628906 356.652344 220.476562 357.308594 211.601562 C 363.753906 255.414062 327.78125 302.402344 272 320.058594 Z M 227.613281 255.320312 C 228.269531 255.601562 228.921875 255.695312 229.578125 255.695312 C 230.886719 255.695312 232.195312 255.226562 233.128906 254.292969 C 234.4375 253.078125 235.371094 251.675781 235.835938 250.367188 C 236.210938 249.339844 236.398438 248.3125 236.398438 247.191406 C 236.398438 245.042969 235.183594 243.082031 233.222656 242.242188 C 231.257812 241.402344 229.109375 241.773438 227.523438 243.175781 C 226.214844 244.390625 225.277344 245.699219 224.71875 247.097656 C 224.25 248.3125 224.066406 249.527344 224.25 250.929688 C 224.34375 252.890625 225.652344 254.664062 227.613281 255.320312 Z M 228.363281 248.40625 C 228.644531 247.566406 229.203125 246.820312 230.136719 246.070312 C 230.511719 245.792969 230.792969 245.699219 231.074219 245.699219 C 231.351562 245.699219 231.539062 245.792969 231.632812 245.792969 C 231.820312 245.886719 232.472656 246.257812 232.472656 247.191406 C 232.472656 247.847656 232.378906 248.40625 232.195312 248.96875 C 231.914062 249.808594 231.257812 250.648438 230.417969 251.488281 C 229.859375 252.050781 229.296875 251.863281 229.015625 251.769531 C 228.828125 251.675781 228.175781 251.394531 228.082031 250.648438 C 227.988281 249.808594 228.082031 249.0625 228.363281 248.40625 Z M 269.101562 236.078125 C 270.597656 237.289062 272.183594 238.039062 273.679688 238.316406 C 274.148438 238.410156 274.613281 238.410156 275.175781 238.410156 C 276.015625 238.410156 276.855469 238.316406 277.699219 238.039062 C 279.660156 237.476562 281.0625 235.890625 281.4375 233.925781 C 281.808594 231.964844 281.0625 230.003906 279.378906 228.789062 C 277.886719 227.667969 276.390625 227.015625 274.894531 226.734375 C 273.585938 226.546875 272.277344 226.546875 270.96875 226.921875 C 269.101562 227.386719 267.699219 228.882812 267.234375 230.84375 C 266.859375 232.808594 267.605469 234.863281 269.101562 236.078125 Z M 271.15625 231.6875 C 271.25 231.5 271.34375 230.9375 272 230.75 C 272.746094 230.566406 273.585938 230.472656 274.242188 230.65625 C 275.175781 230.84375 276.109375 231.3125 277.136719 232.058594 C 277.699219 232.527344 277.699219 233.085938 277.605469 233.367188 C 277.605469 233.554688 277.417969 234.207031 276.671875 234.394531 C 275.921875 234.582031 275.175781 234.675781 274.429688 234.582031 C 273.492188 234.394531 272.558594 233.925781 271.625 233.179688 C 270.96875 232.527344 271.0625 231.871094 271.15625 231.6875 Z M 252.46875 249.527344 C 253.402344 250.460938 254.527344 251.304688 255.738281 251.863281 C 256.675781 252.332031 257.609375 252.515625 258.636719 252.515625 C 260.226562 252.515625 261.71875 251.957031 262.933594 250.835938 C 264.898438 249.0625 265.550781 246.351562 264.523438 243.828125 C 263.589844 241.496094 262.46875 239.53125 261.066406 238.039062 C 260.132812 237.105469 259.011719 236.261719 257.796875 235.609375 C 255.460938 234.488281 252.84375 234.769531 250.882812 236.542969 C 248.917969 238.226562 248.171875 240.839844 249.011719 243.363281 C 249.855469 245.976562 250.976562 248.035156 252.46875 249.527344 Z M 253.402344 239.625 C 253.589844 239.4375 254.152344 238.972656 254.992188 238.972656 C 255.273438 238.972656 255.648438 239.066406 256.019531 239.253906 C 256.863281 239.71875 257.609375 240.28125 258.261719 240.933594 C 259.289062 241.960938 260.226562 243.457031 260.878906 245.324219 C 261.253906 246.351562 261.066406 247.285156 260.226562 248.035156 C 259.945312 248.3125 258.824219 249.15625 257.421875 248.40625 C 256.582031 248.035156 255.832031 247.472656 255.179688 246.820312 C 254.152344 245.699219 253.21875 244.203125 252.5625 242.242188 C 252.191406 240.839844 253.125 239.90625 253.402344 239.625 Z M 86.988281 289.976562 C 86.617188 290.445312 86.054688 290.722656 85.496094 290.722656 C 85.027344 290.722656 84.652344 290.539062 84.28125 290.257812 C 66.808594 276.246094 66.339844 253.636719 66.246094 252.703125 C 66.246094 251.582031 67.085938 250.742188 68.210938 250.742188 C 69.238281 250.742188 70.171875 251.582031 70.171875 252.703125 C 70.171875 252.984375 70.636719 274.46875 86.710938 287.269531 C 87.457031 287.828125 87.644531 289.136719 86.988281 289.976562 Z M 86.988281 289.976562 " fill-opacity="1" fill-rule="nonzero"/></g></svg>