<svg xmlns="http://www.w3.org/2000/svg" xmlns:xlink="http://www.w3.org/1999/xlink" width="40" zoomAndPan="magnify" viewBox="0 0 30 30.000001" height="40" preserveAspectRatio="xMidYMid meet" version="1.0"><defs><clipPath id="ad6a7c7bc9"><path d="M 4.5625 7 L 25.609375 7 L 25.609375 26.855469 L 4.5625 26.855469 Z M 4.5625 7 " clip-rule="nonzero"/></clipPath></defs><g clip-path="url(#ad6a7c7bc9)"><path fill="#020202" d="M 22.324219 8.964844 C 20.359375 7.691406 17.914062 7.53125 15.613281 8.523438 C 15.605469 8.527344 15.601562 8.53125 15.59375 8.53125 C 15.515625 8.574219 15.300781 8.597656 15.082031 8.597656 C 14.867188 8.597656 14.652344 8.574219 14.570312 8.53125 C 14.566406 8.53125 14.5625 8.527344 14.554688 8.523438 C 12.253906 7.53125 9.804688 7.691406 7.84375 8.964844 C 5.789062 10.300781 4.5625 12.667969 4.5625 15.296875 C 4.5625 17.109375 4.941406 19.050781 5.632812 20.769531 C 6.40625 22.699219 7.527344 24.238281 8.867188 25.21875 C 10.652344 26.527344 12.734375 26.832031 15.050781 26.128906 C 15.0625 26.125 15.074219 26.121094 15.082031 26.121094 C 15.09375 26.121094 15.105469 26.125 15.113281 26.128906 C 17.433594 26.832031 19.515625 26.527344 21.300781 25.21875 C 22.640625 24.238281 23.761719 22.699219 24.535156 20.769531 C 25.226562 19.050781 25.605469 17.109375 25.605469 15.296875 C 25.605469 12.667969 24.378906 10.300781 22.324219 8.964844 Z M 22.324219 8.964844 " fill-opacity="1" fill-rule="nonzero"/></g><path fill="#020202" d="M 23.425781 1.609375 C 20.414062 0.601562 17.246094 0.015625 15.65625 4.042969 C 15.472656 4.515625 15.3125 5.253906 15.289062 5.855469 C 15.285156 5.988281 15.28125 6.230469 15.324219 6.34375 C 15.417969 6.582031 15.609375 6.488281 15.828125 6.367188 C 17.933594 5.226562 18.867188 6.171875 20.792969 5.324219 C 22.296875 4.660156 22.296875 2.734375 23.515625 2.046875 C 23.6875 1.949219 23.613281 1.671875 23.425781 1.609375 Z M 23.425781 1.609375 " fill-opacity="1" fill-rule="nonzero"/><path fill="#020202" d="M 15.617188 7.796875 C 15.574219 7.5625 15.460938 7.261719 15.367188 6.988281 C 15.289062 6.761719 15.066406 6.214844 14.929688 5.859375 C 14.289062 4.195312 13.871094 3.359375 13.355469 2.5625 C 13.199219 2.320312 13.105469 2.125 12.746094 2.140625 C 12.320312 2.160156 11.121094 2.496094 10.65625 2.878906 C 10.449219 3.050781 10.425781 3.289062 10.683594 3.519531 C 12.570312 5.199219 13.179688 6.109375 14.007812 7.308594 C 14.308594 7.742188 14.484375 7.996094 14.585938 8.085938 C 14.625 8.121094 14.691406 8.179688 14.773438 8.191406 C 15 8.230469 15.335938 8.203125 15.523438 8.121094 C 15.644531 8.066406 15.648438 7.953125 15.617188 7.796875 Z M 15.617188 7.796875 " fill-opacity="1" fill-rule="nonzero"/></svg>