<svg xmlns="http://www.w3.org/2000/svg" xmlns:xlink="http://www.w3.org/1999/xlink" width="40" zoomAndPan="magnify" viewBox="0 0 30 30.000001" height="40" preserveAspectRatio="xMidYMid meet" version="1.0"><defs><clipPath id="19f176cce4"><path d="M 0.484375 7 L 29.515625 7 L 29.515625 23.226562 L 0.484375 23.226562 Z M 0.484375 7 " clip-rule="nonzero"/></clipPath><clipPath id="5c1552032d"><path d="M 2 2.902344 L 29 2.902344 L 29 20 L 2 20 Z M 2 2.902344 " clip-rule="nonzero"/></clipPath><clipPath id="6e0e1e0d32"><path d="M 10 2.902344 L 18 2.902344 L 18 19 L 10 19 Z M 10 2.902344 " clip-rule="nonzero"/></clipPath></defs><g clip-path="url(#19f176cce4)"><path fill="#100f0d" d="M 0.757812 15.699219 C 3.253906 16.308594 5.703125 17.105469 8.078125 18.078125 C 8.070312 19.097656 8.847656 20.035156 9.8125 20.347656 C 10.78125 20.660156 11.878906 20.402344 12.703125 19.804688 C 15.675781 21.066406 18.707031 22.183594 21.789062 23.152344 C 22.042969 23.230469 22.324219 23.152344 22.5 22.949219 C 24.625 20.472656 27.148438 17.484375 29.285156 15 C 29.460938 14.792969 29.386719 14.476562 29.132812 14.371094 C 22.429688 11.601562 15.5625 9.316406 8.792969 7.09375 C 8.675781 7.054688 8.550781 7.015625 8.425781 7.039062 C 8.261719 7.066406 8.132812 7.191406 8.019531 7.3125 C 6.03125 9.375 5.289062 10.429688 3.304688 12.492188 L 0.644531 15.3125 C 0.523438 15.441406 0.585938 15.65625 0.757812 15.699219 Z M 0.757812 15.699219 " fill-opacity="1" fill-rule="nonzero"/></g><path stroke-linecap="round" transform="matrix(0.126996, 0, 0, 0.127494, -12.018445, -14.028008)" fill-opacity="1" fill="#ffffff" fill-rule="nonzero" stroke-linejoin="round" d="M 185.251634 263.221742 C 178.115594 267.633705 169.933757 264.018346 166.642566 256.848905 C 164.981591 253.264184 164.335657 247.74923 160.921431 245.72708 C 156.36913 243.000241 150.002061 241.68278 144.988378 239.8751 C 139.574832 237.883589 134.714943 236.841875 129.270637 234.972918 C 127.609663 234.390784 118.597337 231.449475 111.707368 228.661359 C 128.040286 210.584563 145.357484 192.507767 161.690401 174.400332 C 162.582406 173.389257 163.597446 172.347543 164.920074 172.163712 C 164.76628 172.316905 165.566008 171.5203 165.412215 171.673493 C 196.01721 182.642126 269.100093 205.038969 315.638141 223.973647 C 300.996957 241.805334 288.293578 255.531444 266.454837 282.033865 C 265.901179 282.707915 250.767855 276.120608 248.983845 275.477196 C 243.754851 273.546962 238.495098 271.647367 233.235345 269.809049 C 227.175863 267.694983 221.116382 265.672833 215.0569 263.71196 C 208.72059 261.628532 201.153928 258.135728 194.325476 259.024248 C 191.034286 259.453189 188.14296 261.414062 185.251634 263.221742 Z M 185.251634 263.221742 " stroke="#365fa0" stroke-width="1" stroke-opacity="1" stroke-miterlimit="10"/><g clip-path="url(#5c1552032d)"><path fill="#ffffff" d="M 22.964844 19.953125 C 22.433594 19.886719 21.613281 19.726562 21.058594 19.472656 C 20.636719 19.277344 20.160156 18.960938 19.738281 18.757812 C 19.351562 18.570312 18.628906 18.480469 18.203125 18.511719 C 16.523438 18.628906 15.117188 18.867188 13.4375 18.984375 L 12.921875 18.84375 L 13.097656 18.898438 L 12.5 18.71875 L 11.023438 18.1875 C 10.886719 17.988281 10.542969 17.71875 10.4375 17.648438 C 7.820312 15.898438 5.039062 14.460938 2.167969 13.167969 C 3 12.324219 3.699219 11.589844 4.523438 10.75 C 4.253906 10.535156 3.976562 10.320312 3.695312 10.105469 C 4.371094 9.355469 5.25 8.441406 5.925781 7.695312 C 5.945312 7.703125 5.621094 7.53125 5.386719 7.410156 C 7.164062 6.238281 10.757812 4.75 12.398438 3.683594 C 12.660156 4.359375 12.902344 5.117188 12.902344 5.859375 C 13.738281 5.210938 15.425781 3.640625 16.109375 2.972656 C 16.480469 4.851562 17.515625 8.714844 17.601562 10.042969 C 18.835938 8.933594 20.003906 8.101562 21.246094 8.085938 C 21.96875 8.078125 23.566406 8.183594 24.40625 8.289062 C 23.511719 9.21875 22.589844 10.027344 21.621094 10.804688 C 22.503906 10.394531 23.457031 10.078125 24.394531 9.835938 C 25.285156 9.609375 25.480469 9.46875 27.027344 10.101562 C 26.179688 10.527344 25.332031 10.957031 24.484375 11.382812 C 25.269531 11.539062 27.21875 11.90625 28.0625 12.132812 C 27.882812 12.316406 27.699219 12.5 27.519531 12.683594 C 27.914062 12.796875 28.3125 12.910156 28.710938 13.023438 C 26.761719 15.429688 25.128906 17.742188 22.964844 19.953125 " fill-opacity="1" fill-rule="nonzero"/></g><path stroke-linecap="round" transform="matrix(0.126996, 0, 0, 0.127494, -12.018445, -14.028008)" fill="none" stroke-linejoin="round" d="M 181.191473 252.68205 C 180.145675 250.721178 178.638494 249.679464 176.823725 248.453918 C 156.215337 234.727809 134.315079 223.45279 111.707368 213.311401 C 118.412785 206.540263 123.580261 201.178501 130.254918 194.376724 " stroke="#365fa0" stroke-width="1" stroke-opacity="1" stroke-miterlimit="10"/><path stroke-linecap="round" transform="matrix(0.126996, 0, 0, 0.127494, -12.018445, -14.028008)" fill="none" stroke-linejoin="round" d="M 182.421825 252.222471 C 181.898926 246.523684 175.870203 239.568714 172.209907 235.187388 C 157.076583 217.018677 142.496917 203.629592 123.734055 189.29071 C 129.055326 183.408092 134.407355 177.556112 139.759384 171.704132 " stroke="#365fa0" stroke-width="1" stroke-opacity="1" stroke-miterlimit="10"/><path stroke-linecap="round" transform="matrix(0.126996, 0, 0, 0.127494, -12.018445, -14.028008)" fill="none" stroke-linejoin="round" d="M 183.467624 253.202907 C 185.34391 219.347213 165.78132 186.073653 137.052611 168.119412 C 151.04786 158.958459 179.345946 147.285138 192.264638 138.92079 C 194.294718 144.190636 196.201763 147.836634 196.201763 153.688613 " stroke="#365fa0" stroke-width="1" stroke-opacity="1" stroke-miterlimit="10"/><g clip-path="url(#6e0e1e0d32)"><path stroke-linecap="round" transform="matrix(0.126996, 0, 0, 0.127494, -12.018445, -14.028008)" fill="none" stroke-linejoin="round" d="M 183.867488 253.233546 C 185.128598 245.236862 185.34391 238.128698 185.313151 230.040097 C 185.251634 209.144547 181.468302 188.586021 181.406785 167.690471 C 191.618703 159.081014 211.888745 142.658704 221.454728 133.344558 C 224.776678 146.641727 232.34334 175.870987 232.312581 187.850694 " stroke="#365fa0" stroke-width="1" stroke-opacity="1" stroke-miterlimit="10"/></g><path stroke-linecap="round" transform="matrix(0.126996, 0, 0, 0.127494, -12.018445, -14.028008)" fill="none" stroke-linejoin="round" d="M 183.467624 253.202907 C 241.509459 161.62402 259.226522 173.910114 268.884782 173.787559 C 275.098057 173.695644 282.172578 174.982466 286.817156 175.043744 C 271.653073 190.700087 255.627743 201.975106 236.680329 215.976963 C 219.39389 228.722636 206.505957 240.150848 193.033607 256.879544 " stroke="#365fa0" stroke-width="1" stroke-opacity="1" stroke-miterlimit="10"/><path stroke-linecap="round" transform="matrix(0.126996, 0, 0, 0.127494, -12.018445, -14.028008)" fill="none" stroke-linejoin="round" d="M 263.225164 196.092487 C 270.914862 192.20138 278.358489 189.29071 286.724879 187.176644 C 293.707124 185.399603 295.245064 184.296612 307.456303 189.260071 C 298.782325 193.580119 290.139105 197.930806 281.465126 202.281492 C 270.422721 207.827085 259.380316 213.372679 248.707016 219.653599 C 231.666647 229.703072 209.920183 244.838559 195.432793 258.31956 " stroke="#365fa0" stroke-width="1" stroke-opacity="1" stroke-miterlimit="10"/><path stroke-linecap="round" transform="matrix(0.126996, 0, 0, 0.127494, -12.018445, -14.028008)" fill="none" stroke-linejoin="round" d="M 288.170542 199.493376 C 297.428938 200.627006 306.625816 202.526601 315.576624 205.192163 C 303.919042 216.896122 292.230703 228.63072 280.542363 240.33468 C 279.865669 241.00873 279.127458 241.713418 278.204695 241.89725 C 277.158896 242.111721 276.113097 241.621502 275.128816 241.192561 C 261.933295 235.493775 246.799971 240.058932 233.173827 244.654727 C 225.084266 247.381566 219.240096 249.342439 211.181293 252.069278 C 205.767746 253.876957 200.231164 255.960385 196.386315 257.829341 " stroke="#365fa0" stroke-width="1" stroke-opacity="1" stroke-miterlimit="10"/><path stroke-linecap="round" transform="matrix(0.126996, 0, 0, 0.127494, -12.018445, -14.028008)" fill="none" stroke-linejoin="round" d="M 311.301152 209.51221 C 314.438548 210.400731 317.545186 211.289251 320.713341 212.177772 C 305.364706 231.051172 292.507532 249.189246 275.467162 266.530714 C 268.177329 263.865153 262.333159 259.085526 257.257959 255.225057 C 250.521784 250.047128 241.048077 251.180757 232.681687 252.528857 C 221.024105 254.428453 209.397283 256.358687 197.739702 258.258282 " stroke="#365fa0" stroke-width="1" stroke-opacity="1" stroke-miterlimit="10"/><path stroke-linecap="round" transform="matrix(0.126996, 0, 0, 0.127494, -12.018445, -14.028008)" fill="none" stroke-linejoin="round" d="M 198.416395 258.932332 C 211.642675 257.982535 224.745919 256.144216 237.94144 255.225057 C 241.324906 254.979948 246.984524 255.684637 250.029644 257.155291 C 253.382352 258.748501 257.104165 261.199592 260.456873 262.762162 C 265.655109 265.121337 270.361203 266.132412 275.436404 266.530714 " stroke="#365fa0" stroke-width="1" stroke-opacity="1" stroke-miterlimit="10"/><path stroke-linecap="round" transform="matrix(0.126996, 0, 0, 0.127494, -12.018445, -14.028008)" fill="none" stroke-linejoin="round" d="M 162.059506 246.523684 C 171.37942 248.790943 184.636458 253.662487 195.432793 258.932332 " stroke="#365fa0" stroke-width="1" stroke-opacity="1" stroke-miterlimit="10"/><path stroke-linecap="round" transform="matrix(0.126996, 0, 0, 0.127494, -12.018445, -14.028008)" fill="none" stroke-linejoin="round" d="M 117.428503 227.466452 C 119.766171 224.954084 122.134598 222.411077 124.503025 219.86807 " stroke="#365fa0" stroke-width="1" stroke-opacity="1" stroke-miterlimit="10"/><path stroke-linecap="round" transform="matrix(0.126996, 0, 0, 0.127494, -12.018445, -14.028008)" fill="none" stroke-linejoin="round" d="M 115.890564 215.210997 C 120.965764 209.51221 127.701939 202.741072 133.945973 197.992083 " stroke="#365fa0" stroke-width="1" stroke-opacity="1" stroke-miterlimit="10"/><path stroke-linecap="round" transform="matrix(0.126996, 0, 0, 0.127494, -12.018445, -14.028008)" fill="none" stroke-linejoin="round" d="M 165.904355 249.036053 C 166.150425 252.528857 168.795681 256.910182 171.225626 259.391912 C 173.65557 261.873642 175.870203 262.425137 179.345946 262.731523 " stroke="#365fa0" stroke-width="1" stroke-opacity="1" stroke-miterlimit="10"/></svg>