<svg xmlns="http://www.w3.org/2000/svg" xmlns:xlink="http://www.w3.org/1999/xlink" width="40" zoomAndPan="magnify" viewBox="0 0 30 30.000001" height="40" preserveAspectRatio="xMidYMid meet" version="1.0"><defs><clipPath id="50005200e0"><path d="M 6 0.871094 L 26.960938 0.871094 L 26.960938 26 L 6 26 Z M 6 0.871094 " clip-rule="nonzero"/></clipPath><clipPath id="eaf861fda7"><path d="M 6 0.871094 L 26.960938 0.871094 L 26.960938 27 L 6 27 Z M 6 0.871094 " clip-rule="nonzero"/></clipPath><clipPath id="32a4b49a07"><path d="M 5 4 L 23 4 L 23 27 L 5 27 Z M 5 4 " clip-rule="nonzero"/></clipPath><clipPath id="7fb2f8d8d4"><path d="M 6.300781 5.03125 L 7.585938 5.03125 L 7.585938 6.382812 L 6.300781 6.382812 Z M 6.300781 5.03125 " clip-rule="nonzero"/></clipPath><clipPath id="14c65858a0"><path d="M 6.941406 6.339844 C 6.769531 6.339844 6.613281 6.269531 6.496094 6.15625 C 6.382812 6.046875 6.3125 5.890625 6.3125 5.722656 C 6.3125 5.550781 6.382812 5.398438 6.496094 5.285156 C 6.613281 5.171875 6.769531 5.105469 6.941406 5.105469 C 7.117188 5.105469 7.273438 5.171875 7.386719 5.285156 C 7.5 5.398438 7.570312 5.550781 7.570312 5.722656 C 7.570312 5.890625 7.5 6.046875 7.386719 6.15625 C 7.273438 6.269531 7.117188 6.339844 6.941406 6.339844 " clip-rule="nonzero"/></clipPath><clipPath id="e71c262213"><path d="M 4.460938 5 L 8 5 L 8 7 L 4.460938 7 Z M 4.460938 5 " clip-rule="nonzero"/></clipPath><clipPath id="33ce3d2784"><path d="M 4.460938 8 L 8 8 L 8 9 L 4.460938 9 Z M 4.460938 8 " clip-rule="nonzero"/></clipPath><clipPath id="9365b7da04"><path d="M 4.460938 7 L 8 7 L 8 10 L 4.460938 10 Z M 4.460938 7 " clip-rule="nonzero"/></clipPath><clipPath id="abdabab611"><path d="M 4.460938 10 L 8 10 L 8 12 L 4.460938 12 Z M 4.460938 10 " clip-rule="nonzero"/></clipPath><clipPath id="700dae1c27"><path d="M 4.460938 16 L 8 16 L 8 18 L 4.460938 18 Z M 4.460938 16 " clip-rule="nonzero"/></clipPath><clipPath id="e54b638ee8"><path d="M 4.460938 13 L 8 13 L 8 15 L 4.460938 15 Z M 4.460938 13 " clip-rule="nonzero"/></clipPath><clipPath id="3b5519a68f"><path d="M 4.460938 19 L 8 19 L 8 21 L 4.460938 21 Z M 4.460938 19 " clip-rule="nonzero"/></clipPath><clipPath id="8837c77e8e"><path d="M 4.460938 21 L 8 21 L 8 23 L 4.460938 23 Z M 4.460938 21 " clip-rule="nonzero"/></clipPath><clipPath id="51c609c80d"><path d="M 4.460938 21 L 8 21 L 8 24 L 4.460938 24 Z M 4.460938 21 " clip-rule="nonzero"/></clipPath><clipPath id="762c2cd994"><path d="M 4.460938 24 L 8 24 L 8 26 L 4.460938 26 Z M 4.460938 24 " clip-rule="nonzero"/></clipPath></defs><g clip-path="url(#50005200e0)"><path fill="#ffffff" d="M 23.609375 25.945312 L 6.371094 23.554688 L 9.617188 0.964844 L 26.859375 3.359375 L 23.609375 25.945312 " fill-opacity="1" fill-rule="nonzero"/></g><g clip-path="url(#eaf861fda7)"><path fill="#000000" d="M 23.609375 25.945312 L 23.625 25.863281 L 6.46875 23.480469 L 9.691406 1.0625 L 26.761719 3.429688 L 23.527344 25.933594 L 23.609375 25.945312 L 23.625 25.863281 L 23.609375 25.945312 L 23.695312 25.957031 L 26.941406 3.371094 C 26.945312 3.347656 26.941406 3.324219 26.925781 3.308594 C 26.914062 3.289062 26.890625 3.277344 26.871094 3.273438 L 9.628906 0.882812 C 9.582031 0.875 9.539062 0.90625 9.53125 0.953125 L 6.285156 23.542969 C 6.28125 23.589844 6.3125 23.628906 6.359375 23.636719 L 23.597656 26.03125 C 23.621094 26.03125 23.644531 26.027344 23.664062 26.015625 C 23.679688 26 23.691406 25.980469 23.695312 25.957031 L 23.609375 25.945312 " fill-opacity="1" fill-rule="nonzero"/></g><path fill="#ffffff" d="M 10.964844 3.394531 C 10.9375 3.394531 10.90625 3.394531 10.875 3.390625 C 10.5625 3.347656 10.335938 3.082031 10.335938 2.78125 C 10.335938 2.75 10.339844 2.722656 10.34375 2.691406 C 10.386719 2.382812 10.65625 2.160156 10.964844 2.160156 C 10.992188 2.160156 11.023438 2.164062 11.050781 2.167969 C 11.367188 2.210938 11.59375 2.476562 11.59375 2.777344 C 11.59375 2.804688 11.589844 2.835938 11.585938 2.863281 C 11.542969 3.171875 11.273438 3.394531 10.964844 3.394531 " fill-opacity="1" fill-rule="nonzero"/><path fill="#e0e1f8" d="M 10.964844 3.5625 C 10.929688 3.5625 10.890625 3.5625 10.851562 3.554688 C 10.453125 3.5 10.164062 3.164062 10.164062 2.78125 C 10.164062 2.742188 10.167969 2.707031 10.171875 2.667969 C 10.230469 2.277344 10.570312 1.992188 10.964844 1.992188 C 11 1.992188 11.039062 1.996094 11.078125 2 C 11.476562 2.054688 11.765625 2.390625 11.765625 2.777344 C 11.765625 2.8125 11.761719 2.851562 11.757812 2.886719 C 11.699219 3.28125 11.359375 3.5625 10.964844 3.5625 M 10.964844 2.160156 C 10.65625 2.160156 10.386719 2.382812 10.34375 2.691406 C 10.339844 2.722656 10.335938 2.75 10.335938 2.78125 C 10.335938 3.082031 10.5625 3.347656 10.875 3.390625 C 10.90625 3.394531 10.9375 3.394531 10.964844 3.394531 C 11.273438 3.394531 11.542969 3.171875 11.585938 2.863281 C 11.589844 2.835938 11.59375 2.804688 11.59375 2.777344 C 11.59375 2.476562 11.367188 2.210938 11.050781 2.167969 C 11.023438 2.164062 10.992188 2.160156 10.964844 2.160156 " fill-opacity="1" fill-rule="nonzero"/><path fill="#ffffff" d="M 11.4375 2.84375 C 11.402344 3.105469 11.15625 3.285156 10.890625 3.25 L 9.027344 2.992188 C 8.761719 2.953125 8.574219 2.714844 8.613281 2.453125 C 8.648438 2.191406 8.894531 2.007812 9.160156 2.046875 L 11.027344 2.304688 C 11.292969 2.339844 11.476562 2.582031 11.4375 2.84375 " fill-opacity="1" fill-rule="nonzero"/><path fill="#000000" d="M 11.4375 2.84375 L 11.355469 2.832031 C 11.324219 3.027344 11.152344 3.171875 10.957031 3.171875 C 10.941406 3.171875 10.921875 3.167969 10.902344 3.167969 L 9.039062 2.90625 C 8.835938 2.878906 8.695312 2.710938 8.695312 2.519531 C 8.695312 2.5 8.695312 2.480469 8.699219 2.464844 C 8.726562 2.265625 8.898438 2.125 9.09375 2.125 C 9.113281 2.125 9.128906 2.125 9.148438 2.128906 L 11.011719 2.386719 C 11.214844 2.414062 11.359375 2.585938 11.359375 2.777344 C 11.359375 2.792969 11.355469 2.8125 11.355469 2.832031 L 11.4375 2.84375 L 11.523438 2.855469 C 11.527344 2.828125 11.53125 2.804688 11.53125 2.777344 C 11.53125 2.5 11.324219 2.261719 11.039062 2.222656 L 9.171875 1.960938 C 9.144531 1.957031 9.121094 1.957031 9.09375 1.957031 C 8.8125 1.957031 8.566406 2.160156 8.527344 2.441406 C 8.523438 2.46875 8.523438 2.492188 8.523438 2.519531 C 8.523438 2.796875 8.726562 3.035156 9.011719 3.074219 L 10.878906 3.332031 C 10.90625 3.335938 10.929688 3.339844 10.957031 3.339844 C 11.238281 3.339844 11.484375 3.136719 11.523438 2.855469 L 11.4375 2.84375 " fill-opacity="1" fill-rule="nonzero"/><path fill="#ffffff" d="M 11.039062 5.609375 C 11.003906 5.871094 10.757812 6.054688 10.492188 6.015625 L 8.628906 5.757812 C 8.363281 5.722656 8.175781 5.480469 8.214844 5.21875 C 8.253906 4.957031 8.5 4.777344 8.765625 4.8125 L 10.628906 5.070312 C 10.894531 5.109375 11.078125 5.347656 11.039062 5.609375 " fill-opacity="1" fill-rule="nonzero"/><path fill="#000000" d="M 11.039062 5.609375 L 10.957031 5.597656 C 10.929688 5.796875 10.757812 5.9375 10.5625 5.9375 C 10.542969 5.9375 10.523438 5.9375 10.503906 5.933594 L 8.640625 5.675781 C 8.441406 5.648438 8.296875 5.476562 8.296875 5.285156 C 8.296875 5.265625 8.296875 5.25 8.300781 5.230469 C 8.328125 5.035156 8.5 4.890625 8.695312 4.890625 C 8.714844 4.890625 8.734375 4.894531 8.75 4.894531 L 10.617188 5.15625 C 10.816406 5.183594 10.960938 5.351562 10.960938 5.542969 C 10.960938 5.5625 10.957031 5.578125 10.957031 5.597656 L 11.039062 5.609375 L 11.125 5.621094 C 11.128906 5.597656 11.132812 5.570312 11.132812 5.542969 C 11.132812 5.265625 10.925781 5.027344 10.640625 4.988281 L 8.777344 4.730469 C 8.75 4.726562 8.722656 4.722656 8.695312 4.722656 C 8.414062 4.722656 8.171875 4.925781 8.128906 5.207031 C 8.125 5.234375 8.125 5.261719 8.125 5.285156 C 8.125 5.5625 8.332031 5.800781 8.617188 5.839844 L 10.480469 6.101562 C 10.507812 6.105469 10.535156 6.105469 10.5625 6.105469 C 10.839844 6.105469 11.085938 5.902344 11.125 5.621094 L 11.039062 5.609375 " fill-opacity="1" fill-rule="nonzero"/><path fill="#ffffff" d="M 10.644531 8.378906 C 10.605469 8.636719 10.359375 8.820312 10.09375 8.785156 L 8.230469 8.523438 C 7.964844 8.488281 7.78125 8.246094 7.816406 7.984375 C 7.855469 7.722656 8.101562 7.542969 8.367188 7.578125 L 10.230469 7.835938 C 10.496094 7.875 10.679688 8.117188 10.644531 8.378906 " fill-opacity="1" fill-rule="nonzero"/><path fill="#000000" d="M 10.644531 8.378906 L 10.558594 8.367188 C 10.53125 8.5625 10.359375 8.703125 10.164062 8.703125 C 10.144531 8.703125 10.125 8.703125 10.105469 8.699219 L 8.242188 8.441406 C 8.042969 8.414062 7.898438 8.246094 7.898438 8.050781 C 7.898438 8.035156 7.898438 8.015625 7.902344 7.996094 C 7.929688 7.800781 8.101562 7.660156 8.296875 7.660156 C 8.316406 7.660156 8.335938 7.660156 8.355469 7.664062 L 10.21875 7.921875 C 10.417969 7.949219 10.5625 8.117188 10.5625 8.308594 C 10.5625 8.328125 10.5625 8.347656 10.558594 8.367188 L 10.644531 8.378906 L 10.726562 8.390625 C 10.730469 8.363281 10.734375 8.335938 10.734375 8.308594 C 10.734375 8.035156 10.527344 7.792969 10.242188 7.753906 L 8.378906 7.496094 C 8.351562 7.492188 8.324219 7.488281 8.296875 7.488281 C 8.015625 7.488281 7.773438 7.691406 7.730469 7.972656 C 7.726562 8 7.726562 8.027344 7.726562 8.050781 C 7.726562 8.328125 7.933594 8.566406 8.21875 8.609375 L 10.082031 8.867188 C 10.109375 8.871094 10.136719 8.871094 10.164062 8.871094 C 10.445312 8.871094 10.6875 8.667969 10.726562 8.390625 L 10.644531 8.378906 " fill-opacity="1" fill-rule="nonzero"/><path fill="#ffffff" d="M 9.847656 13.910156 C 9.8125 14.171875 9.566406 14.351562 9.300781 14.316406 L 7.433594 14.058594 C 7.167969 14.019531 6.984375 13.78125 7.023438 13.519531 C 7.058594 13.257812 7.304688 13.074219 7.570312 13.113281 L 9.433594 13.371094 C 9.699219 13.40625 9.886719 13.648438 9.847656 13.910156 " fill-opacity="1" fill-rule="nonzero"/><path fill="#000000" d="M 9.847656 13.910156 L 9.761719 13.898438 C 9.734375 14.09375 9.5625 14.238281 9.367188 14.238281 C 9.347656 14.238281 9.328125 14.234375 9.3125 14.234375 L 7.445312 13.972656 C 7.246094 13.945312 7.101562 13.777344 7.101562 13.585938 C 7.101562 13.566406 7.105469 13.546875 7.105469 13.53125 C 7.136719 13.332031 7.308594 13.191406 7.503906 13.191406 C 7.519531 13.191406 7.539062 13.191406 7.558594 13.195312 L 9.421875 13.453125 C 9.621094 13.480469 9.765625 13.652344 9.765625 13.84375 C 9.765625 13.859375 9.765625 13.878906 9.761719 13.898438 L 9.933594 13.921875 C 9.9375 13.894531 9.9375 13.871094 9.9375 13.84375 C 9.9375 13.566406 9.734375 13.328125 9.445312 13.289062 L 7.582031 13.027344 C 7.554688 13.023438 7.527344 13.023438 7.503906 13.023438 C 7.222656 13.023438 6.976562 13.226562 6.9375 13.507812 C 6.933594 13.53125 6.929688 13.558594 6.929688 13.585938 C 6.929688 13.863281 7.136719 14.101562 7.421875 14.140625 L 9.285156 14.398438 C 9.3125 14.402344 9.339844 14.40625 9.367188 14.40625 C 9.648438 14.40625 9.894531 14.203125 9.933594 13.921875 L 9.847656 13.910156 " fill-opacity="1" fill-rule="nonzero"/><path fill="#ffffff" d="M 10.246094 11.144531 C 10.207031 11.40625 9.960938 11.585938 9.695312 11.550781 L 7.832031 11.292969 C 7.566406 11.253906 7.382812 11.011719 7.417969 10.75 C 7.457031 10.492188 7.703125 10.308594 7.96875 10.34375 L 9.832031 10.605469 C 10.097656 10.640625 10.28125 10.882812 10.246094 11.144531 " fill-opacity="1" fill-rule="nonzero"/><path fill="#000000" d="M 10.246094 11.144531 L 10.160156 11.132812 C 10.132812 11.328125 9.960938 11.46875 9.765625 11.46875 C 9.746094 11.46875 9.726562 11.46875 9.707031 11.464844 L 7.84375 11.207031 C 7.644531 11.179688 7.5 11.011719 7.5 10.820312 C 7.5 10.800781 7.503906 10.78125 7.503906 10.765625 L 7.503906 10.761719 C 7.53125 10.566406 7.703125 10.425781 7.898438 10.425781 C 7.917969 10.425781 7.9375 10.425781 7.957031 10.429688 L 9.820312 10.6875 C 10.019531 10.714844 10.164062 10.882812 10.164062 11.078125 C 10.164062 11.09375 10.164062 11.113281 10.160156 11.132812 L 10.332031 11.15625 C 10.335938 11.128906 10.335938 11.101562 10.335938 11.078125 C 10.335938 10.800781 10.128906 10.5625 9.84375 10.519531 L 7.980469 10.261719 C 7.953125 10.257812 7.925781 10.257812 7.898438 10.257812 C 7.621094 10.257812 7.375 10.460938 7.335938 10.738281 C 7.332031 10.765625 7.328125 10.792969 7.328125 10.820312 C 7.328125 11.09375 7.535156 11.335938 7.820312 11.375 L 9.683594 11.632812 C 9.710938 11.636719 9.738281 11.640625 9.765625 11.640625 C 10.046875 11.640625 10.289062 11.4375 10.332031 11.15625 L 10.246094 11.144531 " fill-opacity="1" fill-rule="nonzero"/><path fill="#ffffff" d="M 9.449219 16.675781 C 9.414062 16.9375 9.167969 17.121094 8.902344 17.082031 L 7.039062 16.824219 C 6.773438 16.789062 6.585938 16.546875 6.625 16.285156 C 6.664062 16.023438 6.90625 15.84375 7.171875 15.878906 L 9.039062 16.136719 C 9.304688 16.175781 9.488281 16.414062 9.449219 16.675781 " fill-opacity="1" fill-rule="nonzero"/><path fill="#000000" d="M 9.449219 16.675781 L 9.367188 16.664062 C 9.335938 16.863281 9.164062 17.003906 8.96875 17.003906 C 8.953125 17.003906 8.933594 17.003906 8.914062 17 L 7.050781 16.742188 C 6.851562 16.714844 6.707031 16.542969 6.707031 16.351562 C 6.707031 16.332031 6.707031 16.316406 6.710938 16.296875 C 6.738281 16.101562 6.910156 15.957031 7.105469 15.957031 C 7.125 15.957031 7.144531 15.960938 7.160156 15.960938 L 9.023438 16.222656 C 9.226562 16.25 9.371094 16.417969 9.371094 16.609375 C 9.371094 16.628906 9.367188 16.648438 9.367188 16.664062 L 9.449219 16.675781 L 9.535156 16.6875 C 9.539062 16.664062 9.542969 16.636719 9.542969 16.609375 C 9.542969 16.332031 9.335938 16.09375 9.050781 16.054688 L 7.1875 15.796875 C 7.160156 15.792969 7.132812 15.789062 7.105469 15.789062 C 6.824219 15.789062 6.578125 15.992188 6.539062 16.273438 C 6.535156 16.300781 6.535156 16.328125 6.535156 16.351562 C 6.535156 16.628906 6.738281 16.867188 7.027344 16.90625 L 8.890625 17.167969 C 8.917969 17.171875 8.941406 17.171875 8.96875 17.171875 C 9.25 17.171875 9.496094 16.96875 9.535156 16.6875 L 9.449219 16.675781 " fill-opacity="1" fill-rule="nonzero"/><path fill="#ffffff" d="M 9.054688 19.433594 C 9.015625 19.695312 8.769531 19.875 8.503906 19.839844 L 6.640625 19.578125 C 6.375 19.542969 6.191406 19.300781 6.226562 19.039062 C 6.265625 18.777344 6.511719 18.597656 6.777344 18.632812 L 8.640625 18.894531 C 8.90625 18.929688 9.089844 19.171875 9.054688 19.433594 " fill-opacity="1" fill-rule="nonzero"/><path fill="#000000" d="M 9.054688 19.433594 L 8.96875 19.421875 C 8.941406 19.617188 8.769531 19.757812 8.574219 19.757812 C 8.554688 19.757812 8.535156 19.757812 8.515625 19.753906 L 6.652344 19.496094 C 6.453125 19.46875 6.308594 19.300781 6.308594 19.105469 C 6.308594 19.089844 6.3125 19.070312 6.3125 19.050781 C 6.339844 18.855469 6.511719 18.714844 6.707031 18.714844 C 6.726562 18.714844 6.746094 18.714844 6.765625 18.71875 L 8.628906 18.976562 C 8.828125 19.003906 8.972656 19.171875 8.972656 19.363281 C 8.972656 19.382812 8.972656 19.402344 8.96875 19.421875 L 9.140625 19.445312 C 9.144531 19.417969 9.144531 19.390625 9.144531 19.363281 C 9.144531 19.089844 8.9375 18.847656 8.652344 18.808594 L 6.789062 18.550781 C 6.761719 18.546875 6.734375 18.546875 6.707031 18.546875 C 6.429688 18.546875 6.183594 18.746094 6.144531 19.027344 C 6.140625 19.054688 6.136719 19.082031 6.136719 19.105469 C 6.136719 19.382812 6.34375 19.625 6.628906 19.664062 L 8.492188 19.921875 C 8.519531 19.925781 8.546875 19.925781 8.574219 19.925781 C 8.855469 19.925781 9.097656 19.726562 9.140625 19.445312 L 9.054688 19.433594 " fill-opacity="1" fill-rule="nonzero"/><path fill="#ffffff" d="M 8.65625 22.210938 C 8.617188 22.472656 8.371094 22.652344 8.105469 22.617188 L 6.242188 22.355469 C 5.976562 22.320312 5.792969 22.078125 5.828125 21.816406 C 5.867188 21.558594 6.113281 21.375 6.378906 21.410156 L 8.242188 21.671875 C 8.507812 21.707031 8.691406 21.949219 8.65625 22.210938 " fill-opacity="1" fill-rule="nonzero"/><path fill="#000000" d="M 8.65625 22.210938 L 8.570312 22.199219 C 8.542969 22.394531 8.371094 22.535156 8.175781 22.535156 C 8.15625 22.535156 8.136719 22.535156 8.117188 22.53125 L 6.253906 22.273438 C 6.054688 22.246094 5.910156 22.078125 5.910156 21.886719 C 5.910156 21.867188 5.910156 21.847656 5.914062 21.828125 C 5.941406 21.632812 6.113281 21.492188 6.308594 21.492188 C 6.328125 21.492188 6.347656 21.492188 6.367188 21.496094 L 8.230469 21.753906 C 8.429688 21.78125 8.574219 21.949219 8.574219 22.144531 C 8.574219 22.160156 8.574219 22.179688 8.570312 22.199219 L 8.742188 22.222656 C 8.746094 22.195312 8.746094 22.167969 8.746094 22.144531 C 8.746094 21.867188 8.539062 21.625 8.253906 21.585938 L 6.390625 21.328125 C 6.363281 21.324219 6.335938 21.324219 6.308594 21.324219 C 6.027344 21.324219 5.785156 21.527344 5.742188 21.804688 C 5.742188 21.832031 5.738281 21.859375 5.738281 21.886719 C 5.738281 22.160156 5.945312 22.402344 6.230469 22.441406 L 8.09375 22.699219 C 8.121094 22.703125 8.148438 22.707031 8.175781 22.707031 C 8.457031 22.707031 8.699219 22.503906 8.738281 22.222656 L 8.742188 22.222656 L 8.65625 22.210938 " fill-opacity="1" fill-rule="nonzero"/><path fill="#ffffff" d="M 23.804688 9.523438 L 13.261719 8.027344 L 13.921875 3.550781 L 24.464844 5.046875 L 23.804688 9.523438 " fill-opacity="1" fill-rule="nonzero"/><path fill="#000000" d="M 23.804688 9.523438 L 23.816406 9.441406 L 13.359375 7.957031 L 13.992188 3.644531 L 24.367188 5.117188 L 23.71875 9.511719 L 23.804688 9.523438 L 23.816406 9.441406 L 23.804688 9.523438 L 23.890625 9.535156 L 24.546875 5.058594 C 24.550781 5.035156 24.546875 5.015625 24.53125 4.996094 C 24.519531 4.976562 24.496094 4.964844 24.476562 4.960938 L 13.933594 3.464844 C 13.886719 3.460938 13.84375 3.492188 13.835938 3.539062 L 13.175781 8.015625 C 13.171875 8.0625 13.203125 8.105469 13.25 8.113281 L 23.792969 9.609375 C 23.816406 9.613281 23.835938 9.605469 23.855469 9.59375 C 23.875 9.578125 23.886719 9.558594 23.890625 9.535156 L 23.804688 9.523438 " fill-opacity="1" fill-rule="nonzero"/><path fill="#1a1a1a" d="M 5.351562 26.925781 L 22.761719 26.925781 L 22.761719 4.113281 L 5.351562 4.113281 Z M 5.351562 26.925781 " fill-opacity="1" fill-rule="nonzero"/><g clip-path="url(#32a4b49a07)"><path fill="#000000" d="M 22.761719 26.925781 L 22.761719 26.839844 L 5.4375 26.839844 L 5.4375 4.195312 L 22.675781 4.195312 L 22.675781 26.925781 L 22.761719 26.925781 L 22.761719 26.839844 L 22.761719 26.925781 L 22.847656 26.925781 L 22.847656 4.113281 C 22.847656 4.089844 22.839844 4.066406 22.820312 4.050781 C 22.804688 4.035156 22.785156 4.027344 22.761719 4.027344 L 5.351562 4.027344 C 5.328125 4.027344 5.304688 4.035156 5.289062 4.050781 C 5.273438 4.066406 5.265625 4.089844 5.265625 4.113281 L 5.265625 26.925781 C 5.265625 26.945312 5.273438 26.96875 5.289062 26.984375 C 5.304688 27 5.328125 27.007812 5.351562 27.007812 L 22.761719 27.007812 C 22.785156 27.007812 22.804688 27 22.820312 26.984375 C 22.839844 26.96875 22.847656 26.945312 22.847656 26.925781 L 22.761719 26.925781 " fill-opacity="1" fill-rule="nonzero"/></g><g clip-path="url(#7fb2f8d8d4)"><g clip-path="url(#14c65858a0)"><path fill="#1a1a1a" d="M 6.3125 6.339844 L 7.570312 6.339844 L 7.570312 5.105469 L 6.3125 5.105469 Z M 6.3125 6.339844 " fill-opacity="1" fill-rule="nonzero"/></g></g><path fill="#dedffe" d="M 6.941406 6.507812 C 6.5 6.507812 6.140625 6.15625 6.140625 5.722656 C 6.140625 5.289062 6.5 4.9375 6.941406 4.9375 C 7.382812 4.9375 7.742188 5.289062 7.742188 5.722656 C 7.742188 6.15625 7.382812 6.507812 6.941406 6.507812 M 6.941406 5.105469 C 6.769531 5.105469 6.613281 5.171875 6.496094 5.285156 C 6.382812 5.398438 6.3125 5.550781 6.3125 5.722656 C 6.3125 5.890625 6.382812 6.046875 6.496094 6.15625 C 6.613281 6.269531 6.769531 6.339844 6.941406 6.339844 C 7.117188 6.339844 7.273438 6.269531 7.386719 6.15625 C 7.5 6.046875 7.570312 5.890625 7.570312 5.722656 C 7.570312 5.550781 7.5 5.398438 7.386719 5.285156 C 7.273438 5.171875 7.117188 5.105469 6.941406 5.105469 " fill-opacity="1" fill-rule="nonzero"/><path fill="#1a1a1a" d="M 6.941406 9.132812 C 6.769531 9.132812 6.613281 9.0625 6.496094 8.953125 C 6.382812 8.839844 6.3125 8.6875 6.3125 8.515625 C 6.3125 8.34375 6.382812 8.191406 6.496094 8.078125 C 6.613281 7.96875 6.769531 7.898438 6.941406 7.898438 C 7.117188 7.898438 7.273438 7.96875 7.386719 8.078125 C 7.5 8.191406 7.570312 8.34375 7.570312 8.515625 C 7.570312 8.6875 7.5 8.839844 7.386719 8.953125 C 7.273438 9.0625 7.117188 9.132812 6.941406 9.132812 " fill-opacity="1" fill-rule="nonzero"/><path fill="#dedffe" d="M 6.941406 9.300781 C 6.5 9.300781 6.140625 8.949219 6.140625 8.515625 C 6.140625 8.082031 6.5 7.730469 6.941406 7.730469 C 7.382812 7.730469 7.742188 8.082031 7.742188 8.515625 C 7.742188 8.949219 7.382812 9.300781 6.941406 9.300781 M 6.941406 7.898438 C 6.769531 7.898438 6.613281 7.96875 6.496094 8.078125 C 6.382812 8.191406 6.3125 8.34375 6.3125 8.515625 C 6.3125 8.6875 6.382812 8.839844 6.496094 8.953125 C 6.613281 9.0625 6.769531 9.132812 6.941406 9.132812 C 7.117188 9.132812 7.273438 9.0625 7.386719 8.953125 C 7.5 8.839844 7.570312 8.6875 7.570312 8.515625 C 7.570312 8.34375 7.5 8.191406 7.386719 8.078125 C 7.273438 7.96875 7.117188 7.898438 6.941406 7.898438 " fill-opacity="1" fill-rule="nonzero"/><path fill="#1a1a1a" d="M 6.941406 11.925781 C 6.769531 11.925781 6.613281 11.859375 6.496094 11.746094 C 6.382812 11.632812 6.3125 11.480469 6.3125 11.308594 C 6.3125 11.140625 6.382812 10.984375 6.496094 10.875 C 6.613281 10.761719 6.769531 10.691406 6.941406 10.691406 C 7.117188 10.691406 7.273438 10.761719 7.386719 10.875 C 7.5 10.984375 7.570312 11.140625 7.570312 11.308594 C 7.570312 11.480469 7.5 11.632812 7.386719 11.746094 C 7.273438 11.859375 7.117188 11.925781 6.941406 11.925781 " fill-opacity="1" fill-rule="nonzero"/><path fill="#dedffe" d="M 6.941406 12.09375 C 6.5 12.09375 6.140625 11.742188 6.140625 11.308594 C 6.140625 10.875 6.5 10.523438 6.941406 10.523438 C 7.382812 10.523438 7.742188 10.875 7.742188 11.308594 C 7.742188 11.742188 7.382812 12.09375 6.941406 12.09375 M 6.941406 10.691406 C 6.769531 10.691406 6.613281 10.761719 6.496094 10.875 C 6.382812 10.984375 6.3125 11.140625 6.3125 11.308594 C 6.3125 11.480469 6.382812 11.632812 6.496094 11.746094 C 6.613281 11.859375 6.769531 11.925781 6.941406 11.925781 C 7.117188 11.925781 7.273438 11.859375 7.386719 11.746094 C 7.5 11.632812 7.570312 11.480469 7.570312 11.308594 C 7.570312 11.140625 7.5 10.984375 7.386719 10.875 C 7.273438 10.761719 7.117188 10.691406 6.941406 10.691406 " fill-opacity="1" fill-rule="nonzero"/><path fill="#1a1a1a" d="M 6.941406 14.71875 C 6.769531 14.71875 6.613281 14.652344 6.496094 14.539062 C 6.382812 14.429688 6.3125 14.273438 6.3125 14.105469 C 6.3125 13.933594 6.382812 13.777344 6.496094 13.667969 C 6.613281 13.554688 6.769531 13.488281 6.941406 13.488281 C 7.117188 13.488281 7.273438 13.554688 7.386719 13.667969 C 7.5 13.777344 7.570312 13.933594 7.570312 14.105469 C 7.570312 14.273438 7.5 14.429688 7.386719 14.539062 C 7.273438 14.652344 7.117188 14.71875 6.941406 14.71875 " fill-opacity="1" fill-rule="nonzero"/><path fill="#dedffe" d="M 6.941406 14.890625 C 6.5 14.890625 6.140625 14.539062 6.140625 14.105469 C 6.140625 13.667969 6.5 13.316406 6.941406 13.316406 C 7.382812 13.316406 7.742188 13.667969 7.742188 14.105469 C 7.742188 14.539062 7.382812 14.890625 6.941406 14.890625 M 6.941406 13.488281 C 6.769531 13.488281 6.613281 13.554688 6.496094 13.667969 C 6.382812 13.777344 6.3125 13.933594 6.3125 14.105469 C 6.3125 14.273438 6.382812 14.429688 6.496094 14.539062 C 6.613281 14.652344 6.769531 14.71875 6.941406 14.71875 C 7.117188 14.71875 7.273438 14.652344 7.386719 14.539062 C 7.5 14.429688 7.570312 14.273438 7.570312 14.105469 C 7.570312 13.933594 7.5 13.777344 7.386719 13.667969 C 7.273438 13.554688 7.117188 13.488281 6.941406 13.488281 " fill-opacity="1" fill-rule="nonzero"/><path fill="#1a1a1a" d="M 6.941406 17.515625 C 6.769531 17.515625 6.613281 17.445312 6.496094 17.335938 C 6.382812 17.222656 6.3125 17.066406 6.3125 16.898438 C 6.3125 16.726562 6.382812 16.574219 6.496094 16.460938 C 6.613281 16.351562 6.769531 16.28125 6.941406 16.28125 C 7.117188 16.28125 7.273438 16.351562 7.386719 16.460938 C 7.5 16.574219 7.570312 16.726562 7.570312 16.898438 C 7.570312 17.066406 7.5 17.222656 7.386719 17.335938 C 7.273438 17.445312 7.117188 17.515625 6.941406 17.515625 " fill-opacity="1" fill-rule="nonzero"/><path fill="#dedffe" d="M 6.941406 17.683594 C 6.5 17.683594 6.140625 17.332031 6.140625 16.898438 C 6.140625 16.464844 6.5 16.113281 6.941406 16.113281 C 7.382812 16.113281 7.742188 16.464844 7.742188 16.898438 C 7.742188 17.332031 7.382812 17.683594 6.941406 17.683594 M 6.941406 16.28125 C 6.769531 16.28125 6.613281 16.351562 6.496094 16.460938 C 6.382812 16.574219 6.3125 16.726562 6.3125 16.898438 C 6.3125 17.066406 6.382812 17.222656 6.496094 17.335938 C 6.613281 17.445312 6.769531 17.515625 6.941406 17.515625 C 7.117188 17.515625 7.273438 17.445312 7.386719 17.335938 C 7.5 17.222656 7.570312 17.066406 7.570312 16.898438 C 7.570312 16.726562 7.5 16.574219 7.386719 16.460938 C 7.273438 16.351562 7.117188 16.28125 6.941406 16.28125 " fill-opacity="1" fill-rule="nonzero"/><path fill="#1a1a1a" d="M 6.941406 20.308594 C 6.769531 20.308594 6.613281 20.238281 6.496094 20.128906 C 6.382812 20.015625 6.3125 19.863281 6.3125 19.691406 C 6.3125 19.519531 6.382812 19.367188 6.496094 19.253906 C 6.613281 19.144531 6.769531 19.074219 6.941406 19.074219 C 7.117188 19.074219 7.273438 19.144531 7.386719 19.253906 C 7.5 19.367188 7.570312 19.519531 7.570312 19.691406 C 7.570312 19.863281 7.5 20.015625 7.386719 20.128906 C 7.273438 20.238281 7.117188 20.308594 6.941406 20.308594 " fill-opacity="1" fill-rule="nonzero"/><path fill="#dedffe" d="M 6.941406 20.476562 C 6.5 20.476562 6.140625 20.125 6.140625 19.691406 C 6.140625 19.257812 6.5 18.90625 6.941406 18.90625 C 7.382812 18.90625 7.742188 19.257812 7.742188 19.691406 C 7.742188 20.125 7.382812 20.476562 6.941406 20.476562 M 6.941406 19.074219 C 6.769531 19.074219 6.613281 19.144531 6.496094 19.253906 C 6.382812 19.367188 6.3125 19.519531 6.3125 19.691406 C 6.3125 19.863281 6.382812 20.015625 6.496094 20.128906 C 6.613281 20.238281 6.769531 20.308594 6.941406 20.308594 C 7.117188 20.308594 7.273438 20.238281 7.386719 20.128906 C 7.5 20.015625 7.570312 19.863281 7.570312 19.691406 C 7.570312 19.519531 7.5 19.367188 7.386719 19.253906 C 7.273438 19.144531 7.117188 19.074219 6.941406 19.074219 " fill-opacity="1" fill-rule="nonzero"/><path fill="#1a1a1a" d="M 6.941406 23.101562 C 6.769531 23.101562 6.613281 23.035156 6.496094 22.921875 C 6.382812 22.808594 6.3125 22.65625 6.3125 22.484375 C 6.3125 22.316406 6.382812 22.160156 6.496094 22.050781 C 6.613281 21.9375 6.769531 21.867188 6.941406 21.867188 C 7.117188 21.867188 7.273438 21.9375 7.386719 22.050781 C 7.5 22.160156 7.570312 22.316406 7.570312 22.484375 C 7.570312 22.65625 7.5 22.808594 7.386719 22.921875 C 7.273438 23.035156 7.117188 23.101562 6.941406 23.101562 " fill-opacity="1" fill-rule="nonzero"/><path fill="#dedffe" d="M 6.941406 23.269531 C 6.5 23.269531 6.140625 22.917969 6.140625 22.484375 C 6.140625 22.050781 6.5 21.699219 6.941406 21.699219 C 7.382812 21.699219 7.742188 22.050781 7.742188 22.484375 C 7.742188 22.917969 7.382812 23.269531 6.941406 23.269531 M 6.941406 21.867188 C 6.769531 21.867188 6.613281 21.9375 6.496094 22.050781 C 6.382812 22.160156 6.3125 22.316406 6.3125 22.484375 C 6.3125 22.65625 6.382812 22.808594 6.496094 22.921875 C 6.613281 23.035156 6.769531 23.101562 6.941406 23.101562 C 7.117188 23.101562 7.273438 23.035156 7.386719 22.921875 C 7.5 22.808594 7.570312 22.65625 7.570312 22.484375 C 7.570312 22.316406 7.5 22.160156 7.386719 22.050781 C 7.273438 21.9375 7.117188 21.867188 6.941406 21.867188 " fill-opacity="1" fill-rule="nonzero"/><path fill="#1a1a1a" d="M 6.941406 25.898438 C 6.769531 25.898438 6.613281 25.828125 6.496094 25.714844 C 6.382812 25.605469 6.3125 25.449219 6.3125 25.28125 C 6.3125 25.109375 6.382812 24.957031 6.496094 24.84375 C 6.613281 24.730469 6.769531 24.664062 6.941406 24.664062 C 7.117188 24.664062 7.273438 24.730469 7.386719 24.84375 C 7.5 24.957031 7.570312 25.109375 7.570312 25.28125 C 7.570312 25.449219 7.5 25.605469 7.386719 25.714844 C 7.273438 25.828125 7.117188 25.898438 6.941406 25.898438 " fill-opacity="1" fill-rule="nonzero"/><path fill="#dedffe" d="M 6.941406 26.066406 C 6.5 26.066406 6.140625 25.714844 6.140625 25.28125 C 6.140625 24.84375 6.5 24.496094 6.941406 24.496094 C 7.382812 24.496094 7.742188 24.84375 7.742188 25.28125 C 7.742188 25.714844 7.382812 26.066406 6.941406 26.066406 M 6.941406 24.664062 C 6.769531 24.664062 6.613281 24.730469 6.496094 24.84375 C 6.382812 24.957031 6.3125 25.109375 6.3125 25.28125 C 6.3125 25.449219 6.382812 25.605469 6.496094 25.714844 C 6.613281 25.828125 6.769531 25.898438 6.941406 25.898438 C 7.117188 25.898438 7.273438 25.828125 7.386719 25.714844 C 7.5 25.605469 7.570312 25.449219 7.570312 25.28125 C 7.570312 25.109375 7.5 24.957031 7.386719 24.84375 C 7.273438 24.730469 7.117188 24.664062 6.941406 24.664062 " fill-opacity="1" fill-rule="nonzero"/><g clip-path="url(#e71c262213)"><path fill="#ffffff" d="M 7.421875 5.722656 C 7.421875 5.984375 7.203125 6.199219 6.933594 6.199219 L 5.050781 6.199219 C 4.785156 6.199219 4.566406 5.984375 4.566406 5.722656 C 4.566406 5.457031 4.785156 5.242188 5.050781 5.242188 L 6.933594 5.242188 C 7.203125 5.242188 7.421875 5.457031 7.421875 5.722656 " fill-opacity="1" fill-rule="nonzero"/><path fill="#000000" d="M 7.421875 5.722656 L 7.335938 5.722656 C 7.335938 5.832031 7.289062 5.929688 7.21875 6 C 7.144531 6.070312 7.046875 6.113281 6.933594 6.113281 L 5.050781 6.113281 C 4.941406 6.113281 4.84375 6.070312 4.769531 6 C 4.695312 5.929688 4.652344 5.832031 4.652344 5.722656 C 4.652344 5.613281 4.695312 5.515625 4.769531 5.445312 C 4.84375 5.371094 4.941406 5.328125 5.050781 5.328125 L 6.933594 5.328125 C 7.046875 5.328125 7.144531 5.371094 7.21875 5.445312 C 7.289062 5.515625 7.335938 5.613281 7.335938 5.722656 L 7.507812 5.722656 C 7.507812 5.410156 7.25 5.160156 6.933594 5.160156 L 5.050781 5.160156 C 4.738281 5.160156 4.480469 5.410156 4.480469 5.722656 C 4.480469 6.03125 4.738281 6.28125 5.050781 6.28125 L 6.933594 6.28125 C 7.25 6.28125 7.507812 6.03125 7.507812 5.722656 L 7.421875 5.722656 " fill-opacity="1" fill-rule="nonzero"/></g><g clip-path="url(#33ce3d2784)"><path fill="#ffffff" d="M 7.421875 8.515625 C 7.421875 8.777344 7.203125 8.992188 6.933594 8.992188 L 5.050781 8.992188 C 4.785156 8.992188 4.566406 8.777344 4.566406 8.515625 C 4.566406 8.25 4.785156 8.039062 5.050781 8.039062 L 6.933594 8.039062 C 7.203125 8.039062 7.421875 8.25 7.421875 8.515625 " fill-opacity="1" fill-rule="nonzero"/></g><g clip-path="url(#9365b7da04)"><path fill="#000000" d="M 7.421875 8.515625 L 7.335938 8.515625 C 7.335938 8.625 7.289062 8.722656 7.21875 8.792969 C 7.144531 8.863281 7.046875 8.910156 6.933594 8.910156 L 5.050781 8.910156 C 4.941406 8.910156 4.84375 8.863281 4.769531 8.792969 C 4.695312 8.722656 4.652344 8.625 4.652344 8.515625 C 4.652344 8.40625 4.695312 8.308594 4.769531 8.238281 C 4.84375 8.167969 4.941406 8.121094 5.050781 8.121094 L 6.933594 8.121094 C 7.046875 8.121094 7.144531 8.167969 7.21875 8.238281 C 7.289062 8.308594 7.335938 8.40625 7.335938 8.515625 L 7.507812 8.515625 C 7.507812 8.207031 7.25 7.953125 6.933594 7.953125 L 5.050781 7.953125 C 4.738281 7.953125 4.480469 8.207031 4.480469 8.515625 C 4.480469 8.824219 4.738281 9.078125 5.050781 9.078125 L 6.933594 9.078125 C 7.25 9.078125 7.507812 8.824219 7.507812 8.515625 L 7.421875 8.515625 " fill-opacity="1" fill-rule="nonzero"/></g><g clip-path="url(#abdabab611)"><path fill="#ffffff" d="M 7.421875 11.308594 C 7.421875 11.574219 7.203125 11.785156 6.933594 11.785156 L 5.050781 11.785156 C 4.785156 11.785156 4.566406 11.574219 4.566406 11.308594 C 4.566406 11.046875 4.785156 10.832031 5.050781 10.832031 L 6.933594 10.832031 C 7.203125 10.832031 7.421875 11.046875 7.421875 11.308594 " fill-opacity="1" fill-rule="nonzero"/><path fill="#000000" d="M 7.421875 11.308594 L 7.335938 11.308594 C 7.335938 11.417969 7.289062 11.515625 7.21875 11.585938 C 7.144531 11.660156 7.046875 11.703125 6.933594 11.703125 L 5.050781 11.703125 C 4.941406 11.703125 4.84375 11.660156 4.769531 11.585938 C 4.695312 11.515625 4.652344 11.417969 4.652344 11.308594 C 4.652344 11.199219 4.695312 11.101562 4.769531 11.03125 C 4.84375 10.960938 4.941406 10.917969 5.050781 10.917969 L 6.933594 10.917969 C 7.046875 10.917969 7.144531 10.960938 7.21875 11.03125 C 7.289062 11.101562 7.335938 11.199219 7.335938 11.308594 L 7.507812 11.308594 C 7.507812 11 7.25 10.746094 6.933594 10.746094 L 5.050781 10.746094 C 4.738281 10.746094 4.480469 11 4.480469 11.308594 C 4.480469 11.621094 4.738281 11.871094 5.050781 11.871094 L 6.933594 11.871094 C 7.25 11.871094 7.507812 11.621094 7.507812 11.308594 L 7.421875 11.308594 " fill-opacity="1" fill-rule="nonzero"/></g><g clip-path="url(#700dae1c27)"><path fill="#ffffff" d="M 7.421875 16.898438 C 7.421875 17.160156 7.203125 17.375 6.933594 17.375 L 5.050781 17.375 C 4.785156 17.375 4.566406 17.160156 4.566406 16.898438 C 4.566406 16.632812 4.785156 16.421875 5.050781 16.421875 L 6.933594 16.421875 C 7.203125 16.421875 7.421875 16.632812 7.421875 16.898438 " fill-opacity="1" fill-rule="nonzero"/><path fill="#000000" d="M 7.421875 16.898438 L 7.335938 16.898438 C 7.335938 17.007812 7.289062 17.105469 7.21875 17.175781 C 7.144531 17.246094 7.046875 17.289062 6.933594 17.289062 L 5.050781 17.289062 C 4.941406 17.289062 4.84375 17.246094 4.769531 17.175781 C 4.695312 17.105469 4.652344 17.007812 4.652344 16.898438 C 4.652344 16.789062 4.695312 16.691406 4.769531 16.621094 C 4.84375 16.546875 4.941406 16.503906 5.050781 16.503906 L 6.933594 16.503906 C 7.046875 16.503906 7.144531 16.546875 7.21875 16.621094 C 7.289062 16.691406 7.335938 16.789062 7.335938 16.898438 L 7.507812 16.898438 C 7.507812 16.585938 7.25 16.335938 6.933594 16.335938 L 5.050781 16.335938 C 4.738281 16.335938 4.480469 16.585938 4.480469 16.898438 C 4.480469 17.207031 4.738281 17.460938 5.050781 17.460938 L 6.933594 17.460938 C 7.25 17.460938 7.507812 17.207031 7.507812 16.898438 L 7.421875 16.898438 " fill-opacity="1" fill-rule="nonzero"/></g><g clip-path="url(#e54b638ee8)"><path fill="#ffffff" d="M 7.421875 14.105469 C 7.421875 14.367188 7.203125 14.582031 6.933594 14.582031 L 5.050781 14.582031 C 4.785156 14.582031 4.566406 14.367188 4.566406 14.105469 C 4.566406 13.839844 4.785156 13.625 5.050781 13.625 L 6.933594 13.625 C 7.203125 13.625 7.421875 13.839844 7.421875 14.105469 " fill-opacity="1" fill-rule="nonzero"/><path fill="#000000" d="M 7.421875 14.105469 L 7.335938 14.105469 C 7.335938 14.210938 7.289062 14.308594 7.21875 14.382812 C 7.144531 14.453125 7.046875 14.496094 6.933594 14.496094 L 5.050781 14.496094 C 4.941406 14.496094 4.84375 14.453125 4.769531 14.382812 C 4.695312 14.308594 4.652344 14.210938 4.652344 14.105469 C 4.652344 13.996094 4.695312 13.898438 4.769531 13.824219 C 4.84375 13.753906 4.941406 13.710938 5.050781 13.710938 L 6.933594 13.710938 C 7.046875 13.710938 7.144531 13.753906 7.21875 13.824219 C 7.289062 13.898438 7.335938 13.996094 7.335938 14.105469 L 7.507812 14.105469 C 7.507812 13.792969 7.25 13.542969 6.933594 13.542969 L 5.050781 13.542969 C 4.738281 13.542969 4.480469 13.792969 4.480469 14.105469 C 4.480469 14.414062 4.738281 14.664062 5.050781 14.664062 L 6.933594 14.664062 C 7.25 14.664062 7.507812 14.414062 7.507812 14.105469 L 7.421875 14.105469 " fill-opacity="1" fill-rule="nonzero"/></g><g clip-path="url(#3b5519a68f)"><path fill="#ffffff" d="M 7.421875 19.691406 C 7.421875 19.957031 7.203125 20.167969 6.933594 20.167969 L 5.050781 20.167969 C 4.785156 20.167969 4.566406 19.957031 4.566406 19.691406 C 4.566406 19.429688 4.785156 19.214844 5.050781 19.214844 L 6.933594 19.214844 C 7.203125 19.214844 7.421875 19.429688 7.421875 19.691406 " fill-opacity="1" fill-rule="nonzero"/><path fill="#000000" d="M 7.421875 19.691406 L 7.335938 19.691406 C 7.335938 19.800781 7.289062 19.898438 7.21875 19.96875 C 7.144531 20.039062 7.046875 20.085938 6.933594 20.085938 L 5.050781 20.085938 C 4.941406 20.085938 4.84375 20.039062 4.769531 19.96875 C 4.695312 19.898438 4.652344 19.800781 4.652344 19.691406 C 4.652344 19.582031 4.695312 19.484375 4.769531 19.414062 C 4.84375 19.34375 4.941406 19.296875 5.050781 19.296875 L 6.933594 19.296875 C 7.046875 19.296875 7.144531 19.34375 7.21875 19.414062 C 7.289062 19.484375 7.335938 19.582031 7.335938 19.691406 L 7.507812 19.691406 C 7.507812 19.382812 7.25 19.128906 6.933594 19.128906 L 5.050781 19.128906 C 4.738281 19.128906 4.480469 19.382812 4.480469 19.691406 C 4.480469 20.003906 4.738281 20.253906 5.050781 20.253906 L 6.933594 20.253906 C 7.25 20.253906 7.507812 20.003906 7.507812 19.691406 L 7.421875 19.691406 " fill-opacity="1" fill-rule="nonzero"/></g><g clip-path="url(#8837c77e8e)"><path fill="#ffffff" d="M 7.421875 22.472656 C 7.421875 22.738281 7.203125 22.953125 6.933594 22.953125 L 5.050781 22.953125 C 4.785156 22.953125 4.566406 22.738281 4.566406 22.472656 C 4.566406 22.210938 4.785156 21.996094 5.050781 21.996094 L 6.933594 21.996094 C 7.203125 21.996094 7.421875 22.210938 7.421875 22.472656 " fill-opacity="1" fill-rule="nonzero"/></g><g clip-path="url(#51c609c80d)"><path fill="#000000" d="M 7.421875 22.472656 L 7.335938 22.472656 C 7.335938 22.582031 7.289062 22.679688 7.21875 22.753906 C 7.144531 22.824219 7.046875 22.867188 6.933594 22.867188 L 5.050781 22.867188 C 4.941406 22.867188 4.84375 22.824219 4.769531 22.753906 C 4.695312 22.679688 4.652344 22.582031 4.652344 22.472656 C 4.652344 22.367188 4.695312 22.269531 4.769531 22.195312 C 4.84375 22.125 4.941406 22.082031 5.050781 22.082031 L 6.933594 22.082031 C 7.046875 22.082031 7.144531 22.125 7.21875 22.195312 C 7.289062 22.269531 7.335938 22.367188 7.335938 22.472656 L 7.507812 22.472656 C 7.507812 22.164062 7.25 21.914062 6.933594 21.914062 L 5.050781 21.914062 C 4.738281 21.914062 4.480469 22.164062 4.480469 22.472656 C 4.480469 22.785156 4.738281 23.035156 5.050781 23.035156 L 6.933594 23.035156 C 7.25 23.035156 7.507812 22.785156 7.507812 22.472656 L 7.421875 22.472656 " fill-opacity="1" fill-rule="nonzero"/></g><g clip-path="url(#762c2cd994)"><path fill="#ffffff" d="M 7.421875 25.28125 C 7.421875 25.542969 7.203125 25.757812 6.933594 25.757812 L 5.050781 25.757812 C 4.785156 25.757812 4.566406 25.542969 4.566406 25.28125 C 4.566406 25.015625 4.785156 24.800781 5.050781 24.800781 L 6.933594 24.800781 C 7.203125 24.800781 7.421875 25.015625 7.421875 25.28125 " fill-opacity="1" fill-rule="nonzero"/><path fill="#000000" d="M 7.421875 25.28125 L 7.335938 25.28125 C 7.335938 25.386719 7.289062 25.484375 7.21875 25.558594 C 7.144531 25.628906 7.046875 25.671875 6.933594 25.671875 L 5.050781 25.671875 C 4.941406 25.671875 4.84375 25.628906 4.769531 25.558594 C 4.695312 25.484375 4.652344 25.386719 4.652344 25.28125 C 4.652344 25.171875 4.695312 25.074219 4.769531 25 C 4.84375 24.929688 4.941406 24.886719 5.050781 24.886719 L 6.933594 24.886719 C 7.046875 24.886719 7.144531 24.929688 7.21875 25 C 7.289062 25.074219 7.335938 25.171875 7.335938 25.28125 L 7.507812 25.28125 C 7.507812 24.96875 7.25 24.71875 6.933594 24.71875 L 5.050781 24.71875 C 4.738281 24.71875 4.480469 24.96875 4.480469 25.28125 C 4.480469 25.589844 4.738281 25.839844 5.050781 25.839844 L 6.933594 25.839844 C 7.25 25.839844 7.507812 25.589844 7.507812 25.28125 L 7.421875 25.28125 " fill-opacity="1" fill-rule="nonzero"/></g><path fill="#ffffff" d="M 20.246094 10.210938 L 9.773438 10.210938 L 9.773438 6.679688 L 20.246094 6.679688 L 20.246094 10.210938 " fill-opacity="1" fill-rule="nonzero"/><path fill="#000000" d="M 20.246094 10.210938 L 20.246094 10.125 L 9.859375 10.125 L 9.859375 6.761719 L 20.160156 6.761719 L 20.160156 10.210938 L 20.246094 10.210938 L 20.246094 10.125 L 20.246094 10.210938 L 20.332031 10.210938 L 20.332031 6.679688 C 20.332031 6.65625 20.320312 6.636719 20.304688 6.621094 C 20.289062 6.605469 20.269531 6.59375 20.246094 6.59375 L 9.773438 6.59375 C 9.75 6.59375 9.726562 6.605469 9.710938 6.621094 C 9.695312 6.636719 9.6875 6.65625 9.6875 6.679688 L 9.6875 10.210938 C 9.6875 10.230469 9.695312 10.253906 9.710938 10.269531 C 9.726562 10.285156 9.75 10.292969 9.773438 10.292969 L 20.246094 10.292969 C 20.269531 10.292969 20.289062 10.285156 20.304688 10.269531 C 20.320312 10.253906 20.332031 10.230469 20.332031 10.210938 L 20.246094 10.210938 " fill-opacity="1" fill-rule="nonzero"/></svg>