<svg xmlns="http://www.w3.org/2000/svg" xmlns:xlink="http://www.w3.org/1999/xlink" width="40" zoomAndPan="magnify" viewBox="0 0 30 30.000001" height="40" preserveAspectRatio="xMidYMid meet" version="1.0"><defs><clipPath id="466523d53b"><path d="M 7.574219 0.671875 L 22 0.671875 L 22 16 L 7.574219 16 Z M 7.574219 0.671875 " clip-rule="nonzero"/></clipPath><clipPath id="46138d6481"><path d="M 7.574219 0.671875 L 22.089844 0.671875 L 22.089844 28.253906 L 7.574219 28.253906 Z M 7.574219 0.671875 " clip-rule="nonzero"/></clipPath></defs><path fill="#ffffff" d="M 20.648438 12.257812 L 21.253906 13.011719 L 21.511719 15.164062 L 20.113281 26.195312 L 17.769531 27.554688 L 13.320312 27.988281 L 10.730469 27.097656 L 9.4375 25.957031 L 8.238281 16.308594 L 8.160156 14.023438 L 8.789062 12.503906 Z M 20.648438 12.257812 " fill-opacity="1" fill-rule="nonzero"/><g clip-path="url(#466523d53b)"><path fill="#2d2d2c" d="M 21.253906 7.984375 C 19.925781 7.984375 18.683594 8.398438 17.65625 9.101562 C 17.949219 6.199219 17.011719 3.1875 14.828125 0.964844 C 12.644531 3.195312 11.707031 6.210938 12 9.109375 C 10.972656 8.398438 9.738281 7.984375 8.402344 7.984375 L 7.789062 7.984375 L 7.789062 8.609375 C 7.789062 10.710938 8.757812 12.574219 10.265625 13.777344 C 11.351562 14.644531 12.722656 15.164062 14.214844 15.164062 L 15.441406 15.164062 C 16.933594 15.164062 18.304688 14.644531 19.390625 13.785156 C 20.898438 12.589844 21.867188 10.71875 21.867188 8.617188 L 21.867188 7.992188 L 21.253906 7.992188 Z M 21.253906 7.984375 " fill-opacity="1" fill-rule="nonzero"/></g><g clip-path="url(#46138d6481)"><path fill="#000000" d="M 22.089844 7.984375 C 22.089844 7.863281 21.996094 7.765625 21.875 7.765625 L 21.261719 7.765625 C 20.082031 7.765625 18.933594 8.082031 17.914062 8.6875 C 17.925781 8.601562 17.925781 8.519531 17.925781 8.433594 C 17.925781 8.425781 17.925781 8.40625 17.925781 8.398438 C 17.925781 8.328125 17.925781 8.265625 17.925781 8.195312 C 17.925781 8.167969 17.925781 8.132812 17.925781 8.109375 C 17.925781 8.089844 17.925781 8.082031 17.925781 8.0625 C 17.925781 8.027344 17.925781 7.992188 17.925781 7.957031 C 17.925781 7.914062 17.925781 7.871094 17.925781 7.835938 C 17.925781 7.800781 17.925781 7.765625 17.925781 7.722656 C 17.925781 7.667969 17.925781 7.617188 17.914062 7.5625 C 17.914062 7.535156 17.914062 7.511719 17.90625 7.484375 C 17.90625 7.421875 17.898438 7.359375 17.898438 7.300781 C 17.898438 7.289062 17.898438 7.289062 17.898438 7.28125 C 17.890625 7.167969 17.882812 7.054688 17.863281 6.9375 C 17.855469 6.886719 17.855469 6.832031 17.847656 6.78125 C 17.847656 6.753906 17.839844 6.738281 17.839844 6.710938 C 17.828125 6.640625 17.820312 6.578125 17.8125 6.507812 C 17.8125 6.492188 17.804688 6.480469 17.804688 6.464844 C 17.796875 6.386719 17.777344 6.316406 17.769531 6.234375 C 17.769531 6.226562 17.769531 6.226562 17.769531 6.21875 C 17.484375 4.628906 16.835938 3.132812 15.871094 1.84375 C 15.871094 1.84375 15.871094 1.832031 15.863281 1.832031 C 15.8125 1.773438 15.757812 1.703125 15.714844 1.640625 C 15.707031 1.632812 15.699219 1.621094 15.699219 1.613281 C 15.65625 1.550781 15.605469 1.5 15.5625 1.4375 C 15.550781 1.429688 15.542969 1.410156 15.527344 1.402344 C 15.484375 1.351562 15.441406 1.296875 15.386719 1.246094 C 15.371094 1.226562 15.363281 1.210938 15.34375 1.199219 C 15.300781 1.148438 15.257812 1.105469 15.207031 1.050781 C 15.191406 1.035156 15.179688 1.015625 15.164062 1 C 15.105469 0.9375 15.042969 0.867188 14.984375 0.804688 C 14.898438 0.71875 14.757812 0.71875 14.679688 0.804688 C 14.621094 0.867188 14.5625 0.9375 14.5 1 C 14.472656 1.023438 14.457031 1.050781 14.429688 1.070312 C 14.398438 1.113281 14.355469 1.148438 14.320312 1.191406 C 14.292969 1.226562 14.265625 1.253906 14.234375 1.289062 C 14.207031 1.324219 14.171875 1.359375 14.148438 1.394531 C 14.113281 1.429688 14.085938 1.472656 14.050781 1.507812 C 14.027344 1.535156 14.007812 1.570312 13.984375 1.597656 C 13.949219 1.640625 13.914062 1.683594 13.878906 1.726562 C 13.863281 1.753906 13.84375 1.773438 13.828125 1.796875 C 13.785156 1.851562 13.75 1.902344 13.714844 1.957031 C 13.707031 1.972656 13.691406 1.992188 13.679688 2 C 13.636719 2.0625 13.59375 2.125 13.550781 2.183594 C 13.542969 2.195312 13.542969 2.203125 13.535156 2.210938 C 12.242188 4.101562 11.609375 6.367188 11.75 8.6875 C 10.738281 8.082031 9.59375 7.765625 8.402344 7.765625 L 7.789062 7.765625 C 7.667969 7.765625 7.574219 7.871094 7.574219 7.984375 L 7.574219 8.609375 C 7.574219 9.960938 7.960938 11.253906 8.679688 12.34375 C 8.195312 12.890625 7.9375 13.503906 7.9375 14.144531 L 7.9375 15.664062 C 7.9375 16.050781 8.03125 16.421875 8.203125 16.773438 L 9.214844 25.464844 C 9.214844 25.464844 9.214844 25.472656 9.214844 25.472656 C 9.464844 27.054688 11.828125 28.207031 14.828125 28.207031 C 17.828125 28.207031 20.183594 27.054688 20.441406 25.472656 C 20.441406 25.472656 20.441406 25.464844 20.441406 25.464844 L 21.460938 16.78125 C 21.632812 16.429688 21.726562 16.0625 21.726562 15.675781 L 21.726562 14.152344 C 21.726562 13.511719 21.46875 12.898438 20.988281 12.351562 C 21.703125 11.261719 22.089844 9.972656 22.089844 8.617188 Z M 15 1.472656 C 15.007812 1.492188 15.027344 1.5 15.035156 1.515625 C 15.078125 1.570312 15.121094 1.621094 15.164062 1.667969 C 15.171875 1.683594 15.191406 1.691406 15.199219 1.710938 C 15.242188 1.761719 15.285156 1.816406 15.328125 1.867188 C 15.335938 1.878906 15.34375 1.894531 15.355469 1.902344 C 15.40625 1.964844 15.449219 2.027344 15.5 2.089844 C 15.5 2.089844 15.507812 2.097656 15.507812 2.097656 C 16.519531 3.433594 17.15625 5.007812 17.390625 6.65625 C 17.390625 6.675781 17.398438 6.703125 17.398438 6.71875 C 17.40625 6.78125 17.414062 6.84375 17.425781 6.894531 C 17.433594 6.929688 17.433594 6.972656 17.433594 7.007812 C 17.441406 7.054688 17.441406 7.097656 17.441406 7.140625 C 17.441406 7.183594 17.449219 7.230469 17.449219 7.273438 C 17.449219 7.308594 17.457031 7.351562 17.457031 7.386719 C 17.457031 7.429688 17.46875 7.476562 17.46875 7.527344 C 17.46875 7.5625 17.46875 7.605469 17.476562 7.640625 C 17.476562 7.6875 17.476562 7.730469 17.484375 7.773438 C 17.484375 7.816406 17.484375 7.863281 17.484375 7.90625 C 17.484375 7.941406 17.484375 7.976562 17.484375 8.011719 C 17.484375 8.089844 17.484375 8.160156 17.484375 8.238281 C 17.484375 8.25 17.484375 8.25 17.484375 8.257812 C 17.476562 8.53125 17.457031 8.792969 17.433594 9.066406 C 17.433594 9.066406 17.433594 9.066406 17.433594 9.074219 C 17.226562 11.132812 16.390625 13.046875 15.035156 14.59375 L 15.035156 6.164062 C 15.035156 6.042969 14.941406 5.945312 14.820312 5.945312 C 14.699219 5.945312 14.605469 6.042969 14.605469 6.164062 L 14.605469 14.609375 C 11.601562 11.183594 11.371094 6.105469 13.914062 2.421875 C 13.921875 2.414062 13.929688 2.394531 13.941406 2.386719 C 13.972656 2.335938 14.007812 2.289062 14.042969 2.238281 C 14.058594 2.21875 14.078125 2.195312 14.085938 2.175781 C 14.121094 2.132812 14.148438 2.089844 14.179688 2.042969 C 14.199219 2.019531 14.222656 1.992188 14.242188 1.964844 C 14.265625 1.929688 14.300781 1.894531 14.328125 1.851562 C 14.355469 1.816406 14.378906 1.789062 14.40625 1.753906 C 14.429688 1.71875 14.457031 1.691406 14.484375 1.65625 C 14.515625 1.621094 14.550781 1.578125 14.585938 1.542969 C 14.613281 1.515625 14.628906 1.492188 14.65625 1.472656 C 14.714844 1.410156 14.769531 1.351562 14.828125 1.289062 C 14.886719 1.351562 14.949219 1.410156 15 1.472656 Z M 20.160156 13.390625 C 20.339844 13.636719 20.433594 13.898438 20.433594 14.164062 C 20.433594 15.535156 17.863281 16.683594 14.828125 16.683594 C 11.792969 16.683594 9.222656 15.523438 9.222656 14.164062 C 9.222656 13.898438 9.316406 13.644531 9.496094 13.390625 C 9.695312 13.589844 9.902344 13.777344 10.128906 13.953125 C 11.300781 14.882812 12.714844 15.382812 14.207031 15.382812 L 15.433594 15.382812 C 16.925781 15.382812 18.339844 14.890625 19.511719 13.953125 C 19.753906 13.777344 19.960938 13.582031 20.160156 13.390625 Z M 8.003906 8.203125 L 8.402344 8.203125 C 9.617188 8.203125 10.792969 8.566406 11.800781 9.234375 C 11.9375 10.5 12.316406 11.746094 12.921875 12.90625 L 10.566406 10.507812 C 10.480469 10.417969 10.34375 10.417969 10.265625 10.507812 C 10.179688 10.59375 10.179688 10.734375 10.265625 10.816406 L 14.308594 14.9375 L 14.214844 14.9375 C 12.816406 14.9375 11.5 14.46875 10.394531 13.601562 C 8.875 12.398438 8.003906 10.578125 8.003906 8.617188 Z M 17.578125 18.785156 C 16.75 18.980469 15.828125 19.085938 14.835938 19.085938 C 11.792969 19.085938 9.375 18.089844 8.617188 16.648438 C 8.609375 16.632812 8.601562 16.625 8.59375 16.605469 C 8.445312 16.316406 8.367188 16 8.367188 15.675781 L 8.367188 15.542969 C 9.324219 17.011719 11.792969 17.996094 14.835938 17.996094 C 16.648438 17.996094 18.242188 17.644531 19.449219 17.054688 C 19.277344 18.082031 18.320312 18.558594 17.578125 18.785156 Z M 9.644531 25.402344 L 8.722656 17.519531 C 9.851562 18.734375 12.109375 19.523438 14.835938 19.523438 C 16.5625 19.523438 18.097656 19.207031 19.289062 18.664062 L 18.484375 25.050781 C 18.328125 26.300781 17.457031 27.355469 16.257812 27.652344 C 16.214844 27.660156 16.183594 27.671875 16.140625 27.679688 C 15.734375 27.730469 15.300781 27.757812 14.84375 27.757812 C 11.714844 27.765625 9.835938 26.546875 9.644531 25.402344 Z M 21.296875 14.152344 C 21.296875 16.097656 18.519531 17.554688 14.828125 17.554688 C 11.136719 17.554688 8.359375 16.085938 8.359375 14.152344 C 8.359375 13.644531 8.550781 13.160156 8.929688 12.722656 C 9.015625 12.835938 9.109375 12.949219 9.203125 13.066406 C 8.929688 13.40625 8.789062 13.777344 8.789062 14.164062 C 8.789062 15.824219 11.4375 17.125 14.828125 17.125 C 18.21875 17.125 20.867188 15.824219 20.867188 14.164062 C 20.867188 13.777344 20.726562 13.417969 20.453125 13.066406 C 20.546875 12.949219 20.640625 12.84375 20.726562 12.722656 C 21.105469 13.160156 21.296875 13.644531 21.296875 14.152344 Z M 21.660156 8.617188 C 21.660156 9.9375 21.261719 11.191406 20.546875 12.238281 C 20.539062 12.246094 20.527344 12.257812 20.519531 12.273438 C 20.367188 12.492188 20.203125 12.703125 20.019531 12.90625 C 20.019531 12.90625 20.019531 12.914062 20.011719 12.914062 C 19.789062 13.171875 19.539062 13.398438 19.261719 13.617188 C 18.164062 14.496094 16.835938 14.953125 15.441406 14.953125 L 15.34375 14.953125 L 19.390625 10.832031 C 19.476562 10.746094 19.476562 10.605469 19.390625 10.523438 C 19.304688 10.4375 19.167969 10.4375 19.089844 10.523438 L 16.742188 12.914062 C 17.339844 11.78125 17.71875 10.542969 17.855469 9.25 C 18.863281 8.582031 20.039062 8.222656 21.246094 8.222656 L 21.640625 8.222656 L 21.640625 8.617188 Z M 21.660156 8.617188 " fill-opacity="1" fill-rule="nonzero"/></g></svg>