<svg xmlns="http://www.w3.org/2000/svg" xmlns:xlink="http://www.w3.org/1999/xlink" width="40" zoomAndPan="magnify" viewBox="0 0 30 30.000001" height="40" preserveAspectRatio="xMidYMid meet" version="1.0"><defs><clipPath id="660dfd57bd"><path d="M 0.484375 11 L 29.515625 11 L 29.515625 25.425781 L 0.484375 25.425781 Z M 0.484375 11 " clip-rule="nonzero"/></clipPath><clipPath id="01404a6d8c"><path d="M 0.484375 10 L 23 10 L 23 23 L 0.484375 23 Z M 0.484375 10 " clip-rule="nonzero"/></clipPath><clipPath id="d4108f565a"><path d="M 0.484375 5 L 29.515625 5 L 29.515625 25.425781 L 0.484375 25.425781 Z M 0.484375 5 " clip-rule="nonzero"/></clipPath></defs><g clip-path="url(#660dfd57bd)"><path fill="#000000" d="M 28.972656 21.832031 C 29.507812 21.039062 29.476562 20.089844 28.167969 19.292969 C 25.113281 17.429688 23.105469 15.597656 23.105469 15.597656 C 23.105469 15.597656 23.105469 15.597656 23.105469 15.601562 L 22.605469 16.117188 L 20.363281 18.457031 L 10.910156 14.378906 C 10.910156 14.378906 5.429688 12.449219 5.304688 12.546875 C 5.222656 12.609375 4.640625 12.058594 3.761719 11.988281 C 3.480469 11.964844 3.171875 11.992188 2.835938 12.101562 C 2.609375 12.175781 2.375 12.289062 2.128906 12.453125 C 2.082031 12.480469 2.039062 12.511719 1.992188 12.546875 C 1.992188 12.546875 2.007812 12.5625 2.039062 12.589844 L 0.632812 14.789062 C 0.832031 14.96875 1.082031 15.1875 1.355469 15.429688 C 2.066406 16.050781 2.964844 16.808594 3.710938 17.351562 C 3.792969 17.410156 3.871094 17.46875 3.949219 17.519531 C 3.949219 17.523438 3.949219 17.523438 3.949219 17.523438 C 4.132812 17.640625 4.324219 17.761719 4.523438 17.882812 C 4.636719 17.957031 4.753906 18.027344 4.875 18.101562 C 8.472656 20.328125 13.824219 23.253906 18.679688 24.402344 C 21.4375 25.054688 23.355469 25.324219 24.714844 25.363281 C 24.757812 25.363281 24.800781 25.367188 24.84375 25.367188 C 24.890625 25.367188 24.933594 25.367188 24.976562 25.367188 C 25.039062 25.371094 25.101562 25.371094 25.164062 25.367188 C 25.191406 25.367188 25.21875 25.367188 25.246094 25.367188 C 25.300781 25.367188 25.351562 25.367188 25.402344 25.363281 C 25.425781 25.363281 25.449219 25.363281 25.472656 25.363281 C 25.496094 25.359375 25.519531 25.359375 25.542969 25.359375 C 26.222656 25.328125 26.722656 25.226562 27.105469 25.089844 C 27.105469 25.089844 27.109375 25.089844 27.109375 25.089844 C 28.054688 24.792969 28.5625 24.292969 28.824219 23.769531 C 28.867188 23.679688 28.90625 23.589844 28.9375 23.496094 C 29.230469 22.65625 28.976562 21.847656 28.972656 21.832031 Z M 28.972656 21.832031 " fill-opacity="1" fill-rule="nonzero"/></g><path fill="#000000" d="M 15.828125 11.453125 C 15.828125 11.453125 15.3125 11.320312 15.125 11.25 C 14.988281 11.335938 14.777344 11.40625 14.445312 11.453125 C 14.335938 11.46875 14.230469 11.484375 14.125 11.5 C 13.957031 11.675781 14.039062 11.65625 13.042969 11.746094 C 11.609375 11.871094 11.832031 12.128906 10.972656 11.746094 C 10.464844 11.742188 10.023438 11.714844 9.253906 11.453125 C 8.296875 11.132812 7.882812 10.972656 7.851562 10.683594 C 7.820312 10.394531 7.757812 10.167969 7.757812 10.039062 L 6.546875 5.414062 C 6.546875 5.414062 7.121094 4.226562 9.125 5.414062 C 9.125 5.414062 10.082031 6.066406 10.792969 7.769531 C 10.792969 7.769531 11.402344 9.199219 13.292969 9.40625 C 13.328125 8.992188 13.648438 8.414062 14.601562 7.628906 C 16.992188 5.671875 17.722656 6.539062 17.722656 6.539062 Z M 6.367188 4.949219 L 6.433594 4.5625 C 6.433594 4.5625 6.417969 4.449219 6.308594 4.394531 C 6.195312 4.335938 6.195312 4.191406 6.195312 4.191406 C 6.195312 4.191406 6.148438 4.191406 6.085938 4.191406 C 6.070312 4.203125 6.050781 4.210938 6.03125 4.21875 C 5.871094 4.289062 5.710938 4.355469 5.550781 4.417969 L 5.398438 4.886719 L 5.988281 5.847656 L 6.433594 5.976562 C 5.8125 5.253906 6.367188 4.949219 6.367188 4.949219 Z M 6.367188 4.949219 " fill-opacity="1" fill-rule="nonzero"/><path fill="#ffffff" d="M 22.691406 15.4375 C 22.6875 15.378906 22.675781 15.324219 22.648438 15.273438 C 22.601562 15.167969 22.519531 15.078125 22.421875 14.992188 C 22.417969 14.992188 22.414062 14.988281 22.414062 14.988281 C 22.410156 14.984375 22.410156 14.984375 22.410156 14.984375 C 22.394531 14.972656 22.378906 14.960938 22.363281 14.949219 C 22.09375 14.75 21.730469 14.617188 21.570312 14.566406 C 21.511719 14.546875 21.480469 14.539062 21.480469 14.539062 C 21.5 14.394531 21.441406 14.269531 21.347656 14.167969 C 21.277344 14.09375 21.1875 14.03125 21.097656 13.980469 C 20.882812 13.859375 20.652344 13.800781 20.652344 13.800781 L 20.429688 13.398438 C 20.429688 13.390625 20.425781 13.378906 20.425781 13.371094 C 20.386719 13.203125 20.296875 13.074219 20.1875 12.976562 C 20.1875 12.976562 20.1875 12.976562 20.1875 12.972656 C 20.1875 12.972656 20.1875 12.972656 20.183594 12.972656 C 20.058594 12.859375 19.914062 12.789062 19.8125 12.75 C 19.804688 12.746094 19.792969 12.742188 19.785156 12.738281 C 19.730469 12.71875 19.699219 12.710938 19.699219 12.710938 L 19.441406 12.066406 C 19.453125 12.003906 19.457031 11.945312 19.460938 11.890625 C 19.472656 11.675781 19.453125 11.507812 19.414062 11.375 L 19.414062 11.371094 C 19.367188 11.199219 19.289062 11.082031 19.222656 11.011719 C 19.152344 10.9375 19.09375 10.910156 19.09375 10.910156 L 18.859375 10.160156 L 17.722656 6.539062 C 17.722656 6.539062 17.371094 7.40625 15.617188 7.921875 C 14.402344 8.277344 14.445312 9.21875 14.585938 9.761719 C 14.1875 9.824219 13.726562 9.871094 13.234375 9.875 C 13.121094 9.871094 12.992188 9.871094 12.855469 9.871094 C 12.433594 9.855469 12 9.804688 11.578125 9.699219 C 9.996094 9.222656 9.453125 7.925781 9.453125 7.925781 C 9.121094 7.023438 8.851562 6.488281 8.648438 6.167969 C 8.648438 6.164062 8.648438 6.15625 8.648438 6.148438 C 8.648438 6.148438 8.628906 6.121094 8.589844 6.078125 C 8.320312 5.6875 8.183594 5.703125 8.183594 5.703125 C 7.917969 5.511719 7.546875 5.332031 7.085938 5.332031 C 6.960938 5.332031 6.828125 5.347656 6.691406 5.378906 C 6.671875 5.382812 6.652344 5.386719 6.632812 5.390625 C 6.636719 5.371094 6.636719 5.347656 6.636719 5.324219 C 6.652344 4.832031 6.601562 3.652344 5.734375 4.191406 C 4.652344 4.859375 6.128906 6.066406 6.128906 6.066406 L 4.144531 9.171875 L 2.699219 11.441406 L 2.617188 11.566406 L 2.515625 11.730469 L 1.992188 12.546875 C 1.992188 12.546875 2.007812 12.5625 2.042969 12.589844 C 2.113281 12.648438 2.261719 12.773438 2.480469 12.953125 C 2.523438 12.988281 2.570312 13.027344 2.621094 13.066406 C 2.703125 13.132812 2.796875 13.207031 2.894531 13.285156 C 4.691406 14.714844 8.96875 17.898438 13.855469 20.035156 C 15.542969 20.773438 17.304688 21.386719 19.058594 21.761719 C 19.175781 21.785156 19.292969 21.808594 19.410156 21.832031 L 22.339844 16.660156 L 23.101562 15.605469 C 23.101562 15.605469 23.101562 15.601562 23.101562 15.601562 C 23.105469 15.601562 23.105469 15.601562 23.105469 15.601562 C 23.105469 15.597656 23.105469 15.597656 23.105469 15.597656 Z M 5.988281 4.394531 C 6.304688 4.253906 6.421875 5.214844 6.457031 5.554688 L 6.425781 5.601562 L 6.226562 5.910156 C 5.273438 4.929688 5.617188 4.558594 5.988281 4.394531 Z M 5.988281 4.394531 " fill-opacity="1" fill-rule="nonzero"/><path fill="#000000" d="M 20.941406 16.601562 C 21.558594 17.152344 22.03125 17.460938 22.03125 17.460938 L 21.664062 17.851562 C 21.34375 17.6875 20.964844 17.347656 20.554688 16.898438 L 20.191406 17.183594 L 20.460938 16.796875 C 20.015625 16.292969 19.535156 15.664062 19.058594 14.984375 L 17.9375 15.386719 L 18.902344 14.761719 C 18.597656 14.316406 18.292969 13.859375 18.003906 13.40625 L 16.808594 13.644531 L 17.824219 13.128906 C 17.484375 12.589844 17.164062 12.066406 16.878906 11.589844 L 15.664062 11.746094 L 15.578125 11.5 L 15.503906 11.503906 L 15.574219 11.480469 L 15.503906 11.28125 C 15.503906 11.28125 15.636719 11.28125 16.089844 11.054688 C 16.242188 10.976562 16.339844 10.925781 16.457031 10.882812 C 15.972656 10.054688 15.664062 9.496094 15.664062 9.496094 L 14.585938 9.761719 L 14.328125 9.445312 L 15.828125 9.15625 C 15.828125 9.15625 16.257812 9.851562 16.828125 10.785156 C 17.058594 10.738281 17.390625 10.6875 17.9375 10.605469 C 18.648438 10.5 18.71875 10.539062 18.601562 10.605469 L 19 10.605469 L 19.347656 11.28125 L 17.292969 11.539062 C 17.578125 12 17.875 12.488281 18.164062 12.957031 L 18.5 12.785156 C 18.5 12.785156 18.742188 12.625 18.886719 12.671875 C 19.027344 12.71875 19.640625 12.671875 19.640625 12.671875 L 20.191406 12.976562 L 18.394531 13.332031 C 18.613281 13.6875 18.820312 14.023438 19.003906 14.324219 C 19.058594 14.414062 19.113281 14.5 19.171875 14.585938 L 19.847656 14.144531 L 20.890625 13.804688 L 21.347656 14.167969 L 19.371094 14.875 C 19.8125 15.484375 20.300781 16.003906 20.734375 16.410156 L 21.535156 15.273438 C 21.535156 15.273438 22.003906 14.738281 22.128906 14.800781 C 22.257812 14.863281 22.648438 15.273438 22.648438 15.273438 Z M 20.941406 16.601562 " fill-opacity="1" fill-rule="nonzero"/><path fill="#484c70" d="M 18.34375 17.507812 L 18.441406 17.59375 L 18.421875 17.609375 Z M 12.882812 19.496094 L 14.625 20.402344 L 18.265625 17.726562 L 17.210938 16.757812 Z M 12.925781 12.816406 L 6.257812 15.964844 L 7.628906 17.25 L 8.171875 17.25 L 8.328125 17.460938 L 8.679688 16.847656 L 14.171875 13.960938 Z M 15.230469 14.9375 L 9.917969 17.636719 L 11.492188 18.761719 L 16.398438 16.007812 Z M 15.613281 12.144531 C 16.0625 12.144531 16.425781 11.777344 16.425781 11.324219 C 16.425781 10.875 16.0625 10.507812 15.613281 10.507812 C 15.164062 10.507812 14.800781 10.875 14.800781 11.324219 C 14.800781 11.777344 15.164062 12.144531 15.613281 12.144531 Z M 15.875 13.277344 C 15.875 13.730469 16.238281 14.097656 16.6875 14.097656 C 17.136719 14.097656 17.5 13.730469 17.5 13.277344 C 17.5 12.824219 17.136719 12.457031 16.6875 12.457031 C 16.238281 12.457031 15.875 12.824219 15.875 13.277344 Z M 17.917969 14.304688 C 17.46875 14.304688 17.105469 14.671875 17.105469 15.125 C 17.105469 15.574219 17.46875 15.941406 17.917969 15.941406 C 18.367188 15.941406 18.730469 15.574219 18.730469 15.125 C 18.730469 14.671875 18.367188 14.304688 17.917969 14.304688 Z M 19.660156 16.273438 C 19.214844 16.273438 18.847656 16.640625 18.847656 17.09375 C 18.847656 17.546875 19.214844 17.910156 19.660156 17.910156 C 20.109375 17.910156 20.472656 17.546875 20.472656 17.09375 C 20.472656 16.640625 20.109375 16.273438 19.660156 16.273438 Z M 19.660156 16.273438 " fill-opacity="1" fill-rule="nonzero"/><path fill="#000000" d="M 16.144531 11.28125 C 16.144531 11.5625 15.917969 11.789062 15.636719 11.789062 C 15.359375 11.789062 15.132812 11.5625 15.132812 11.28125 C 15.132812 11 15.359375 10.769531 15.636719 10.769531 C 15.917969 10.769531 16.144531 11 16.144531 11.28125 Z M 16.734375 12.785156 C 16.457031 12.785156 16.230469 13.015625 16.230469 13.296875 C 16.230469 13.578125 16.457031 13.804688 16.734375 13.804688 C 17.015625 13.804688 17.238281 13.578125 17.238281 13.296875 C 17.238281 13.015625 17.015625 12.785156 16.734375 12.785156 Z M 17.9375 14.558594 C 17.660156 14.558594 17.433594 14.785156 17.433594 15.066406 C 17.433594 15.347656 17.660156 15.574219 17.9375 15.574219 C 18.21875 15.574219 18.441406 15.347656 18.441406 15.066406 C 18.441406 14.785156 18.21875 14.558594 17.9375 14.558594 Z M 19.695312 16.578125 C 19.417969 16.578125 19.191406 16.804688 19.191406 17.085938 C 19.191406 17.367188 19.417969 17.59375 19.695312 17.59375 C 19.972656 17.59375 20.199219 17.367188 20.199219 17.085938 C 20.199219 16.804688 19.972656 16.578125 19.695312 16.578125 Z M 19.695312 16.578125 " fill-opacity="1" fill-rule="nonzero"/><g clip-path="url(#01404a6d8c)"><path fill="#000000" d="M 19.003906 10.121094 L 18.859375 10.160156 L 15.503906 11.011719 C 15.253906 11.46875 15.617188 11.566406 15.617188 11.566406 L 19.214844 11.011719 C 19.21875 11.011719 19.222656 11.011719 19.222656 11.011719 C 19.417969 10.433594 19.003906 10.121094 19.003906 10.121094 Z M 19.53125 11.863281 L 19.460938 11.890625 L 16.445312 13.105469 C 16.265625 13.585938 16.609375 13.644531 16.609375 13.644531 L 19.785156 12.738281 L 19.828125 12.726562 C 19.941406 12.132812 19.53125 11.863281 19.53125 11.863281 Z M 20.679688 13.230469 L 20.425781 13.371094 L 17.625 14.90625 C 17.496094 15.410156 17.859375 15.421875 17.859375 15.421875 L 19.210938 14.847656 L 21.09375 14.046875 C 21.097656 14.023438 21.097656 14.003906 21.097656 13.980469 C 21.105469 13.425781 20.679688 13.230469 20.679688 13.230469 Z M 22.382812 15.011719 C 22.378906 14.988281 22.371094 14.96875 22.363281 14.949219 C 22.1875 14.425781 21.722656 14.390625 21.722656 14.390625 L 21.570312 14.566406 L 19.394531 17.019531 C 19.441406 17.535156 19.785156 17.417969 19.785156 17.417969 L 19.984375 17.234375 L 20.015625 17.207031 L 22.386719 15.015625 C 22.386719 15.015625 22.386719 15.011719 22.382812 15.011719 Z M 19.410156 21.832031 C 19.363281 21.824219 19.3125 21.820312 19.265625 21.8125 C 19.253906 21.8125 19.242188 21.808594 19.230469 21.808594 C 17.460938 21.554688 15.738281 20.941406 14.207031 20.207031 C 14.207031 20.207031 14.203125 20.203125 14.203125 20.203125 C 14.175781 20.191406 14.144531 20.175781 14.105469 20.15625 C 14.101562 20.15625 14.097656 20.15625 14.097656 20.152344 C 14.09375 20.152344 14.09375 20.152344 14.09375 20.152344 C 14.011719 20.113281 13.933594 20.074219 13.855469 20.035156 C 13.742188 19.980469 13.632812 19.921875 13.519531 19.863281 C 13.515625 19.863281 13.515625 19.859375 13.511719 19.859375 C 11.917969 18.984375 9.503906 17.1875 9.496094 17.183594 C 8.640625 16.390625 7.679688 15.972656 7.074219 15.769531 C 7.066406 15.765625 6.039062 15.378906 4.894531 14.59375 C 4.414062 14.207031 4.027344 13.8125 3.71875 13.445312 C 3.574219 13.273438 3.449219 13.105469 3.335938 12.945312 C 3.292969 12.882812 3.25 12.816406 3.207031 12.757812 C 3.199219 12.742188 3.191406 12.730469 3.183594 12.71875 C 3.136719 12.640625 3.089844 12.566406 3.046875 12.492188 C 2.964844 12.347656 2.894531 12.21875 2.835938 12.101562 C 2.808594 12.042969 2.78125 11.988281 2.761719 11.9375 C 2.703125 11.808594 2.664062 11.710938 2.644531 11.644531 C 2.625 11.59375 2.617188 11.566406 2.617188 11.566406 L 2.515625 11.730469 L 1.992188 12.546875 C 1.992188 12.546875 2.007812 12.5625 2.042969 12.589844 L 0.632812 14.789062 C 0.832031 14.96875 1.082031 15.1875 1.355469 15.429688 L 4.152344 16.714844 L 4.222656 16.746094 C 4.222656 16.746094 4.226562 16.746094 4.226562 16.75 L 6.84375 17.953125 L 6.894531 18.265625 C 7.039062 18.347656 7.007812 18.296875 7.375 18.441406 C 7.738281 18.585938 7.867188 18.675781 7.867188 18.675781 C 7.867188 18.675781 7.917969 18.71875 8.28125 18.894531 L 8.042969 19.230469 C 8.042969 19.230469 8.050781 19.25 8.078125 19.289062 C 8.136719 19.363281 8.265625 19.519531 8.554688 19.742188 C 8.992188 20.082031 8.933594 19.953125 9.140625 19.953125 C 9.148438 19.953125 9.164062 19.953125 9.183594 19.957031 C 9.414062 19.976562 10.453125 20.113281 11.535156 20.226562 C 11.761719 20.371094 12.121094 20.578125 12.691406 20.867188 C 14.09375 21.574219 12.945312 21.125 14.253906 21.542969 C 15.558594 21.960938 17.34375 22.410156 17.34375 22.410156 C 17.34375 22.410156 17.820312 22.761719 17.914062 22.796875 C 17.972656 22.816406 20.707031 22.726562 21.46875 22.484375 C 21.476562 22.480469 21.484375 22.480469 21.488281 22.476562 C 21.941406 22.324219 21.617188 22.113281 19.410156 21.832031 Z M 19.410156 21.832031 " fill-opacity="1" fill-rule="nonzero"/></g><g clip-path="url(#d4108f565a)"><path fill="#000000" d="M 19.210938 14.847656 L 21.097656 13.980469 L 21.347656 14.167969 L 19.394531 15.066406 L 19.210938 15.066406 Z M 19.984375 17.234375 L 20.03125 17.316406 L 22.648438 15.273438 C 22.65625 15.164062 22.46875 15.023438 22.421875 14.992188 C 22.417969 14.992188 22.414062 14.988281 22.414062 14.988281 C 22.414062 14.984375 22.410156 14.984375 22.410156 14.984375 L 22.382812 15.011719 L 20.015625 17.207031 Z M 19.949219 20.179688 L 19.949219 20.183594 C 19.835938 20.371094 19.734375 20.550781 19.640625 20.71875 C 19.640625 20.722656 19.636719 20.726562 19.636719 20.730469 L 19.058594 21.761719 C 19.058594 21.761719 26.152344 24.652344 29.007812 21.972656 L 28.972656 21.832031 C 28.972656 21.832031 25.3125 23.761719 19.839844 21.503906 C 20.5 20.054688 22.984375 15.804688 23.101562 15.605469 C 23.101562 15.605469 23.101562 15.601562 23.101562 15.601562 C 23.105469 15.601562 23.105469 15.601562 23.105469 15.601562 C 23.105469 15.597656 23.105469 15.597656 23.105469 15.597656 C 22.957031 15.722656 22.789062 15.898438 22.605469 16.117188 C 21.792969 17.09375 20.703125 18.878906 19.949219 20.179688 Z M 28.824219 23.769531 C 28.839844 23.753906 28.855469 23.738281 28.871094 23.722656 C 28.617188 24.261719 28.109375 24.785156 27.136719 25.089844 C 27.136719 25.089844 27.132812 25.089844 27.132812 25.089844 C 26.742188 25.226562 26.234375 25.328125 25.542969 25.359375 C 25.519531 25.359375 25.496094 25.359375 25.472656 25.363281 C 25.449219 25.363281 25.425781 25.363281 25.402344 25.363281 C 25.351562 25.367188 25.300781 25.367188 25.246094 25.367188 C 25.21875 25.367188 25.191406 25.367188 25.164062 25.367188 C 25.101562 25.371094 25.039062 25.371094 24.976562 25.367188 C 24.933594 25.367188 24.890625 25.367188 24.84375 25.367188 C 24.800781 25.367188 24.757812 25.363281 24.714844 25.363281 C 23.355469 25.320312 21.445312 25.050781 18.707031 24.402344 C 13.820312 23.246094 8.429688 20.289062 4.832031 18.058594 C 4.777344 18.027344 4.722656 17.992188 4.671875 17.960938 C 4.332031 17.75 4.011719 17.546875 3.710938 17.351562 C 2.964844 16.808594 2.066406 16.050781 1.355469 15.429688 C 1.082031 15.1875 0.832031 14.96875 0.632812 14.789062 L 0.640625 14.773438 L 0.496094 14.628906 L 2.617188 11.566406 L 2.699219 11.441406 L 4.144531 9.171875 L 6.128906 6.066406 L 6.226562 5.910156 L 6.425781 5.601562 C 6.480469 5.527344 6.53125 5.460938 6.574219 5.40625 C 6.597656 5.375 6.617188 5.347656 6.636719 5.324219 C 6.714844 5.21875 6.761719 5.160156 6.765625 5.152344 L 6.691406 5.378906 L 3.761719 11.988281 L 3.449219 12.691406 L 3.449219 12.695312 L 3.71875 13.445312 C 3.535156 13.3125 3.378906 13.15625 3.242188 12.992188 L 2.09375 15.074219 C 2.589844 15.507812 3.261719 16.050781 4.175781 16.714844 C 4.191406 16.726562 4.207031 16.738281 4.226562 16.746094 C 4.226562 16.746094 4.226562 16.746094 4.226562 16.75 C 5.210938 17.457031 6.46875 18.296875 8.078125 19.289062 C 8.097656 19.296875 8.113281 19.308594 8.128906 19.316406 C 8.464844 19.523438 8.8125 19.734375 9.179688 19.953125 C 9.179688 19.953125 9.183594 19.953125 9.183594 19.957031 C 9.660156 20.238281 10.160156 20.53125 10.6875 20.835938 C 10.6875 20.835938 19.285156 25.425781 25.542969 25.011719 C 25.9375 24.988281 26.285156 24.914062 26.605469 24.808594 C 27.078125 24.746094 27.554688 24.535156 27.960938 24.332031 C 28.242188 24.191406 28.5625 24.007812 28.824219 23.769531 Z M 1.746094 14.757812 C 1.753906 14.765625 1.761719 14.773438 1.769531 14.78125 L 1.753906 14.742188 Z M 19.414062 11.375 L 19.414062 11.371094 C 19.410156 11.351562 19.332031 10.996094 19.222656 11.011719 C 19.21875 11.011719 19.21875 11.011719 19.214844 11.011719 C 19.042969 11.042969 17.109375 11.453125 17.109375 11.453125 L 17.242188 11.746094 Z M 18.261719 13.355469 L 18.5 13.503906 L 20.1875 12.976562 C 20.1875 12.976562 20.1875 12.976562 20.1875 12.972656 C 20.1875 12.972656 20.1875 12.972656 20.183594 12.972656 C 20.152344 12.9375 19.960938 12.746094 19.8125 12.75 C 19.804688 12.75 19.796875 12.75 19.789062 12.753906 C 19.621094 12.785156 18.234375 13.230469 18.234375 13.230469 Z M 18.261719 13.355469 " fill-opacity="1" fill-rule="nonzero"/></g></svg>