<svg xmlns="http://www.w3.org/2000/svg" xmlns:xlink="http://www.w3.org/1999/xlink" width="40" zoomAndPan="magnify" viewBox="0 0 30 30.000001" height="40" preserveAspectRatio="xMidYMid meet" version="1.0"><defs><clipPath id="cb5e304423"><path d="M 0.484375 8.644531 L 29.515625 8.644531 L 29.515625 22.433594 L 0.484375 22.433594 Z M 0.484375 8.644531 " clip-rule="nonzero"/></clipPath><clipPath id="e18a80358f"><path d="M 0.484375 8.644531 L 29.515625 8.644531 L 29.515625 22.433594 L 0.484375 22.433594 Z M 0.484375 8.644531 " clip-rule="nonzero"/></clipPath></defs><g clip-path="url(#cb5e304423)"><path fill="#000000" d="M 8.902344 20.035156 C 8.769531 20.367188 2.914062 22.4375 2.738281 22.082031 C 2.671875 21.957031 2.082031 20.605469 2.332031 20.214844 C 2.585938 19.820312 4.148438 17.417969 3.976562 17.316406 C 3.710938 17.15625 1.457031 18.292969 1.308594 17.910156 C 1.164062 17.53125 0.652344 16.625 0.644531 16.152344 C 0.640625 15.675781 6.503906 13.847656 6.835938 14.238281 C 6.972656 14.398438 7.039062 15.316406 7.148438 15.710938 C 7.257812 16.105469 5.417969 19.085938 5.5625 19.175781 C 5.8125 19.328125 7.699219 17.992188 8.058594 18.132812 C 8.421875 18.269531 9.035156 19.703125 8.902344 20.035156 Z M 17.617188 15.300781 C 17.246094 15.125 15.140625 16.382812 14.890625 16.199219 C 14.742188 16.09375 16.933594 13.089844 16.851562 12.664062 C 16.765625 12.238281 16.769531 11.261719 16.636719 11.078125 C 16.316406 10.640625 9.964844 12.09375 9.933594 12.59375 C 9.902344 13.097656 10.371094 14.097656 10.492188 14.511719 C 10.613281 14.929688 13.09375 13.914062 13.363281 14.101562 C 13.535156 14.222656 11.683594 16.640625 11.386719 17.035156 C 11.089844 17.429688 11.605469 18.90625 11.660156 19.042969 C 11.820312 19.433594 18.183594 17.722656 18.351562 17.382812 C 18.519531 17.042969 17.988281 15.476562 17.617188 15.300781 Z M 28.832031 14.3125 C 28.445312 14.019531 25.730469 14.945312 25.484375 14.675781 C 25.339844 14.515625 28.585938 11.609375 28.59375 11.097656 C 28.601562 10.589844 28.84375 9.46875 28.738281 9.226562 C 28.476562 8.644531 20.832031 8.761719 20.671875 9.332031 C 20.515625 9.898438 20.808594 11.160156 20.847656 11.667969 C 20.886719 12.175781 23.980469 11.613281 24.242188 11.894531 C 24.410156 12.078125 21.699219 14.398438 21.261719 14.777344 C 20.824219 15.15625 21.054688 16.980469 21.085938 17.152344 C 21.175781 17.640625 28.890625 17.226562 29.167969 16.878906 C 29.445312 16.53125 29.214844 14.601562 28.832031 14.3125 Z M 28.832031 14.3125 " fill-opacity="1" fill-rule="nonzero"/></g><path fill="#ffffff" d="M 6.128906 15.082031 C 6.460938 15.613281 6.011719 16.179688 5.785156 16.65625 C 5.566406 17.121094 5.304688 17.617188 5.222656 18.128906 C 5.210938 18.203125 5.304688 18.28125 5.367188 18.210938 C 5.851562 17.648438 6.070312 16.84375 6.40625 16.183594 C 6.625 15.757812 6.734375 15.269531 6.347656 14.914062 C 6.234375 14.808594 6.039062 14.945312 6.128906 15.082031 Z M 1.1875 16.542969 C 1.175781 16.527344 1.171875 16.523438 1.183594 16.539062 C 1.175781 16.519531 1.171875 16.519531 1.179688 16.535156 C 1.183594 16.550781 1.191406 16.570312 1.195312 16.585938 C 1.210938 16.632812 1.21875 16.675781 1.242188 16.71875 C 1.316406 16.839844 1.535156 16.796875 1.523438 16.644531 C 1.515625 16.519531 1.46875 16.382812 1.363281 16.3125 C 1.222656 16.21875 1.074219 16.425781 1.1875 16.542969 Z M 7.765625 19.027344 C 7.769531 19.050781 7.777344 19.101562 7.785156 19.136719 C 7.792969 19.15625 7.796875 19.179688 7.804688 19.199219 C 7.808594 19.207031 7.816406 19.265625 7.8125 19.230469 C 7.824219 19.3125 7.875 19.382812 7.964844 19.382812 C 8.042969 19.382812 8.125 19.3125 8.117188 19.230469 C 8.101562 19.09375 8.046875 18.964844 7.925781 18.90625 C 7.835938 18.863281 7.75 18.933594 7.765625 19.027344 Z M 15.835938 11.921875 C 16.160156 12.527344 15.554688 13.175781 15.265625 13.6875 C 15.019531 14.125 14.738281 14.582031 14.617188 15.070312 C 14.597656 15.15625 14.699219 15.21875 14.757812 15.15625 C 15.28125 14.636719 15.5625 13.855469 15.9375 13.226562 C 16.226562 12.75 16.484375 12.222656 16.054688 11.753906 C 15.941406 11.632812 15.761719 11.785156 15.835938 11.921875 Z M 10.46875 13.035156 C 10.472656 13.039062 10.476562 13.042969 10.480469 13.050781 C 10.472656 13.03125 10.46875 13.03125 10.476562 13.046875 C 10.480469 13.066406 10.484375 13.089844 10.492188 13.109375 C 10.503906 13.160156 10.507812 13.207031 10.53125 13.253906 C 10.597656 13.390625 10.8125 13.320312 10.8125 13.175781 C 10.8125 13.070312 10.78125 12.929688 10.699219 12.855469 C 10.648438 12.8125 10.578125 12.796875 10.519531 12.832031 C 10.457031 12.871094 10.421875 12.96875 10.46875 13.035156 Z M 17.238281 16.203125 C 17.246094 16.191406 17.246094 16.199219 17.234375 16.230469 C 17.238281 16.25 17.242188 16.265625 17.242188 16.28125 C 17.246094 16.304688 17.25 16.328125 17.257812 16.351562 C 17.261719 16.375 17.265625 16.394531 17.269531 16.417969 C 17.273438 16.4375 17.273438 16.441406 17.273438 16.425781 C 17.273438 16.433594 17.273438 16.445312 17.273438 16.453125 C 17.277344 16.535156 17.339844 16.605469 17.425781 16.605469 C 17.507812 16.605469 17.582031 16.535156 17.578125 16.453125 C 17.574219 16.308594 17.515625 16.179688 17.398438 16.109375 C 17.335938 16.070312 17.226562 16.121094 17.238281 16.203125 Z M 27.628906 9.984375 C 27.871094 10.746094 27.085938 11.300781 26.636719 11.808594 C 26.222656 12.273438 25.746094 12.757812 25.460938 13.320312 C 25.421875 13.390625 25.5 13.488281 25.578125 13.4375 C 26.289062 12.953125 26.800781 12.132812 27.382812 11.507812 C 27.8125 11.050781 28.253906 10.503906 27.886719 9.875 C 27.804688 9.742188 27.582031 9.832031 27.628906 9.984375 Z M 21.203125 9.863281 C 21.199219 9.90625 21.199219 9.933594 21.210938 9.972656 C 21.210938 9.957031 21.210938 9.957031 21.210938 9.972656 C 21.214844 9.988281 21.214844 10.007812 21.214844 10.023438 C 21.214844 10.085938 21.210938 10.148438 21.222656 10.214844 C 21.253906 10.355469 21.488281 10.363281 21.511719 10.214844 C 21.535156 10.082031 21.550781 9.804688 21.375 9.769531 C 21.308594 9.753906 21.214844 9.785156 21.203125 9.863281 Z M 28.191406 15.28125 C 28.191406 15.359375 28.199219 15.480469 28.1875 15.546875 C 28.171875 15.625 28.207031 15.707031 28.292969 15.730469 C 28.367188 15.753906 28.464844 15.707031 28.480469 15.625 C 28.507812 15.46875 28.484375 15.324219 28.375 15.203125 C 28.308594 15.132812 28.195312 15.191406 28.191406 15.28125 Z M 28.191406 15.28125 " fill-opacity="1" fill-rule="nonzero"/><g clip-path="url(#e18a80358f)"><path fill="#1b1b19" d="M 8.023438 17.964844 C 7.757812 17.957031 7.492188 18.109375 7.257812 18.222656 C 6.847656 18.425781 6.457031 18.660156 6.050781 18.863281 C 5.964844 18.90625 5.871094 18.957031 5.773438 18.992188 C 5.777344 18.984375 5.78125 18.976562 5.785156 18.964844 C 5.941406 18.625 6.125 18.296875 6.304688 17.964844 C 6.652344 17.3125 7.066406 16.648438 7.28125 15.9375 C 7.359375 15.671875 7.234375 15.371094 7.195312 15.105469 C 7.152344 14.847656 7.164062 14.25 6.898438 14.089844 C 6.574219 13.890625 5.957031 14.097656 5.625 14.167969 C 4.808594 14.335938 4.007812 14.578125 3.21875 14.832031 C 2.554688 15.042969 1.890625 15.277344 1.253906 15.5625 C 1.039062 15.65625 0.632812 15.796875 0.519531 16.050781 C 0.5 16.074219 0.488281 16.105469 0.488281 16.148438 C 0.488281 16.148438 0.488281 16.148438 0.488281 16.152344 C 0.484375 16.179688 0.488281 16.203125 0.5 16.222656 C 0.550781 16.664062 0.753906 17.074219 0.941406 17.46875 C 1.046875 17.699219 1.117188 18.113281 1.425781 18.140625 C 2.113281 18.203125 2.894531 17.742188 3.53125 17.539062 C 3.605469 17.515625 3.703125 17.476562 3.796875 17.460938 C 3.769531 17.523438 3.738281 17.582031 3.710938 17.640625 C 3.519531 18.027344 3.289062 18.398438 3.0625 18.765625 C 2.851562 19.109375 2.636719 19.449219 2.417969 19.789062 C 2.265625 20.03125 2.125 20.214844 2.113281 20.507812 C 2.105469 20.910156 2.273438 21.332031 2.410156 21.703125 C 2.464844 21.847656 2.53125 22.171875 2.695312 22.246094 C 3.042969 22.40625 3.660156 22.148438 3.996094 22.058594 C 5.5 21.648438 7.007812 21.125 8.429688 20.488281 C 8.800781 20.320312 9.144531 20.203125 9.058594 19.730469 C 8.980469 19.296875 8.613281 17.984375 8.023438 17.964844 Z M 8.75 19.96875 C 8.320312 20.285156 7.734375 20.449219 7.242188 20.640625 C 6.472656 20.9375 5.691406 21.207031 4.902344 21.457031 C 4.296875 21.652344 3.675781 21.855469 3.042969 21.953125 C 2.789062 21.992188 2.871094 22.015625 2.777344 21.789062 C 2.601562 21.367188 2.417969 20.886719 2.429688 20.421875 C 2.4375 20.179688 2.757812 19.839844 2.882812 19.648438 C 3.113281 19.285156 3.339844 18.917969 3.5625 18.546875 C 3.703125 18.308594 4.339844 17.503906 4.089844 17.203125 C 3.835938 16.902344 2.671875 17.507812 2.40625 17.597656 C 2.285156 17.640625 1.5 17.960938 1.429688 17.785156 C 1.210938 17.257812 0.847656 16.734375 0.804688 16.148438 C 0.824219 15.960938 2.03125 15.578125 2.246094 15.496094 C 3.054688 15.195312 3.878906 14.941406 4.710938 14.714844 C 5.320312 14.546875 5.980469 14.339844 6.621094 14.339844 C 6.875 14.339844 6.863281 14.988281 6.890625 15.1875 C 6.957031 15.605469 7.019531 15.804688 6.851562 16.191406 C 6.523438 16.953125 6.097656 17.671875 5.714844 18.40625 C 5.613281 18.597656 5.136719 19.308594 5.625 19.34375 C 5.867188 19.359375 6.175781 19.152344 6.378906 19.046875 C 6.785156 18.835938 7.175781 18.605469 7.589844 18.414062 C 7.683594 18.367188 7.917969 18.234375 8.03125 18.292969 C 8.199219 18.382812 8.320312 18.664062 8.40625 18.824219 C 8.472656 18.953125 8.917969 19.84375 8.75 19.96875 Z M 18.046875 15.574219 C 17.699219 14.921875 17.195312 15.15625 16.625 15.398438 C 16.21875 15.570312 15.820312 15.761719 15.410156 15.929688 C 15.316406 15.964844 15.214844 16.007812 15.113281 16.035156 C 15.125 16.007812 15.140625 15.980469 15.15625 15.957031 C 15.546875 15.253906 16.011719 14.597656 16.429688 13.910156 C 16.605469 13.625 16.777344 13.335938 16.914062 13.027344 C 17.039062 12.742188 16.984375 12.539062 16.957031 12.230469 C 16.914062 11.769531 17.042969 10.925781 16.433594 10.847656 C 15.859375 10.777344 15.21875 10.929688 14.660156 11.023438 C 13.550781 11.214844 12.445312 11.472656 11.363281 11.789062 C 11.03125 11.890625 9.875 12.101562 9.785156 12.550781 C 9.78125 12.5625 9.777344 12.578125 9.777344 12.59375 C 9.773438 13.089844 9.976562 13.570312 10.152344 14.027344 C 10.242188 14.273438 10.277344 14.652344 10.558594 14.75 C 10.796875 14.835938 11.132812 14.730469 11.367188 14.679688 C 11.800781 14.585938 12.230469 14.453125 12.664062 14.34375 C 12.824219 14.300781 12.992188 14.261719 13.160156 14.238281 C 13.167969 14.238281 13.171875 14.238281 13.175781 14.238281 C 13.164062 14.25 13.152344 14.269531 13.144531 14.289062 C 12.957031 14.644531 12.710938 14.96875 12.480469 15.292969 C 12.230469 15.648438 11.972656 16 11.710938 16.347656 C 11.550781 16.558594 11.296875 16.796875 11.203125 17.050781 C 11.074219 17.386719 11.15625 17.777344 11.226562 18.121094 C 11.289062 18.429688 11.359375 18.847656 11.527344 19.125 C 11.691406 19.394531 12.277344 19.230469 12.511719 19.195312 C 14.097656 18.957031 15.675781 18.507812 17.199219 18.023438 C 17.59375 17.898438 18.117188 17.789062 18.445312 17.515625 C 18.601562 17.382812 18.535156 17.066406 18.511719 16.894531 C 18.449219 16.4375 18.265625 15.976562 18.046875 15.574219 Z M 15.039062 16.179688 C 15.039062 16.1875 15.039062 16.191406 15.039062 16.179688 Z M 11.789062 18.9375 C 11.789062 18.9375 11.792969 18.941406 11.792969 18.941406 C 11.792969 18.9375 11.789062 18.9375 11.789062 18.9375 Z M 18.21875 17.296875 C 18.050781 17.417969 17.824219 17.480469 17.632812 17.546875 C 16.910156 17.808594 16.164062 18.011719 15.421875 18.214844 C 14.613281 18.433594 13.796875 18.632812 12.972656 18.796875 C 12.683594 18.851562 12.390625 18.90625 12.097656 18.933594 C 12.007812 18.941406 11.917969 18.945312 11.824219 18.941406 C 11.816406 18.941406 11.804688 18.941406 11.796875 18.941406 C 11.8125 18.9375 11.777344 18.90625 11.746094 18.820312 C 11.605469 18.402344 11.484375 17.964844 11.453125 17.519531 C 11.425781 17.148438 11.660156 16.929688 11.871094 16.652344 C 12.378906 15.976562 12.902344 15.296875 13.34375 14.570312 C 13.570312 14.195312 13.601562 13.851562 13.058594 13.9375 C 12.285156 14.0625 11.542969 14.421875 10.761719 14.457031 C 10.542969 14.464844 10.46875 13.992188 10.40625 13.816406 C 10.261719 13.4375 10.09375 13.027344 10.089844 12.617188 C 10.191406 12.382812 11.242188 12.15625 11.445312 12.09375 C 12.269531 11.847656 13.105469 11.652344 13.945312 11.480469 C 14.664062 11.332031 15.398438 11.1875 16.132812 11.15625 C 16.335938 11.148438 16.503906 11.105469 16.550781 11.3125 C 16.609375 11.570312 16.613281 11.84375 16.632812 12.105469 C 16.644531 12.285156 16.726562 12.539062 16.691406 12.714844 C 16.644531 12.988281 16.445312 13.265625 16.308594 13.5 C 16.082031 13.890625 15.839844 14.273438 15.597656 14.652344 C 15.390625 14.972656 15.1875 15.292969 14.992188 15.617188 C 14.90625 15.753906 14.710938 15.996094 14.726562 16.175781 C 14.765625 16.671875 15.800781 16.105469 15.988281 16.019531 C 16.386719 15.84375 16.78125 15.65625 17.191406 15.515625 C 17.308594 15.476562 17.496094 15.390625 17.601562 15.484375 C 17.796875 15.652344 17.90625 15.976562 17.996094 16.207031 C 18.050781 16.347656 18.371094 17.1875 18.21875 17.296875 Z M 28.980469 14.234375 C 28.660156 13.839844 27.550781 14.230469 27.171875 14.308594 C 26.761719 14.398438 26.351562 14.496094 25.933594 14.550781 C 25.867188 14.558594 25.796875 14.566406 25.726562 14.566406 C 25.722656 14.570312 25.71875 14.570312 25.714844 14.570312 C 25.753906 14.519531 25.796875 14.476562 25.835938 14.433594 C 26.367188 13.832031 26.953125 13.28125 27.507812 12.703125 C 27.90625 12.289062 28.515625 11.789062 28.722656 11.230469 C 28.785156 11.054688 28.765625 10.839844 28.789062 10.65625 C 28.832031 10.277344 28.898438 9.902344 28.917969 9.523438 C 28.9375 9.214844 28.859375 9.050781 28.578125 8.949219 C 27.757812 8.648438 26.726562 8.707031 25.871094 8.691406 C 24.660156 8.667969 23.441406 8.699219 22.234375 8.808594 C 21.863281 8.839844 20.839844 8.820312 20.566406 9.210938 C 20.546875 9.230469 20.53125 9.253906 20.523438 9.289062 C 20.511719 9.3125 20.507812 9.332031 20.511719 9.351562 C 20.429688 9.773438 20.484375 10.214844 20.542969 10.636719 C 20.582031 10.898438 20.621094 11.15625 20.660156 11.417969 C 20.679688 11.546875 20.664062 11.730469 20.757812 11.839844 C 21.113281 12.234375 22.117188 12.039062 22.566406 12.015625 C 22.957031 11.996094 23.34375 11.96875 23.730469 11.96875 C 23.832031 11.96875 23.9375 11.96875 24.035156 11.988281 C 23.996094 12.042969 23.945312 12.097656 23.902344 12.148438 C 23.339844 12.777344 22.679688 13.328125 22.050781 13.882812 C 21.582031 14.296875 21.007812 14.621094 20.890625 15.269531 C 20.8125 15.683594 20.835938 16.125 20.863281 16.542969 C 20.875 16.738281 20.851562 17.082031 20.960938 17.257812 C 21.128906 17.519531 21.730469 17.488281 21.988281 17.503906 C 22.746094 17.550781 23.507812 17.535156 24.261719 17.515625 C 25.761719 17.472656 27.300781 17.425781 28.78125 17.164062 C 29.222656 17.085938 29.378906 16.960938 29.433594 16.488281 C 29.511719 15.816406 29.421875 14.78125 28.980469 14.234375 Z M 29.050781 16.773438 C 28.679688 16.988281 28.023438 16.957031 27.609375 17 C 26.78125 17.082031 25.945312 17.132812 25.109375 17.167969 C 24.28125 17.207031 23.449219 17.226562 22.617188 17.214844 C 22.285156 17.207031 21.503906 17.296875 21.21875 17.078125 C 21.261719 17.109375 21.210938 16.902344 21.203125 16.828125 C 21.179688 16.625 21.167969 16.417969 21.160156 16.214844 C 21.140625 15.832031 21.074219 15.144531 21.398438 14.863281 C 21.96875 14.375 22.535156 13.878906 23.089844 13.375 C 23.515625 12.984375 24.082031 12.566406 24.367188 12.054688 C 24.597656 11.640625 23.851562 11.652344 23.648438 11.65625 C 22.898438 11.65625 22.148438 11.761719 21.398438 11.722656 C 21.265625 11.714844 21.121094 11.707031 21.003906 11.640625 C 20.957031 11.617188 20.933594 11.144531 20.925781 11.097656 C 20.84375 10.542969 20.699219 9.925781 20.824219 9.371094 C 20.886719 9.214844 21.945312 9.148438 22.148438 9.128906 C 22.96875 9.046875 23.792969 9.019531 24.613281 9.003906 C 25.445312 8.992188 26.28125 9.003906 27.113281 9.054688 C 27.558594 9.082031 28.210938 9.054688 28.601562 9.300781 C 28.734375 9.382812 28.507812 10.386719 28.492188 10.527344 C 28.441406 10.914062 28.457031 11.140625 28.21875 11.445312 C 27.714844 12.09375 27.109375 12.667969 26.535156 13.25 C 26.160156 13.632812 25.585938 14.0625 25.351562 14.554688 C 25.121094 15.039062 26.15625 14.835938 26.320312 14.804688 C 26.742188 14.730469 27.160156 14.632812 27.578125 14.546875 C 27.925781 14.476562 28.363281 14.34375 28.71875 14.429688 C 29.082031 14.515625 29.347656 16.597656 29.050781 16.773438 Z M 29.050781 16.773438 " fill-opacity="1" fill-rule="nonzero"/></g></svg>