<svg xmlns="http://www.w3.org/2000/svg" xmlns:xlink="http://www.w3.org/1999/xlink" width="40" zoomAndPan="magnify" viewBox="0 0 30 30.000001" height="40" preserveAspectRatio="xMidYMid meet" version="1.0"><defs><clipPath id="8a2d1b4dc9"><path d="M 2.378906 5.578125 L 27.738281 5.578125 L 27.738281 25.902344 L 2.378906 25.902344 Z M 2.378906 5.578125 " clip-rule="nonzero"/></clipPath></defs><g clip-path="url(#8a2d1b4dc9)"><path fill="#000000" d="M 27.019531 10.300781 C 26.921875 10.464844 26.542969 11.035156 26.292969 11.390625 L 16.796875 24.710938 C 16.40625 25.253906 15.511719 25.648438 14.839844 25.566406 L 5.992188 24.5 C 5.984375 24.5 5.144531 24.417969 3.875 24.246094 C 3.21875 24.15625 2.933594 23.570312 2.808594 23.09375 C 2.945312 23.167969 3.109375 23.21875 3.296875 23.242188 L 14.261719 24.5625 C 14.332031 24.574219 14.410156 24.578125 14.484375 24.578125 C 15.253906 24.578125 16.113281 24.15625 16.527344 23.570312 L 27.332031 8.414062 C 27.347656 8.394531 27.363281 8.371094 27.375 8.351562 C 27.441406 8.882812 27.421875 9.636719 27.019531 10.300781 Z M 27.542969 7.558594 C 27.535156 7.519531 27.519531 7.480469 27.503906 7.441406 C 27.371094 7.152344 27.070312 6.964844 26.65625 6.914062 L 15.6875 5.59375 C 15.617188 5.582031 15.542969 5.578125 15.464844 5.578125 C 14.699219 5.578125 13.839844 6 13.425781 6.582031 L 2.617188 21.742188 C 2.441406 21.988281 2.363281 22.242188 2.382812 22.472656 C 2.394531 23.140625 2.707031 24.414062 3.832031 24.566406 C 5.109375 24.742188 5.953125 24.824219 5.957031 24.824219 L 14.800781 25.890625 C 14.871094 25.898438 14.945312 25.902344 15.019531 25.902344 C 15.769531 25.902344 16.648438 25.480469 17.066406 24.898438 L 26.5625 11.578125 C 26.804688 11.238281 27.1875 10.65625 27.300781 10.46875 C 28.074219 9.203125 27.597656 7.710938 27.542969 7.558594 " fill-opacity="1" fill-rule="nonzero"/></g><path fill="#fbfefe" d="M 24.785156 8.921875 L 14.867188 7.757812 C 14.289062 7.6875 13.542969 8.011719 13.210938 8.480469 L 4.722656 20.386719 C 4.386719 20.855469 4.585938 21.296875 5.164062 21.363281 L 15.085938 22.53125 C 15.660156 22.601562 16.40625 22.273438 16.742188 21.804688 L 25.226562 9.902344 C 25.5625 9.433594 25.363281 8.992188 24.785156 8.921875 " fill-opacity="1" fill-rule="nonzero"/><path fill="#e0e1f8" d="M 24.050781 9.90625 C 23.285156 10.019531 22.464844 10.078125 21.730469 10.316406 C 21.347656 10.441406 20.898438 10.613281 20.640625 10.929688 C 20.394531 11.230469 20.359375 11.5625 20.21875 11.902344 C 19.847656 12.808594 19.085938 13.3125 18.15625 13.582031 C 17.226562 13.851562 16.09375 13.902344 15.277344 14.460938 C 14.703125 14.851562 14.523438 15.425781 14.445312 16.089844 C 14.394531 16.523438 14.34375 17.027344 14 17.351562 C 12.992188 18.308594 11.4375 18.203125 10.15625 18.4375 C 8.699219 18.707031 7.058594 19.066406 5.765625 19.796875 C 5.527344 19.933594 5.023438 20.214844 4.628906 20.546875 C 4.441406 20.953125 4.652344 21.304688 5.164062 21.367188 L 15.085938 22.53125 C 15.660156 22.601562 16.40625 22.273438 16.742188 21.808594 L 25.226562 9.902344 C 25.273438 9.839844 25.304688 9.78125 25.332031 9.722656 C 24.902344 9.78125 24.476562 9.84375 24.050781 9.90625 " fill-opacity="1" fill-rule="nonzero"/><path fill="#e0e1f8" d="M 11.511719 22.917969 L 6.765625 22.351562 C 6.707031 22.34375 6.648438 22.386719 6.640625 22.445312 C 6.636719 22.503906 6.679688 22.558594 6.738281 22.566406 L 11.484375 23.132812 C 11.488281 23.132812 11.492188 23.136719 11.5 23.136719 C 11.554688 23.136719 11.601562 23.09375 11.609375 23.039062 C 11.613281 22.980469 11.570312 22.925781 11.511719 22.917969 " fill-opacity="1" fill-rule="nonzero"/><path fill="#e0e1f8" d="M 19.609375 7.695312 C 19.816406 7.648438 20.011719 7.457031 20.042969 7.265625 C 20.078125 7.074219 19.933594 6.953125 19.726562 6.996094 C 19.515625 7.039062 19.320312 7.230469 19.289062 7.425781 C 19.257812 7.617188 19.398438 7.738281 19.609375 7.695312 " fill-opacity="1" fill-rule="nonzero"/><path fill="#e0e1f8" d="M 15.371094 6.863281 L 17.941406 7.183594 C 17.945312 7.183594 17.949219 7.183594 17.957031 7.183594 C 18.011719 7.183594 18.058594 7.144531 18.0625 7.089844 C 18.070312 7.03125 18.027344 6.976562 17.96875 6.96875 L 15.398438 6.648438 C 15.335938 6.640625 15.28125 6.683594 15.273438 6.742188 C 15.265625 6.800781 15.308594 6.855469 15.371094 6.863281 " fill-opacity="1" fill-rule="nonzero"/><path fill="#e0e1f8" d="M 21.933594 7.660156 L 25.117188 8.039062 C 25.121094 8.039062 25.125 8.039062 25.128906 8.039062 C 25.183594 8.039062 25.230469 7.996094 25.238281 7.941406 C 25.246094 7.882812 25.203125 7.828125 25.140625 7.824219 L 21.960938 7.445312 C 21.898438 7.4375 21.84375 7.480469 21.835938 7.539062 C 21.828125 7.597656 21.871094 7.652344 21.933594 7.660156 " fill-opacity="1" fill-rule="nonzero"/></svg>