<svg xmlns="http://www.w3.org/2000/svg" xmlns:xlink="http://www.w3.org/1999/xlink" width="40" zoomAndPan="magnify" viewBox="0 0 30 30.000001" height="40" preserveAspectRatio="xMidYMid meet" version="1.0"><defs><clipPath id="8b1a30bbc9"><path d="M 2.972656 10.304688 L 27.652344 10.304688 L 27.652344 24.820312 L 2.972656 24.820312 Z M 2.972656 10.304688 " clip-rule="nonzero"/></clipPath><clipPath id="9e260acc7b"><path d="M 7 10.304688 L 22 10.304688 L 22 14 L 7 14 Z M 7 10.304688 " clip-rule="nonzero"/></clipPath><clipPath id="91b1cd58e5"><path d="M 7 12 L 27.652344 12 L 27.652344 22 L 7 22 Z M 7 12 " clip-rule="nonzero"/></clipPath><clipPath id="70ff275c8a"><path d="M 7 23 L 21 23 L 21 24.820312 L 7 24.820312 Z M 7 23 " clip-rule="nonzero"/></clipPath></defs><g clip-path="url(#8b1a30bbc9)"><path fill="#3c3e53" d="M 7.988281 23.238281 C 8.671875 23.726562 9.6875 23.945312 10.753906 24.085938 C 13.980469 24.519531 18.164062 24.414062 20.628906 23.40625 C 20.628906 23.382812 20.648438 23.378906 20.652344 23.359375 C 20.667969 23.359375 20.679688 23.339844 20.652344 23.335938 C 16.789062 23.875 11.753906 23.824219 7.988281 23.238281 Z M 19.746094 19.503906 C 18.503906 20.734375 16.863281 21.636719 14.382812 21.636719 C 11.894531 21.636719 10.320312 20.695312 9.066406 19.453125 C 8.914062 19.304688 8.691406 18.988281 8.527344 18.96875 C 8.304688 18.941406 8.03125 19.046875 7.789062 19.089844 C 6.515625 19.316406 5.382812 19.539062 4.386719 20.035156 C 4.074219 20.191406 3.503906 20.519531 3.503906 20.886719 C 3.503906 21.230469 4.015625 21.535156 4.359375 21.710938 C 5.507812 22.296875 6.996094 22.570312 8.378906 22.777344 C 12.386719 23.378906 17.050781 23.371094 21.023438 22.777344 C 22.363281 22.578125 23.953125 22.261719 25.039062 21.710938 C 25.367188 21.542969 25.914062 21.238281 25.898438 20.859375 C 25.878906 20.488281 25.269531 20.152344 24.917969 19.988281 C 23.613281 19.382812 21.792969 19.09375 20.335938 18.894531 C 20.136719 19.082031 19.9375 19.3125 19.746094 19.503906 Z M 26.386719 16.859375 C 26.761719 16.496094 27.121094 15.902344 27.148438 15.257812 C 27.175781 14.496094 26.742188 13.808594 26.289062 13.414062 C 25.429688 12.667969 23.78125 12.265625 22.394531 12.710938 C 22.058594 12.816406 21.6875 12.886719 21.414062 13.027344 C 21.214844 13.128906 21.039062 13.304688 20.824219 13.414062 C 19.089844 14.28125 16.410156 14.382812 13.964844 14.382812 C 12.703125 14.382812 11.472656 14.273438 10.339844 14.09375 C 9.367188 13.9375 8.386719 13.71875 7.691406 13.316406 C 7.621094 13.277344 7.53125 13.152344 7.421875 13.195312 C 7.148438 15.238281 7.761719 16.925781 8.648438 18.191406 C 9.53125 19.453125 10.863281 20.394531 12.421875 20.859375 C 14.3125 21.429688 16.34375 21.042969 17.738281 20.304688 C 19.171875 19.539062 20.21875 18.476562 20.875 17.003906 C 22.34375 18.085938 25.046875 18.152344 26.386719 16.859375 Z M 8.625 11.59375 C 8.277344 11.726562 7.527344 11.976562 7.496094 12.296875 C 7.453125 12.75 8.28125 13.015625 8.722656 13.171875 C 9.269531 13.367188 9.875 13.515625 10.414062 13.609375 C 13.402344 14.128906 17.367188 14.050781 19.945312 13.195312 C 20.347656 13.0625 21.234375 12.757812 21.21875 12.347656 C 21.210938 12.136719 20.894531 11.957031 20.605469 11.8125 C 18.8125 10.925781 15.960938 10.722656 13.425781 10.84375 C 11.753906 10.921875 9.949219 11.09375 8.625 11.59375 Z M 21.804688 12.347656 C 22.941406 11.882812 24.5625 11.914062 25.601562 12.371094 C 26.734375 12.867188 27.753906 13.847656 27.636719 15.476562 C 27.566406 16.449219 26.925781 17.164062 26.191406 17.660156 C 24.824219 18.574219 22.433594 18.574219 21.167969 17.660156 C 21.007812 17.914062 20.835938 18.152344 20.703125 18.433594 C 22.300781 18.660156 24.03125 18.933594 25.335938 19.625 C 25.851562 19.894531 26.617188 20.332031 26.386719 21.175781 C 26.191406 21.890625 25.023438 22.316406 24.304688 22.558594 C 23.414062 22.859375 22.5 23.070312 21.511719 23.214844 C 21.425781 23.296875 21.324219 23.53125 21.191406 23.652344 C 20.578125 24.214844 19.179688 24.460938 18.082031 24.597656 C 15.664062 24.898438 12.820312 24.90625 10.414062 24.546875 C 9.355469 24.390625 7.898438 24.132812 7.449219 23.480469 C 7.378906 23.382812 7.34375 23.273438 7.351562 23.117188 C 6.472656 22.976562 5.671875 22.769531 4.875 22.488281 C 4.191406 22.242188 3.261719 21.871094 3.039062 21.226562 C 2.824219 20.613281 3.242188 20.160156 3.601562 19.890625 C 4.683594 19.074219 6.609375 18.789062 8.183594 18.507812 C 8.117188 18.28125 7.960938 18.085938 7.839844 17.878906 C 7.464844 17.234375 7.179688 16.554688 7.007812 15.667969 C 6.78125 14.519531 6.726562 13.007812 7.152344 12.054688 C 7.335938 11.644531 7.75 11.375 8.207031 11.15625 C 8.867188 10.847656 9.738281 10.703125 10.585938 10.574219 C 13.539062 10.128906 17.527344 10.207031 20.066406 11.011719 C 20.8125 11.25 21.644531 11.585938 21.804688 12.347656 " fill-opacity="1" fill-rule="evenodd"/></g><g clip-path="url(#9e260acc7b)"><path fill="#2d2d2c" d="M 13.425781 10.84375 C 15.960938 10.722656 18.8125 10.925781 20.605469 11.8125 C 20.894531 11.957031 21.210938 12.136719 21.21875 12.347656 C 21.234375 12.757812 20.347656 13.0625 19.945312 13.195312 C 17.367188 14.050781 13.402344 14.128906 10.414062 13.609375 C 9.875 13.515625 9.269531 13.367188 8.722656 13.171875 C 8.28125 13.015625 7.453125 12.75 7.496094 12.296875 C 7.527344 11.976562 8.277344 11.726562 8.625 11.59375 C 9.949219 11.09375 11.753906 10.921875 13.425781 10.84375 " fill-opacity="1" fill-rule="evenodd"/></g><g clip-path="url(#91b1cd58e5)"><path fill="#ffffff" d="M 26.019531 15.765625 C 26.183594 15.410156 26.164062 14.96875 26.019531 14.652344 C 25.59375 13.722656 23.945312 13.195312 22.589844 13.511719 C 22.324219 13.574219 21.589844 13.832031 21.511719 14.070312 C 21.460938 14.214844 21.519531 14.414062 21.511719 14.554688 C 21.472656 15.164062 21.332031 15.722656 21.167969 16.226562 C 22.289062 17.441406 25.382812 17.160156 26.019531 15.765625 Z M 20.875 17.003906 C 20.21875 18.476562 19.171875 19.539062 17.738281 20.304688 C 16.34375 21.042969 14.3125 21.429688 12.421875 20.859375 C 10.863281 20.394531 9.53125 19.453125 8.648438 18.191406 C 7.761719 16.925781 7.148438 15.238281 7.421875 13.195312 C 7.53125 13.152344 7.621094 13.277344 7.691406 13.316406 C 8.386719 13.71875 9.367188 13.9375 10.339844 14.09375 C 11.472656 14.273438 12.703125 14.382812 13.964844 14.382812 C 16.410156 14.382812 19.089844 14.28125 20.824219 13.414062 C 21.039062 13.304688 21.214844 13.128906 21.414062 13.027344 C 21.6875 12.886719 22.058594 12.816406 22.394531 12.710938 C 23.78125 12.265625 25.429688 12.667969 26.289062 13.414062 C 26.742188 13.808594 27.175781 14.496094 27.148438 15.257812 C 27.121094 15.902344 26.761719 16.496094 26.386719 16.859375 C 25.046875 18.152344 22.34375 18.085938 20.875 17.003906 " fill-opacity="1" fill-rule="evenodd"/></g><path fill="#3c3e53" d="M 25.335938 15.839844 C 25.699219 15.457031 25.671875 14.933594 25.335938 14.578125 C 24.691406 13.90625 22.878906 13.714844 22 14.214844 C 22.023438 14.941406 21.894531 15.515625 21.78125 16.105469 C 22.695312 16.707031 24.652344 16.554688 25.335938 15.839844 Z M 21.167969 16.226562 C 21.332031 15.722656 21.472656 15.164062 21.511719 14.554688 C 21.519531 14.414062 21.460938 14.214844 21.511719 14.070312 C 21.589844 13.832031 22.324219 13.574219 22.589844 13.511719 C 23.945312 13.195312 25.59375 13.722656 26.019531 14.652344 C 26.164062 14.96875 26.183594 15.410156 26.019531 15.765625 C 25.382812 17.160156 22.289062 17.441406 21.167969 16.226562 " fill-opacity="1" fill-rule="evenodd"/><path fill="#ffffff" d="M 20.335938 18.894531 C 21.792969 19.09375 23.609375 19.382812 24.917969 19.988281 C 25.269531 20.152344 25.878906 20.488281 25.898438 20.859375 C 25.914062 21.238281 25.367188 21.542969 25.039062 21.710938 C 23.953125 22.261719 22.363281 22.578125 21.023438 22.777344 C 17.050781 23.371094 12.386719 23.378906 8.378906 22.777344 C 6.996094 22.570312 5.507812 22.296875 4.359375 21.710938 C 4.011719 21.535156 3.503906 21.230469 3.503906 20.886719 C 3.503906 20.519531 4.074219 20.191406 4.386719 20.035156 C 5.382812 19.539062 6.511719 19.316406 7.789062 19.089844 C 8.027344 19.046875 8.304688 18.941406 8.527344 18.96875 C 8.691406 18.988281 8.910156 19.304688 9.066406 19.453125 C 10.320312 20.695312 11.894531 21.636719 14.382812 21.636719 C 16.863281 21.636719 18.503906 20.734375 19.746094 19.503906 C 19.9375 19.3125 20.136719 19.082031 20.335938 18.894531 " fill-opacity="1" fill-rule="evenodd"/><g clip-path="url(#70ff275c8a)"><path fill="#ffffff" d="M 20.652344 23.335938 C 20.679688 23.339844 20.667969 23.359375 20.652344 23.359375 C 20.648438 23.378906 20.628906 23.382812 20.628906 23.40625 C 18.164062 24.414062 13.980469 24.519531 10.753906 24.085938 C 9.6875 23.945312 8.671875 23.726562 7.988281 23.238281 C 11.753906 23.824219 16.789062 23.875 20.652344 23.335938 " fill-opacity="1" fill-rule="evenodd"/></g></svg>