<svg xmlns="http://www.w3.org/2000/svg" xmlns:xlink="http://www.w3.org/1999/xlink" width="40" zoomAndPan="magnify" viewBox="0 0 30 30.000001" height="40" preserveAspectRatio="xMidYMid meet" version="1.0"><defs><clipPath id="4ec65d31ea"><path d="M 6.3125 0.015625 L 24.457031 0.015625 L 24.457031 28.292969 L 6.3125 28.292969 Z M 6.3125 0.015625 " clip-rule="nonzero"/></clipPath></defs><g clip-path="url(#4ec65d31ea)"><path fill="#000000" d="M 18.285156 25.492188 C 18.183594 25.570312 18.03125 25.683594 17.824219 25.804688 C 17.621094 25.925781 17.359375 26.0625 17.046875 26.191406 C 16.730469 26.3125 16.363281 26.433594 15.945312 26.511719 C 15.84375 26.53125 15.734375 26.546875 15.625 26.5625 C 15.570312 26.574219 15.515625 26.578125 15.460938 26.585938 L 15.417969 26.589844 L 15.394531 26.59375 L 15.386719 26.59375 C 15.359375 26.59375 15.375 26.59375 15.367188 26.59375 L 15.363281 26.59375 C 15.335938 26.597656 15.308594 26.597656 15.28125 26.601562 C 15.230469 26.605469 15.175781 26.609375 15.121094 26.613281 C 15.066406 26.617188 15.015625 26.621094 14.949219 26.621094 C 14.828125 26.625 14.699219 26.628906 14.574219 26.621094 C 14.082031 26.609375 13.558594 26.539062 13.03125 26.398438 C 12.503906 26.257812 11.976562 26.042969 11.476562 25.761719 C 10.972656 25.480469 10.5 25.128906 10.078125 24.722656 C 10.027344 24.675781 9.972656 24.625 9.921875 24.570312 L 9.773438 24.410156 C 9.671875 24.304688 9.582031 24.191406 9.488281 24.078125 C 9.308594 23.851562 9.136719 23.617188 8.988281 23.371094 C 8.6875 22.882812 8.457031 22.367188 8.296875 21.847656 C 8.136719 21.332031 8.050781 20.8125 8.023438 20.324219 C 8.019531 20.265625 8.015625 20.203125 8.015625 20.144531 C 8.011719 20.082031 8.007812 20.023438 8.011719 19.964844 C 8.015625 19.84375 8.011719 19.730469 8.019531 19.613281 C 8.027344 19.5 8.039062 19.386719 8.046875 19.277344 C 8.054688 19.226562 8.058594 19.175781 8.066406 19.125 C 8.074219 19.070312 8.078125 19.019531 8.085938 18.96875 C 8.148438 18.558594 8.230469 18.195312 8.316406 17.878906 C 8.40625 17.558594 8.5 17.289062 8.582031 17.070312 C 8.664062 16.847656 8.738281 16.679688 8.792969 16.566406 C 8.84375 16.449219 8.875 16.390625 8.875 16.390625 C 8.875 16.390625 8.878906 16.457031 8.878906 16.582031 C 8.882812 16.707031 8.886719 16.890625 8.890625 17.121094 C 8.898438 17.351562 8.90625 17.628906 8.917969 17.945312 C 8.933594 18.261719 8.957031 18.613281 8.996094 18.992188 C 9.007812 19.085938 9.015625 19.183594 9.027344 19.285156 L 9.027344 19.289062 C 9.027344 19.289062 9.027344 19.285156 9.027344 19.289062 L 9.03125 19.296875 L 9.03125 19.316406 L 9.039062 19.351562 C 9.042969 19.375 9.046875 19.398438 9.050781 19.421875 C 9.054688 19.472656 9.0625 19.519531 9.070312 19.566406 C 9.085938 19.664062 9.105469 19.761719 9.125 19.863281 C 9.132812 19.910156 9.144531 19.960938 9.15625 20.011719 C 9.167969 20.058594 9.179688 20.109375 9.191406 20.160156 C 9.289062 20.5625 9.425781 20.972656 9.605469 21.375 C 9.78125 21.777344 10.007812 22.175781 10.269531 22.550781 C 10.398438 22.742188 10.542969 22.921875 10.691406 23.101562 C 10.726562 23.144531 10.769531 23.1875 10.804688 23.230469 C 10.847656 23.273438 10.882812 23.320312 10.921875 23.359375 C 11.003906 23.441406 11.082031 23.53125 11.167969 23.605469 C 11.503906 23.929688 11.871094 24.222656 12.257812 24.46875 C 12.648438 24.714844 13.054688 24.921875 13.464844 25.089844 C 13.878906 25.253906 14.292969 25.378906 14.703125 25.460938 C 14.753906 25.476562 14.800781 25.480469 14.847656 25.492188 C 14.898438 25.5 14.945312 25.507812 14.992188 25.519531 C 15.039062 25.527344 15.09375 25.535156 15.148438 25.542969 C 15.203125 25.546875 15.257812 25.554688 15.308594 25.5625 C 15.335938 25.566406 15.363281 25.570312 15.390625 25.574219 L 15.394531 25.574219 C 15.390625 25.574219 15.410156 25.574219 15.386719 25.574219 L 15.394531 25.574219 L 15.414062 25.578125 L 15.449219 25.582031 C 15.5 25.585938 15.546875 25.589844 15.59375 25.59375 C 15.691406 25.601562 15.785156 25.609375 15.878906 25.617188 C 16.25 25.636719 16.597656 25.628906 16.90625 25.609375 C 17.214844 25.585938 17.488281 25.546875 17.714844 25.511719 C 17.828125 25.492188 17.929688 25.472656 18.019531 25.457031 C 18.109375 25.441406 18.183594 25.425781 18.246094 25.414062 C 18.367188 25.382812 18.433594 25.371094 18.433594 25.371094 C 18.433594 25.371094 18.382812 25.414062 18.285156 25.492188 Z M 15.386719 0.015625 C 15.386719 0.015625 6.3125 10.417969 6.3125 19.285156 C 6.3125 24.257812 10.375 28.292969 15.386719 28.292969 C 20.394531 28.292969 24.457031 24.257812 24.457031 19.285156 C 24.457031 14.3125 15.386719 8.417969 15.386719 0.015625 " fill-opacity="1" fill-rule="nonzero"/></g></svg>