<svg xmlns="http://www.w3.org/2000/svg" xmlns:xlink="http://www.w3.org/1999/xlink" width="40" zoomAndPan="magnify" viewBox="0 0 30 30.000001" height="40" preserveAspectRatio="xMidYMid meet" version="1.0"><defs><clipPath id="dfcc7c1ffa"><path d="M 3.386719 3.929688 L 26.613281 3.929688 L 26.613281 27.136719 L 3.386719 27.136719 Z M 3.386719 3.929688 " clip-rule="nonzero"/></clipPath></defs><path fill="#dedffe" d="M 22.453125 4.867188 C 22.320312 4.738281 22.144531 4.664062 21.957031 4.664062 C 21.769531 4.664062 21.59375 4.738281 21.464844 4.867188 L 19.441406 6.890625 L 23.636719 11.085938 L 25.660156 9.0625 C 25.789062 8.933594 25.863281 8.757812 25.863281 8.570312 C 25.863281 8.382812 25.789062 8.207031 25.660156 8.074219 L 22.453125 4.867188 " fill-opacity="1" fill-rule="nonzero"/><path fill="#ffffff" d="M 8.433594 22.355469 C 8.304688 22.320312 8.203125 22.222656 8.171875 22.09375 L 7.796875 20.703125 L 6.398438 20.128906 L 5.082031 24.027344 L 6.5 25.445312 L 10.398438 24.128906 L 9.824219 22.730469 L 8.433594 22.355469 " fill-opacity="1" fill-rule="nonzero"/><path fill="#000000" d="M 20.277344 8.789062 L 19.320312 9.746094 L 8.527344 20.535156 L 8.835938 21.6875 L 9.988281 22 L 21.738281 10.25 L 20.277344 8.789062 " fill-opacity="1" fill-rule="nonzero"/><path fill="#2d2d2c" d="M 19.746094 8.257812 L 18.910156 7.421875 L 6.832031 19.5 L 8.019531 19.984375 Z M 22.269531 10.78125 L 21.3125 11.738281 L 10.542969 22.503906 L 11.027344 23.695312 L 23.105469 11.617188 L 22.269531 10.78125 " fill-opacity="1" fill-rule="nonzero"/><g clip-path="url(#dfcc7c1ffa)"><path fill="#000000" d="M 25.660156 9.0625 L 23.636719 11.085938 L 19.441406 6.890625 L 21.464844 4.867188 C 21.59375 4.738281 21.769531 4.664062 21.957031 4.664062 C 22.144531 4.664062 22.320312 4.738281 22.453125 4.867188 L 25.660156 8.074219 C 25.789062 8.207031 25.863281 8.382812 25.863281 8.570312 C 25.863281 8.757812 25.789062 8.933594 25.660156 9.0625 Z M 22.304688 12.417969 L 11.027344 23.695312 L 10.542969 22.503906 L 21.3125 11.738281 L 22.269531 10.78125 L 23.105469 11.617188 Z M 6.5 25.445312 L 5.082031 24.027344 L 6.398438 20.128906 L 7.796875 20.703125 L 8.171875 22.09375 C 8.203125 22.222656 8.304688 22.320312 8.433594 22.355469 L 9.824219 22.730469 L 10.398438 24.128906 Z M 20.277344 8.789062 L 21.738281 10.25 L 9.988281 22 L 8.835938 21.6875 L 8.527344 20.535156 L 19.320312 9.746094 Z M 18.074219 8.257812 L 18.910156 7.421875 L 19.746094 8.257812 L 8.019531 19.984375 L 6.832031 19.5 Z M 26.1875 7.542969 L 22.984375 4.339844 C 22.4375 3.792969 21.480469 3.792969 20.933594 4.335938 L 5.90625 19.367188 C 5.867188 19.40625 5.832031 19.457031 5.8125 19.523438 C 5.792969 19.589844 3.410156 26.640625 3.410156 26.640625 C 3.386719 26.707031 3.34375 26.851562 3.5 27.027344 C 3.644531 27.183594 3.847656 27.128906 3.886719 27.117188 C 3.886719 27.117188 10.960938 24.734375 11.015625 24.710938 C 11.070312 24.6875 11.125 24.65625 11.160156 24.621094 L 26.1875 9.59375 C 26.460938 9.320312 26.613281 8.957031 26.613281 8.570312 C 26.613281 8.179688 26.460938 7.816406 26.1875 7.542969 " fill-opacity="1" fill-rule="nonzero"/></g></svg>