<svg xmlns="http://www.w3.org/2000/svg" xmlns:xlink="http://www.w3.org/1999/xlink" width="40" zoomAndPan="magnify" viewBox="0 0 30 30.000001" height="40" preserveAspectRatio="xMidYMid meet" version="1.0"><defs><clipPath id="26ed149920"><path d="M 10.601562 2.175781 L 21.488281 2.175781 L 21.488281 26.855469 L 10.601562 26.855469 Z M 10.601562 2.175781 " clip-rule="nonzero"/></clipPath></defs><g clip-path="url(#26ed149920)"><path fill="#100f0d" d="M 18.765625 21.121094 C 18.765625 21.035156 18.742188 20.949219 18.691406 20.878906 L 15.5 16.230469 C 15.140625 15.707031 14.539062 15.398438 13.894531 15.398438 C 12.828125 15.398438 11.960938 16.238281 11.960938 17.273438 L 11.960938 25.085938 C 11.960938 25.328125 12.167969 25.527344 12.417969 25.527344 L 18.3125 25.527344 C 18.5625 25.527344 18.765625 25.328125 18.765625 25.085938 Z M 20.582031 26.847656 L 10.601562 26.847656 L 10.601562 14.640625 L 12.667969 11.433594 L 16.5 11.433594 L 16.5 13.636719 C 16.5 13.714844 16.523438 13.792969 16.5625 13.863281 L 20.257812 19.839844 C 20.46875 20.183594 20.582031 20.574219 20.582031 20.972656 Z M 21.488281 2.183594 L 19.675781 2.183594 L 19.675781 3.945312 L 21.488281 3.945312 Z M 15.203125 19.132812 L 13.84375 21.335938 C 13.757812 21.472656 13.753906 21.640625 13.835938 21.777344 C 13.917969 21.917969 14.066406 22.003906 14.230469 22.003906 L 15.101562 22.003906 L 13.875 23.488281 L 14.585938 24.039062 L 16.398438 21.835938 C 16.507812 21.707031 16.527344 21.523438 16.453125 21.371094 C 16.378906 21.21875 16.21875 21.121094 16.046875 21.121094 L 15.03125 21.121094 L 15.980469 19.585938 Z M 14.746094 16.71875 L 17.859375 21.253906 L 17.859375 24.644531 L 12.871094 24.644531 L 12.871094 17.273438 C 12.871094 16.722656 13.328125 16.277344 13.894531 16.277344 C 14.234375 16.277344 14.554688 16.441406 14.746094 16.71875 Z M 12.871094 8.789062 L 12.871094 10.550781 L 16.5 10.550781 L 16.5 8.789062 Z M 18.765625 4.160156 L 15.78125 6.230469 C 15.664062 6.3125 15.589844 6.445312 15.589844 6.589844 L 15.589844 7.910156 L 13.777344 7.910156 L 13.777344 6.589844 C 13.777344 6.371094 13.609375 6.183594 13.386719 6.152344 L 10.621094 5.769531 C 10.816406 3.761719 12.566406 2.183594 14.683594 2.183594 L 18.765625 2.183594 L 18.765625 4.160156 " fill-opacity="1" fill-rule="nonzero"/></g></svg>