<svg xmlns="http://www.w3.org/2000/svg" xmlns:xlink="http://www.w3.org/1999/xlink" width="40" zoomAndPan="magnify" viewBox="0 0 30 30.000001" height="40" preserveAspectRatio="xMidYMid meet" version="1.0"><defs><clipPath id="1409cc3003"><path d="M 7 2.597656 L 22.816406 2.597656 L 22.816406 25.824219 L 7 25.824219 Z M 7 2.597656 " clip-rule="nonzero"/></clipPath></defs><g clip-path="url(#1409cc3003)"><path fill="#000000" d="M 14.667969 7.835938 C 14.660156 8.972656 14.820312 10.054688 14.929688 11.140625 C 15.078125 12.652344 15.3125 14.160156 15.425781 15.671875 C 15.558594 17.414062 15.835938 19.144531 15.816406 20.902344 C 15.808594 21.472656 15.898438 22.046875 15.898438 22.621094 C 15.90625 24.402344 14.453125 25.8125 12.679688 25.738281 C 10.988281 25.671875 9.515625 24.972656 8.332031 23.824219 C 7.097656 22.628906 6.847656 21.078125 7.394531 19.445312 C 7.742188 18.402344 8.664062 18.195312 9.597656 18.046875 C 10.890625 17.84375 12.003906 18.308594 13.066406 18.976562 C 13.214844 19.070312 13.375 19.152344 13.53125 19.242188 C 13.679688 19.113281 13.609375 18.960938 13.609375 18.832031 C 13.5625 16.75 13.429688 14.675781 13.367188 12.597656 C 13.304688 10.527344 12.984375 8.46875 12.921875 6.390625 C 12.902344 5.628906 12.917969 4.839844 12.75 4.074219 C 12.671875 3.710938 13.132812 2.914062 13.457031 2.726562 C 13.660156 2.613281 13.742188 2.726562 13.855469 2.867188 C 14.183594 3.277344 14.507812 3.6875 14.859375 4.078125 C 15.945312 5.296875 17.289062 6.1875 18.644531 7.058594 C 19.578125 7.65625 20.464844 8.320312 21.195312 9.167969 C 22.183594 10.316406 22.484375 11.683594 22.472656 13.171875 C 22.464844 14.683594 22.535156 16.191406 22.554688 17.699219 C 22.558594 17.910156 22.625 18.09375 22.703125 18.273438 C 22.816406 18.535156 22.789062 18.753906 22.527344 18.871094 C 22.230469 19.003906 22.121094 18.769531 22.007812 18.546875 C 21.703125 17.933594 21.671875 17.261719 21.578125 16.601562 C 21.421875 15.472656 21.546875 14.316406 21.261719 13.203125 C 20.847656 11.582031 19.878906 10.332031 18.613281 9.277344 C 17.8125 8.609375 16.761719 8.691406 15.882812 8.269531 C 15.5 8.085938 15.082031 7.980469 14.667969 7.835938 Z M 14.667969 7.835938 " fill-opacity="1" fill-rule="nonzero"/></g></svg>