<svg xmlns="http://www.w3.org/2000/svg" xmlns:xlink="http://www.w3.org/1999/xlink" width="500" zoomAndPan="magnify" viewBox="0 0 375 374.999991" height="500" preserveAspectRatio="xMidYMid meet" version="1.0"><defs><clipPath id="682a7b9fd5"><path d="M 37.5 136.652344 L 139.5 136.652344 L 139.5 238.652344 L 37.5 238.652344 Z M 37.5 136.652344 " clip-rule="nonzero"/></clipPath></defs><path fill="#000000" d="M 177.4375 65.300781 L 166.71875 69.722656 C 159.6875 71.878906 155.132812 79.640625 156.347656 88.488281 C 156.347656 88.488281 179.46875 256.9375 187.179688 313.089844 C 188.191406 320.464844 192.730469 325.230469 198.324219 326.039062 C 200.898438 326.414062 208.601562 327.644531 208.601562 327.644531 Z M 177.4375 65.300781 " fill-opacity="1" fill-rule="nonzero"/><path fill="#000000" d="M 208.601562 328.449219 C 208.558594 328.449219 208.515625 328.449219 208.472656 328.441406 C 208.394531 328.429688 200.746094 327.203125 198.210938 326.839844 C 192.039062 325.945312 187.394531 320.59375 186.378906 313.199219 L 155.546875 88.597656 C 154.304688 79.5625 158.878906 71.320312 166.421875 68.972656 L 177.128906 64.554688 C 177.363281 64.460938 177.625 64.476562 177.84375 64.605469 C 178.0625 64.730469 178.207031 64.953125 178.238281 65.203125 L 209.402344 327.550781 C 209.433594 327.800781 209.34375 328.050781 209.160156 328.226562 C 209.007812 328.371094 208.808594 328.449219 208.601562 328.449219 Z M 167.082031 70.445312 C 167.042969 70.464844 167 70.480469 166.957031 70.496094 C 160.136719 72.582031 156.011719 80.105469 157.144531 88.378906 L 187.980469 312.980469 C 188.90625 319.746094 192.917969 324.445312 198.441406 325.242188 C 200.417969 325.527344 205.46875 326.328125 207.671875 326.679688 L 176.757812 66.453125 Z M 167.082031 70.445312 " fill-opacity="1" fill-rule="nonzero"/><path fill="#99b1b8" d="M 289.546875 295.28125 L 215.828125 326.765625 C 207.492188 330.324219 199.46875 324.855469 198.078125 314.480469 L 167.242188 84.460938 C 165.863281 74.160156 171.9375 65.292969 180.632812 64.671875 L 257.570312 59.164062 C 264.488281 58.667969 270.980469 65.519531 272.191406 74.457031 L 299.238281 273.914062 C 300.457031 282.90625 296.171875 292.453125 289.546875 295.28125 Z M 289.546875 295.28125 " fill-opacity="1" fill-rule="nonzero"/><path fill="#000000" d="M 210.746094 328.65625 C 208.667969 328.65625 206.652344 328.132812 204.8125 327.09375 C 200.78125 324.804688 198.035156 320.246094 197.277344 314.585938 L 166.441406 84.570312 C 165.679688 78.867188 167.109375 73.304688 170.367188 69.308594 C 172.996094 66.082031 176.621094 64.148438 180.578125 63.867188 L 257.511719 58.359375 C 264.78125 57.839844 271.726562 65.011719 272.992188 74.347656 L 300.039062 273.804688 C 301.324219 283.277344 296.855469 293.039062 289.863281 296.023438 L 216.144531 327.507812 C 214.347656 328.273438 212.523438 328.65625 210.746094 328.65625 Z M 258.265625 59.945312 C 258.054688 59.945312 257.839844 59.953125 257.625 59.96875 L 180.691406 65.476562 C 177.1875 65.726562 173.964844 67.449219 171.617188 70.324219 C 168.640625 73.976562 167.339844 79.089844 168.042969 84.355469 L 198.875 314.371094 C 199.566406 319.53125 202.023438 323.652344 205.613281 325.691406 C 208.570312 327.367188 212.085938 327.484375 215.511719 326.023438 L 289.226562 294.542969 C 295.480469 291.871094 299.613281 282.667969 298.4375 274.023438 L 271.390625 74.566406 C 270.277344 66.339844 264.46875 59.945312 258.265625 59.945312 Z M 258.265625 59.945312 " fill-opacity="1" fill-rule="nonzero"/><path fill="#ffffff" d="M 272.191406 74.457031 C 270.980469 65.519531 264.488281 58.667969 257.570312 59.164062 L 180.632812 64.671875 C 171.9375 65.292969 165.863281 74.160156 167.242188 84.460938 L 168.890625 96.757812 L 273.636719 85.125 Z M 272.191406 74.457031 " fill-opacity="1" fill-rule="nonzero"/><path fill="#000000" d="M 168.890625 97.566406 C 168.492188 97.566406 168.144531 97.269531 168.089844 96.867188 L 166.441406 84.570312 C 165.679688 78.867188 167.109375 73.304688 170.367188 69.308594 C 172.996094 66.082031 176.621094 64.148438 180.578125 63.867188 L 257.511719 58.359375 C 264.78125 57.839844 271.726562 65.011719 272.992188 74.347656 L 274.4375 85.015625 C 274.46875 85.234375 274.410156 85.449219 274.273438 85.621094 C 274.140625 85.792969 273.945312 85.902344 273.726562 85.925781 L 168.980469 97.5625 C 168.949219 97.5625 168.921875 97.566406 168.890625 97.566406 Z M 258.265625 59.945312 C 258.054688 59.945312 257.839844 59.953125 257.625 59.96875 L 180.691406 65.476562 C 177.1875 65.726562 173.964844 67.449219 171.621094 70.324219 C 168.640625 73.976562 167.339844 79.09375 168.042969 84.355469 L 169.585938 95.871094 L 272.726562 84.414062 L 271.390625 74.566406 C 270.277344 66.339844 264.46875 59.945312 258.265625 59.945312 Z M 258.265625 59.945312 " fill-opacity="1" fill-rule="nonzero"/><path fill="#ffffff" d="M 196.417969 302.105469 L 198.078125 314.480469 C 199.46875 324.855469 207.492188 330.324219 215.828125 326.765625 L 289.546875 295.28125 C 296.171875 292.453125 300.457031 282.90625 299.238281 273.914062 L 297.785156 263.1875 Z M 196.417969 302.105469 " fill-opacity="1" fill-rule="nonzero"/><path fill="#000000" d="M 210.746094 328.65625 C 208.667969 328.65625 206.652344 328.132812 204.8125 327.09375 C 200.78125 324.804688 198.035156 320.246094 197.277344 314.585938 L 195.617188 302.210938 C 195.566406 301.839844 195.777344 301.484375 196.128906 301.351562 L 297.496094 262.433594 C 297.726562 262.34375 297.984375 262.367188 298.195312 262.492188 C 298.410156 262.617188 298.550781 262.835938 298.585938 263.078125 L 300.039062 273.804688 C 301.324219 283.277344 296.855469 293.039062 289.863281 296.023438 L 216.144531 327.507812 C 214.347656 328.273438 212.523438 328.65625 210.746094 328.65625 Z M 197.300781 302.628906 L 198.875 314.371094 C 199.566406 319.53125 202.023438 323.65625 205.613281 325.691406 C 208.570312 327.367188 212.085938 327.484375 215.511719 326.023438 L 289.226562 294.542969 C 295.480469 291.871094 299.613281 282.667969 298.4375 274.023438 L 297.121094 264.304688 Z M 197.300781 302.628906 " fill-opacity="1" fill-rule="nonzero"/><path fill="#ffffff" d="M 272.191406 74.457031 C 270.980469 65.519531 264.488281 58.667969 257.570312 59.164062 L 233.195312 60.910156 L 231.820312 89.769531 L 273.636719 85.125 Z M 272.191406 74.457031 " fill-opacity="1" fill-rule="nonzero"/><path fill="#ffffff" d="M 289.546875 295.28125 C 296.171875 292.453125 300.457031 282.90625 299.238281 273.914062 L 297.785156 263.1875 L 222.183594 292.210938 L 220.636719 324.710938 Z M 289.546875 295.28125 " fill-opacity="1" fill-rule="nonzero"/><path fill="#000000" d="M 168.890625 97.566406 C 168.492188 97.566406 168.144531 97.269531 168.089844 96.867188 L 166.441406 84.570312 C 165.679688 78.867188 167.109375 73.304688 170.367188 69.308594 C 172.996094 66.082031 176.621094 64.148438 180.578125 63.867188 L 257.511719 58.359375 C 264.78125 57.839844 271.726562 65.011719 272.992188 74.347656 L 274.4375 85.015625 C 274.46875 85.234375 274.410156 85.449219 274.273438 85.621094 C 274.140625 85.792969 273.945312 85.902344 273.726562 85.925781 L 168.980469 97.5625 C 168.949219 97.5625 168.921875 97.566406 168.890625 97.566406 Z M 258.265625 59.945312 C 258.054688 59.945312 257.839844 59.953125 257.625 59.96875 L 180.691406 65.476562 C 177.1875 65.726562 173.964844 67.449219 171.621094 70.324219 C 168.640625 73.976562 167.339844 79.09375 168.042969 84.355469 L 169.585938 95.871094 L 272.726562 84.414062 L 271.390625 74.566406 C 270.277344 66.339844 264.46875 59.945312 258.265625 59.945312 Z M 258.265625 59.945312 " fill-opacity="1" fill-rule="nonzero"/><path fill="#000000" d="M 210.746094 328.65625 C 208.667969 328.65625 206.652344 328.132812 204.8125 327.09375 C 200.78125 324.804688 198.035156 320.246094 197.277344 314.585938 L 195.617188 302.210938 C 195.566406 301.839844 195.777344 301.484375 196.128906 301.351562 L 297.496094 262.433594 C 297.726562 262.34375 297.984375 262.367188 298.195312 262.492188 C 298.410156 262.617188 298.550781 262.835938 298.585938 263.078125 L 300.039062 273.804688 C 301.324219 283.277344 296.855469 293.039062 289.863281 296.023438 L 216.144531 327.507812 C 214.347656 328.273438 212.523438 328.65625 210.746094 328.65625 Z M 197.300781 302.628906 L 198.875 314.371094 C 199.566406 319.53125 202.023438 323.65625 205.613281 325.691406 C 208.570312 327.367188 212.085938 327.484375 215.511719 326.023438 L 289.226562 294.542969 C 295.480469 291.871094 299.613281 282.667969 298.4375 274.023438 L 297.121094 264.304688 Z M 197.300781 302.628906 " fill-opacity="1" fill-rule="nonzero"/><path fill="#000000" d="M 206.980469 81.042969 C 205.585938 81.042969 204.320312 79.816406 204.101562 78.195312 C 203.980469 77.28125 204.207031 76.378906 204.734375 75.726562 C 205.167969 75.183594 205.769531 74.851562 206.433594 74.792969 C 207.925781 74.667969 209.285156 75.910156 209.519531 77.632812 C 209.640625 78.542969 209.414062 79.441406 208.894531 80.097656 C 208.460938 80.636719 207.863281 80.972656 207.203125 81.035156 C 207.128906 81.039062 207.054688 81.042969 206.980469 81.042969 Z M 206.644531 76.398438 C 206.621094 76.398438 206.597656 76.398438 206.574219 76.398438 C 206.296875 76.425781 206.105469 76.59375 205.996094 76.730469 C 205.75 77.039062 205.640625 77.507812 205.703125 77.980469 C 205.816406 78.824219 206.449219 79.484375 207.050781 79.429688 C 207.328125 79.402344 207.519531 79.230469 207.628906 79.09375 C 207.871094 78.785156 207.980469 78.320312 207.917969 77.847656 C 207.808594 77.039062 207.234375 76.398438 206.644531 76.398438 Z M 206.644531 76.398438 " fill-opacity="1" fill-rule="nonzero"/><path fill="#000000" d="M 251.699219 305.746094 C 250.699219 305.746094 249.726562 305.492188 248.835938 304.980469 C 246.808594 303.824219 245.425781 301.5 245.035156 298.601562 C 244.332031 293.378906 247.085938 287.824219 251.175781 286.21875 C 252.964844 285.515625 254.820312 285.640625 256.398438 286.566406 C 258.394531 287.738281 259.761719 290.046875 260.144531 292.910156 C 260.847656 298.121094 258.214844 303.535156 254.148438 305.238281 C 253.335938 305.578125 252.511719 305.746094 251.699219 305.746094 Z M 253.480469 287.378906 C 252.921875 287.378906 252.347656 287.492188 251.769531 287.71875 C 248.328125 289.066406 246.023438 293.855469 246.636719 298.386719 C 246.957031 300.78125 248.054688 302.675781 249.636719 303.582031 C 250.824219 304.261719 252.167969 304.320312 253.523438 303.75 C 256.894531 302.339844 259.144531 297.574219 258.546875 293.125 C 258.226562 290.757812 257.144531 288.875 255.582031 287.957031 C 254.921875 287.570312 254.214844 287.378906 253.480469 287.378906 Z M 253.480469 287.378906 " fill-opacity="1" fill-rule="nonzero"/><path fill="#000000" d="M 213.234375 78.132812 C 212.820312 78.132812 212.46875 77.816406 212.429688 77.398438 C 212.390625 76.957031 212.714844 76.5625 213.160156 76.523438 L 240.320312 74.035156 C 240.753906 74 241.15625 74.320312 241.195312 74.761719 C 241.238281 75.207031 240.910156 75.597656 240.464844 75.640625 L 213.308594 78.128906 C 213.28125 78.132812 213.257812 78.132812 213.234375 78.132812 Z M 213.234375 78.132812 " fill-opacity="1" fill-rule="nonzero"/><path fill="#99b1b8" d="M 231.394531 288.675781 L 201.605469 300.113281 L 212.453125 91.921875 L 240.359375 88.820312 Z M 231.394531 288.675781 " fill-opacity="1" fill-rule="nonzero"/><path fill="#99b1b8" d="M 258.753906 278.171875 L 245.792969 283.148438 L 253.890625 87.320312 L 266.09375 85.964844 Z M 258.753906 278.171875 " fill-opacity="1" fill-rule="nonzero"/><path fill="#000000" d="M 196.417969 302.910156 C 196.273438 302.910156 196.132812 302.871094 196.003906 302.796875 C 195.792969 302.671875 195.648438 302.457031 195.617188 302.210938 L 168.089844 96.867188 C 168.0625 96.652344 168.121094 96.433594 168.253906 96.261719 C 168.390625 96.089844 168.585938 95.980469 168.800781 95.957031 L 273.550781 84.324219 C 273.988281 84.28125 274.378906 84.582031 274.4375 85.015625 L 298.585938 263.078125 C 298.636719 263.449219 298.425781 263.804688 298.074219 263.9375 L 196.707031 302.855469 C 196.613281 302.890625 196.515625 302.910156 196.417969 302.910156 Z M 169.800781 97.46875 L 197.082031 300.984375 L 296.898438 262.664062 L 272.945312 86.011719 Z M 169.800781 97.46875 " fill-opacity="1" fill-rule="nonzero"/><path fill="#475d64" d="M 96.628906 187.710938 L 138.179688 229.367188 L 130.050781 237.515625 L 88.5 195.859375 L 46.949219 237.515625 L 38.820312 229.367188 L 80.371094 187.710938 L 38.820312 146.054688 L 46.949219 137.90625 L 88.5 179.5625 L 130.050781 137.90625 L 138.179688 146.054688 Z M 96.628906 187.710938 " fill-opacity="1" fill-rule="nonzero"/><g clip-path="url(#682a7b9fd5)"><path fill="#000000" d="M 130.050781 238.652344 C 129.761719 238.652344 129.46875 238.542969 129.246094 238.320312 L 88.5 197.46875 L 47.753906 238.320312 C 47.539062 238.535156 47.25 238.652344 46.949219 238.652344 C 46.648438 238.652344 46.359375 238.535156 46.144531 238.320312 L 38.019531 230.171875 C 37.574219 229.730469 37.574219 229.007812 38.019531 228.5625 L 78.765625 187.710938 L 38.019531 146.859375 C 37.574219 146.414062 37.574219 145.695312 38.019531 145.25 L 46.144531 137.101562 C 46.359375 136.886719 46.648438 136.765625 46.949219 136.765625 C 47.25 136.765625 47.539062 136.886719 47.753906 137.101562 L 88.5 177.953125 L 129.246094 137.101562 C 129.691406 136.65625 130.410156 136.65625 130.855469 137.101562 L 138.980469 145.25 C 139.425781 145.691406 139.425781 146.414062 138.980469 146.859375 L 98.234375 187.710938 L 138.980469 228.5625 C 139.195312 228.773438 139.3125 229.066406 139.3125 229.367188 C 139.3125 229.667969 139.195312 229.960938 138.980469 230.171875 L 130.855469 238.320312 C 130.632812 238.542969 130.339844 238.652344 130.050781 238.652344 Z M 88.5 194.71875 C 88.789062 194.71875 89.082031 194.832031 89.304688 195.054688 L 130.050781 235.90625 L 136.570312 229.367188 L 95.824219 188.515625 C 95.609375 188.300781 95.492188 188.011719 95.492188 187.710938 C 95.492188 187.410156 95.609375 187.117188 95.824219 186.90625 L 136.570312 146.054688 L 130.050781 139.515625 L 89.304688 180.367188 C 88.859375 180.8125 88.140625 180.8125 87.695312 180.367188 L 46.949219 139.515625 L 40.429688 146.054688 L 81.175781 186.90625 C 81.617188 187.347656 81.617188 188.070312 81.175781 188.515625 L 40.429688 229.367188 L 46.949219 235.90625 L 87.695312 195.054688 C 87.917969 194.832031 88.210938 194.71875 88.5 194.71875 Z M 88.5 194.71875 " fill-opacity="1" fill-rule="nonzero"/></g></svg>