<svg xmlns="http://www.w3.org/2000/svg" xmlns:xlink="http://www.w3.org/1999/xlink" width="500" zoomAndPan="magnify" viewBox="0 0 375 374.999991" height="500" preserveAspectRatio="xMidYMid meet" version="1.0"><defs><clipPath id="1ef53eb654"><path d="M 63.167969 63 L 165 63 L 165 164.992188 L 63.167969 164.992188 Z M 63.167969 63 " clip-rule="nonzero"/></clipPath><clipPath id="75a0b1a1d0"><path d="M 117 253 L 337 253 L 337 317.6875 L 117 317.6875 Z M 117 253 " clip-rule="nonzero"/></clipPath><clipPath id="fef8eefaa3"><path d="M 117 164.6875 L 336 164.6875 L 336 272 L 117 272 Z M 117 164.6875 " clip-rule="nonzero"/></clipPath></defs><path fill="#475d64" d="M 122.296875 114.050781 L 163.847656 155.707031 L 155.722656 163.855469 L 114.167969 122.199219 L 72.617188 163.855469 L 64.492188 155.707031 L 106.042969 114.050781 L 64.492188 72.394531 L 72.617188 64.246094 L 114.167969 105.902344 L 155.722656 64.246094 L 163.847656 72.394531 Z M 122.296875 114.050781 " fill-opacity="1" fill-rule="nonzero"/><g clip-path="url(#1ef53eb654)"><path fill="#000000" d="M 155.722656 164.992188 C 155.429688 164.992188 155.140625 164.882812 154.917969 164.660156 L 114.167969 123.808594 L 73.421875 164.660156 C 73.207031 164.875 72.917969 164.992188 72.617188 164.992188 C 72.316406 164.992188 72.027344 164.875 71.816406 164.660156 L 63.6875 156.511719 C 63.246094 156.066406 63.246094 155.347656 63.6875 154.902344 L 104.433594 114.050781 L 63.6875 73.199219 C 63.246094 72.753906 63.246094 72.035156 63.6875 71.585938 L 71.816406 63.441406 C 72.027344 63.226562 72.316406 63.105469 72.617188 63.105469 C 72.917969 63.105469 73.207031 63.226562 73.421875 63.441406 L 114.167969 104.289062 L 154.917969 63.441406 C 155.359375 62.996094 156.078125 62.996094 156.523438 63.441406 L 164.652344 71.585938 C 165.09375 72.03125 165.09375 72.75 164.652344 73.199219 L 123.902344 114.050781 L 164.652344 154.902344 C 164.863281 155.113281 164.984375 155.40625 164.984375 155.707031 C 164.984375 156.007812 164.863281 156.296875 164.652344 156.511719 L 156.523438 164.660156 C 156.304688 164.882812 156.011719 164.992188 155.722656 164.992188 Z M 114.167969 121.058594 C 114.460938 121.058594 114.75 121.171875 114.972656 121.390625 L 155.722656 162.242188 L 162.242188 155.707031 L 121.492188 114.855469 C 121.28125 114.640625 121.160156 114.351562 121.160156 114.050781 C 121.160156 113.75 121.28125 113.457031 121.492188 113.246094 L 162.242188 72.394531 L 155.722656 65.855469 L 114.972656 106.707031 C 114.53125 107.152344 113.808594 107.152344 113.367188 106.707031 L 72.617188 65.855469 L 66.097656 72.394531 L 106.84375 113.246094 C 107.289062 113.6875 107.289062 114.410156 106.84375 114.855469 L 66.097656 155.707031 L 72.617188 162.242188 L 113.367188 121.390625 C 113.585938 121.171875 113.878906 121.058594 114.167969 121.058594 Z M 114.167969 121.058594 " fill-opacity="1" fill-rule="nonzero"/></g><path fill="#ffffff" d="M 332.382812 272.972656 C 320.519531 286.164062 275.703125 256.847656 226.460938 256.847656 C 177.214844 256.847656 134.039062 284.886719 122.175781 271.695312 C 120.535156 277.230469 120.535156 280.761719 120.535156 283.441406 C 120.535156 300.390625 167.957031 314.125 226.460938 314.125 C 284.960938 314.125 332.382812 300.390625 332.382812 283.441406 C 332.382812 280.761719 334.617188 275.453125 332.382812 272.972656 " fill-opacity="1" fill-rule="nonzero"/><g clip-path="url(#75a0b1a1d0)"><path fill="#231f20" d="M 226.460938 253.335938 C 202.246094 253.335938 179.589844 259.9375 161.378906 265.242188 C 149.46875 268.714844 139.1875 271.714844 132.179688 271.714844 C 128.636719 271.714844 126.222656 270.941406 124.792969 269.347656 C 124.117188 268.597656 123.160156 268.183594 122.175781 268.183594 C 121.914062 268.183594 121.65625 268.214844 121.394531 268.269531 C 120.152344 268.554688 119.160156 269.480469 118.796875 270.703125 C 117.015625 276.722656 117.015625 280.605469 117.015625 283.441406 C 117.015625 305.652344 173.40625 317.636719 226.460938 317.636719 C 279.515625 317.636719 335.902344 305.652344 335.902344 283.441406 C 335.902344 282.960938 336.101562 281.964844 336.269531 281.082031 C 336.882812 277.945312 337.722656 273.648438 335 270.625 C 334.335938 269.882812 333.382812 269.460938 332.382812 269.460938 C 331.386719 269.460938 330.433594 269.882812 329.761719 270.625 C 328.40625 272.136719 326.09375 272.871094 322.691406 272.871094 C 315.589844 272.871094 305 269.675781 292.742188 265.972656 C 274.085938 260.34375 250.859375 253.335938 226.460938 253.335938 Z M 226.460938 256.847656 C 266.660156 256.847656 303.910156 276.382812 322.691406 276.382812 C 326.914062 276.382812 330.207031 275.394531 332.382812 272.972656 C 334.617188 275.453125 332.382812 280.761719 332.382812 283.441406 C 332.382812 300.390625 284.960938 314.125 226.460938 314.125 C 167.957031 314.125 120.535156 300.390625 120.535156 283.441406 C 120.535156 280.761719 120.535156 277.230469 122.175781 271.695312 C 124.433594 274.210938 127.824219 275.226562 132.179688 275.226562 C 150.699219 275.226562 186.589844 256.847656 226.460938 256.847656 " fill-opacity="1" fill-rule="nonzero"/></g><path fill="#ffffff" d="M 133.542969 251.964844 C 128.648438 261.070312 109.246094 274.882812 117.578125 272.121094 C 123.144531 270.277344 128.050781 282.203125 131.574219 284.425781 C 136.730469 287.480469 142.800781 286.023438 148.5 287.96875 C 152.839844 289.359375 154.460938 296.035156 158.523438 297.976562 C 168.292969 302.980469 177.75 292.53125 191.980469 300.34375 C 202.511719 306.121094 215.984375 307.363281 227.777344 300.621094 C 236.800781 295.460938 247.070312 294.847656 258.1875 299.648438 C 266.65625 303.296875 280.789062 306.132812 284.996094 297.003906 C 288.699219 288.976562 312.335938 298.84375 313.351562 290.261719 C 314.601562 279.648438 340.925781 282.546875 334.355469 271.980469 C 329.316406 263.886719 348.453125 262.734375 318.898438 265.304688 C 311.519531 265.949219 304.796875 265.863281 297.203125 265.863281 C 287.980469 265.585938 279.304688 265.585938 270.355469 266.703125 C 247.574219 269.476562 224.792969 269.203125 202.015625 269.476562 C 175.710938 269.476562 167.4375 260.027344 141.402344 255.855469 L 133.542969 251.964844 " fill-opacity="1" fill-rule="nonzero"/><path fill="#231f20" d="M 133.542969 248.449219 C 132.289062 248.449219 131.074219 249.125 130.441406 250.304688 C 128.359375 254.171875 122.796875 259.511719 118.738281 263.40625 C 113.035156 268.878906 111.117188 270.71875 112.28125 273.601562 C 112.875 275.078125 114.296875 275.992188 115.988281 275.992188 C 116.730469 275.992188 117.5625 275.828125 118.6875 275.457031 L 118.753906 275.441406 C 120.136719 275.441406 123.257812 279.792969 124.585938 281.648438 C 126.359375 284.125 127.894531 286.257812 129.695312 287.394531 L 129.777344 287.445312 C 133.421875 289.609375 137.335938 289.933594 140.785156 290.21875 C 143.121094 290.417969 145.332031 290.601562 147.355469 291.289062 L 147.421875 291.3125 C 148.574219 291.683594 149.789062 293.425781 150.964844 295.109375 C 152.496094 297.308594 154.226562 299.796875 156.957031 301.125 C 159.324219 302.328125 161.847656 302.914062 164.683594 302.914062 C 167.367188 302.914062 170.011719 302.386719 172.570312 301.882812 C 175.152344 301.371094 177.824219 300.847656 180.5625 300.847656 C 183.992188 300.847656 187.085938 301.664062 190.285156 303.421875 C 196.589844 306.878906 203.589844 308.703125 210.523438 308.703125 C 217.285156 308.703125 223.679688 307.011719 229.527344 303.667969 C 233.914062 301.160156 238.582031 299.890625 243.414062 299.890625 C 247.703125 299.890625 252.207031 300.890625 256.796875 302.871094 C 259.417969 304.003906 266.269531 306.632812 273.300781 306.632812 C 282.5 306.632812 286.476562 302.195312 288.195312 298.472656 C 288.382812 298.058594 289.351562 297.105469 294.226562 297.105469 C 295.964844 297.105469 297.882812 297.21875 299.746094 297.332031 C 301.640625 297.449219 303.597656 297.5625 305.417969 297.5625 C 308.039062 297.5625 316.027344 297.5625 316.84375 290.671875 C 317.171875 287.898438 322.339844 286.230469 326.898438 284.765625 C 332.089844 283.089844 336.996094 281.507812 338.511719 277.371094 C 339.335938 275.136719 338.941406 272.699219 337.34375 270.128906 C 336.761719 269.1875 336.8125 268.964844 337.90625 267.703125 C 338.558594 266.949219 340.085938 265.179688 339.046875 262.910156 C 337.976562 260.570312 335.394531 260.570312 334.421875 260.570312 C 332.636719 260.570312 329.519531 260.847656 323.324219 261.394531 L 318.59375 261.8125 C 312.792969 262.316406 307.398438 262.355469 301.921875 262.355469 L 299.613281 262.355469 L 297.253906 262.351562 C 293.75 262.246094 290.851562 262.199219 288.132812 262.199219 C 281.285156 262.199219 275.496094 262.519531 269.921875 263.210938 C 250.851562 265.539062 231.351562 265.703125 212.492188 265.863281 C 208.988281 265.894531 205.480469 265.921875 201.976562 265.96875 C 187.382812 265.964844 178.710938 262.976562 168.675781 259.515625 C 161.550781 257.058594 153.492188 254.28125 142.496094 252.472656 L 135.105469 248.816406 C 134.601562 248.570312 134.070312 248.449219 133.542969 248.449219 Z M 133.542969 251.964844 L 141.402344 255.855469 C 167.4375 260.027344 175.710938 269.476562 202.015625 269.476562 C 224.792969 269.203125 247.574219 269.476562 270.355469 266.703125 C 276.324219 265.960938 282.171875 265.714844 288.132812 265.714844 C 291.117188 265.714844 294.125 265.773438 297.203125 265.863281 C 298.808594 265.863281 300.378906 265.867188 301.921875 265.867188 C 307.671875 265.867188 313.082031 265.8125 318.898438 265.304688 C 327.914062 264.523438 332.398438 264.085938 334.417969 264.085938 C 339.023438 264.085938 330.851562 266.359375 334.355469 271.980469 C 340.925781 282.546875 314.601562 279.648438 313.351562 290.261719 C 312.984375 293.359375 309.671875 294.050781 305.417969 294.050781 C 301.953125 294.050781 297.867188 293.589844 294.226562 293.589844 C 289.941406 293.589844 286.277344 294.226562 284.996094 297.003906 C 282.90625 301.535156 278.375 303.121094 273.300781 303.121094 C 268.15625 303.121094 262.453125 301.488281 258.1875 299.648438 C 253.070312 297.4375 248.132812 296.378906 243.414062 296.378906 C 237.882812 296.378906 232.648438 297.835938 227.777344 300.621094 C 222.234375 303.789062 216.324219 305.191406 210.523438 305.191406 C 203.972656 305.191406 197.5625 303.402344 191.980469 300.34375 C 187.804688 298.050781 184.046875 297.332031 180.5625 297.332031 C 174.671875 297.332031 169.582031 299.402344 164.683594 299.402344 C 162.613281 299.402344 160.578125 299.03125 158.523438 297.976562 C 154.460938 296.035156 152.839844 289.359375 148.5 287.96875 C 142.800781 286.023438 136.730469 287.480469 131.574219 284.425781 C 128.300781 282.359375 123.839844 271.929688 118.753906 271.929688 C 118.367188 271.929688 117.972656 271.988281 117.578125 272.121094 C 116.839844 272.363281 116.320312 272.476562 115.988281 272.476562 C 112.558594 272.476562 129.082031 260.265625 133.542969 251.964844 " fill-opacity="1" fill-rule="nonzero"/><path fill="#ffffff" d="M 226.460938 282.558594 C 175.242188 282.558594 130.496094 270.921875 120.652344 258.132812 C 119.25 259.953125 120.535156 263.855469 120.535156 265.78125 C 120.535156 281.269531 167.957031 293.820312 226.460938 293.820312 C 284.960938 293.820312 332.382812 281.269531 332.382812 265.78125 C 332.382812 263.855469 333.554688 260.070312 332.152344 258.253906 C 322.304688 271.039062 277.675781 282.558594 226.460938 282.558594 " fill-opacity="1" fill-rule="nonzero"/><path fill="#231f20" d="M 120.652344 254.621094 L 120.648438 254.621094 C 119.558594 254.621094 118.527344 255.128906 117.855469 255.992188 C 115.960938 258.464844 116.460938 261.773438 116.820312 264.195312 C 116.914062 264.796875 117.015625 265.476562 117.015625 265.78125 C 117.015625 275.148438 128.648438 283.175781 150.65625 289.003906 C 170.949219 294.375 197.867188 297.332031 226.460938 297.332031 C 255.050781 297.332031 281.96875 294.375 302.261719 289.003906 C 324.269531 283.175781 335.902344 275.148438 335.902344 265.78125 C 335.902344 265.472656 335.992188 264.816406 336.070312 264.242188 C 336.394531 261.847656 336.839844 258.574219 334.941406 256.113281 C 334.273438 255.242188 333.242188 254.738281 332.152344 254.738281 C 331.054688 254.738281 330.023438 255.246094 329.359375 256.113281 C 320.867188 267.140625 279.109375 279.046875 226.460938 279.046875 C 202.574219 279.046875 178.570312 276.449219 158.863281 271.726562 C 140.96875 267.441406 127.722656 261.558594 123.4375 255.992188 C 122.773438 255.128906 121.742188 254.621094 120.652344 254.621094 Z M 120.652344 258.132812 C 130.496094 270.921875 175.242188 282.558594 226.460938 282.558594 C 277.675781 282.558594 322.304688 271.039062 332.152344 258.253906 C 333.554688 260.070312 332.382812 263.855469 332.382812 265.78125 C 332.382812 281.269531 284.960938 293.820312 226.460938 293.820312 C 167.957031 293.820312 120.535156 281.269531 120.535156 265.78125 C 120.535156 263.855469 119.25 259.953125 120.652344 258.132812 " fill-opacity="1" fill-rule="nonzero"/><path fill="#ffffff" d="M 332.382812 260.246094 C 332.382812 275.730469 284.960938 288.28125 226.460938 288.28125 C 167.957031 288.28125 120.535156 275.730469 120.535156 260.246094 C 120.535156 244.757812 167.957031 232.207031 226.460938 232.207031 C 284.960938 232.207031 332.382812 244.757812 332.382812 260.246094 " fill-opacity="1" fill-rule="nonzero"/><path fill="#231f20" d="M 226.460938 228.695312 C 197.867188 228.695312 170.949219 231.652344 150.65625 237.023438 C 128.648438 242.847656 117.015625 250.878906 117.015625 260.246094 C 117.015625 269.609375 128.648438 277.640625 150.65625 283.464844 C 170.949219 288.839844 197.867188 291.792969 226.460938 291.792969 C 255.050781 291.792969 281.96875 288.839844 302.261719 283.464844 C 324.269531 277.640625 335.902344 269.609375 335.902344 260.246094 C 335.902344 250.878906 324.269531 242.847656 302.261719 237.023438 C 281.96875 231.652344 255.050781 228.695312 226.460938 228.695312 Z M 226.460938 232.207031 C 284.960938 232.207031 332.382812 244.757812 332.382812 260.246094 C 332.382812 275.730469 284.960938 288.28125 226.460938 288.28125 C 167.957031 288.28125 120.535156 275.730469 120.535156 260.246094 C 120.535156 244.757812 167.957031 232.207031 226.460938 232.207031 " fill-opacity="1" fill-rule="nonzero"/><path fill="#ffffff" d="M 325.523438 240.085938 C 330.601562 247.621094 350.742188 259.054688 342.09375 256.769531 C 336.316406 255.242188 331.226562 265.113281 327.566406 266.953125 C 322.21875 269.488281 315.914062 268.273438 310 269.890625 C 305.496094 271.039062 303.816406 276.5625 299.589844 278.171875 C 289.457031 282.316406 279.640625 273.667969 264.867188 280.128906 C 253.941406 284.910156 239.953125 285.9375 227.710938 280.359375 C 218.351562 276.089844 207.691406 275.582031 196.148438 279.554688 C 187.359375 282.578125 172.691406 284.917969 168.324219 277.367188 C 164.484375 270.722656 139.945312 278.886719 138.898438 271.789062 C 137.59375 263.003906 110.273438 265.398438 117.097656 256.65625 C 122.320312 249.957031 102.464844 249.003906 133.136719 251.132812 C 140.800781 251.660156 147.773438 251.59375 155.65625 251.59375 C 165.226562 251.359375 174.234375 251.359375 183.523438 252.28125 C 207.167969 254.585938 230.808594 254.351562 254.453125 254.585938 C 281.757812 254.585938 290.339844 246.757812 317.363281 243.304688 L 325.523438 240.085938 " fill-opacity="1" fill-rule="nonzero"/><path fill="#231f20" d="M 325.523438 236.570312 C 325.09375 236.570312 324.652344 236.648438 324.230469 236.820312 L 316.472656 239.878906 C 305.078125 241.367188 297.0625 243.566406 289.316406 245.699219 C 278.832031 248.578125 269.777344 251.070312 254.453125 251.070312 C 250.851562 251.035156 247.210938 251.011719 243.578125 250.984375 C 223.976562 250.851562 203.714844 250.71875 183.863281 248.785156 C 178.117188 248.21875 172.144531 247.953125 165.070312 247.953125 C 162.253906 247.953125 159.25 247.992188 155.617188 248.082031 L 150.75 248.082031 C 145.050781 248.082031 139.433594 248.046875 133.378906 247.628906 L 128.460938 247.285156 C 122.054688 246.832031 118.839844 246.609375 117.023438 246.609375 C 115.890625 246.609375 113.234375 246.609375 112.257812 249.097656 C 111.308594 251.511719 113.171875 253.226562 113.789062 253.792969 C 113.953125 253.945312 114.21875 254.191406 114.398438 254.390625 L 114.320312 254.496094 C 112.15625 257.269531 112.292969 259.578125 112.789062 261.03125 C 114.167969 265.0625 119.222656 266.363281 125.078125 267.867188 C 128.59375 268.773438 135.140625 270.453125 135.414062 272.300781 C 136.320312 278.433594 144.175781 278.433594 147.128906 278.433594 C 148.988281 278.433594 151.007812 278.335938 152.960938 278.246094 C 154.90625 278.148438 156.917969 278.054688 158.746094 278.054688 C 164.507812 278.054688 165.265625 279.109375 165.269531 279.125 C 167.074219 282.234375 171.164062 285.9375 180.457031 285.9375 C 187.613281 285.9375 194.621094 283.796875 197.296875 282.875 C 202.148438 281.207031 206.921875 280.359375 211.484375 280.359375 C 216.632812 280.359375 221.601562 281.433594 226.25 283.554688 C 232.222656 286.277344 238.738281 287.660156 245.621094 287.660156 C 252.691406 287.660156 259.832031 286.167969 266.28125 283.347656 C 269.703125 281.851562 273.019531 281.152344 276.714844 281.152344 C 279.640625 281.152344 282.453125 281.59375 285.171875 282.023438 C 287.792969 282.4375 290.496094 282.859375 293.195312 282.859375 C 296.015625 282.859375 298.53125 282.394531 300.890625 281.4375 C 303.683594 280.359375 305.496094 278.28125 307.097656 276.449219 C 308.421875 274.933594 309.5625 273.625 310.871094 273.292969 C 313.117188 272.679688 315.460938 272.523438 317.933594 272.359375 C 321.609375 272.117188 325.410156 271.859375 329.074219 270.128906 L 329.148438 270.089844 C 331.007812 269.152344 332.613281 267.375 334.46875 265.3125 C 336.324219 263.242188 339.128906 260.125 340.867188 260.125 C 340.976562 260.125 341.085938 260.136719 341.195312 260.164062 C 342.277344 260.453125 343.0625 260.582031 343.742188 260.582031 C 345.902344 260.582031 347.128906 259.253906 347.546875 258.015625 C 348.453125 255.359375 346.246094 253.480469 344.933594 252.355469 C 343.800781 251.390625 342.269531 250.222656 340.503906 248.867188 C 336.300781 245.65625 330.554688 241.257812 328.441406 238.121094 C 327.773438 237.128906 326.667969 236.570312 325.523438 236.570312 Z M 325.523438 240.085938 C 330.152344 246.957031 347.300781 257.066406 343.742188 257.066406 C 343.398438 257.066406 342.859375 256.972656 342.09375 256.769531 C 341.683594 256.660156 341.273438 256.609375 340.867188 256.609375 C 335.597656 256.609375 330.964844 265.242188 327.566406 266.953125 C 322.21875 269.488281 315.914062 268.273438 310 269.890625 C 305.496094 271.039062 303.816406 276.5625 299.589844 278.171875 C 297.464844 279.042969 295.347656 279.347656 293.195312 279.347656 C 288.113281 279.347656 282.835938 277.636719 276.714844 277.636719 C 273.105469 277.636719 269.195312 278.230469 264.867188 280.128906 C 259.074219 282.664062 252.417969 284.144531 245.621094 284.144531 C 239.601562 284.144531 233.464844 282.984375 227.710938 280.359375 C 222.65625 278.058594 217.226562 276.847656 211.484375 276.847656 C 206.589844 276.847656 201.460938 277.730469 196.148438 279.554688 C 191.722656 281.078125 185.800781 282.425781 180.457031 282.425781 C 175.191406 282.425781 170.492188 281.117188 168.324219 277.367188 C 166.996094 275.066406 163.191406 274.542969 158.746094 274.542969 C 154.96875 274.542969 150.726562 274.921875 147.128906 274.921875 C 142.710938 274.921875 139.277344 274.347656 138.898438 271.789062 C 137.59375 263.003906 110.273438 265.398438 117.097656 256.65625 C 120.726562 252 112.246094 250.121094 117.023438 250.121094 C 119.121094 250.121094 123.773438 250.480469 133.136719 251.132812 C 139.171875 251.550781 144.785156 251.59375 150.75 251.59375 C 152.355469 251.59375 153.984375 251.59375 155.65625 251.59375 C 158.847656 251.515625 161.972656 251.464844 165.070312 251.464844 C 171.261719 251.464844 177.328125 251.667969 183.523438 252.28125 C 207.167969 254.585938 230.808594 254.351562 254.453125 254.585938 C 281.757812 254.585938 290.339844 246.757812 317.363281 243.304688 L 325.523438 240.085938 " fill-opacity="1" fill-rule="nonzero"/><path fill="#ffffff" d="M 319.199219 271.65625 C 319.199219 271.65625 228.730469 271.03125 201.359375 277.496094 C 173.988281 283.957031 170.851562 284.585938 170.851562 284.585938 C 170.851562 284.585938 155.183594 271.03125 144.53125 263.734375 C 133.875 256.433594 122.589844 248.300781 118.410156 247.679688 C 114.230469 247.050781 111.515625 245.382812 111.515625 245.382812 L 149.125 229.324219 L 217.445312 213.683594 L 304.992188 223.484375 C 304.992188 223.484375 321.707031 249.757812 321.707031 256.644531 C 321.707031 263.527344 325.464844 272.492188 319.199219 271.65625 " fill-opacity="1" fill-rule="nonzero"/><path fill="#231f20" d="M 217.445312 210.171875 C 217.179688 210.171875 216.917969 210.203125 216.664062 210.261719 L 148.335938 225.902344 C 148.136719 225.945312 147.933594 226.011719 147.742188 226.09375 L 110.128906 242.152344 C 108.925781 242.667969 108.105469 243.8125 108.007812 245.125 C 107.90625 246.433594 108.554688 247.6875 109.671875 248.375 C 110.011719 248.582031 113.136719 250.441406 117.890625 251.148438 C 120.703125 251.570312 130.835938 258.5625 138.234375 263.667969 C 139.667969 264.65625 141.109375 265.648438 142.539062 266.628906 C 152.902344 273.730469 168.390625 287.105469 168.546875 287.242188 C 169.195312 287.800781 170.015625 288.097656 170.851562 288.097656 C 171.082031 288.097656 171.316406 288.074219 171.546875 288.03125 C 171.671875 288.007812 175.050781 287.320312 202.167969 280.914062 C 224.800781 275.570312 292.507812 275.152344 312.71875 275.152344 C 316.121094 275.152344 318.328125 275.164062 318.980469 275.167969 C 319.320312 275.203125 319.648438 275.222656 319.964844 275.222656 C 322.421875 275.222656 323.886719 274.128906 324.683594 273.210938 C 326.980469 270.566406 326.402344 266.546875 325.792969 262.292969 C 325.515625 260.363281 325.226562 258.363281 325.226562 256.644531 C 325.226562 249.3125 312.011719 227.96875 307.960938 221.601562 C 307.390625 220.703125 306.441406 220.113281 305.382812 219.996094 L 217.839844 210.195312 C 217.707031 210.179688 217.578125 210.171875 217.445312 210.171875 Z M 217.445312 213.683594 L 304.992188 223.484375 C 304.992188 223.484375 321.707031 249.757812 321.707031 256.644531 C 321.707031 263.226562 325.144531 271.710938 319.964844 271.710938 C 319.726562 271.710938 319.472656 271.691406 319.199219 271.65625 C 319.199219 271.65625 316.820312 271.640625 312.71875 271.640625 C 291.523438 271.640625 224.292969 272.082031 201.359375 277.496094 C 173.988281 283.957031 170.851562 284.585938 170.851562 284.585938 C 170.851562 284.585938 155.183594 271.03125 144.53125 263.734375 C 133.875 256.433594 122.589844 248.300781 118.410156 247.679688 C 114.230469 247.050781 111.515625 245.382812 111.515625 245.382812 L 149.125 229.324219 L 217.445312 213.683594 " fill-opacity="1" fill-rule="nonzero"/><path fill="#ffffff" d="M 332.382812 230.917969 C 332.382812 261.199219 284.960938 268.203125 226.460938 268.203125 C 167.957031 268.203125 120.535156 261.199219 120.535156 230.917969 C 120.535156 200.632812 167.957031 168.246094 226.460938 168.246094 C 284.960938 168.246094 332.382812 200.632812 332.382812 230.917969 " fill-opacity="1" fill-rule="nonzero"/><g clip-path="url(#fef8eefaa3)"><path fill="#231f20" d="M 226.460938 164.734375 C 198.296875 164.734375 171.035156 172.019531 149.703125 185.242188 C 128.929688 198.117188 117.015625 214.769531 117.015625 230.917969 C 117.015625 267.078125 175.503906 271.714844 226.460938 271.714844 C 277.414062 271.714844 335.902344 267.078125 335.902344 230.917969 C 335.902344 214.769531 323.988281 198.117188 303.214844 185.242188 C 281.882812 172.019531 254.621094 164.734375 226.460938 164.734375 Z M 226.460938 168.246094 C 284.960938 168.246094 332.382812 200.632812 332.382812 230.917969 C 332.382812 261.199219 284.960938 268.203125 226.460938 268.203125 C 167.957031 268.203125 120.535156 261.199219 120.535156 230.917969 C 120.535156 200.632812 167.957031 168.246094 226.460938 168.246094 " fill-opacity="1" fill-rule="nonzero"/></g><path fill="#231f20" d="M 193.527344 212.980469 C 205.484375 209.636719 195.148438 199.242188 193.527344 212.980469 " fill-opacity="1" fill-rule="nonzero"/><path fill="#231f20" d="M 243.464844 174.109375 C 247.625 185.792969 257.308594 174.785156 243.464844 174.109375 " fill-opacity="1" fill-rule="nonzero"/><path fill="#231f20" d="M 207.667969 222.890625 C 213.945312 221.136719 208.519531 215.679688 207.667969 222.890625 " fill-opacity="1" fill-rule="nonzero"/><path fill="#231f20" d="M 218.742188 175.8125 C 225.023438 174.054688 219.597656 168.601562 218.742188 175.8125 " fill-opacity="1" fill-rule="nonzero"/><path fill="#231f20" d="M 190.511719 196.144531 C 196.792969 194.386719 191.367188 188.929688 190.511719 196.144531 " fill-opacity="1" fill-rule="nonzero"/><path fill="#231f20" d="M 152.085938 214.652344 C 145.859375 212.722656 147.449219 220.246094 152.085938 214.652344 " fill-opacity="1" fill-rule="nonzero"/><path fill="#231f20" d="M 272.804688 196.171875 C 275.402344 184.050781 261.375 188.347656 272.804688 196.171875 " fill-opacity="1" fill-rule="nonzero"/><path fill="#231f20" d="M 182.503906 217.378906 C 186.507812 212.902344 179.566406 211.355469 182.503906 217.378906 " fill-opacity="1" fill-rule="nonzero"/><path fill="#231f20" d="M 323.652344 216.667969 C 327.660156 212.1875 320.722656 210.640625 323.652344 216.667969 " fill-opacity="1" fill-rule="nonzero"/><path fill="#231f20" d="M 273.300781 205.675781 C 272.144531 199.785156 266.714844 204.371094 273.300781 205.675781 " fill-opacity="1" fill-rule="nonzero"/><path fill="#231f20" d="M 239.25 216.105469 C 241.496094 205.617188 229.359375 209.34375 239.25 216.105469 " fill-opacity="1" fill-rule="nonzero"/><path fill="#231f20" d="M 284.636719 189.355469 C 286.875 178.867188 274.742188 182.597656 284.636719 189.355469 " fill-opacity="1" fill-rule="nonzero"/><path fill="#231f20" d="M 229.929688 181.472656 C 230.011719 189.871094 238.648438 184.953125 229.929688 181.472656 " fill-opacity="1" fill-rule="nonzero"/><path fill="#231f20" d="M 212.164062 192.058594 C 216.164062 187.574219 209.226562 186.03125 212.164062 192.058594 " fill-opacity="1" fill-rule="nonzero"/><path fill="#231f20" d="M 172.265625 217.972656 C 160.308594 214.628906 170.648438 204.238281 172.265625 217.972656 " fill-opacity="1" fill-rule="nonzero"/><path fill="#231f20" d="M 196.359375 229.308594 C 190.082031 227.558594 195.511719 222.101562 196.359375 229.308594 " fill-opacity="1" fill-rule="nonzero"/><path fill="#231f20" d="M 223.160156 200.777344 C 216.882812 199.023438 222.3125 193.566406 223.160156 200.777344 " fill-opacity="1" fill-rule="nonzero"/><path fill="#231f20" d="M 167.058594 191.503906 C 160.78125 189.75 166.210938 184.292969 167.058594 191.503906 " fill-opacity="1" fill-rule="nonzero"/><path fill="#231f20" d="M 206.527344 204.214844 C 204.769531 196 214.277344 198.921875 206.527344 204.214844 " fill-opacity="1" fill-rule="nonzero"/><path fill="#231f20" d="M 183.75 186.113281 C 183.667969 194.507812 175.027344 189.59375 183.75 186.113281 " fill-opacity="1" fill-rule="nonzero"/><path fill="#231f20" d="M 230.105469 226.65625 C 226.097656 222.171875 233.039062 220.628906 230.105469 226.65625 " fill-opacity="1" fill-rule="nonzero"/><path fill="#231f20" d="M 296.265625 213.21875 C 284.304688 216.5625 294.644531 226.953125 296.265625 213.21875 " fill-opacity="1" fill-rule="nonzero"/><path fill="#231f20" d="M 285.699219 201.878906 C 279.421875 203.636719 284.851562 209.089844 285.699219 201.878906 " fill-opacity="1" fill-rule="nonzero"/><path fill="#231f20" d="M 262.832031 208.65625 C 256.550781 210.410156 261.984375 215.867188 262.832031 208.65625 " fill-opacity="1" fill-rule="nonzero"/><path fill="#231f20" d="M 252.625 220.914062 C 250.871094 229.128906 260.371094 226.207031 252.625 220.914062 " fill-opacity="1" fill-rule="nonzero"/><path fill="#231f20" d="M 247.625 201.65625 C 245.863281 209.871094 255.371094 206.945312 247.625 201.65625 " fill-opacity="1" fill-rule="nonzero"/><path fill="#231f20" d="M 178.296875 199.15625 C 176.539062 207.371094 186.046875 204.449219 178.296875 199.15625 " fill-opacity="1" fill-rule="nonzero"/><path fill="#231f20" d="M 301.582031 196.304688 C 299.828125 204.519531 309.328125 201.59375 301.582031 196.304688 " fill-opacity="1" fill-rule="nonzero"/><path fill="#231f20" d="M 265.222656 235.09375 C 265.140625 226.691406 256.507812 231.613281 265.222656 235.09375 " fill-opacity="1" fill-rule="nonzero"/><path fill="#231f20" d="M 216.160156 209.507812 C 225.320312 217.878906 228.699219 203.625 216.160156 209.507812 " fill-opacity="1" fill-rule="nonzero"/><path fill="#231f20" d="M 143.914062 206.527344 C 137.785156 208.75 143.609375 213.78125 143.914062 206.527344 " fill-opacity="1" fill-rule="nonzero"/><path fill="#231f20" d="M 164.195312 223.605469 C 158.0625 225.824219 163.882812 230.859375 164.195312 223.605469 " fill-opacity="1" fill-rule="nonzero"/><path fill="#231f20" d="M 136.917969 219.695312 C 127.152344 212.027344 124.851562 226.496094 136.917969 219.695312 " fill-opacity="1" fill-rule="nonzero"/><path fill="#231f20" d="M 243.132812 231.203125 C 247.53125 227.105469 240.765625 224.9375 243.132812 231.203125 " fill-opacity="1" fill-rule="nonzero"/><path fill="#231f20" d="M 245.410156 194.480469 C 253.324219 191.628906 245.824219 185.121094 245.410156 194.480469 " fill-opacity="1" fill-rule="nonzero"/><path fill="#231f20" d="M 208.121094 182.089844 C 198.960938 173.722656 195.582031 187.972656 208.121094 182.089844 " fill-opacity="1" fill-rule="nonzero"/><path fill="#231f20" d="M 157.074219 199.257812 C 149.152344 202.113281 156.660156 208.621094 157.074219 199.257812 " fill-opacity="1" fill-rule="nonzero"/><path fill="#231f20" d="M 213.835938 239.894531 C 220.9375 235.386719 212.195312 230.667969 213.835938 239.894531 " fill-opacity="1" fill-rule="nonzero"/><path fill="#231f20" d="M 314.253906 228.835938 C 321.351562 224.332031 312.609375 219.613281 314.253906 228.835938 " fill-opacity="1" fill-rule="nonzero"/><path fill="#231f20" d="M 263.867188 184.253906 C 270.96875 179.75 262.222656 175.027344 263.867188 184.253906 " fill-opacity="1" fill-rule="nonzero"/><path fill="#231f20" d="M 276.203125 212.386719 C 272.199219 216.863281 279.136719 218.410156 276.203125 212.386719 " fill-opacity="1" fill-rule="nonzero"/><path fill="#231f20" d="M 308.007812 210.601562 C 304.003906 215.082031 310.941406 216.625 308.007812 210.601562 " fill-opacity="1" fill-rule="nonzero"/></svg>