<svg xmlns="http://www.w3.org/2000/svg" xmlns:xlink="http://www.w3.org/1999/xlink" width="500" zoomAndPan="magnify" viewBox="0 0 375 374.999991" height="500" preserveAspectRatio="xMidYMid meet" version="1.0"><defs><clipPath id="57fe812a4a"><path d="M 125.074219 39.425781 L 249.558594 39.425781 L 249.558594 337.761719 L 125.074219 337.761719 Z M 125.074219 39.425781 " clip-rule="nonzero"/></clipPath><clipPath id="aa4e9cf6ce"><path d="M 37.5 173.484375 L 139.5 173.484375 L 139.5 275.484375 L 37.5 275.484375 Z M 37.5 173.484375 " clip-rule="nonzero"/></clipPath></defs><g clip-path="url(#57fe812a4a)"><path fill="#231f20" d="M 125.46875 129.578125 C 127.085938 145.539062 132.683594 155.644531 141.4375 164.507812 C 163.589844 186.933594 181.929688 185.4375 182.886719 225.027344 C 183.105469 251.167969 183.0625 305.1875 175.992188 314.621094 C 166.953125 315.097656 149.1875 316.777344 141.222656 321.789062 C 138.433594 323.597656 138.9375 329.03125 140.96875 330.386719 C 148.363281 335.304688 167.839844 337.765625 187.316406 337.761719 C 206.792969 337.765625 226.269531 335.304688 233.664062 330.386719 C 235.699219 329.03125 236.195312 323.597656 233.414062 321.789062 C 225.445312 316.777344 207.675781 315.097656 198.640625 314.621094 C 191.570312 305.1875 191.527344 251.167969 191.75 225.027344 C 192.703125 185.4375 211.046875 186.933594 233.195312 164.507812 C 241.945312 155.644531 247.550781 145.539062 249.164062 129.578125 C 251.804688 103.480469 240.644531 69.226562 231.8125 45.097656 C 230.933594 42.058594 225.226562 41.394531 221.652344 41.039062 C 215.117188 40.382812 208.4375 39.9375 201.691406 39.691406 C 192.160156 39.339844 182.472656 39.339844 172.941406 39.691406 C 166.195312 39.9375 159.511719 40.382812 152.980469 41.039062 C 149.402344 41.394531 143.695312 42.058594 142.820312 45.097656 C 133.988281 69.226562 122.828125 103.480469 125.46875 129.578125 " fill-opacity="1" fill-rule="nonzero"/></g><path fill="#d8e2e7" d="M 148.28125 43.726562 C 155.523438 44.878906 170.28125 45.667969 187.316406 45.667969 C 204.351562 45.667969 219.109375 44.878906 226.351562 43.726562 C 219.023438 42.679688 204.296875 41.96875 187.316406 41.96875 C 170.335938 41.96875 155.609375 42.679688 148.28125 43.726562 " fill-opacity="1" fill-rule="nonzero"/><path fill="#d8e2e7" d="M 143.832031 329.570312 C 139.957031 327.519531 141.371094 325.371094 143.734375 326.714844 C 147.691406 328.761719 155.398438 329.996094 162.070312 330.789062 C 178.058594 332.691406 196.570312 332.691406 212.5625 330.789062 C 219.230469 329.996094 226.9375 328.761719 230.898438 326.714844 C 233.265625 325.371094 234.675781 327.519531 230.800781 329.570312 C 215.835938 337.5 158.796875 337.5 143.832031 329.570312 " fill-opacity="1" fill-rule="nonzero"/><path fill="#d8e2e7" d="M 128.609375 105.136719 C 131.46875 83.894531 139.425781 62.097656 145.707031 44.886719 C 161.183594 48.703125 213.449219 48.703125 228.925781 44.886719 C 236.285156 65.058594 245.953125 91.53125 247.007812 116.023438 C 238.695312 119.285156 224.757812 114.988281 207.296875 110.277344 C 182.8125 103.679688 153.585938 96.359375 128.609375 105.136719 " fill-opacity="1" fill-rule="nonzero"/><path fill="#000000" d="M 203.585938 182.273438 C 192.027344 186.992188 182.601562 186.992188 171.046875 182.273438 C 158 176.941406 140.402344 163.003906 134.027344 150.558594 C 127.511719 137.84375 126.507812 122.722656 128.347656 107.214844 C 153.371094 98.292969 182.726562 105.644531 207.296875 112.265625 C 224.800781 116.984375 238.78125 121.269531 247.074219 117.957031 C 247.355469 129.632812 245.601562 140.804688 240.601562 150.558594 C 234.230469 163.003906 216.636719 176.941406 203.585938 182.273438 " fill-opacity="1" fill-rule="nonzero"/><path fill="#d8e2e7" d="M 171.578125 184.777344 C 183.039062 188.269531 191.59375 188.269531 203.054688 184.777344 C 204.109375 184.453125 204.6875 184.472656 204.855469 184.757812 C 193.695312 195.339844 189.589844 205.597656 189.382812 227.121094 C 189.140625 251.984375 189.382812 292.101562 193.761719 308.847656 C 195.195312 314.3125 198.410156 320.671875 204.519531 321.917969 C 203.320312 320.90625 201.699219 319.148438 200.113281 316.890625 C 208.265625 317.410156 222.667969 318.914062 230.117188 322.476562 C 231.621094 323.199219 231.03125 324.34375 229.847656 324.976562 C 215.96875 332.394531 158.664062 332.394531 144.78125 324.976562 C 143.601562 324.34375 143.011719 323.199219 144.515625 322.476562 C 151.964844 318.914062 166.363281 317.410156 174.519531 316.890625 C 172.929688 319.148438 171.3125 320.90625 170.113281 321.917969 C 176.222656 320.671875 179.4375 314.3125 180.867188 308.847656 C 185.25 292.101562 185.492188 251.984375 185.25 227.121094 C 185.039062 205.597656 180.9375 195.339844 169.773438 184.757812 C 169.945312 184.472656 170.523438 184.453125 171.578125 184.777344 " fill-opacity="1" fill-rule="nonzero"/><path fill="#d8e2e7" d="M 183.449219 181.894531 C 211.246094 183.238281 245.839844 150.410156 242.414062 123.636719 C 237.140625 151.207031 211.574219 180.269531 183.449219 181.894531 " fill-opacity="1" fill-rule="nonzero"/><path fill="#475d64" d="M 96.628906 224.539062 L 138.179688 266.199219 L 130.050781 274.34375 L 88.5 232.6875 L 46.949219 274.34375 L 38.820312 266.199219 L 80.371094 224.539062 L 38.820312 182.882812 L 46.949219 174.734375 L 88.5 216.394531 L 130.050781 174.734375 L 138.179688 182.882812 Z M 96.628906 224.539062 " fill-opacity="1" fill-rule="nonzero"/><g clip-path="url(#aa4e9cf6ce)"><path fill="#000000" d="M 130.050781 275.484375 C 129.761719 275.484375 129.46875 275.371094 129.246094 275.152344 L 88.5 234.300781 L 47.753906 275.152344 C 47.539062 275.363281 47.25 275.484375 46.949219 275.484375 C 46.648438 275.484375 46.359375 275.363281 46.144531 275.152344 L 38.019531 267.003906 C 37.574219 266.558594 37.574219 265.839844 38.019531 265.390625 L 78.765625 224.539062 L 38.019531 183.691406 C 37.574219 183.246094 37.574219 182.527344 38.019531 182.078125 L 46.144531 173.929688 C 46.359375 173.71875 46.648438 173.597656 46.949219 173.597656 C 47.25 173.597656 47.539062 173.71875 47.753906 173.929688 L 88.5 214.78125 L 129.246094 173.929688 C 129.691406 173.488281 130.410156 173.488281 130.855469 173.929688 L 138.980469 182.078125 C 139.425781 182.523438 139.425781 183.242188 138.980469 183.691406 L 98.234375 224.539062 L 138.980469 265.390625 C 139.195312 265.605469 139.3125 265.894531 139.3125 266.199219 C 139.3125 266.5 139.195312 266.789062 138.980469 267.003906 L 130.855469 275.152344 C 130.632812 275.371094 130.339844 275.484375 130.050781 275.484375 Z M 88.5 231.550781 C 88.789062 231.550781 89.082031 231.660156 89.304688 231.882812 L 130.050781 272.734375 L 136.570312 266.199219 L 95.824219 225.347656 C 95.609375 225.132812 95.492188 224.84375 95.492188 224.539062 C 95.492188 224.238281 95.609375 223.949219 95.824219 223.734375 L 136.570312 182.882812 L 130.050781 176.347656 L 89.304688 217.199219 C 88.859375 217.640625 88.140625 217.640625 87.695312 217.199219 L 46.949219 176.347656 L 40.429688 182.882812 L 81.175781 223.734375 C 81.617188 224.179688 81.617188 224.898438 81.175781 225.347656 L 40.429688 266.199219 L 46.949219 272.734375 L 87.695312 231.882812 C 87.917969 231.660156 88.210938 231.550781 88.5 231.550781 Z M 88.5 231.550781 " fill-opacity="1" fill-rule="nonzero"/></g></svg>