<svg xmlns="http://www.w3.org/2000/svg" xmlns:xlink="http://www.w3.org/1999/xlink" width="40" zoomAndPan="magnify" viewBox="0 0 30 30.000001" height="40" preserveAspectRatio="xMidYMid meet" version="1.0"><defs><filter x="0%" y="0%" width="100%" height="100%" id="e4e5c4f2d3"><feColorMatrix values="0 0 0 0 1 0 0 0 0 1 0 0 0 0 1 0 0 0 1 0" color-interpolation-filters="sRGB"/></filter><clipPath id="2014b92c51"><path d="M 9 5.113281 L 17 5.113281 L 17 21 L 9 21 Z M 9 5.113281 " clip-rule="nonzero"/></clipPath><clipPath id="e6c8a91e82"><path d="M 13 5.113281 L 21 5.113281 L 21 21 L 13 21 Z M 13 5.113281 " clip-rule="nonzero"/></clipPath><clipPath id="db8c155e9f"><path d="M 1.246094 12 L 16 12 L 16 21 L 1.246094 21 Z M 1.246094 12 " clip-rule="nonzero"/></clipPath><clipPath id="a89cd91e48"><path d="M 15 12 L 28.828125 12 L 28.828125 21 L 15 21 Z M 15 12 " clip-rule="nonzero"/></clipPath><clipPath id="3d6a0eeaa3"><path d="M 1.246094 12 L 16 12 L 16 21.078125 L 1.246094 21.078125 Z M 1.246094 12 " clip-rule="nonzero"/></clipPath><clipPath id="8e5939623c"><path d="M 14 12 L 28.828125 12 L 28.828125 21.078125 L 14 21.078125 Z M 14 12 " clip-rule="nonzero"/></clipPath><mask id="ca78f58c4f"><g filter="url(#e4e5c4f2d3)"><rect x="-3" width="36" fill="#000000" y="-3" height="36.000001" fill-opacity="0.298"/></g></mask><clipPath id="4434ecd5da"><path d="M 1 1 L 9.8125 1 L 9.8125 14.4375 L 1 14.4375 Z M 1 1 " clip-rule="nonzero"/></clipPath><clipPath id="2b40c46e40"><rect x="0" width="10" y="0" height="15"/></clipPath><mask id="fba3651f3e"><g filter="url(#e4e5c4f2d3)"><rect x="-3" width="36" fill="#000000" y="-3" height="36.000001" fill-opacity="0.298"/></g></mask><clipPath id="341aba081b"><path d="M 0.417969 1 L 9 1 L 9 14.4375 L 0.417969 14.4375 Z M 0.417969 1 " clip-rule="nonzero"/></clipPath><clipPath id="39e5eb6faa"><rect x="0" width="10" y="0" height="15"/></clipPath><clipPath id="3374dbe708"><path d="M 11 5.113281 L 19 5.113281 L 19 21 L 11 21 Z M 11 5.113281 " clip-rule="nonzero"/></clipPath></defs><path fill="#e0e1f8" d="M 11.1875 6.277344 C 11.1875 6.277344 6.796875 16.015625 14.574219 20.007812 C 19.570312 12.722656 11.1875 6.277344 11.1875 6.277344 Z M 11.1875 6.277344 " fill-opacity="1" fill-rule="nonzero"/><path fill="#e0e1f8" d="M 19.167969 6.277344 C 19.167969 6.277344 23.5625 16.015625 15.78125 20.007812 C 10.785156 12.722656 19.167969 6.277344 19.167969 6.277344 Z M 19.167969 6.277344 " fill-opacity="1" fill-rule="nonzero"/><g clip-path="url(#2014b92c51)"><path fill="#000000" d="M 10.957031 6.136719 C 10.640625 6.84375 10.40625 7.59375 10.210938 8.34375 C 9.789062 9.933594 9.582031 11.609375 9.734375 13.253906 C 9.855469 14.605469 10.242188 15.929688 10.949219 17.097656 C 11.777344 18.464844 13.03125 19.515625 14.445312 20.25 C 14.585938 20.324219 14.738281 20.28125 14.828125 20.148438 C 16.210938 18.113281 16.773438 15.714844 16.238281 13.300781 C 15.8125 11.394531 14.769531 9.667969 13.523438 8.183594 C 12.890625 7.425781 12.183594 6.683594 11.398438 6.078125 C 11.117188 5.863281 10.71875 6.253906 11 6.472656 C 11.738281 7.039062 12.394531 7.726562 13 8.425781 C 14.25 9.875 15.265625 11.574219 15.699219 13.449219 C 16.21875 15.710938 15.636719 17.96875 14.34375 19.867188 C 14.472656 19.835938 14.597656 19.800781 14.726562 19.769531 C 12.792969 18.765625 11.308594 17.175781 10.65625 15.089844 C 10.128906 13.410156 10.152344 11.59375 10.445312 9.871094 C 10.59375 9.019531 10.808594 8.179688 11.085938 7.359375 C 11.167969 7.113281 11.257812 6.871094 11.351562 6.632812 C 11.367188 6.59375 11.382812 6.554688 11.398438 6.515625 C 11.40625 6.492188 11.453125 6.378906 11.410156 6.488281 C 11.417969 6.464844 11.429688 6.441406 11.441406 6.414062 C 11.585938 6.089844 11.105469 5.808594 10.957031 6.136719 Z M 10.957031 6.136719 " fill-opacity="1" fill-rule="nonzero"/></g><g clip-path="url(#e6c8a91e82)"><path fill="#000000" d="M 18.9375 6.417969 C 18.945312 6.429688 18.949219 6.441406 18.953125 6.453125 C 18.964844 6.476562 18.992188 6.539062 18.949219 6.441406 C 18.960938 6.464844 18.972656 6.492188 18.980469 6.515625 C 19.042969 6.667969 19.101562 6.816406 19.15625 6.96875 C 19.347656 7.492188 19.511719 8.027344 19.652344 8.570312 C 20.0625 10.164062 20.25 11.828125 20.0625 13.472656 C 19.925781 14.6875 19.535156 15.875 18.886719 16.917969 C 18.105469 18.160156 16.949219 19.097656 15.652344 19.769531 C 15.78125 19.800781 15.90625 19.835938 16.035156 19.867188 C 15.300781 18.789062 14.773438 17.601562 14.566406 16.308594 C 14.394531 15.234375 14.492188 14.128906 14.773438 13.082031 C 15.261719 11.257812 16.320312 9.613281 17.566406 8.210938 C 18.121094 7.589844 18.71875 6.980469 19.378906 6.472656 C 19.660156 6.253906 19.261719 5.863281 18.980469 6.078125 C 18.246094 6.644531 17.585938 7.332031 16.984375 8.03125 C 15.722656 9.492188 14.6875 11.183594 14.203125 13.054688 C 13.558594 15.53125 14.125 18.050781 15.550781 20.148438 C 15.640625 20.28125 15.792969 20.324219 15.933594 20.25 C 17.890625 19.234375 19.410156 17.636719 20.15625 15.558594 C 20.765625 13.847656 20.792969 11.984375 20.546875 10.203125 C 20.351562 8.824219 19.996094 7.414062 19.421875 6.136719 C 19.273438 5.808594 18.792969 6.09375 18.9375 6.417969 Z M 18.9375 6.417969 " fill-opacity="1" fill-rule="nonzero"/></g><g clip-path="url(#db8c155e9f)"><path fill="#e0e1f8" d="M 1.578125 12.765625 C 1.578125 12.765625 6.117188 23.414062 15.035156 20.207031 C 12.898438 10.886719 1.578125 12.765625 1.578125 12.765625 Z M 1.578125 12.765625 " fill-opacity="1" fill-rule="nonzero"/></g><g clip-path="url(#a89cd91e48)"><path fill="#e0e1f8" d="M 28.496094 12.765625 C 28.496094 12.765625 23.957031 23.414062 15.035156 20.207031 C 17.171875 10.886719 28.496094 12.765625 28.496094 12.765625 Z M 28.496094 12.765625 " fill-opacity="1" fill-rule="nonzero"/></g><g clip-path="url(#3d6a0eeaa3)"><path fill="#000000" d="M 1.335938 12.90625 C 1.605469 13.535156 1.949219 14.140625 2.304688 14.722656 C 3.109375 16.035156 4.074219 17.269531 5.210938 18.316406 C 6.410156 19.417969 7.820312 20.300781 9.394531 20.753906 C 11.277344 21.300781 13.277344 21.125 15.109375 20.472656 C 15.257812 20.421875 15.34375 20.289062 15.304688 20.132812 C 14.839844 18.132812 13.84375 16.28125 12.261719 14.941406 C 10.941406 13.828125 9.324219 13.128906 7.648438 12.738281 C 5.679688 12.285156 3.507812 12.167969 1.503906 12.5 C 1.148438 12.558594 1.300781 13.09375 1.652344 13.035156 C 1.695312 13.027344 1.738281 13.019531 1.78125 13.015625 C 1.84375 13.007812 1.703125 13.027344 1.789062 13.015625 C 1.816406 13.011719 1.84375 13.007812 1.871094 13.003906 C 1.949219 12.996094 2.023438 12.988281 2.097656 12.980469 C 2.550781 12.933594 3.003906 12.90625 3.453125 12.894531 C 4.859375 12.859375 6.273438 12.980469 7.644531 13.308594 C 9.191406 13.679688 10.6875 14.339844 11.90625 15.371094 C 13.40625 16.636719 14.328125 18.390625 14.765625 20.28125 C 14.832031 20.164062 14.898438 20.050781 14.960938 19.9375 C 12.945312 20.65625 10.808594 20.742188 8.792969 19.96875 C 7.144531 19.332031 5.734375 18.175781 4.574219 16.867188 C 3.464844 15.625 2.476562 14.164062 1.816406 12.625 C 1.679688 12.296875 1.195312 12.582031 1.335938 12.90625 Z M 1.335938 12.90625 " fill-opacity="1" fill-rule="nonzero"/></g><g clip-path="url(#8e5939623c)"><path fill="#000000" d="M 28.253906 12.625 C 27.984375 13.253906 27.640625 13.859375 27.285156 14.441406 C 26.484375 15.746094 25.527344 16.960938 24.390625 17.992188 C 23.265625 19.011719 21.941406 19.820312 20.472656 20.234375 C 18.695312 20.734375 16.835938 20.550781 15.109375 19.9375 C 15.175781 20.050781 15.242188 20.164062 15.304688 20.28125 C 15.769531 18.289062 16.765625 16.492188 18.375 15.199219 C 19.683594 14.144531 21.308594 13.527344 22.945312 13.195312 C 24.207031 12.9375 25.5 12.859375 26.785156 12.898438 C 27.195312 12.910156 27.605469 12.9375 28.011719 12.984375 C 28.078125 12.988281 28.148438 12.996094 28.214844 13.003906 C 28.242188 13.007812 28.269531 13.011719 28.296875 13.015625 C 28.367188 13.023438 28.21875 13.003906 28.300781 13.015625 C 28.339844 13.023438 28.382812 13.027344 28.421875 13.035156 C 28.773438 13.09375 28.925781 12.558594 28.570312 12.5 C 26.578125 12.167969 24.433594 12.289062 22.46875 12.730469 C 20.789062 13.105469 19.183594 13.808594 17.855469 14.90625 C 16.261719 16.21875 15.257812 18.078125 14.785156 20.0625 C 14.777344 20.085938 14.773438 20.109375 14.765625 20.132812 C 14.730469 20.289062 14.8125 20.421875 14.960938 20.472656 C 16.988281 21.195312 19.175781 21.304688 21.21875 20.582031 C 22.921875 19.976562 24.398438 18.863281 25.625 17.554688 C 26.882812 16.214844 28.011719 14.605469 28.738281 12.90625 C 28.875 12.582031 28.394531 12.296875 28.253906 12.625 Z M 28.253906 12.625 " fill-opacity="1" fill-rule="nonzero"/></g><path fill="#e0e1f8" d="M 7.269531 7.058594 C 7.269531 7.058594 5.765625 18.527344 15.089844 20.257812 C 17.988281 11.144531 7.269531 7.058594 7.269531 7.058594 Z M 7.269531 7.058594 " fill-opacity="1" fill-rule="nonzero"/><path fill="#e0e1f8" d="M 22.871094 7.058594 C 22.871094 7.058594 24.375 18.527344 15.050781 20.257812 C 12.152344 11.144531 22.871094 7.058594 22.871094 7.058594 Z M 22.871094 7.058594 " fill-opacity="1" fill-rule="nonzero"/><g mask="url(#ca78f58c4f)"><g transform="matrix(1, 0, 0, 1, 6, 6)"><g clip-path="url(#2b40c46e40)"><g clip-path="url(#4434ecd5da)"><path fill="#ffffff" d="M 1.269531 1.058594 C 1.269531 1.058594 -0.234375 12.527344 9.089844 14.257812 C 11.988281 5.144531 1.269531 1.058594 1.269531 1.058594 Z M 1.269531 1.058594 " fill-opacity="1" fill-rule="nonzero"/></g></g></g></g><g mask="url(#fba3651f3e)"><g transform="matrix(1, 0, 0, 1, 14, 6)"><g clip-path="url(#39e5eb6faa)"><g clip-path="url(#341aba081b)"><path fill="#ffffff" d="M 8.871094 1.058594 C 8.871094 1.058594 10.375 12.527344 1.050781 14.257812 C -1.847656 5.144531 8.871094 1.058594 8.871094 1.058594 Z M 8.871094 1.058594 " fill-opacity="1" fill-rule="nonzero"/></g></g></g></g><path fill="#000000" d="M 6.992188 7.132812 C 6.734375 9.113281 6.925781 11.234375 7.414062 13.160156 C 7.832031 14.804688 8.566406 16.382812 9.683594 17.675781 C 11.003906 19.199219 12.84375 20.152344 14.808594 20.558594 C 14.875 20.574219 14.945312 20.585938 15.015625 20.597656 C 15.167969 20.628906 15.3125 20.558594 15.359375 20.40625 C 16 18.371094 16.058594 16.191406 15.296875 14.179688 C 14.667969 12.515625 13.546875 11.082031 12.226562 9.902344 C 10.816406 8.640625 9.121094 7.546875 7.34375 6.867188 C 7.007812 6.738281 6.863281 7.273438 7.195312 7.402344 C 7.242188 7.417969 7.285156 7.4375 7.328125 7.457031 C 7.386719 7.480469 7.261719 7.425781 7.34375 7.460938 C 7.371094 7.472656 7.398438 7.484375 7.429688 7.5 C 7.503906 7.53125 7.578125 7.5625 7.652344 7.597656 C 8.09375 7.800781 8.527344 8.023438 8.953125 8.261719 C 10.257812 8.996094 11.476562 9.886719 12.523438 10.953125 C 13.59375 12.046875 14.457031 13.347656 14.925781 14.804688 C 15.496094 16.589844 15.378906 18.484375 14.820312 20.257812 L 15.164062 20.0625 C 13.179688 19.6875 11.375 18.777344 10.046875 17.242188 C 8.949219 15.976562 8.285156 14.390625 7.894531 12.777344 C 7.460938 10.96875 7.308594 8.984375 7.550781 7.132812 C 7.597656 6.78125 7.039062 6.785156 6.992188 7.132812 Z M 6.992188 7.132812 " fill-opacity="1" fill-rule="nonzero"/><path fill="#000000" d="M 22.589844 7.132812 C 22.847656 9.097656 22.664062 11.199219 22.164062 13.105469 C 21.757812 14.65625 21.066406 16.152344 19.992188 17.363281 C 18.683594 18.835938 16.898438 19.703125 14.976562 20.0625 C 15.089844 20.128906 15.207031 20.191406 15.320312 20.257812 C 14.683594 18.230469 14.65625 16.105469 15.464844 14.121094 C 16.121094 12.515625 17.292969 11.152344 18.609375 10.035156 C 19.519531 9.265625 20.527344 8.609375 21.582031 8.046875 C 21.917969 7.871094 22.253906 7.703125 22.597656 7.550781 C 22.65625 7.523438 22.714844 7.5 22.769531 7.472656 C 22.878906 7.425781 22.746094 7.484375 22.839844 7.445312 C 22.875 7.429688 22.910156 7.414062 22.945312 7.402344 C 23.277344 7.273438 23.132812 6.738281 22.796875 6.867188 C 20.789062 7.632812 18.882812 8.917969 17.367188 10.417969 C 16.191406 11.582031 15.238281 12.976562 14.710938 14.550781 C 14.074219 16.453125 14.183594 18.507812 14.78125 20.40625 C 14.832031 20.558594 14.972656 20.628906 15.125 20.601562 C 17.121094 20.222656 18.976562 19.304688 20.351562 17.796875 C 21.503906 16.527344 22.25 14.941406 22.691406 13.296875 C 23.058594 11.925781 23.222656 10.492188 23.238281 9.070312 C 23.246094 8.429688 23.230469 7.777344 23.152344 7.136719 C 23.152344 7.136719 23.152344 7.136719 23.152344 7.132812 C 23.105469 6.785156 22.546875 6.78125 22.59375 7.136719 Z M 22.589844 7.132812 " fill-opacity="1" fill-rule="nonzero"/><g clip-path="url(#3374dbe708)"><path fill="#e0e1f8" d="M 15.070312 5.230469 C 15.070312 5.230469 7.921875 14.347656 15.070312 20.550781 C 22.21875 14.164062 15.070312 5.230469 15.070312 5.230469 Z M 15.070312 5.230469 " fill-opacity="1" fill-rule="nonzero"/><path fill="#000000" d="M 14.875 5.207031 C 14.289062 5.957031 13.800781 6.785156 13.363281 7.621094 C 12.449219 9.367188 11.796875 11.269531 11.644531 13.242188 C 11.539062 14.554688 11.703125 15.890625 12.164062 17.128906 C 12.714844 18.609375 13.6875 19.886719 14.875 20.921875 C 14.992188 21.027344 15.148438 21.027344 15.269531 20.921875 C 17.1875 19.195312 18.402344 16.90625 18.519531 14.3125 C 18.613281 12.246094 18.019531 10.195312 17.152344 8.335938 C 16.644531 7.242188 16.027344 6.15625 15.269531 5.207031 C 15.042969 4.929688 14.652344 5.324219 14.875 5.601562 C 14.917969 5.65625 14.832031 5.550781 14.867188 5.59375 C 14.902344 5.636719 14.933594 5.683594 14.96875 5.730469 C 15.089844 5.890625 15.203125 6.058594 15.316406 6.222656 C 15.703125 6.796875 16.054688 7.394531 16.371094 8.007812 C 17.285156 9.773438 17.917969 11.722656 17.964844 13.71875 C 17.992188 14.886719 17.789062 16.046875 17.355469 17.132812 C 16.828125 18.449219 15.921875 19.585938 14.875 20.527344 L 15.269531 20.527344 C 14.257812 19.644531 13.417969 18.597656 12.863281 17.375 C 12.398438 16.34375 12.1875 15.210938 12.171875 14.085938 C 12.148438 12.078125 12.765625 10.097656 13.640625 8.308594 C 13.972656 7.625 14.351562 6.960938 14.765625 6.324219 C 14.890625 6.132812 15.019531 5.941406 15.15625 5.753906 C 15.191406 5.707031 15.226562 5.65625 15.265625 5.605469 C 15.285156 5.578125 15.355469 5.492188 15.269531 5.601562 C 15.488281 5.324219 15.09375 4.925781 14.875 5.207031 Z M 14.875 5.207031 " fill-opacity="1" fill-rule="nonzero"/></g></svg>