<svg xmlns="http://www.w3.org/2000/svg" xmlns:xlink="http://www.w3.org/1999/xlink" width="40" zoomAndPan="magnify" viewBox="0 0 30 30.000001" height="40" preserveAspectRatio="xMidYMid meet" version="1.0"><defs><clipPath id="92bae1cf56"><path d="M 2.285156 1.585938 L 28.414062 1.585938 L 28.414062 27.714844 L 2.285156 27.714844 Z M 2.285156 1.585938 " clip-rule="nonzero"/></clipPath></defs><g clip-path="url(#92bae1cf56)"><path fill="#000000" d="M 25.398438 7.613281 C 25.398438 7.613281 7.953125 7.613281 4.945312 7.613281 C 4.066406 7.613281 3.28125 7.4375 3.28125 6.609375 L 25.398438 5.605469 L 25.398438 3.59375 C 25.398438 1.929688 24.050781 1.585938 22.386719 1.585938 L 4.316406 4.597656 C 2.707031 4.957031 2.285156 5.640625 2.285156 6.609375 L 2.285156 24.699219 C 2.285156 26.363281 3.636719 27.714844 5.300781 27.714844 L 25.398438 27.714844 C 27.0625 27.714844 28.414062 26.363281 28.414062 24.699219 L 28.414062 10.628906 C 28.414062 8.964844 27.0625 7.613281 25.398438 7.613281 Z M 24.394531 19.671875 C 23.285156 19.671875 22.386719 18.773438 22.386719 17.664062 C 22.386719 16.554688 23.285156 15.652344 24.394531 15.652344 C 25.503906 15.652344 26.40625 16.554688 26.40625 17.664062 C 26.40625 18.773438 25.503906 19.671875 24.394531 19.671875 Z M 24.394531 19.671875 " fill-opacity="1" fill-rule="nonzero"/></g></svg>