<svg xmlns="http://www.w3.org/2000/svg" xmlns:xlink="http://www.w3.org/1999/xlink" width="40" zoomAndPan="magnify" viewBox="0 0 30 30.000001" height="40" preserveAspectRatio="xMidYMid meet" version="1.0"><defs><clipPath id="848d894603"><path d="M 3.386719 1.082031 L 29.515625 1.082031 L 29.515625 27.210938 L 3.386719 27.210938 Z M 3.386719 1.082031 " clip-rule="nonzero"/></clipPath></defs><g clip-path="url(#848d894603)"><path fill="#000000" d="M 26.796875 14.328125 C 26.308594 14.328125 25.855469 14.457031 25.460938 14.683594 C 25.308594 14.769531 25.167969 14.871094 25.035156 14.988281 C 24.664062 15.203125 24.113281 15.410156 23.644531 15.117188 L 23.644531 8.796875 C 23.644531 7.730469 22.785156 6.863281 21.722656 6.863281 L 15.359375 6.863281 C 15.164062 6.449219 15.3125 5.988281 15.496094 5.644531 C 15.949219 5.160156 16.222656 4.507812 16.222656 3.792969 C 16.222656 2.296875 15.019531 1.082031 13.527344 1.082031 C 12.039062 1.082031 10.832031 2.296875 10.832031 3.792969 C 10.832031 4.28125 10.964844 4.738281 11.1875 5.136719 C 11.273438 5.289062 11.375 5.429688 11.488281 5.5625 C 11.691406 5.910156 11.882812 6.414062 11.671875 6.863281 L 5.335938 6.863281 C 4.273438 6.863281 3.410156 7.730469 3.410156 8.796875 L 3.410156 15.117188 C 3.878906 15.410156 4.429688 15.203125 4.800781 14.988281 C 4.929688 14.871094 5.074219 14.769531 5.226562 14.683594 C 5.617188 14.457031 6.074219 14.328125 6.558594 14.328125 C 8.050781 14.328125 9.257812 15.542969 9.257812 17.039062 C 9.257812 18.535156 8.050781 19.75 6.558594 19.75 C 5.847656 19.75 5.203125 19.46875 4.71875 19.015625 C 4.351562 18.820312 3.847656 18.660156 3.410156 18.929688 L 3.410156 25.277344 C 3.410156 26.347656 4.273438 27.214844 5.335938 27.214844 L 11.621094 27.214844 C 11.910156 26.742188 11.703125 26.1875 11.488281 25.816406 C 11.375 25.683594 11.273438 25.542969 11.1875 25.390625 C 10.964844 24.992188 10.832031 24.535156 10.832031 24.046875 C 10.832031 22.546875 12.039062 21.335938 13.527344 21.335938 C 15.019531 21.335938 16.222656 22.546875 16.222656 24.046875 C 16.222656 24.761719 15.949219 25.414062 15.496094 25.898438 C 15.300781 26.265625 15.140625 26.773438 15.410156 27.214844 L 21.722656 27.214844 C 22.785156 27.214844 23.644531 26.347656 23.644531 25.277344 L 23.644531 18.929688 C 24.082031 18.660156 24.585938 18.820312 24.953125 19.015625 C 25.4375 19.46875 26.082031 19.75 26.796875 19.75 C 28.285156 19.75 29.492188 18.535156 29.492188 17.039062 C 29.492188 15.542969 28.285156 14.328125 26.796875 14.328125 " fill-opacity="1" fill-rule="nonzero"/></g></svg>