<svg xmlns="http://www.w3.org/2000/svg" xmlns:xlink="http://www.w3.org/1999/xlink" width="40" zoomAndPan="magnify" viewBox="0 0 30 30.000001" height="40" preserveAspectRatio="xMidYMid meet" version="1.0"><path fill="#dedffe" d="M 20.238281 5.875 C 16.71875 5.410156 12.6875 7.046875 9.871094 10.449219 C 7.058594 13.851562 6.214844 18.109375 7.34375 21.464844 L 6.5 22.484375 C 6.5 22.484375 8.890625 24.332031 9.742188 24.949219 C 14.160156 28.152344 20.222656 27.039062 24.203125 22.226562 C 28.195312 17.398438 28.109375 11.441406 24.316406 7.679688 C 23.542969 6.910156 21.082031 4.855469 21.082031 4.855469 Z M 20.238281 5.875 " fill-opacity="1" fill-rule="nonzero"/><path fill="#112c41" d="M 15.296875 26.964844 C 13.304688 26.964844 11.339844 26.359375 9.621094 25.113281 C 8.777344 24.503906 6.398438 22.664062 6.375 22.644531 C 6.332031 22.613281 6.304688 22.5625 6.296875 22.507812 C 6.292969 22.453125 6.308594 22.398438 6.34375 22.355469 L 7.117188 21.421875 C 5.972656 17.886719 6.964844 13.644531 9.714844 10.320312 C 12.464844 6.996094 16.453125 5.21875 20.152344 5.660156 L 20.925781 4.726562 C 20.960938 4.683594 21.007812 4.660156 21.0625 4.652344 C 21.117188 4.648438 21.171875 4.664062 21.214844 4.699219 C 21.3125 4.785156 23.6875 6.769531 24.460938 7.535156 C 28.390625 11.4375 28.351562 17.53125 24.359375 22.355469 C 21.867188 25.371094 18.539062 26.964844 15.296875 26.964844 Z M 6.789062 22.453125 C 7.347656 22.882812 9.152344 24.273438 9.863281 24.789062 C 14.195312 27.925781 20.160156 26.796875 24.042969 22.097656 C 27.898438 17.441406 27.949219 11.570312 24.171875 7.820312 C 23.527344 7.179688 21.664062 5.609375 21.109375 5.144531 L 20.394531 6.003906 C 20.351562 6.058594 20.28125 6.085938 20.210938 6.078125 C 16.621094 5.601562 12.71875 7.324219 10.027344 10.578125 C 7.339844 13.828125 6.382812 17.976562 7.535156 21.398438 C 7.558594 21.464844 7.546875 21.539062 7.5 21.59375 Z M 6.789062 22.453125 " fill-opacity="1" fill-rule="nonzero"/><path fill="#ffffff" d="M 21.027344 19.617188 C 17.234375 24.203125 11.25 25.613281 7.234375 23.023438 C 6.984375 22.863281 6.746094 22.6875 6.511719 22.496094 C 6.277344 22.304688 6.054688 22.097656 5.851562 21.882812 C 2.539062 18.445312 2.789062 12.324219 6.578125 7.742188 C 10.371094 3.15625 16.351562 1.75 20.371094 4.339844 C 20.621094 4.5 20.859375 4.675781 21.09375 4.867188 C 21.328125 5.058594 21.546875 5.261719 21.753906 5.476562 C 25.066406 8.914062 24.816406 15.035156 21.027344 19.617188 Z M 21.027344 19.617188 " fill-opacity="1" fill-rule="nonzero"/><path fill="#112c41" d="M 11.804688 24.527344 C 10.136719 24.527344 8.527344 24.09375 7.125 23.191406 C 6.878906 23.035156 6.636719 22.859375 6.382812 22.652344 C 6.140625 22.453125 5.910156 22.242188 5.703125 22.023438 C 2.269531 18.457031 2.578125 12.261719 6.421875 7.613281 C 10.269531 2.960938 16.3125 1.480469 20.480469 4.171875 C 20.722656 4.324219 20.96875 4.5 21.222656 4.707031 C 21.464844 4.910156 21.695312 5.121094 21.902344 5.335938 C 25.339844 8.902344 25.03125 15.097656 21.183594 19.746094 C 18.628906 22.835938 15.105469 24.527344 11.804688 24.527344 Z M 15.796875 3.238281 C 12.617188 3.238281 9.210938 4.878906 6.734375 7.871094 C 3.023438 12.359375 2.703125 18.324219 5.996094 21.742188 C 6.195312 21.949219 6.410156 22.148438 6.640625 22.339844 C 6.882812 22.535156 7.113281 22.703125 7.34375 22.851562 C 11.339844 25.429688 17.152344 23.980469 20.871094 19.488281 C 24.585938 15 24.902344 9.035156 21.605469 5.617188 C 21.410156 5.410156 21.195312 5.210938 20.964844 5.023438 C 20.722656 4.824219 20.492188 4.660156 20.261719 4.511719 C 18.925781 3.652344 17.390625 3.238281 15.796875 3.238281 Z M 15.796875 3.238281 " fill-opacity="1" fill-rule="nonzero"/><path fill="#dedffe" d="M 21.753906 5.476562 L 21.730469 5.5 L 7.253906 23.003906 L 7.234375 23.023438 C 6.984375 22.863281 6.746094 22.6875 6.511719 22.496094 C 6.277344 22.304688 6.054688 22.097656 5.851562 21.882812 L 5.875 21.863281 L 20.367188 4.34375 L 20.371094 4.339844 C 20.621094 4.5 20.859375 4.675781 21.09375 4.867188 C 21.328125 5.058594 21.546875 5.261719 21.753906 5.476562 Z M 21.753906 5.476562 " fill-opacity="1" fill-rule="nonzero"/><path fill="#112c41" d="M 7.234375 23.222656 C 7.199219 23.222656 7.160156 23.214844 7.128906 23.191406 C 6.878906 23.035156 6.636719 22.859375 6.382812 22.652344 C 6.140625 22.453125 5.910156 22.242188 5.703125 22.023438 C 5.664062 21.984375 5.644531 21.929688 5.648438 21.871094 C 5.652344 21.816406 5.675781 21.765625 5.71875 21.726562 L 5.730469 21.71875 L 20.210938 4.214844 C 20.214844 4.207031 20.222656 4.203125 20.226562 4.195312 C 20.296875 4.132812 20.398438 4.121094 20.480469 4.167969 C 20.722656 4.324219 20.96875 4.5 21.222656 4.707031 C 21.464844 4.910156 21.695312 5.121094 21.902344 5.335938 C 21.976562 5.417969 21.976562 5.542969 21.898438 5.621094 L 21.875 5.644531 L 7.410156 23.132812 L 7.378906 23.164062 C 7.339844 23.203125 7.289062 23.222656 7.234375 23.222656 Z M 6.128906 21.875 C 6.289062 22.035156 6.460938 22.191406 6.640625 22.339844 C 6.832031 22.492188 7.015625 22.628906 7.199219 22.753906 L 21.476562 5.484375 C 21.316406 5.328125 21.144531 5.171875 20.964844 5.023438 C 20.773438 4.867188 20.59375 4.730469 20.410156 4.609375 Z M 6.128906 21.875 " fill-opacity="1" fill-rule="nonzero"/></svg>