<svg xmlns="http://www.w3.org/2000/svg" xmlns:xlink="http://www.w3.org/1999/xlink" width="40" zoomAndPan="magnify" viewBox="0 0 30 30.000001" height="40" preserveAspectRatio="xMidYMid meet" version="1.0"><defs><clipPath id="f7103648c0"><path d="M 0.484375 5.464844 L 29.515625 5.464844 L 29.515625 23.609375 L 0.484375 23.609375 Z M 0.484375 5.464844 " clip-rule="nonzero"/></clipPath><clipPath id="654758361d"><path d="M 5 11 L 29.515625 11 L 29.515625 23.609375 L 5 23.609375 Z M 5 11 " clip-rule="nonzero"/></clipPath><clipPath id="9d6f5027a3"><path d="M 0.484375 5.464844 L 22 5.464844 L 22 23.609375 L 0.484375 23.609375 Z M 0.484375 5.464844 " clip-rule="nonzero"/></clipPath><clipPath id="d309ec52b5"><path d="M 3 23 L 16 23 L 16 23.609375 L 3 23.609375 Z M 3 23 " clip-rule="nonzero"/></clipPath><clipPath id="6882f4d676"><path d="M 0.484375 17 L 7 17 L 7 23.609375 L 0.484375 23.609375 Z M 0.484375 17 " clip-rule="nonzero"/></clipPath><clipPath id="b9737dbddf"><path d="M 0.484375 16 L 8 16 L 8 23.609375 L 0.484375 23.609375 Z M 0.484375 16 " clip-rule="nonzero"/></clipPath><clipPath id="23fbff5099"><path d="M 15 11 L 29.515625 11 L 29.515625 23.609375 L 15 23.609375 Z M 15 11 " clip-rule="nonzero"/></clipPath></defs><g clip-path="url(#f7103648c0)"><path fill="#dedffe" d="M 29.511719 11.449219 L 19.753906 11.449219 C 19.757812 11.445312 19.757812 11.445312 19.757812 11.445312 C 19.851562 11.367188 19.945312 11.285156 20.03125 11.199219 C 20.632812 10.589844 21.003906 9.753906 21.003906 8.828125 C 21.003906 6.96875 19.5 5.464844 17.644531 5.464844 C 17.375 5.464844 17.113281 5.496094 16.863281 5.554688 C 16.347656 5.679688 15.878906 5.921875 15.488281 6.253906 C 15.488281 6.253906 15.46875 6.269531 15.433594 6.296875 C 15.425781 6.304688 15.417969 6.3125 15.40625 6.320312 C 15.324219 6.386719 15.183594 6.503906 14.988281 6.667969 C 14.960938 6.6875 14.9375 6.707031 14.910156 6.730469 C 14.808594 6.816406 14.691406 6.910156 14.566406 7.015625 C 14.519531 7.050781 14.472656 7.089844 14.425781 7.128906 C 14.382812 7.164062 14.339844 7.203125 14.292969 7.238281 C 14.148438 7.359375 13.992188 7.488281 13.824219 7.628906 C 13.699219 7.730469 13.570312 7.835938 13.433594 7.949219 C 13.375 8 13.308594 8.054688 13.246094 8.105469 C 13.234375 8.117188 13.21875 8.128906 13.207031 8.136719 C 13.097656 8.230469 12.980469 8.324219 12.863281 8.421875 C 12.71875 8.542969 12.566406 8.667969 12.414062 8.796875 C 12.339844 8.855469 12.269531 8.914062 12.195312 8.976562 C 12.128906 9.03125 12.0625 9.085938 11.996094 9.140625 C 11.777344 9.320312 11.550781 9.507812 11.324219 9.695312 C 11.257812 9.75 11.1875 9.808594 11.121094 9.863281 C 11.039062 9.933594 10.953125 10 10.871094 10.070312 C 10.75 10.167969 10.632812 10.269531 10.507812 10.371094 C 10.445312 10.425781 10.378906 10.480469 10.3125 10.535156 C 10.253906 10.582031 10.195312 10.628906 10.140625 10.675781 C 10.074219 10.730469 10.003906 10.785156 9.9375 10.84375 C 9.917969 10.855469 9.902344 10.871094 9.882812 10.886719 C 9.796875 10.960938 9.707031 11.03125 9.621094 11.105469 C 9.558594 11.15625 9.496094 11.207031 9.433594 11.257812 C 9.117188 11.523438 8.792969 11.789062 8.472656 12.054688 C 8.367188 12.140625 8.257812 12.230469 8.152344 12.320312 C 8.046875 12.40625 7.9375 12.496094 7.832031 12.582031 C 7.515625 12.847656 7.199219 13.109375 6.886719 13.367188 C 6.738281 13.488281 6.59375 13.609375 6.449219 13.726562 C 6.390625 13.777344 6.328125 13.828125 6.269531 13.875 C 4.804688 15.089844 3.503906 16.164062 2.683594 16.84375 C 2.625 16.890625 2.574219 16.933594 2.519531 16.976562 C 2.496094 17 2.46875 17.019531 2.445312 17.039062 C 2.394531 17.082031 2.347656 17.121094 2.304688 17.15625 C 2.28125 17.175781 2.261719 17.191406 2.238281 17.210938 C 2.132812 17.296875 2.046875 17.371094 1.976562 17.425781 C 1.949219 17.449219 1.921875 17.472656 1.898438 17.492188 C 1.820312 17.554688 1.78125 17.589844 1.78125 17.589844 C 1.773438 17.59375 1.769531 17.597656 1.765625 17.601562 C 0.988281 18.21875 0.488281 19.171875 0.488281 20.242188 C 0.488281 22.101562 1.992188 23.609375 3.847656 23.609375 L 15.285156 23.609375 L 29.511719 11.839844 Z M 29.511719 11.449219 " fill-opacity="1" fill-rule="nonzero"/></g><g clip-path="url(#654758361d)"><path fill="#231f20" d="M 6.050781 22.785156 C 5.847656 22.953125 5.628906 23.097656 5.390625 23.214844 L 15.285156 23.214844 L 29.511719 11.449219 L 19.753906 11.449219 C 19.59375 11.582031 6.09375 22.746094 6.09375 22.746094 C 6.082031 22.757812 6.066406 22.769531 6.050781 22.785156 Z M 6.050781 22.785156 " fill-opacity="1" fill-rule="nonzero"/></g><g clip-path="url(#9d6f5027a3)"><path fill="#4d4a4a" d="M 5.390625 23.214844 C 5.628906 23.097656 5.847656 22.953125 6.050781 22.785156 C 6.066406 22.769531 6.082031 22.757812 6.09375 22.746094 C 6.09375 22.746094 19.59375 11.582031 19.753906 11.449219 C 19.753906 11.449219 19.757812 11.445312 19.757812 11.445312 C 20.515625 10.828125 21.003906 9.886719 21.003906 8.828125 C 21.003906 6.96875 19.5 5.464844 17.644531 5.464844 C 16.824219 5.464844 16.070312 5.761719 15.488281 6.253906 C 15.472656 6.265625 1.792969 17.578125 1.78125 17.589844 C 1.019531 18.207031 0.535156 19.148438 0.535156 20.207031 C 0.535156 22.050781 2.011719 23.546875 3.84375 23.570312 L 3.84375 23.214844 Z M 5.390625 23.214844 " fill-opacity="1" fill-rule="nonzero"/></g><g clip-path="url(#d309ec52b5)"><path fill="#dedffe" d="M 15.285156 23.214844 L 3.84375 23.214844 L 3.84375 23.609375 L 15.285156 23.609375 Z M 15.285156 23.214844 " fill-opacity="1" fill-rule="nonzero"/></g><g clip-path="url(#6882f4d676)"><path fill="#231f20" d="M 6.8125 20.242188 C 6.8125 18.605469 5.480469 17.269531 3.84375 17.269531 C 2.210938 17.269531 0.878906 18.605469 0.878906 20.242188 C 0.878906 21.882812 2.210938 23.21875 3.847656 23.21875 C 5.480469 23.21875 6.8125 21.882812 6.8125 20.242188 Z M 3.847656 22.824219 C 2.425781 22.824219 1.273438 21.667969 1.273438 20.242188 C 1.273438 18.820312 2.425781 17.664062 3.84375 17.664062 C 5.265625 17.664062 6.417969 18.820312 6.417969 20.242188 C 6.417969 21.667969 5.265625 22.824219 3.847656 22.824219 Z M 3.847656 22.824219 " fill-opacity="1" fill-rule="nonzero"/></g><g clip-path="url(#b9737dbddf)"><path fill="#dedffe" d="M 3.84375 16.878906 C 1.992188 16.878906 0.488281 18.382812 0.488281 20.242188 C 0.488281 22.101562 1.992188 23.609375 3.847656 23.609375 C 5.699219 23.609375 7.203125 22.101562 7.203125 20.242188 C 7.203125 18.382812 5.699219 16.878906 3.84375 16.878906 Z M 0.878906 20.242188 C 0.878906 18.605469 2.210938 17.269531 3.84375 17.269531 C 5.480469 17.269531 6.8125 18.605469 6.8125 20.242188 C 6.8125 21.882812 5.480469 23.21875 3.847656 23.21875 C 2.210938 23.21875 0.878906 21.882812 0.878906 20.242188 Z M 0.878906 20.242188 " fill-opacity="1" fill-rule="nonzero"/></g><path fill="#231f20" d="M 6.027344 20.242188 C 6.027344 19.039062 5.046875 18.058594 3.84375 18.058594 C 2.644531 18.058594 1.664062 19.039062 1.664062 20.242188 C 1.664062 21.449219 2.644531 22.429688 3.847656 22.429688 C 5.046875 22.429688 6.027344 21.449219 6.027344 20.242188 Z M 3.847656 22.039062 C 2.859375 22.039062 2.054688 21.234375 2.054688 20.242188 C 2.054688 19.253906 2.859375 18.449219 3.84375 18.449219 C 4.832031 18.449219 5.636719 19.253906 5.636719 20.242188 C 5.636719 21.234375 4.832031 22.039062 3.847656 22.039062 Z M 3.847656 22.039062 " fill-opacity="1" fill-rule="nonzero"/><path fill="#dedffe" d="M 3.84375 17.664062 C 2.425781 17.664062 1.273438 18.820312 1.273438 20.242188 C 1.273438 21.667969 2.425781 22.824219 3.847656 22.824219 C 5.265625 22.824219 6.417969 21.667969 6.417969 20.242188 C 6.417969 18.820312 5.265625 17.664062 3.84375 17.664062 Z M 1.664062 20.242188 C 1.664062 19.039062 2.644531 18.058594 3.84375 18.058594 C 5.046875 18.058594 6.027344 19.039062 6.027344 20.242188 C 6.027344 21.449219 5.046875 22.429688 3.847656 22.429688 C 2.644531 22.429688 1.664062 21.449219 1.664062 20.242188 Z M 1.664062 20.242188 " fill-opacity="1" fill-rule="nonzero"/><path fill="#231f20" d="M 5.242188 20.242188 C 5.242188 19.472656 4.617188 18.84375 3.84375 18.84375 C 3.074219 18.84375 2.449219 19.472656 2.449219 20.242188 C 2.449219 21.015625 3.074219 21.644531 3.847656 21.644531 C 4.617188 21.644531 5.242188 21.015625 5.242188 20.242188 Z M 3.84375 21.25 C 3.289062 21.25 2.839844 20.800781 2.839844 20.242188 C 2.839844 19.6875 3.289062 19.238281 3.84375 19.238281 C 4.402344 19.238281 4.851562 19.6875 4.851562 20.242188 C 4.851562 20.800781 4.402344 21.25 3.84375 21.25 Z M 3.84375 21.25 " fill-opacity="1" fill-rule="nonzero"/><path fill="#dedffe" d="M 3.84375 18.449219 C 2.859375 18.449219 2.054688 19.253906 2.054688 20.242188 C 2.054688 21.234375 2.859375 22.039062 3.847656 22.039062 C 4.832031 22.039062 5.636719 21.234375 5.636719 20.242188 C 5.636719 19.253906 4.832031 18.449219 3.84375 18.449219 Z M 2.449219 20.242188 C 2.449219 19.472656 3.074219 18.84375 3.84375 18.84375 C 4.617188 18.84375 5.242188 19.472656 5.242188 20.242188 C 5.242188 21.015625 4.617188 21.644531 3.847656 21.644531 C 3.074219 21.644531 2.449219 21.015625 2.449219 20.242188 Z M 2.449219 20.242188 " fill-opacity="1" fill-rule="nonzero"/><path fill="#231f20" d="M 3.84375 19.628906 C 3.507812 19.628906 3.234375 19.90625 3.234375 20.242188 C 3.234375 20.582031 3.507812 20.859375 3.84375 20.859375 C 4.183594 20.859375 4.457031 20.582031 4.457031 20.242188 C 4.457031 19.90625 4.183594 19.628906 3.84375 19.628906 Z M 3.84375 19.628906 " fill-opacity="1" fill-rule="nonzero"/><path fill="#dedffe" d="M 3.84375 19.238281 C 3.289062 19.238281 2.839844 19.6875 2.839844 20.242188 C 2.839844 20.800781 3.289062 21.25 3.84375 21.25 C 4.402344 21.25 4.851562 20.800781 4.851562 20.242188 C 4.851562 19.6875 4.402344 19.238281 3.84375 19.238281 Z M 3.84375 20.859375 C 3.507812 20.859375 3.234375 20.582031 3.234375 20.242188 C 3.234375 19.90625 3.507812 19.628906 3.84375 19.628906 C 4.183594 19.628906 4.457031 19.90625 4.457031 20.242188 C 4.457031 20.582031 4.183594 20.859375 3.84375 20.859375 Z M 3.84375 20.859375 " fill-opacity="1" fill-rule="nonzero"/><g clip-path="url(#23fbff5099)"><path fill="#dedffe" d="M 15.285156 23.214844 L 15.285156 23.609375 L 29.511719 11.839844 L 29.511719 11.449219 Z M 15.285156 23.214844 " fill-opacity="1" fill-rule="nonzero"/></g></svg>