<svg xmlns="http://www.w3.org/2000/svg" xmlns:xlink="http://www.w3.org/1999/xlink" width="40" zoomAndPan="magnify" viewBox="0 0 30 30.000001" height="40" preserveAspectRatio="xMidYMid meet" version="1.0"><defs><clipPath id="9cc2c2a615"><path d="M 3.386719 3 L 26.613281 3 L 26.613281 26 L 3.386719 26 Z M 3.386719 3 " clip-rule="nonzero"/></clipPath></defs><g clip-path="url(#9cc2c2a615)"><path fill="#000000" d="M 24.789062 13.878906 C 25.253906 14.480469 25.441406 15 25.371094 15.472656 C 25.285156 16.007812 24.851562 16.546875 24.082031 17.078125 L 23.742188 17.3125 L 23.867188 17.703125 C 24.113281 18.453125 24.105469 19.054688 23.851562 19.546875 C 23.546875 20.140625 22.84375 20.609375 21.761719 20.941406 L 21.527344 21.011719 L 21.425781 21.238281 C 20.960938 22.238281 20.4375 22.824219 19.867188 22.984375 C 19.390625 23.117188 18.8125 22.953125 18.152344 22.503906 L 17.878906 22.316406 L 17.585938 22.46875 C 12.632812 25.09375 8.71875 26.144531 6.558594 25.429688 C 6.355469 25.363281 6.171875 25.28125 6.003906 25.1875 L 6.058594 25.1875 C 6.222656 25.1875 6.390625 25.1875 6.554688 25.179688 C 6.566406 25.179688 6.578125 25.179688 6.59375 25.175781 C 6.765625 25.164062 6.941406 25.140625 7.113281 25.113281 C 7.148438 25.109375 7.183594 25.101562 7.21875 25.09375 C 7.386719 25.066406 7.558594 25.027344 7.730469 24.984375 C 7.765625 24.976562 7.792969 24.964844 7.824219 24.957031 C 7.992188 24.910156 8.164062 24.859375 8.335938 24.800781 C 8.351562 24.792969 8.363281 24.792969 8.371094 24.785156 C 8.550781 24.722656 8.730469 24.652344 8.910156 24.578125 C 8.949219 24.5625 8.980469 24.546875 9.015625 24.53125 C 9.191406 24.457031 9.367188 24.371094 9.542969 24.285156 C 9.578125 24.269531 9.609375 24.25 9.640625 24.234375 C 9.816406 24.148438 9.996094 24.050781 10.171875 23.953125 C 10.179688 23.945312 10.1875 23.941406 10.199219 23.933594 C 10.382812 23.832031 10.566406 23.71875 10.753906 23.605469 C 10.785156 23.582031 10.820312 23.558594 10.859375 23.539062 C 11.035156 23.425781 11.214844 23.308594 11.394531 23.183594 C 11.425781 23.160156 11.460938 23.136719 11.496094 23.117188 C 11.675781 22.992188 11.855469 22.863281 12.035156 22.730469 C 12.039062 22.726562 12.046875 22.71875 12.054688 22.714844 C 12.242188 22.574219 12.429688 22.4375 12.617188 22.289062 C 12.648438 22.265625 12.683594 22.238281 12.722656 22.207031 C 12.902344 22.070312 13.082031 21.925781 13.261719 21.78125 C 13.296875 21.75 13.328125 21.722656 13.363281 21.691406 C 13.546875 21.539062 13.730469 21.390625 13.910156 21.234375 C 13.914062 21.230469 13.921875 21.226562 13.925781 21.222656 C 14.113281 21.0625 14.300781 20.898438 14.488281 20.734375 C 14.519531 20.703125 14.554688 20.675781 14.589844 20.644531 C 14.769531 20.484375 14.949219 20.324219 15.128906 20.160156 C 15.164062 20.132812 15.195312 20.097656 15.234375 20.066406 C 15.417969 19.898438 15.601562 19.726562 15.785156 19.558594 C 16.882812 19.707031 17.726562 19.527344 18.296875 19.019531 C 18.84375 18.527344 19.117188 17.761719 19.109375 16.722656 C 20.277344 16.269531 20.964844 15.675781 21.207031 14.902344 C 21.371094 14.378906 21.3125 13.808594 21.03125 13.167969 C 21.789062 11.996094 22.140625 10.714844 22.363281 9.457031 C 22.367188 9.414062 22.347656 9.367188 22.304688 9.347656 C 22.253906 9.324219 22.195312 9.351562 22.171875 9.402344 C 21.832031 10.207031 21.421875 10.992188 20.917969 11.667969 C 21.519531 10.367188 21.246094 9.1875 20.113281 8.269531 C 20.195312 8.058594 20.265625 7.855469 20.320312 7.644531 C 20.335938 7.582031 20.351562 7.515625 20.367188 7.449219 C 20.398438 7.308594 20.433594 7.167969 20.453125 7.027344 C 20.464844 6.953125 20.476562 6.878906 20.484375 6.804688 C 20.503906 6.671875 20.511719 6.539062 20.515625 6.40625 C 20.519531 6.335938 20.523438 6.265625 20.523438 6.191406 C 20.523438 6.15625 20.527344 6.121094 20.527344 6.089844 C 22.554688 5.53125 24.476562 6.070312 25.5 7.515625 C 26.613281 9.082031 26.347656 11.207031 24.785156 13.199219 L 24.523438 13.535156 Z M 19.550781 12.789062 C 19.347656 12.488281 19.355469 12.105469 19.5625 11.824219 C 20.410156 10.636719 20.335938 9.792969 19.292969 9.019531 C 18.984375 8.777344 18.882812 8.386719 19.019531 8.042969 C 19.359375 7.242188 19.488281 6.472656 19.40625 5.753906 C 19.273438 4.613281 18.582031 3.679688 17.605469 3.324219 C 16.554688 2.941406 15.382812 3.261719 14.386719 4.207031 C 14.195312 4.378906 13.941406 4.457031 13.703125 4.417969 C 12.375 4.207031 11.46875 4.347656 11.003906 4.828125 C 10.558594 5.285156 10.449219 6.128906 10.675781 7.339844 C 10.726562 7.597656 10.644531 7.867188 10.464844 8.054688 C 10.277344 8.242188 10.011719 8.335938 9.746094 8.292969 C 8.320312 8.070312 7.3125 8.164062 6.8125 8.554688 C 7.191406 9.640625 7.914062 10.597656 9.03125 11.484375 C 9.214844 11.640625 9.324219 11.847656 9.339844 12.070312 C 9.539062 13.855469 9.144531 15.21875 8.121094 16.203125 C 3.632812 20 3.390625 21.859375 3.78125 22.839844 C 6.121094 21.128906 8.328125 19.234375 10.214844 17.039062 C 11.492188 15.546875 12.609375 13.902344 13.472656 12.136719 C 13.464844 12.128906 13.460938 12.125 13.457031 12.125 C 13.058594 11.726562 12.601562 11.386719 12.09375 11.148438 C 11.582031 10.90625 11.015625 10.769531 10.433594 10.742188 C 10.363281 10.742188 10.300781 10.675781 10.304688 10.601562 C 10.304688 10.53125 10.363281 10.476562 10.429688 10.46875 C 11.042969 10.417969 11.671875 10.480469 12.273438 10.675781 C 12.816406 10.851562 13.320312 11.125 13.78125 11.460938 C 14.136719 10.65625 14.445312 9.832031 14.683594 8.980469 C 14.710938 8.871094 14.828125 8.804688 14.941406 8.835938 C 15.046875 8.867188 15.113281 8.976562 15.089844 9.089844 C 14.558594 11.285156 13.609375 13.363281 12.402344 15.273438 C 13.257812 15.390625 14.132812 15.390625 15.003906 15.257812 C 15.988281 15.113281 16.960938 14.808594 17.890625 14.410156 C 17.929688 14.390625 17.980469 14.410156 18 14.453125 C 18.019531 14.496094 18 14.542969 17.964844 14.5625 C 17.0625 15.050781 16.101562 15.453125 15.09375 15.703125 C 14.082031 15.953125 13.019531 16.042969 11.964844 15.953125 L 11.960938 15.953125 C 11.957031 15.953125 11.957031 15.953125 11.949219 15.953125 C 11.585938 16.492188 11.203125 17.015625 10.800781 17.523438 C 8.964844 19.828125 6.792969 21.839844 4.488281 23.65625 C 4.546875 23.6875 4.601562 23.726562 4.664062 23.753906 C 4.71875 23.78125 4.777344 23.800781 4.832031 23.824219 C 4.875 23.839844 4.914062 23.859375 4.957031 23.871094 C 5.007812 23.890625 5.058594 23.90625 5.113281 23.921875 C 5.15625 23.933594 5.199219 23.949219 5.242188 23.960938 C 5.289062 23.972656 5.328125 23.980469 5.367188 23.988281 C 5.425781 24 5.480469 24.015625 5.539062 24.027344 C 5.5625 24.03125 5.589844 24.03125 5.609375 24.035156 C 8.4375 24.464844 11.980469 21.605469 15.144531 18.65625 C 15.308594 18.492188 15.570312 18.410156 15.820312 18.449219 C 16.644531 18.582031 17.230469 18.496094 17.566406 18.199219 C 17.894531 17.902344 18.042969 17.355469 18.011719 16.5625 C 17.988281 16.203125 18.21875 15.867188 18.566406 15.75 C 19.480469 15.425781 20.015625 15.027344 20.160156 14.574219 C 20.292969 14.136719 20.097656 13.554688 19.550781 12.789062 Z M 19.550781 12.789062 " fill-opacity="1" fill-rule="nonzero"/></g></svg>