<svg xmlns="http://www.w3.org/2000/svg" xmlns:xlink="http://www.w3.org/1999/xlink" width="400" zoomAndPan="magnify" viewBox="0 0 300 299.999988" height="400" preserveAspectRatio="xMidYMid meet" version="1.0"><path fill="#000000" d="M 244.738281 0 L 55.261719 0 C 24.789062 0 0 24.789062 0 55.261719 L 0 244.738281 C 0 275.210938 24.789062 300 55.261719 300 L 244.738281 300 C 275.210938 300 300 275.210938 300 244.738281 L 300 55.261719 C 300 24.789062 275.210938 0 244.738281 0 Z M 212.496094 116.449219 L 134.21875 194.714844 C 132.675781 196.261719 130.660156 197.03125 128.636719 197.03125 C 126.613281 197.03125 124.597656 196.261719 123.054688 194.714844 L 87.507812 159.160156 C 84.433594 156.082031 84.433594 151.082031 87.507812 147.996094 C 90.59375 144.921875 95.59375 144.921875 98.671875 147.996094 L 128.636719 177.960938 L 201.335938 105.265625 C 204.410156 102.1875 209.414062 102.1875 212.496094 105.265625 C 215.582031 108.363281 215.582031 113.359375 212.496094 116.449219 Z M 212.496094 116.449219 " fill-opacity="1" fill-rule="nonzero"/></svg>