<svg xmlns="http://www.w3.org/2000/svg" xmlns:xlink="http://www.w3.org/1999/xlink" width="500" zoomAndPan="magnify" viewBox="0 0 375 374.999991" height="500" preserveAspectRatio="xMidYMid meet" version="1.0"><defs><clipPath id="9a00571928"><path d="M 116.226562 303 L 141 303 L 141 336 L 116.226562 336 Z M 116.226562 303 " clip-rule="nonzero"/></clipPath><clipPath id="5a1dfeab5b"><path d="M 291 37.5 L 317 37.5 L 317 65 L 291 65 Z M 291 37.5 " clip-rule="nonzero"/></clipPath></defs><rect x="-37.5" width="450" fill="#ffffff" y="-37.499999" height="449.999989" fill-opacity="1"/><rect x="-37.5" width="450" fill="#ffffff" y="-37.499999" height="449.999989" fill-opacity="1"/><rect x="-37.5" width="450" fill="#f88658" y="-37.499999" height="449.999989" fill-opacity="1"/><path fill="#000000" d="M 182.1875 286.988281 C 180.09375 279.789062 171.421875 277.277344 165.96875 282.507812 C 163.003906 285.355469 161.140625 289.328125 159.945312 293.511719 C 158.511719 296.582031 157.097656 299.664062 155.6875 302.746094 C 154.445312 305.464844 154.742188 307.914062 156.644531 310.1875 C 162.078125 316.695312 169.78125 311.964844 173.71875 306.699219 C 177.835938 301.183594 184.378906 294.527344 182.1875 286.988281 " fill-opacity="1" fill-rule="nonzero"/><path fill="#000000" d="M 209.085938 269.191406 C 198.539062 270.03125 194.742188 282.734375 193.964844 291.464844 C 193.8125 293.167969 194.6875 294.839844 196 296.03125 C 196.804688 298.03125 198.484375 299.605469 201.40625 300.386719 C 205.605469 301.511719 209.523438 299.007812 212.710938 296.601562 C 216.328125 293.871094 219.742188 290.605469 221.09375 286.121094 C 223.535156 278.050781 218.144531 268.46875 209.085938 269.191406 " fill-opacity="1" fill-rule="nonzero"/><path fill="#000000" d="M 201.636719 233.632812 C 195.925781 228.472656 188.019531 233.695312 183.78125 238.242188 C 180.28125 242 176.890625 247.539062 176.722656 252.917969 C 176.386719 253.605469 176.105469 254.296875 175.925781 254.992188 C 175.085938 258.257812 176.410156 261.894531 179.382812 263.570312 C 182.582031 265.375 186.238281 264.273438 189.152344 262.492188 C 196.414062 258.050781 211.222656 242.300781 201.636719 233.632812 " fill-opacity="1" fill-rule="nonzero"/><path fill="#000000" d="M 239.199219 228.550781 C 238.347656 224.28125 234.816406 221.128906 230.378906 221.171875 C 229.863281 221.179688 229.367188 221.234375 228.878906 221.304688 C 226.1875 220.21875 223.5625 221.496094 221.832031 223.738281 C 219.066406 227.335938 217.066406 231.316406 215.421875 235.535156 C 214.113281 238.886719 213.289062 242.800781 215.292969 246.101562 C 220.996094 255.519531 232.007812 245.179688 236.015625 239.621094 C 238.304688 236.445312 239.992188 232.542969 239.199219 228.550781 " fill-opacity="1" fill-rule="nonzero"/><path fill="#000000" d="M 155.851562 257.480469 C 151.710938 256.101562 147.074219 257.632812 144.082031 260.679688 C 142.238281 262.554688 140.898438 265.242188 140.605469 267.964844 C 140.144531 269.449219 139.851562 270.988281 139.777344 272.527344 C 139.621094 275.679688 142.742188 278.984375 145.957031 278.722656 C 153.941406 278.074219 160.296875 271.640625 160.417969 263.496094 C 160.460938 260.644531 158.4375 258.339844 155.851562 257.480469 " fill-opacity="1" fill-rule="nonzero"/><g clip-path="url(#9a00571928)"><path fill="#000000" d="M 138.128906 305.304688 C 133.898438 301.0625 127.273438 303.542969 123.421875 306.90625 C 119.90625 309.96875 117.773438 314.660156 117.742188 319.324219 C 116.625 322.875 116.398438 326.753906 117.097656 330.796875 C 117.851562 335.195312 124.511719 336.898438 127.335938 333.507812 C 130.941406 329.175781 134.324219 324.648438 137.335938 319.882812 C 140.160156 315.417969 142.515625 309.703125 138.128906 305.304688 " fill-opacity="1" fill-rule="nonzero"/></g><path fill="#000000" d="M 154.816406 328.289062 C 151.765625 328.925781 149.179688 330.269531 146.960938 332.058594 C 138.71875 334.476562 133.34375 345.382812 133.003906 353.253906 C 132.914062 355.429688 133.957031 357.046875 135.460938 358.035156 C 135.871094 360.695312 137.277344 362.992188 140.449219 364.148438 C 145.554688 366.011719 150.34375 362.570312 153.253906 358.628906 C 156.617188 354.074219 161.316406 344.550781 159.816406 338.078125 C 163.941406 334.542969 161.191406 326.960938 154.816406 328.289062 " fill-opacity="1" fill-rule="nonzero"/><path fill="#000000" d="M 197.347656 326.6875 C 196.839844 323.542969 192.636719 321.3125 189.738281 322.355469 C 188.554688 322.777344 187.414062 323.285156 186.316406 323.863281 C 185.570312 323.953125 184.808594 324.203125 184.058594 324.675781 C 178.957031 327.921875 175.214844 332.960938 173.339844 338.714844 C 171.511719 344.332031 170.949219 352.695312 178.042969 354.65625 C 184.429688 356.417969 189.839844 348.722656 192.96875 344.320312 C 196.789062 338.941406 198.410156 333.226562 197.347656 326.6875 " fill-opacity="1" fill-rule="nonzero"/><path fill="#000000" d="M 246.851562 258.105469 C 243.222656 258.625 239.789062 261.066406 238.125 264.335938 C 237.484375 265.589844 237.261719 266.980469 237.441406 268.289062 C 236.355469 270.898438 235.535156 273.613281 235.015625 276.398438 C 234.566406 278.820312 235.121094 281.214844 237.175781 282.757812 C 238.945312 284.078125 241.941406 284.671875 243.878906 283.226562 C 250.261719 278.464844 253.898438 271.976562 254.59375 264.019531 C 254.980469 259.609375 250.394531 257.597656 246.851562 258.105469 " fill-opacity="1" fill-rule="nonzero"/><path fill="#000000" d="M 243.808594 301.613281 C 241.230469 299 237.496094 298.3125 234 298.957031 C 232.328125 298.675781 230.589844 299.109375 229.28125 300.667969 C 229.210938 300.753906 229.152344 300.839844 229.082031 300.925781 C 224.867188 303.757812 222.664062 309.433594 220.34375 313.710938 C 218.992188 316.203125 219.835938 319.289062 221.664062 321.210938 C 222.132812 324.101562 224.957031 325.910156 227.738281 326.203125 C 233.828125 326.847656 238.660156 322.679688 242.066406 318.121094 C 245.59375 313.410156 248.734375 306.605469 243.808594 301.613281 " fill-opacity="1" fill-rule="nonzero"/><path fill="#000000" d="M 273.15625 220.433594 C 272.113281 215.867188 267.664062 213.105469 263.160156 213.945312 C 260.75 213.011719 257.710938 213.371094 255.75 215.941406 C 252.722656 219.917969 250.472656 224.449219 249.222656 229.300781 C 248.167969 233.390625 246.960938 239.046875 249.28125 242.9375 C 251.917969 247.359375 257.519531 247.90625 261.480469 245.054688 C 265.445312 242.203125 267.46875 236.785156 269.785156 232.644531 C 271.863281 228.933594 274.167969 224.863281 273.15625 220.433594 " fill-opacity="1" fill-rule="nonzero"/><path fill="#000000" d="M 218.277344 200.1875 C 218.242188 199.832031 218.183594 199.492188 218.109375 199.160156 C 217.960938 198.035156 217.472656 196.945312 216.527344 196 C 216.195312 195.667969 215.808594 195.398438 215.402344 195.160156 C 213.222656 193.695312 210.210938 193.679688 207.761719 195.824219 C 204.878906 198.34375 202.480469 201.507812 200.863281 204.980469 C 200.328125 206.125 200.113281 207.289062 200.160156 208.398438 C 199.683594 210.21875 199.945312 212.144531 201.191406 213.710938 C 202.625 215.515625 205.289062 216.730469 207.609375 215.90625 C 209.789062 215.128906 211.773438 213.886719 213.4375 212.316406 C 215.644531 210.867188 217.378906 208.722656 218.070312 206.128906 C 218.292969 205.285156 218.304688 204.414062 218.152344 203.570312 C 218.324219 202.472656 218.378906 201.34375 218.277344 200.1875 " fill-opacity="1" fill-rule="nonzero"/><path fill="#000000" d="M 257.957031 187.914062 C 262.183594 183.699219 256.945312 175.984375 250.882812 178.980469 C 250.457031 179.191406 250.058594 179.453125 249.644531 179.6875 C 248.535156 179.632812 247.40625 179.890625 246.398438 180.5625 C 238.886719 185.574219 234.5 193.226562 233.894531 202.246094 C 233.503906 208.074219 240.71875 209.835938 244.476562 206.640625 C 245.714844 205.585938 246.859375 204.460938 247.9375 203.289062 C 248.453125 202.796875 248.957031 202.292969 249.421875 201.765625 C 252.210938 201.933594 255.207031 200.378906 256.128906 197.347656 C 256.597656 195.800781 256.882812 194.285156 257.027344 192.769531 C 257.953125 191.253906 258.359375 189.554688 257.957031 187.914062 " fill-opacity="1" fill-rule="nonzero"/><path fill="#000000" d="M 266.253906 274.5625 C 261.773438 278.5 259.273438 284.496094 259.484375 290.449219 C 259.6875 296.109375 265.988281 298.28125 270.066406 294.839844 C 273.601562 291.859375 277.042969 286.449219 276.453125 281.632812 C 276.433594 281.480469 276.402344 281.339844 276.378906 281.195312 C 276.4375 280.988281 276.523438 280.796875 276.574219 280.585938 C 278.136719 274.371094 270.816406 270.5625 266.253906 274.5625 " fill-opacity="1" fill-rule="nonzero"/><path fill="#000000" d="M 297.507812 247.738281 C 297.484375 247.621094 297.441406 247.519531 297.414062 247.40625 C 298.179688 243.847656 295.789062 241.378906 292.871094 240.789062 C 288.917969 238.1875 283.425781 238.425781 279.660156 242.753906 C 277.25 245.519531 274.546875 249.351562 273.578125 252.921875 C 272.40625 257.246094 274.425781 261.9375 278.910156 263.1875 C 278.957031 263.203125 279.007812 263.207031 279.054688 263.21875 C 280.53125 264.644531 282.585938 265.398438 284.640625 264.539062 C 291.6875 261.605469 299.367188 256.621094 297.507812 247.738281 " fill-opacity="1" fill-rule="nonzero"/><path fill="#000000" d="M 298.414062 194.167969 C 294.050781 191.546875 289.363281 193.898438 286.835938 197.832031 C 286.253906 198.742188 285.792969 199.667969 285.433594 200.617188 C 282.667969 204.234375 281.785156 209.257812 283.117188 213.609375 C 284.761719 218.984375 291.277344 219.277344 294.320312 215.074219 C 296.546875 211.992188 299.453125 208.882812 300.949219 205.367188 C 302.558594 201.589844 302.304688 196.503906 298.414062 194.167969 " fill-opacity="1" fill-rule="nonzero"/><path fill="#000000" d="M 294.910156 165.601562 C 294.246094 163.164062 292.453125 161.820312 290.464844 161.4375 C 288.421875 159.398438 285.167969 158.734375 282.804688 161.503906 C 277.757812 167.40625 275.425781 175.058594 275.542969 182.78125 C 275.609375 187.351562 280.714844 190.53125 284.753906 188.078125 C 292.089844 183.621094 297.261719 174.28125 294.910156 165.601562 " fill-opacity="1" fill-rule="nonzero"/><path fill="#000000" d="M 166.722656 208.191406 C 164.933594 207.71875 162.988281 208.019531 161.503906 209.601562 C 155.441406 216.058594 152.375 224.320312 151.75 233.085938 C 151.335938 238.824219 158.378906 240.363281 162.039062 237.355469 C 168.835938 231.773438 173.917969 223.71875 175.695312 215.058594 C 176.878906 209.285156 170.625 206.035156 166.722656 208.191406 " fill-opacity="1" fill-rule="nonzero"/><path fill="#000000" d="M 202.234375 166.886719 C 200.027344 166.621094 198.308594 167.457031 197.078125 168.945312 C 191.90625 172.621094 188.9375 178.214844 188.25 184.597656 C 188 186.886719 189.945312 189.265625 191.914062 190.058594 C 194.300781 191.023438 196.480469 190.402344 198.429688 188.824219 C 203.0625 185.058594 207.09375 178.765625 207.324219 172.664062 C 207.433594 169.769531 205.011719 167.214844 202.234375 166.886719 " fill-opacity="1" fill-rule="nonzero"/><path fill="#000000" d="M 244.496094 144.679688 C 236.796875 140.042969 229.390625 150.410156 226.949219 156.460938 C 226.050781 158.6875 227.410156 161.554688 229.140625 162.894531 C 230.050781 163.597656 231.046875 163.972656 232.070312 164.089844 C 232.207031 164.179688 232.332031 164.28125 232.476562 164.355469 C 235.054688 165.722656 237.535156 165.132812 239.746094 163.417969 C 242.304688 161.433594 244.695312 158.984375 246.417969 156.226562 C 248.757812 152.492188 248.617188 147.160156 244.496094 144.679688 " fill-opacity="1" fill-rule="nonzero"/><path fill="#000000" d="M 269.75 124.507812 C 268.289062 125.535156 266.953125 126.6875 265.675781 127.898438 C 265.382812 128.058594 265.097656 128.234375 264.816406 128.433594 C 262.660156 129.960938 261.167969 132.152344 260.105469 134.574219 C 257.484375 138.675781 255.714844 143.316406 255.015625 148.316406 C 254.289062 153.539062 258.867188 157.773438 263.9375 155.191406 C 271.085938 151.542969 280.148438 141.640625 277.289062 132.808594 C 280.867188 128.484375 274.785156 120.949219 269.75 124.507812 " fill-opacity="1" fill-rule="nonzero"/><path fill="#000000" d="M 310.480469 117.5 C 305.726562 115.214844 299.988281 118.023438 296.589844 121.488281 C 293.335938 124.804688 291.394531 129.371094 291.421875 134.019531 C 291.003906 136.773438 291.003906 139.632812 291.410156 142.492188 C 292.121094 147.488281 298.570312 147.800781 301.632812 145.199219 C 307.328125 140.359375 322.363281 123.203125 310.480469 117.5 " fill-opacity="1" fill-rule="nonzero"/><path fill="#000000" d="M 257.28125 98.609375 C 249.246094 101.195312 243.394531 107.011719 240.378906 114.851562 C 238.554688 119.59375 243.800781 123.1875 247.902344 122.394531 C 249.445312 122.09375 250.933594 121.515625 252.328125 120.753906 C 252.457031 120.707031 252.589844 120.671875 252.71875 120.613281 C 258.707031 118.023438 263.082031 112.34375 264.761719 106.105469 C 265.929688 101.773438 261.773438 97.164062 257.28125 98.609375 " fill-opacity="1" fill-rule="nonzero"/><path fill="#000000" d="M 292.9375 73.898438 C 290.824219 74.097656 288.785156 74.78125 286.925781 75.792969 C 284.90625 75.449219 282.714844 76.167969 281.242188 78.503906 C 277.101562 85.078125 274.207031 92.464844 272.148438 99.941406 C 270.628906 105.46875 276.457031 108.925781 281.078125 106.820312 C 291.683594 101.992188 298.175781 91.492188 299.066406 80.042969 C 299.308594 76.945312 296.054688 73.605469 292.9375 73.898438 " fill-opacity="1" fill-rule="nonzero"/><path fill="#000000" d="M 276.8125 48.140625 C 274.328125 47.304688 271.390625 47.84375 269.78125 50.238281 C 265.679688 52.683594 262.578125 56.734375 261.457031 61.46875 C 260.84375 64.058594 261.867188 66.414062 263.628906 67.835938 C 264.652344 71.867188 270.960938 73.886719 273.804688 70.445312 C 277.484375 66.003906 280.195312 61.210938 282.113281 55.761719 C 283.453125 51.957031 280.328125 48.601562 276.8125 48.140625 " fill-opacity="1" fill-rule="nonzero"/><g clip-path="url(#5a1dfeab5b)"><path fill="#000000" d="M 310.042969 37.675781 C 302.21875 38 294.957031 43.320312 293.050781 51.046875 C 292.402344 52.234375 291.851562 53.472656 291.445312 54.75 C 289.898438 59.660156 293.550781 64.277344 298.660156 64.222656 C 302.585938 64.175781 305.925781 61.390625 308.042969 58.300781 C 310.59375 54.582031 312.882812 50.65625 315.292969 46.847656 C 317.710938 43.019531 314.582031 37.488281 310.042969 37.675781 " fill-opacity="1" fill-rule="nonzero"/></g><path fill="#000000" d="M 320.699219 74.863281 C 315.335938 76.761719 311.070312 81.21875 309.941406 86.695312 C 308.511719 90.085938 307.785156 93.773438 307.839844 97.589844 C 307.925781 103.152344 314.390625 105.421875 318.328125 101.945312 C 324.5 96.496094 327.816406 88.96875 328.53125 80.847656 C 328.871094 76.980469 324.28125 73.597656 320.699219 74.863281 " fill-opacity="1" fill-rule="nonzero"/><path fill="#000000" d="M 324.902344 152.289062 C 322.308594 147.980469 316.402344 147.796875 312.9375 151.085938 C 310.019531 153.859375 308.132812 158.007812 307.441406 161.925781 C 307.207031 163.246094 307.359375 164.472656 307.765625 165.558594 C 307.679688 167.445312 307.800781 169.359375 308.082031 171.238281 C 308.761719 175.734375 315.378906 177.078125 318.203125 173.914062 C 322.730469 168.84375 329.066406 159.1875 324.902344 152.289062 " fill-opacity="1" fill-rule="nonzero"/></svg>