<svg xmlns="http://www.w3.org/2000/svg" xmlns:xlink="http://www.w3.org/1999/xlink" width="500" zoomAndPan="magnify" viewBox="0 0 375 374.999991" height="500" preserveAspectRatio="xMidYMid meet" version="1.0"><defs><clipPath id="56411d8fc9"><path d="M 228 289 L 349 289 L 349 337.21875 L 228 337.21875 Z M 228 289 " clip-rule="nonzero"/></clipPath><clipPath id="34787ef628"><path d="M 0 259 L 125 259 L 125 337.21875 L 0 337.21875 Z M 0 259 " clip-rule="nonzero"/></clipPath></defs><g clip-path="url(#56411d8fc9)"><path fill="#ff7557" d="M 331.476562 313.40625 C 331.476562 313.40625 304.644531 306.703125 292.707031 289.261719 C 292.492188 289.332031 292.269531 289.371094 292.042969 289.371094 C 287.910156 289.441406 283.777344 289.429688 279.640625 289.402344 C 279.628906 289.824219 279.496094 290.203125 279.234375 290.539062 C 278.976562 290.871094 278.644531 291.097656 278.238281 291.214844 C 277.367188 291.453125 276.5 291.726562 275.636719 292.011719 C 274.707031 292.503906 273.777344 293.105469 272.816406 293.339844 C 271.136719 293.75 269.582031 293.652344 268.242188 294.902344 C 265.828125 297.15625 264.191406 299.464844 260.691406 300.074219 C 253.371094 301.351562 247.476562 295.621094 242.933594 290.699219 C 242.734375 290.488281 242.585938 290.246094 242.484375 289.972656 C 237.78125 290.140625 233.074219 290.28125 228.367188 290.308594 L 228.335938 337.230469 L 251.78125 337.230469 L 251.632812 316.113281 L 285.152344 337.230469 L 348.425781 337.230469 C 348.535156 335.910156 348.53125 334.585938 348.410156 333.265625 C 348.289062 331.941406 348.050781 330.640625 347.703125 329.359375 C 347.351562 328.082031 346.890625 326.839844 346.324219 325.640625 C 345.753906 324.441406 345.085938 323.300781 344.316406 322.21875 C 343.546875 321.136719 342.6875 320.132812 341.742188 319.199219 C 340.792969 318.269531 339.773438 317.425781 338.675781 316.675781 C 337.582031 315.921875 336.429688 315.273438 335.222656 314.722656 C 334.011719 314.175781 332.761719 313.734375 331.476562 313.40625 Z M 331.476562 313.40625 " fill-opacity="1" fill-rule="nonzero"/></g><path fill="#ffffff" d="M 295.617188 167.757812 L 295.644531 289.621094 L 280.773438 289.679688 L 242.378906 289.785156 L 221.03125 289.863281 L 220.558594 180.253906 " fill-opacity="1" fill-rule="nonzero"/><path fill="#222433" d="M 221.03125 291.070312 C 220.871094 291.070312 220.71875 291.042969 220.570312 290.980469 C 220.421875 290.917969 220.292969 290.832031 220.179688 290.71875 C 220.066406 290.605469 219.976562 290.476562 219.914062 290.328125 C 219.855469 290.179688 219.824219 290.027344 219.820312 289.867188 L 219.351562 180.261719 C 219.351562 180.097656 219.378906 179.945312 219.441406 179.796875 C 219.503906 179.648438 219.589844 179.515625 219.703125 179.402344 C 219.816406 179.289062 219.945312 179.203125 220.09375 179.140625 C 220.242188 179.078125 220.394531 179.046875 220.554688 179.046875 C 220.71875 179.042969 220.871094 179.070312 221.023438 179.132812 C 221.171875 179.191406 221.304688 179.277344 221.417969 179.390625 C 221.53125 179.503906 221.621094 179.636719 221.679688 179.785156 C 221.742188 179.933594 221.773438 180.089844 221.773438 180.25 L 222.238281 288.648438 L 242.375 288.574219 L 280.769531 288.472656 L 294.433594 288.417969 L 294.40625 167.757812 C 294.40625 167.597656 294.4375 167.441406 294.5 167.292969 C 294.558594 167.144531 294.648438 167.015625 294.761719 166.902344 C 294.875 166.789062 295.007812 166.699219 295.152344 166.640625 C 295.300781 166.578125 295.457031 166.546875 295.617188 166.546875 C 295.777344 166.546875 295.933594 166.578125 296.082031 166.640625 C 296.230469 166.699219 296.359375 166.789062 296.472656 166.902344 C 296.585938 167.015625 296.675781 167.144531 296.734375 167.292969 C 296.796875 167.441406 296.828125 167.597656 296.828125 167.757812 L 296.855469 289.621094 C 296.855469 289.78125 296.824219 289.933594 296.761719 290.082031 C 296.703125 290.230469 296.613281 290.359375 296.5 290.472656 C 296.386719 290.585938 296.257812 290.675781 296.109375 290.734375 C 295.960938 290.796875 295.808594 290.828125 295.648438 290.828125 L 280.777344 290.890625 L 242.378906 290.992188 L 221.035156 291.070312 Z M 221.03125 291.070312 " fill-opacity="1" fill-rule="nonzero"/><g clip-path="url(#34787ef628)"><path fill="#ff7557" d="M 107.964844 313.40625 L 106.957031 313.40625 C 106.074219 313.425781 105.199219 313.359375 104.332031 313.210938 C 103.460938 313.058594 102.617188 312.824219 101.796875 312.503906 C 100.972656 312.1875 100.191406 311.789062 99.445312 311.316406 C 98.703125 310.84375 98.011719 310.304688 97.375 309.695312 C 96.738281 309.085938 96.164062 308.417969 95.660156 307.699219 C 95.15625 306.976562 94.726562 306.210938 94.371094 305.402344 C 94.015625 304.597656 93.746094 303.765625 93.554688 302.902344 C 93.367188 302.042969 93.261719 301.171875 93.246094 300.292969 C 92.800781 300.191406 36.316406 259.855469 36.1875 259.742188 L 0.144531 313.082031 L 19.59375 326.183594 L 33.730469 304.421875 L 61.640625 337.230469 L 124.914062 337.230469 C 125.023438 335.910156 125.019531 334.585938 124.898438 333.265625 C 124.777344 331.941406 124.542969 330.640625 124.191406 329.359375 C 123.839844 328.082031 123.382812 326.839844 122.8125 325.640625 C 122.242188 324.441406 121.574219 323.300781 120.804688 322.21875 C 120.035156 321.136719 119.175781 320.128906 118.230469 319.199219 C 117.28125 318.269531 116.261719 317.425781 115.167969 316.675781 C 114.070312 315.921875 112.921875 315.273438 111.710938 314.722656 C 110.5 314.175781 109.253906 313.734375 107.964844 313.40625 Z M 107.964844 313.40625 " fill-opacity="1" fill-rule="nonzero"/></g><path fill="#ffffff" d="M 261.949219 93.414062 L 229.949219 70.03125 C 225.480469 66.765625 220.785156 63.871094 215.855469 61.347656 C 210.929688 58.824219 205.835938 56.703125 200.570312 54.988281 C 195.308594 53.269531 189.945312 51.972656 184.476562 51.101562 C 179.007812 50.230469 173.507812 49.796875 167.96875 49.792969 L 130.121094 49.792969 C 128.835938 49.792969 127.554688 49.855469 126.277344 49.984375 C 125.003906 50.109375 123.734375 50.296875 122.476562 50.546875 C 121.21875 50.796875 119.976562 51.109375 118.746094 51.480469 C 117.519531 51.855469 116.3125 52.285156 115.128906 52.777344 C 113.941406 53.269531 112.785156 53.816406 111.652344 54.417969 C 110.519531 55.023438 109.421875 55.683594 108.355469 56.394531 C 107.289062 57.105469 106.257812 57.871094 105.265625 58.683594 C 104.273438 59.496094 103.324219 60.355469 102.417969 61.261719 C 101.511719 62.167969 100.648438 63.117188 99.835938 64.109375 C 99.019531 65.101562 98.257812 66.128906 97.542969 67.195312 C 96.832031 68.257812 96.171875 69.359375 95.566406 70.488281 C 94.964844 71.617188 94.414062 72.777344 93.921875 73.960938 C 93.433594 75.144531 93 76.351562 92.628906 77.578125 C 92.253906 78.804688 91.941406 80.046875 91.691406 81.300781 C 91.441406 82.558594 91.253906 83.824219 91.128906 85.101562 C 91 86.378906 90.9375 87.65625 90.9375 88.9375 C 90.9375 88.949219 90.9375 88.960938 90.9375 88.972656 L 90.898438 88.980469 L 88.3125 181.78125 L 33.71875 257.972656 L 96.0625 302.5625 L 157.316406 217.054688 " fill-opacity="1" fill-rule="nonzero"/><path fill="#222433" d="M 96.0625 303.769531 C 95.804688 303.769531 95.566406 303.695312 95.359375 303.542969 L 33.011719 258.957031 C 32.882812 258.863281 32.773438 258.75 32.691406 258.613281 C 32.605469 258.476562 32.550781 258.328125 32.523438 258.171875 C 32.496094 258.011719 32.503906 257.855469 32.539062 257.699219 C 32.574219 257.542969 32.640625 257.402344 32.734375 257.269531 L 87.113281 181.378906 L 89.6875 88.945312 C 89.6875 88.847656 89.703125 88.753906 89.726562 88.664062 C 89.738281 87.347656 89.8125 86.035156 89.949219 84.726562 C 90.089844 83.417969 90.292969 82.121094 90.558594 80.832031 C 90.824219 79.542969 91.152344 78.273438 91.542969 77.015625 C 91.933594 75.757812 92.382812 74.523438 92.894531 73.3125 C 93.40625 72.101562 93.972656 70.914062 94.601562 69.757812 C 95.226562 68.601562 95.910156 67.476562 96.644531 66.386719 C 97.382812 65.296875 98.167969 64.246094 99.007812 63.230469 C 99.847656 62.21875 100.734375 61.25 101.667969 60.320312 C 102.605469 59.394531 103.582031 58.515625 104.601562 57.683594 C 105.621094 56.851562 106.679688 56.070312 107.777344 55.34375 C 108.871094 54.613281 110 53.941406 111.164062 53.324219 C 112.328125 52.707031 113.515625 52.144531 114.734375 51.644531 C 115.949219 51.140625 117.1875 50.699219 118.449219 50.316406 C 119.710938 49.9375 120.984375 49.617188 122.277344 49.359375 C 123.566406 49.105469 124.867188 48.910156 126.179688 48.78125 C 127.488281 48.652344 128.800781 48.585938 130.121094 48.585938 L 167.96875 48.585938 C 173.570312 48.574219 179.140625 49.007812 184.671875 49.882812 C 190.203125 50.757812 195.632812 52.0625 200.957031 53.800781 C 206.285156 55.539062 211.4375 57.6875 216.417969 60.246094 C 221.402344 62.804688 226.148438 65.742188 230.664062 69.054688 L 262.664062 92.4375 C 262.792969 92.53125 262.902344 92.648438 262.984375 92.785156 C 263.066406 92.921875 263.121094 93.070312 263.148438 93.226562 C 263.171875 93.386719 263.164062 93.542969 263.128906 93.699219 C 263.089844 93.855469 263.023438 94 262.929688 94.128906 C 262.832031 94.257812 262.71875 94.363281 262.582031 94.449219 C 262.441406 94.53125 262.292969 94.585938 262.136719 94.609375 C 261.976562 94.632812 261.820312 94.628906 261.664062 94.589844 C 261.507812 94.550781 261.363281 94.484375 261.234375 94.390625 L 229.234375 71.007812 C 224.824219 67.769531 220.183594 64.902344 215.316406 62.402344 C 210.445312 59.902344 205.410156 57.800781 200.207031 56.101562 C 195.003906 54.402344 189.699219 53.125 184.292969 52.269531 C 178.882812 51.414062 173.445312 50.992188 167.96875 51.003906 L 130.121094 51.003906 C 128.875 51.003906 127.636719 51.066406 126.398438 51.191406 C 125.160156 51.3125 123.933594 51.496094 122.714844 51.738281 C 121.496094 51.980469 120.289062 52.285156 119.101562 52.644531 C 117.910156 53.007812 116.742188 53.425781 115.59375 53.902344 C 114.445312 54.378906 113.324219 54.910156 112.226562 55.496094 C 111.132812 56.082031 110.066406 56.71875 109.035156 57.410156 C 108 58.101562 107.003906 58.839844 106.042969 59.628906 C 105.082031 60.414062 104.160156 61.25 103.28125 62.125 C 102.402344 63.003906 101.570312 63.925781 100.78125 64.882812 C 99.992188 65.84375 99.25 66.839844 98.558594 67.871094 C 97.871094 68.90625 97.230469 69.96875 96.644531 71.0625 C 96.058594 72.160156 95.527344 73.28125 95.050781 74.425781 C 94.574219 75.574219 94.152344 76.742188 93.792969 77.929688 C 93.429688 79.121094 93.128906 80.324219 92.882812 81.539062 C 92.640625 82.757812 92.457031 83.984375 92.335938 85.222656 C 92.210938 86.457031 92.148438 87.695312 92.148438 88.9375 C 92.148438 89.054688 92.132812 89.167969 92.097656 89.28125 L 89.523438 181.816406 C 89.519531 182.0625 89.441406 182.285156 89.300781 182.484375 L 35.40625 257.695312 L 95.78125 300.875 L 156.332031 216.351562 C 156.425781 216.21875 156.539062 216.109375 156.675781 216.023438 C 156.8125 215.9375 156.960938 215.878906 157.121094 215.851562 C 157.28125 215.824219 157.4375 215.832031 157.59375 215.867188 C 157.753906 215.902344 157.898438 215.96875 158.027344 216.0625 C 158.160156 216.15625 158.269531 216.269531 158.355469 216.410156 C 158.4375 216.546875 158.492188 216.695312 158.519531 216.855469 C 158.546875 217.011719 158.539062 217.171875 158.5 217.328125 C 158.464844 217.484375 158.394531 217.628906 158.300781 217.757812 L 97.046875 303.265625 C 96.804688 303.601562 96.476562 303.769531 96.0625 303.769531 Z M 96.0625 303.769531 " fill-opacity="1" fill-rule="nonzero"/><path fill="#ff7557" d="M 290.636719 149.675781 C 294.113281 150.414062 297.480469 151.578125 300.960938 152.296875 C 303.597656 152.839844 306.273438 154.304688 308.984375 154.4375 C 309.171875 154.429688 309.359375 154.429688 309.550781 154.445312 C 309.625 154.453125 309.695312 154.472656 309.765625 154.488281 C 310.042969 153.652344 310.359375 152.835938 310.71875 152.035156 C 311.589844 150.238281 312.816406 148.734375 314.40625 147.519531 C 317.230469 145.269531 320.921875 142.832031 324.695312 143.230469 C 326.480469 143.417969 328.222656 143.984375 329.976562 144.347656 C 331.375 144.570312 332.664062 145.066406 333.847656 145.839844 L 310.050781 64.023438 C 309.859375 63.449219 309.648438 62.878906 309.425781 62.320312 C 309.199219 61.757812 308.957031 61.199219 308.699219 60.652344 C 308.441406 60.105469 308.167969 59.566406 307.875 59.035156 C 307.585938 58.503906 307.277344 57.980469 306.957031 57.46875 C 306.632812 56.953125 306.296875 56.453125 305.941406 55.957031 C 305.589844 55.464844 305.222656 54.984375 304.84375 54.511719 C 304.460938 54.042969 304.066406 53.582031 303.65625 53.136719 C 303.246094 52.6875 302.824219 52.253906 302.390625 51.832031 C 301.953125 51.410156 301.507812 51.003906 301.046875 50.609375 C 300.585938 50.214844 300.117188 49.832031 299.632812 49.464844 C 299.152344 49.097656 298.65625 48.746094 298.15625 48.410156 C 297.652344 48.074219 297.136719 47.75 296.613281 47.445312 C 296.089844 47.140625 295.558594 46.847656 295.019531 46.574219 C 294.476562 46.300781 293.929688 46.042969 293.375 45.800781 C 292.816406 45.558594 292.253906 45.332031 291.6875 45.125 C 291.117188 44.917969 290.539062 44.726562 289.960938 44.554688 C 289.378906 44.382812 288.792969 44.226562 288.203125 44.085938 C 287.613281 43.949219 287.019531 43.828125 286.421875 43.726562 C 285.824219 43.625 285.222656 43.539062 284.621094 43.472656 C 284.019531 43.40625 283.414062 43.359375 282.808594 43.328125 C 282.203125 43.296875 281.597656 43.285156 280.992188 43.289062 C 280.382812 43.296875 279.777344 43.320312 279.175781 43.363281 C 278.570312 43.40625 277.964844 43.464844 277.367188 43.542969 C 276.765625 43.621094 276.164062 43.71875 275.570312 43.832031 C 274.976562 43.949219 274.382812 44.082031 273.796875 44.230469 C 273.207031 44.378906 272.625 44.546875 272.050781 44.730469 C 271.472656 44.917969 270.898438 45.117188 270.335938 45.335938 C 269.769531 45.558594 269.210938 45.792969 268.660156 46.042969 C 268.109375 46.296875 267.566406 46.566406 267.03125 46.851562 C 266.496094 47.136719 265.96875 47.4375 265.453125 47.753906 C 264.9375 48.070312 264.429688 48.402344 263.933594 48.75 C 263.4375 49.097656 262.949219 49.457031 262.472656 49.832031 L 216.230469 94.300781 L 248.753906 137.917969 L 266.1875 124.09375 L 271.824219 145.832031 C 278.199219 146.496094 284.378906 148.34375 290.636719 149.675781 Z M 290.636719 149.675781 " fill-opacity="1" fill-rule="nonzero"/><path fill="#ff7557" d="M 249.476562 171.085938 C 247.367188 165.40625 249.167969 158.140625 253.09375 153.683594 C 255.402344 151.0625 258.917969 149.160156 262.050781 147.710938 C 265.320312 146.195312 268.804688 145.074219 272.441406 145.078125 C 276.292969 145.085938 280.144531 146.171875 283.835938 147.160156 C 287.9375 148.253906 292.007812 149.40625 296.144531 150.378906 C 300.003906 151.292969 303.699219 152.546875 307.496094 153.636719 C 308.226562 153.863281 308.96875 154.027344 309.722656 154.136719 C 309.769531 153.996094 309.832031 153.859375 309.90625 153.730469 C 310.058594 153.453125 310.242188 153.199219 310.453125 152.964844 C 313.214844 149.082031 316.046875 145.109375 320.875 143.699219 C 324.398438 142.667969 327.558594 143.523438 330.476562 145.128906 C 329.773438 144.453125 329.03125 143.824219 328.246094 143.246094 L 235.519531 74.949219 C 231.054688 72.570312 226.292969 71.375 221.234375 71.363281 L 148.761719 71.363281 C 126.6875 71.363281 112 94.140625 121.121094 114.214844 L 142.144531 160.453125 C 142.972656 162.265625 143.921875 164.003906 145 165.675781 C 146.074219 167.351562 147.265625 168.9375 148.570312 170.441406 C 149.871094 171.945312 151.277344 173.347656 152.78125 174.648438 C 154.285156 175.953125 155.875 177.140625 157.546875 178.214844 C 159.222656 179.292969 160.964844 180.242188 162.773438 181.070312 C 164.585938 181.894531 166.445312 182.589844 168.355469 183.148438 C 170.265625 183.710938 172.203125 184.132812 174.175781 184.417969 C 176.144531 184.703125 178.125 184.84375 180.117188 184.84375 L 272.046875 184.84375 C 270.371094 184.269531 254.652344 185.027344 249.476562 171.085938 Z M 249.476562 171.085938 " fill-opacity="1" fill-rule="nonzero"/><path fill="#222433" d="M 142.144531 161.664062 C 141.90625 161.664062 141.6875 161.601562 141.488281 161.472656 C 141.289062 161.34375 141.140625 161.171875 141.042969 160.953125 L 120.019531 114.714844 C 119.621094 113.84375 119.269531 112.957031 118.953125 112.054688 C 118.640625 111.152344 118.367188 110.234375 118.136719 109.308594 C 117.90625 108.378906 117.714844 107.445312 117.570312 106.5 C 117.425781 105.554688 117.320312 104.605469 117.261719 103.648438 C 117.203125 102.695312 117.1875 101.742188 117.214844 100.785156 C 117.242188 99.828125 117.3125 98.875 117.425781 97.925781 C 117.539062 96.976562 117.695312 96.035156 117.894531 95.101562 C 118.09375 94.164062 118.335938 93.242188 118.617188 92.328125 C 118.902344 91.414062 119.226562 90.515625 119.589844 89.632812 C 119.953125 88.75 120.359375 87.882812 120.804688 87.035156 C 121.246094 86.1875 121.726562 85.363281 122.246094 84.558594 C 122.765625 83.757812 123.320312 82.976562 123.90625 82.226562 C 124.496094 81.472656 125.121094 80.746094 125.773438 80.050781 C 126.429688 79.351562 127.113281 78.6875 127.832031 78.050781 C 128.546875 77.417969 129.289062 76.816406 130.058594 76.25 C 130.832031 75.683594 131.625 75.148438 132.441406 74.65625 C 132.582031 74.570312 132.726562 74.519531 132.886719 74.492188 C 133.046875 74.46875 133.203125 74.476562 133.359375 74.515625 C 133.515625 74.554688 133.65625 74.621094 133.785156 74.714844 C 133.917969 74.808594 134.023438 74.925781 134.105469 75.0625 C 134.1875 75.199219 134.242188 75.347656 134.265625 75.507812 C 134.292969 75.664062 134.285156 75.824219 134.246094 75.976562 C 134.207031 76.132812 134.140625 76.277344 134.046875 76.40625 C 133.949219 76.535156 133.835938 76.640625 133.699219 76.722656 C 132.941406 77.183594 132.207031 77.671875 131.496094 78.195312 C 130.785156 78.71875 130.097656 79.273438 129.4375 79.859375 C 128.777344 80.445312 128.144531 81.0625 127.539062 81.707031 C 126.933594 82.347656 126.359375 83.019531 125.816406 83.714844 C 125.269531 84.410156 124.761719 85.128906 124.28125 85.871094 C 123.800781 86.613281 123.359375 87.375 122.949219 88.15625 C 122.539062 88.9375 122.164062 89.738281 121.828125 90.554688 C 121.492188 91.371094 121.191406 92.199219 120.929688 93.042969 C 120.667969 93.886719 120.445312 94.742188 120.261719 95.605469 C 120.078125 96.46875 119.933594 97.335938 119.828125 98.214844 C 119.722656 99.089844 119.660156 99.96875 119.632812 100.851562 C 119.609375 101.734375 119.625 102.617188 119.679688 103.496094 C 119.734375 104.378906 119.828125 105.257812 119.964844 106.128906 C 120.097656 107 120.273438 107.867188 120.484375 108.722656 C 120.699219 109.578125 120.949219 110.425781 121.242188 111.257812 C 121.53125 112.09375 121.859375 112.910156 122.222656 113.714844 L 143.246094 159.957031 C 143.332031 160.140625 143.367188 160.339844 143.351562 160.542969 C 143.335938 160.75 143.273438 160.9375 143.164062 161.109375 C 143.050781 161.28125 142.90625 161.417969 142.722656 161.515625 C 142.542969 161.617188 142.351562 161.664062 142.144531 161.664062 Z M 142.144531 161.664062 " fill-opacity="1" fill-rule="nonzero"/><path fill="#222433" d="M 218.792969 73.78125 L 142.011719 73.78125 C 141.851562 73.78125 141.695312 73.75 141.546875 73.6875 C 141.398438 73.625 141.269531 73.539062 141.15625 73.425781 C 141.042969 73.3125 140.953125 73.183594 140.890625 73.035156 C 140.832031 72.886719 140.800781 72.730469 140.800781 72.570312 C 140.800781 72.410156 140.832031 72.257812 140.890625 72.109375 C 140.953125 71.960938 141.042969 71.828125 141.15625 71.714844 C 141.269531 71.601562 141.398438 71.515625 141.546875 71.453125 C 141.695312 71.390625 141.851562 71.363281 142.011719 71.363281 L 218.792969 71.363281 C 218.953125 71.363281 219.105469 71.390625 219.253906 71.453125 C 219.402344 71.515625 219.535156 71.601562 219.648438 71.714844 C 219.761719 71.828125 219.847656 71.960938 219.910156 72.109375 C 219.972656 72.257812 220.003906 72.410156 220.003906 72.570312 C 220.003906 72.730469 219.972656 72.886719 219.910156 73.035156 C 219.847656 73.183594 219.761719 73.3125 219.648438 73.425781 C 219.535156 73.539062 219.402344 73.625 219.253906 73.6875 C 219.105469 73.75 218.953125 73.78125 218.792969 73.78125 Z M 218.792969 73.78125 " fill-opacity="1" fill-rule="nonzero"/><path fill="#222433" d="M 315.140625 147.464844 C 314.882812 147.464844 314.652344 147.390625 314.441406 147.246094 C 314.234375 147.097656 314.085938 146.902344 314 146.664062 C 310.070312 135.671875 303.226562 126.515625 293.65625 119.445312 L 233.179688 73.890625 C 233.050781 73.792969 232.945312 73.675781 232.863281 73.535156 C 232.78125 73.398438 232.730469 73.25 232.707031 73.089844 C 232.6875 72.933594 232.695312 72.777344 232.734375 72.621094 C 232.777344 72.464844 232.84375 72.324219 232.941406 72.195312 C 233.039062 72.066406 233.15625 71.960938 233.292969 71.882812 C 233.429688 71.800781 233.582031 71.746094 233.738281 71.726562 C 233.898438 71.703125 234.054688 71.710938 234.210938 71.753906 C 234.367188 71.792969 234.507812 71.859375 234.636719 71.957031 L 295.101562 117.507812 C 297.519531 119.28125 299.792969 121.222656 301.925781 123.332031 C 304.054688 125.441406 306.015625 127.699219 307.808594 130.097656 C 309.605469 132.5 311.210938 135.019531 312.628906 137.660156 C 314.050781 140.300781 315.265625 143.027344 316.28125 145.847656 C 316.347656 146.035156 316.367188 146.222656 316.339844 146.417969 C 316.3125 146.613281 316.242188 146.792969 316.128906 146.953125 C 316.015625 147.113281 315.871094 147.238281 315.699219 147.328125 C 315.523438 147.421875 315.335938 147.464844 315.140625 147.464844 Z M 315.140625 147.464844 " fill-opacity="1" fill-rule="nonzero"/><path fill="#222433" d="M 309.242188 155.789062 C 308.964844 155.789062 308.714844 155.703125 308.496094 155.527344 C 308.277344 155.355469 308.132812 155.136719 308.066406 154.863281 C 307.367188 151.988281 306.421875 149.195312 305.238281 146.480469 C 304.050781 143.769531 302.636719 141.179688 301 138.714844 C 299.359375 136.246094 297.523438 133.941406 295.484375 131.792969 C 293.441406 129.644531 291.234375 127.691406 288.851562 125.925781 L 218.070312 73.542969 C 217.941406 73.449219 217.832031 73.332031 217.746094 73.195312 C 217.660156 73.054688 217.605469 72.90625 217.582031 72.746094 C 217.554688 72.585938 217.5625 72.429688 217.601562 72.269531 C 217.640625 72.113281 217.707031 71.96875 217.804688 71.839844 C 217.902344 71.710938 218.019531 71.601562 218.160156 71.519531 C 218.296875 71.4375 218.449219 71.386719 218.609375 71.363281 C 218.769531 71.339844 218.925781 71.347656 219.085938 71.390625 C 219.242188 71.429688 219.382812 71.5 219.511719 71.597656 L 290.292969 123.984375 C 292.785156 125.828125 295.101562 127.878906 297.238281 130.125 C 299.375 132.375 301.300781 134.792969 303.015625 137.375 C 304.730469 139.960938 306.210938 142.671875 307.453125 145.511719 C 308.699219 148.351562 309.6875 151.28125 310.417969 154.292969 C 310.464844 154.472656 310.464844 154.652344 310.425781 154.835938 C 310.386719 155.015625 310.308594 155.179688 310.195312 155.328125 C 310.082031 155.472656 309.9375 155.585938 309.773438 155.667969 C 309.605469 155.746094 309.429688 155.789062 309.242188 155.789062 Z M 309.242188 155.789062 " fill-opacity="1" fill-rule="nonzero"/><path fill="#ffffff" d="M 309.675781 154.046875 L 273.570312 145.621094 C 268.769531 144.492188 262.664062 145.242188 258.882812 148.402344 C 246.769531 158.523438 245.808594 169.605469 252.871094 177.105469 C 255.101562 179.449219 257.777344 181.046875 260.902344 181.902344 L 285.832031 188.527344 C 285.972656 189.34375 286.152344 190.148438 286.367188 190.945312 C 286.582031 191.742188 286.832031 192.53125 287.113281 193.304688 C 287.394531 194.082031 287.710938 194.84375 288.0625 195.59375 C 288.410156 196.339844 288.792969 197.074219 289.207031 197.789062 C 289.621094 198.503906 290.0625 199.199219 290.539062 199.875 C 291.011719 200.550781 291.515625 201.207031 292.046875 201.839844 C 292.578125 202.472656 293.136719 203.082031 293.71875 203.664062 C 294.304688 204.25 294.914062 204.804688 295.546875 205.335938 C 296.179688 205.867188 296.835938 206.371094 297.511719 206.84375 C 298.1875 207.316406 298.886719 207.761719 299.601562 208.171875 C 300.316406 208.585938 301.050781 208.96875 301.800781 209.316406 C 302.546875 209.664062 303.3125 209.980469 304.089844 210.265625 C 304.867188 210.546875 305.652344 210.792969 306.453125 211.007812 C 307.25 211.222656 308.054688 211.402344 308.871094 211.542969 C 309.683594 211.6875 310.503906 211.796875 311.328125 211.867188 C 312.152344 211.941406 312.976562 211.976562 313.800781 211.976562 C 314.21875 211.976562 314.636719 211.96875 315.050781 211.949219 L 358.96875 197.1875 C 359.675781 196.753906 360.332031 196.257812 360.933594 195.6875 C 362.132812 194.636719 363.230469 193.488281 364.234375 192.25 C 365.238281 191.011719 366.132812 189.695312 366.914062 188.308594 C 367.699219 186.917969 368.359375 185.472656 368.898438 183.972656 C 369.4375 182.472656 369.84375 180.9375 370.125 179.367188 C 370.402344 177.796875 370.550781 176.214844 370.5625 174.621094 C 370.574219 173.027344 370.453125 171.445312 370.199219 169.871094 C 369.945312 168.296875 369.5625 166.753906 369.046875 165.246094 C 368.53125 163.738281 367.894531 162.28125 367.132812 160.878906 C 366.375 159.480469 365.503906 158.152344 364.519531 156.894531 C 363.535156 155.640625 362.453125 154.476562 361.269531 153.40625 C 360.089844 152.332031 358.828125 151.367188 357.484375 150.507812 C 356.140625 149.644531 354.734375 148.90625 353.265625 148.28125 C 351.796875 147.65625 350.289062 147.160156 348.734375 146.792969 C 347.183594 146.425781 345.609375 146.1875 344.019531 146.082031 C 342.425781 145.980469 340.835938 146.007812 339.25 146.171875 C 337.660156 146.335938 336.097656 146.632812 334.5625 147.058594 " fill-opacity="1" fill-rule="nonzero"/><path fill="#222433" d="M 313.800781 213.183594 C 312.957031 213.1875 312.113281 213.152344 311.269531 213.082031 C 310.425781 213.011719 309.585938 212.902344 308.753906 212.761719 C 307.917969 212.617188 307.09375 212.4375 306.273438 212.226562 C 305.457031 212.011719 304.648438 211.761719 303.851562 211.480469 C 303.054688 211.195312 302.269531 210.878906 301.5 210.53125 C 300.730469 210.179688 299.976562 209.796875 299.238281 209.382812 C 298.5 208.964844 297.785156 208.519531 297.085938 208.042969 C 296.386719 207.566406 295.710938 207.0625 295.054688 206.527344 C 294.398438 205.992188 293.769531 205.429688 293.160156 204.839844 C 292.554688 204.253906 291.972656 203.636719 291.417969 203 C 290.867188 202.359375 290.339844 201.699219 289.84375 201.015625 C 289.34375 200.332031 288.878906 199.628906 288.441406 198.902344 C 288.003906 198.179688 287.597656 197.4375 287.226562 196.679688 C 286.851562 195.921875 286.511719 195.148438 286.207031 194.359375 C 285.902344 193.570312 285.628906 192.773438 285.390625 191.960938 C 285.152344 191.148438 284.949219 190.328125 284.78125 189.5 L 260.589844 183.070312 C 257.246094 182.15625 254.382812 180.445312 251.992188 177.9375 C 248.625 174.359375 246.992188 170.054688 247.265625 165.472656 C 247.632812 159.316406 251.382812 153.09375 258.105469 147.472656 C 262.449219 143.84375 269.140625 143.335938 273.847656 144.441406 L 309.953125 152.871094 C 310.109375 152.910156 310.25 152.976562 310.378906 153.070312 C 310.507812 153.164062 310.613281 153.277344 310.695312 153.414062 C 310.777344 153.546875 310.832031 153.695312 310.859375 153.851562 C 310.882812 154.007812 310.878906 154.164062 310.84375 154.320312 C 310.804688 154.476562 310.742188 154.617188 310.648438 154.746094 C 310.558594 154.875 310.441406 154.984375 310.308594 155.070312 C 310.171875 155.152344 310.027344 155.210938 309.871094 155.238281 C 309.714844 155.265625 309.558594 155.261719 309.402344 155.226562 L 273.296875 146.796875 C 269.175781 145.828125 263.359375 146.234375 259.660156 149.328125 C 253.460938 154.511719 250.007812 160.144531 249.683594 165.617188 C 249.449219 169.515625 250.855469 173.199219 253.753906 176.273438 C 255.828125 178.453125 258.320312 179.941406 261.222656 180.738281 L 286.140625 187.359375 C 286.371094 187.421875 286.5625 187.539062 286.722656 187.710938 C 286.882812 187.882812 286.984375 188.085938 287.023438 188.320312 C 287.160156 189.097656 287.328125 189.871094 287.535156 190.636719 C 287.738281 191.398438 287.972656 192.152344 288.242188 192.898438 C 288.515625 193.640625 288.816406 194.371094 289.148438 195.089844 C 289.484375 195.804688 289.847656 196.507812 290.242188 197.191406 C 290.636719 197.878906 291.0625 198.542969 291.515625 199.191406 C 291.96875 199.839844 292.453125 200.46875 292.960938 201.074219 C 293.46875 201.679688 294.003906 202.265625 294.5625 202.824219 C 295.121094 203.382812 295.707031 203.917969 296.3125 204.425781 C 296.917969 204.933594 297.546875 205.414062 298.195312 205.867188 C 298.84375 206.320312 299.511719 206.746094 300.199219 207.140625 C 300.882812 207.535156 301.585938 207.902344 302.304688 208.234375 C 303.019531 208.570312 303.753906 208.871094 304.496094 209.140625 C 305.242188 209.410156 305.996094 209.648438 306.761719 209.851562 C 307.527344 210.054688 308.296875 210.226562 309.078125 210.359375 C 309.859375 210.496094 310.640625 210.597656 311.429688 210.667969 C 312.21875 210.734375 313.011719 210.769531 313.800781 210.765625 C 314.144531 210.765625 314.488281 210.761719 314.828125 210.746094 L 358.433594 196.089844 L 358.476562 196.058594 C 359.074219 195.691406 359.625 195.261719 360.132812 194.78125 C 361.28125 193.773438 362.335938 192.675781 363.296875 191.488281 C 364.257812 190.300781 365.113281 189.042969 365.859375 187.714844 C 366.609375 186.382812 367.242188 185 367.757812 183.5625 C 368.273438 182.128906 368.664062 180.65625 368.933594 179.15625 C 369.199219 177.652344 369.339844 176.136719 369.351562 174.613281 C 369.363281 173.085938 369.25 171.570312 369.003906 170.0625 C 368.761719 168.554688 368.394531 167.082031 367.902344 165.636719 C 367.40625 164.191406 366.796875 162.796875 366.070312 161.457031 C 365.34375 160.113281 364.507812 158.84375 363.566406 157.640625 C 362.621094 156.441406 361.585938 155.324219 360.457031 154.300781 C 359.324219 153.273438 358.117188 152.347656 356.832031 151.523438 C 355.546875 150.699219 354.199219 149.992188 352.792969 149.394531 C 351.386719 148.796875 349.941406 148.320312 348.453125 147.96875 C 346.96875 147.617188 345.464844 147.390625 343.9375 147.289062 C 342.414062 147.191406 340.890625 147.21875 339.371094 147.375 C 337.851562 147.53125 336.355469 147.816406 334.886719 148.222656 C 334.730469 148.265625 334.574219 148.273438 334.417969 148.253906 C 334.257812 148.234375 334.109375 148.183594 333.972656 148.105469 C 333.835938 148.023438 333.714844 147.921875 333.617188 147.796875 C 333.519531 147.671875 333.449219 147.53125 333.40625 147.378906 C 333.363281 147.226562 333.351562 147.070312 333.371094 146.910156 C 333.390625 146.753906 333.4375 146.605469 333.515625 146.464844 C 333.59375 146.324219 333.695312 146.207031 333.820312 146.109375 C 333.945312 146.007812 334.085938 145.9375 334.238281 145.894531 C 335.84375 145.441406 337.472656 145.128906 339.128906 144.957031 C 340.785156 144.78125 342.445312 144.746094 344.109375 144.851562 C 345.769531 144.957031 347.414062 145.203125 349.035156 145.582031 C 350.65625 145.964844 352.234375 146.480469 353.769531 147.128906 C 355.300781 147.777344 356.773438 148.550781 358.175781 149.449219 C 359.578125 150.34375 360.898438 151.351562 362.132812 152.472656 C 363.363281 153.589844 364.496094 154.804688 365.523438 156.113281 C 366.550781 157.425781 367.460938 158.8125 368.253906 160.273438 C 369.046875 161.738281 369.714844 163.257812 370.25 164.835938 C 370.789062 166.410156 371.1875 168.019531 371.453125 169.664062 C 371.71875 171.304688 371.839844 172.960938 371.828125 174.625 C 371.8125 176.289062 371.65625 177.941406 371.363281 179.578125 C 371.070312 181.214844 370.640625 182.820312 370.074219 184.382812 C 369.507812 185.949219 368.816406 187.457031 367.996094 188.90625 C 367.175781 190.355469 366.242188 191.726562 365.1875 193.015625 C 364.136719 194.308594 362.984375 195.5 361.730469 196.597656 C 361.140625 197.152344 360.503906 197.644531 359.816406 198.074219 L 359.640625 198.195312 C 359.550781 198.253906 359.457031 198.300781 359.355469 198.332031 L 315.433594 213.09375 C 315.328125 213.132812 315.214844 213.152344 315.101562 213.15625 C 314.667969 213.175781 314.230469 213.183594 313.800781 213.183594 Z M 313.800781 213.183594 " fill-opacity="1" fill-rule="nonzero"/><path fill="#ffffff" d="M 321.507812 174.363281 L 321.507812 179.644531 L 350.5625 178.152344 C 351.09375 178.125 351.621094 178.148438 352.148438 178.21875 C 352.675781 178.289062 353.191406 178.40625 353.695312 178.574219 C 354.199219 178.742188 354.683594 178.953125 355.148438 179.210938 C 355.613281 179.46875 356.050781 179.765625 356.460938 180.105469 C 356.871094 180.445312 357.246094 180.816406 357.585938 181.226562 C 357.925781 181.632812 358.222656 182.070312 358.480469 182.535156 C 358.738281 182.996094 358.953125 183.480469 359.121094 183.984375 C 359.289062 184.488281 359.410156 185.003906 359.480469 185.53125 L 360.894531 195.6875 " fill-opacity="1" fill-rule="nonzero"/><path fill="#222433" d="M 360.894531 196.898438 C 360.589844 196.898438 360.328125 196.800781 360.097656 196.601562 C 359.871094 196.402344 359.738281 196.15625 359.695312 195.855469 L 358.28125 185.695312 C 358.21875 185.246094 358.117188 184.804688 357.96875 184.375 C 357.824219 183.941406 357.640625 183.527344 357.417969 183.128906 C 357.195312 182.730469 356.941406 182.359375 356.648438 182.007812 C 356.355469 181.660156 356.035156 181.339844 355.683594 181.046875 C 355.335938 180.757812 354.960938 180.5 354.5625 180.28125 C 354.164062 180.058594 353.746094 179.875 353.316406 179.734375 C 352.882812 179.589844 352.441406 179.484375 351.988281 179.421875 C 351.539062 179.359375 351.085938 179.339844 350.628906 179.359375 L 321.574219 180.851562 C 321.226562 180.871094 320.925781 180.761719 320.675781 180.523438 C 320.425781 180.28125 320.300781 179.992188 320.300781 179.644531 L 320.300781 174.363281 C 320.300781 174.203125 320.332031 174.050781 320.394531 173.902344 C 320.453125 173.753906 320.542969 173.621094 320.65625 173.507812 C 320.769531 173.394531 320.898438 173.308594 321.046875 173.246094 C 321.195312 173.183594 321.351562 173.152344 321.511719 173.152344 C 321.671875 173.152344 321.824219 173.183594 321.972656 173.246094 C 322.121094 173.308594 322.253906 173.394531 322.367188 173.507812 C 322.480469 173.621094 322.566406 173.753906 322.628906 173.902344 C 322.691406 174.050781 322.722656 174.203125 322.722656 174.363281 L 322.722656 178.371094 L 350.503906 176.945312 C 351.109375 176.917969 351.710938 176.945312 352.308594 177.027344 C 352.910156 177.109375 353.496094 177.246094 354.074219 177.4375 C 354.648438 177.628906 355.199219 177.871094 355.730469 178.167969 C 356.257812 178.460938 356.757812 178.800781 357.222656 179.1875 C 357.691406 179.574219 358.117188 180 358.503906 180.464844 C 358.894531 180.929688 359.234375 181.425781 359.53125 181.953125 C 359.828125 182.480469 360.070312 183.03125 360.265625 183.605469 C 360.457031 184.179688 360.597656 184.765625 360.683594 185.367188 L 362.09375 195.523438 C 362.117188 195.683594 362.105469 195.839844 362.066406 195.996094 C 362.023438 196.148438 361.957031 196.292969 361.859375 196.417969 C 361.761719 196.546875 361.644531 196.652344 361.507812 196.730469 C 361.367188 196.8125 361.21875 196.863281 361.058594 196.886719 C 361.003906 196.894531 360.949219 196.898438 360.894531 196.898438 Z M 360.894531 196.898438 " fill-opacity="1" fill-rule="nonzero"/><path fill="#ffffff" d="M 308.917969 158.84375 C 308.921875 158.3125 308.949219 157.789062 309.003906 157.261719 C 309.054688 156.738281 309.136719 156.214844 309.246094 155.699219 C 309.351562 155.179688 309.488281 154.671875 309.648438 154.167969 C 309.808594 153.664062 309.992188 153.171875 310.203125 152.6875 C 310.414062 152.203125 310.648438 151.730469 310.90625 151.269531 C 311.164062 150.808594 311.445312 150.363281 311.75 149.929688 C 312.054688 149.5 312.382812 149.082031 312.730469 148.683594 C 313.074219 148.285156 313.441406 147.90625 313.828125 147.546875 C 314.214844 147.183594 314.617188 146.84375 315.039062 146.523438 C 315.457031 146.203125 315.894531 145.90625 316.34375 145.628906 C 316.796875 145.355469 317.261719 145.105469 317.738281 144.875 C 318.214844 144.648438 318.699219 144.445312 319.199219 144.265625 C 319.695312 144.085938 320.203125 143.933594 320.714844 143.808594 C 321.226562 143.683594 321.746094 143.582031 322.269531 143.507812 C 322.792969 143.433594 323.320312 143.386719 323.847656 143.367188 C 324.375 143.347656 324.902344 143.351562 325.429688 143.386719 C 325.957031 143.421875 326.484375 143.480469 327.003906 143.570312 C 327.527344 143.65625 328.042969 143.769531 328.550781 143.910156 C 329.0625 144.050781 329.5625 144.214844 330.054688 144.40625 C 330.546875 144.597656 331.03125 144.8125 331.5 145.054688 C 331.972656 145.292969 332.429688 145.558594 332.871094 145.84375 C 333.316406 146.132812 333.742188 146.441406 334.15625 146.769531 C 334.566406 147.101562 334.960938 147.453125 335.339844 147.824219 C 335.714844 148.195312 336.070312 148.585938 336.40625 148.992188 C 336.746094 149.398438 337.058594 149.824219 337.351562 150.261719 C 337.644531 150.703125 337.914062 151.15625 338.160156 151.621094 C 338.410156 152.089844 338.632812 152.566406 338.828125 153.058594 C 339.027344 153.546875 339.199219 154.046875 339.347656 154.550781 C 339.492188 155.058594 339.613281 155.574219 339.707031 156.09375 C 339.800781 156.613281 339.871094 157.136719 339.910156 157.664062 C 339.953125 158.1875 339.964844 158.714844 339.953125 159.246094 C 339.9375 159.773438 339.898438 160.296875 339.832031 160.820312 C 339.765625 161.347656 339.671875 161.863281 339.550781 162.378906 C 339.429688 162.894531 339.285156 163.402344 339.113281 163.898438 C 338.941406 164.398438 338.746094 164.890625 338.523438 165.367188 C 338.300781 165.847656 338.054688 166.316406 337.785156 166.769531 C 337.515625 167.222656 337.222656 167.664062 336.910156 168.085938 C 336.59375 168.511719 336.257812 168.917969 335.902344 169.308594 C 335.546875 169.699219 335.171875 170.070312 334.777344 170.421875 C 334.382812 170.773438 333.972656 171.105469 333.542969 171.414062 C 333.113281 171.722656 332.671875 172.011719 332.214844 172.277344 C 331.757812 172.539062 331.289062 172.78125 330.804688 173 C 330.324219 173.214844 329.832031 173.40625 329.328125 173.574219 C 328.828125 173.738281 328.320312 173.878906 327.804688 173.996094 C 327.285156 174.109375 326.765625 174.195312 326.242188 174.257812 C 325.714844 174.320312 325.191406 174.355469 324.660156 174.363281 C 324.132812 174.371094 323.605469 174.351562 323.078125 174.304688 C 322.550781 174.257812 322.027344 174.183594 321.507812 174.085938 " fill-opacity="1" fill-rule="nonzero"/><path fill="#222433" d="M 324.457031 175.574219 C 323.386719 175.574219 322.328125 175.472656 321.28125 175.273438 C 321.121094 175.242188 320.976562 175.183594 320.839844 175.097656 C 320.703125 175.007812 320.589844 174.898438 320.5 174.765625 C 320.410156 174.632812 320.347656 174.488281 320.3125 174.328125 C 320.28125 174.171875 320.28125 174.011719 320.308594 173.855469 C 320.339844 173.695312 320.398438 173.550781 320.488281 173.414062 C 320.578125 173.28125 320.691406 173.167969 320.824219 173.078125 C 320.957031 172.988281 321.105469 172.929688 321.261719 172.894531 C 321.421875 172.863281 321.578125 172.863281 321.738281 172.898438 C 322.21875 172.988281 322.699219 173.058594 323.1875 173.101562 C 323.671875 173.144531 324.160156 173.160156 324.648438 173.15625 C 325.136719 173.148438 325.621094 173.117188 326.105469 173.0625 C 326.59375 173.003906 327.074219 172.925781 327.550781 172.820312 C 328.027344 172.714844 328.496094 172.585938 328.960938 172.429688 C 329.421875 172.277344 329.878906 172.101562 330.324219 171.902344 C 330.769531 171.703125 331.203125 171.480469 331.625 171.234375 C 332.046875 170.992188 332.457031 170.726562 332.851562 170.441406 C 333.246094 170.15625 333.628906 169.847656 333.992188 169.523438 C 334.355469 169.199219 334.703125 168.855469 335.03125 168.496094 C 335.359375 168.136719 335.671875 167.761719 335.960938 167.371094 C 336.253906 166.976562 336.523438 166.570312 336.773438 166.152344 C 337.019531 165.734375 337.25 165.300781 337.453125 164.859375 C 337.660156 164.417969 337.839844 163.964844 338 163.503906 C 338.160156 163.042969 338.292969 162.574219 338.40625 162.101562 C 338.515625 161.625 338.601562 161.144531 338.664062 160.664062 C 338.726562 160.179688 338.761719 159.691406 338.777344 159.207031 C 338.789062 158.71875 338.773438 158.230469 338.738281 157.746094 C 338.699219 157.257812 338.636719 156.773438 338.550781 156.296875 C 338.464844 155.816406 338.351562 155.339844 338.21875 154.871094 C 338.082031 154.402344 337.921875 153.945312 337.738281 153.492188 C 337.558594 153.039062 337.351562 152.597656 337.125 152.167969 C 336.894531 151.734375 336.648438 151.316406 336.375 150.910156 C 336.105469 150.503906 335.816406 150.113281 335.503906 149.738281 C 335.195312 149.359375 334.863281 149 334.515625 148.660156 C 334.167969 148.316406 333.804688 147.992188 333.425781 147.6875 C 333.042969 147.382812 332.648438 147.097656 332.238281 146.832031 C 331.828125 146.566406 331.40625 146.324219 330.972656 146.101562 C 330.539062 145.878906 330.09375 145.679688 329.636719 145.503906 C 329.183594 145.328125 328.71875 145.175781 328.25 145.046875 C 327.777344 144.914062 327.300781 144.8125 326.820312 144.730469 C 326.339844 144.648438 325.855469 144.59375 325.367188 144.5625 C 324.878906 144.53125 324.394531 144.527344 323.90625 144.542969 C 323.417969 144.5625 322.933594 144.605469 322.449219 144.675781 C 321.964844 144.742188 321.488281 144.835938 321.011719 144.953125 C 320.539062 145.070312 320.074219 145.210938 319.613281 145.375 C 319.152344 145.542969 318.703125 145.730469 318.261719 145.941406 C 317.824219 146.152344 317.394531 146.382812 316.976562 146.636719 C 316.5625 146.894531 316.160156 147.167969 315.769531 147.464844 C 315.382812 147.757812 315.011719 148.074219 314.65625 148.40625 C 314.300781 148.742188 313.960938 149.09375 313.640625 149.460938 C 313.320312 149.828125 313.019531 150.210938 312.738281 150.609375 C 312.457031 151.007812 312.199219 151.421875 311.960938 151.847656 C 311.722656 152.273438 311.503906 152.710938 311.308594 153.15625 C 311.117188 153.605469 310.945312 154.058594 310.796875 154.523438 C 310.652344 154.988281 310.527344 155.460938 310.429688 155.9375 C 310.328125 156.417969 310.253906 156.898438 310.207031 157.382812 C 310.15625 157.867188 310.128906 158.355469 310.128906 158.84375 C 310.128906 159.003906 310.097656 159.15625 310.039062 159.304688 C 309.976562 159.453125 309.890625 159.585938 309.777344 159.699219 C 309.660156 159.8125 309.53125 159.898438 309.382812 159.960938 C 309.234375 160.019531 309.082031 160.050781 308.917969 160.050781 C 308.757812 160.050781 308.605469 160.019531 308.457031 159.960938 C 308.308594 159.898438 308.175781 159.8125 308.0625 159.699219 C 307.949219 159.585938 307.863281 159.453125 307.800781 159.304688 C 307.738281 159.15625 307.710938 159.003906 307.710938 158.84375 C 307.710938 158.292969 307.734375 157.746094 307.789062 157.203125 C 307.84375 156.65625 307.921875 156.117188 308.03125 155.578125 C 308.136719 155.042969 308.269531 154.511719 308.429688 153.984375 C 308.589844 153.460938 308.773438 152.945312 308.984375 152.441406 C 309.195312 151.933594 309.429688 151.4375 309.6875 150.957031 C 309.945312 150.472656 310.226562 150.003906 310.53125 149.546875 C 310.835938 149.09375 311.164062 148.652344 311.511719 148.230469 C 311.859375 147.804688 312.226562 147.398438 312.613281 147.011719 C 313 146.625 313.40625 146.257812 313.832031 145.910156 C 314.253906 145.5625 314.695312 145.234375 315.152344 144.933594 C 315.609375 144.628906 316.078125 144.347656 316.5625 144.085938 C 317.042969 143.828125 317.539062 143.59375 318.046875 143.386719 C 318.554688 143.175781 319.070312 142.992188 319.59375 142.832031 C 320.117188 142.671875 320.648438 142.539062 321.1875 142.433594 C 321.726562 142.328125 322.269531 142.246094 322.8125 142.191406 C 323.359375 142.140625 323.90625 142.113281 324.457031 142.113281 C 325.003906 142.113281 325.550781 142.140625 326.097656 142.191406 C 326.640625 142.246094 327.183594 142.328125 327.722656 142.433594 C 328.261719 142.539062 328.792969 142.671875 329.316406 142.832031 C 329.839844 142.992188 330.355469 143.175781 330.863281 143.386719 C 331.371094 143.59375 331.867188 143.828125 332.347656 144.085938 C 332.832031 144.347656 333.304688 144.628906 333.757812 144.933594 C 334.214844 145.234375 334.65625 145.5625 335.078125 145.910156 C 335.503906 146.257812 335.910156 146.625 336.296875 147.011719 C 336.683594 147.398438 337.050781 147.804688 337.398438 148.230469 C 337.746094 148.652344 338.074219 149.09375 338.378906 149.546875 C 338.683594 150.003906 338.964844 150.472656 339.222656 150.957031 C 339.484375 151.4375 339.714844 151.933594 339.925781 152.441406 C 340.136719 152.945312 340.320312 153.460938 340.480469 153.984375 C 340.640625 154.511719 340.773438 155.042969 340.878906 155.578125 C 340.988281 156.117188 341.066406 156.65625 341.121094 157.203125 C 341.175781 157.746094 341.203125 158.292969 341.203125 158.84375 C 341.203125 159.390625 341.175781 159.9375 341.121094 160.480469 C 341.066406 161.027344 340.988281 161.570312 340.878906 162.105469 C 340.773438 162.644531 340.640625 163.175781 340.480469 163.699219 C 340.320312 164.222656 340.136719 164.738281 339.925781 165.246094 C 339.714844 165.75 339.484375 166.246094 339.222656 166.730469 C 338.964844 167.210938 338.683594 167.679688 338.378906 168.136719 C 338.074219 168.59375 337.746094 169.03125 337.398438 169.457031 C 337.050781 169.878906 336.683594 170.285156 336.296875 170.671875 C 335.910156 171.058594 335.503906 171.425781 335.078125 171.773438 C 334.65625 172.121094 334.214844 172.449219 333.757812 172.753906 C 333.304688 173.058594 332.832031 173.339844 332.347656 173.597656 C 331.867188 173.855469 331.371094 174.089844 330.863281 174.300781 C 330.355469 174.507812 329.839844 174.691406 329.316406 174.851562 C 328.792969 175.011719 328.261719 175.144531 327.722656 175.25 C 327.183594 175.359375 326.640625 175.4375 326.097656 175.492188 C 325.550781 175.546875 325.003906 175.574219 324.457031 175.574219 Z M 324.457031 175.574219 " fill-opacity="1" fill-rule="nonzero"/><path fill="#222433" d="M 309.203125 201.777344 C 308.964844 201.777344 308.75 201.714844 308.550781 201.585938 C 308.351562 201.460938 308.199219 201.289062 308.101562 201.074219 L 307.617188 200.027344 C 307.054688 198.777344 306.652344 197.480469 306.414062 196.132812 C 306.175781 194.785156 306.101562 193.429688 306.203125 192.066406 C 306.300781 190.699219 306.566406 189.367188 306.996094 188.070312 C 307.425781 186.769531 308.011719 185.542969 308.746094 184.390625 L 310.367188 181.925781 C 310.457031 181.789062 310.566406 181.679688 310.699219 181.589844 C 310.832031 181.5 310.976562 181.4375 311.132812 181.40625 C 311.289062 181.375 311.445312 181.375 311.605469 181.402344 C 311.761719 181.433594 311.90625 181.492188 312.039062 181.578125 C 312.175781 181.667969 312.285156 181.777344 312.378906 181.910156 C 312.46875 182.042969 312.527344 182.1875 312.5625 182.34375 C 312.59375 182.5 312.597656 182.65625 312.566406 182.8125 C 312.539062 182.972656 312.480469 183.117188 312.390625 183.25 L 310.777344 185.710938 C 310.152344 186.691406 309.65625 187.734375 309.289062 188.839844 C 308.921875 189.945312 308.695312 191.082031 308.613281 192.242188 C 308.527344 193.402344 308.589844 194.558594 308.792969 195.703125 C 308.996094 196.851562 309.339844 197.953125 309.816406 199.015625 L 310.300781 200.058594 C 310.386719 200.246094 310.425781 200.445312 310.410156 200.648438 C 310.394531 200.855469 310.332031 201.046875 310.222656 201.21875 C 310.113281 201.394531 309.964844 201.527344 309.785156 201.628906 C 309.601562 201.726562 309.410156 201.777344 309.203125 201.777344 Z M 309.203125 201.777344 " fill-opacity="1" fill-rule="nonzero"/><path fill="#222433" d="M 324.414062 163.277344 C 324.394531 163.277344 324.371094 163.277344 324.347656 163.277344 C 324.109375 163.265625 323.894531 163.1875 323.703125 163.046875 C 323.511719 162.910156 323.371094 162.726562 323.285156 162.507812 L 320.378906 155.007812 C 320.320312 154.859375 320.292969 154.703125 320.296875 154.542969 C 320.300781 154.382812 320.335938 154.226562 320.398438 154.082031 C 320.464844 153.933594 320.554688 153.804688 320.671875 153.691406 C 320.789062 153.582031 320.921875 153.496094 321.070312 153.441406 C 321.222656 153.382812 321.378906 153.355469 321.539062 153.359375 C 321.699219 153.363281 321.851562 153.398438 322 153.460938 C 322.148438 153.527344 322.277344 153.617188 322.386719 153.734375 C 322.496094 153.851562 322.582031 153.984375 322.640625 154.132812 L 324.578125 159.132812 L 327.859375 152.804688 C 327.9375 152.664062 328.035156 152.542969 328.15625 152.445312 C 328.28125 152.34375 328.417969 152.269531 328.570312 152.222656 C 328.722656 152.175781 328.875 152.160156 329.035156 152.175781 C 329.191406 152.1875 329.34375 152.234375 329.484375 152.304688 C 329.625 152.378906 329.746094 152.476562 329.847656 152.597656 C 329.949219 152.71875 330.027344 152.851562 330.078125 153.003906 C 330.125 153.15625 330.144531 153.308594 330.132812 153.46875 C 330.121094 153.625 330.082031 153.773438 330.011719 153.917969 L 325.492188 162.625 C 325.386719 162.824219 325.238281 162.984375 325.042969 163.101562 C 324.851562 163.21875 324.640625 163.277344 324.414062 163.277344 Z M 324.414062 163.277344 " fill-opacity="1" fill-rule="nonzero"/><path fill="#222433" d="M 287.460938 260.605469 C 287.195312 260.605469 286.953125 260.527344 286.738281 260.371094 C 286.527344 260.214844 286.378906 260.007812 286.300781 259.753906 C 286.222656 259.5 286.226562 259.246094 286.316406 258.996094 C 286.402344 258.746094 286.558594 258.546875 286.777344 258.398438 L 316.535156 238.199219 C 316.664062 238.109375 316.8125 238.046875 316.96875 238.015625 C 317.125 237.980469 317.285156 237.980469 317.441406 238.011719 C 317.597656 238.039062 317.746094 238.101562 317.878906 238.1875 C 318.015625 238.277344 318.125 238.386719 318.214844 238.519531 C 318.308594 238.652344 318.367188 238.796875 318.402344 238.953125 C 318.433594 239.113281 318.433594 239.269531 318.402344 239.425781 C 318.375 239.585938 318.316406 239.730469 318.226562 239.863281 C 318.136719 240 318.027344 240.109375 317.894531 240.199219 L 288.140625 260.398438 C 287.933594 260.539062 287.707031 260.605469 287.460938 260.605469 Z M 287.460938 260.605469 " fill-opacity="1" fill-rule="nonzero"/><path fill="#ffffff" d="M 371.101562 222.257812 C 371.101562 223.203125 371.054688 224.144531 370.964844 225.085938 C 370.871094 226.027344 370.730469 226.960938 370.546875 227.886719 C 370.363281 228.8125 370.132812 229.730469 369.859375 230.636719 C 369.582031 231.539062 369.265625 232.429688 368.902344 233.300781 C 368.539062 234.175781 368.136719 235.027344 367.691406 235.863281 C 367.246094 236.695312 366.757812 237.507812 366.234375 238.292969 C 365.707031 239.078125 365.144531 239.835938 364.542969 240.566406 C 363.945312 241.296875 363.308594 241.996094 362.640625 242.667969 C 361.972656 243.335938 361.269531 243.96875 360.539062 244.570312 C 359.808594 245.167969 359.046875 245.730469 358.261719 246.257812 C 357.476562 246.78125 356.664062 247.265625 355.828125 247.710938 C 354.996094 248.15625 354.140625 248.5625 353.265625 248.921875 C 352.390625 249.285156 351.503906 249.601562 350.597656 249.878906 C 349.691406 250.152344 348.773438 250.382812 347.847656 250.566406 C 346.917969 250.75 345.984375 250.890625 345.042969 250.980469 C 344.101562 251.074219 343.15625 251.121094 342.210938 251.121094 C 341.265625 251.121094 340.320312 251.074219 339.378906 250.980469 C 338.4375 250.890625 337.5 250.75 336.574219 250.566406 C 335.644531 250.382812 334.730469 250.152344 333.824219 249.878906 C 332.917969 249.601562 332.027344 249.285156 331.152344 248.921875 C 330.28125 248.5625 329.425781 248.15625 328.589844 247.710938 C 327.757812 247.265625 326.945312 246.78125 326.160156 246.257812 C 325.371094 245.730469 324.613281 245.167969 323.882812 244.570312 C 323.148438 243.96875 322.449219 243.335938 321.78125 242.667969 C 321.109375 241.996094 320.476562 241.296875 319.875 240.566406 C 319.277344 239.835938 318.714844 239.078125 318.1875 238.292969 C 317.660156 237.507812 317.175781 236.695312 316.730469 235.863281 C 316.285156 235.027344 315.878906 234.175781 315.515625 233.300781 C 315.15625 232.429688 314.835938 231.539062 314.5625 230.636719 C 314.289062 229.730469 314.058594 228.8125 313.875 227.886719 C 313.6875 226.960938 313.550781 226.027344 313.457031 225.085938 C 313.363281 224.144531 313.316406 223.203125 313.316406 222.257812 C 313.316406 221.3125 313.363281 220.367188 313.457031 219.425781 C 313.550781 218.484375 313.6875 217.550781 313.875 216.625 C 314.058594 215.699219 314.289062 214.78125 314.5625 213.878906 C 314.835938 212.972656 315.15625 212.082031 315.515625 211.210938 C 315.878906 210.335938 316.285156 209.484375 316.730469 208.648438 C 317.175781 207.816406 317.660156 207.003906 318.1875 206.21875 C 318.710938 205.433594 319.277344 204.675781 319.875 203.945312 C 320.476562 203.214844 321.109375 202.515625 321.78125 201.84375 C 322.449219 201.175781 323.148438 200.542969 323.882812 199.941406 C 324.613281 199.34375 325.371094 198.78125 326.160156 198.253906 C 326.945312 197.730469 327.757812 197.246094 328.589844 196.800781 C 329.425781 196.355469 330.28125 195.949219 331.152344 195.589844 C 332.027344 195.226562 332.917969 194.910156 333.824219 194.632812 C 334.730469 194.359375 335.644531 194.128906 336.574219 193.945312 C 337.5 193.761719 338.4375 193.621094 339.378906 193.53125 C 340.320312 193.4375 341.265625 193.390625 342.210938 193.390625 C 343.15625 193.390625 344.101562 193.4375 345.042969 193.53125 C 345.984375 193.621094 346.917969 193.761719 347.847656 193.945312 C 348.773438 194.128906 349.691406 194.359375 350.597656 194.632812 C 351.503906 194.910156 352.390625 195.226562 353.265625 195.589844 C 354.140625 195.949219 354.996094 196.355469 355.828125 196.800781 C 356.664062 197.246094 357.476562 197.730469 358.261719 198.253906 C 359.046875 198.78125 359.808594 199.34375 360.539062 199.941406 C 361.269531 200.542969 361.972656 201.175781 362.640625 201.84375 C 363.308594 202.515625 363.945312 203.214844 364.542969 203.945312 C 365.144531 204.675781 365.707031 205.433594 366.234375 206.21875 C 366.757812 207.003906 367.246094 207.816406 367.691406 208.648438 C 368.136719 209.484375 368.539062 210.335938 368.902344 211.210938 C 369.265625 212.082031 369.582031 212.972656 369.859375 213.878906 C 370.132812 214.78125 370.363281 215.699219 370.546875 216.625 C 370.730469 217.550781 370.871094 218.484375 370.964844 219.425781 C 371.054688 220.367188 371.101562 221.3125 371.101562 222.257812 Z M 371.101562 222.257812 " fill-opacity="1" fill-rule="nonzero"/><path fill="#222433" d="M 342.210938 252.332031 C 341.222656 252.332031 340.242188 252.28125 339.257812 252.1875 C 338.277344 252.089844 337.304688 251.945312 336.335938 251.753906 C 335.371094 251.558594 334.414062 251.320312 333.472656 251.035156 C 332.527344 250.75 331.601562 250.417969 330.691406 250.042969 C 329.78125 249.664062 328.890625 249.242188 328.019531 248.78125 C 327.148438 248.316406 326.304688 247.808594 325.484375 247.261719 C 324.667969 246.714844 323.875 246.128906 323.113281 245.503906 C 322.351562 244.878906 321.621094 244.21875 320.925781 243.523438 C 320.226562 242.824219 319.566406 242.097656 318.941406 241.335938 C 318.316406 240.574219 317.726562 239.785156 317.179688 238.964844 C 316.632812 238.144531 316.125 237.300781 315.660156 236.433594 C 315.195312 235.566406 314.777344 234.675781 314.398438 233.765625 C 314.023438 232.855469 313.691406 231.929688 313.402344 230.988281 C 313.117188 230.042969 312.878906 229.089844 312.6875 228.125 C 312.492188 227.15625 312.347656 226.183594 312.253906 225.203125 C 312.15625 224.222656 312.105469 223.242188 312.105469 222.257812 C 312.105469 221.269531 312.15625 220.289062 312.253906 219.308594 C 312.347656 218.328125 312.492188 217.355469 312.6875 216.390625 C 312.878906 215.421875 313.117188 214.46875 313.402344 213.527344 C 313.691406 212.582031 314.023438 211.65625 314.398438 210.746094 C 314.777344 209.835938 315.195312 208.949219 315.660156 208.078125 C 316.125 207.210938 316.632812 206.367188 317.179688 205.546875 C 317.726562 204.730469 318.316406 203.9375 318.941406 203.175781 C 319.566406 202.417969 320.226562 201.6875 320.925781 200.992188 C 321.621094 200.292969 322.351562 199.632812 323.113281 199.007812 C 323.875 198.382812 324.667969 197.796875 325.484375 197.25 C 326.304688 196.703125 327.148438 196.199219 328.019531 195.734375 C 328.890625 195.269531 329.78125 194.847656 330.691406 194.472656 C 331.601562 194.09375 332.527344 193.761719 333.472656 193.476562 C 334.414062 193.191406 335.371094 192.953125 336.335938 192.761719 C 337.304688 192.566406 338.277344 192.421875 339.257812 192.328125 C 340.242188 192.230469 341.222656 192.183594 342.210938 192.183594 C 343.195312 192.183594 344.179688 192.230469 345.160156 192.328125 C 346.140625 192.421875 347.117188 192.566406 348.082031 192.761719 C 349.050781 192.953125 350.003906 193.191406 350.949219 193.476562 C 351.890625 193.761719 352.820312 194.09375 353.730469 194.472656 C 354.640625 194.847656 355.53125 195.269531 356.402344 195.734375 C 357.269531 196.199219 358.113281 196.703125 358.933594 197.25 C 359.753906 197.796875 360.542969 198.382812 361.308594 199.007812 C 362.070312 199.632812 362.796875 200.292969 363.496094 200.992188 C 364.191406 201.6875 364.855469 202.417969 365.480469 203.175781 C 366.105469 203.9375 366.691406 204.730469 367.238281 205.546875 C 367.789062 206.367188 368.292969 207.210938 368.757812 208.078125 C 369.222656 208.949219 369.644531 209.835938 370.019531 210.746094 C 370.398438 211.65625 370.730469 212.582031 371.015625 213.527344 C 371.304688 214.46875 371.542969 215.421875 371.734375 216.390625 C 371.925781 217.355469 372.070312 218.328125 372.167969 219.308594 C 372.265625 220.289062 372.3125 221.269531 372.3125 222.257812 C 372.3125 223.242188 372.261719 224.222656 372.164062 225.203125 C 372.066406 226.183594 371.921875 227.15625 371.730469 228.121094 C 371.535156 229.085938 371.296875 230.039062 371.007812 230.984375 C 370.722656 231.925781 370.390625 232.851562 370.011719 233.761719 C 369.632812 234.667969 369.214844 235.558594 368.75 236.425781 C 368.285156 237.292969 367.777344 238.136719 367.230469 238.957031 C 366.679688 239.773438 366.09375 240.566406 365.46875 241.324219 C 364.84375 242.085938 364.183594 242.816406 363.484375 243.511719 C 362.789062 244.207031 362.058594 244.867188 361.296875 245.492188 C 360.535156 246.117188 359.746094 246.703125 358.925781 247.25 C 358.105469 247.796875 357.261719 248.304688 356.394531 248.769531 C 355.523438 249.234375 354.636719 249.65625 353.722656 250.03125 C 352.8125 250.410156 351.886719 250.742188 350.945312 251.027344 C 350 251.3125 349.046875 251.554688 348.082031 251.746094 C 347.113281 251.941406 346.140625 252.085938 345.160156 252.183594 C 344.179688 252.28125 343.195312 252.328125 342.210938 252.332031 Z M 342.210938 194.601562 C 341.304688 194.601562 340.398438 194.644531 339.496094 194.734375 C 338.59375 194.824219 337.699219 194.957031 336.808594 195.132812 C 335.921875 195.308594 335.042969 195.527344 334.175781 195.792969 C 333.308594 196.054688 332.453125 196.359375 331.617188 196.707031 C 330.777344 197.054688 329.960938 197.441406 329.160156 197.867188 C 328.363281 198.292969 327.585938 198.757812 326.832031 199.261719 C 326.078125 199.765625 325.351562 200.304688 324.648438 200.878906 C 323.949219 201.453125 323.277344 202.0625 322.636719 202.699219 C 321.996094 203.339844 321.386719 204.011719 320.8125 204.710938 C 320.238281 205.414062 319.699219 206.140625 319.195312 206.890625 C 318.691406 207.644531 318.222656 208.421875 317.796875 209.21875 C 317.371094 210.019531 316.984375 210.835938 316.636719 211.671875 C 316.289062 212.511719 315.984375 213.363281 315.71875 214.226562 C 315.457031 215.09375 315.238281 215.972656 315.058594 216.859375 C 314.882812 217.75 314.75 218.644531 314.660156 219.546875 C 314.574219 220.445312 314.527344 221.351562 314.527344 222.257812 C 314.527344 223.160156 314.574219 224.066406 314.660156 224.96875 C 314.75 225.867188 314.882812 226.761719 315.058594 227.652344 C 315.238281 228.539062 315.457031 229.417969 315.71875 230.285156 C 315.984375 231.152344 316.289062 232.003906 316.636719 232.839844 C 316.984375 233.675781 317.371094 234.496094 317.796875 235.292969 C 318.222656 236.089844 318.691406 236.867188 319.195312 237.621094 C 319.699219 238.375 320.238281 239.101562 320.8125 239.800781 C 321.386719 240.5 321.996094 241.171875 322.636719 241.8125 C 323.277344 242.453125 323.949219 243.058594 324.648438 243.632812 C 325.351562 244.207031 326.078125 244.746094 326.832031 245.25 C 327.585938 245.753906 328.363281 246.21875 329.160156 246.644531 C 329.960938 247.074219 330.777344 247.460938 331.617188 247.804688 C 332.453125 248.152344 333.308594 248.457031 334.175781 248.722656 C 335.042969 248.984375 335.921875 249.203125 336.808594 249.378906 C 337.699219 249.558594 338.59375 249.691406 339.496094 249.777344 C 340.398438 249.867188 341.304688 249.910156 342.210938 249.910156 C 343.117188 249.910156 344.019531 249.867188 344.921875 249.777344 C 345.824219 249.691406 346.722656 249.558594 347.609375 249.378906 C 348.5 249.203125 349.378906 248.984375 350.246094 248.722656 C 351.113281 248.457031 351.964844 248.152344 352.804688 247.804688 C 353.640625 247.460938 354.460938 247.074219 355.257812 246.644531 C 356.058594 246.21875 356.835938 245.753906 357.589844 245.25 C 358.34375 244.746094 359.070312 244.207031 359.769531 243.632812 C 360.472656 243.058594 361.144531 242.453125 361.785156 241.8125 C 362.425781 241.171875 363.03125 240.5 363.609375 239.800781 C 364.183594 239.101562 364.722656 238.375 365.226562 237.621094 C 365.730469 236.867188 366.195312 236.089844 366.625 235.292969 C 367.050781 234.496094 367.4375 233.675781 367.785156 232.839844 C 368.132812 232.003906 368.4375 231.152344 368.699219 230.285156 C 368.960938 229.417969 369.183594 228.539062 369.359375 227.652344 C 369.535156 226.761719 369.667969 225.867188 369.757812 224.96875 C 369.847656 224.066406 369.890625 223.160156 369.890625 222.257812 C 369.890625 221.351562 369.84375 220.449219 369.753906 219.546875 C 369.664062 218.644531 369.53125 217.75 369.355469 216.863281 C 369.175781 215.976562 368.957031 215.097656 368.691406 214.230469 C 368.429688 213.367188 368.125 212.515625 367.777344 211.679688 C 367.429688 210.839844 367.042969 210.023438 366.613281 209.226562 C 366.1875 208.425781 365.722656 207.652344 365.21875 206.898438 C 364.714844 206.144531 364.175781 205.421875 363.597656 204.71875 C 363.023438 204.019531 362.414062 203.351562 361.773438 202.710938 C 361.132812 202.070312 360.464844 201.460938 359.761719 200.886719 C 359.0625 200.3125 358.335938 199.773438 357.582031 199.269531 C 356.828125 198.769531 356.050781 198.300781 355.253906 197.875 C 354.453125 197.449219 353.636719 197.0625 352.796875 196.714844 C 351.960938 196.367188 351.109375 196.0625 350.242188 195.796875 C 349.375 195.535156 348.496094 195.316406 347.609375 195.136719 C 346.71875 194.960938 345.824219 194.828125 344.921875 194.738281 C 344.019531 194.648438 343.117188 194.601562 342.210938 194.601562 Z M 342.210938 194.601562 " fill-opacity="1" fill-rule="nonzero"/><path fill="#222433" d="M 323.40625 211.691406 C 323.199219 211.691406 323.007812 211.640625 322.824219 211.542969 C 322.644531 211.441406 322.5 211.308594 322.386719 211.132812 C 322.277344 210.960938 322.214844 210.769531 322.199219 210.566406 C 322.1875 210.359375 322.222656 210.164062 322.308594 209.976562 C 322.828125 209 323.445312 208.089844 324.15625 207.242188 C 324.867188 206.394531 325.65625 205.628906 326.527344 204.949219 C 327.398438 204.265625 328.332031 203.683594 329.324219 203.195312 C 330.316406 202.707031 331.347656 202.328125 332.421875 202.058594 C 332.578125 202.015625 332.734375 202.007812 332.894531 202.03125 C 333.050781 202.050781 333.203125 202.101562 333.339844 202.183594 C 333.476562 202.265625 333.597656 202.367188 333.691406 202.496094 C 333.789062 202.625 333.859375 202.765625 333.898438 202.921875 C 333.941406 203.078125 333.949219 203.234375 333.929688 203.390625 C 333.90625 203.550781 333.855469 203.699219 333.773438 203.839844 C 333.691406 203.976562 333.589844 204.09375 333.460938 204.191406 C 333.332031 204.289062 333.191406 204.355469 333.035156 204.398438 C 331.214844 204.851562 329.558594 205.652344 328.074219 206.800781 C 326.589844 207.949219 325.398438 209.347656 324.503906 210.996094 C 324.402344 211.207031 324.253906 211.378906 324.054688 211.503906 C 323.855469 211.628906 323.640625 211.691406 323.40625 211.691406 Z M 323.40625 211.691406 " fill-opacity="1" fill-rule="nonzero"/><path fill="#ffffff" d="M 295.238281 274.824219 L 293.183594 268.535156 L 293.101562 268.511719 L 293.140625 268.496094 C 289.226562 261.402344 284.183594 254.386719 279.90625 250.394531 C 278.695312 249.265625 277.363281 247.9375 275.910156 246.484375 C 273.859375 244.410156 271.667969 242.492188 269.335938 240.730469 C 267.007812 238.972656 264.5625 237.390625 262.003906 235.984375 C 259.445312 234.574219 256.796875 233.359375 254.0625 232.332031 C 251.328125 231.308594 248.535156 230.484375 245.683594 229.859375 C 242.828125 229.238281 239.945312 228.824219 237.03125 228.617188 C 234.117188 228.410156 231.207031 228.410156 228.292969 228.625 C 225.378906 228.835938 222.496094 229.257812 219.644531 229.886719 C 216.792969 230.515625 214 231.34375 211.265625 232.375 L 227.289062 246.28125 C 224.785156 253.136719 220.304688 273.292969 226.035156 276.4375 C 229.15625 278.164062 233.644531 277.875 238.316406 277.410156 C 240.390625 282.945312 242.316406 287.359375 243.589844 290.304688 C 244.105469 291.507812 244.804688 292.589844 245.691406 293.550781 C 246.578125 294.511719 247.597656 295.296875 248.753906 295.910156 L 253.917969 298.652344 C 254.59375 299.003906 255.296875 299.289062 256.027344 299.503906 C 256.761719 299.71875 257.507812 299.859375 258.265625 299.921875 C 259.023438 299.988281 259.785156 299.976562 260.542969 299.890625 C 261.296875 299.804688 262.039062 299.644531 262.765625 299.40625 C 263.488281 299.171875 264.183594 298.867188 264.847656 298.496094 C 265.511719 298.121094 266.132812 297.683594 266.710938 297.1875 C 267.285156 296.6875 267.808594 296.136719 268.273438 295.535156 C 268.742188 294.933594 269.144531 294.289062 269.480469 293.605469 C 271.035156 293.875 272.582031 293.820312 274.113281 293.441406 C 275.648438 293.0625 277.039062 292.394531 278.292969 291.433594 C 279.320312 290.65625 280.191406 289.726562 280.90625 288.652344 C 282.550781 289.027344 284.195312 289.035156 285.839844 288.675781 C 287.488281 288.316406 288.980469 287.621094 290.316406 286.597656 C 293.828125 283.9375 296.128906 279.097656 295.238281 274.824219 Z M 295.238281 274.824219 " fill-opacity="1" fill-rule="nonzero"/><path fill="#222433" d="M 259.25 301.195312 C 257.15625 301.195312 255.191406 300.703125 253.347656 299.714844 L 248.1875 296.976562 C 246.910156 296.300781 245.78125 295.429688 244.800781 294.363281 C 243.820312 293.300781 243.046875 292.105469 242.476562 290.777344 L 242.292969 290.355469 C 241.117188 287.640625 239.375 283.609375 237.511719 278.703125 C 232.953125 279.128906 228.644531 279.265625 225.449219 277.496094 C 218.460938 273.660156 223.996094 252.382812 225.878906 246.660156 L 210.472656 233.289062 C 210.394531 233.222656 210.324219 233.144531 210.265625 233.058594 C 210.207031 232.96875 210.160156 232.878906 210.125 232.777344 C 210.089844 232.679688 210.070312 232.578125 210.0625 232.476562 C 210.050781 232.371094 210.058594 232.265625 210.074219 232.164062 C 210.09375 232.0625 210.125 231.960938 210.167969 231.867188 C 210.214844 231.773438 210.269531 231.683594 210.335938 231.605469 C 210.402344 231.523438 210.480469 231.453125 210.566406 231.390625 C 210.648438 231.332031 210.742188 231.28125 210.839844 231.246094 C 213.625 230.195312 216.476562 229.351562 219.382812 228.710938 C 222.292969 228.070312 225.234375 227.644531 228.203125 227.425781 C 231.175781 227.210938 234.144531 227.207031 237.117188 227.421875 C 240.089844 227.632812 243.027344 228.054688 245.9375 228.691406 C 248.847656 229.324219 251.699219 230.167969 254.488281 231.210938 C 257.277344 232.257812 259.976562 233.496094 262.585938 234.933594 C 265.195312 236.367188 267.6875 237.980469 270.066406 239.773438 C 272.441406 241.566406 274.679688 243.523438 276.773438 245.636719 C 278.191406 247.054688 279.535156 248.394531 280.730469 249.511719 C 284.929688 253.429688 290.054688 260.421875 294.132812 267.789062 C 294.222656 267.902344 294.289062 268.027344 294.332031 268.164062 L 296.390625 274.453125 C 296.40625 274.496094 296.417969 274.539062 296.425781 274.582031 C 297.367188 279.113281 295.15625 284.449219 291.050781 287.5625 C 289.683594 288.613281 288.167969 289.351562 286.496094 289.773438 C 284.828125 290.191406 283.140625 290.265625 281.441406 289.988281 C 280.789062 290.84375 280.039062 291.605469 279.1875 292.273438 C 278.339844 292.9375 277.421875 293.488281 276.4375 293.917969 C 275.449219 294.351562 274.421875 294.652344 273.355469 294.820312 C 272.292969 294.988281 271.222656 295.023438 270.148438 294.917969 C 269.300781 296.363281 268.210938 297.59375 266.878906 298.609375 C 265.785156 299.449219 264.582031 300.089844 263.277344 300.53125 C 261.972656 300.976562 260.628906 301.195312 259.25 301.195312 Z M 238.316406 276.199219 C 238.570312 276.199219 238.800781 276.273438 239.007812 276.417969 C 239.214844 276.558594 239.363281 276.75 239.449219 276.984375 C 241.417969 282.230469 243.28125 286.542969 244.515625 289.398438 L 244.699219 289.824219 C 245.164062 290.898438 245.789062 291.867188 246.582031 292.726562 C 247.375 293.589844 248.289062 294.292969 249.324219 294.839844 L 254.488281 297.582031 C 255.089844 297.898438 255.71875 298.152344 256.371094 298.34375 C 257.027344 298.535156 257.691406 298.660156 258.371094 298.71875 C 259.050781 298.777344 259.730469 298.765625 260.40625 298.6875 C 261.082031 298.613281 261.746094 298.46875 262.394531 298.257812 C 263.042969 298.046875 263.664062 297.773438 264.257812 297.441406 C 264.847656 297.105469 265.402344 296.714844 265.917969 296.269531 C 266.433594 295.824219 266.902344 295.332031 267.316406 294.796875 C 267.734375 294.257812 268.09375 293.683594 268.394531 293.070312 C 268.515625 292.832031 268.691406 292.652344 268.933594 292.527344 C 269.171875 292.40625 269.421875 292.371094 269.6875 292.414062 C 270.660156 292.578125 271.636719 292.597656 272.621094 292.476562 C 273.601562 292.359375 274.542969 292.101562 275.449219 291.707031 C 276.355469 291.3125 277.1875 290.800781 277.945312 290.167969 C 278.703125 289.53125 279.351562 288.804688 279.898438 287.980469 C 280.039062 287.773438 280.226562 287.621094 280.457031 287.527344 C 280.691406 287.433594 280.929688 287.414062 281.175781 287.472656 C 282.644531 287.808594 284.113281 287.816406 285.582031 287.496094 C 287.054688 287.175781 288.386719 286.554688 289.578125 285.636719 C 292.902344 283.121094 294.78125 278.714844 294.070312 275.132812 L 292.144531 269.25 C 292.039062 269.113281 291.96875 268.964844 291.929688 268.800781 C 287.980469 261.699219 283.074219 255.003906 279.082031 251.28125 C 277.851562 250.132812 276.496094 248.777344 275.058594 247.339844 C 273.105469 245.367188 271.023438 243.542969 268.816406 241.859375 C 266.605469 240.179688 264.292969 238.660156 261.871094 237.300781 C 259.449219 235.941406 256.945312 234.757812 254.359375 233.75 C 251.769531 232.742188 249.125 231.917969 246.425781 231.28125 C 243.722656 230.640625 240.988281 230.191406 238.222656 229.9375 C 235.457031 229.679688 232.6875 229.617188 229.914062 229.746094 C 227.140625 229.875 224.390625 230.199219 221.660156 230.710938 C 218.933594 231.226562 216.253906 231.929688 213.625 232.816406 L 228.082031 245.371094 C 228.273438 245.535156 228.398438 245.738281 228.460938 245.980469 C 228.523438 246.222656 228.511719 246.464844 228.425781 246.699219 C 225.328125 255.1875 222.214844 272.960938 226.621094 275.378906 C 229.425781 276.929688 233.699219 276.65625 238.199219 276.207031 C 238.238281 276.203125 238.277344 276.203125 238.316406 276.203125 Z M 238.316406 276.199219 " fill-opacity="1" fill-rule="nonzero"/><path fill="#222433" d="M 256.503906 285.953125 C 256.257812 285.953125 256.03125 285.882812 255.828125 285.746094 C 255.621094 285.609375 255.472656 285.425781 255.382812 285.199219 C 250.90625 274.261719 245.128906 269.914062 241.652344 270.496094 C 240.6875 270.71875 239.976562 271.265625 239.511719 272.140625 C 239.121094 272.804688 238.890625 273.519531 238.8125 274.285156 C 238.738281 275.050781 238.828125 275.796875 239.082031 276.523438 C 239.136719 276.675781 239.15625 276.832031 239.148438 276.992188 C 239.140625 277.152344 239.101562 277.304688 239.03125 277.449219 C 238.960938 277.59375 238.867188 277.71875 238.746094 277.828125 C 238.625 277.933594 238.492188 278.015625 238.339844 278.066406 C 238.1875 278.121094 238.03125 278.140625 237.871094 278.132812 C 237.710938 278.125 237.554688 278.082031 237.410156 278.015625 C 237.265625 277.945312 237.140625 277.847656 237.035156 277.726562 C 236.925781 277.609375 236.847656 277.472656 236.796875 277.320312 C 236.425781 276.253906 236.296875 275.160156 236.410156 274.035156 C 236.519531 272.914062 236.863281 271.867188 237.4375 270.894531 C 237.835938 270.167969 238.371094 269.5625 239.042969 269.074219 C 239.710938 268.589844 240.453125 268.265625 241.265625 268.105469 C 245.460938 267.398438 252.273438 271.210938 257.621094 284.285156 C 257.699219 284.472656 257.726562 284.664062 257.707031 284.863281 C 257.683594 285.066406 257.617188 285.25 257.507812 285.417969 C 257.394531 285.585938 257.25 285.714844 257.070312 285.808594 C 256.890625 285.90625 256.703125 285.953125 256.5 285.953125 Z M 256.503906 285.953125 " fill-opacity="1" fill-rule="nonzero"/><path fill="#ff7557" d="M 225.996094 283.574219 L 122.210938 256.683594 C 121.621094 256.53125 121.039062 256.363281 120.457031 256.175781 C 119.878906 255.988281 119.308594 255.78125 118.738281 255.558594 C 118.171875 255.339844 117.613281 255.097656 117.0625 254.84375 C 116.511719 254.589844 115.964844 254.316406 115.429688 254.027344 C 114.894531 253.738281 114.367188 253.433594 113.851562 253.113281 C 113.335938 252.792969 112.828125 252.457031 112.328125 252.109375 C 111.832031 251.757812 111.347656 251.390625 110.871094 251.011719 C 110.398438 250.632812 109.933594 250.238281 109.484375 249.828125 C 109.03125 249.421875 108.59375 249 108.167969 248.566406 C 107.742188 248.132812 107.328125 247.683594 106.929688 247.226562 C 106.53125 246.765625 106.148438 246.296875 105.777344 245.8125 C 105.40625 245.332031 105.050781 244.839844 104.710938 244.335938 C 104.371094 243.832031 104.042969 243.316406 103.734375 242.792969 C 103.425781 242.269531 103.132812 241.738281 102.855469 241.195312 C 102.578125 240.65625 102.316406 240.105469 102.070312 239.550781 C 101.828125 238.992188 101.601562 238.429688 101.390625 237.859375 C 101.179688 237.289062 100.988281 236.710938 100.8125 236.128906 C 100.636719 235.546875 100.480469 234.960938 100.339844 234.371094 C 100.199219 233.777344 100.078125 233.183594 99.972656 232.582031 C 99.867188 231.984375 99.78125 231.382812 99.714844 230.777344 C 99.648438 230.175781 99.597656 229.570312 99.566406 228.960938 C 99.535156 228.355469 99.523438 227.746094 99.527344 227.140625 C 99.535156 226.53125 99.558594 225.925781 99.597656 225.316406 C 99.640625 224.710938 99.703125 224.105469 99.78125 223.503906 C 99.859375 222.902344 99.957031 222.300781 100.070312 221.703125 C 100.1875 221.105469 100.320312 220.515625 100.46875 219.925781 C 100.621094 219.335938 100.789062 218.753906 100.972656 218.171875 C 101.160156 217.59375 101.363281 217.023438 101.582031 216.457031 C 101.804688 215.886719 102.042969 215.328125 102.296875 214.777344 C 102.550781 214.222656 102.820312 213.679688 103.109375 213.144531 C 103.394531 212.609375 103.699219 212.082031 104.015625 211.5625 C 104.335938 211.046875 104.671875 210.539062 105.019531 210.039062 L 157.921875 134.574219 L 207.515625 169.324219 L 179.632812 209.113281 L 241.207031 225.078125 Z M 225.996094 283.574219 " fill-opacity="1" fill-rule="nonzero"/><path fill="#222433" d="M 88.355469 193.875 C 88.195312 193.875 88.039062 193.84375 87.890625 193.785156 C 87.742188 193.722656 87.613281 193.632812 87.5 193.519531 C 87.386719 193.40625 87.296875 193.277344 87.238281 193.128906 C 87.175781 192.980469 87.144531 192.828125 87.144531 192.667969 L 87.144531 181.78125 C 87.144531 181.621094 87.175781 181.464844 87.238281 181.320312 C 87.296875 181.171875 87.386719 181.039062 87.5 180.925781 C 87.613281 180.8125 87.742188 180.726562 87.890625 180.664062 C 88.039062 180.601562 88.195312 180.570312 88.355469 180.570312 C 88.515625 180.570312 88.667969 180.601562 88.816406 180.664062 C 88.964844 180.726562 89.097656 180.8125 89.210938 180.925781 C 89.324219 181.039062 89.410156 181.171875 89.472656 181.320312 C 89.535156 181.464844 89.566406 181.621094 89.566406 181.78125 L 89.566406 192.667969 C 89.566406 192.828125 89.535156 192.980469 89.472656 193.128906 C 89.410156 193.277344 89.324219 193.40625 89.210938 193.519531 C 89.097656 193.632812 88.964844 193.722656 88.816406 193.785156 C 88.667969 193.84375 88.515625 193.875 88.355469 193.875 Z M 88.355469 193.875 " fill-opacity="1" fill-rule="nonzero"/><path fill="#222433" d="M 228.738281 186.054688 L 220.667969 186.054688 C 220.507812 186.054688 220.355469 186.023438 220.207031 185.960938 C 220.058594 185.902344 219.925781 185.8125 219.8125 185.699219 C 219.699219 185.585938 219.613281 185.457031 219.550781 185.308594 C 219.488281 185.160156 219.457031 185.003906 219.457031 184.84375 L 219.457031 175.332031 C 219.460938 171.667969 219.074219 168.046875 218.292969 164.46875 C 217.515625 160.886719 216.363281 157.433594 214.839844 154.101562 C 213.3125 150.769531 211.453125 147.640625 209.25 144.710938 C 207.050781 141.78125 204.5625 139.121094 201.785156 136.726562 L 132.277344 76.601562 C 132.152344 76.5 132.054688 76.375 131.980469 76.230469 C 131.910156 76.085938 131.867188 75.933594 131.851562 75.773438 C 131.839844 75.613281 131.859375 75.457031 131.910156 75.300781 C 131.960938 75.148438 132.039062 75.011719 132.144531 74.886719 C 132.25 74.765625 132.375 74.667969 132.519531 74.597656 C 132.664062 74.527344 132.820312 74.484375 132.980469 74.472656 C 133.140625 74.464844 133.296875 74.484375 133.453125 74.535156 C 133.605469 74.589844 133.742188 74.667969 133.863281 74.773438 L 203.371094 134.898438 C 204.820312 136.148438 206.199219 137.472656 207.503906 138.867188 C 208.8125 140.265625 210.039062 141.730469 211.1875 143.261719 C 212.335938 144.789062 213.402344 146.378906 214.378906 148.023438 C 215.359375 149.664062 216.246094 151.355469 217.042969 153.097656 C 217.835938 154.835938 218.539062 156.613281 219.144531 158.429688 C 219.75 160.242188 220.253906 162.085938 220.660156 163.953125 C 221.066406 165.824219 221.371094 167.707031 221.578125 169.609375 C 221.78125 171.511719 221.882812 173.417969 221.878906 175.332031 L 221.878906 183.636719 L 227.53125 183.636719 L 227.53125 175.332031 C 227.53125 173.21875 227.417969 171.109375 227.195312 169.007812 C 226.96875 166.902344 226.628906 164.820312 226.179688 162.753906 C 225.730469 160.6875 225.171875 158.648438 224.503906 156.644531 C 223.835938 154.636719 223.058594 152.671875 222.179688 150.75 C 221.300781 148.824219 220.316406 146.957031 219.234375 145.136719 C 218.15625 143.320312 216.980469 141.566406 215.707031 139.875 C 214.4375 138.183594 213.078125 136.566406 211.636719 135.019531 C 210.191406 133.472656 208.667969 132.011719 207.066406 130.628906 L 141.214844 73.484375 C 141.089844 73.382812 140.992188 73.257812 140.917969 73.113281 C 140.84375 72.96875 140.800781 72.816406 140.785156 72.65625 C 140.773438 72.492188 140.792969 72.335938 140.84375 72.179688 C 140.894531 72.027344 140.972656 71.886719 141.078125 71.765625 C 141.1875 71.644531 141.3125 71.546875 141.457031 71.472656 C 141.601562 71.402344 141.757812 71.363281 141.917969 71.351562 C 142.082031 71.339844 142.238281 71.363281 142.390625 71.417969 C 142.546875 71.46875 142.683594 71.550781 142.804688 71.660156 L 208.648438 128.796875 C 210.316406 130.238281 211.902344 131.761719 213.40625 133.371094 C 214.910156 134.976562 216.324219 136.664062 217.644531 138.421875 C 218.96875 140.183594 220.191406 142.011719 221.320312 143.902344 C 222.445312 145.792969 223.464844 147.742188 224.382812 149.742188 C 225.296875 151.746094 226.105469 153.789062 226.800781 155.878906 C 227.496094 157.964844 228.078125 160.085938 228.546875 162.238281 C 229.015625 164.386719 229.367188 166.558594 229.601562 168.746094 C 229.835938 170.933594 229.953125 173.128906 229.949219 175.332031 L 229.949219 184.84375 C 229.949219 185.003906 229.917969 185.160156 229.859375 185.308594 C 229.796875 185.457031 229.710938 185.585938 229.597656 185.699219 C 229.480469 185.8125 229.351562 185.902344 229.203125 185.960938 C 229.054688 186.023438 228.902344 186.054688 228.738281 186.054688 Z M 228.738281 186.054688 " fill-opacity="1" fill-rule="nonzero"/><path fill="#222433" d="M 141.257812 159.648438 C 141.089844 159.648438 140.929688 159.617188 140.773438 159.546875 C 140.621094 159.480469 140.488281 159.386719 140.371094 159.265625 C 140.257812 159.144531 140.171875 159.003906 140.117188 158.84375 C 140.058594 158.6875 140.039062 158.527344 140.046875 158.359375 L 141.097656 142.597656 C 141.105469 142.433594 141.144531 142.28125 141.214844 142.132812 C 141.285156 141.988281 141.382812 141.863281 141.503906 141.753906 C 141.625 141.648438 141.761719 141.566406 141.914062 141.515625 C 142.066406 141.460938 142.226562 141.441406 142.386719 141.453125 C 142.550781 141.460938 142.703125 141.503906 142.847656 141.578125 C 142.992188 141.648438 143.117188 141.746094 143.222656 141.871094 C 143.328125 141.992188 143.40625 142.128906 143.457031 142.285156 C 143.507812 142.4375 143.527344 142.597656 143.511719 142.757812 L 142.75 154.207031 L 147.207031 147.867188 C 147.296875 147.734375 147.414062 147.628906 147.546875 147.542969 C 147.683594 147.457031 147.828125 147.398438 147.988281 147.371094 C 148.144531 147.34375 148.304688 147.347656 148.460938 147.382812 C 148.617188 147.417969 148.757812 147.480469 148.890625 147.574219 C 149.023438 147.667969 149.128906 147.78125 149.214844 147.914062 C 149.300781 148.050781 149.359375 148.195312 149.386719 148.355469 C 149.414062 148.511719 149.410156 148.667969 149.378906 148.824219 C 149.34375 148.980469 149.28125 149.125 149.1875 149.257812 L 142.246094 159.132812 C 142.007812 159.476562 141.675781 159.648438 141.257812 159.648438 Z M 141.257812 159.648438 " fill-opacity="1" fill-rule="nonzero"/><path fill="#222433" d="M 196.621094 186.054688 C 196.128906 186.054688 195.773438 185.835938 195.546875 185.402344 C 195.320312 184.96875 195.347656 184.550781 195.628906 184.148438 L 200.390625 177.378906 C 200.484375 177.246094 200.597656 177.136719 200.734375 177.050781 C 200.867188 176.964844 201.015625 176.90625 201.175781 176.878906 C 201.332031 176.851562 201.488281 176.855469 201.648438 176.890625 C 201.804688 176.925781 201.949219 176.988281 202.078125 177.082031 C 202.210938 177.171875 202.320312 177.289062 202.40625 177.421875 C 202.492188 177.558594 202.546875 177.707031 202.574219 177.863281 C 202.605469 178.023438 202.601562 178.179688 202.566406 178.335938 C 202.53125 178.492188 202.464844 178.636719 202.371094 178.765625 L 197.613281 185.539062 C 197.371094 185.882812 197.039062 186.054688 196.621094 186.054688 Z M 196.621094 186.054688 " fill-opacity="1" fill-rule="nonzero"/><path fill="#222433" d="M 179.632812 218.265625 C 179.472656 218.265625 179.316406 218.234375 179.167969 218.171875 C 179.019531 218.113281 178.890625 218.023438 178.773438 217.910156 C 178.660156 217.796875 178.574219 217.667969 178.511719 217.519531 C 178.453125 217.371094 178.421875 217.214844 178.421875 217.054688 L 178.421875 212.152344 L 174.136719 216.675781 C 174.023438 216.796875 173.898438 216.890625 173.75 216.957031 C 173.601562 217.027344 173.449219 217.0625 173.285156 217.070312 C 173.125 217.074219 172.964844 217.046875 172.816406 216.992188 C 172.664062 216.933594 172.527344 216.851562 172.410156 216.738281 C 172.292969 216.628906 172.203125 216.496094 172.136719 216.347656 C 172.070312 216.199219 172.035156 216.046875 172.03125 215.882812 C 172.027344 215.722656 172.058594 215.566406 172.117188 215.414062 C 172.175781 215.265625 172.261719 215.132812 172.375 215.015625 L 178.753906 208.28125 C 178.921875 208.101562 179.128906 207.988281 179.371094 207.933594 C 179.613281 207.878906 179.847656 207.898438 180.078125 207.992188 C 180.308594 208.082031 180.492188 208.230469 180.632812 208.433594 C 180.773438 208.640625 180.84375 208.867188 180.84375 209.113281 L 180.84375 217.054688 C 180.84375 217.214844 180.8125 217.371094 180.75 217.519531 C 180.6875 217.667969 180.601562 217.796875 180.488281 217.910156 C 180.375 218.023438 180.242188 218.113281 180.09375 218.171875 C 179.945312 218.234375 179.792969 218.265625 179.632812 218.265625 Z M 179.632812 218.265625 " fill-opacity="1" fill-rule="nonzero"/><path fill="#222433" d="M 335.214844 239.515625 C 335.171875 239.515625 335.128906 239.515625 335.085938 239.507812 C 334.699219 239.46875 334.398438 239.28125 334.191406 238.949219 L 324.050781 222.824219 C 323.960938 222.6875 323.902344 222.539062 323.871094 222.382812 C 323.84375 222.222656 323.84375 222.0625 323.878906 221.902344 C 323.914062 221.746094 323.980469 221.601562 324.070312 221.46875 C 324.164062 221.335938 324.28125 221.226562 324.417969 221.140625 C 324.554688 221.054688 324.703125 220.996094 324.863281 220.96875 C 325.023438 220.945312 325.183594 220.949219 325.34375 220.988281 C 325.5 221.023438 325.644531 221.089844 325.777344 221.1875 C 325.90625 221.28125 326.015625 221.398438 326.097656 221.539062 L 335.421875 236.363281 L 353.261719 218.109375 C 353.371094 217.996094 353.503906 217.902344 353.652344 217.839844 C 353.796875 217.773438 353.953125 217.738281 354.117188 217.734375 C 354.277344 217.734375 354.433594 217.761719 354.582031 217.820312 C 354.734375 217.878906 354.867188 217.96875 354.984375 218.078125 C 355.097656 218.191406 355.1875 218.324219 355.25 218.472656 C 355.316406 218.621094 355.347656 218.777344 355.347656 218.9375 C 355.347656 219.101562 355.320312 219.253906 355.257812 219.40625 C 355.195312 219.554688 355.109375 219.6875 354.992188 219.800781 L 336.082031 239.152344 C 335.84375 239.394531 335.554688 239.515625 335.214844 239.515625 Z M 335.214844 239.515625 " fill-opacity="1" fill-rule="nonzero"/><path fill="#222433" d="M 317.863281 238.304688 C 317.546875 238.304688 317.273438 238.199219 317.042969 237.984375 C 316.8125 237.773438 316.683594 237.507812 316.65625 237.195312 C 316.632812 236.882812 316.714844 236.601562 316.910156 236.355469 C 317.101562 236.105469 317.355469 235.957031 317.664062 235.902344 L 318.0625 235.839844 C 322.449219 235.101562 326.429688 233.421875 330.015625 230.789062 L 330.164062 230.679688 C 330.292969 230.585938 330.433594 230.515625 330.589844 230.476562 C 330.746094 230.4375 330.90625 230.429688 331.0625 230.453125 C 331.222656 230.476562 331.371094 230.53125 331.511719 230.613281 C 331.648438 230.699219 331.765625 230.804688 331.859375 230.933594 C 331.957031 231.0625 332.023438 231.207031 332.0625 231.363281 C 332.097656 231.519531 332.105469 231.675781 332.082031 231.835938 C 332.058594 231.996094 332.003906 232.144531 331.917969 232.28125 C 331.835938 232.417969 331.726562 232.535156 331.597656 232.628906 L 331.449219 232.738281 C 327.554688 235.597656 323.226562 237.425781 318.460938 238.222656 L 318.0625 238.289062 C 317.996094 238.300781 317.929688 238.308594 317.863281 238.304688 Z M 317.863281 238.304688 " fill-opacity="1" fill-rule="nonzero"/><path fill="#222433" d="M 350.3125 226.710938 C 349.4375 226.726562 348.566406 226.660156 347.703125 226.515625 C 347.546875 226.484375 347.402344 226.421875 347.269531 226.332031 C 347.140625 226.242188 347.03125 226.128906 346.941406 225.996094 C 346.855469 225.863281 346.796875 225.71875 346.765625 225.5625 C 346.734375 225.40625 346.738281 225.25 346.769531 225.09375 C 346.800781 224.9375 346.859375 224.792969 346.949219 224.664062 C 347.035156 224.53125 347.148438 224.417969 347.277344 224.332031 C 347.410156 224.242188 347.554688 224.179688 347.710938 224.148438 C 347.867188 224.117188 348.023438 224.117188 348.179688 224.144531 C 348.253906 224.160156 354.15625 225.234375 364.109375 221.121094 C 366.265625 220.226562 368.167969 218.949219 369.816406 217.292969 C 369.929688 217.179688 370.058594 217.09375 370.207031 217.035156 C 370.355469 216.972656 370.511719 216.945312 370.667969 216.945312 C 370.828125 216.945312 370.984375 216.976562 371.128906 217.039062 C 371.277344 217.097656 371.40625 217.1875 371.519531 217.300781 C 371.632812 217.414062 371.722656 217.542969 371.78125 217.691406 C 371.84375 217.835938 371.875 217.992188 371.875 218.148438 C 371.875 218.308594 371.847656 218.464844 371.785156 218.609375 C 371.726562 218.757812 371.640625 218.890625 371.527344 219.003906 C 369.652344 220.886719 367.488281 222.339844 365.035156 223.355469 C 358.207031 226.179688 353.152344 226.710938 350.3125 226.710938 Z M 350.3125 226.710938 " fill-opacity="1" fill-rule="nonzero"/><path fill="#222433" d="M 351.300781 203.839844 C 351.300781 204.117188 351.277344 204.390625 351.222656 204.664062 C 351.167969 204.9375 351.085938 205.203125 350.980469 205.457031 C 350.875 205.714844 350.742188 205.957031 350.589844 206.191406 C 350.433594 206.421875 350.257812 206.636719 350.0625 206.832031 C 349.863281 207.027344 349.652344 207.203125 349.417969 207.359375 C 349.1875 207.511719 348.945312 207.640625 348.6875 207.75 C 348.429688 207.855469 348.164062 207.9375 347.890625 207.988281 C 347.621094 208.042969 347.34375 208.070312 347.066406 208.070312 C 346.789062 208.070312 346.511719 208.042969 346.238281 207.988281 C 345.964844 207.9375 345.703125 207.855469 345.445312 207.75 C 345.1875 207.640625 344.941406 207.511719 344.710938 207.359375 C 344.480469 207.203125 344.265625 207.027344 344.070312 206.832031 C 343.871094 206.636719 343.699219 206.421875 343.542969 206.191406 C 343.386719 205.957031 343.257812 205.714844 343.152344 205.457031 C 343.042969 205.203125 342.964844 204.9375 342.910156 204.664062 C 342.855469 204.390625 342.828125 204.117188 342.828125 203.839844 C 342.828125 203.558594 342.855469 203.285156 342.910156 203.011719 C 342.964844 202.738281 343.042969 202.476562 343.152344 202.21875 C 343.257812 201.960938 343.386719 201.71875 343.542969 201.488281 C 343.699219 201.253906 343.871094 201.042969 344.070312 200.84375 C 344.265625 200.648438 344.480469 200.472656 344.710938 200.320312 C 344.941406 200.164062 345.1875 200.035156 345.445312 199.925781 C 345.703125 199.820312 345.964844 199.742188 346.238281 199.6875 C 346.511719 199.632812 346.789062 199.605469 347.066406 199.605469 C 347.34375 199.605469 347.621094 199.632812 347.890625 199.6875 C 348.164062 199.742188 348.429688 199.820312 348.6875 199.925781 C 348.945312 200.035156 349.1875 200.164062 349.417969 200.320312 C 349.652344 200.472656 349.863281 200.648438 350.0625 200.84375 C 350.257812 201.042969 350.433594 201.253906 350.589844 201.488281 C 350.742188 201.71875 350.875 201.960938 350.980469 202.21875 C 351.085938 202.476562 351.167969 202.738281 351.222656 203.011719 C 351.277344 203.285156 351.300781 203.558594 351.300781 203.839844 Z M 351.300781 203.839844 " fill-opacity="1" fill-rule="nonzero"/></svg>